<svg width="318" height="114" viewBox="0 0 318 114" fill="none" xmlns="http://www.w3.org/2000/svg">
<g clip-path="url(#clip0_69_1130)">
<path d="M25.7143 48.4357L27.1143 49.8643L25.5143 51.4643L24.0857 50.0643L25.7143 48.4357ZM29.1429 48.4357L30.5429 49.8643L28.9429 51.4643L27.5143 50.0643L29.1429 48.4357ZM22.7143 62.6929V57.9786C22.7143 57.2072 22.8286 56.55 23.0857 55.9786C23.3429 55.4072 23.6857 54.95 24.1429 54.6072C24.5714 54.2643 25.0857 53.9786 25.6571 53.8072C26.2286 53.6357 26.8286 53.55 27.4571 53.55C28.2286 53.55 29 53.6929 29.7714 53.9214C30.5143 54.15 31.2286 54.4929 31.8571 54.9214V62.6929H22.7143ZM29.5714 60.4072V56.2357C28.9714 55.9786 28.2571 55.8357 27.4571 55.8357C26.8 55.8357 26.2286 56.0072 25.7429 56.35C25.2286 56.6929 25 57.2357 25 57.9786V60.4072H29.5714ZM41.0067 56.4072C41.0067 56.0357 40.7781 55.75 40.3781 55.55C39.9781 55.3786 39.4638 55.2643 38.8924 55.2643C38.4067 55.2643 37.921 55.35 37.4067 55.4643C36.8924 55.5786 36.4067 55.75 35.9781 55.95L35.521 53.75C36.0353 53.5214 36.5781 53.3214 37.2067 53.1786C37.8067 53.0643 38.4067 52.9786 38.9781 52.9786C39.5496 52.9786 40.0924 53.0643 40.6067 53.1786C41.121 53.3214 41.5781 53.5214 41.9781 53.8072C42.3781 54.0929 42.6924 54.4357 42.921 54.8643C43.1496 55.3214 43.2924 55.8357 43.2924 56.4072V60.4072H45.2924V62.6929H34.721V60.4072H41.0067V56.4072ZM44.4397 61.2643C44.4397 61.0357 44.4969 60.8357 44.6683 60.6643C44.8397 60.4929 45.0397 60.4072 45.2969 60.4072H54.0683C53.4969 59.8643 53.0683 59.3214 52.7254 58.7786C52.3826 58.2643 52.0397 57.7786 51.7254 57.35C51.3826 56.9214 51.0397 56.5786 50.6397 56.2929C50.2397 56.0357 49.754 55.8929 49.1254 55.8929C48.8683 55.8929 48.5826 55.95 48.2397 56.0643C47.8969 56.1786 47.4969 56.4357 47.0112 56.8072C46.8397 56.5214 46.6969 56.2072 46.5254 55.9214C46.354 55.6357 46.2112 55.3214 46.0683 55.0072C46.6112 54.6072 47.1254 54.2643 47.6397 53.9786C48.154 53.6929 48.7254 53.55 49.354 53.55C50.0969 53.55 50.7254 53.7214 51.2969 54.0643C51.8397 54.4072 52.3254 54.8357 52.7826 55.35C53.2112 55.8643 53.6112 56.4072 53.9826 56.9786C54.354 57.5786 54.7254 58.1214 55.1254 58.6357C55.4969 59.15 55.8969 59.55 56.354 59.8929C56.7826 60.2357 57.2969 60.4072 57.8683 60.4072H59.0112V62.6929H45.2969C45.0397 62.6929 44.8397 62.6357 44.6683 62.4643C44.4969 62.2929 44.4397 62.0929 44.4397 61.8357V61.2643ZM61.0078 48.4357L62.4078 49.8643L60.8078 51.4643L59.3792 50.0643L61.0078 48.4357ZM64.4364 48.4357L65.8364 49.8643L64.2364 51.4643L62.8078 50.0643L64.4364 48.4357ZM58.1507 61.2643C58.1507 61.0357 58.2078 60.8357 58.3792 60.6643C58.5507 60.4929 58.7507 60.4072 59.0078 60.4072H62.1507V53.55H64.4364V60.4072H67.5792V62.6929H59.0078C58.7507 62.6929 58.5507 62.6357 58.3792 62.4643C58.2078 62.2929 58.1507 62.0929 58.1507 61.8357V61.2643ZM66.7249 61.2643C66.7249 61.0357 66.782 60.8357 66.9535 60.6643C67.1249 60.4929 67.3249 60.4072 67.582 60.4072H69.2963V59.4929C69.2963 58.7214 69.4106 58.0643 69.6677 57.4929C69.8963 56.9214 70.2392 56.4643 70.6677 56.0929C71.0677 55.7214 71.5535 55.4357 72.1249 55.2643C72.6677 55.0929 73.2392 54.9786 73.8677 54.9786C74.4677 54.9786 75.0392 55.0929 75.6106 55.2643C76.1535 55.4357 76.6392 55.7214 77.0677 56.0929C77.4677 56.4643 77.8106 56.9214 78.0677 57.4929C78.2963 58.0643 78.4392 58.7214 78.4392 59.4929V60.4072H80.1535V62.6929H77.9535C77.6106 63.4072 77.0677 63.95 76.3249 64.2929C75.582 64.6643 74.782 64.8357 73.8677 64.8357C72.9535 64.8357 72.1249 64.6643 71.382 64.2929C70.6392 63.95 70.0963 63.4072 69.7535 62.6929H67.582C67.3249 62.6929 67.1249 62.6357 66.9535 62.4643C66.782 62.2929 66.7249 62.0929 66.7249 61.8357V61.2643ZM71.582 60.6929C71.582 61.3214 71.8106 61.7786 72.2677 62.0929C72.7249 62.4072 73.2392 62.55 73.8677 62.55C74.4677 62.55 75.0106 62.4072 75.4677 62.0929C75.9249 61.7786 76.1535 61.3214 76.1535 60.6929V59.4929C76.1535 58.7214 75.9249 58.15 75.4677 57.8072C75.0106 57.4643 74.4677 57.2643 73.8677 57.2643C73.2392 57.2643 72.7249 57.4643 72.2677 57.8072C71.8106 58.15 71.582 58.7214 71.582 59.4929V60.6929ZM82.4459 47.2643H84.7316V62.6929H80.1602C79.903 62.6929 79.703 62.6357 79.5316 62.4643C79.3602 62.2929 79.303 62.0929 79.303 61.8357V61.2643C79.303 61.0357 79.3602 60.8357 79.5316 60.6643C79.703 60.4929 79.903 60.4072 80.1602 60.4072H82.4459V47.2643ZM90.442 47.2643V62.6929H88.1563V47.2643H90.442ZM113.351 55.4643C112.894 55.2929 112.466 55.1786 112.008 55.0643C111.551 54.95 111.094 54.8929 110.694 54.8929C109.951 54.8929 109.351 55.15 108.866 55.6072C108.38 56.0643 108.151 56.9214 108.151 58.1214V58.9786H112.437C112.923 58.9786 113.323 59.15 113.666 59.4643C113.98 59.8072 114.151 60.2072 114.151 60.6929V61.8357C114.151 62.6072 114.008 63.3214 113.723 63.9786C113.437 64.6357 113.037 65.2072 112.551 65.6929C112.066 66.1786 111.494 66.55 110.837 66.8357C110.18 67.1214 109.466 67.2643 108.723 67.2643H103.866C103.094 67.2643 102.38 67.1214 101.723 66.8357C101.066 66.55 100.494 66.1786 100.008 65.6929C99.5227 65.2072 99.1512 64.6357 98.8655 63.9786C98.5798 63.3214 98.4369 62.6072 98.4369 61.8357V58.6929H100.723V61.8357C100.723 62.2929 100.78 62.6929 100.951 63.0643C101.123 63.4643 101.351 63.7786 101.637 64.0643C101.923 64.35 102.237 64.5786 102.637 64.75C103.008 64.9214 103.408 64.9786 103.866 64.9786H108.723C109.151 64.9786 109.551 64.9214 109.951 64.75C110.323 64.5786 110.666 64.35 110.951 64.0643C111.237 63.7786 111.437 63.4643 111.608 63.0643C111.78 62.6929 111.866 62.2929 111.866 61.8357V61.2643H107.58C107.066 61.2643 106.666 61.1214 106.351 60.7786C106.008 60.4643 105.866 60.0643 105.866 59.55V58.1214C105.866 56.2357 106.294 54.8643 107.151 54.0072C108.008 53.15 109.123 52.6929 110.551 52.6929C111.494 52.6929 112.666 52.9214 114.094 53.35L113.351 55.4643ZM115.692 64.8929C115.92 64.95 116.178 64.9786 116.406 64.9786C116.692 64.9786 116.949 64.95 117.235 64.8929C117.52 64.8357 117.749 64.7214 117.978 64.55C118.206 64.4072 118.378 64.2072 118.52 63.95C118.635 63.6929 118.72 63.3786 118.72 62.9786V53.2643H121.006V62.9786C121.006 64.4929 120.635 65.5786 119.892 66.2643C119.149 66.95 118.178 67.2643 116.978 67.2643C116.635 67.2643 116.32 67.2643 116.006 67.2072C115.692 67.1786 115.349 67.1214 115.006 67.0357L115.692 64.8929ZM127.012 47.2643V60.4072H129.297V62.6929H124.726V47.2643H127.012ZM128.444 61.2643C128.444 61.0357 128.501 60.8357 128.672 60.6643C128.844 60.4929 129.044 60.4072 129.301 60.4072H138.072C137.501 59.8643 137.072 59.3214 136.729 58.7786C136.386 58.2643 136.044 57.7786 135.729 57.35C135.386 56.9214 135.044 56.5786 134.644 56.2929C134.244 56.0357 133.758 55.8929 133.129 55.8929C132.872 55.8929 132.586 55.95 132.244 56.0643C131.901 56.1786 131.501 56.4357 131.015 56.8072C130.844 56.5214 130.701 56.2072 130.529 55.9214C130.358 55.6357 130.215 55.3214 130.072 55.0072C130.615 54.6072 131.129 54.2643 131.644 53.9786C132.158 53.6929 132.729 53.55 133.358 53.55C134.101 53.55 134.729 53.7214 135.301 54.0643C135.844 54.4072 136.329 54.8357 136.786 55.35C137.215 55.8643 137.615 56.4072 137.986 56.9786C138.358 57.5786 138.729 58.1214 139.129 58.6357C139.501 59.15 139.901 59.55 140.358 59.8929C140.786 60.2357 141.301 60.4072 141.872 60.4072H143.015V62.6929H129.301C129.044 62.6929 128.844 62.6357 128.672 62.4643C128.501 62.2929 128.444 62.0929 128.444 61.8357V61.2643ZM143.012 62.6929C142.755 62.6929 142.555 62.6357 142.383 62.4643C142.212 62.2929 142.155 62.0929 142.155 61.8357V61.2643C142.155 61.0357 142.212 60.8357 142.383 60.6643C142.555 60.4929 142.755 60.4072 143.012 60.4072H144.726V53.8357H147.012V57.35L149.497 55.4072C150.469 54.6357 151.412 54.0929 152.297 53.75C153.155 53.4357 153.955 53.2643 154.697 53.2643C155.383 53.2643 156.012 53.3786 156.555 53.6072C157.069 53.8357 157.526 54.1214 157.897 54.4929C158.24 54.8929 158.526 55.35 158.726 55.8643C158.897 56.3786 159.012 56.95 159.012 57.55V60.1214C159.012 60.8357 158.755 61.4357 158.269 61.95C157.755 62.4643 157.155 62.6929 156.44 62.6929H143.012ZM156.726 57.55C156.726 56.9786 156.526 56.5214 156.183 56.1214C155.84 55.75 155.326 55.55 154.669 55.55C154.155 55.55 153.612 55.6929 152.983 55.9214C152.355 56.1786 151.669 56.6072 150.897 57.2072L147.012 60.2357V60.4072H156.44C156.612 60.4072 156.726 60.3214 156.726 60.1214V57.55ZM171.432 48.4357L172.832 49.8643L171.232 51.4643L169.804 50.0643L171.432 48.4357ZM174.861 48.4357L176.261 49.8643L174.661 51.4643L173.232 50.0643L174.861 48.4357ZM166.718 58.7786C166.718 58.1786 166.861 57.5786 167.204 56.95C167.518 56.3214 167.975 55.7786 168.604 55.2643C169.204 54.75 169.947 54.35 170.832 54.0357C171.718 53.7214 172.718 53.55 173.861 53.55H176.147V60.4072H178.147V62.6929H170.718C169.975 62.6929 169.375 62.6072 168.861 62.3786C168.347 62.1786 167.947 61.8929 167.632 61.5214C167.318 61.1786 167.09 60.75 166.947 60.2643C166.775 59.8072 166.718 59.2929 166.718 58.7786ZM169.004 58.7786C169.004 59.1786 169.118 59.55 169.404 59.8929C169.661 60.2357 170.09 60.4072 170.718 60.4072H173.861V55.8357C173.061 55.8357 172.375 55.9214 171.775 56.0929C171.175 56.2643 170.661 56.4643 170.261 56.7214C169.861 57.0072 169.547 57.3214 169.318 57.6643C169.09 58.0072 169.004 58.3786 169.004 58.7786ZM177.291 61.2643C177.291 61.0357 177.348 60.8357 177.52 60.6643C177.691 60.4929 177.891 60.4072 178.148 60.4072H185.863V58.6929C185.863 58.0072 185.663 57.4357 185.32 57.0357C184.977 56.6357 184.52 56.3214 184.006 56.1214C183.463 55.9214 182.863 55.8072 182.234 55.75C181.606 55.6929 181.006 55.6643 180.463 55.6643L180.006 53.75C181.12 52.6929 182.234 51.6072 183.348 50.5214C184.463 49.4357 185.577 48.35 186.72 47.2643L188.377 48.9214C187.52 49.7786 186.634 50.5786 185.777 51.3786C184.92 52.1786 184.063 53.0072 183.206 53.8357C183.948 53.95 184.606 54.0929 185.234 54.2643C185.834 54.4643 186.348 54.75 186.777 55.1214C187.206 55.4929 187.548 55.9786 187.777 56.55C188.006 57.1214 188.148 57.8357 188.148 58.6929V62.6929H178.148C177.891 62.6929 177.691 62.6357 177.52 62.4643C177.348 62.2929 177.291 62.0929 177.291 61.8357V61.2643ZM194.158 60.4072H196.444V62.6929H194.158C194.158 64.2357 193.786 65.4072 193.072 66.15C192.329 66.8929 191.358 67.2643 190.101 67.2643C189.558 67.2643 188.986 67.2072 188.358 67.0643C187.729 66.95 187.044 66.7214 186.358 66.4357C186.329 66.4929 186.358 66.4072 186.444 66.1786C186.501 65.9786 186.615 65.75 186.729 65.4929C186.844 65.2357 186.929 65.0072 187.044 64.7786C187.129 64.55 187.186 64.4357 187.215 64.4357C187.644 64.6357 188.072 64.7786 188.501 64.8357C188.901 64.8929 189.301 64.9214 189.672 64.9214C190.329 64.9214 190.872 64.7786 191.272 64.4357C191.672 64.0929 191.872 63.5214 191.872 62.6929V53.55H194.158V60.4072ZM206.449 46.15L207.849 47.5786L206.249 49.1786L204.821 47.7786L206.449 46.15ZM204.878 49.0072L206.278 50.4357L204.678 52.0357L203.249 50.6357L204.878 49.0072ZM208.306 49.0072L209.706 50.4357L208.106 52.0357L206.678 50.6357L208.306 49.0072ZM195.592 61.2643C195.592 61.0357 195.649 60.8357 195.821 60.6643C195.992 60.4929 196.192 60.4072 196.449 60.4072H199.306V53.55H201.592V60.4072H205.306V53.55H207.592V60.4072H211.021C211.192 60.4072 211.306 60.3214 211.306 60.1214V53.55H213.592V60.1214C213.592 60.8357 213.335 61.4357 212.849 61.95C212.335 62.4643 211.735 62.6929 211.021 62.6929H196.449C196.192 62.6929 195.992 62.6357 195.821 62.4643C195.649 62.2929 195.592 62.0929 195.592 61.8357V61.2643Z" fill="white"/>
<path d="M26.6047 94.7783L27.5847 95.7783L26.4647 96.8983L25.4647 95.9183L26.6047 94.7783ZM29.0047 94.7783L29.9847 95.7783L28.8647 96.8983L27.8647 95.9183L29.0047 94.7783ZM24.5047 104.758V101.458C24.5047 100.918 24.5847 100.458 24.7647 100.058C24.9447 99.6583 25.1847 99.3383 25.5047 99.0983C25.8047 98.8583 26.1647 98.6583 26.5647 98.5383C26.9647 98.4183 27.3847 98.3583 27.8247 98.3583C28.3647 98.3583 28.9047 98.4583 29.4447 98.6183C29.9647 98.7783 30.4647 99.0183 30.9047 99.3183V104.758H24.5047ZM29.3047 103.158V100.238C28.8847 100.058 28.3847 99.9583 27.8247 99.9583C27.3647 99.9583 26.9647 100.078 26.6247 100.318C26.2647 100.558 26.1047 100.938 26.1047 101.458V103.158H29.3047ZM35.1129 103.158H36.7129V104.758H35.1129C35.1129 105.838 34.8529 106.658 34.3529 107.178C33.8329 107.698 33.1529 107.958 32.2729 107.958C31.8929 107.958 31.4929 107.918 31.0529 107.818C30.6129 107.738 30.1329 107.578 29.6529 107.378C29.6329 107.418 29.6529 107.358 29.7129 107.198C29.7529 107.058 29.8329 106.898 29.9129 106.718C29.9929 106.538 30.0529 106.378 30.1329 106.218C30.1929 106.058 30.2329 105.978 30.2529 105.978C30.5529 106.118 30.8529 106.218 31.1529 106.258C31.4329 106.298 31.7129 106.318 31.9729 106.318C32.4329 106.318 32.8129 106.218 33.0929 105.978C33.3729 105.738 33.5129 105.338 33.5129 104.758V98.3583H35.1129V103.158ZM37.6168 106.378L38.5968 107.378L37.4768 108.498L36.4768 107.518L37.6168 106.378ZM40.0168 106.378L40.9968 107.378L39.8768 108.498L38.8768 107.518L40.0168 106.378ZM40.1168 98.3583H41.7168V104.758H36.7168C36.5368 104.758 36.3968 104.718 36.2768 104.598C36.1568 104.478 36.1168 104.338 36.1168 104.158V103.758C36.1168 103.598 36.1568 103.458 36.2768 103.338C36.3968 103.218 36.5368 103.158 36.7168 103.158H40.1168V98.3583ZM45.5102 94.7783L46.4902 95.7783L45.3702 96.8983L44.3702 95.9183L45.5102 94.7783ZM42.3102 107.798C42.3702 107.558 42.4502 107.298 42.5502 107.058C42.6302 106.818 42.7102 106.558 42.7902 106.298C42.9502 106.338 43.1302 106.358 43.2902 106.358C43.4902 106.358 43.6702 106.338 43.8702 106.298C44.0702 106.258 44.2302 106.178 44.3902 106.058C44.5502 105.958 44.6702 105.818 44.7702 105.638C44.8502 105.458 44.9102 105.238 44.9102 104.958V98.1583H46.5102V103.158H48.1102V104.758H46.5102V104.958C46.5102 106.018 46.2502 106.778 45.7302 107.258C45.2102 107.738 44.5302 107.958 43.6902 107.958C43.4502 107.958 43.2302 107.958 43.0102 107.918C42.7902 107.898 42.5502 107.858 42.3102 107.798ZM53.4055 105.778L54.3855 106.778L53.2655 107.898L52.2655 106.918L53.4055 105.778ZM47.5055 103.758C47.5055 103.598 47.5455 103.458 47.6655 103.338C47.7855 103.218 47.9255 103.158 48.1055 103.158H54.2455C53.8455 102.778 53.5455 102.398 53.3055 102.018C53.0655 101.658 52.8255 101.318 52.6055 101.018C52.3655 100.718 52.1255 100.478 51.8455 100.278C51.5655 100.098 51.2255 99.9983 50.7855 99.9983C50.6055 99.9983 50.4055 100.038 50.1655 100.118C49.9255 100.198 49.6455 100.378 49.3055 100.638C49.1855 100.438 49.0855 100.218 48.9655 100.018C48.8455 99.8183 48.7455 99.5983 48.6455 99.3783C49.0255 99.0983 49.3855 98.8583 49.7455 98.6583C50.1055 98.4583 50.5055 98.3583 50.9455 98.3583C51.4655 98.3583 51.9055 98.4783 52.3055 98.7183C52.6855 98.9583 53.0255 99.2583 53.3455 99.6183C53.6455 99.9783 53.9255 100.358 54.1855 100.758C54.4455 101.178 54.7055 101.558 54.9855 101.918C55.2455 102.278 55.5255 102.558 55.8455 102.798C56.1455 103.038 56.5055 103.158 56.9055 103.158H57.7055V104.758H48.1055C47.9255 104.758 47.7855 104.718 47.6655 104.598C47.5455 104.478 47.5055 104.338 47.5055 104.158V103.758ZM57.1031 103.758C57.1031 103.598 57.1431 103.458 57.2631 103.338C57.3831 103.218 57.5231 103.158 57.7031 103.158H59.3031V93.9583H60.9031V104.758H57.7031C57.5231 104.758 57.3831 104.718 57.2631 104.598C57.1431 104.478 57.1031 104.338 57.1031 104.158V103.758ZM64.9004 93.9583V104.758H63.3004V93.9583H64.9004ZM75.8969 94.7783L76.8769 95.7783L75.7569 96.8983L74.7569 95.9183L75.8969 94.7783ZM78.2969 94.7783L79.2769 95.7783L78.1569 96.8983L77.1569 95.9183L78.2969 94.7783ZM81.8969 98.3583H83.4969V102.958C83.4969 103.458 83.3169 103.878 82.9769 104.238C82.6169 104.598 82.1969 104.758 81.6969 104.758H72.2969C71.7969 104.758 71.3769 104.598 71.0169 104.238C70.6569 103.878 70.4969 103.458 70.4969 102.958V98.3583H72.0969V102.958C72.0969 103.098 72.1569 103.158 72.2969 103.158H81.6969C81.8169 103.158 81.8969 103.098 81.8969 102.958V98.3583ZM87.6914 93.9583V104.758H86.0914V93.9583H87.6914ZM92.0973 103.158H93.6973V104.758H92.0973C92.0973 105.838 91.8373 106.658 91.3373 107.178C90.8173 107.698 90.1373 107.958 89.2573 107.958C88.8773 107.958 88.4773 107.918 88.0373 107.818C87.5973 107.738 87.1173 107.578 86.6373 107.378C86.6173 107.418 86.6373 107.358 86.6973 107.198C86.7373 107.058 86.8173 106.898 86.8973 106.718C86.9773 106.538 87.0373 106.378 87.1173 106.218C87.1773 106.058 87.2173 105.978 87.2373 105.978C87.5373 106.118 87.8373 106.218 88.1373 106.258C88.4173 106.298 88.6973 106.318 88.9573 106.318C89.4173 106.318 89.7973 106.218 90.0773 105.978C90.3573 105.738 90.4973 105.338 90.4973 104.758V98.3583H92.0973V103.158ZM93.7012 104.758C93.5212 104.758 93.3812 104.718 93.2612 104.598C93.1412 104.478 93.1012 104.338 93.1012 104.158V103.758C93.1012 103.598 93.1412 103.458 93.2612 103.338C93.3812 103.218 93.5212 103.158 93.7012 103.158H94.9012V93.9583H96.5012V101.018L98.2412 99.6583C98.9212 99.1183 99.5812 98.7383 100.201 98.4983C100.801 98.2783 101.361 98.1583 101.881 98.1583C102.361 98.1583 102.801 98.2383 103.181 98.3983C103.541 98.5583 103.861 98.7583 104.121 99.0183C104.361 99.2983 104.561 99.6183 104.701 99.9783C104.821 100.338 104.901 100.738 104.901 101.158V102.958C104.901 103.458 104.721 103.878 104.381 104.238C104.021 104.598 103.601 104.758 103.101 104.758H93.7012ZM103.301 101.158C103.301 100.758 103.161 100.438 102.921 100.158C102.681 99.8983 102.321 99.7583 101.861 99.7583C101.501 99.7583 101.121 99.8583 100.681 100.018C100.241 100.198 99.7612 100.498 99.2212 100.918L96.5012 103.038V103.158H103.101C103.221 103.158 103.301 103.098 103.301 102.958V101.158ZM108.902 93.9583V103.158H110.502V104.758H107.302V93.9583H108.902ZM113.904 94.7783L114.884 95.7783L113.764 96.8983L112.764 95.9183L113.904 94.7783ZM116.304 94.7783L117.284 95.7783L116.164 96.8983L115.164 95.9183L116.304 94.7783ZM109.904 103.758C109.904 103.598 109.944 103.458 110.064 103.338C110.184 103.218 110.324 103.158 110.504 103.158H112.804C112.424 102.878 112.144 102.538 111.964 102.138C111.784 101.738 111.704 101.338 111.704 100.918C111.704 100.598 111.744 100.278 111.864 99.9583C111.984 99.6583 112.144 99.3783 112.384 99.1383C112.624 98.8983 112.904 98.7183 113.264 98.5783C113.624 98.4383 114.024 98.3583 114.504 98.3583H116.504C117.004 98.3583 117.424 98.5383 117.784 98.8783C118.124 99.2383 118.304 99.6583 118.304 100.158V104.758H110.504C110.324 104.758 110.184 104.718 110.064 104.598C109.944 104.478 109.904 104.338 109.904 104.158V103.758ZM113.304 100.898C113.304 101.178 113.364 101.458 113.524 101.718C113.664 101.998 113.864 102.238 114.124 102.438C114.384 102.658 114.684 102.838 115.024 102.958C115.344 103.098 115.704 103.158 116.104 103.158H116.704V100.158C116.704 100.038 116.624 99.9583 116.504 99.9583H114.504C114.064 99.9583 113.764 100.058 113.584 100.238C113.384 100.418 113.304 100.638 113.304 100.898Z" fill="#ACACAC"/>
<path d="M31.6406 75.0972C31.4792 74.9982 31.2995 74.9019 31.1016 74.8081C30.9089 74.7091 30.7005 74.6232 30.4766 74.5503C30.2578 74.4774 30.026 74.4175 29.7812 74.3706C29.5365 74.3237 29.2812 74.3003 29.0156 74.3003C28.7188 74.3003 28.4688 74.342 28.2656 74.4253C28.0625 74.5034 27.901 74.6024 27.7812 74.7222C27.6615 74.842 27.5755 74.9722 27.5234 75.1128C27.4714 75.2482 27.4453 75.3758 27.4453 75.4956C27.4453 75.6675 27.4714 75.8263 27.5234 75.9722C27.5807 76.1128 27.6667 76.2508 27.7812 76.3862C27.901 76.5164 28.0547 76.6519 28.2422 76.7925C28.4349 76.9279 28.6667 77.0789 28.9375 77.2456C29.2917 77.4644 29.6042 77.6857 29.875 77.9097C30.151 78.1284 30.3854 78.3654 30.5781 78.6206C30.7708 78.8706 30.9167 79.144 31.0156 79.4409C31.1146 79.7378 31.1641 80.0711 31.1641 80.4409C31.1641 80.6545 31.138 80.8888 31.0859 81.144C31.0391 81.3993 30.9557 81.6571 30.8359 81.9175C30.7161 82.1727 30.5495 82.4201 30.3359 82.6597C30.1276 82.8993 29.8646 83.1102 29.5469 83.2925C29.2292 83.4748 28.8464 83.6206 28.3984 83.73C27.9557 83.8446 27.4375 83.9019 26.8438 83.9019C26.5104 83.9019 26.1849 83.8784 25.8672 83.8315C25.5547 83.7899 25.2552 83.7326 24.9688 83.6597C24.6875 83.5815 24.4245 83.4956 24.1797 83.4019C23.9349 83.3081 23.7188 83.2118 23.5312 83.1128L23.9609 80.894C24.1536 81.0347 24.362 81.1675 24.5859 81.2925C24.8151 81.4175 25.0521 81.5269 25.2969 81.6206C25.5469 81.7144 25.8047 81.7873 26.0703 81.8394C26.3359 81.8914 26.6042 81.9175 26.875 81.9175C27.1719 81.9175 27.4245 81.8862 27.6328 81.8237C27.8411 81.756 28.0104 81.6649 28.1406 81.5503C28.2708 81.4357 28.3646 81.3029 28.4219 81.1519C28.4792 81.0008 28.5078 80.8394 28.5078 80.6675C28.5078 80.4956 28.4792 80.342 28.4219 80.2065C28.3698 80.0659 28.2812 79.9331 28.1562 79.8081C28.0312 79.6779 27.8646 79.5451 27.6562 79.4097C27.4531 79.269 27.2031 79.1128 26.9062 78.9409C26.5885 78.7638 26.2995 78.5737 26.0391 78.3706C25.7786 78.1623 25.5547 77.9331 25.3672 77.6831C25.1797 77.4279 25.0339 77.1466 24.9297 76.8394C24.8255 76.5269 24.7734 76.1805 24.7734 75.8003C24.7734 75.368 24.8542 74.9435 25.0156 74.5269C25.1771 74.1102 25.4297 73.7378 25.7734 73.4097C26.1172 73.0815 26.5547 72.8185 27.0859 72.6206C27.6224 72.4175 28.2604 72.3159 29 72.3159C29.3073 72.3159 29.6042 72.3341 29.8906 72.3706C30.1771 72.4019 30.4505 72.4461 30.7109 72.5034C30.9714 72.5607 31.2161 72.6258 31.4453 72.6987C31.6745 72.7716 31.8828 72.8472 32.0703 72.9253L31.6406 75.0972ZM39.5938 83.7065L39.2734 81.2144H35.2578L33.9453 83.7065H31.1016L37.5625 72.5034H40.5703L42.1719 83.7065H39.5938ZM38.6797 75.4956C38.6745 75.4123 38.6693 75.3211 38.6641 75.2222C38.6641 75.118 38.6641 75.019 38.6641 74.9253C38.6693 74.8315 38.6745 74.7482 38.6797 74.6753C38.6849 74.5972 38.6901 74.5399 38.6953 74.5034H38.6484C38.638 74.5503 38.6198 74.6102 38.5938 74.6831C38.5677 74.756 38.5365 74.8368 38.5 74.9253C38.4688 75.0086 38.4297 75.0972 38.3828 75.1909C38.3411 75.2847 38.2969 75.3758 38.25 75.4644L36.2031 79.2769H39.0859L38.6797 75.4956ZM53.2266 83.7065H50.6875L51.6406 79.1753H47.0391L46.0781 83.7065H43.5312L45.9141 72.5034H48.4609L47.5 76.9722H52.1094L53.0703 72.5034H55.6094L53.2266 83.7065ZM63.0781 83.7065L62.7578 81.2144H58.7422L57.4297 83.7065H54.5859L61.0469 72.5034H64.0547L65.6562 83.7065H63.0781ZM62.1641 75.4956C62.1589 75.4123 62.1536 75.3211 62.1484 75.2222C62.1484 75.118 62.1484 75.019 62.1484 74.9253C62.1536 74.8315 62.1589 74.7482 62.1641 74.6753C62.1693 74.5972 62.1745 74.5399 62.1797 74.5034H62.1328C62.1224 74.5503 62.1042 74.6102 62.0781 74.6831C62.0521 74.756 62.0208 74.8368 61.9844 74.9253C61.9531 75.0086 61.9141 75.0972 61.8672 75.1909C61.8255 75.2847 61.7812 75.3758 61.7344 75.4644L59.6875 79.2769H62.5703L62.1641 75.4956ZM76.8281 75.355C76.8281 75.8289 76.7422 76.2586 76.5703 76.644C76.3984 77.0243 76.1641 77.355 75.8672 77.6362C75.5703 77.9175 75.2214 78.1466 74.8203 78.3237C74.4245 78.5008 74 78.6206 73.5469 78.6831V78.7144C73.8698 78.8185 74.1458 79.0164 74.375 79.3081C74.6042 79.5998 74.776 79.9878 74.8906 80.4722L75.6719 83.7065H72.9688L72.3594 80.8237C72.2656 80.3602 72.1016 80.0112 71.8672 79.7769C71.6328 79.5373 71.3125 79.4175 70.9062 79.4175H70.4766L69.5625 83.7065H67.0156L69.3984 72.5034H73.2266C73.8776 72.5034 74.4323 72.5815 74.8906 72.7378C75.349 72.8888 75.7214 73.0972 76.0078 73.3628C76.2943 73.6232 76.5026 73.9253 76.6328 74.269C76.763 74.6128 76.8281 74.9748 76.8281 75.355ZM74.1406 75.769C74.1406 75.3368 74.013 75.0008 73.7578 74.7612C73.5026 74.5164 73.1172 74.394 72.6016 74.394H71.5469L70.875 77.5112H71.8984C72.2839 77.5112 72.6172 77.4644 72.8984 77.3706C73.1797 77.2716 73.4115 77.144 73.5938 76.9878C73.776 76.8263 73.9115 76.6414 74 76.4331C74.0938 76.2196 74.1406 75.9982 74.1406 75.769ZM84.5781 83.7065L84.2578 81.2144H80.2422L78.9297 83.7065H76.0859L82.5469 72.5034H85.5547L87.1562 83.7065H84.5781ZM83.6641 75.4956C83.6589 75.4123 83.6536 75.3211 83.6484 75.2222C83.6484 75.118 83.6484 75.019 83.6484 74.9253C83.6536 74.8315 83.6589 74.7482 83.6641 74.6753C83.6693 74.5972 83.6745 74.5399 83.6797 74.5034H83.6328C83.6224 74.5503 83.6042 74.6102 83.5781 74.6831C83.5521 74.756 83.5208 74.8368 83.4844 74.9253C83.4531 75.0086 83.4141 75.0972 83.3672 75.1909C83.3255 75.2847 83.2812 75.3758 83.2344 75.4644L81.1875 79.2769H84.0703L83.6641 75.4956ZM95.8281 83.7065L95.5078 81.2144H91.4922L90.1797 83.7065H87.3359L93.7969 72.5034H96.8047L98.4062 83.7065H95.8281ZM94.9141 75.4956C94.9089 75.4123 94.9036 75.3211 94.8984 75.2222C94.8984 75.118 94.8984 75.019 94.8984 74.9253C94.9036 74.8315 94.9089 74.7482 94.9141 74.6753C94.9193 74.5972 94.9245 74.5399 94.9297 74.5034H94.8828C94.8724 74.5503 94.8542 74.6102 94.8281 74.6831C94.8021 74.756 94.7708 74.8368 94.7344 74.9253C94.7031 75.0086 94.6641 75.0972 94.6172 75.1909C94.5755 75.2847 94.5312 75.3758 94.4844 75.4644L92.4375 79.2769H95.3203L94.9141 75.4956ZM106.453 83.7065H99.7656L102.148 72.5034H104.695L102.758 81.6284H106.891L106.453 83.7065ZM119.344 83.7065H117.078L118.5 77.0034C118.656 76.2899 118.859 75.4904 119.109 74.605H119.047C118.974 74.7716 118.896 74.9383 118.812 75.105C118.734 75.2716 118.656 75.4305 118.578 75.5815C118.5 75.7274 118.427 75.8602 118.359 75.98C118.292 76.0946 118.232 76.1883 118.18 76.2612L115.18 80.3472H113.414L112.25 76.3394C112.224 76.2612 112.198 76.1388 112.172 75.9722C112.151 75.8003 112.141 75.6232 112.141 75.4409V74.605H112.07C111.997 75.0946 111.924 75.5451 111.852 75.9565C111.784 76.368 111.721 76.7144 111.664 76.9956L110.234 83.7065H107.961L110.344 72.5034H113.344L114.492 76.394C114.529 76.519 114.562 76.6545 114.594 76.8003C114.625 76.9409 114.651 77.0841 114.672 77.23C114.693 77.3706 114.708 77.5086 114.719 77.644C114.729 77.7743 114.734 77.8914 114.734 77.9956H114.773C114.831 77.881 114.891 77.7534 114.953 77.6128C115.021 77.467 115.089 77.3211 115.156 77.1753C115.229 77.0243 115.305 76.881 115.383 76.7456C115.461 76.605 115.539 76.4826 115.617 76.3784L118.477 72.5034H121.727L119.344 83.7065ZM132 79.144C131.844 79.8784 131.643 80.5399 131.398 81.1284C131.154 81.717 130.828 82.217 130.422 82.6284C130.021 83.0399 129.521 83.355 128.922 83.5737C128.323 83.7925 127.591 83.9019 126.727 83.9019C126.102 83.9019 125.539 83.8159 125.039 83.644C124.539 83.4722 124.115 83.2248 123.766 82.9019C123.417 82.5737 123.148 82.1779 122.961 81.7144C122.773 81.2456 122.68 80.7144 122.68 80.1206C122.68 79.8498 122.701 79.5529 122.742 79.23C122.784 78.9019 122.836 78.5972 122.898 78.3159L124.148 72.5034H126.695L125.43 78.3315C125.372 78.6076 125.32 78.8836 125.273 79.1597C125.227 79.4357 125.203 79.6701 125.203 79.8628C125.203 80.1649 125.247 80.4331 125.336 80.6675C125.43 80.8966 125.557 81.0894 125.719 81.2456C125.885 81.4019 126.078 81.5216 126.297 81.605C126.521 81.6831 126.76 81.7222 127.016 81.7222C127.312 81.7222 127.589 81.6779 127.844 81.5894C128.099 81.5008 128.328 81.355 128.531 81.1519C128.734 80.9487 128.914 80.6805 129.07 80.3472C129.227 80.0086 129.357 79.592 129.461 79.0972L130.883 72.5034H133.43L132 79.144ZM143.266 74.5581H140.109L138.172 83.7065H135.633L137.562 74.5581H134.367L134.812 72.5034H143.711L143.266 74.5581ZM152.656 74.5581H149.5L147.562 83.7065H145.023L146.953 74.5581H143.758L144.203 72.5034H153.102L152.656 74.5581ZM159.562 83.7065L159.242 81.2144H155.227L153.914 83.7065H151.07L157.531 72.5034H160.539L162.141 83.7065H159.562ZM158.648 75.4956C158.643 75.4123 158.638 75.3211 158.633 75.2222C158.633 75.118 158.633 75.019 158.633 74.9253C158.638 74.8315 158.643 74.7482 158.648 74.6753C158.654 74.5972 158.659 74.5399 158.664 74.5034H158.617C158.607 74.5503 158.589 74.6102 158.562 74.6831C158.536 74.756 158.505 74.8368 158.469 74.9253C158.438 75.0086 158.398 75.0972 158.352 75.1909C158.31 75.2847 158.266 75.3758 158.219 75.4644L156.172 79.2769H159.055L158.648 75.4956ZM173.195 83.7065H170.656L171.609 79.1753H167.008L166.047 83.7065H163.5L165.883 72.5034H168.43L167.469 76.9722H172.078L173.039 72.5034H175.578L173.195 83.7065ZM178.281 83.7065H175.734L178.102 72.5034H180.648L178.281 83.7065ZM192.141 77.0347C192.141 77.6232 192.081 78.1987 191.961 78.7612C191.841 79.3185 191.659 79.8446 191.414 80.3394C191.174 80.8341 190.87 81.2873 190.5 81.6987C190.13 82.1102 189.693 82.4644 189.188 82.7612C188.688 83.0581 188.117 83.2899 187.477 83.4565C186.836 83.6232 186.125 83.7065 185.344 83.7065H180.812L183.195 72.5034H187.133C187.956 72.5034 188.677 72.6154 189.297 72.8394C189.922 73.0633 190.445 73.3758 190.867 73.7769C191.289 74.1727 191.607 74.6493 191.82 75.2065C192.034 75.7586 192.141 76.368 192.141 77.0347ZM189.469 77.23C189.469 76.8133 189.409 76.4409 189.289 76.1128C189.174 75.7795 188.995 75.4982 188.75 75.269C188.51 75.0399 188.206 74.8654 187.836 74.7456C187.466 74.6206 187.029 74.5581 186.523 74.5581H185.297L183.789 81.6597H185.328C185.964 81.6597 186.536 81.5555 187.047 81.3472C187.557 81.1336 187.992 80.8341 188.352 80.4487C188.711 80.0581 188.987 79.592 189.18 79.0503C189.372 78.5034 189.469 77.8966 189.469 77.23ZM200.172 83.7065L199.852 81.2144H195.836L194.523 83.7065H191.68L198.141 72.5034H201.148L202.75 83.7065H200.172ZM199.258 75.4956C199.253 75.4123 199.247 75.3211 199.242 75.2222C199.242 75.118 199.242 75.019 199.242 74.9253C199.247 74.8315 199.253 74.7482 199.258 74.6753C199.263 74.5972 199.268 74.5399 199.273 74.5034H199.227C199.216 74.5503 199.198 74.6102 199.172 74.6831C199.146 74.756 199.115 74.8368 199.078 74.9253C199.047 75.0086 199.008 75.0972 198.961 75.1909C198.919 75.2847 198.875 75.3758 198.828 75.4644L196.781 79.2769H199.664L199.258 75.4956ZM213.805 83.7065H211.266L212.219 79.1753H207.617L206.656 83.7065H204.109L206.492 72.5034H209.039L208.078 76.9722H212.688L213.648 72.5034H216.188L213.805 83.7065Z" fill="white"/>
<path d="M271.598 110.925C272.847 110.925 274.073 110.596 275.154 109.972L307.989 91.015C309.07 90.3909 309.967 89.4931 310.592 88.412C311.216 87.3308 311.544 86.1045 311.544 84.8561V46.941C311.544 45.6928 311.215 44.4665 310.591 43.3854C309.967 42.3044 309.07 41.4068 307.989 40.7826L275.154 21.8235C274.073 21.2005 272.848 20.8724 271.6 20.8721C270.352 20.8724 269.126 21.2009 268.044 21.8245L235.21 40.7821L236.628 43.2387L238.046 45.6949L270.881 26.7383C271.1 26.6117 271.349 26.545 271.602 26.5449C271.855 26.5449 272.103 26.6112 272.322 26.7373L305.156 45.6954C305.375 45.8217 305.556 46.0033 305.682 46.2219C305.808 46.4406 305.875 46.6886 305.875 46.941V84.8561C305.875 85.1088 305.808 85.357 305.682 85.5759C305.556 85.7947 305.374 85.9764 305.156 86.1028L272.321 105.06C272.103 105.186 271.854 105.253 271.602 105.252C271.349 105.253 271.101 105.186 270.882 105.06L238.048 86.1028C237.829 85.9764 237.647 85.7947 237.521 85.5759C237.395 85.357 237.328 85.1088 237.328 84.8561V46.941C237.328 46.6886 237.395 46.4405 237.521 46.2218C237.647 46.0032 237.829 45.8216 238.047 45.6954L236.629 43.2392L235.212 40.7826C234.131 41.4068 233.233 42.3044 232.609 43.3854C231.985 44.4665 231.656 45.6928 231.656 46.941V84.8561C231.656 86.1045 231.985 87.3308 232.609 88.412C233.233 89.4931 234.131 90.3909 235.212 91.015L268.046 109.972C269.127 110.596 270.353 110.925 271.601 110.925H271.598Z" fill="#FFB635"/>
<path d="M271.435 29.5977L303.036 47.747V84.6663L271.435 103.54V58.9412L269.391 63.2029L267.597 39.3776L271.435 29.5977Z" fill="white"/>
<path d="M308.776 39.1227C308.595 38.4504 308.384 37.7954 308.157 37.1502L309.736 35.9982L307.98 32.2276L306.088 32.6915C305.39 31.4998 304.598 30.3662 303.718 29.3016L304.804 27.6838L301.866 24.7404L300.242 25.8262C299.179 24.9464 298.048 24.1523 296.86 23.4515L297.328 21.559L293.56 19.7976L292.408 21.3706C291.107 20.9044 289.772 20.5428 288.414 20.2893L288.206 18.3575L284.063 17.9911L283.52 19.8558C282.139 19.8669 280.761 19.9886 279.399 20.2198L278.54 18.469L274.522 19.542L274.651 21.4884C273.355 21.9668 272.1 22.5481 270.897 23.227L269.497 21.8809L266.088 24.2636L266.871 26.041C265.82 26.9368 264.843 27.9151 263.947 28.9665L262.164 28.1773L259.776 31.5819L261.126 32.9911C260.445 34.1913 259.86 35.4435 259.377 36.7361L257.429 36.6042L256.349 40.6207L258.097 41.482C257.865 42.8433 257.743 44.2209 257.732 45.6017L255.861 46.1425L256.222 50.2855L258.165 50.4977C258.288 51.1707 258.432 51.8433 258.611 52.5164C258.791 53.1894 259.002 53.8437 259.23 54.4888L257.651 55.6409L259.407 59.4119L261.299 58.9481C261.997 60.1397 262.789 61.2733 263.669 62.3379L262.583 63.9557L265.521 66.8992L267.145 65.8134C268.208 66.693 269.339 67.4871 270.527 68.188L270.058 70.0805L273.827 71.842L274.979 70.2689C276.279 70.7346 277.614 71.0956 278.972 71.3485L279.179 73.2804L283.322 73.6467L283.865 71.782C285.246 71.7707 286.624 71.6488 287.986 71.4175L288.845 73.1683L292.863 72.0953L292.734 70.1489C294.03 69.6704 295.285 69.0891 296.488 68.4103L297.888 69.7563L302.595 69.7553L301.873 69.7555C302.924 68.859 306.716 70.1195 307.611 69.0679L307.985 65.8038L307.61 60.0541L306.26 58.645C306.941 57.4449 307.526 56.1926 308.009 54.8999L309.957 55.0323L311.038 51.0157L309.29 50.1544C309.521 48.7923 309.641 47.4138 309.651 46.0324L311.522 45.4915L311.161 41.3486L309.22 41.1408C309.099 40.4698 308.956 39.795 308.776 39.1227Z" fill="#FFB635"/>
<path d="M300.713 55.6409C306.138 46.2416 302.916 34.2242 293.517 28.7994C284.117 23.3746 272.1 26.5967 266.675 35.996C261.25 45.3954 264.472 57.4128 273.872 62.8376C283.271 68.2624 295.288 65.0403 300.713 55.6409Z" fill="#08477D"/>
<path d="M300.844 45.4224C300.627 35.9507 292.773 28.4483 283.301 28.6652C273.829 28.8821 266.327 36.7362 266.544 46.2079C266.761 55.6796 274.615 63.1821 284.087 62.9652C293.558 62.7482 301.061 54.8941 300.844 45.4224Z" fill="white"/>
<mask id="mask0_69_1130" style="mask-type:luminance" maskUnits="userSpaceOnUse" x="234" y="15" width="69" height="53">
<path d="M301.175 38.349C304.279 48.5022 299.147 59.7666 289.321 62.0759C285.838 62.8948 284.517 63.6148 277.65 61.6676C263.19 57.5633 241.992 72.8507 238.446 66.3059C228.963 48.8103 240.737 19.2673 250.387 16.3169C260.038 13.3665 298.07 28.1948 301.175 38.349Z" fill="white"/>
</mask>
<g mask="url(#mask0_69_1130)">
<path d="M283.977 51.4915L278.324 41.6085L250.373 24.9941L251.384 22.4352L286.596 37.8008L290.686 47.094L283.977 51.4915Z" fill="#08477D"/>
<path d="M284.553 49.9776L279.313 40.8143L261.802 30.4063C261.599 30.2831 261.446 30.0922 261.369 29.8672C261.293 29.6422 261.298 29.3975 261.384 29.176C261.427 29.0622 261.493 28.9583 261.577 28.8708C261.661 28.7833 261.763 28.7139 261.875 28.6669C261.987 28.6199 262.108 28.5963 262.229 28.5975C262.351 28.5987 262.471 28.6247 262.582 28.6739L284.711 38.3328L287.382 44.4005L284.553 49.9776Z" fill="white"/>
<path d="M286.639 44.362L284.219 38.8642L262.34 29.314C262.284 29.2888 262.222 29.2849 262.163 29.303C262.112 29.3182 262.067 29.3486 262.034 29.3901C262 29.4316 261.98 29.4822 261.977 29.5354C261.972 29.5897 261.982 29.6443 262.007 29.6927C262.032 29.7412 262.07 29.7816 262.118 29.8091L279.79 40.3065L284.512 48.5603L286.639 44.362Z" fill="#FFB635"/>
<path d="M279.072 39.739C279.167 39.9976 279.335 40.2228 279.556 40.3869C279.777 40.5509 280.041 40.6466 280.316 40.662C280.591 40.6774 280.864 40.6119 281.102 40.4736C281.34 40.3353 281.533 40.1303 281.655 39.8838C281.778 39.6374 281.826 39.3604 281.793 39.0871C281.76 38.8138 281.647 38.5562 281.469 38.3462C281.291 38.1361 281.056 37.9828 280.792 37.9052C280.528 37.8277 280.246 37.8292 279.983 37.9097C279.805 37.9652 279.64 38.0565 279.498 38.1781C279.356 38.2996 279.241 38.4489 279.158 38.6166C278.987 38.9659 278.956 39.3676 279.072 39.739Z" fill="#08477D"/>
<path d="M282.909 46.3659L284.774 45.3446L288.597 52.6558L286.732 53.6771L282.909 46.3659Z" fill="#FFB635"/>
<path d="M279.951 39.5814L280.901 39.0611L284.317 45.5956L283.368 46.1159L279.951 39.5814Z" fill="#08477D"/>
<path d="M281.64 40.4736C281.401 40.7606 281.063 40.9481 280.693 40.9993L279.951 39.5803L280.9 39.0602L281.64 40.4736Z" fill="#08477D"/>
<path d="M285.88 67.68L306.36 61.3941L299.754 39.8609C299.669 39.5582 299.468 39.3016 299.194 39.1473C298.92 38.9931 298.596 38.9539 298.293 39.0384L287.375 42.39C287.162 42.4573 286.968 42.5768 286.813 42.7376C286.657 42.8985 286.544 43.0956 286.484 43.3111L282.678 56.4336C282.598 56.7111 282.601 57.0057 282.687 57.2815L285.88 67.68Z" fill="#FFB635"/>
<path d="M293.029 41.2375L298.546 39.5446C298.625 39.5231 298.709 39.5335 298.78 39.5736C298.851 39.6136 298.904 39.6801 298.926 39.7585L302.843 52.5234C302.869 52.601 302.862 52.6854 302.826 52.7584C302.79 52.8315 302.726 52.8872 302.649 52.9136L297.131 54.6068C297.053 54.628 296.969 54.6174 296.898 54.5774C296.827 54.5375 296.775 54.4713 296.752 54.3931L292.835 41.6277C292.81 41.5502 292.816 41.4657 292.852 41.3927C292.889 41.3197 292.952 41.2639 293.029 41.2375Z" fill="#08477D"/>
<path d="M298.163 40.4143L293.832 41.7436C293.52 41.8394 293.344 42.17 293.44 42.482L296.774 53.3458C296.87 53.6578 297.2 53.8331 297.512 53.7374L301.844 52.4081C302.156 52.3123 302.331 51.9817 302.236 51.6697L298.902 40.8059C298.806 40.4939 298.475 40.3185 298.163 40.4143Z" fill="#63594F"/>
<path d="M298.163 40.4143L293.832 41.7436C293.52 41.8394 293.344 42.17 293.44 42.482L296.774 53.3458C296.87 53.6578 297.2 53.8331 297.512 53.7374L301.844 52.4081C302.156 52.3123 302.331 51.9817 302.236 51.6697L298.902 40.8059C298.806 40.4939 298.475 40.3185 298.163 40.4143Z" fill="#08477D"/>
<path d="M298.638 41.7659L294.198 43.1284L297.039 52.3851L301.479 51.0226L298.638 41.7659Z" fill="white"/>
<path d="M285.096 57.9466L296.062 54.5808C296.104 54.5676 296.142 54.5459 296.175 54.5173C296.208 54.4886 296.234 54.4535 296.253 54.4142C296.293 54.3329 296.3 54.2393 296.273 54.1528L292.463 41.7347C292.439 41.6489 292.382 41.5761 292.304 41.5323C292.227 41.4886 292.135 41.4774 292.049 41.5012L287.976 42.7514C287.925 42.7676 287.878 42.7964 287.841 42.8351C287.803 42.8738 287.776 42.9213 287.762 42.9732L284.098 55.6237C284.079 55.6904 284.08 55.7611 284.1 55.8273L284.677 57.7123C284.703 57.7994 284.762 57.8731 284.841 57.9179C284.879 57.9395 284.921 57.953 284.964 57.9577C285.007 57.9624 285.051 57.9581 285.093 57.9452L285.096 57.9466Z" fill="#08477D"/>
<path d="M285.594 57.3964L295.654 54.3089C295.731 54.2826 295.795 54.2268 295.832 54.1537C295.868 54.0806 295.874 53.9961 295.849 53.9184L292.354 42.5285C292.332 42.4501 292.279 42.3836 292.208 42.3435C292.137 42.3034 292.053 42.2929 291.974 42.3142L288.238 43.4613C288.192 43.4759 288.149 43.5018 288.115 43.5369C288.08 43.5719 288.055 43.615 288.041 43.6621L284.683 55.2651C284.666 55.3261 284.667 55.3908 284.686 55.4513L285.215 57.182C285.239 57.2618 285.293 57.3293 285.366 57.3706C285.4 57.3904 285.439 57.4029 285.479 57.4072C285.519 57.4116 285.559 57.4078 285.597 57.396L285.594 57.3964Z" fill="#08477D"/>
<path d="M286.202 55.7143L294.874 53.0522L292.034 43.7964L288.348 44.9276L285.699 54.0752L286.202 55.7143Z" fill="white"/>
<path d="M290.241 64.3969L298.006 62.0138C298.046 62.0015 298.083 61.9812 298.114 61.9541C298.146 61.927 298.172 61.8937 298.19 61.8563C298.228 61.7784 298.235 61.6888 298.21 61.606L296.25 55.2182C296.225 55.135 296.169 55.0647 296.094 55.0216C296.058 55.0008 296.018 54.9877 295.976 54.983C295.935 54.9782 295.893 54.982 295.853 54.9941L285.818 58.0739C285.778 58.0863 285.741 58.1067 285.71 58.1338C285.678 58.161 285.652 58.1944 285.634 58.2319C285.596 58.3098 285.589 58.3993 285.615 58.4821L286.842 62.4824C287.056 63.1939 287.535 63.7961 288.18 64.1647C288.489 64.3422 288.832 64.4546 289.186 64.495C289.541 64.5354 289.9 64.503 290.241 64.3997L290.241 64.3969Z" fill="#08477D"/>
<path d="M290.396 63.8463L297.411 61.6928C297.515 61.6576 297.6 61.5832 297.648 61.4856C297.697 61.3881 297.705 61.2753 297.671 61.1718L295.978 55.6556C295.948 55.551 295.878 55.4624 295.784 55.409C295.689 55.3556 295.577 55.3417 295.472 55.3702L286.346 58.1717C286.243 58.2068 286.158 58.2811 286.109 58.3784C286.061 58.4758 286.053 58.5883 286.086 58.6917L287.097 61.988C287.289 62.6716 287.744 63.2513 288.362 63.5997C288.981 63.9481 289.712 64.0368 290.396 63.8463Z" fill="#08477D"/>
<path d="M289.957 62.9014L296.825 60.793C296.884 60.7733 296.932 60.731 296.96 60.6755C296.988 60.62 296.992 60.5557 296.973 60.4969L295.779 56.6076C295.762 56.548 295.722 56.4974 295.668 56.467C295.614 56.4366 295.55 56.4288 295.491 56.4454L286.989 59.0555C286.96 59.0645 286.933 59.0792 286.91 59.0989C286.887 59.1186 286.868 59.1428 286.855 59.1699C286.827 59.2265 286.822 59.2914 286.841 59.3515L287.504 61.5208C287.647 62.0288 287.985 62.4595 288.445 62.7184C288.905 62.9772 289.449 63.043 289.957 62.9014Z" fill="white"/>
<path d="M305.957 60.0797L285.477 66.3647L285.88 67.6792L306.361 61.3941L305.957 60.0797Z" fill="#525563"/>
<path d="M304.5 57.64L299.153 59.2803L299.588 60.698L304.935 59.0577L304.5 57.64Z" fill="#F5A61E"/>
<path d="M309.864 60.3201L288.926 66.7456L289.342 68.1005L310.28 61.675L309.864 60.3201Z" fill="#44424D"/>
<path d="M313.031 60.8321L287.359 68.71L287.776 70.0679L313.447 62.19L313.031 60.8321Z" fill="#525563"/>
<path d="M313.031 60.8321L287.359 68.71L287.484 69.1168L313.155 61.2389L313.031 60.8321Z" fill="#6C6F80"/>
<path d="M288.174 79.13L317.437 70.1476C318.514 69.7862 319.403 69.0122 319.909 67.9957C320.415 66.9791 320.497 65.8032 320.137 64.7262C319.831 63.6327 319.104 62.7055 318.114 62.1482C317.125 61.5909 315.955 61.4491 314.861 61.754L285.598 70.7359C284.521 71.0974 283.632 71.8714 283.125 72.8879C282.619 73.9045 282.537 75.0805 282.897 76.1577C283.203 77.2512 283.93 78.1785 284.92 78.7358C285.909 79.2931 287.079 79.4348 288.173 79.1297L288.174 79.13Z" fill="#63594F"/>
<path d="M288.483 78.3502L316.74 69.6775C317.656 69.3701 318.412 68.7117 318.843 67.847C319.274 66.9823 319.344 65.982 319.038 65.0657C318.777 64.1354 318.158 63.3466 317.317 62.8724C316.475 62.3983 315.48 62.2776 314.549 62.5369L286.292 71.2095C285.376 71.5169 284.62 72.1753 284.189 73.04C283.758 73.9047 283.688 74.905 283.994 75.8212C284.254 76.7515 284.873 77.5404 285.715 78.0145C286.557 78.4887 287.552 78.6094 288.483 78.3502Z" fill="#4D453D"/>
<path d="M314.247 64.7916L287.783 72.9111L288.407 74.9433L314.87 66.8238L314.247 64.7916Z" fill="#413B3D"/>
<path d="M312.889 63.0484L287.564 70.8198L288.044 72.3824L313.368 64.611L312.889 63.0484Z" fill="#746E65"/>
<path d="M312.889 63.0484L287.564 70.8198L287.726 71.3448L313.05 63.5734L312.889 63.0484Z" fill="#6A6462"/>
<path d="M314.246 67.4713L288.922 75.2427L289.401 76.8052L314.726 69.0338L314.246 67.4713Z" fill="#746E65"/>
<path d="M291.58 40.2083L294.191 39.4101C294.353 39.3646 294.527 39.3854 294.674 39.4679C294.821 39.5505 294.929 39.688 294.974 39.8502L295.033 40.0431L291.241 41.2075L291.182 41.0147C291.13 40.8511 291.143 40.6739 291.218 40.5197C291.254 40.4458 291.305 40.3801 291.367 40.3266C291.429 40.273 291.502 40.2328 291.58 40.2083Z" fill="#D8D8D8"/>
<path d="M291.479 40.2384L294.065 39.4477L293.343 37.6615C293.285 37.5075 293.171 37.3809 293.024 37.3068C292.877 37.2326 292.708 37.2162 292.549 37.2608L291.511 37.5783C291.355 37.6307 291.224 37.7393 291.145 37.8829C291.065 38.0265 291.042 38.1948 291.08 38.3546L291.479 40.2384Z" fill="#FFB635"/>
<path d="M263.658 26.0132L264.078 24.6817L279.568 30.4022L279.148 31.7337L263.658 26.0132Z" fill="#08477D"/>
<path d="M251.811 21.3356L252.025 20.6561L263.955 25.0636L263.74 25.7441L251.811 21.3356Z" fill="#08477D"/>
<path d="M253.655 19.9785L254.74 29.4587L243.964 55.914L241.142 55.8952L249.034 21.2381L253.655 19.9785Z" fill="#08477D"/>
<path d="M239.606 54.2391L242.216 52.6057L241.846 54.2656L240.238 54.8421L239.606 54.2391Z" fill="#08477D"/>
<path d="M240.566 47.3611L244.989 31.1402L246.294 31.5629L241.873 47.7842L240.566 47.3611Z" fill="#E5A22C"/>
<path d="M238.995 54.6174L240.94 47.4829L241.607 47.6985L239.661 54.833L238.995 54.6174Z" fill="#08477D"/>
<path d="M248.379 24.7833L247 24.5166L244.059 30.9087L246.471 33.3518L248.379 24.7833Z" fill="#08477D"/>
<path d="M240.448 55.1245C240.467 55.639 240.314 56.1452 240.015 56.5638L238.993 54.6052L239.533 53.4841L240.448 55.1245Z" fill="#D98622"/>
<path d="M240.761 54.6576L240.237 54.8454L239.605 54.2378L240.274 53.8224C240.509 54.0511 240.678 54.34 240.761 54.6576Z" fill="#D98622"/>
<path d="M279.424 39.6297C279.493 39.821 279.617 39.9877 279.781 40.1092C279.944 40.2307 280.139 40.3016 280.342 40.3132C280.546 40.3248 280.748 40.2765 280.924 40.1743C281.1 40.0722 281.242 39.9207 281.333 39.7385C281.424 39.5563 281.459 39.3516 281.434 39.1495C281.41 38.9475 281.327 38.757 281.195 38.6018C281.064 38.4465 280.889 38.3333 280.694 38.2761C280.499 38.2189 280.291 38.2203 280.096 38.28C279.828 38.37 279.607 38.5627 279.481 38.8157C279.355 39.0688 279.334 39.3615 279.424 39.6297Z" fill="#08477D"/>
<path d="M279.741 39.5333C279.788 39.6636 279.873 39.7772 279.984 39.86C280.095 39.9428 280.228 39.9911 280.367 39.999C280.505 40.0068 280.643 39.9739 280.763 39.9043C280.883 39.8346 280.98 39.7313 281.042 39.6072C281.103 39.483 281.127 39.3435 281.111 39.2058C281.094 39.0681 281.037 38.9383 280.948 38.8326C280.858 38.7268 280.739 38.6497 280.606 38.6108C280.473 38.5718 280.331 38.5728 280.199 38.6136C280.016 38.6749 279.865 38.8062 279.779 38.9787C279.694 39.1511 279.68 39.3506 279.741 39.5333Z" fill="#08477D"/>
<path d="M279.939 39.4721C279.973 39.5642 280.033 39.6445 280.111 39.7031C280.19 39.7616 280.284 39.7957 280.382 39.8013C280.48 39.8069 280.577 39.7836 280.662 39.7344C280.747 39.6852 280.815 39.6122 280.859 39.5244C280.903 39.4366 280.92 39.338 280.908 39.2407C280.896 39.1434 280.856 39.0516 280.792 38.9769C280.729 38.9021 280.645 38.8476 280.551 38.8201C280.457 38.7926 280.357 38.7933 280.263 38.8222C280.134 38.8656 280.027 38.9584 279.967 39.0802C279.906 39.2021 279.896 39.343 279.939 39.4721Z" fill="#08477D"/>
<path d="M276.891 33.5689L279.242 29.7778L282.897 31.7253L284.214 36.7643L276.891 33.5689Z" fill="#FFB635"/>
<path d="M284.216 36.7639L276.891 33.5694L277.373 32.865L283.908 35.5966L284.216 36.7639Z" fill="#FFB635"/>
<path d="M279.256 32.7084C279.313 32.8645 279.414 33.0005 279.547 33.0997C279.68 33.1988 279.84 33.2567 280.005 33.2662C280.171 33.2757 280.336 33.2363 280.48 33.153C280.623 33.0697 280.739 32.9461 280.813 32.7975C280.887 32.6489 280.916 32.4818 280.896 32.317C280.876 32.1521 280.808 31.9968 280.701 31.8702C280.594 31.7436 280.451 31.6512 280.292 31.6046C280.133 31.5581 279.963 31.5592 279.804 31.6081C279.586 31.6815 279.406 31.8386 279.303 32.0449C279.2 32.2511 279.183 32.4898 279.256 32.7084Z" fill="#08477D"/>
<path d="M279.513 32.6293C279.547 32.7431 279.612 32.8447 279.702 32.9217C279.792 32.9987 279.903 33.0478 280.021 33.063C280.135 33.0758 280.251 33.0525 280.353 32.9965C280.454 32.9405 280.535 32.8545 280.585 32.7504C280.637 32.6426 280.658 32.5223 280.644 32.4033C280.631 32.2844 280.583 32.1717 280.508 32.0785C280.437 31.9862 280.339 31.9177 280.228 31.8821C280.116 31.8464 279.997 31.8452 279.885 31.8787C279.737 31.9295 279.614 32.0369 279.545 32.1775C279.475 32.3181 279.464 32.4805 279.513 32.6293Z" fill="#08477D"/>
<path d="M250.24 23.4863L252.124 22.6367L253.218 28.921L246.938 45.2541L245.336 44.9435L250.24 23.4863Z" fill="white"/>
<path d="M246.458 44.7366L252.473 29.0979L251.567 23.8953L250.759 24.2596L246.096 44.6683L246.458 44.7366Z" fill="#FFB635"/>
<path d="M294.064 53.2991L290.92 54.264L287.305 48.516L288.345 44.925L288.725 44.8089L294.064 53.2991Z" fill="white"/>
<path d="M286.94 49.7802L289.949 54.5621L289.128 54.8131L286.632 50.8446L286.94 49.7802Z" fill="white"/>
<path d="M299.397 51.6616L300.831 51.2232L296.281 42.4903L294.847 42.9287L299.397 51.6616Z" fill="white"/>
<path d="M303.512 55.2022L297.561 57.0283L297.645 57.3051L303.597 55.479L303.512 55.2022Z" fill="#FADAB5"/>
<path d="M284.035 57.8742L282.972 58.2007L283.609 60.2788L284.673 59.9523L284.035 57.8742Z" fill="white"/>
<path d="M284.536 59.51L283.473 59.8364L283.609 60.2793L284.672 59.9529L284.536 59.51Z" fill="white"/>
<path d="M284.759 60.2317L283.695 60.5581L283.942 61.3604L285.005 61.0339L284.759 60.2317Z" fill="white"/>
<path d="M285.004 61.0344L283.94 61.3608L284.008 61.5798L285.071 61.2534L285.004 61.0344Z" fill="white"/>
<path d="M293.863 38.9477L294.064 39.4443L291.478 40.2349L291.366 39.7112L293.863 38.9477Z" fill="#FFB635"/>
<path d="M294.972 39.8466L295.031 40.0395L291.238 41.2039L291.179 41.0111C291.17 40.9777 291.163 40.9436 291.159 40.9091L294.932 39.7506C294.948 39.7816 294.961 39.8137 294.972 39.8466Z" fill="#08477D"/>
<path d="M292.212 38.4826C292.261 38.5919 292.35 38.678 292.461 38.7228C292.572 38.7676 292.696 38.7676 292.807 38.7227C292.916 38.6723 293.002 38.5822 293.047 38.4706C293.092 38.3591 293.093 38.2346 293.049 38.1224C293.011 38.0086 292.93 37.9139 292.824 37.8581C292.718 37.8024 292.594 37.7899 292.479 37.8232C292.357 37.8769 292.261 37.9758 292.212 38.0989C292.162 38.222 292.162 38.3597 292.212 38.4826Z" fill="#FFB635"/>
<path d="M291.642 38.6584C291.691 38.7677 291.78 38.8538 291.891 38.8986C292.001 38.9434 292.125 38.9434 292.236 38.8985C292.345 38.8481 292.431 38.7579 292.476 38.6464C292.521 38.5349 292.522 38.4103 292.479 38.2982C292.441 38.1844 292.36 38.0897 292.254 38.0339C292.147 37.9782 292.024 37.9656 291.908 37.999C291.787 38.0527 291.691 38.1516 291.641 38.2747C291.592 38.3978 291.592 38.5354 291.642 38.6584Z" fill="#FFB635"/>
<path d="M247.8 24.671L248.38 24.7834L246.472 33.353L245.882 32.7554L247.8 24.671Z" fill="#08477D"/>
<path d="M243.238 66.7843C243.112 66.7257 243.01 66.6263 242.948 66.5023C242.779 66.2653 242.634 66.0122 242.514 65.7466C242.449 65.4618 242.416 65.1709 242.413 64.8788C242.379 64.5351 242.346 64.1912 242.312 63.8392L243.715 63.7316C243.719 63.7718 243.728 63.8109 243.732 63.8505C243.788 64.412 243.844 64.9728 243.894 65.5347C243.9 65.6068 243.89 65.6793 243.867 65.7478C243.789 65.9778 243.699 66.2031 243.623 66.433C243.585 66.5724 243.498 66.6934 243.378 66.7736L243.238 66.7843Z" fill="#FFB635"/>
<path d="M242.234 55.657C242.919 55.6044 243.603 55.5493 244.289 55.4998C244.5 55.4756 244.714 55.5152 244.902 55.6137C245.091 55.7121 245.245 55.8648 245.346 56.052C245.457 56.2269 245.508 56.4332 245.492 56.6397C245.396 57.658 245.31 58.675 245.215 59.6952C245.206 59.9571 245.099 60.206 244.916 60.3934C244.732 60.5808 244.486 60.6932 244.224 60.7087C243.228 60.7875 242.23 60.8641 241.231 60.9386C240.964 60.9604 240.699 60.8857 240.483 60.728C240.267 60.5703 240.115 60.3402 240.054 60.0797C239.773 59.1183 239.484 58.1574 239.211 57.1952C239.164 57.0426 239.152 56.8814 239.176 56.7235C239.2 56.5657 239.259 56.4152 239.348 56.283C239.438 56.1509 239.556 56.0404 239.694 55.9597C239.831 55.879 239.985 55.8302 240.144 55.8167C240.841 55.7647 241.537 55.7101 242.234 55.657ZM242.427 57.8717C242.891 57.8364 243.358 57.8013 243.823 57.7643C243.899 57.7636 243.973 57.7378 244.032 57.6907C244.092 57.6437 244.134 57.5782 244.153 57.5046C244.17 57.4459 244.172 57.3839 244.16 57.324C244.148 57.2642 244.121 57.2082 244.082 57.1612C244.043 57.1141 243.993 57.0773 243.936 57.0541C243.88 57.0308 243.818 57.0219 243.758 57.0279C243.19 57.0681 242.623 57.114 242.056 57.1573C241.696 57.1854 241.336 57.2132 240.977 57.2407C240.903 57.2415 240.831 57.267 240.773 57.3131C240.715 57.3593 240.674 57.4235 240.656 57.4956C240.638 57.5539 240.634 57.6158 240.645 57.6759C240.657 57.7359 240.683 57.7922 240.721 57.8399C240.759 57.8875 240.809 57.925 240.865 57.949C240.921 57.973 240.982 57.9829 241.043 57.9776C241.505 57.9461 241.966 57.9079 242.427 57.8728L242.427 57.8717ZM242.511 58.6081C242.292 58.6273 242.073 58.6412 241.854 58.6588C241.803 58.6571 241.753 58.6664 241.706 58.6861C241.659 58.7058 241.616 58.7354 241.582 58.7729C241.547 58.8104 241.521 58.8549 241.506 58.9034C241.49 58.9519 241.485 59.0032 241.491 59.0538C241.494 59.1054 241.508 59.1558 241.532 59.2016C241.556 59.2474 241.589 59.2877 241.63 59.3198C241.67 59.352 241.717 59.3753 241.767 59.3883C241.817 59.4012 241.87 59.4036 241.921 59.3951C242.362 59.3624 242.804 59.3285 243.245 59.2934C243.297 59.2944 243.347 59.2843 243.394 59.2638C243.441 59.2433 243.483 59.2128 243.517 59.1746C243.551 59.1363 243.576 59.0912 243.591 59.0423C243.605 58.9933 243.609 58.9417 243.602 58.8911C243.598 58.8397 243.583 58.7897 243.558 58.7444C243.533 58.6991 243.499 58.6594 243.458 58.6279C243.417 58.5964 243.37 58.5738 243.32 58.5615C243.27 58.5492 243.218 58.5475 243.167 58.5565C242.949 58.5756 242.73 58.5932 242.511 58.6081Z" fill="#FFB635"/>
<path d="M241.037 61.6885L244.543 61.4195C244.654 61.7028 244.651 62.0184 244.533 62.2989C244.415 62.5795 244.192 62.8028 243.911 62.9213C243.812 62.9571 243.708 62.9789 243.603 62.9861C243.166 63.0243 242.727 63.057 242.289 63.0885C242.138 63.1023 241.985 63.0851 241.84 63.0378C241.695 62.9906 241.562 62.9142 241.447 62.8135C241.333 62.7128 241.241 62.5898 241.176 62.4521C241.111 62.3144 241.074 62.1649 241.069 62.0127C241.056 61.9038 241.046 61.7915 241.037 61.6885Z" fill="#FFB635"/>
</g>
<path d="M247.604 81.0891C248.042 80.3111 248.488 79.5379 248.943 78.7695C248.976 78.6957 249.023 78.6297 249.084 78.5761C249.144 78.5225 249.215 78.4826 249.292 78.459C249.369 78.4355 249.45 78.4289 249.53 78.4396C249.61 78.4504 249.687 78.4783 249.755 78.5215C249.821 78.5607 249.879 78.6132 249.925 78.6756C249.971 78.7381 250.003 78.8092 250.02 78.8846C250.038 78.96 250.039 79.0381 250.025 79.1142C250.011 79.1903 249.982 79.2628 249.939 79.3271C249.859 79.4935 249.77 79.6556 249.673 79.8412L251.733 81.0305C252.368 81.3968 252.368 81.3968 252.874 80.8846C253.217 80.4993 253.689 80.2524 254.201 80.1904C254.714 80.1283 255.231 80.2552 255.657 80.5474C256.021 80.7748 256.131 81.0702 255.963 81.3756C255.795 81.6811 255.483 81.7476 255.103 81.5529C254.362 81.1728 253.948 81.2788 253.453 81.992L256.87 83.9644C256.915 83.9308 256.941 83.9214 256.953 83.902C257.078 83.6948 257.195 83.4824 257.326 83.2785C257.443 83.0965 257.498 82.9634 257.321 82.748C257.265 82.6772 257.227 82.5931 257.213 82.5037C257.198 82.4144 257.207 82.3228 257.238 82.2377C257.269 82.1527 257.322 82.0771 257.39 82.0182C257.459 81.9593 257.542 81.9192 257.631 81.9015C257.842 81.8837 258.053 81.9199 258.246 82.0068C258.439 82.0938 258.606 82.2285 258.732 82.3983C258.978 82.6429 258.849 82.9397 258.689 83.209C258.424 83.6535 258.169 84.1082 257.909 84.5601L258.971 85.1733C259.434 84.3718 259.879 83.6002 260.325 82.8282C260.679 82.2151 260.617 81.9939 259.992 81.6333C258.402 80.7148 256.811 79.7963 255.22 78.878C254.775 78.621 254.677 78.3649 254.898 77.9753C255.47 76.9654 256.05 75.96 256.639 74.9594C256.67 74.8888 256.716 74.8257 256.774 74.7745C256.832 74.7232 256.9 74.6851 256.974 74.6625C257.048 74.64 257.126 74.6336 257.203 74.6439C257.279 74.6541 257.353 74.6807 257.418 74.7219C257.486 74.7578 257.546 74.8073 257.594 74.8672C257.642 74.9272 257.677 74.9963 257.697 75.0704C257.718 75.1445 257.723 75.222 257.712 75.298C257.701 75.3741 257.675 75.4471 257.634 75.5126C257.554 75.6801 257.448 75.835 257.338 76.0253L257.808 76.2965C262.68 79.1092 267.552 81.922 272.423 84.7347C272.56 84.8027 272.69 84.8855 272.809 84.9816C272.865 85.0244 272.913 85.0782 272.948 85.1397C272.983 85.2011 273.006 85.2691 273.014 85.3395C273.023 85.4099 273.017 85.4813 272.998 85.5494C272.978 85.6176 272.945 85.6811 272.901 85.7363C272.831 85.8538 272.718 85.9389 272.585 85.9731C272.453 86.0072 272.313 85.9877 272.195 85.9186C272.068 85.8603 271.949 85.7848 271.827 85.7145L256.788 77.032L256.173 78.0977L256.546 78.3134C257.916 79.1043 259.286 79.8952 260.656 80.686C260.894 80.7916 261.106 80.9489 261.276 81.1466C261.446 81.3443 261.569 81.5773 261.638 81.8288C261.706 82.0802 261.718 82.3438 261.672 82.6003C261.626 82.8568 261.523 83.0998 261.371 83.3117C260.576 84.6934 259.779 86.0743 258.979 87.4543C258.912 87.5713 258.844 87.6886 258.776 87.8063L263.744 90.6742C264.07 89.9849 264.38 89.3292 264.69 88.673C265.284 87.4164 265.872 86.1572 266.475 84.9046C266.698 84.4406 266.996 84.3554 267.439 84.6049C268.007 84.9234 268.571 85.2471 269.129 85.5806C269.203 85.6141 269.269 85.6626 269.323 85.7229C269.376 85.7832 269.417 85.854 269.442 85.9309C269.467 86.0077 269.476 86.089 269.468 86.1694C269.46 86.2498 269.435 86.3277 269.395 86.3981C268.956 87.4304 268.508 88.4582 268.064 89.4889C267.764 90.186 267.466 90.8844 267.147 91.6288L268.328 91.8684C268.364 91.7913 268.383 91.7579 268.396 91.7226C268.981 90.2 269.565 88.6771 270.148 87.1538C270.358 86.603 270.678 86.4781 271.188 86.7665C271.732 87.0746 272.27 87.3917 272.811 87.704C272.889 87.7351 272.959 87.7815 273.018 87.8404C273.077 87.8992 273.124 87.9694 273.155 88.0466C273.186 88.1239 273.202 88.2066 273.2 88.29C273.199 88.3733 273.181 88.4555 273.147 88.5317C273.03 88.8548 272.933 89.1844 272.825 89.5117C272.491 90.5244 272.156 91.5373 271.81 92.585L272.972 92.8217C273.016 92.6847 273.053 92.5783 273.084 92.4715C273.37 91.4277 273.653 90.3827 273.941 89.3397C274.09 88.8017 274.438 88.6553 274.928 88.9282C275.417 89.201 275.9 89.4894 276.386 89.77C277.066 90.1627 277.084 90.2073 276.925 90.9923C276.757 91.823 276.59 92.6578 276.415 93.5285L277.548 93.7587C277.64 93.0359 277.723 92.3429 277.819 91.6516C277.901 91.0727 278.292 90.8826 278.808 91.1679C279.205 91.4232 279.616 91.6554 280.039 91.8634C280.38 91.9709 280.666 92.2054 280.838 92.5182C281.01 92.831 281.055 93.1982 280.964 93.5433C280.849 94.4755 280.909 94.4831 281.828 94.6311C281.849 94.6347 281.873 94.6165 281.937 94.5941C281.889 93.8589 281.822 93.1125 281.798 92.3644C281.797 92.0704 281.714 91.7825 281.558 91.5333C281.402 91.2841 281.179 91.0836 280.915 90.9546C278.854 89.78 276.803 88.5864 274.749 87.3998C274.636 87.3403 274.527 87.2735 274.423 87.1998C274.315 87.1287 274.237 87.0193 274.205 86.8934C274.173 86.7674 274.19 86.6341 274.252 86.52C274.297 86.3984 274.387 86.2983 274.503 86.2396C274.618 86.1809 274.752 86.1679 274.877 86.2031C275.011 86.2398 275.14 86.2962 275.258 86.3705C277.358 87.5803 279.457 88.7914 281.556 90.0039C281.965 90.2182 282.309 90.5382 282.552 90.9306C282.795 91.3229 282.928 91.7733 282.938 92.2348C282.987 93.1768 283.059 94.1178 283.119 95.0589C283.168 95.8217 282.925 96.0339 282.172 95.8793C277.059 94.8288 271.946 93.7779 266.833 92.7266C266.54 92.6666 266.246 92.6161 265.863 92.5447C266.357 93.0575 266.788 93.4909 267.2 93.941C267.28 94.0358 267.383 94.109 267.498 94.1539C267.614 94.1988 267.739 94.2139 267.862 94.1978C269.058 94.135 270.245 94.4365 271.266 95.0625C272.288 95.6885 273.095 96.6095 273.582 97.7038C274.068 98.7982 274.212 100.015 273.993 101.192C273.774 102.37 273.203 103.453 272.355 104.299C271.507 105.146 270.423 105.715 269.245 105.932C268.067 106.149 266.851 106.003 265.757 105.515C264.664 105.026 263.744 104.217 263.12 103.195C262.496 102.173 262.196 100.985 262.261 99.7893C262.282 99.6803 262.265 99.5674 262.213 99.4694C262.161 99.3713 262.077 99.2939 261.975 99.25C261.424 98.9556 260.889 98.6314 260.349 98.3179C260.039 98.1393 259.722 97.9722 259.426 97.774C259.31 97.6908 259.23 97.5671 259.201 97.4275C259.172 97.2878 259.197 97.1424 259.27 97.02C259.343 96.8977 259.46 96.8073 259.596 96.7667C259.733 96.7262 259.88 96.7385 260.008 96.8012C260.121 96.8538 260.23 96.9135 260.36 96.9791L263.329 91.8357L258.141 88.84L255.163 93.9969L255.477 94.1779C256.206 94.5988 256.938 95.015 257.661 95.445C257.731 95.4771 257.794 95.5236 257.845 95.5815C257.896 95.6394 257.934 95.7074 257.957 95.781C257.98 95.8546 257.987 95.9323 257.978 96.0088C257.969 96.0854 257.944 96.1592 257.904 96.2255C257.868 96.2932 257.818 96.3528 257.758 96.4006C257.697 96.4485 257.628 96.4836 257.554 96.5039C257.48 96.5241 257.402 96.5291 257.326 96.5186C257.25 96.508 257.176 96.4821 257.11 96.4424C257.016 96.3987 256.931 96.3439 256.843 96.2929C256.082 95.8534 255.315 95.4242 254.56 94.9675C254.457 94.8906 254.332 94.8497 254.203 94.851C254.075 94.8524 253.95 94.896 253.849 94.9751C252.953 95.5775 251.903 95.9121 250.824 95.9397C249.744 95.9673 248.679 95.6867 247.753 95.1308C246.805 94.6253 246.021 93.8609 245.492 92.9267C244.962 91.9924 244.709 90.9269 244.763 89.8544C244.801 89.2532 244.877 88.655 244.989 88.0631C244.526 87.7958 244.048 87.5014 243.553 87.2407C243.552 87.2406 247.494 81.2871 247.604 81.0891ZM258.394 94.4398C258.074 94.2552 257.749 94.078 257.434 93.8858C257.082 93.6677 256.987 93.3435 257.172 93.0472C257.348 92.7645 257.656 92.7007 258.009 92.8991C258.653 93.261 259.292 93.6304 259.928 94.0072C260.001 94.0386 260.067 94.0848 260.122 94.1429C260.177 94.2011 260.219 94.2699 260.246 94.3451C260.273 94.4203 260.284 94.5003 260.279 94.58C260.274 94.6597 260.252 94.7374 260.215 94.8084C260.054 95.1082 259.714 95.1876 259.354 94.9934C259.027 94.8174 258.714 94.6247 258.394 94.4398ZM260.144 91.3825C260.486 91.5797 260.835 91.7663 261.168 91.9777C261.24 92.0111 261.304 92.0592 261.356 92.1188C261.408 92.1784 261.447 92.2483 261.471 92.324C261.494 92.3996 261.502 92.4794 261.493 92.5581C261.484 92.6368 261.459 92.7128 261.418 92.7812C261.378 92.8495 261.324 92.9088 261.26 92.9551C261.196 93.0013 261.122 93.0337 261.045 93.05C260.967 93.0663 260.887 93.0663 260.81 93.0498C260.732 93.0334 260.659 93.0009 260.595 92.9545C259.915 92.5781 259.242 92.1897 258.576 91.7892C258.505 91.7555 258.441 91.7073 258.39 91.6476C258.338 91.588 258.299 91.5182 258.276 91.4427C258.252 91.3672 258.245 91.2877 258.254 91.2092C258.263 91.1307 258.289 91.055 258.329 90.9868C258.369 90.9187 258.422 90.8596 258.486 90.8134C258.551 90.7672 258.624 90.7349 258.701 90.7185C258.778 90.702 258.858 90.7019 258.935 90.718C259.013 90.7342 259.086 90.7663 259.15 90.8123C259.488 90.9889 259.813 91.191 260.144 91.3825ZM261.802 88.1602C261.516 87.9953 261.223 87.8419 260.947 87.6623C260.879 87.6267 260.819 87.5775 260.771 87.5177C260.723 87.4579 260.688 87.3888 260.669 87.3148C260.649 87.2408 260.645 87.1635 260.656 87.0878C260.668 87.0121 260.695 86.9396 260.736 86.8749C260.772 86.8107 260.821 86.7543 260.879 86.7094C260.938 86.6644 261.004 86.6317 261.076 86.6132C261.147 86.5948 261.221 86.591 261.294 86.602C261.367 86.6131 261.437 86.6388 261.5 86.6775C262.08 86.9922 262.651 87.3222 263.214 87.6675C263.281 87.7026 263.34 87.7507 263.388 87.8091C263.436 87.8674 263.472 87.9348 263.493 88.0071C263.514 88.0795 263.521 88.1554 263.513 88.2304C263.504 88.3054 263.481 88.378 263.444 88.4438C263.407 88.5096 263.357 88.5673 263.298 88.6136C263.238 88.6598 263.17 88.6936 263.097 88.713C263.024 88.7324 262.948 88.737 262.873 88.7264C262.798 88.7159 262.726 88.6905 262.662 88.6518C262.366 88.5054 262.088 88.3252 261.802 88.1602ZM262.926 86.0629C262.662 85.9101 262.39 85.7675 262.133 85.6015C262.004 85.5265 261.909 85.403 261.87 85.258C261.831 85.1131 261.851 84.9587 261.926 84.8288C262.001 84.6989 262.125 84.6041 262.27 84.5652C262.415 84.5264 262.569 84.5467 262.699 84.6217C263.216 84.8978 263.724 85.1929 264.222 85.5008C264.286 85.5381 264.343 85.5878 264.389 85.6471C264.434 85.7064 264.467 85.774 264.487 85.8461C264.506 85.9183 264.511 85.9935 264.501 86.0676C264.491 86.1416 264.467 86.2131 264.43 86.2777C264.392 86.3424 264.343 86.3991 264.284 86.4446C264.224 86.4901 264.157 86.5234 264.084 86.5428C264.012 86.5621 263.937 86.567 263.863 86.5573C263.789 86.5475 263.718 86.5233 263.653 86.4859C263.405 86.355 263.168 86.2045 262.925 86.0644L262.926 86.0629ZM264.005 83.9391L264.003 83.9422L263.376 83.5803C263.354 83.5676 263.331 83.5544 263.312 83.5389C263.184 83.4646 263.09 83.343 263.051 83.2003C263.012 83.0576 263.031 82.9053 263.104 82.7763C263.137 82.7107 263.184 82.6525 263.24 82.6053C263.297 82.5581 263.362 82.5228 263.433 82.5016C263.504 82.4804 263.578 82.4737 263.651 82.4818C263.724 82.49 263.795 82.5129 263.859 82.5492C264.344 82.8028 264.819 83.0775 265.281 83.3701C265.406 83.4491 265.494 83.5736 265.528 83.7171C265.562 83.8606 265.539 84.0116 265.463 84.1381C265.387 84.2645 265.265 84.3562 265.122 84.3938C264.979 84.4313 264.828 84.4116 264.7 84.339C264.462 84.2174 264.236 84.0737 264.004 83.94L264.005 83.9391Z" fill="white"/>
<path d="M243.09 86.5184C243.086 86.6713 243.128 86.822 243.21 86.9508C243.293 87.0797 243.412 87.1807 243.553 87.2409C244.048 87.5013 244.526 87.7962 244.988 88.0632C244.876 88.6551 244.801 89.2533 244.762 89.8545C244.709 90.927 244.961 91.9925 245.491 92.9268C246.02 93.861 246.804 94.6256 247.751 95.1312C248.677 95.6871 249.743 95.9676 250.822 95.9401C251.902 95.9125 252.951 95.5778 253.848 94.9754C253.949 94.8963 254.073 94.8527 254.202 94.8514C254.33 94.85 254.456 94.8909 254.558 94.9678C255.31 95.4234 256.078 95.8526 256.842 96.2932C256.931 96.345 257.018 96.4011 257.109 96.4427C257.175 96.4824 257.248 96.5083 257.324 96.5189C257.401 96.5295 257.478 96.5245 257.552 96.5042C257.627 96.4839 257.696 96.4488 257.756 96.4009C257.816 96.3531 257.866 96.2935 257.903 96.2258C257.942 96.1596 257.968 96.0858 257.977 96.0092C257.986 95.9326 257.978 95.8549 257.956 95.7813C257.933 95.7077 257.894 95.6397 257.843 95.5818C257.792 95.5239 257.73 95.4774 257.66 95.4454C256.936 95.0155 256.204 94.5995 255.475 94.1782L255.162 93.9972L258.14 88.8394L263.328 91.8351L260.359 96.9777C260.23 96.9122 260.121 96.8524 260.008 96.7997C259.88 96.7372 259.733 96.7252 259.596 96.7659C259.459 96.8066 259.343 96.8972 259.27 97.0196C259.197 97.1421 259.173 97.2875 259.202 97.4271C259.231 97.5667 259.311 97.6902 259.427 97.7733C259.723 97.9718 260.041 98.1384 260.35 98.3172C260.891 98.6298 261.425 98.9549 261.976 99.2493C262.078 99.2932 262.162 99.3706 262.214 99.4687C262.266 99.5667 262.283 99.6796 262.262 99.7886C262.197 100.984 262.495 102.172 263.119 103.194C263.743 104.217 264.662 105.026 265.755 105.515C266.848 106.004 268.064 106.15 269.242 105.933C270.42 105.716 271.504 105.148 272.352 104.302C273.2 103.456 273.771 102.373 273.99 101.195C274.209 100.018 274.066 98.8016 273.58 97.7073C273.093 96.6131 272.286 95.6922 271.265 95.0663C270.244 94.4404 269.057 94.139 267.861 94.2018C267.738 94.2179 267.613 94.2028 267.497 94.158C267.382 94.1131 267.279 94.0399 267.199 93.945C266.787 93.495 266.356 93.0616 265.862 92.5487C266.245 92.6204 266.54 92.6705 266.832 92.7307C271.945 93.7806 277.059 94.8305 282.172 95.8804C282.925 96.035 283.168 95.8228 283.119 95.06C283.057 94.1224 282.986 93.18 282.937 92.2384C282.927 91.7769 282.794 91.3265 282.551 90.9342C282.308 90.5418 281.964 90.2218 281.555 90.0074C279.455 88.798 277.355 87.5869 275.257 86.3741C275.139 86.2998 275.011 86.2434 274.876 86.2067C274.751 86.1715 274.617 86.1845 274.502 86.2432C274.386 86.3019 274.297 86.402 274.251 86.5236C274.189 86.6377 274.172 86.771 274.204 86.897C274.236 87.0229 274.314 87.1323 274.422 87.2034C274.526 87.2771 274.635 87.3439 274.748 87.4034C276.803 88.5896 278.853 89.7832 280.914 90.9582C281.179 91.0872 281.401 91.2877 281.557 91.5369C281.713 91.7861 281.796 92.074 281.797 92.368C281.822 93.1156 281.889 93.8622 281.936 94.5977C281.872 94.6205 281.848 94.6383 281.827 94.6347C280.908 94.4869 280.849 94.4794 280.963 93.5469C281.054 93.2017 281.009 92.8346 280.837 92.5218C280.665 92.209 280.379 91.9745 280.039 91.867C279.615 91.659 279.204 91.4268 278.807 91.1715C278.291 90.8858 277.9 91.0763 277.819 91.6552C277.722 92.3458 277.639 93.039 277.547 93.7623L276.414 93.5321C276.591 92.658 276.759 91.8237 276.928 90.9918C277.088 90.207 277.069 90.1621 276.389 89.7694C275.903 89.4889 275.42 89.2023 274.931 88.9276C274.442 88.6529 274.093 88.802 273.945 89.3391C273.655 90.3818 273.374 91.4271 273.088 92.4709C273.058 92.5787 273.019 92.6841 272.975 92.8212L271.814 92.5844C272.16 91.5363 272.494 90.5239 272.828 89.5112C272.935 89.1845 273.034 88.8538 273.15 88.5311C273.184 88.455 273.202 88.3728 273.203 88.2894C273.205 88.2061 273.189 88.1233 273.158 88.0461C273.127 87.9688 273.08 87.8987 273.021 87.8398C272.962 87.7809 272.892 87.7346 272.815 87.7034C272.273 87.3909 271.734 87.0752 271.191 86.766C270.681 86.4773 270.362 86.6025 270.151 87.1532C269.569 88.6769 268.985 90.1998 268.399 91.722C268.386 91.7571 268.368 91.7908 268.331 91.8678L267.15 91.6283C267.469 90.8841 267.768 90.1857 268.067 89.4884C268.511 88.4581 268.958 87.4291 269.399 86.3975C269.438 86.3272 269.463 86.2493 269.471 86.1688C269.479 86.0884 269.471 86.0072 269.445 85.9303C269.42 85.8534 269.38 85.7826 269.326 85.7223C269.272 85.662 269.206 85.6136 269.133 85.58C268.575 85.2445 268.011 84.9211 267.443 84.6043C266.999 84.3553 266.701 84.4407 266.478 84.9041C265.875 86.1559 265.287 87.4156 264.693 88.6724C264.383 89.3291 264.072 89.9855 263.747 90.6737L258.778 87.8047C258.846 87.687 258.913 87.5697 258.981 87.4527C259.778 86.072 260.575 84.6911 261.373 83.3101C261.524 83.0983 261.627 82.8554 261.673 82.599C261.719 82.3427 261.707 82.0793 261.639 81.8279C261.57 81.5766 261.447 81.3437 261.277 81.1461C261.108 80.9484 260.896 80.791 260.658 80.6853C259.289 79.8929 257.919 79.102 256.549 78.3127L256.175 78.0971L256.789 77.0336L271.828 85.7161C271.949 85.7861 272.069 85.8612 272.196 85.9203C272.314 85.9893 272.454 86.0088 272.586 85.9747C272.719 85.9405 272.832 85.8554 272.902 85.7379C272.946 85.6827 272.98 85.6191 272.999 85.5508C273.019 85.4825 273.025 85.411 273.016 85.3405C273.007 85.2699 272.985 85.2019 272.949 85.1403C272.914 85.0787 272.866 85.0249 272.81 84.9821C272.691 84.886 272.561 84.8032 272.424 84.7351C267.553 81.9224 262.681 79.1097 257.809 76.297L257.34 76.026C257.45 75.8357 257.554 75.6796 257.636 75.5133C257.676 75.4479 257.703 75.3749 257.715 75.2987C257.726 75.2225 257.721 75.1449 257.701 75.0705C257.681 74.9961 257.646 74.9267 257.598 74.8664C257.55 74.8062 257.491 74.7564 257.423 74.7203C257.357 74.6791 257.284 74.6525 257.207 74.6422C257.131 74.632 257.053 74.6384 256.979 74.6609C256.905 74.6834 256.837 74.7216 256.779 74.7728C256.721 74.824 256.675 74.8871 256.644 74.9578C256.055 75.9583 255.475 76.9636 254.902 77.9737C254.682 78.362 254.78 78.6196 255.225 78.8764C256.814 79.7971 258.405 80.7155 259.997 81.6316C260.624 81.9936 260.683 82.2132 260.329 82.8265C259.884 83.5981 259.438 84.3701 258.975 85.1717L257.909 84.5561C258.17 84.1043 258.426 83.6523 258.689 83.2051C258.848 82.9385 258.977 82.6407 258.733 82.3943C258.607 82.2246 258.439 82.0898 258.247 82.0029C258.054 81.9159 257.842 81.8797 257.631 81.8976C257.543 81.9152 257.46 81.9554 257.391 82.0142C257.322 82.0731 257.27 82.1487 257.239 82.2338C257.207 82.3188 257.199 82.4104 257.213 82.4998C257.228 82.5891 257.265 82.6733 257.322 82.744C257.497 82.9584 257.444 83.0926 257.327 83.2746C257.196 83.4784 257.078 83.6908 256.953 83.898C256.942 83.9177 256.915 83.9281 256.87 83.9605L253.454 81.9878C253.95 81.2761 254.362 81.1685 255.104 81.5487C255.483 81.7434 255.793 81.6795 255.963 81.3714C256.133 81.0633 256.022 80.7705 255.657 80.5431C255.231 80.251 254.714 80.124 254.201 80.1861C253.689 80.2482 253.217 80.4951 252.874 80.8804C252.368 81.3926 252.368 81.3926 251.733 81.0263L249.673 79.837C249.769 79.6532 249.859 79.4893 249.939 79.3229C249.982 79.2587 250.011 79.1866 250.025 79.1108C250.038 79.035 250.037 78.9573 250.02 78.8822C250.003 78.8071 249.97 78.7363 249.925 78.674C249.88 78.6117 249.822 78.5593 249.756 78.5199C249.688 78.4767 249.611 78.4488 249.532 78.438C249.452 78.4273 249.37 78.4339 249.293 78.4574C249.216 78.481 249.145 78.5209 249.085 78.5745C249.025 78.6281 248.977 78.6941 248.945 78.7679C248.488 79.5351 248.042 80.3083 247.606 81.0875C247.571 81.1807 247.504 81.2589 247.418 81.3084C247.332 81.358 247.231 81.376 247.133 81.3592C246.871 81.3509 246.61 81.399 246.368 81.5002C246.126 81.6014 245.908 81.7534 245.73 81.9459L243.09 86.5184ZM266.373 95.71C266.667 96.5556 266.818 96.7433 267.193 96.6345C267.935 96.4168 267.569 95.8513 267.527 95.4015C268.368 95.2517 269.235 95.3646 270.01 95.7249C269.85 96.1391 269.337 96.6098 269.969 96.9772C270.601 97.3445 270.758 96.6708 271.053 96.3002C271.737 96.8169 272.265 97.513 272.579 98.3113C272.127 98.4777 271.501 98.483 271.645 99.1345C271.813 99.8882 272.419 99.5013 272.89 99.4603C273.016 100.306 272.9 101.171 272.556 101.954C272.116 101.749 271.649 101.311 271.295 101.9C270.92 102.526 271.601 102.686 271.959 102.988C271.452 103.677 270.76 104.207 269.963 104.519C269.789 104.105 269.819 103.457 269.164 103.579C268.382 103.725 268.768 104.358 268.807 104.832C267.961 104.952 267.098 104.836 266.314 104.497C266.491 104.075 266.971 103.64 266.408 103.266C265.741 102.822 265.586 103.552 265.284 103.906C264.603 103.396 264.076 102.708 263.76 101.919C264.628 101.567 264.808 101.389 264.692 101.015C264.576 100.64 264.339 100.592 263.446 100.753C263.314 99.9073 263.433 99.0417 263.788 98.2632C264.225 98.4372 264.671 98.9046 265.028 98.3298C265.429 97.6885 264.739 97.5151 264.393 97.2334C264.879 96.5329 265.571 96.0003 266.373 95.71ZM250.021 85.2757C250.871 85.1501 251.74 85.2666 252.527 85.6119C252.323 86.0386 251.872 86.4834 252.428 86.8465C253.082 87.2731 253.258 86.5662 253.551 86.1909C254.23 86.7055 254.755 87.3967 255.068 88.1889C254.208 88.5286 254.013 88.7009 254.139 89.0624C254.385 89.7679 254.924 89.396 255.386 89.3536C255.515 90.1952 255.402 91.0562 255.059 91.8357C254.621 91.6634 254.154 91.1971 253.798 91.7861C253.42 92.4105 254.085 92.5808 254.46 92.877C253.953 93.5679 253.26 94.1008 252.463 94.4139C252.185 93.5806 252.002 93.3558 251.637 93.465C250.906 93.6832 251.259 94.2466 251.307 94.6932C250.466 94.8521 249.595 94.739 248.822 94.3703C248.988 93.9686 249.482 93.5182 248.885 93.1451C248.225 92.7323 248.084 93.4491 247.781 93.7988C247.094 93.2881 246.567 92.5917 246.262 91.7916C247.084 91.5198 247.316 91.3252 247.198 90.9586C246.966 90.2333 246.409 90.5953 245.936 90.6482C245.817 89.7996 245.938 88.9344 246.285 88.1511C246.719 88.3304 247.181 88.8104 247.539 88.1997C247.905 87.5751 247.239 87.4056 246.876 87.1158C247.382 86.4305 248.07 85.9008 248.862 85.5865C249.187 86.4715 249.34 86.6542 249.72 86.5255C250.415 86.2878 250.076 85.749 250.021 85.2757ZM244.474 86.4212C245.185 85.1902 245.873 83.9854 246.576 82.7896C246.76 82.4777 247.06 82.4181 247.405 82.6114C248.194 83.0558 248.974 83.5132 249.757 83.969C249.811 84.0136 249.861 84.064 249.904 84.1194C249.003 84.2436 248.142 84.5693 247.384 85.0725C246.626 85.5756 245.991 86.2432 245.527 87.0256L244.474 86.4212ZM266.17 94.5231C265.327 94.8322 264.563 95.3245 263.933 95.9646C263.304 96.6048 262.824 97.3767 262.529 98.2247L261.391 97.5677L264.277 92.568L266.17 94.5231ZM268.157 86.3687L265.998 91.3844L264.811 91.1036L267.29 85.8676L268.157 86.3687ZM270.676 92.3535L269.484 92.1075L271.045 88.0402L271.933 88.5526L270.676 92.3535ZM249.076 80.8615L251.131 82.0479L250.549 83.0563L248.494 81.8699L249.076 80.8615ZM274.12 93.0629L274.892 90.2318C275.176 90.3957 275.422 90.5245 275.65 90.6776C275.686 90.7058 275.715 90.7422 275.735 90.7837C275.755 90.8252 275.765 90.8708 275.764 90.9168C275.615 91.6995 275.45 92.4791 275.283 93.2926L274.12 93.0629ZM251.709 83.737C251.979 83.4584 252.221 83.2016 252.473 82.9554C252.515 82.9142 252.622 82.884 252.666 82.9082C253.195 83.2031 253.719 83.5088 254.24 83.8095L253.638 84.8511L251.709 83.737ZM258.354 86.207L257.762 87.2315L256.741 86.6418L257.332 85.6172L258.354 86.207ZM256.296 85.019L255.705 86.0426L254.67 85.4452L255.26 84.4228L256.296 85.019ZM278.863 92.5612C279.855 92.9983 279.979 93.2464 279.717 94.2034L278.678 93.9898L278.863 92.5612ZM256.228 87.729L257.159 88.2667L256.622 89.1973L256.228 87.729Z" fill="#FFB635"/>
<path d="M258.394 94.4402C258.714 94.6248 259.03 94.8168 259.354 94.9942C259.714 95.1887 260.054 95.109 260.215 94.8092C260.252 94.7382 260.274 94.6605 260.279 94.5808C260.285 94.5011 260.273 94.4211 260.246 94.3459C260.219 94.2707 260.177 94.2019 260.122 94.1437C260.068 94.0856 260.001 94.0394 259.928 94.008C259.293 93.6312 258.653 93.2618 258.009 92.8999C257.656 92.7015 257.349 92.7648 257.172 93.048C256.987 93.3443 257.082 93.668 257.434 93.8866C257.75 94.0783 258.074 94.2556 258.394 94.4402Z" fill="#ACACAC"/>
<path d="M260.144 91.3824C259.813 91.1914 259.488 90.9889 259.15 90.8122C259.086 90.7662 259.012 90.7341 258.935 90.718C258.858 90.7018 258.778 90.702 258.701 90.7184C258.623 90.7348 258.55 90.7672 258.486 90.8134C258.422 90.8596 258.368 90.9186 258.328 90.9868C258.288 91.0549 258.263 91.1306 258.254 91.2091C258.245 91.2876 258.252 91.3671 258.275 91.4426C258.299 91.5181 258.337 91.5879 258.389 91.6476C258.441 91.7073 258.505 91.7555 258.576 91.7892C259.241 92.1907 259.914 92.5791 260.594 92.9544C260.659 93.0008 260.732 93.0333 260.809 93.0498C260.887 93.0662 260.967 93.0663 261.045 93.05C261.122 93.0336 261.195 93.0013 261.26 92.955C261.324 92.9087 261.378 92.8495 261.418 92.7811C261.458 92.7128 261.484 92.6368 261.493 92.558C261.502 92.4793 261.494 92.3995 261.47 92.3239C261.447 92.2482 261.408 92.1784 261.355 92.1187C261.303 92.0591 261.239 92.011 261.167 91.9776C260.832 91.7657 260.485 91.5801 260.144 91.3824Z" fill="#ACACAC"/>
<path d="M261.801 88.1605C262.087 88.3255 262.366 88.5035 262.66 88.6518C262.725 88.6906 262.797 88.716 262.872 88.7265C262.946 88.737 263.022 88.7324 263.095 88.713C263.168 88.6937 263.237 88.6598 263.296 88.6136C263.356 88.5674 263.406 88.5096 263.443 88.4438C263.48 88.378 263.503 88.3055 263.511 88.2305C263.52 88.1555 263.513 88.0795 263.492 88.0072C263.47 87.9348 263.435 87.8675 263.387 87.8091C263.339 87.7508 263.28 87.7026 263.213 87.6675C262.649 87.3239 262.078 86.9939 261.498 86.6776C261.436 86.6388 261.366 86.6131 261.293 86.6021C261.22 86.591 261.146 86.5948 261.074 86.6133C261.003 86.6317 260.936 86.6644 260.878 86.7094C260.819 86.7544 260.771 86.8107 260.735 86.875C260.694 86.9397 260.666 87.0121 260.655 87.0878C260.643 87.1635 260.647 87.2408 260.667 87.3148C260.687 87.3888 260.722 87.4579 260.77 87.5177C260.818 87.5775 260.877 87.6268 260.945 87.6623C261.222 87.8422 261.515 87.9956 261.801 88.1605Z" fill="#ACACAC"/>
<path d="M262.925 86.0647C263.168 86.2048 263.405 86.355 263.654 86.4828C263.785 86.5582 263.94 86.5787 264.086 86.5396C264.232 86.5006 264.356 86.4053 264.431 86.2746C264.507 86.144 264.527 85.9887 264.488 85.843C264.449 85.6973 264.354 85.5731 264.223 85.4977C263.724 85.1913 263.216 84.8965 262.701 84.6186C262.571 84.5436 262.416 84.5233 262.271 84.5621C262.126 84.6009 262.003 84.6957 261.928 84.8257C261.853 84.9556 261.833 85.11 261.871 85.2549C261.91 85.3998 262.005 85.5234 262.135 85.5984C262.391 85.7644 262.663 85.9067 262.928 86.0597L262.925 86.0647Z" fill="#ACACAC"/>
<path d="M264.004 83.9398C264.236 84.0734 264.462 84.2177 264.7 84.3381C264.829 84.4107 264.98 84.4304 265.123 84.3929C265.265 84.3554 265.388 84.2636 265.464 84.1372C265.539 84.0107 265.563 83.8597 265.529 83.7162C265.495 83.5727 265.406 83.4482 265.282 83.3692C264.819 83.0771 264.345 82.8024 263.86 82.5483C263.796 82.5117 263.725 82.4884 263.651 82.4801C263.578 82.4717 263.503 82.4783 263.433 82.4995C263.362 82.5207 263.296 82.5561 263.239 82.6035C263.182 82.6509 263.136 82.7093 263.102 82.7753C263.03 82.9042 263.011 83.0565 263.05 83.1992C263.089 83.3419 263.182 83.4636 263.31 83.5379C263.332 83.5505 263.353 83.5664 263.374 83.579L264.001 83.941L264.004 83.9398Z" fill="#ACACAC"/>
<path d="M266.373 95.7104C265.571 95.9995 264.878 96.5307 264.391 97.2305C264.737 97.5121 265.427 97.686 265.026 98.3268C264.668 98.9007 264.222 98.4342 263.786 98.2603C263.431 99.0388 263.312 99.9044 263.444 100.75C264.336 100.588 264.574 100.64 264.69 101.012C264.806 101.383 264.626 101.564 263.758 101.916C264.074 102.705 264.601 103.393 265.282 103.903C265.582 103.548 265.738 102.82 266.406 103.263C266.967 103.636 266.49 104.072 266.312 104.494C267.096 104.833 267.959 104.95 268.805 104.83C268.766 104.355 268.381 103.721 269.162 103.576C269.817 103.455 269.786 104.103 269.961 104.516C270.758 104.204 271.45 103.674 271.957 102.985C271.599 102.683 270.919 102.523 271.293 101.897C271.647 101.307 272.114 101.746 272.554 101.951C272.899 101.168 273.014 100.304 272.888 99.4574C272.418 99.4986 271.811 99.8868 271.644 99.1315C271.499 98.4798 272.125 98.4747 272.577 98.3084C272.264 97.51 271.736 96.8139 271.051 96.2973C270.756 96.6678 270.601 97.3426 269.967 96.9742C269.333 96.6058 269.849 96.1359 270.008 95.722C269.233 95.362 268.366 95.2495 267.525 95.3999C267.566 95.8497 267.933 96.4147 267.191 96.6329C266.818 96.7453 266.667 96.5563 266.373 95.7104ZM266.137 98.9222C266.372 98.523 266.72 98.2024 267.137 98.0006C267.554 97.7988 268.022 97.725 268.481 97.7883C268.94 97.8517 269.37 98.0494 269.716 98.3566C270.063 98.6638 270.311 99.0667 270.429 99.5147C270.548 99.9626 270.531 100.436 270.381 100.874C270.231 101.312 269.954 101.696 269.587 101.978C269.219 102.259 268.776 102.426 268.313 102.456C267.851 102.487 267.39 102.38 266.989 102.148C266.72 101.993 266.485 101.787 266.297 101.54C266.109 101.294 265.971 101.013 265.892 100.713C265.813 100.413 265.794 100.101 265.836 99.7933C265.878 99.4861 265.98 99.1903 266.137 98.9229L266.137 98.9222Z" fill="#D98622"/>
<path d="M250.02 85.2757C250.076 85.749 250.416 86.2889 249.717 86.5242C249.337 86.6529 249.183 86.4694 248.859 85.5852C248.067 85.8994 247.379 86.4292 246.873 87.1145C247.236 87.4043 247.904 87.5715 247.536 88.1984C247.178 88.8091 246.718 88.3309 246.282 88.1498C245.935 88.9331 245.814 89.7983 245.933 90.6469C246.407 90.5922 246.966 90.228 247.195 90.9573C247.313 91.3239 247.081 91.519 246.259 91.7903C246.564 92.5904 247.091 93.2868 247.778 93.7975C248.081 93.4478 248.222 92.731 248.883 93.1438C249.48 93.5172 248.985 93.9673 248.82 94.369C249.593 94.7377 250.463 94.8508 251.304 94.6919C251.256 94.2458 250.903 93.6837 251.634 93.4637C252 93.3548 252.183 93.5791 252.46 94.4126C253.258 94.0995 253.95 93.5666 254.458 92.8757C254.082 92.58 253.417 92.4092 253.795 91.7848C254.151 91.196 254.618 91.6631 255.056 91.8344C255.399 91.0549 255.512 90.1939 255.383 89.3523C254.921 89.3932 254.382 89.7666 254.136 89.0611C254.01 88.6998 254.206 88.5273 255.065 88.1876C254.752 87.3954 254.227 86.7043 253.548 86.1896C253.255 86.5653 253.079 87.2718 252.425 86.8452C251.869 86.4821 252.32 86.0373 252.524 85.6106C251.737 85.2662 250.87 85.1501 250.02 85.2757ZM248.639 88.8129C248.875 88.4141 249.224 88.0941 249.642 87.8933C250.059 87.6924 250.527 87.6196 250.986 87.684C251.445 87.7485 251.875 87.9473 252.221 88.2555C252.567 88.5636 252.814 88.9673 252.931 89.4157C253.048 89.8641 253.03 90.3371 252.879 90.7752C252.728 91.2133 252.45 91.5969 252.082 91.8776C251.713 92.1583 251.269 92.3236 250.807 92.3527C250.344 92.3817 249.883 92.2733 249.482 92.041C249.214 91.8854 248.979 91.6782 248.791 91.4314C248.603 91.1845 248.466 90.9028 248.387 90.6027C248.309 90.3025 248.291 89.9897 248.334 89.6824C248.377 89.3751 248.48 89.0794 248.638 88.8124L248.639 88.8129Z" fill="#D98622"/>
<path d="M244.474 86.4204L245.525 87.0274C245.99 86.2451 246.624 85.5775 247.382 85.0743C248.14 84.5712 249.001 84.2454 249.903 84.1213C249.859 84.0658 249.809 84.0154 249.755 83.9708C248.973 83.5157 248.192 83.0584 247.403 82.6133C247.059 82.4191 246.76 82.4769 246.574 82.7915C245.872 83.985 245.184 85.1898 244.474 86.4204Z" fill="#D98622"/>
<path d="M266.171 94.5216L264.277 92.5679L261.392 97.5649L262.53 98.2216C262.825 97.3739 263.305 96.6023 263.935 95.9625C264.564 95.3227 265.328 94.8305 266.171 94.5216Z" fill="#D98622"/>
<path d="M268.156 86.368L267.289 85.8672L264.811 91.1031L265.997 91.384L268.156 86.368Z" fill="#D98622"/>
<path d="M270.677 92.3536L271.933 88.553L271.046 88.0405L269.485 92.1079L270.677 92.3536Z" fill="#D98622"/>
<path d="M249.076 80.8618L248.494 81.8703L250.548 83.0562L251.13 82.0477L249.076 80.8618Z" fill="#D98622"/>
<path d="M274.119 93.0629L275.283 93.2931C275.45 92.4795 275.615 91.6999 275.764 90.9173C275.765 90.8713 275.755 90.8257 275.735 90.7842C275.715 90.7426 275.686 90.7063 275.65 90.6781C275.42 90.5246 275.175 90.3954 274.892 90.2323L274.119 93.0629Z" fill="#D98622"/>
<path d="M251.708 83.7374L253.637 84.8515L254.239 83.8094C253.718 83.5088 253.195 83.2024 252.665 82.9081C252.62 82.8823 252.514 82.9141 252.472 82.9554C252.22 83.202 251.98 83.4598 251.708 83.7374Z" fill="#D98622"/>
<path d="M258.353 86.2069L257.332 85.6172L256.74 86.6418L257.762 87.2315L258.353 86.2069Z" fill="#D98622"/>
<path d="M256.296 85.0201L255.261 84.4224L254.67 85.446L255.705 86.0438L256.296 85.0201Z" fill="#D98622"/>
<path d="M278.863 92.5626L278.678 93.9913L279.717 94.2049C279.978 93.2479 279.855 92.9998 278.863 92.5626Z" fill="#D98622"/>
<path d="M256.228 87.7285L256.622 89.1968L257.159 88.2663L256.228 87.7285Z" fill="#D98622"/>
<path d="M266.136 98.9229C265.905 99.3247 265.798 99.7859 265.828 100.249C265.858 100.711 266.025 101.154 266.307 101.522C266.589 101.89 266.973 102.167 267.412 102.317C267.851 102.467 268.324 102.483 268.772 102.364C269.22 102.246 269.623 101.997 269.93 101.65C270.237 101.302 270.435 100.872 270.497 100.412C270.56 99.9531 270.486 99.4854 270.283 99.0684C270.08 98.6515 269.759 98.3038 269.359 98.0692C268.818 97.7555 268.175 97.6692 267.571 97.8293C266.967 97.9893 266.451 98.3827 266.136 98.9229ZM267.118 99.5191C267.235 99.3138 267.41 99.1478 267.622 99.0417C267.833 98.9357 268.071 98.8944 268.305 98.923C268.54 98.9516 268.761 99.0489 268.94 99.2026C269.12 99.3563 269.25 99.5596 269.314 99.787C269.379 100.014 269.374 100.256 269.302 100.481C269.23 100.706 269.093 100.904 268.908 101.052C268.723 101.199 268.499 101.289 268.263 101.309C268.028 101.329 267.792 101.28 267.584 101.166C267.445 101.089 267.323 100.985 267.224 100.86C267.126 100.735 267.053 100.592 267.009 100.439C266.966 100.286 266.953 100.126 266.972 99.9681C266.991 99.8101 267.041 99.6574 267.118 99.5186L267.118 99.5191Z" fill="#ACACAC"/>
<path d="M248.639 88.8126C248.407 89.2137 248.298 89.6747 248.328 90.1374C248.357 90.6001 248.522 91.0438 248.803 91.4125C249.084 91.7813 249.468 92.0587 249.906 92.2097C250.345 92.3606 250.818 92.3785 251.266 92.261C251.715 92.1434 252.118 91.8958 252.426 91.5492C252.734 91.2027 252.933 90.7727 252.997 90.3135C253.061 89.8544 252.987 89.3865 252.786 88.969C252.584 88.5515 252.264 88.203 251.864 87.9674C251.324 87.6521 250.682 87.564 250.077 87.7225C249.472 87.881 248.955 88.2731 248.639 88.8126ZM249.618 89.4141C249.735 89.2089 249.91 89.0428 250.122 88.9368C250.333 88.8307 250.571 88.7894 250.805 88.818C251.04 88.8466 251.261 88.9439 251.44 89.0976C251.62 89.2513 251.75 89.4547 251.814 89.682C251.879 89.9094 251.874 90.1507 251.802 90.3757C251.73 90.6007 251.593 90.7994 251.408 90.9467C251.223 91.0941 250.999 91.1836 250.763 91.204C250.528 91.2244 250.292 91.1748 250.084 91.0614C249.946 90.984 249.823 90.8799 249.725 90.7552C249.626 90.6304 249.553 90.4875 249.51 90.3345C249.466 90.1815 249.454 90.0214 249.472 89.8635C249.491 89.7056 249.54 89.5529 249.618 89.4141Z" fill="#ACACAC"/>
<path d="M267.119 99.5178C267.005 99.7253 266.956 99.9617 266.976 100.197C266.997 100.433 267.086 100.657 267.234 100.842C267.382 101.027 267.581 101.164 267.806 101.236C268.031 101.308 268.273 101.312 268.5 101.247C268.728 101.182 268.931 101.051 269.084 100.871C269.238 100.692 269.334 100.47 269.362 100.235C269.391 100.001 269.349 99.7627 269.242 99.5516C269.135 99.3406 268.968 99.1659 268.762 99.0493C268.482 98.8944 268.152 98.8567 267.844 98.9445C267.536 99.0323 267.275 99.2384 267.119 99.5178Z" fill="#08477D"/>
<path d="M249.618 89.4142C249.505 89.6218 249.455 89.8584 249.476 90.0941C249.496 90.3298 249.586 90.5542 249.734 90.7391C249.882 90.9239 250.081 91.061 250.306 91.133C250.531 91.2051 250.773 91.2089 251.001 91.144C251.228 91.0791 251.432 90.9484 251.585 90.7683C251.738 90.5882 251.835 90.3667 251.863 90.1318C251.891 89.8968 251.849 89.6588 251.742 89.4477C251.635 89.2366 251.468 89.0618 251.262 88.9453C250.982 88.7904 250.652 88.7527 250.344 88.8406C250.036 88.9284 249.775 89.1347 249.618 89.4142Z" fill="#08477D"/>
<path d="M266.721 85.6984C270.291 85.6984 273.185 82.8046 273.185 79.2349C273.185 75.6653 270.291 72.7715 266.721 72.7715C263.152 72.7715 260.258 75.6653 260.258 79.2349C260.258 82.8046 263.152 85.6984 266.721 85.6984Z" fill="white"/>
<path d="M266.721 85.1808C270.005 85.1808 272.667 82.5186 272.667 79.2345C272.667 75.9504 270.005 73.2881 266.721 73.2881C263.437 73.2881 260.774 75.9504 260.774 79.2345C260.774 82.5186 263.437 85.1808 266.721 85.1808Z" stroke="#FFB635" stroke-width="2"/>
<path d="M265.17 76.3911C265.599 76.3911 265.946 76.0438 265.946 75.6155C265.946 75.1871 265.599 74.8398 265.17 74.8398C264.742 74.8398 264.395 75.1871 264.395 75.6155C264.395 76.0438 264.742 76.3911 265.17 76.3911Z" fill="white"/>
<path d="M265.17 76.1328C265.456 76.1328 265.687 75.9013 265.687 75.6157C265.687 75.3301 265.456 75.0986 265.17 75.0986C264.885 75.0986 264.653 75.3301 264.653 75.6157C264.653 75.9013 264.885 76.1328 265.17 76.1328Z" stroke="#08477D"/>
<path d="M264.136 83.1128C264.564 83.1128 264.912 82.7655 264.912 82.3371C264.912 81.9088 264.564 81.5615 264.136 81.5615C263.708 81.5615 263.36 81.9088 263.36 82.3371C263.36 82.7655 263.708 83.1128 264.136 83.1128Z" fill="white"/>
<path d="M264.136 82.8545C264.422 82.8545 264.653 82.623 264.653 82.3374C264.653 82.0518 264.422 81.8203 264.136 81.8203C263.851 81.8203 263.619 82.0518 263.619 82.3374C263.619 82.623 263.851 82.8545 264.136 82.8545Z" stroke="#08477D"/>
<path d="M263.102 79.4931C263.53 79.4931 263.877 79.1459 263.877 78.7175C263.877 78.2891 263.53 77.9419 263.102 77.9419C262.673 77.9419 262.326 78.2891 262.326 78.7175C262.326 79.1459 262.673 79.4931 263.102 79.4931Z" fill="white"/>
<path d="M263.102 79.2348C263.388 79.2348 263.619 79.0033 263.619 78.7178C263.619 78.4322 263.388 78.2007 263.102 78.2007C262.816 78.2007 262.585 78.4322 262.585 78.7178C262.585 79.0033 262.816 79.2348 263.102 79.2348Z" stroke="#08477D"/>
<path d="M268.273 83.6303C268.701 83.6303 269.048 83.2831 269.048 82.8547C269.048 82.4264 268.701 82.0791 268.273 82.0791C267.844 82.0791 267.497 82.4264 267.497 82.8547C267.497 83.2831 267.844 83.6303 268.273 83.6303Z" fill="white"/>
<path d="M268.273 83.3711C268.559 83.3711 268.79 83.1396 268.79 82.854C268.79 82.5684 268.559 82.3369 268.273 82.3369C267.987 82.3369 267.756 82.5684 267.756 82.854C267.756 83.1396 267.987 83.3711 268.273 83.3711Z" stroke="#08477D"/>
<path d="M270.341 81.0444C270.769 81.0444 271.117 80.6971 271.117 80.2688C271.117 79.8404 270.769 79.4932 270.341 79.4932C269.913 79.4932 269.565 79.8404 269.565 80.2688C269.565 80.6971 269.913 81.0444 270.341 81.0444Z" fill="white"/>
<path d="M270.341 80.7861C270.627 80.7861 270.858 80.5546 270.858 80.269C270.858 79.9835 270.627 79.752 270.341 79.752C270.056 79.752 269.824 79.9835 269.824 80.269C269.824 80.5546 270.056 80.7861 270.341 80.7861Z" stroke="#08477D"/>
<path d="M266.721 80.0107C267.149 80.0107 267.497 79.6634 267.497 79.2351C267.497 78.8067 267.149 78.4595 266.721 78.4595C266.293 78.4595 265.945 78.8067 265.945 79.2351C265.945 79.6634 266.293 80.0107 266.721 80.0107Z" fill="white"/>
<path d="M266.721 79.7514C267.007 79.7514 267.238 79.5199 267.238 79.2344C267.238 78.9488 267.007 78.7173 266.721 78.7173C266.436 78.7173 266.204 78.9488 266.204 79.2344C266.204 79.5199 266.436 79.7514 266.721 79.7514Z" stroke="#FFB635"/>
<path d="M269.307 77.4248C269.735 77.4248 270.082 77.0775 270.082 76.6491C270.082 76.2208 269.735 75.8735 269.307 75.8735C268.879 75.8735 268.531 76.2208 268.531 76.6491C268.531 77.0775 268.879 77.4248 269.307 77.4248Z" fill="white"/>
<path d="M269.307 77.1665C269.593 77.1665 269.824 76.935 269.824 76.6494C269.824 76.3638 269.593 76.1323 269.307 76.1323C269.022 76.1323 268.79 76.3638 268.79 76.6494C268.79 76.935 269.022 77.1665 269.307 77.1665Z" stroke="#08477D"/>
<path d="M266.474 79.7554L265.835 80.5362L266.474 86.7488" stroke="#FFB635"/>
</g>
<defs>
<clipPath id="clip0_69_1130">
<rect width="318" height="114" fill="white"/>
</clipPath>
</defs>
</svg>
