<svg width="464" height="420" viewBox="0 0 464 420" fill="none" xmlns="http://www.w3.org/2000/svg">
<path d="M160.463 218.42C160.449 218.302 160.435 218.183 160.419 218.064C160.41 217.994 160.399 217.924 160.389 217.854C160.379 217.784 160.369 217.715 160.358 217.646C160.34 217.528 160.319 217.409 160.298 217.292L160.288 217.229C160.282 217.197 160.277 217.165 160.271 217.129C160.216 216.834 160.154 216.542 160.085 216.253C160.06 216.147 160.033 216.041 160.005 215.935L164.673 212.908L163.187 209.457L157.781 210.766C157.547 210.395 157.299 210.031 157.038 209.675L157.001 209.624C156.929 209.524 156.858 209.432 156.784 209.337L156.654 209.172C156.611 209.116 156.567 209.061 156.522 209.006C156.447 208.912 156.37 208.82 156.293 208.728L156.253 208.68C155.968 208.343 155.671 208.018 155.364 207.705L157.893 202.75L154.881 200.504L150.853 204.341C150.465 204.136 150.069 203.944 149.665 203.767L149.607 203.742C149.497 203.694 149.386 203.642 149.275 203.601L149.08 203.523L148.88 203.445C148.767 203.402 148.655 203.361 148.542 203.32L148.483 203.298C148.067 203.149 147.648 203.015 147.226 202.898L146.938 197.342L143.206 196.903L141.637 202.24C141.198 202.256 140.759 202.289 140.32 202.34L140.259 202.347L139.971 202.381L139.901 202.391L139.691 202.421L139.483 202.452C139.365 202.471 139.247 202.491 139.129 202.512L139.078 202.52H139.066C138.632 202.599 138.202 202.693 137.777 202.802L134.75 198.135L131.299 199.62L132.608 205.027C132.516 205.085 132.423 205.143 132.332 205.203C132.083 205.366 131.838 205.535 131.595 205.711L131.517 205.769L131.507 205.776L131.466 205.807C131.366 205.878 131.274 205.95 131.179 206.023L131.014 206.153C130.958 206.197 130.903 206.24 130.848 206.285L130.793 206.329C130.718 206.39 130.644 206.452 130.571 206.514L130.522 206.554C130.185 206.84 129.86 207.136 129.547 207.443L124.592 204.915L122.346 207.927L126.183 211.955C125.978 212.342 125.786 212.737 125.609 213.142L125.583 213.203C125.536 213.312 125.489 213.421 125.444 213.532C125.416 213.597 125.39 213.663 125.364 213.732C125.338 213.801 125.312 213.86 125.287 213.925C125.244 214.038 125.202 214.151 125.161 214.265L125.14 214.322C124.991 214.738 124.857 215.157 124.74 215.58L119.184 215.868L118.745 219.599L124.082 221.169C124.098 221.607 124.131 222.046 124.182 222.485L124.189 222.547C124.203 222.666 124.217 222.785 124.233 222.904L124.263 223.114C124.274 223.184 124.283 223.253 124.294 223.322C124.313 223.441 124.333 223.559 124.354 223.677L124.365 223.739C124.443 224.174 124.538 224.604 124.647 225.028L119.98 228.055L121.465 231.506L126.872 230.197C127.105 230.568 127.353 230.931 127.614 231.288L127.652 231.339C127.723 231.439 127.795 231.531 127.868 231.626C127.911 231.682 127.955 231.737 127.998 231.792C128.041 231.847 128.085 231.903 128.13 231.958C128.205 232.051 128.282 232.143 128.359 232.235L128.399 232.283C128.685 232.62 128.981 232.945 129.288 233.259L126.76 238.214L129.772 240.46L133.8 236.623C134.187 236.823 134.584 237.023 134.988 237.197L135.044 237.221C135.155 237.269 135.266 237.316 135.377 237.362C135.442 237.389 135.507 237.414 135.572 237.44C135.637 237.466 135.703 237.493 135.772 237.518C135.884 237.561 135.996 237.603 136.108 237.643L136.169 237.666C136.584 237.815 137.004 237.948 137.426 238.066L137.713 243.621L141.445 244.06L143.015 238.724C143.453 238.707 143.892 238.674 144.331 238.624L144.393 238.617C144.493 238.606 144.585 238.596 144.681 238.583L144.75 238.573L144.96 238.543L145.168 238.512C145.287 238.494 145.405 238.473 145.523 238.452L145.573 238.444H145.585C146.02 238.365 146.449 238.271 146.874 238.161L149.901 242.829L153.352 241.343L152.043 235.937C152.415 235.703 152.779 235.455 153.135 235.194L153.144 235.187L153.183 235.158C153.283 235.086 153.377 235.014 153.473 234.94L153.636 234.812C153.692 234.767 153.749 234.723 153.804 234.678L153.859 234.635L154.079 234.451L154.129 234.409C154.466 234.124 154.791 233.827 155.104 233.52L160.06 236.049L162.306 233.037L158.469 229.009C158.674 228.621 158.866 228.225 159.043 227.821L159.068 227.763C159.115 227.653 159.162 227.542 159.208 227.431L159.217 227.411L159.224 227.393C159.246 227.341 159.266 227.288 159.287 227.236C159.308 227.184 159.339 227.105 159.364 227.036C159.407 226.923 159.449 226.811 159.49 226.698L159.511 226.639C159.661 226.223 159.794 225.804 159.911 225.382L165.466 225.094L165.905 221.362L160.568 219.793C160.552 219.354 160.519 218.916 160.468 218.477L160.463 218.42ZM148.493 234.054C148.393 234.097 148.302 234.137 148.206 234.177C148.11 234.217 148.032 234.254 147.943 234.29L147.875 234.318C145.68 235.193 143.31 235.539 140.956 235.326L140.883 235.319C140.783 235.309 140.675 235.295 140.571 235.283C140.467 235.271 140.382 235.262 140.288 235.249L140.216 235.239C137.876 234.9 135.649 234.013 133.716 232.652L133.656 232.61C133.572 232.549 133.489 232.486 133.406 232.423C133.323 232.36 133.252 232.31 133.177 232.252L133.119 232.207C131.263 230.744 129.779 228.863 128.786 226.718L128.756 226.652C128.712 226.552 128.672 226.458 128.63 226.361C128.588 226.264 128.555 226.189 128.519 226.102L128.492 226.035C127.616 223.839 127.27 221.467 127.484 219.112L127.49 219.044C127.501 218.939 127.514 218.835 127.527 218.73C127.54 218.625 127.548 218.54 127.561 218.445L127.57 218.378C127.91 216.038 128.797 213.811 130.159 211.878L130.2 211.82C130.255 211.743 130.313 211.667 130.371 211.591C130.429 211.515 130.495 211.422 130.559 211.339L130.603 211.283C132.067 209.427 133.948 207.942 136.093 206.949L136.158 206.92C136.247 206.88 136.337 206.842 136.426 206.804C136.515 206.766 136.614 206.721 136.71 206.682L136.775 206.656C138.971 205.78 141.342 205.434 143.696 205.648L143.768 205.654C143.868 205.664 143.968 205.677 144.062 205.689C144.156 205.701 144.262 205.711 144.362 205.725L144.433 205.735C146.773 206.074 149 206.961 150.933 208.323L150.991 208.364C151.07 208.421 151.148 208.48 151.226 208.539C151.304 208.598 151.391 208.66 151.472 208.723L151.528 208.767C153.385 210.231 154.87 212.112 155.862 214.257L155.892 214.322C155.931 214.409 155.967 214.496 156.005 214.583C156.043 214.67 156.089 214.776 156.129 214.874L156.156 214.94C157.031 217.135 157.377 219.505 157.164 221.858L157.157 221.935C157.147 222.029 157.135 222.124 157.124 222.219C157.113 222.314 157.101 222.419 157.087 222.526L157.076 222.601C156.737 224.939 155.851 227.164 154.49 229.095L154.448 229.154C154.386 229.24 154.322 229.324 154.259 229.409C154.196 229.494 154.148 229.56 154.09 229.635L154.045 229.692C152.582 231.548 150.701 233.033 148.556 234.025L148.493 234.054Z" stroke="#F7FFFF" stroke-opacity="0.15" stroke-width="0.42" stroke-miterlimit="10"/>
<path d="M26.037 179.906C26.056 180.068 26.075 180.23 26.097 180.392C26.11 180.492 26.124 180.583 26.138 180.678C26.152 180.773 26.165 180.867 26.18 180.961C26.205 181.123 26.233 181.284 26.262 181.445C26.262 181.473 26.271 181.501 26.276 181.53C26.281 181.559 26.291 181.617 26.299 181.66C26.3736 182.06 26.458 182.458 26.552 182.853C26.587 182.998 26.624 183.142 26.661 183.286L20.301 187.411L22.325 192.111L29.693 190.327C30.0103 190.833 30.3473 191.329 30.704 191.814L30.755 191.883C30.855 192.014 30.95 192.145 31.05 192.274L31.227 192.5C31.287 192.575 31.346 192.651 31.407 192.726C31.507 192.854 31.614 192.979 31.719 193.104L31.774 193.169C32.1626 193.629 32.5663 194.072 32.985 194.498L29.54 201.251L33.64 204.312L39.129 199.083C39.657 199.362 40.1966 199.622 40.748 199.865L40.827 199.899C40.977 199.966 41.1273 200.029 41.278 200.09C41.367 200.127 41.456 200.162 41.545 200.198C41.634 200.234 41.723 200.269 41.813 200.303C41.965 200.362 42.118 200.419 42.272 200.474L42.353 200.504C42.919 200.704 43.49 200.886 44.066 201.049L44.458 208.62L49.543 209.22L51.682 201.948C52.282 201.925 52.88 201.88 53.476 201.815L53.56 201.805C53.691 201.79 53.8219 201.776 53.952 201.759L54.052 201.746C54.152 201.733 54.243 201.718 54.338 201.704L54.622 201.663C54.783 201.637 54.944 201.61 55.1049 201.581L55.173 201.569H55.19C55.782 201.462 56.3673 201.334 56.946 201.185L61.071 207.545L65.771 205.521L63.987 198.153C64.113 198.074 64.239 197.995 64.364 197.913C64.7033 197.691 65.0366 197.46 65.364 197.221L65.47 197.142L65.484 197.132L65.539 197.09C65.6723 196.993 65.803 196.895 65.931 196.795L66.156 196.618L66.383 196.438L66.457 196.379C66.557 196.296 66.657 196.211 66.757 196.127L66.823 196.072C67.2816 195.683 67.7246 195.279 68.152 194.86L74.904 198.306L77.965 194.206L72.736 188.717C73.0146 188.189 73.2753 187.649 73.518 187.098C73.53 187.071 73.541 187.043 73.553 187.016C73.6196 186.867 73.6833 186.717 73.744 186.568C73.781 186.478 73.816 186.388 73.852 186.298C73.888 186.208 73.922 186.122 73.952 186.034C74.0106 185.88 74.068 185.726 74.124 185.571C74.134 185.545 74.144 185.519 74.153 185.493C74.353 184.927 74.5346 184.356 74.698 183.779L82.269 183.387L82.869 178.302L75.596 176.163C75.574 175.563 75.5296 174.965 75.463 174.369L75.454 174.285C75.435 174.123 75.416 173.961 75.394 173.798C75.381 173.698 75.367 173.608 75.353 173.512C75.339 173.416 75.326 173.323 75.311 173.229C75.285 173.067 75.258 172.906 75.229 172.746C75.229 172.717 75.22 172.689 75.215 172.661C75.107 172.068 74.9786 171.483 74.83 170.904L81.19 166.779L79.166 162.079L71.798 163.863C71.48 163.357 71.143 162.861 70.787 162.376L70.735 162.307C70.635 162.176 70.54 162.045 70.441 161.916C70.382 161.84 70.323 161.766 70.264 161.691C70.205 161.616 70.145 161.539 70.084 161.464C69.9813 161.337 69.8773 161.211 69.772 161.086L69.717 161.021C69.3283 160.561 68.9243 160.118 68.505 159.692L71.951 152.939L67.851 149.879L62.373 155.098C61.845 154.819 61.305 154.559 60.753 154.316L60.677 154.283C60.526 154.218 60.377 154.153 60.223 154.09L59.958 153.984L59.689 153.878C59.537 153.819 59.384 153.763 59.231 153.707L59.149 153.677C58.5823 153.477 58.0113 153.295 57.436 153.132L57.044 145.561L51.959 144.961L49.819 152.234C49.219 152.256 48.6213 152.3 48.026 152.366L47.941 152.376C47.81 152.391 47.68 152.405 47.549 152.422L47.455 152.436L47.168 152.477C47.074 152.491 46.979 152.504 46.885 152.519C46.723 152.544 46.562 152.572 46.402 152.6L46.334 152.612H46.317C45.725 152.719 45.1396 152.847 44.561 152.996L40.436 146.636L35.736 148.66L37.519 156.028C37.013 156.346 36.5173 156.683 36.032 157.04L36.019 157.049L35.966 157.089C35.834 157.189 35.702 157.289 35.572 157.389C35.497 157.447 35.423 157.506 35.35 157.564L35.12 157.746L35.045 157.805C34.945 157.888 34.845 157.972 34.745 158.056L34.677 158.113C34.217 158.502 33.774 158.906 33.348 159.324L26.596 155.878L23.535 159.978L28.764 165.467C28.484 165.995 28.2233 166.535 27.982 167.086C27.97 167.112 27.959 167.139 27.948 167.165C27.883 167.315 27.818 167.465 27.756 167.616L27.744 167.644L27.734 167.669C27.705 167.74 27.677 167.812 27.649 167.883L27.543 168.15C27.484 168.303 27.428 168.456 27.372 168.61L27.343 168.69C27.139 169.257 26.957 169.829 26.797 170.404L19.227 170.796L18.627 175.881L25.9 178.02C25.922 178.62 25.966 179.218 26.032 179.813C26.031 179.849 26.034 179.878 26.037 179.906ZM42.349 158.606C42.478 158.548 42.609 158.493 42.739 158.437C42.869 158.381 42.977 158.337 43.098 158.284L43.191 158.247C46.182 157.053 49.4126 156.583 52.62 156.873L52.72 156.882C52.862 156.896 53.004 156.914 53.145 156.931C53.2859 156.948 53.402 156.96 53.53 156.977L53.63 156.991C56.817 157.454 59.8501 158.661 62.483 160.516L62.564 160.574C62.679 160.657 62.792 160.743 62.905 160.828C63.018 160.913 63.115 160.982 63.218 161.061L63.296 161.123C65.8235 163.117 67.8449 165.68 69.196 168.602L69.237 168.692C69.297 168.823 69.352 168.957 69.409 169.092C69.466 169.227 69.509 169.326 69.56 169.445L69.597 169.537C70.7907 172.529 71.2612 175.761 70.97 178.97L70.962 179.062C70.948 179.206 70.929 179.348 70.912 179.491C70.895 179.634 70.884 179.75 70.866 179.879L70.853 179.97C70.3909 183.16 69.1821 186.196 67.325 188.831L67.27 188.909C67.194 189.015 67.115 189.118 67.037 189.222C66.959 189.326 66.868 189.452 66.78 189.566L66.721 189.641C64.7263 192.171 62.1624 194.195 59.238 195.547L59.151 195.587C59.03 195.642 58.907 195.693 58.785 195.745C58.6629 195.797 58.528 195.858 58.399 195.911L58.31 195.947C55.3177 197.14 52.0862 197.611 48.878 197.32L48.778 197.311C48.644 197.298 48.511 197.281 48.378 197.265C48.245 197.249 48.103 197.234 47.966 197.216L47.866 197.202C44.6807 196.738 41.6499 195.528 39.02 193.672L38.941 193.616C38.832 193.539 38.727 193.458 38.62 193.378C38.513 193.298 38.395 193.213 38.285 193.127L38.208 193.067C35.6803 191.072 33.6589 188.508 32.308 185.585C32.294 185.556 32.281 185.527 32.267 185.497C32.214 185.379 32.167 185.26 32.113 185.141C32.059 185.022 31.998 184.878 31.944 184.741C31.931 184.711 31.92 184.681 31.908 184.651C30.7143 181.66 30.2435 178.43 30.534 175.223C30.534 175.189 30.54 175.154 30.544 175.123C30.556 174.993 30.573 174.864 30.589 174.735C30.605 174.606 30.62 174.456 30.639 174.317L30.653 174.217C31.1161 171.031 32.3238 168 34.178 165.368L34.235 165.287C34.319 165.17 34.406 165.056 34.493 164.94C34.58 164.824 34.644 164.734 34.723 164.633C34.743 164.607 34.764 164.581 34.784 164.554C36.7785 162.026 39.3413 160.005 42.264 158.654L42.349 158.606Z" fill="#FFB635" fill-opacity="0.6"/>
<path d="M217.565 272.6L217.608 272.576M222.635 264.573L222.641 264.497M222.645 263.209L222.639 263.133M217.62 255.076L217.664 255.101M207.556 255.045L207.514 255.07M207.501 272.569L207.458 272.544M186.039 269.96C186.079 270.134 186.12 270.307 186.164 270.48C186.19 270.58 186.218 270.68 186.245 270.787C186.272 270.894 186.298 270.987 186.326 271.087C186.373 271.26 186.426 271.432 186.474 271.603L186.501 271.693C186.515 271.739 186.528 271.786 186.542 271.832C186.721 272.415 186.921 272.989 187.142 273.555L180.742 278.832L183.528 283.693L191.317 280.837C191.725 281.347 192.154 281.844 192.602 282.327C192.623 282.351 192.645 282.373 192.667 282.397C192.789 282.527 192.911 282.657 193.036 282.785C193.109 282.86 193.183 282.934 193.257 283.008C193.331 283.082 193.405 283.158 193.48 283.232C193.608 283.358 193.737 283.481 193.867 283.604L193.934 283.668C194.414 284.119 194.908 284.551 195.417 284.962L192.511 292.733L197.355 295.55L202.672 289.182C203.03 289.322 203.391 289.455 203.756 289.582C204.012 289.67 204.27 289.752 204.529 289.832L204.623 289.861C204.793 289.912 204.963 289.961 205.134 290.012C205.234 290.041 205.334 290.068 205.434 290.095L205.734 290.177C205.908 290.222 206.082 290.264 206.257 290.306L206.345 290.327C206.987 290.478 207.631 290.605 208.277 290.707L209.646 298.89L215.246 298.908L216.667 290.734C217.313 290.635 217.957 290.513 218.601 290.366L218.691 290.345C218.831 290.313 218.972 290.281 219.112 290.245L219.212 290.218C219.312 290.193 219.412 290.165 219.518 290.138C219.624 290.111 219.718 290.085 219.818 290.057C219.991 290.01 220.162 289.957 220.333 289.909C220.357 289.901 220.382 289.895 220.406 289.888L220.424 289.882C221.054 289.692 221.674 289.48 222.286 289.245L227.563 295.645L232.424 292.859L229.573 285.072C230.084 284.663 230.581 284.235 231.064 283.787L231.078 283.775L231.133 283.722C231.263 283.601 231.393 283.478 231.521 283.353C231.597 283.28 231.67 283.206 231.745 283.133C231.82 283.06 231.895 282.984 231.969 282.909L232.043 282.835C232.143 282.735 232.243 282.627 232.343 282.522C232.364 282.5 232.386 282.478 232.407 282.455C232.857 281.975 233.289 281.481 233.701 280.972L241.472 283.878L244.289 279.034L237.921 273.717C238.157 273.108 238.373 272.489 238.569 271.859C238.579 271.829 238.587 271.799 238.596 271.769C238.648 271.598 238.696 271.427 238.748 271.255C238.777 271.155 238.804 271.055 238.832 270.949C238.854 270.869 238.877 270.789 238.898 270.708L238.905 270.679L238.913 270.647C238.957 270.474 239 270.3 239.042 270.126C239.049 270.096 239.057 270.065 239.064 270.035C239.215 269.393 239.342 268.749 239.444 268.104L247.626 266.735L247.644 261.135L239.47 259.715C239.372 259.069 239.249 258.425 239.103 257.782C239.096 257.75 239.088 257.72 239.081 257.688C239.041 257.515 239 257.342 238.956 257.17C238.93 257.07 238.902 256.963 238.875 256.86C238.848 256.757 238.823 256.66 238.795 256.56C238.747 256.387 238.697 256.214 238.645 256.042C238.637 256.013 238.629 255.984 238.62 255.955C238.429 255.324 238.217 254.703 237.983 254.092L244.383 248.815L241.597 243.954L233.807 246.81C233.399 246.3 232.97 245.803 232.522 245.319L232.461 245.254C232.337 245.121 232.213 244.99 232.088 244.862C232.016 244.788 231.943 244.715 231.871 244.642L231.644 244.415C231.517 244.29 231.389 244.168 231.261 244.046L231.19 243.979C230.71 243.528 230.216 243.097 229.708 242.685L232.614 234.914L227.77 232.097L222.453 238.465C221.843 238.227 221.223 238.011 220.594 237.816L220.507 237.79C220.335 237.738 220.163 237.69 219.99 237.637L219.69 237.555L219.384 237.472C219.212 237.428 219.039 237.386 218.866 237.344L218.772 237.322C218.131 237.171 217.487 237.044 216.841 236.942L215.473 228.759L209.873 228.742L208.453 236.916C207.805 237.014 207.161 237.136 206.519 237.283L206.428 237.304C206.288 237.337 206.148 237.368 206.008 237.404L205.908 237.431L205.601 237.511C205.501 237.538 205.401 237.564 205.301 237.592C205.127 237.64 204.955 237.69 204.785 237.741L204.712 237.762L204.695 237.767C204.064 237.958 203.443 238.171 202.833 238.404L197.556 232.004L192.694 234.79L195.551 242.579C195.039 242.988 194.542 243.416 194.06 243.865L194.047 243.877L193.994 243.926C193.86 244.049 193.73 244.174 193.602 244.299C193.528 244.371 193.456 244.444 193.382 244.516C193.308 244.588 193.23 244.666 193.155 244.743L193.082 244.816C192.982 244.916 192.882 245.023 192.782 245.127L192.715 245.197C192.264 245.677 191.833 246.171 191.421 246.679L183.65 243.773L180.833 248.617L187.202 253.934C186.964 254.543 186.747 255.162 186.553 255.793C186.544 255.822 186.536 255.851 186.527 255.88C186.474 256.052 186.423 256.224 186.374 256.397C186.345 256.497 186.319 256.597 186.291 256.697C186.263 256.797 186.236 256.897 186.209 257.003C186.164 257.175 186.122 257.348 186.081 257.52C186.074 257.552 186.066 257.583 186.058 257.62C186.047 257.667 186.035 257.714 186.024 257.76C185.89 258.355 185.775 258.952 185.679 259.55L177.496 260.919L177.478 266.519L185.652 267.939C185.751 268.586 185.873 269.231 186.019 269.873C186.024 269.898 186.032 269.929 186.039 269.96ZM213.044 286.044H212.937C212.792 286.044 212.648 286.044 212.503 286.044C212.358 286.044 212.196 286.044 212.042 286.044H211.936C208.675 285.945 205.476 285.136 202.562 283.672L208.678 273.156C211.142 274.181 213.912 274.19 216.384 273.18L222.434 283.735C219.509 285.179 216.304 285.967 213.044 286.044ZM212.584 256.537C214.025 256.541 215.432 256.973 216.628 257.778C217.823 258.582 218.753 259.723 219.301 261.056C219.848 262.389 219.988 263.854 219.702 265.267C219.416 266.679 218.718 267.975 217.696 268.991C216.674 270.007 215.374 270.697 213.959 270.973C212.545 271.25 211.081 271.101 209.751 270.545C208.421 269.99 207.286 269.052 206.49 267.852C205.693 266.651 205.27 265.241 205.275 263.8C205.283 261.868 206.057 260.019 207.427 258.657C208.797 257.295 210.652 256.533 212.584 256.537ZM232.045 274.515L231.995 274.607C231.926 274.731 231.853 274.853 231.781 274.976C231.709 275.099 231.626 275.247 231.544 275.376C231.526 275.406 231.508 275.436 231.489 275.466C229.773 278.24 227.473 280.605 224.749 282.398L218.698 271.841C220.818 270.221 222.211 267.826 222.571 265.182L234.739 265.221C234.529 268.479 233.609 271.652 232.045 274.517V274.515ZM224.866 245.317C227.58 247.126 229.867 249.506 231.566 252.29L231.622 252.383C231.702 252.516 231.777 252.652 231.854 252.783C231.931 252.914 231.997 253.028 232.066 253.153L232.118 253.253C233.661 256.124 234.56 259.298 234.751 262.553L222.583 262.515C222.24 259.868 220.862 257.465 218.752 255.831L224.866 245.317ZM202.688 243.912C205.611 242.467 208.815 241.678 212.075 241.6H212.183C212.34 241.6 212.496 241.6 212.653 241.6C212.794 241.6 212.935 241.6 213.077 241.6H213.185C216.445 241.698 219.644 242.508 222.56 243.971L216.443 254.487C213.977 253.462 211.207 253.453 208.736 254.463L202.688 243.912ZM193.074 253.135L193.126 253.035C193.203 252.897 193.284 252.762 193.363 252.626C193.442 252.49 193.502 252.383 193.575 252.263L193.632 252.17C195.347 249.397 197.648 247.032 200.373 245.241L206.424 255.798C204.303 257.418 202.91 259.812 202.551 262.457L190.382 262.419C190.592 259.165 191.511 255.996 193.073 253.134L193.074 253.135ZM202.481 263.148L202.487 263.071C202.485 263.096 202.482 263.122 202.481 263.147V263.148ZM193.058 274.484C193.041 274.454 193.024 274.423 193.008 274.392C191.463 271.521 190.564 268.347 190.374 265.092L202.542 265.131C202.886 267.776 204.263 270.177 206.373 271.809L200.255 282.328C197.54 280.518 195.254 278.137 193.555 275.352C193.537 275.321 193.518 275.291 193.5 275.261C193.427 275.138 193.357 275.013 193.286 274.889C193.215 274.765 193.133 274.62 193.058 274.483V274.484ZM202.477 264.436C202.477 264.462 202.477 264.487 202.477 264.513C202.48 264.486 202.473 264.461 202.473 264.435L202.477 264.436Z" stroke="#F7FFFF" stroke-opacity="0.15" stroke-width="0.84" stroke-linecap="round" stroke-linejoin="round"/>
<path d="M204.68 373.6L204.744 373.548M199.999 344.626L200.077 344.656M183.354 347.314L183.29 347.366M188.033 376.288L187.956 376.258M151.856 377.821C151.97 378.097 152.085 378.372 152.205 378.647C152.275 378.809 152.349 378.97 152.421 379.131C152.493 379.292 152.563 379.451 152.637 379.61C152.763 379.882 152.891 380.152 153.023 380.421L153.092 380.563C153.127 380.635 153.161 380.709 153.197 380.782C153.653 381.697 154.137 382.592 154.651 383.467L145.507 393.931L151.436 401.207L163.536 394.365C164.35 395.098 165.193 395.803 166.065 396.479L166.191 396.579C166.427 396.761 166.666 396.941 166.906 397.12C167.048 397.22 167.19 397.326 167.333 397.429C167.476 397.532 167.618 397.636 167.762 397.737C168.007 397.91 168.255 398.08 168.503 398.248C168.546 398.276 168.588 398.306 168.631 398.335C169.548 398.949 170.481 399.527 171.431 400.07L168.745 413.705L177.517 417.042L184.571 405.068C185.201 405.202 185.833 405.325 186.471 405.432C186.918 405.507 187.371 405.572 187.817 405.632L187.979 405.653C188.274 405.693 188.569 405.73 188.866 405.764C189.041 405.784 189.217 405.801 189.392 405.819C189.567 405.837 189.74 405.855 189.915 405.871C190.215 405.898 190.515 405.921 190.815 405.942L190.967 405.954C192.067 406.028 193.167 406.061 194.267 406.054L198.757 419.205L208.023 417.705L208.145 403.805C209.187 403.466 210.22 403.088 211.245 402.671L211.388 402.611C211.611 402.519 211.834 402.429 212.056 402.333L212.217 402.262C212.379 402.191 212.54 402.118 212.701 402.046C212.862 401.974 213.021 401.903 213.18 401.829C213.452 401.704 213.721 401.574 213.99 401.443L214.105 401.389L214.133 401.375C215.123 400.889 216.089 400.369 217.033 399.815L227.497 408.959L234.773 403.03L227.931 390.93C228.664 390.116 229.369 389.273 230.045 388.401L230.064 388.377L230.141 388.277C230.323 388.04 230.503 387.802 230.682 387.561C230.782 387.42 230.889 387.278 230.991 387.136C231.093 386.994 231.199 386.85 231.3 386.705C231.334 386.658 231.369 386.611 231.4 386.563C231.538 386.363 231.672 386.163 231.807 385.963L231.895 385.834C232.509 384.918 233.087 383.985 233.63 383.034L247.264 385.721L250.601 376.948L238.628 369.895C238.854 368.823 239.043 367.74 239.194 366.647L239.215 366.49C239.254 366.19 239.292 365.898 239.326 365.6C239.346 365.424 239.363 365.248 239.381 365.072C239.395 364.933 239.412 364.794 239.424 364.655V364.605L239.429 364.551C239.456 364.251 239.479 363.951 239.5 363.651L239.512 363.493C239.586 362.393 239.619 361.295 239.612 360.199L252.763 355.708L251.263 346.443L237.363 346.321C237.023 345.279 236.645 344.246 236.229 343.221C236.209 343.171 236.188 343.121 236.168 343.072C236.054 342.797 235.939 342.522 235.82 342.249C235.749 342.085 235.675 341.923 235.602 341.76C235.529 341.597 235.461 341.443 235.388 341.286C235.261 341.012 235.131 340.741 234.999 340.47C234.977 340.424 234.956 340.379 234.933 340.333C234.447 339.342 233.927 338.376 233.373 337.433L242.517 326.969L236.588 319.692L224.488 326.535C223.672 325.802 222.829 325.097 221.958 324.42L221.838 324.329C221.599 324.145 221.358 323.963 221.116 323.782C220.977 323.682 220.837 323.582 220.697 323.482C220.557 323.382 220.407 323.272 220.26 323.168C220.017 322.997 219.772 322.83 219.527 322.668L219.391 322.575C218.475 321.961 217.541 321.383 216.591 320.84L219.278 307.206L210.505 303.869L203.451 315.842C202.38 315.615 201.297 315.427 200.203 315.276L200.052 315.257C199.752 315.217 199.452 315.179 199.152 315.145C198.978 315.125 198.804 315.108 198.631 315.09C198.458 315.072 198.279 315.054 198.103 315.038C197.803 315.011 197.503 314.988 197.211 314.967L197.05 314.955C195.948 314.881 194.85 314.848 193.756 314.855L189.265 301.704L180 303.204L179.877 317.104C178.835 317.443 177.802 317.821 176.777 318.238C176.728 318.257 176.677 318.278 176.632 318.298C176.409 318.39 176.186 318.48 175.965 318.576L175.805 318.647C175.642 318.718 175.482 318.791 175.32 318.863C175.158 318.935 175.001 319.006 174.842 319.079C174.57 319.205 174.3 319.335 174.031 319.465L173.916 319.52L173.889 319.534C172.898 320.02 171.931 320.54 170.989 321.093L160.525 311.949L153.248 317.878L160.091 329.978C159.357 330.792 158.652 331.635 157.976 332.508L157.958 332.531L157.884 332.631C157.7 332.87 157.518 333.11 157.338 333.353C157.238 333.492 157.138 333.632 157.038 333.772C156.938 333.912 156.827 334.062 156.724 334.209C156.691 334.256 156.656 334.302 156.624 334.35C156.486 334.55 156.354 334.745 156.224 334.943C156.193 334.988 156.162 335.032 156.132 335.078C155.518 335.994 154.939 336.927 154.397 337.878L140.773 335.183L137.436 343.955L149.409 351.009C149.182 352.081 148.993 353.164 148.843 354.257C148.836 354.308 148.83 354.357 148.823 354.409C148.784 354.709 148.746 355.009 148.712 355.309C148.692 355.483 148.675 355.657 148.657 355.831C148.639 356.005 148.62 356.182 148.605 356.358C148.578 356.658 148.555 356.952 148.534 357.248C148.534 357.303 148.525 357.357 148.522 357.411C148.516 357.492 148.509 357.572 148.504 357.652C148.44 358.672 148.413 359.69 148.421 360.705L135.269 365.195L136.769 374.461L150.669 374.583C151.008 375.624 151.386 376.658 151.802 377.683L151.856 377.821ZM200.867 397.05L200.691 397.083C200.452 397.126 200.213 397.161 199.973 397.2C199.733 397.239 199.466 397.285 199.211 397.322L199.034 397.346C193.619 398.071 188.112 397.604 182.897 395.98L190.141 376.934C194.493 377.956 199.074 377.217 202.884 374.876L215.756 390.672C211.316 393.856 206.235 396.033 200.867 397.05ZM192.073 348.409C194.454 348.025 196.897 348.355 199.091 349.359C201.285 350.363 203.132 351.994 204.399 354.048C205.666 356.101 206.295 358.484 206.208 360.895C206.12 363.306 205.32 365.637 203.908 367.593C202.496 369.55 200.536 371.043 198.275 371.886C196.014 372.728 193.555 372.881 191.207 372.326C188.859 371.77 186.728 370.531 185.085 368.765C183.441 366.999 182.358 364.785 181.973 362.403C181.46 359.209 182.236 355.941 184.129 353.318C186.023 350.694 188.879 348.929 192.073 348.409ZM229.133 372.825C229.113 372.88 229.094 372.935 229.075 372.99C228.994 373.215 228.906 373.436 228.821 373.659C228.729 373.904 228.639 374.15 228.541 374.394L228.474 374.556C226.394 379.608 223.236 384.144 219.222 387.849L206.347 372.049C209.41 368.794 211.06 364.458 210.934 359.989L231.055 356.739C231.592 362.177 230.937 367.667 229.133 372.825ZM210.873 358.957C210.873 358.914 210.866 358.872 210.862 358.829C210.865 358.872 210.868 358.914 210.873 358.957ZM209.317 326.523C214.293 328.775 218.717 332.085 222.282 336.223L222.4 336.361C222.568 336.561 222.73 336.761 222.894 336.961C223.044 337.145 223.194 337.328 223.345 337.516C223.383 337.564 223.42 337.616 223.457 337.661C226.791 341.988 229.141 346.991 230.343 352.32L210.221 355.572C208.932 351.293 206.001 347.697 202.07 345.572L209.317 326.523ZM210.517 356.699C210.508 356.658 210.497 356.617 210.487 356.576L210.517 356.699ZM172.28 330.241C176.718 327.058 181.798 324.882 187.165 323.865L187.343 323.831C187.601 323.785 187.86 323.746 188.118 323.705C188.352 323.667 188.585 323.626 188.818 323.593L188.997 323.568C194.412 322.844 199.92 323.31 205.137 324.934L197.892 343.98C193.538 342.958 188.958 343.698 185.148 346.038L172.28 330.241ZM158.898 348.097L158.958 347.925C159.048 347.676 159.145 347.431 159.239 347.184C159.322 346.965 159.403 346.745 159.49 346.527L159.559 346.358C161.639 341.306 164.797 336.769 168.812 333.064L181.687 348.864C178.622 352.119 176.973 356.456 177.099 360.924L156.978 364.174C156.441 358.739 157.098 353.252 158.901 348.097H158.898ZM177.171 362.088C177.171 362.045 177.164 362.002 177.161 361.959C177.167 361.999 177.173 362.042 177.173 362.085L177.171 362.088ZM164.685 383.388C164.648 383.342 164.613 383.295 164.577 383.249C161.241 378.922 158.891 373.919 157.691 368.589L177.812 365.339C179.099 369.619 182.03 373.215 185.963 375.339L178.716 394.389C173.738 392.136 169.312 388.824 165.748 384.683L165.632 384.548C165.477 384.365 165.332 384.178 165.178 383.992C165.016 383.791 164.849 383.591 164.688 383.386L164.685 383.388ZM177.515 364.216C177.525 364.258 177.536 364.3 177.546 364.342C177.539 364.298 177.528 364.256 177.518 364.214L177.515 364.216Z" stroke="#F7FFFF" stroke-opacity="0.15" stroke-width="0.84" stroke-linecap="round" stroke-linejoin="round"/>
<mask id="mask0_69_510" style="mask-type:luminance" maskUnits="userSpaceOnUse" x="-35" y="215" width="182" height="183">
<path d="M125.823 297.846C125.763 297.389 125.701 296.932 125.632 296.475C125.591 296.205 125.546 295.936 125.503 295.666C125.46 295.396 125.418 295.133 125.371 294.866C125.292 294.409 125.206 293.955 125.118 293.501C125.103 293.422 125.089 293.342 125.073 293.262C125.049 293.139 125.027 293.016 125.003 292.893C124.773 291.76 124.516 290.638 124.232 289.527C124.127 289.119 124.016 288.713 123.904 288.308L141.719 276.343L135.776 263.123L115.002 268.507C114.08 267.09 113.103 265.703 112.072 264.345C112.023 264.28 111.972 264.216 111.923 264.151C111.642 263.785 111.358 263.421 111.071 263.058C110.902 262.846 110.73 262.637 110.559 262.428C110.388 262.219 110.216 262.004 110.04 261.795C109.743 261.439 109.443 261.087 109.14 260.739C109.088 260.678 109.04 260.617 108.984 260.557C107.862 259.274 106.699 258.039 105.494 256.85L114.94 237.58L103.183 229.104L87.883 244.153C86.3757 243.387 84.8363 242.674 83.265 242.014C83.19 241.982 83.114 241.952 83.039 241.921C82.612 241.744 82.184 241.568 81.753 241.399C81.501 241.299 81.247 241.205 80.993 241.109C80.739 241.013 80.487 240.915 80.232 240.822C79.797 240.662 79.361 240.509 78.924 240.358L78.694 240.278C77.0813 239.728 75.4563 239.24 73.819 238.813L72.363 217.403L57.943 215.94L52.219 236.623C50.5303 236.713 48.84 236.865 47.148 237.08L46.911 237.111C46.541 237.16 46.172 237.211 45.803 237.26C45.714 237.273 45.624 237.29 45.535 237.303C45.265 237.343 44.996 237.388 44.727 237.432C44.458 237.476 44.193 237.517 43.927 237.564C43.471 237.643 43.017 237.728 42.564 237.816C42.5 237.829 42.435 237.839 42.371 237.852L42.324 237.862C40.652 238.192 39.0007 238.581 37.37 239.03L25.404 221.215L12.184 227.159L17.568 247.933C17.215 248.162 16.868 248.391 16.514 248.633C15.5627 249.276 14.6257 249.945 13.703 250.638C13.603 250.714 13.503 250.792 13.403 250.868L13.364 250.896C13.312 250.936 13.264 250.977 13.21 251.016C12.843 251.297 12.477 251.58 12.11 251.869C11.899 252.038 11.691 252.209 11.481 252.38C11.271 252.551 11.057 252.724 10.848 252.899C10.778 252.957 10.707 253.013 10.638 253.071C10.353 253.311 10.074 253.556 9.793 253.8L9.61 253.958C8.32734 255.08 7.09167 256.243 5.903 257.448L-13.366 248.002L-21.843 259.759L-6.794 275.059C-7.55467 276.561 -8.26567 278.099 -8.927 279.672C-8.959 279.75 -8.99 279.828 -9.027 279.906C-9.203 280.33 -9.377 280.755 -9.545 281.184C-9.645 281.439 -9.745 281.696 -9.839 281.952C-9.933 282.208 -10.03 282.452 -10.123 282.705C-10.283 283.143 -10.4383 283.582 -10.589 284.021C-10.614 284.096 -10.641 284.169 -10.666 284.243C-11.216 285.857 -11.7047 287.483 -12.132 289.12L-33.537 290.572L-35 304.992L-14.317 310.717C-14.227 312.406 -14.0747 314.096 -13.86 315.787C-13.85 315.867 -13.839 315.946 -13.829 316.025C-13.769 316.484 -13.706 316.942 -13.637 317.4C-13.597 317.671 -13.552 317.939 -13.508 318.209C-13.464 318.479 -13.423 318.743 -13.376 319.009C-13.297 319.465 -13.212 319.918 -13.124 320.372C-13.108 320.452 -13.094 320.532 -13.078 320.612C-12.748 322.283 -12.3587 323.934 -11.91 325.566L-29.727 337.531L-23.783 350.751L-3.008 345.372C-2.08733 346.785 -1.11033 348.171 -0.0769997 349.529C-0.0279999 349.594 0.0229988 349.658 0.0719986 349.722C0.352997 350.089 0.634998 350.454 0.924 350.816C1.093 351.028 1.264 351.236 1.435 351.446C1.606 351.656 1.779 351.87 1.954 352.079C2.25066 352.434 2.55067 352.785 2.854 353.134L3.012 353.317C4.134 354.6 5.29733 355.836 6.502 357.024L-2.943 376.293L8.814 384.772L24.114 369.722C25.622 370.489 27.162 371.203 28.734 371.863L28.952 371.952C29.381 372.131 29.812 372.307 30.246 372.477C30.497 372.577 30.746 372.67 31 372.766C31.254 372.862 31.509 372.96 31.766 373.054C32.1993 373.213 32.6327 373.367 33.066 373.516L33.301 373.598C34.9137 374.148 36.5383 374.636 38.175 375.063L39.631 396.472L54.051 397.934L59.773 377.252C61.461 377.161 63.151 377.008 64.843 376.795L65.083 376.763C65.452 376.715 65.82 376.669 66.189 376.614L66.456 376.572C66.727 376.531 66.996 376.486 67.266 376.443C67.536 376.4 67.799 376.358 68.066 376.311C68.522 376.232 68.977 376.146 69.43 376.058L69.623 376.023L69.67 376.013C71.3407 375.68 72.992 375.29 74.624 374.844L86.589 392.659L99.809 386.716L94.427 365.942C95.8437 365.019 97.2317 364.042 98.591 363.011L98.627 362.984L98.775 362.869C99.144 362.586 99.513 362.301 99.875 362.009C100.084 361.843 100.289 361.674 100.496 361.509C100.703 361.344 100.925 361.161 101.138 360.983C101.206 360.926 101.277 360.87 101.345 360.813C101.629 360.574 101.906 360.331 102.185 360.089C102.248 360.034 102.312 359.98 102.375 359.924C103.657 358.803 104.892 357.641 106.081 356.436L125.35 365.882L133.827 354.125L118.777 338.825C119.543 337.318 120.256 335.779 120.917 334.207C120.949 334.132 120.978 334.056 121.01 333.982C121.187 333.555 121.362 333.127 121.531 332.695C121.542 332.669 121.553 332.643 121.563 332.617C121.573 332.591 121.583 332.57 121.592 332.546C121.671 332.346 121.745 332.139 121.822 331.935C121.922 331.682 122.016 331.429 122.109 331.174C122.269 330.739 122.422 330.303 122.572 329.866L122.653 329.636C123.202 328.023 123.691 326.398 124.118 324.761L145.529 323.306L146.991 308.886L126.309 303.162C126.218 301.474 126.066 299.784 125.852 298.092C125.845 298.008 125.833 297.927 125.823 297.846ZM80.623 358.888C80.259 359.06 79.892 359.22 79.523 359.383C79.187 359.535 78.854 359.69 78.515 359.835L78.254 359.944C69.8416 363.458 60.7188 364.937 51.627 364.262L51.346 364.241C50.946 364.207 50.546 364.162 50.14 364.12C49.776 364.083 49.412 364.051 49.049 364.008L48.769 363.972C39.7266 362.809 31.0861 359.529 23.55 354.398L23.317 354.239C22.987 354.01 22.664 353.771 22.339 353.539C22.039 353.324 21.739 353.113 21.445 352.892L21.219 352.721C13.9721 347.19 8.13198 340.028 4.173 331.816C4.133 331.732 4.092 331.649 4.052 331.565C3.878 331.195 3.715 330.821 3.552 330.448C3.403 330.118 3.252 329.79 3.108 329.457C3.071 329.371 3.035 329.284 2.999 329.198C-0.51952 320.782 -2.00171 311.655 -1.327 302.558C-1.32 302.471 -1.314 302.385 -1.307 302.298C-1.273 301.891 -1.227 301.487 -1.185 301.082C-1.148 300.715 -1.116 300.347 -1.072 299.982C-1.062 299.896 -1.05 299.81 -1.04 299.724C0.122768 290.673 3.40617 282.024 8.543 274.482L8.696 274.258C8.906 273.958 9.125 273.658 9.34 273.358C9.576 273.029 9.809 272.698 10.052 272.374L10.217 272.157C15.7476 264.905 22.9114 259.061 31.126 255.1L31.372 254.982C31.713 254.821 32.058 254.672 32.402 254.518C32.763 254.354 33.122 254.188 33.487 254.032C33.57 253.996 33.653 253.962 33.736 253.927C42.1519 250.413 51.2783 248.935 60.373 249.613C60.465 249.62 60.558 249.626 60.65 249.634C61.03 249.665 61.408 249.709 61.786 249.748C62.164 249.787 62.564 249.821 62.953 249.867L63.226 249.902C72.2709 251.066 80.9134 254.348 88.451 259.481L88.678 259.636C88.988 259.851 89.29 260.075 89.595 260.296C89.916 260.526 90.24 260.753 90.556 260.99L90.776 261.157C98.0275 266.687 103.871 273.851 107.832 282.066C107.872 282.148 107.912 282.231 107.951 282.314C108.108 282.645 108.251 282.981 108.403 283.314C108.57 283.684 108.741 284.052 108.903 284.426C108.939 284.51 108.974 284.594 109.009 284.679C112.522 293.09 114.001 302.212 113.326 311.302C113.319 311.402 113.312 311.502 113.304 311.597C113.273 311.963 113.231 312.329 113.194 312.697C113.155 313.097 113.119 313.49 113.072 313.885C113.06 313.985 113.047 314.085 113.035 314.177C111.87 323.215 108.591 331.851 103.462 339.384L103.304 339.616C103.071 339.951 102.829 340.279 102.59 340.609C102.378 340.903 102.17 341.2 101.953 341.49L101.782 341.715C96.2541 348.965 89.0934 354.807 80.882 358.768L80.623 358.888Z" fill="white"/>
</mask>
<g mask="url(#mask0_69_510)">
<path d="M-159.368 400.144L32.0838 208.692" stroke="#F7FFFF" stroke-opacity="0.15" stroke-width="0.63" stroke-miterlimit="10"/>
<path d="M-131.456 400.144L59.9959 208.692" stroke="#F7FFFF" stroke-opacity="0.15" stroke-width="0.63" stroke-miterlimit="10"/>
<path d="M-103.545 400.144L87.9071 208.692" stroke="#F7FFFF" stroke-opacity="0.15" stroke-width="0.63" stroke-miterlimit="10"/>
<path d="M-75.6328 400.144L115.819 208.692" stroke="#F7FFFF" stroke-opacity="0.15" stroke-width="0.63" stroke-miterlimit="10"/>
<path d="M-173.324 400.144L18.1278 208.692" stroke="#F7FFFF" stroke-opacity="0.15" stroke-width="0.63" stroke-miterlimit="10"/>
<path d="M-145.412 400.144L46.0399 208.692" stroke="#F7FFFF" stroke-opacity="0.15" stroke-width="0.63" stroke-miterlimit="10"/>
<path d="M-117.5 400.144L73.952 208.692" stroke="#F7FFFF" stroke-opacity="0.15" stroke-width="0.63" stroke-miterlimit="10"/>
<path d="M-89.5889 400.144L101.863 208.692" stroke="#F7FFFF" stroke-opacity="0.15" stroke-width="0.63" stroke-miterlimit="10"/>
<path d="M-61.6758 400.144L129.776 208.692" stroke="#F7FFFF" stroke-opacity="0.15" stroke-width="0.63" stroke-miterlimit="10"/>
<path d="M-47.7207 400.144L143.731 208.692" stroke="#F7FFFF" stroke-opacity="0.15" stroke-width="0.63" stroke-miterlimit="10"/>
<path d="M-33.7656 400.144L157.686 208.692" stroke="#F7FFFF" stroke-opacity="0.15" stroke-width="0.63" stroke-miterlimit="10"/>
<path d="M-19.8086 400.144L171.643 208.692" stroke="#F7FFFF" stroke-opacity="0.15" stroke-width="0.63" stroke-miterlimit="10"/>
<path d="M-5.85352 400.144L185.598 208.692" stroke="#F7FFFF" stroke-opacity="0.15" stroke-width="0.63" stroke-miterlimit="10"/>
<path d="M8.10352 400.144L199.556 208.692" stroke="#F7FFFF" stroke-opacity="0.15" stroke-width="0.63" stroke-miterlimit="10"/>
<path d="M22.0596 400.144L213.512 208.692" stroke="#F7FFFF" stroke-opacity="0.15" stroke-width="0.63" stroke-miterlimit="10"/>
<path d="M36.0156 400.144L227.468 208.692" stroke="#F7FFFF" stroke-opacity="0.15" stroke-width="0.63" stroke-miterlimit="10"/>
<path d="M49.9707 400.144L241.423 208.692" stroke="#F7FFFF" stroke-opacity="0.15" stroke-width="0.63" stroke-miterlimit="10"/>
<path d="M-152.391 400.144L39.0614 208.692" stroke="#F7FFFF" stroke-opacity="0.15" stroke-width="0.63" stroke-miterlimit="10"/>
<path d="M-124.479 400.144L66.9735 208.692" stroke="#F7FFFF" stroke-opacity="0.15" stroke-width="0.63" stroke-miterlimit="10"/>
<path d="M-96.5664 400.144L94.8856 208.692" stroke="#F7FFFF" stroke-opacity="0.15" stroke-width="0.63" stroke-miterlimit="10"/>
<path d="M-68.6543 400.144L122.798 208.692" stroke="#F7FFFF" stroke-opacity="0.15" stroke-width="0.63" stroke-miterlimit="10"/>
<path d="M-40.7432 400.144L150.709 208.692" stroke="#F7FFFF" stroke-opacity="0.15" stroke-width="0.63" stroke-miterlimit="10"/>
<path d="M-12.8301 400.144L178.622 208.692" stroke="#F7FFFF" stroke-opacity="0.15" stroke-width="0.63" stroke-miterlimit="10"/>
<path d="M15.0811 400.144L206.533 208.692" stroke="#F7FFFF" stroke-opacity="0.15" stroke-width="0.63" stroke-miterlimit="10"/>
<path d="M-166.347 400.144L25.1053 208.692" stroke="#F7FFFF" stroke-opacity="0.15" stroke-width="0.63" stroke-miterlimit="10"/>
<path d="M-138.435 400.144L53.0174 208.692" stroke="#F7FFFF" stroke-opacity="0.15" stroke-width="0.63" stroke-miterlimit="10"/>
<path d="M-110.523 400.144L80.9286 208.692" stroke="#F7FFFF" stroke-opacity="0.15" stroke-width="0.63" stroke-miterlimit="10"/>
<path d="M-82.6104 400.144L108.842 208.692" stroke="#F7FFFF" stroke-opacity="0.15" stroke-width="0.63" stroke-miterlimit="10"/>
<path d="M-54.6982 400.144L136.754 208.692" stroke="#F7FFFF" stroke-opacity="0.15" stroke-width="0.63" stroke-miterlimit="10"/>
<path d="M-26.7871 400.144L164.665 208.692" stroke="#F7FFFF" stroke-opacity="0.15" stroke-width="0.63" stroke-miterlimit="10"/>
<path d="M1.12598 400.144L192.578 208.692" stroke="#F7FFFF" stroke-opacity="0.15" stroke-width="0.63" stroke-miterlimit="10"/>
<path d="M29.0381 400.144L220.49 208.692" stroke="#F7FFFF" stroke-opacity="0.15" stroke-width="0.63" stroke-miterlimit="10"/>
<path d="M42.9932 400.144L234.445 208.692" stroke="#F7FFFF" stroke-opacity="0.15" stroke-width="0.63" stroke-miterlimit="10"/>
<path d="M56.9492 400.144L248.401 208.692" stroke="#F7FFFF" stroke-opacity="0.15" stroke-width="0.63" stroke-miterlimit="10"/>
<path d="M63.9268 400.144L255.379 208.692" stroke="#F7FFFF" stroke-opacity="0.15" stroke-width="0.63" stroke-miterlimit="10"/>
<path d="M70.9043 400.144L262.356 208.692" stroke="#F7FFFF" stroke-opacity="0.15" stroke-width="0.63" stroke-miterlimit="10"/>
<path d="M77.8828 400.144L269.335 208.692" stroke="#F7FFFF" stroke-opacity="0.15" stroke-width="0.63" stroke-miterlimit="10"/>
<path d="M84.8604 400.144L276.312 208.692" stroke="#F7FFFF" stroke-opacity="0.15" stroke-width="0.63" stroke-miterlimit="10"/>
<path d="M91.8389 400.144L283.291 208.692" stroke="#F7FFFF" stroke-opacity="0.15" stroke-width="0.63" stroke-miterlimit="10"/>
<path d="M98.8164 400.144L290.268 208.692" stroke="#F7FFFF" stroke-opacity="0.15" stroke-width="0.63" stroke-miterlimit="10"/>
</g>
<path d="M125.823 297.846C125.763 297.389 125.701 296.932 125.632 296.475C125.591 296.205 125.546 295.936 125.503 295.666C125.46 295.396 125.418 295.133 125.371 294.866C125.292 294.409 125.206 293.955 125.118 293.501C125.103 293.422 125.089 293.342 125.073 293.262C125.049 293.139 125.027 293.016 125.003 292.893C124.773 291.76 124.516 290.638 124.232 289.527C124.127 289.119 124.016 288.713 123.904 288.308L141.719 276.343L135.776 263.123L115.002 268.507C114.08 267.09 113.103 265.703 112.072 264.345C112.023 264.28 111.972 264.216 111.923 264.151C111.642 263.785 111.358 263.421 111.071 263.058C110.902 262.846 110.73 262.637 110.559 262.428C110.388 262.219 110.216 262.004 110.04 261.795C109.743 261.439 109.443 261.087 109.14 260.739C109.088 260.678 109.04 260.617 108.984 260.557C107.862 259.274 106.699 258.039 105.494 256.85L114.94 237.58L103.183 229.104L87.883 244.153C86.3757 243.387 84.8363 242.674 83.265 242.014C83.19 241.982 83.114 241.952 83.039 241.921C82.612 241.744 82.184 241.568 81.753 241.399C81.501 241.299 81.247 241.205 80.993 241.109C80.739 241.013 80.487 240.915 80.232 240.822C79.797 240.662 79.361 240.509 78.924 240.358L78.694 240.278C77.0813 239.728 75.4563 239.24 73.819 238.813L72.363 217.403L57.943 215.94L52.219 236.623C50.5303 236.713 48.84 236.865 47.148 237.08L46.911 237.111C46.541 237.16 46.172 237.211 45.803 237.26C45.714 237.273 45.624 237.29 45.535 237.303C45.265 237.343 44.996 237.388 44.727 237.432C44.458 237.476 44.193 237.517 43.927 237.564C43.471 237.643 43.017 237.728 42.564 237.816C42.5 237.829 42.435 237.839 42.371 237.852L42.324 237.862C40.652 238.192 39.0007 238.581 37.37 239.03L25.404 221.215L12.184 227.159L17.568 247.933C17.215 248.162 16.868 248.391 16.514 248.633C15.5627 249.276 14.6257 249.945 13.703 250.638C13.603 250.714 13.503 250.792 13.403 250.868L13.364 250.896C13.312 250.936 13.264 250.977 13.21 251.016C12.843 251.297 12.477 251.58 12.11 251.869C11.899 252.038 11.691 252.209 11.481 252.38C11.271 252.551 11.057 252.724 10.848 252.899C10.778 252.957 10.707 253.013 10.638 253.071C10.353 253.311 10.074 253.556 9.793 253.8L9.61 253.958C8.32733 255.08 7.09167 256.243 5.903 257.448L-13.366 248.002L-21.843 259.759L-6.794 275.059C-7.55467 276.561 -8.26567 278.099 -8.927 279.672C-8.959 279.75 -8.99 279.828 -9.027 279.906C-9.203 280.33 -9.377 280.755 -9.545 281.184C-9.645 281.439 -9.745 281.696 -9.839 281.952C-9.933 282.208 -10.03 282.452 -10.123 282.705C-10.283 283.143 -10.4383 283.582 -10.589 284.021C-10.614 284.096 -10.641 284.169 -10.666 284.243C-11.216 285.857 -11.7047 287.483 -12.132 289.12L-33.537 290.572L-35 304.992L-14.317 310.717C-14.227 312.406 -14.0747 314.096 -13.86 315.787C-13.85 315.867 -13.839 315.946 -13.829 316.025C-13.769 316.484 -13.706 316.942 -13.637 317.4C-13.597 317.671 -13.552 317.939 -13.508 318.209C-13.464 318.479 -13.423 318.743 -13.376 319.009C-13.297 319.465 -13.212 319.918 -13.124 320.372C-13.108 320.452 -13.094 320.532 -13.078 320.612C-12.748 322.283 -12.3587 323.934 -11.91 325.566L-29.727 337.531L-23.783 350.751L-3.008 345.372C-2.08733 346.785 -1.11033 348.171 -0.0769997 349.529C-0.0279997 349.594 0.0229986 349.658 0.0719986 349.722C0.352999 350.089 0.635 350.454 0.924 350.816C1.093 351.028 1.264 351.236 1.435 351.446C1.606 351.656 1.779 351.87 1.954 352.079C2.25067 352.434 2.55067 352.785 2.854 353.134L3.012 353.317C4.134 354.6 5.29733 355.836 6.502 357.024L-2.943 376.293L8.814 384.772L24.114 369.722C25.622 370.489 27.162 371.203 28.734 371.863L28.952 371.952C29.381 372.131 29.812 372.307 30.246 372.477C30.497 372.577 30.746 372.67 31 372.766C31.254 372.862 31.509 372.96 31.766 373.054C32.1993 373.213 32.6327 373.367 33.066 373.516L33.301 373.598C34.9137 374.148 36.5383 374.636 38.175 375.063L39.631 396.472L54.051 397.934L59.773 377.252C61.461 377.161 63.151 377.008 64.843 376.795L65.083 376.763C65.452 376.715 65.82 376.669 66.189 376.614L66.456 376.572C66.727 376.531 66.996 376.486 67.266 376.443C67.536 376.4 67.799 376.358 68.066 376.311C68.522 376.232 68.977 376.146 69.43 376.058L69.623 376.023L69.67 376.013C71.3407 375.68 72.992 375.29 74.624 374.844L86.589 392.659L99.809 386.716L94.427 365.942C95.8437 365.019 97.2317 364.042 98.591 363.011L98.627 362.984L98.775 362.869C99.144 362.586 99.513 362.301 99.875 362.009C100.084 361.843 100.289 361.674 100.496 361.509C100.703 361.344 100.925 361.161 101.138 360.983C101.206 360.926 101.277 360.87 101.345 360.813C101.629 360.574 101.906 360.331 102.185 360.089C102.248 360.034 102.312 359.98 102.375 359.924C103.657 358.803 104.892 357.641 106.081 356.436L125.35 365.882L133.827 354.125L118.777 338.825C119.543 337.318 120.256 335.779 120.917 334.207C120.949 334.132 120.978 334.056 121.01 333.982C121.187 333.555 121.362 333.127 121.531 332.695C121.542 332.669 121.553 332.643 121.563 332.617C121.573 332.591 121.583 332.57 121.592 332.546C121.671 332.346 121.745 332.139 121.822 331.935C121.922 331.682 122.016 331.429 122.109 331.174C122.269 330.739 122.422 330.303 122.572 329.866L122.653 329.636C123.202 328.023 123.691 326.398 124.118 324.761L145.529 323.306L146.991 308.886L126.309 303.162C126.218 301.474 126.066 299.784 125.852 298.092C125.845 298.008 125.833 297.927 125.823 297.846ZM80.623 358.888C80.259 359.06 79.892 359.22 79.523 359.383C79.187 359.535 78.854 359.69 78.515 359.835L78.254 359.944C69.8416 363.458 60.7188 364.937 51.627 364.262L51.346 364.241C50.946 364.207 50.546 364.162 50.14 364.12C49.776 364.083 49.412 364.051 49.049 364.008L48.769 363.972C39.7266 362.809 31.0861 359.529 23.55 354.398L23.317 354.239C22.987 354.01 22.664 353.771 22.339 353.539C22.039 353.324 21.739 353.113 21.445 352.892L21.219 352.721C13.9721 347.19 8.13198 340.028 4.173 331.816C4.133 331.732 4.092 331.649 4.052 331.565C3.878 331.195 3.715 330.821 3.552 330.448C3.403 330.118 3.252 329.79 3.108 329.457C3.071 329.371 3.035 329.284 2.999 329.198C-0.519519 320.782 -2.00171 311.655 -1.327 302.558C-1.32 302.471 -1.314 302.385 -1.307 302.298C-1.273 301.891 -1.227 301.487 -1.185 301.082C-1.148 300.715 -1.116 300.347 -1.072 299.982C-1.062 299.896 -1.05 299.81 -1.04 299.724C0.122767 290.673 3.40618 282.024 8.543 274.482L8.696 274.258C8.906 273.958 9.125 273.658 9.34 273.358C9.576 273.029 9.809 272.698 10.052 272.374L10.217 272.157C15.7476 264.905 22.9114 259.061 31.126 255.1L31.372 254.982C31.713 254.821 32.058 254.672 32.402 254.518C32.763 254.354 33.122 254.188 33.487 254.032C33.57 253.996 33.653 253.962 33.736 253.927C42.1519 250.413 51.2783 248.935 60.373 249.613C60.465 249.62 60.558 249.626 60.65 249.634C61.03 249.665 61.408 249.709 61.786 249.748C62.164 249.787 62.564 249.821 62.953 249.867L63.226 249.902C72.2709 251.066 80.9134 254.348 88.451 259.481L88.678 259.636C88.988 259.851 89.29 260.075 89.595 260.296C89.916 260.526 90.24 260.753 90.556 260.99L90.776 261.157C98.0275 266.687 103.871 273.851 107.832 282.066C107.872 282.148 107.912 282.231 107.951 282.314C108.108 282.645 108.251 282.981 108.403 283.314C108.57 283.684 108.741 284.052 108.903 284.426C108.939 284.51 108.974 284.594 109.009 284.679C112.522 293.09 114.001 302.212 113.326 311.302C113.319 311.402 113.312 311.502 113.304 311.597C113.273 311.963 113.231 312.329 113.194 312.697C113.155 313.097 113.119 313.49 113.072 313.885C113.06 313.985 113.047 314.085 113.035 314.177C111.87 323.215 108.591 331.851 103.462 339.384L103.304 339.616C103.071 339.951 102.829 340.279 102.59 340.609C102.378 340.903 102.17 341.2 101.953 341.49L101.782 341.715C96.2541 348.965 89.0934 354.807 80.882 358.768L80.623 358.888Z" stroke="#F7FFFF" stroke-opacity="0.15" stroke-width="1.679" stroke-miterlimit="10"/>
<path d="M36.5118 263.596C27.9396 267.45 20.7027 273.759 15.7162 281.726C10.7297 289.692 8.21766 298.959 8.49766 308.353C8.77766 317.748 11.8372 326.848 17.2893 334.504C22.7414 342.159 30.3412 348.026 39.1277 351.363C47.9142 354.699 57.4927 355.355 66.652 353.248C75.8113 351.14 84.1399 346.364 90.5847 339.523C97.0295 332.682 101.301 324.084 102.859 314.815C104.417 305.547 103.192 296.024 99.3378 287.452C94.1697 275.958 84.6474 266.987 72.8653 262.513C61.0833 258.039 48.0066 258.429 36.5118 263.596ZM35.7808 329.648C33.5396 330.656 31.05 330.976 28.6268 330.569C26.2036 330.161 23.9555 329.045 22.167 327.36C20.3785 325.675 19.1297 323.497 18.5787 321.102C18.0277 318.708 18.1992 316.204 19.0715 313.906C19.9437 311.609 21.4776 309.622 23.4791 308.197C25.4806 306.771 27.8599 305.971 30.316 305.898C32.7721 305.825 35.1948 306.482 37.2777 307.785C39.3606 309.089 41.0102 310.981 42.0178 313.222C42.6868 314.71 43.0562 316.315 43.1048 317.946C43.1535 319.577 42.8804 321.201 42.3012 322.727C41.7221 324.252 40.8482 325.648 39.7294 326.836C38.6106 328.023 37.2689 328.979 35.7808 329.648ZM72.4728 343.579C70.2316 344.587 67.742 344.907 65.3188 344.5C62.8956 344.092 60.6475 342.976 58.859 341.291C57.0705 339.606 55.8217 337.428 55.2707 335.034C54.7197 332.639 54.8912 330.135 55.7635 327.837C56.6357 325.54 58.1696 323.553 60.1711 322.128C62.1726 320.702 64.5519 319.902 67.008 319.829C69.4641 319.756 71.8868 320.413 73.9697 321.716C76.0527 323.02 77.7022 324.912 78.7098 327.153C80.0607 330.158 80.1625 333.577 78.9929 336.658C77.8232 339.738 75.4779 342.228 72.4728 343.579ZM52.9968 308.286C52.73 307.693 52.6451 307.033 52.753 306.391C52.8609 305.75 53.1567 305.154 53.603 304.681C54.0492 304.207 54.6259 303.877 55.2601 303.731C55.8943 303.585 56.5575 303.63 57.1658 303.861C57.7741 304.093 58.3002 304.499 58.6777 305.029C59.0551 305.559 59.2668 306.189 59.2861 306.84C59.3053 307.49 59.1313 308.132 58.7859 308.683C58.4405 309.235 57.9394 309.671 57.3458 309.938C56.9518 310.115 56.5267 310.213 56.0949 310.226C55.6631 310.239 55.2329 310.166 54.8291 310.013C54.4252 309.86 54.0555 309.628 53.7411 309.332C53.4267 309.035 53.1738 308.68 52.9968 308.286ZM49.7118 292.958C47.4708 293.965 44.9814 294.286 42.5584 293.878C40.1354 293.471 37.8877 292.354 36.0993 290.669C34.311 288.984 33.0625 286.807 32.5116 284.413C31.9607 282.018 32.1322 279.514 33.0044 277.217C33.8766 274.92 35.4104 272.933 37.4118 271.508C39.4131 270.083 41.7921 269.283 44.2481 269.21C46.704 269.137 49.1265 269.793 51.2092 271.097C53.2919 272.4 54.9413 274.292 55.9488 276.533C56.6178 278.021 56.9872 279.626 57.0358 281.257C57.0844 282.888 56.8113 284.512 56.2322 286.037C55.653 287.563 54.7791 288.959 53.6603 290.146C52.5415 291.334 51.1998 292.289 49.7118 292.958ZM86.4018 306.889C84.1606 307.897 81.671 308.217 79.2477 307.81C76.8244 307.403 74.5763 306.286 72.7877 304.601C70.9991 302.916 69.7503 300.738 69.1993 298.344C68.6483 295.949 68.8198 293.445 69.6922 291.147C70.5645 288.85 72.0984 286.863 74.1001 285.438C76.1017 284.012 78.481 283.212 80.9372 283.139C83.3934 283.066 85.8161 283.723 87.899 285.027C89.9819 286.331 91.6313 288.223 92.6388 290.464C93.9896 293.469 94.0914 296.888 92.9218 299.968C91.7521 303.048 89.4068 305.538 86.4018 306.889Z" stroke="#F7FFFF" stroke-opacity="0.15" stroke-width="1.679" stroke-miterlimit="10"/>
<mask id="mask1_69_510" style="mask-type:luminance" maskUnits="userSpaceOnUse" x="266" y="222" width="85" height="85">
<path d="M340.61 260.408C340.583 260.199 340.554 259.99 340.523 259.78C340.504 259.656 340.484 259.533 340.464 259.409C340.444 259.285 340.425 259.165 340.403 259.043C340.367 258.834 340.328 258.625 340.287 258.418C340.28 258.381 340.274 258.345 340.267 258.308C340.256 258.252 340.246 258.195 340.234 258.139C340.129 257.621 340.012 257.107 339.881 256.597C339.833 256.41 339.781 256.224 339.731 256.038L347.894 250.556L345.171 244.498L335.652 246.965C335.229 246.316 334.781 245.681 334.309 245.058C334.287 245.028 334.264 244.999 334.241 244.969C334.113 244.801 333.983 244.634 333.851 244.469C333.773 244.369 333.695 244.277 333.616 244.181C333.537 244.085 333.459 243.987 333.379 243.891C333.242 243.728 333.104 243.567 332.965 243.407C332.941 243.379 332.918 243.351 332.894 243.324C332.379 242.736 331.846 242.169 331.294 241.624L335.623 232.794L330.236 228.91L323.226 235.81C322.535 235.459 321.829 235.132 321.109 234.83L321.009 234.787C320.813 234.706 320.617 234.627 320.42 234.548L320.071 234.415C319.955 234.371 319.839 234.326 319.723 234.284C319.523 234.21 319.323 234.14 319.123 234.071L319.018 234.034C318.279 233.782 317.535 233.558 316.784 233.363L316.118 223.552L309.51 222.882L306.887 232.359C306.113 232.401 305.339 232.471 304.564 232.568L304.455 232.583C304.286 232.605 304.116 232.626 303.947 232.651L303.825 232.671C303.701 232.689 303.578 232.71 303.454 232.73C303.33 232.75 303.209 232.769 303.087 232.79C302.878 232.826 302.67 232.866 302.463 232.906L302.374 232.922L302.353 232.927C301.587 233.078 300.83 233.257 300.082 233.462L294.6 225.299L288.543 228.022L291.01 237.541C290.848 237.646 290.686 237.751 290.527 237.86C290.091 238.155 289.662 238.462 289.239 238.779C289.193 238.813 289.148 238.849 289.102 238.884L289.085 238.897L289.014 238.952C288.846 239.081 288.678 239.21 288.514 239.343L288.226 239.577C288.126 239.656 288.032 239.734 287.936 239.815L287.836 239.894C287.705 240.003 287.577 240.116 287.449 240.227L287.365 240.3C286.777 240.814 286.21 241.347 285.665 241.9L276.836 237.572L272.951 242.959L279.851 249.969C279.5 250.66 279.173 251.366 278.871 252.085C278.856 252.12 278.842 252.156 278.827 252.192C278.747 252.386 278.667 252.581 278.59 252.777C278.544 252.894 278.5 253.012 278.455 253.129C278.41 253.246 278.367 253.359 278.325 253.474C278.252 253.674 278.181 253.874 278.111 254.074C278.1 254.108 278.087 254.142 278.076 254.174C277.824 254.913 277.6 255.657 277.404 256.408L267.594 257.075L266.923 263.683L276.4 266.305C276.442 267.079 276.512 267.854 276.61 268.629C276.61 268.665 276.62 268.701 276.624 268.738C276.652 268.948 276.68 269.158 276.712 269.368C276.731 269.492 276.751 269.615 276.771 269.738C276.791 269.861 276.81 269.983 276.832 270.105C276.868 270.314 276.907 270.522 276.947 270.73L276.968 270.84C277.119 271.606 277.298 272.363 277.504 273.11L269.34 278.593L272.064 284.65L281.583 282.183C282.005 282.832 282.452 283.468 282.925 284.09L282.994 284.179C283.122 284.347 283.252 284.514 283.384 284.679C283.461 284.779 283.54 284.871 283.618 284.967L283.856 285.258C283.989 285.42 284.127 285.581 284.269 285.741L284.341 285.825C284.855 286.413 285.388 286.98 285.941 287.525L281.613 296.355L287 300.239L294.01 293.339C294.701 293.69 295.407 294.017 296.127 294.32L296.227 294.361C296.427 294.442 296.621 294.523 296.82 294.601C296.935 294.646 297.05 294.69 297.166 294.733C297.282 294.776 297.399 294.823 297.516 294.866C297.716 294.939 297.916 295.009 298.116 295.077L298.224 295.115C298.962 295.367 299.706 295.591 300.457 295.786L301.123 305.597L307.731 306.267L310.354 296.79C311.127 296.749 311.902 296.679 312.677 296.581L312.787 296.566C312.956 296.544 313.125 296.523 313.294 296.498L313.416 296.478C313.54 296.46 313.664 296.439 313.787 296.419L314.153 296.359C314.362 296.323 314.571 296.283 314.779 296.243L314.867 296.227L314.888 296.222C315.654 296.071 316.411 295.892 317.158 295.687L322.641 303.85L328.698 301.127L326.231 291.608C326.881 291.185 327.517 290.737 328.139 290.264L328.156 290.252L328.223 290.2C328.393 290.067 328.562 289.935 328.729 289.806C328.829 289.73 328.919 289.652 329.013 289.575L329.313 289.334C329.344 289.307 329.377 289.282 329.413 289.255C329.543 289.146 329.67 289.035 329.797 288.924L329.885 288.849C330.472 288.335 331.039 287.802 331.585 287.249L340.414 291.577L344.298 286.19L337.398 279.18C337.749 278.49 338.076 277.785 338.379 277.064L338.421 276.964C338.502 276.764 338.583 276.572 338.66 276.374L338.675 276.338L338.688 276.306C338.724 276.213 338.758 276.119 338.793 276.026C338.838 275.91 338.882 275.794 338.925 275.677C338.998 275.477 339.068 275.277 339.137 275.077C339.149 275.041 339.162 275.007 339.174 274.971C339.426 274.232 339.65 273.488 339.845 272.738L349.656 272.071L350.326 265.464L340.849 262.841C340.808 262.067 340.739 261.293 340.64 260.518L340.61 260.408ZM319.899 288.379C319.733 288.457 319.564 288.531 319.399 288.605C319.234 288.679 319.093 288.746 318.937 288.812L318.818 288.863C314.963 290.473 310.783 291.15 306.618 290.841L306.489 290.831C306.304 290.816 306.12 290.795 305.936 290.776C305.77 290.759 305.603 290.745 305.436 290.724L305.307 290.708C301.163 290.175 297.204 288.672 293.751 286.321L293.645 286.248C293.493 286.148 293.345 286.034 293.197 285.926C293.049 285.818 292.922 285.726 292.787 285.626L292.687 285.547C289.365 283.014 286.688 279.733 284.873 275.97C284.854 275.931 284.836 275.893 284.817 275.855C284.737 275.685 284.663 275.514 284.586 275.343C284.518 275.192 284.448 275.043 284.386 274.889L284.336 274.77C282.725 270.914 282.047 266.732 282.358 262.564L282.367 262.444C282.382 262.258 282.403 262.073 282.423 261.887C282.44 261.719 282.454 261.55 282.474 261.382L282.489 261.264C283.022 257.117 284.526 253.155 286.88 249.699C286.904 249.665 286.927 249.63 286.95 249.599C287.05 249.461 287.15 249.325 287.25 249.188C287.35 249.051 287.464 248.888 287.576 248.737L287.651 248.637C290.185 245.314 293.468 242.636 297.232 240.821L297.345 240.767C297.501 240.694 297.659 240.625 297.817 240.555C297.975 240.485 298.147 240.403 298.317 240.332L298.431 240.284C302.287 238.674 306.468 237.995 310.636 238.305L310.762 238.315C310.936 238.329 311.11 238.349 311.283 238.367C311.456 238.385 311.64 238.401 311.817 238.422L311.943 238.438C316.087 238.971 320.047 240.475 323.501 242.827L323.601 242.898C323.743 242.998 323.882 243.098 324.022 243.198C324.162 243.298 324.322 243.408 324.462 243.517L324.562 243.593C327.884 246.127 330.562 249.409 332.377 253.173L332.431 253.287C332.503 253.439 332.57 253.593 332.638 253.746C332.715 253.915 332.793 254.084 332.867 254.255L332.915 254.371C334.525 258.226 335.202 262.405 334.893 266.571C334.893 266.616 334.887 266.66 334.883 266.706C334.869 266.874 334.85 267.041 334.833 267.206C334.816 267.371 334.799 267.57 334.777 267.751C334.771 267.795 334.766 267.84 334.76 267.884C334.226 272.026 332.724 275.983 330.374 279.435C330.349 279.47 330.325 279.506 330.301 279.541C330.195 279.695 330.083 279.841 329.974 279.996C329.874 280.131 329.782 280.267 329.682 280.396L329.604 280.496C327.07 283.818 323.789 286.495 320.026 288.31L319.899 288.379Z" fill="white"/>
</mask>
<g mask="url(#mask1_69_510)">
<path d="M209.932 307.283L297.658 219.557" stroke="#F7FFFF" stroke-opacity="0.15" stroke-width="0.42" stroke-miterlimit="10"/>
<path d="M222.722 307.283L310.448 219.557" stroke="#F7FFFF" stroke-opacity="0.15" stroke-width="0.42" stroke-miterlimit="10"/>
<path d="M235.511 307.283L323.237 219.557" stroke="#F7FFFF" stroke-opacity="0.15" stroke-width="0.42" stroke-miterlimit="10"/>
<path d="M248.301 307.283L336.027 219.557" stroke="#F7FFFF" stroke-opacity="0.15" stroke-width="0.42" stroke-miterlimit="10"/>
<path d="M203.537 307.283L291.263 219.557" stroke="#F7FFFF" stroke-opacity="0.15" stroke-width="0.42" stroke-miterlimit="10"/>
<path d="M216.327 307.283L304.053 219.557" stroke="#F7FFFF" stroke-opacity="0.15" stroke-width="0.42" stroke-miterlimit="10"/>
<path d="M229.117 307.283L316.843 219.557" stroke="#F7FFFF" stroke-opacity="0.15" stroke-width="0.42" stroke-miterlimit="10"/>
<path d="M241.906 307.283L329.632 219.557" stroke="#F7FFFF" stroke-opacity="0.15" stroke-width="0.42" stroke-miterlimit="10"/>
<path d="M254.696 307.283L342.422 219.557" stroke="#F7FFFF" stroke-opacity="0.15" stroke-width="0.42" stroke-miterlimit="10"/>
<path d="M261.091 307.283L348.817 219.557" stroke="#F7FFFF" stroke-opacity="0.15" stroke-width="0.42" stroke-miterlimit="10"/>
<path d="M267.485 307.283L355.211 219.557" stroke="#F7FFFF" stroke-opacity="0.15" stroke-width="0.42" stroke-miterlimit="10"/>
<path d="M273.88 307.283L361.606 219.557" stroke="#F7FFFF" stroke-opacity="0.15" stroke-width="0.42" stroke-miterlimit="10"/>
<path d="M280.275 307.283L368.001 219.557" stroke="#F7FFFF" stroke-opacity="0.15" stroke-width="0.42" stroke-miterlimit="10"/>
<path d="M286.67 307.283L374.396 219.557" stroke="#F7FFFF" stroke-opacity="0.15" stroke-width="0.42" stroke-miterlimit="10"/>
<path d="M293.065 307.283L380.791 219.557" stroke="#F7FFFF" stroke-opacity="0.15" stroke-width="0.42" stroke-miterlimit="10"/>
<path d="M299.459 307.283L387.185 219.557" stroke="#F7FFFF" stroke-opacity="0.15" stroke-width="0.42" stroke-miterlimit="10"/>
<path d="M305.854 307.283L393.58 219.557" stroke="#F7FFFF" stroke-opacity="0.15" stroke-width="0.42" stroke-miterlimit="10"/>
<path d="M213.13 307.283L300.856 219.557" stroke="#F7FFFF" stroke-opacity="0.15" stroke-width="0.42" stroke-miterlimit="10"/>
<path d="M225.919 307.283L313.645 219.557" stroke="#F7FFFF" stroke-opacity="0.15" stroke-width="0.42" stroke-miterlimit="10"/>
<path d="M238.709 307.283L326.435 219.557" stroke="#F7FFFF" stroke-opacity="0.15" stroke-width="0.42" stroke-miterlimit="10"/>
<path d="M251.498 307.283L339.224 219.557" stroke="#F7FFFF" stroke-opacity="0.15" stroke-width="0.42" stroke-miterlimit="10"/>
<path d="M264.288 307.283L352.014 219.557" stroke="#F7FFFF" stroke-opacity="0.15" stroke-width="0.42" stroke-miterlimit="10"/>
<path d="M277.078 307.283L364.804 219.557" stroke="#F7FFFF" stroke-opacity="0.15" stroke-width="0.42" stroke-miterlimit="10"/>
<path d="M289.867 307.283L377.593 219.557" stroke="#F7FFFF" stroke-opacity="0.15" stroke-width="0.42" stroke-miterlimit="10"/>
<path d="M206.735 307.283L294.461 219.557" stroke="#F7FFFF" stroke-opacity="0.15" stroke-width="0.42" stroke-miterlimit="10"/>
<path d="M219.524 307.283L307.25 219.557" stroke="#F7FFFF" stroke-opacity="0.15" stroke-width="0.42" stroke-miterlimit="10"/>
<path d="M232.314 307.283L320.04 219.557" stroke="#F7FFFF" stroke-opacity="0.15" stroke-width="0.42" stroke-miterlimit="10"/>
<path d="M245.104 307.283L332.83 219.557" stroke="#F7FFFF" stroke-opacity="0.15" stroke-width="0.42" stroke-miterlimit="10"/>
<path d="M257.894 307.283L345.62 219.557" stroke="#F7FFFF" stroke-opacity="0.15" stroke-width="0.42" stroke-miterlimit="10"/>
<path d="M270.684 307.283L358.41 219.557" stroke="#F7FFFF" stroke-opacity="0.15" stroke-width="0.42" stroke-miterlimit="10"/>
<path d="M283.472 307.283L371.198 219.557" stroke="#F7FFFF" stroke-opacity="0.15" stroke-width="0.42" stroke-miterlimit="10"/>
<path d="M296.262 307.283L383.988 219.557" stroke="#F7FFFF" stroke-opacity="0.15" stroke-width="0.42" stroke-miterlimit="10"/>
<path d="M302.657 307.283L390.383 219.557" stroke="#F7FFFF" stroke-opacity="0.15" stroke-width="0.42" stroke-miterlimit="10"/>
<path d="M309.052 307.283L396.778 219.557" stroke="#F7FFFF" stroke-opacity="0.15" stroke-width="0.42" stroke-miterlimit="10"/>
<path d="M312.249 307.283L399.975 219.557" stroke="#F7FFFF" stroke-opacity="0.15" stroke-width="0.42" stroke-miterlimit="10"/>
<path d="M315.446 307.283L403.172 219.557" stroke="#F7FFFF" stroke-opacity="0.15" stroke-width="0.42" stroke-miterlimit="10"/>
<path d="M318.645 307.283L406.371 219.557" stroke="#F7FFFF" stroke-opacity="0.15" stroke-width="0.42" stroke-miterlimit="10"/>
<path d="M321.841 307.283L409.567 219.557" stroke="#F7FFFF" stroke-opacity="0.15" stroke-width="0.42" stroke-miterlimit="10"/>
<path d="M325.039 307.283L412.765 219.557" stroke="#F7FFFF" stroke-opacity="0.15" stroke-width="0.42" stroke-miterlimit="10"/>
<path d="M328.236 307.283L415.962 219.557" stroke="#F7FFFF" stroke-opacity="0.15" stroke-width="0.42" stroke-miterlimit="10"/>
</g>
<path d="M340.61 260.408C340.583 260.199 340.554 259.99 340.523 259.78C340.504 259.656 340.484 259.533 340.464 259.409C340.444 259.285 340.425 259.165 340.403 259.043C340.367 258.834 340.328 258.625 340.287 258.418C340.28 258.381 340.274 258.345 340.267 258.308C340.256 258.252 340.246 258.195 340.234 258.139C340.129 257.621 340.012 257.107 339.881 256.597C339.833 256.41 339.781 256.224 339.731 256.038L347.894 250.556L345.171 244.498L335.652 246.965C335.229 246.316 334.781 245.681 334.309 245.058C334.287 245.028 334.264 244.999 334.241 244.969C334.113 244.801 333.983 244.634 333.851 244.469C333.773 244.369 333.695 244.277 333.616 244.181C333.537 244.085 333.459 243.987 333.379 243.891C333.242 243.728 333.104 243.567 332.965 243.407C332.941 243.379 332.918 243.351 332.894 243.324C332.379 242.736 331.846 242.169 331.294 241.624L335.623 232.794L330.236 228.91L323.226 235.81C322.535 235.459 321.829 235.132 321.109 234.83L321.009 234.787C320.813 234.706 320.617 234.627 320.42 234.548L320.071 234.415C319.955 234.371 319.839 234.326 319.723 234.284C319.523 234.21 319.323 234.14 319.123 234.071L319.018 234.034C318.279 233.782 317.535 233.558 316.784 233.363L316.118 223.552L309.51 222.882L306.887 232.359C306.113 232.401 305.339 232.471 304.564 232.568L304.455 232.583C304.286 232.605 304.116 232.626 303.947 232.651L303.825 232.671C303.701 232.689 303.578 232.71 303.454 232.73C303.33 232.75 303.209 232.769 303.087 232.79C302.878 232.826 302.67 232.866 302.463 232.906L302.374 232.922L302.353 232.927C301.587 233.078 300.83 233.257 300.082 233.462L294.6 225.299L288.543 228.022L291.01 237.541C290.848 237.646 290.686 237.751 290.527 237.86C290.091 238.155 289.662 238.462 289.239 238.779C289.193 238.813 289.148 238.849 289.102 238.884L289.085 238.897L289.014 238.952C288.846 239.081 288.678 239.21 288.514 239.343L288.226 239.577C288.126 239.656 288.032 239.734 287.936 239.815L287.836 239.894C287.705 240.003 287.577 240.116 287.449 240.227L287.365 240.3C286.777 240.814 286.21 241.347 285.665 241.9L276.836 237.572L272.951 242.959L279.851 249.969C279.5 250.66 279.173 251.366 278.871 252.085C278.856 252.12 278.842 252.156 278.827 252.192C278.747 252.386 278.667 252.581 278.59 252.777C278.544 252.894 278.5 253.012 278.455 253.129C278.41 253.246 278.367 253.359 278.325 253.474C278.252 253.674 278.181 253.874 278.111 254.074C278.1 254.108 278.087 254.142 278.076 254.174C277.824 254.913 277.6 255.657 277.404 256.408L267.594 257.075L266.923 263.683L276.4 266.305C276.442 267.079 276.512 267.854 276.61 268.629C276.61 268.665 276.62 268.701 276.624 268.738C276.652 268.948 276.68 269.158 276.712 269.368C276.731 269.492 276.751 269.615 276.771 269.738C276.791 269.861 276.81 269.983 276.832 270.105C276.868 270.314 276.907 270.522 276.947 270.73L276.968 270.84C277.119 271.606 277.298 272.363 277.504 273.11L269.34 278.593L272.064 284.65L281.583 282.183C282.005 282.832 282.452 283.468 282.925 284.09L282.994 284.179C283.122 284.347 283.252 284.514 283.384 284.679C283.461 284.779 283.54 284.871 283.618 284.967L283.856 285.258C283.989 285.42 284.127 285.581 284.269 285.741L284.341 285.825C284.855 286.413 285.388 286.98 285.941 287.525L281.613 296.355L287 300.239L294.01 293.339C294.701 293.69 295.407 294.017 296.127 294.32L296.227 294.361C296.427 294.442 296.621 294.523 296.82 294.601C296.935 294.646 297.05 294.69 297.166 294.733C297.282 294.776 297.399 294.823 297.516 294.866C297.716 294.939 297.916 295.009 298.116 295.077L298.224 295.115C298.962 295.367 299.706 295.591 300.457 295.786L301.123 305.597L307.731 306.267L310.354 296.79C311.127 296.749 311.902 296.679 312.677 296.581L312.787 296.566C312.956 296.544 313.125 296.523 313.294 296.498L313.416 296.478C313.54 296.46 313.664 296.439 313.787 296.419L314.153 296.359C314.362 296.323 314.571 296.283 314.779 296.243L314.867 296.227L314.888 296.222C315.654 296.071 316.411 295.892 317.158 295.687L322.641 303.85L328.698 301.127L326.231 291.608C326.881 291.185 327.517 290.737 328.139 290.264L328.156 290.252L328.223 290.2C328.393 290.067 328.562 289.935 328.729 289.806C328.829 289.73 328.919 289.652 329.013 289.575L329.313 289.334C329.344 289.307 329.377 289.282 329.413 289.255C329.543 289.146 329.67 289.035 329.797 288.924L329.885 288.849C330.472 288.335 331.039 287.802 331.585 287.249L340.414 291.577L344.298 286.19L337.398 279.18C337.749 278.49 338.076 277.785 338.379 277.064L338.421 276.964C338.502 276.764 338.583 276.572 338.66 276.374L338.675 276.338L338.688 276.306C338.724 276.213 338.758 276.119 338.793 276.026C338.838 275.91 338.882 275.794 338.925 275.677C338.998 275.477 339.068 275.277 339.137 275.077C339.149 275.041 339.162 275.007 339.174 274.971C339.426 274.232 339.65 273.488 339.845 272.738L349.656 272.071L350.326 265.464L340.849 262.841C340.808 262.067 340.739 261.293 340.64 260.518L340.61 260.408ZM319.899 288.379C319.733 288.457 319.564 288.531 319.399 288.605C319.234 288.679 319.093 288.746 318.937 288.812L318.818 288.863C314.963 290.473 310.783 291.15 306.618 290.841L306.489 290.831C306.304 290.816 306.12 290.795 305.936 290.776C305.77 290.759 305.603 290.745 305.436 290.724L305.307 290.708C301.163 290.175 297.204 288.672 293.751 286.321L293.645 286.248C293.493 286.148 293.345 286.034 293.197 285.926C293.049 285.818 292.922 285.726 292.787 285.626L292.687 285.547C289.365 283.014 286.688 279.733 284.873 275.97C284.854 275.931 284.836 275.893 284.817 275.855C284.737 275.685 284.663 275.514 284.586 275.343C284.518 275.192 284.448 275.043 284.386 274.889L284.336 274.77C282.725 270.914 282.047 266.732 282.358 262.564L282.367 262.444C282.382 262.258 282.403 262.073 282.423 261.887C282.44 261.719 282.454 261.55 282.474 261.382L282.489 261.264C283.022 257.117 284.526 253.155 286.88 249.699C286.904 249.665 286.927 249.63 286.95 249.599C287.05 249.461 287.15 249.325 287.25 249.188C287.35 249.051 287.464 248.888 287.576 248.737L287.651 248.637C290.185 245.314 293.468 242.636 297.232 240.821L297.345 240.767C297.501 240.694 297.659 240.625 297.817 240.555C297.975 240.485 298.147 240.403 298.317 240.332L298.431 240.284C302.287 238.674 306.468 237.995 310.636 238.305L310.762 238.315C310.936 238.329 311.11 238.349 311.283 238.367C311.456 238.385 311.64 238.401 311.817 238.422L311.943 238.438C316.087 238.971 320.047 240.475 323.501 242.827L323.601 242.898C323.743 242.998 323.882 243.098 324.022 243.198C324.162 243.298 324.322 243.408 324.462 243.517L324.562 243.593C327.884 246.127 330.562 249.409 332.377 253.173L332.431 253.287C332.503 253.439 332.57 253.593 332.638 253.746C332.715 253.915 332.793 254.084 332.867 254.255L332.915 254.371C334.525 258.226 335.202 262.405 334.893 266.571C334.893 266.616 334.887 266.66 334.883 266.706C334.869 266.874 334.85 267.041 334.833 267.206C334.816 267.371 334.799 267.57 334.777 267.751C334.771 267.795 334.766 267.84 334.76 267.884C334.226 272.026 332.724 275.983 330.374 279.435C330.349 279.47 330.325 279.506 330.301 279.541C330.195 279.695 330.083 279.841 329.974 279.996C329.874 280.131 329.782 280.267 329.682 280.396L329.604 280.496C327.07 283.818 323.789 286.495 320.026 288.31L319.899 288.379Z" stroke="#F7FFFF" stroke-opacity="0.15" stroke-width="0.84" stroke-linecap="round" stroke-linejoin="round"/>
<mask id="mask2_69_510" style="mask-type:luminance" maskUnits="userSpaceOnUse" x="-5" y="1" width="15" height="167">
<path d="M9.27147 1H-4.01953V167.301H9.27147V1Z" fill="white"/>
</mask>
<g mask="url(#mask2_69_510)">
<path d="M-187.739 178.946L3.71274 -12.506" stroke="#F7FFFF" stroke-opacity="0.15" stroke-width="0.63" stroke-miterlimit="10"/>
<path d="M-159.827 178.946L31.6248 -12.506" stroke="#F7FFFF" stroke-opacity="0.15" stroke-width="0.63" stroke-miterlimit="10"/>
<path d="M-131.915 178.946L59.537 -12.506" stroke="#F7FFFF" stroke-opacity="0.15" stroke-width="0.63" stroke-miterlimit="10"/>
<path d="M-173.783 178.946L17.6688 -12.506" stroke="#F7FFFF" stroke-opacity="0.15" stroke-width="0.63" stroke-miterlimit="10"/>
<path d="M-145.871 178.946L45.5809 -12.506" stroke="#F7FFFF" stroke-opacity="0.15" stroke-width="0.63" stroke-miterlimit="10"/>
<path d="M-117.959 178.946L73.493 -12.506" stroke="#F7FFFF" stroke-opacity="0.15" stroke-width="0.63" stroke-miterlimit="10"/>
<path d="M-104.004 178.946L87.4481 -12.506" stroke="#F7FFFF" stroke-opacity="0.15" stroke-width="0.63" stroke-miterlimit="10"/>
<path d="M-90.0479 178.946L101.404 -12.506" stroke="#F7FFFF" stroke-opacity="0.15" stroke-width="0.63" stroke-miterlimit="10"/>
<path d="M-76.0918 178.946L115.36 -12.506" stroke="#F7FFFF" stroke-opacity="0.15" stroke-width="0.63" stroke-miterlimit="10"/>
<path d="M-62.1357 178.946L129.316 -12.506" stroke="#F7FFFF" stroke-opacity="0.15" stroke-width="0.63" stroke-miterlimit="10"/>
<path d="M-48.1797 178.946L143.272 -12.506" stroke="#F7FFFF" stroke-opacity="0.15" stroke-width="0.63" stroke-miterlimit="10"/>
<path d="M-34.2236 178.946L157.228 -12.506" stroke="#F7FFFF" stroke-opacity="0.15" stroke-width="0.63" stroke-miterlimit="10"/>
<path d="M-20.2676 178.946L171.184 -12.506" stroke="#F7FFFF" stroke-opacity="0.15" stroke-width="0.63" stroke-miterlimit="10"/>
<path d="M-6.31152 178.946L185.14 -12.506" stroke="#F7FFFF" stroke-opacity="0.15" stroke-width="0.63" stroke-miterlimit="10"/>
<path d="M-180.762 178.946L10.6903 -12.506" stroke="#F7FFFF" stroke-opacity="0.15" stroke-width="0.63" stroke-miterlimit="10"/>
<path d="M-152.85 178.946L38.6024 -12.506" stroke="#F7FFFF" stroke-opacity="0.15" stroke-width="0.63" stroke-miterlimit="10"/>
<path d="M-124.938 178.946L66.5145 -12.506" stroke="#F7FFFF" stroke-opacity="0.15" stroke-width="0.63" stroke-miterlimit="10"/>
<path d="M-97.0254 178.946L94.4266 -12.506" stroke="#F7FFFF" stroke-opacity="0.15" stroke-width="0.63" stroke-miterlimit="10"/>
<path d="M-69.1133 178.946L122.339 -12.506" stroke="#F7FFFF" stroke-opacity="0.15" stroke-width="0.63" stroke-miterlimit="10"/>
<path d="M-41.2012 178.946L150.251 -12.506" stroke="#F7FFFF" stroke-opacity="0.15" stroke-width="0.63" stroke-miterlimit="10"/>
<path d="M-166.806 178.946L24.6463 -12.506" stroke="#F7FFFF" stroke-opacity="0.15" stroke-width="0.63" stroke-miterlimit="10"/>
<path d="M-138.894 178.946L52.5584 -12.506" stroke="#F7FFFF" stroke-opacity="0.15" stroke-width="0.63" stroke-miterlimit="10"/>
<path d="M-110.981 178.946L80.4706 -12.506" stroke="#F7FFFF" stroke-opacity="0.15" stroke-width="0.63" stroke-miterlimit="10"/>
<path d="M-83.0693 178.946L108.383 -12.506" stroke="#F7FFFF" stroke-opacity="0.15" stroke-width="0.63" stroke-miterlimit="10"/>
<path d="M-55.1572 178.946L136.295 -12.506" stroke="#F7FFFF" stroke-opacity="0.15" stroke-width="0.63" stroke-miterlimit="10"/>
<path d="M-27.2451 178.946L164.207 -12.506" stroke="#F7FFFF" stroke-opacity="0.15" stroke-width="0.63" stroke-miterlimit="10"/>
<path d="M-13.2891 178.946L178.163 -12.506" stroke="#F7FFFF" stroke-opacity="0.15" stroke-width="0.63" stroke-miterlimit="10"/>
<path d="M0.666992 178.946L192.119 -12.506" stroke="#F7FFFF" stroke-opacity="0.15" stroke-width="0.63" stroke-miterlimit="10"/>
<path d="M7.64453 178.946L199.097 -12.506" stroke="#F7FFFF" stroke-opacity="0.15" stroke-width="0.63" stroke-miterlimit="10"/>
</g>
<path d="M-4.01953 1H9.27347V167.3H-4.01953" stroke="#F7FFFF" stroke-opacity="0.15" stroke-width="0.63" stroke-miterlimit="10"/>
<mask id="mask3_69_510" style="mask-type:luminance" maskUnits="userSpaceOnUse" x="296" y="331" width="168" height="22">
<path d="M296.809 331.162V352.85H463.11V331.162H296.809Z" fill="white"/>
</mask>
<g mask="url(#mask3_69_510)">
<path d="M474.754 536.569L283.302 345.117" stroke="#F7FFFF" stroke-opacity="0.15" stroke-width="0.63" stroke-miterlimit="10"/>
<path d="M474.754 508.657L283.302 317.205" stroke="#F7FFFF" stroke-opacity="0.15" stroke-width="0.63" stroke-miterlimit="10"/>
<path d="M474.754 480.745L283.302 289.293" stroke="#F7FFFF" stroke-opacity="0.15" stroke-width="0.63" stroke-miterlimit="10"/>
<path d="M474.754 522.613L283.302 331.161" stroke="#F7FFFF" stroke-opacity="0.15" stroke-width="0.63" stroke-miterlimit="10"/>
<path d="M474.754 494.701L283.302 303.249" stroke="#F7FFFF" stroke-opacity="0.15" stroke-width="0.63" stroke-miterlimit="10"/>
<path d="M474.754 466.789L283.302 275.337" stroke="#F7FFFF" stroke-opacity="0.15" stroke-width="0.63" stroke-miterlimit="10"/>
<path d="M474.754 452.833L283.302 261.381" stroke="#F7FFFF" stroke-opacity="0.15" stroke-width="0.63" stroke-miterlimit="10"/>
<path d="M474.754 438.877L283.302 247.425" stroke="#F7FFFF" stroke-opacity="0.15" stroke-width="0.63" stroke-miterlimit="10"/>
<path d="M474.754 424.921L283.302 233.469" stroke="#F7FFFF" stroke-opacity="0.15" stroke-width="0.63" stroke-miterlimit="10"/>
<path d="M474.754 410.965L283.302 219.513" stroke="#F7FFFF" stroke-opacity="0.15" stroke-width="0.63" stroke-miterlimit="10"/>
<path d="M474.754 397.009L283.302 205.557" stroke="#F7FFFF" stroke-opacity="0.15" stroke-width="0.63" stroke-miterlimit="10"/>
<path d="M474.754 383.054L283.302 191.602" stroke="#F7FFFF" stroke-opacity="0.15" stroke-width="0.63" stroke-miterlimit="10"/>
<path d="M474.754 369.098L283.302 177.646" stroke="#F7FFFF" stroke-opacity="0.15" stroke-width="0.63" stroke-miterlimit="10"/>
<path d="M474.754 355.141L283.302 163.689" stroke="#F7FFFF" stroke-opacity="0.15" stroke-width="0.63" stroke-miterlimit="10"/>
<path d="M474.754 529.591L283.302 338.139" stroke="#F7FFFF" stroke-opacity="0.15" stroke-width="0.63" stroke-miterlimit="10"/>
<path d="M474.754 501.679L283.302 310.227" stroke="#F7FFFF" stroke-opacity="0.15" stroke-width="0.63" stroke-miterlimit="10"/>
<path d="M474.754 473.767L283.302 282.315" stroke="#F7FFFF" stroke-opacity="0.15" stroke-width="0.63" stroke-miterlimit="10"/>
<path d="M474.754 445.855L283.302 254.403" stroke="#F7FFFF" stroke-opacity="0.15" stroke-width="0.63" stroke-miterlimit="10"/>
<path d="M474.754 417.943L283.302 226.491" stroke="#F7FFFF" stroke-opacity="0.15" stroke-width="0.63" stroke-miterlimit="10"/>
<path d="M474.754 390.032L283.302 198.58" stroke="#F7FFFF" stroke-opacity="0.15" stroke-width="0.63" stroke-miterlimit="10"/>
<path d="M474.754 543.547L283.302 352.095" stroke="#F7FFFF" stroke-opacity="0.15" stroke-width="0.63" stroke-miterlimit="10"/>
<path d="M474.754 515.635L283.302 324.183" stroke="#F7FFFF" stroke-opacity="0.15" stroke-width="0.63" stroke-miterlimit="10"/>
<path d="M474.754 487.723L283.302 296.271" stroke="#F7FFFF" stroke-opacity="0.15" stroke-width="0.63" stroke-miterlimit="10"/>
<path d="M474.754 459.811L283.302 268.359" stroke="#F7FFFF" stroke-opacity="0.15" stroke-width="0.63" stroke-miterlimit="10"/>
<path d="M474.754 431.9L283.302 240.448" stroke="#F7FFFF" stroke-opacity="0.15" stroke-width="0.63" stroke-miterlimit="10"/>
<path d="M474.754 403.987L283.302 212.535" stroke="#F7FFFF" stroke-opacity="0.15" stroke-width="0.63" stroke-miterlimit="10"/>
<path d="M474.754 376.076L283.302 184.624" stroke="#F7FFFF" stroke-opacity="0.15" stroke-width="0.63" stroke-miterlimit="10"/>
<path d="M474.754 362.12L283.302 170.668" stroke="#F7FFFF" stroke-opacity="0.15" stroke-width="0.63" stroke-miterlimit="10"/>
<path d="M474.754 348.163L283.302 156.711" stroke="#F7FFFF" stroke-opacity="0.15" stroke-width="0.63" stroke-miterlimit="10"/>
<path d="M474.754 341.185L283.302 149.733" stroke="#F7FFFF" stroke-opacity="0.15" stroke-width="0.63" stroke-miterlimit="10"/>
<path d="M474.754 334.207L283.302 142.755" stroke="#F7FFFF" stroke-opacity="0.15" stroke-width="0.63" stroke-miterlimit="10"/>
</g>
<path d="M296.809 352.85V331.161H463.109V352.849" stroke="#F7FFFF" stroke-opacity="0.15" stroke-width="0.63" stroke-miterlimit="10"/>
<path d="M38.0199 99.346C38.0459 99.181 38.0679 99.016 38.0859 98.846C38.0949 98.763 38.1029 98.681 38.1099 98.598C38.1239 98.432 38.1339 98.267 38.1399 98.098V98.012C38.1399 97.949 38.1399 97.886 38.1399 97.822V97.597C38.1331 96.9728 38.0688 96.3505 37.9479 95.738L40.9999 92.938L38.7539 88.961L34.7759 90.124C34.6339 89.9954 34.4889 89.8707 34.3409 89.75C34.2076 89.6454 34.0743 89.5437 33.9409 89.445C33.8739 89.395 33.8059 89.345 33.7409 89.3C33.6049 89.2 33.4659 89.113 33.3259 89.026L33.2829 88.999L33.2519 88.981L33.0899 88.881L32.9259 88.781L32.8939 88.763L32.8509 88.738C32.6329 88.618 32.4109 88.505 32.1849 88.399C31.8588 88.2484 31.525 88.1148 31.1849 87.999L30.2849 83.954L25.7179 83.91L24.7359 87.937C24.3962 88.0461 24.0624 88.1729 23.7359 88.317C23.5079 88.417 23.2839 88.526 23.0639 88.643L23.0199 88.667L22.9879 88.684C22.9319 88.714 22.8769 88.745 22.8219 88.776L22.7979 88.789L22.6579 88.871L22.6269 88.889C22.5419 88.94 22.4559 88.989 22.3719 89.044C22.2879 89.099 22.2319 89.134 22.1629 89.18C21.7962 89.4235 21.4458 89.6908 21.1139 89.98L17.1579 88.74L14.8369 92.673L17.8369 95.536C17.7809 95.796 17.7349 96.0567 17.6989 96.318C17.6859 96.411 17.6749 96.503 17.6649 96.596C17.6469 96.757 17.6329 96.917 17.6239 97.078V97.102C17.6239 97.202 17.6149 97.294 17.6119 97.391V97.427C17.6119 97.481 17.6119 97.535 17.6119 97.589V97.616C17.6119 97.68 17.6119 97.743 17.6119 97.806V97.842C17.6192 98.4662 17.6835 99.0885 17.8039 99.701L14.7529 102.501L16.9979 106.478L20.9769 105.315C21.3033 105.612 21.6487 105.887 22.0109 106.139C22.1469 106.239 22.2859 106.325 22.4259 106.413L22.4689 106.439L22.5019 106.46C22.5549 106.492 22.6079 106.525 22.6619 106.56C22.7159 106.595 22.7719 106.624 22.8269 106.66L22.8569 106.677L22.9009 106.702C23.1179 106.823 23.3399 106.935 23.5669 107.04C23.8929 107.191 24.2267 107.325 24.5669 107.44L25.4669 111.485L30.0339 111.529L31.0149 107.502C31.3563 107.393 31.6918 107.266 32.0199 107.122C32.2479 107.022 32.4719 106.913 32.6919 106.796L32.7359 106.772L32.7659 106.755L32.9339 106.663L32.9569 106.65C33.0039 106.624 33.0499 106.596 33.0959 106.569L33.1289 106.55C33.666 106.231 34.1724 105.862 34.6419 105.45L38.5969 106.69L40.9189 102.757L37.9189 99.894C37.9549 99.7167 37.9886 99.534 38.0199 99.346ZM30.9059 103.361L30.8789 103.376C29.9828 103.851 28.9871 104.108 27.9729 104.125H27.9419C27.8969 104.125 27.8519 104.125 27.8059 104.125H27.6529C26.6398 104.089 25.6495 103.815 24.7619 103.325L24.7349 103.309L24.6189 103.241L24.5189 103.179L24.4919 103.162C23.6333 102.623 22.9139 101.889 22.3919 101.02L22.3729 100.986C22.3499 100.948 22.3289 100.909 22.3069 100.87C22.2849 100.831 22.2659 100.799 22.2459 100.762L22.2319 100.735C21.7568 99.8389 21.5001 98.8432 21.4829 97.829V97.798C21.4829 97.753 21.4829 97.708 21.4829 97.662C21.4829 97.616 21.4829 97.581 21.4829 97.541V97.509C21.5203 96.4952 21.7961 95.5044 22.2879 94.617L22.3019 94.592C22.3239 94.552 22.3479 94.513 22.3709 94.474C22.3939 94.435 22.4119 94.404 22.4339 94.374L22.4489 94.349C22.9884 93.49 23.7229 92.7705 24.5929 92.249L24.6189 92.234C24.6539 92.213 24.6889 92.194 24.7249 92.174C24.7609 92.154 24.8039 92.129 24.8439 92.107L24.8699 92.093C25.7664 91.6179 26.7625 91.3612 27.7769 91.344H27.8069C27.8489 91.344 27.8909 91.344 27.9329 91.344H28.0949C29.1084 91.3795 30.0993 91.6536 30.9869 92.144L31.0139 92.159C31.0509 92.179 31.0869 92.201 31.1229 92.223L31.2359 92.29L31.2619 92.306C32.1208 92.8452 32.8403 93.5794 33.3619 94.449L33.3779 94.475L33.4399 94.583C33.4609 94.622 33.4839 94.66 33.5049 94.699L33.5189 94.727C33.9941 95.6231 34.2507 96.6189 34.2679 97.633V97.664C34.2679 97.705 34.2679 97.746 34.2679 97.787C34.2679 97.828 34.2679 97.876 34.2679 97.921V97.952C34.2309 98.9653 33.9551 99.9555 33.4629 100.842L33.4479 100.871C33.4279 100.906 33.4069 100.94 33.3859 100.971C33.3649 101.002 33.3409 101.049 33.3179 101.087L33.2999 101.115C32.7613 101.974 32.0278 102.693 31.1589 103.215L31.1319 103.231L31.0119 103.299C30.9729 103.323 30.9409 103.343 30.9059 103.361Z" fill="#FFB635" fill-opacity="0.94"/>
<path d="M6.12537 230.672C6.15237 230.507 6.17438 230.342 6.19238 230.172C6.20138 230.09 6.20938 230.007 6.21638 229.924C6.23038 229.759 6.24038 229.593 6.24638 229.424V229.338C6.24638 229.275 6.24638 229.212 6.24638 229.149C6.24638 229.086 6.24638 229.022 6.24638 228.959V228.923C6.23951 228.299 6.17523 227.676 6.05437 227.064L9.10538 224.264L6.86037 220.287L2.88237 221.45C2.74037 221.321 2.59538 221.197 2.44737 221.076C2.31404 220.971 2.18071 220.869 2.04737 220.771C1.97937 220.722 1.91237 220.671 1.84737 220.626C1.71037 220.526 1.57238 220.44 1.43138 220.352L1.38837 220.326L1.35838 220.307L1.19637 220.207L1.03238 220.113L1.00037 220.094L0.956375 220.069C0.739042 219.949 0.517374 219.836 0.291374 219.731C-0.0348396 219.58 -0.368618 219.447 -0.708626 219.331L-1.60863 215.286L-6.17463 215.242L-7.15662 219.269C-7.49624 219.378 -7.83001 219.505 -8.15663 219.649C-8.38596 219.75 -8.60996 219.859 -8.82862 219.975L-8.87263 219.999L-8.90462 220.017L-9.07063 220.108L-9.09463 220.121L-9.23462 220.203L-9.26562 220.221C-9.35162 220.272 -9.43663 220.321 -9.52063 220.377C-9.60463 220.433 -9.66063 220.466 -9.72963 220.512C-10.0964 220.756 -10.4472 221.023 -10.7796 221.312L-14.7346 220.072L-17.0556 224.005L-14.0556 226.869C-14.1116 227.128 -14.1556 227.389 -14.1936 227.65C-14.2066 227.743 -14.2186 227.835 -14.2286 227.928C-14.2456 228.089 -14.2596 228.249 -14.2686 228.41V228.434C-14.2746 228.534 -14.2786 228.627 -14.2816 228.723V228.759C-14.2816 228.813 -14.2816 228.867 -14.2816 228.921V228.949C-14.2816 229.012 -14.2816 229.075 -14.2816 229.138V229.174C-14.2743 229.798 -14.21 230.42 -14.0896 231.033L-17.1406 233.833L-14.8956 237.81L-10.9176 236.647C-10.5909 236.944 -10.2452 237.219 -9.88263 237.471C-9.74929 237.566 -9.61096 237.658 -9.46763 237.746L-9.42562 237.772L-9.39162 237.792L-9.23263 237.892C-9.17763 237.925 -9.12163 237.956 -9.06663 237.992L-9.03662 238.009L-8.99263 238.034C-8.77529 238.155 -8.55363 238.268 -8.32763 238.373C-8.0016 238.524 -7.6678 238.657 -7.32763 238.773L-6.42763 242.818L-1.86063 242.862L-0.879625 238.835C-0.5397 238.726 -0.205881 238.599 0.120375 238.455C0.349041 238.355 0.573042 238.246 0.792376 238.129L0.837376 238.105L0.867374 238.089C0.923374 238.058 0.979374 238.028 1.03437 237.996L1.05837 237.983C1.10538 237.957 1.15137 237.93 1.19737 237.902L1.23038 237.883C1.76727 237.563 2.27372 237.195 2.74337 236.783L6.69838 238.023L9.02037 234.09L6.02037 231.226C6.06038 231.044 6.09537 230.857 6.12537 230.672ZM-0.987625 234.688L-1.01562 234.702C-1.91142 235.177 -2.90681 235.434 -3.92062 235.451H-4.08763H-4.20963H-4.24063C-5.25379 235.415 -6.24428 235.141 -7.13163 234.651L-7.15862 234.636L-7.27462 234.568L-7.37963 234.505L-7.40662 234.488C-8.26538 233.949 -8.98487 233.215 -9.50663 232.346L-9.52262 232.32L-9.58862 232.203L-9.64862 232.096L-9.66363 232.068C-10.138 231.172 -10.3943 230.176 -10.4116 229.162V229.131C-10.4116 229.086 -10.4116 229.041 -10.4116 228.996C-10.4116 228.951 -10.4116 228.915 -10.4116 228.874V228.843C-10.3766 227.829 -10.1025 226.838 -9.61163 225.951L-9.59763 225.925C-9.57563 225.886 -9.55162 225.847 -9.52863 225.807L-9.46663 225.707L-9.45062 225.683C-8.91137 224.824 -8.17675 224.104 -7.30663 223.583L-7.28162 223.568C-7.24662 223.547 -7.21063 223.528 -7.17463 223.508L-7.05663 223.441L-7.02962 223.427C-6.13333 222.952 -5.13771 222.696 -4.12362 222.678H-4.08663C-4.04463 222.678 -4.00262 222.678 -3.96062 222.678H-3.79862C-2.78512 222.713 -1.79429 222.988 -0.906626 223.478L-0.879625 223.493L-0.770626 223.557L-0.658625 223.624L-0.632626 223.64C0.227304 224.175 0.948853 224.906 1.47338 225.772L1.48938 225.798C1.51038 225.834 1.53037 225.871 1.55037 225.907C1.57038 225.943 1.59438 225.983 1.61637 226.023L1.63037 226.05C2.10285 226.946 2.35739 227.942 2.37337 228.955V228.986C2.37337 229.027 2.37337 229.068 2.37337 229.109C2.37337 229.15 2.37337 229.199 2.37337 229.244V229.274C2.33619 230.287 2.06038 231.278 1.56837 232.165L1.55238 232.193C1.53238 232.228 1.51237 232.263 1.49137 232.293C1.47038 232.323 1.44637 232.371 1.42237 232.409L1.40537 232.437C0.866793 233.296 0.133265 234.015 -0.735624 234.537L-0.762625 234.553C-0.802626 234.577 -0.842625 234.599 -0.882626 234.621L-0.987625 234.688Z" fill="#FFB635"/>
<path d="M246.598 413.039C275.638 383.999 275.638 336.915 246.598 307.875C217.558 278.835 170.475 278.835 141.434 307.875C112.394 336.915 112.394 383.999 141.434 413.039C170.475 442.079 217.558 442.079 246.598 413.039Z" stroke="#F7FFFF" stroke-opacity="0.15" stroke-width="0.42" stroke-miterlimit="10"/>
<path d="M50.7515 238.442C85.3963 238.442 113.481 210.357 113.481 175.712C113.481 141.067 85.3963 112.982 50.7515 112.982C16.1067 112.982 -11.9785 141.067 -11.9785 175.712C-11.9785 210.357 16.1067 238.442 50.7515 238.442Z" stroke="#F7FFFF" stroke-opacity="0.15" stroke-width="0.21" stroke-miterlimit="10"/>
<path d="M296.347 462.785C352.861 406.271 352.861 314.643 296.347 258.129C239.833 201.614 148.205 201.614 91.6906 258.129C35.1762 314.643 35.1762 406.271 91.6906 462.785C148.205 519.3 239.833 519.3 296.347 462.785Z" stroke="#F7FFFF" stroke-opacity="0.15" stroke-width="0.21" stroke-miterlimit="10"/>
<path d="M104.735 184.396C109.532 154.582 89.2504 126.524 59.436 121.728C29.6215 116.931 1.56385 137.213 -3.23248 167.027C-8.0288 196.842 12.2524 224.899 42.0669 229.696C71.8814 234.492 99.939 214.211 104.735 184.396Z" stroke="#F7FFFF" stroke-opacity="0.15" stroke-width="1.679" stroke-miterlimit="10"/>
<path d="M296.807 352.846V279.717H382.914V352.846" stroke="#F7FFFF" stroke-opacity="0.15" stroke-width="0.63" stroke-miterlimit="10"/>
<path d="M-4.01855 201.046H176.834V352.846" stroke="#F7FFFF" stroke-opacity="0.15" stroke-width="0.42" stroke-miterlimit="10"/>
<path d="M-4.01953 57.699H127.503V352.843" stroke="#F7FFFF" stroke-opacity="0.15" stroke-width="0.42" stroke-miterlimit="10"/>
</svg>
