<svg width="440" height="400" viewBox="0 0 440 400" fill="none" xmlns="http://www.w3.org/2000/svg">
<path d="M303.647 181.694C303.661 181.812 303.675 181.931 303.691 182.05C303.7 182.12 303.711 182.189 303.721 182.259C303.731 182.329 303.741 182.399 303.752 182.468C303.77 182.586 303.791 182.704 303.811 182.822L303.822 182.884C303.828 182.916 303.833 182.949 303.839 182.985C303.894 183.279 303.956 183.571 304.025 183.861C304.05 183.967 304.077 184.073 304.105 184.179L299.437 187.206L300.922 190.657L306.329 189.348C306.563 189.719 306.81 190.082 307.071 190.438L307.109 190.49C307.181 190.59 307.252 190.682 307.326 190.777C307.368 190.832 307.412 190.887 307.456 190.942C307.5 190.997 307.543 191.053 307.587 191.108C307.663 191.202 307.74 191.294 307.817 191.386L307.857 191.433C308.142 191.771 308.439 192.096 308.746 192.409L306.217 197.364L309.229 199.61L313.257 195.772C313.645 195.978 314.041 196.169 314.445 196.347L314.503 196.371C314.613 196.419 314.723 196.472 314.834 196.513L315.034 196.591L315.234 196.669C315.346 196.712 315.459 196.753 315.571 196.794L315.631 196.815C316.047 196.965 316.466 197.098 316.888 197.216L317.176 202.772L320.907 203.211L322.477 197.874C322.916 197.858 323.355 197.824 323.794 197.774L323.855 197.767L324.143 197.733L324.213 197.723L324.423 197.693L324.631 197.662C324.749 197.643 324.867 197.623 324.985 197.602L325.035 197.593H325.048C325.482 197.513 325.912 197.419 326.337 197.311L329.363 201.978L332.815 200.493L331.506 195.086C331.598 195.028 331.691 194.97 331.782 194.91C332.031 194.746 332.277 194.577 332.519 194.402L332.597 194.343L332.607 194.337L332.647 194.306C332.744 194.235 332.84 194.163 332.935 194.09L333.1 193.96C333.155 193.916 333.211 193.873 333.266 193.828L333.321 193.784C333.396 193.723 333.47 193.661 333.543 193.599L333.592 193.559C333.929 193.273 334.254 192.976 334.567 192.67L339.522 195.198L341.768 192.186L337.931 188.158C338.136 187.77 338.328 187.374 338.505 186.97L338.531 186.91C338.578 186.801 338.625 186.692 338.67 186.581C338.698 186.516 338.723 186.449 338.75 186.381L338.826 186.181C338.87 186.069 338.912 185.955 338.953 185.841L338.974 185.785C339.123 185.369 339.256 184.949 339.374 184.527L344.93 184.239L345.369 180.507L340.032 178.938C340.016 178.5 339.983 178.061 339.932 177.621L339.924 177.56C339.911 177.441 339.897 177.322 339.881 177.203L339.851 176.993C339.84 176.923 339.831 176.854 339.82 176.785C339.801 176.666 339.781 176.548 339.76 176.43L339.749 176.368C339.67 175.933 339.576 175.503 339.467 175.079L344.134 172.052L342.649 168.601L337.242 169.91C337.009 169.539 336.762 169.174 336.5 168.819L336.462 168.768C336.391 168.668 336.319 168.576 336.246 168.481C336.203 168.425 336.159 168.37 336.116 168.315L335.984 168.149C335.909 168.056 335.832 167.964 335.755 167.872L335.715 167.824C335.429 167.487 335.133 167.162 334.826 166.848L337.354 161.893L334.342 159.647L330.314 163.484C329.927 163.279 329.531 163.088 329.126 162.91L329.07 162.886C328.959 162.838 328.848 162.786 328.736 162.745C328.672 162.718 328.607 162.693 328.542 162.667C328.477 162.641 328.411 162.614 328.342 162.589C328.23 162.546 328.118 162.504 328.006 162.464L327.945 162.441C327.53 162.292 327.11 162.159 326.688 162.041L326.4 156.486L322.669 156.047L321.099 161.383C320.661 161.399 320.222 161.433 319.783 161.483L319.72 161.49C319.62 161.501 319.529 161.511 319.433 161.524L319.364 161.534C319.293 161.543 319.224 161.554 319.153 161.564L318.946 161.595C318.827 161.613 318.709 161.634 318.591 161.655L318.541 161.663H318.529C318.094 161.742 317.665 161.836 317.24 161.946L314.213 157.278L310.762 158.763L312.071 164.17C311.699 164.404 311.335 164.651 310.979 164.913L310.969 164.92L310.931 164.949C310.831 165.021 310.737 165.093 310.641 165.167C310.586 165.209 310.532 165.252 310.478 165.295C310.424 165.338 310.365 165.384 310.31 165.429L310.255 165.472L310.034 165.656L309.984 165.698C309.647 165.982 309.322 166.279 309.009 166.587L304.054 164.058L301.808 167.07L305.645 171.098C305.44 171.486 305.248 171.882 305.071 172.286L305.046 172.344C304.999 172.454 304.946 172.565 304.906 172.676L304.897 172.696L304.889 172.714C304.868 172.766 304.848 172.814 304.827 172.871C304.806 172.928 304.775 173.002 304.75 173.071C304.707 173.184 304.665 173.296 304.624 173.409L304.602 173.468C304.453 173.884 304.32 174.303 304.202 174.725L298.647 175.013L298.208 178.744L303.544 180.313C303.561 180.751 303.595 181.19 303.644 181.63L303.647 181.694ZM315.617 166.06C315.712 166.017 315.808 165.977 315.904 165.936C316 165.895 316.078 165.86 316.167 165.824L316.235 165.796C318.43 164.92 320.8 164.575 323.154 164.788L323.227 164.795C323.327 164.805 323.435 164.819 323.539 164.831C323.643 164.843 323.728 164.852 323.821 164.865L323.894 164.875C326.234 165.214 328.461 166.1 330.394 167.462L330.453 167.504C330.538 167.565 330.621 167.628 330.704 167.691C330.787 167.754 330.858 167.803 330.933 167.862L330.991 167.907C332.847 169.37 334.331 171.251 335.324 173.396L335.354 173.462C335.398 173.562 335.438 173.656 335.48 173.753C335.522 173.85 335.555 173.925 335.591 174.012L335.618 174.079C336.494 176.275 336.84 178.647 336.626 181.002L336.62 181.07C336.609 181.17 336.596 181.279 336.583 181.384C336.57 181.489 336.562 181.574 336.549 181.669L336.54 181.736C336.201 184.076 335.314 186.303 333.951 188.236L333.91 188.294C333.854 188.371 333.796 188.446 333.739 188.522C333.682 188.598 333.615 188.691 333.551 188.774L333.507 188.831C332.044 190.687 330.163 192.172 328.017 193.165L327.952 193.194C327.863 193.234 327.773 193.272 327.683 193.31C327.593 193.348 327.495 193.393 327.4 193.432L327.335 193.458C325.14 194.334 322.768 194.679 320.414 194.466L320.342 194.46C320.242 194.45 320.142 194.437 320.048 194.425C319.954 194.413 319.848 194.403 319.748 194.389L319.677 194.379C317.337 194.04 315.11 193.153 313.177 191.791L313.119 191.75C313.039 191.693 312.962 191.634 312.884 191.575C312.806 191.516 312.719 191.454 312.638 191.391L312.581 191.347C310.725 189.883 309.241 188.002 308.248 185.856L308.218 185.792C308.179 185.705 308.143 185.618 308.105 185.531C308.067 185.444 308.02 185.338 307.981 185.24L307.954 185.174C307.079 182.979 306.733 180.609 306.946 178.256L306.953 178.179C306.963 178.085 306.975 177.99 306.986 177.895C306.997 177.8 307.009 177.69 307.023 177.588L307.034 177.513C307.373 175.174 308.259 172.949 309.62 171.019L309.662 170.96C309.724 170.873 309.788 170.79 309.851 170.705C309.914 170.62 309.962 170.554 310.02 170.479L310.065 170.422C311.528 168.565 313.409 167.081 315.554 166.089L315.617 166.06Z" stroke="#F7FFFF" stroke-opacity="0.15" stroke-width="0.42" stroke-miterlimit="10"/>
<path d="M402.62 342.959C402.634 343.078 402.648 343.197 402.664 343.315C402.673 343.386 402.684 343.456 402.694 343.526C402.704 343.596 402.714 343.664 402.725 343.733C402.743 343.852 402.763 343.97 402.784 344.088L402.795 344.15C402.801 344.182 402.806 344.214 402.812 344.25C402.866 344.544 402.928 344.836 402.998 345.126C403.023 345.232 403.05 345.338 403.077 345.443L398.41 348.47L399.895 351.921L405.302 350.613C405.534 350.985 405.782 351.348 406.044 351.704L406.082 351.754C406.153 351.854 406.225 351.946 406.299 352.041C406.341 352.097 406.385 352.152 406.428 352.207L406.56 352.373C406.636 352.467 406.713 352.559 406.79 352.651L406.829 352.698C407.115 353.036 407.411 353.361 407.719 353.674L405.19 358.629L408.202 360.875L412.23 357.038C412.617 357.244 413.013 357.435 413.418 357.612L413.476 357.637C413.586 357.684 413.696 357.737 413.807 357.777L414.007 357.856L414.207 357.933C414.319 357.977 414.432 358.018 414.544 358.059L414.604 358.081C415.019 358.23 415.439 358.363 415.861 358.481L416.149 364.036L419.88 364.476L421.45 359.139C421.888 359.123 422.327 359.089 422.767 359.039L422.828 359.032C422.928 359.021 423.02 359.011 423.116 358.998L423.185 358.988C423.256 358.979 423.326 358.968 423.396 358.958L423.604 358.928C423.722 358.91 423.84 358.89 423.958 358.868L424.008 358.859H424.02C424.455 358.78 424.884 358.686 425.309 358.577L428.336 363.244L431.788 361.759L430.479 356.352C430.571 356.294 430.663 356.236 430.755 356.176C431.003 356.014 431.249 355.844 431.492 355.668L431.57 355.61L431.58 355.602L431.62 355.572C431.72 355.501 431.813 355.429 431.908 355.355C431.963 355.313 432.018 355.269 432.073 355.226L432.239 355.094L432.294 355.05C432.369 354.989 432.442 354.927 432.516 354.865L432.565 354.824C432.901 354.539 433.226 354.243 433.54 353.935L438.495 356.464L440.737 353.448L436.9 349.42C437.105 349.034 437.296 348.638 437.474 348.232L437.5 348.172C437.547 348.063 437.594 347.953 437.639 347.843L437.719 347.643C437.744 347.579 437.77 347.514 437.795 347.449C437.839 347.336 437.881 347.223 437.922 347.11L437.943 347.053C438.091 346.637 438.225 346.218 438.343 345.795L443.899 345.507L444.338 341.776L439.001 340.206C438.983 339.768 438.95 339.329 438.901 338.889L438.893 338.828C438.88 338.709 438.865 338.59 438.849 338.471C438.839 338.4 438.829 338.33 438.819 338.261C438.809 338.191 438.8 338.122 438.789 338.052C438.769 337.934 438.749 337.816 438.729 337.698L438.718 337.636C438.639 337.202 438.545 336.772 438.436 336.347L443.103 333.32L441.618 329.868L436.211 331.177C435.977 330.806 435.73 330.442 435.469 330.086L435.431 330.035C435.36 329.935 435.288 329.843 435.215 329.748L435.085 329.583L434.953 329.417C434.877 329.324 434.801 329.231 434.724 329.14L434.684 329.092C434.398 328.754 434.101 328.429 433.795 328.116L436.323 323.161L433.311 320.915L429.283 324.752C428.896 324.552 428.499 324.352 428.095 324.178L428.039 324.154C427.928 324.106 427.817 324.054 427.705 324.012L427.511 323.934L427.311 323.856C427.199 323.813 427.087 323.772 426.975 323.731L426.914 323.709C426.498 323.561 426.079 323.427 425.657 323.309L425.369 317.753L421.638 317.314L420.068 322.651C419.63 322.668 419.191 322.701 418.752 322.751L418.689 322.759C418.594 322.77 418.498 322.78 418.402 322.793L418.333 322.803C418.262 322.812 418.192 322.822 418.122 322.833L417.915 322.863C417.796 322.882 417.678 322.902 417.56 322.923L417.51 322.932H417.498C417.063 323.012 416.633 323.106 416.209 323.214L413.182 318.547L409.737 320.033L411.037 325.441C410.665 325.675 410.302 325.922 409.946 326.184L409.936 326.19L409.898 326.22C409.798 326.291 409.704 326.364 409.608 326.438C409.553 326.48 409.499 326.523 409.445 326.566C409.391 326.609 409.332 326.654 409.276 326.7L409.222 326.743C409.148 326.803 409.075 326.865 409.001 326.927L408.951 326.969C408.613 327.255 408.288 327.551 407.976 327.857L403.021 325.329L400.775 328.341L404.612 332.369C404.407 332.756 404.212 333.153 404.038 333.557L404.013 333.615C403.966 333.725 403.913 333.835 403.873 333.946L403.864 333.966L403.856 333.985C403.835 334.037 403.815 334.09 403.794 334.142C403.773 334.194 403.742 334.273 403.717 334.342C403.673 334.454 403.632 334.567 403.591 334.679L403.569 334.739C403.42 335.154 403.287 335.574 403.169 335.996L397.614 336.284L397.174 340.015L402.511 341.585C402.527 342.023 402.561 342.462 402.611 342.901L402.62 342.959ZM414.59 327.326C414.685 327.283 414.781 327.243 414.876 327.202C414.971 327.161 415.051 327.125 415.14 327.089L415.208 327.062C417.403 326.187 419.773 325.842 422.127 326.054L422.2 326.061C422.3 326.071 422.408 326.085 422.512 326.097C422.616 326.109 422.7 326.118 422.794 326.131L422.867 326.141C425.207 326.48 427.434 327.366 429.367 328.728L429.426 328.77C429.511 328.831 429.593 328.894 429.677 328.956C429.761 329.018 429.83 329.069 429.906 329.128L429.964 329.173C431.82 330.637 433.304 332.518 434.297 334.662L434.327 334.727C434.37 334.827 434.411 334.922 434.453 335.019C434.495 335.116 434.528 335.191 434.564 335.277L434.591 335.345C435.467 337.542 435.812 339.914 435.599 342.268L435.593 342.335C435.582 342.441 435.569 342.545 435.556 342.65C435.543 342.755 435.535 342.84 435.522 342.935L435.513 343.002C435.173 345.343 434.286 347.57 432.924 349.502L432.883 349.559C432.827 349.637 432.769 349.712 432.712 349.789C432.655 349.866 432.588 349.958 432.524 350.041L432.48 350.096C431.016 351.954 429.135 353.439 426.989 354.43L426.925 354.46C426.836 354.5 426.746 354.538 426.656 354.576C426.566 354.614 426.468 354.659 426.373 354.698L426.308 354.724C424.112 355.6 421.74 355.945 419.386 355.732L419.315 355.725C419.215 355.715 419.115 355.703 419.021 355.691C418.927 355.679 418.821 355.669 418.721 355.655L418.65 355.645C416.31 355.307 414.083 354.42 412.15 353.057L412.092 353.016C412.012 352.959 411.935 352.9 411.857 352.841C411.779 352.782 411.692 352.72 411.611 352.657L411.554 352.613C409.698 351.15 408.213 349.268 407.221 347.122L407.191 347.058C407.152 346.971 407.115 346.883 407.078 346.796C407.041 346.709 406.993 346.604 406.953 346.506L406.927 346.44C406.051 344.245 405.706 341.875 405.919 339.521L405.926 339.445C405.935 339.345 405.948 339.256 405.959 339.161C405.97 339.066 405.982 338.961 405.996 338.854L406.007 338.778C406.346 336.441 407.232 334.216 408.593 332.285L408.635 332.225C408.696 332.139 408.761 332.055 408.824 331.971C408.887 331.887 408.935 331.819 408.993 331.745L409.038 331.688C410.501 329.832 412.382 328.347 414.527 327.354L414.59 327.326Z" stroke="#F7FFFF" stroke-opacity="0.15" stroke-width="0.42" stroke-miterlimit="10"/>
<path d="M438.072 220.207C438.054 220.045 438.035 219.883 438.013 219.721C438 219.621 437.986 219.53 437.972 219.435C437.958 219.34 437.945 219.246 437.93 219.152C437.905 218.99 437.877 218.829 437.848 218.668C437.843 218.64 437.839 218.612 437.834 218.583C437.829 218.554 437.819 218.496 437.811 218.453C437.736 218.053 437.652 217.656 437.558 217.26C437.523 217.115 437.486 216.971 437.449 216.827L443.809 212.702L441.785 208.002L434.417 209.786C434.1 209.28 433.763 208.785 433.406 208.299L433.354 208.23C433.254 208.099 433.16 207.968 433.06 207.839L432.883 207.613C432.823 207.538 432.764 207.462 432.703 207.387C432.603 207.259 432.496 207.134 432.39 207.009L432.336 206.944C431.947 206.484 431.544 206.041 431.125 205.615L434.57 198.862L430.47 195.801L424.981 201.03C424.453 200.752 423.913 200.491 423.362 200.248L423.283 200.214C423.133 200.149 422.983 200.085 422.831 200.022L422.565 199.915C422.476 199.88 422.387 199.844 422.297 199.815C422.145 199.756 421.991 199.699 421.838 199.644L421.757 199.614C421.191 199.414 420.62 199.233 420.044 199.069L419.652 191.498L414.567 190.898L412.427 198.17C411.827 198.193 411.229 198.237 410.634 198.303L410.55 198.313C410.419 198.328 410.288 198.342 410.158 198.359L410.063 198.372C409.963 198.385 409.872 198.4 409.777 198.414L409.493 198.455C409.332 198.481 409.171 198.508 409.01 198.537L408.942 198.548H408.925C408.333 198.656 407.748 198.784 407.169 198.932L403.044 192.572L398.344 194.596L400.127 201.964C400.002 202.043 399.876 202.122 399.751 202.204C399.412 202.426 399.079 202.657 398.751 202.896L398.645 202.975L398.631 202.985L398.576 203.027C398.443 203.125 398.312 203.223 398.184 203.322L397.959 203.499L397.732 203.679L397.657 203.738C397.557 203.821 397.457 203.906 397.357 203.99L397.291 204.045C396.832 204.434 396.389 204.838 395.962 205.257L389.21 201.811L386.149 205.911L391.378 211.4C391.099 211.928 390.839 212.468 390.596 213.019L390.561 213.101C390.494 213.251 390.431 213.4 390.37 213.549C390.333 213.639 390.298 213.729 390.262 213.819C390.226 213.909 390.192 213.995 390.162 214.083C390.102 214.237 390.045 214.391 389.989 214.546C389.98 214.572 389.97 214.598 389.961 214.624C389.757 215.19 389.575 215.762 389.415 216.338L381.845 216.73L381.245 221.815L388.518 223.954C388.54 224.554 388.584 225.152 388.65 225.748L388.66 225.832C388.679 225.994 388.698 226.156 388.72 226.318C388.733 226.418 388.747 226.509 388.761 226.605C388.775 226.701 388.788 226.794 388.803 226.888C388.828 227.05 388.856 227.211 388.885 227.371C388.89 227.4 388.894 227.428 388.899 227.456C389.007 228.05 389.135 228.635 389.284 229.213L382.924 233.338L384.948 238.038L392.316 236.254C392.633 236.76 392.97 237.256 393.327 237.741L393.379 237.81C393.479 237.941 393.573 238.072 393.673 238.201L393.85 238.426C393.91 238.502 393.969 238.578 394.03 238.653C394.133 238.78 394.237 238.906 394.342 239.031L394.397 239.096C394.786 239.556 395.19 239.999 395.608 240.425L392.163 247.178L396.263 250.238L401.737 245.015C402.265 245.294 402.805 245.555 403.357 245.797L403.433 245.83C403.584 245.895 403.733 245.96 403.887 246.023L404.152 246.129L404.421 246.235C404.573 246.294 404.721 246.35 404.879 246.406L404.961 246.436C405.528 246.636 406.099 246.818 406.674 246.981L407.066 254.552L412.151 255.152L414.291 247.879C414.891 247.857 415.489 247.813 416.084 247.747L416.169 247.737C416.3 247.722 416.43 247.708 416.56 247.691L416.66 247.677L416.947 247.636L417.23 247.594C417.391 247.569 417.552 247.541 417.713 247.513L417.781 247.501H417.798C418.39 247.395 418.975 247.267 419.554 247.117L423.679 253.477L428.379 251.453L426.596 244.085C427.102 243.767 427.598 243.43 428.083 243.073L428.096 243.064L428.149 243.024C428.281 242.924 428.413 242.824 428.543 242.724C428.618 242.666 428.691 242.607 428.765 242.549L428.995 242.367L429.07 242.308C429.17 242.225 429.27 242.141 429.37 242.057L429.438 242C429.898 241.611 430.341 241.207 430.767 240.789L437.519 244.235L440.58 240.13L435.351 234.641C435.631 234.113 435.892 233.574 436.133 233.022C436.145 232.996 436.156 232.969 436.167 232.943C436.232 232.793 436.297 232.643 436.359 232.492L436.371 232.464L436.381 232.439C436.41 232.368 436.437 232.296 436.466 232.225L436.572 231.958C436.63 231.806 436.687 231.652 436.743 231.498L436.772 231.418C436.976 230.851 437.158 230.28 437.318 229.704L444.888 229.312L445.488 224.227L438.215 222.088C438.193 221.488 438.149 220.891 438.083 220.295C438.079 220.264 438.076 220.235 438.072 220.207ZM421.761 241.507C421.632 241.565 421.501 241.62 421.371 241.675C421.241 241.73 421.133 241.775 421.012 241.829L420.919 241.867C417.928 243.06 414.697 243.531 411.49 243.24L411.39 243.231C411.248 243.217 411.106 243.199 410.964 243.181C410.822 243.163 410.708 243.153 410.58 243.136L410.48 243.122C407.293 242.66 404.26 241.452 401.627 239.597L401.546 239.539C401.43 239.456 401.318 239.37 401.205 239.285C401.092 239.2 400.995 239.131 400.892 239.052L400.813 238.99C398.286 236.996 396.264 234.434 394.913 231.511L394.872 231.421C394.812 231.289 394.757 231.156 394.7 231.021C394.643 230.886 394.6 230.787 394.549 230.668L394.512 230.576C393.319 227.584 392.848 224.352 393.138 221.143L393.147 221.051C393.161 220.907 393.18 220.765 393.197 220.622C393.214 220.479 393.225 220.363 393.243 220.234L393.256 220.143C393.718 216.953 394.927 213.917 396.784 211.282L396.839 211.204C396.915 211.098 396.994 210.995 397.072 210.891C397.15 210.787 397.241 210.661 397.329 210.547L397.388 210.472C399.383 207.942 401.946 205.919 404.87 204.566L404.958 204.526C405.079 204.471 405.202 204.42 405.324 204.368C405.446 204.316 405.581 204.255 405.71 204.202L405.799 204.166C408.791 202.973 412.023 202.503 415.231 202.793L415.331 202.802C415.465 202.815 415.598 202.832 415.731 202.848C415.864 202.864 416.006 202.879 416.143 202.897L416.243 202.911C419.429 203.376 422.46 204.585 425.09 206.441L425.169 206.497C425.278 206.574 425.383 206.655 425.49 206.735C425.597 206.815 425.715 206.9 425.825 206.986L425.902 207.046C428.432 209.041 430.455 211.605 431.807 214.528L431.848 214.616C431.901 214.734 431.948 214.853 432.002 214.972C432.056 215.091 432.117 215.235 432.171 215.372C432.184 215.402 432.195 215.432 432.207 215.462C433.4 218.453 433.871 221.683 433.581 224.89L433.571 224.99C433.559 225.12 433.542 225.248 433.526 225.378C433.51 225.508 433.495 225.657 433.476 225.796L433.462 225.896C432.999 229.082 431.791 232.114 429.937 234.745L429.88 234.826C429.796 234.943 429.709 235.057 429.622 235.173C429.535 235.289 429.471 235.379 429.392 235.48C429.372 235.506 429.351 235.532 429.331 235.559C427.336 238.087 424.774 240.108 421.851 241.459L421.761 241.507Z" fill="#FFB635" fill-opacity="0.69"/>
<path d="M122.817 98.0185L122.774 98.0425M122.761 115.541L122.718 115.516M132.826 115.569L132.869 115.544M132.882 98.0475L132.924 98.0725M137.906 106.181L137.9 106.104M154.343 100.659C154.303 100.485 154.262 100.312 154.218 100.139C154.192 100.039 154.165 99.9385 154.138 99.8315C154.111 99.7245 154.085 99.6315 154.057 99.5315C154.009 99.3582 153.96 99.1862 153.908 99.0155C153.899 98.9855 153.891 98.9555 153.881 98.9255C153.868 98.8795 153.855 98.8325 153.841 98.7865C153.661 98.2035 153.461 97.6295 153.241 97.0635L159.641 91.7865L156.854 86.9255L149.065 89.7815C148.657 89.2715 148.229 88.7749 147.781 88.2915L147.715 88.2215C147.594 88.0915 147.471 87.9615 147.347 87.8335C147.274 87.7585 147.199 87.6845 147.126 87.6105C147.053 87.5365 146.978 87.4605 146.903 87.3865C146.775 87.2605 146.645 87.1375 146.515 87.0145L146.448 86.9505C145.968 86.4992 145.474 86.0679 144.966 85.6565L147.872 77.8855L143.037 75.0665L137.719 81.4345C137.363 81.2945 137.002 81.1612 136.636 81.0345C136.38 80.9465 136.121 80.8645 135.862 80.7845L135.769 80.7565C135.599 80.7045 135.429 80.6565 135.257 80.6045L134.957 80.5215C134.857 80.4945 134.757 80.4665 134.657 80.4405C134.483 80.3945 134.308 80.3525 134.133 80.3105L134.045 80.2895C133.403 80.1389 132.759 80.0122 132.113 79.9095L130.737 71.7285L125.137 71.7115L123.716 79.8845C123.07 79.9832 122.426 80.1059 121.783 80.2525L121.692 80.2735C121.552 80.3055 121.412 80.3375 121.272 80.3735L121.172 80.4005C121.072 80.4255 120.972 80.4535 120.866 80.4805L120.566 80.5615C120.394 80.6085 120.222 80.6615 120.051 80.7095L119.978 80.7315H119.961C119.33 80.9215 118.709 81.1339 118.099 81.3685L112.822 74.9685L107.96 77.7545L110.817 85.5435C110.307 85.9529 109.81 86.3812 109.326 86.8285L109.313 86.8405L109.257 86.8935C109.127 87.0155 108.997 87.1375 108.869 87.2625C108.794 87.3355 108.72 87.4095 108.646 87.4825C108.572 87.5555 108.496 87.6315 108.422 87.7065C108.397 87.7315 108.372 87.7555 108.348 87.7805C108.248 87.8805 108.148 87.9885 108.048 88.0935C108.026 88.1155 108.005 88.1385 107.984 88.1605C107.533 88.6405 107.1 89.1349 106.684 89.6435L98.9093 86.7415L96.0923 91.5855L102.461 96.9025C102.223 97.5119 102.007 98.1312 101.812 98.7605L101.785 98.8505C101.733 99.0212 101.683 99.1925 101.633 99.3645C101.604 99.4645 101.577 99.5645 101.549 99.6705C101.528 99.7505 101.504 99.8305 101.483 99.9115L101.476 99.9405L101.468 99.9725C101.423 100.146 101.381 100.32 101.339 100.494C101.332 100.524 101.324 100.555 101.317 100.585C101.167 101.227 101.041 101.87 100.938 102.516L92.7553 103.885L92.7373 109.485L100.911 110.905C101.01 111.551 101.132 112.195 101.278 112.838C101.285 112.87 101.293 112.9 101.3 112.932C101.34 113.105 101.381 113.278 101.425 113.451C101.451 113.551 101.479 113.657 101.506 113.76C101.533 113.863 101.559 113.96 101.586 114.06C101.634 114.233 101.686 114.406 101.736 114.578C101.745 114.607 101.753 114.636 101.762 114.665C101.952 115.296 102.165 115.917 102.399 116.528L95.9993 121.805L98.7853 126.666L106.574 123.81C106.983 124.32 107.411 124.817 107.859 125.301L107.921 125.366C108.044 125.498 108.167 125.629 108.293 125.758C108.365 125.832 108.438 125.905 108.511 125.978C108.584 126.051 108.661 126.13 108.737 126.205C108.864 126.33 108.992 126.452 109.121 126.574L109.192 126.642C109.672 127.092 110.166 127.523 110.674 127.935L107.768 135.706L112.612 138.523L117.929 132.155C118.539 132.393 119.158 132.609 119.787 132.804L119.875 132.83C120.046 132.882 120.218 132.93 120.392 132.983L120.692 133.065L120.998 133.148C121.171 133.192 121.344 133.234 121.516 133.276L121.611 133.299C122.253 133.449 122.896 133.575 123.541 133.678L124.91 141.861L130.51 141.879L131.931 133.704C132.577 133.606 133.222 133.483 133.864 133.337L133.956 133.316C134.096 133.283 134.236 133.252 134.375 133.216L134.475 133.189C134.575 133.164 134.675 133.136 134.781 133.109L135.081 133.028C135.253 132.98 135.425 132.93 135.596 132.879C135.62 132.872 135.645 132.866 135.669 132.858H135.687C136.317 132.668 136.938 132.455 137.549 132.221L142.825 138.621L147.687 135.835L144.837 128.042C145.348 127.633 145.845 127.204 146.329 126.756L146.342 126.745C146.359 126.728 146.376 126.711 146.394 126.695C146.528 126.571 146.658 126.447 146.786 126.322C146.86 126.251 146.933 126.177 147.006 126.105C147.079 126.033 147.158 125.955 147.233 125.878C147.257 125.853 147.282 125.829 147.307 125.805C147.407 125.705 147.507 125.598 147.602 125.495L147.669 125.424C148.12 124.944 148.551 124.45 148.963 123.942L156.737 126.852L159.554 122.008L153.185 116.691C153.423 116.081 153.64 115.462 153.834 114.832L153.861 114.745C153.913 114.573 153.964 114.4 154.013 114.228C154.042 114.128 154.069 114.028 154.096 113.928C154.123 113.828 154.152 113.728 154.178 113.622C154.223 113.45 154.265 113.278 154.306 113.105C154.314 113.073 154.322 113.042 154.329 113.005C154.34 112.958 154.353 112.911 154.363 112.865C154.499 112.265 154.613 111.673 154.709 111.075L162.891 109.706L162.909 104.106L154.735 102.686C154.637 102.039 154.515 101.394 154.368 100.752C154.358 100.721 154.35 100.69 154.343 100.659ZM127.343 84.5745H127.449C127.594 84.5745 127.739 84.5745 127.883 84.5745C128.027 84.5745 128.19 84.5745 128.344 84.5745C128.38 84.5745 128.415 84.5745 128.451 84.5745C131.711 84.6732 134.91 85.4823 137.824 86.9455L131.708 97.4615C129.242 96.4367 126.47 96.4295 123.998 97.4415L117.949 86.8865C120.873 85.4417 124.077 84.6526 127.337 84.5745H127.343ZM127.803 114.082C126.362 114.077 124.955 113.646 123.759 112.841C122.563 112.037 121.633 110.896 121.085 109.563C120.538 108.23 120.398 106.765 120.684 105.352C120.969 103.94 121.667 102.644 122.689 101.628C123.711 100.612 125.012 99.922 126.426 99.6452C127.84 99.3685 129.305 99.5173 130.635 100.073C131.964 100.629 133.099 101.566 133.896 102.767C134.693 103.967 135.116 105.377 135.111 106.819C135.103 108.751 134.329 110.601 132.958 111.963C131.587 113.324 129.732 114.086 127.799 114.082H127.803ZM108.337 96.1015L108.387 96.0105C108.457 95.8855 108.53 95.7635 108.601 95.6405C108.672 95.5175 108.757 95.3695 108.838 95.2355L108.893 95.1455C110.609 92.3719 112.91 90.0062 115.634 88.2135L121.684 98.7705C119.564 100.391 118.171 102.785 117.811 105.43L105.642 105.392C105.853 102.136 106.773 98.965 108.337 96.1015ZM117.748 106.044C117.748 106.069 117.748 106.095 117.742 106.12L117.748 106.044ZM115.516 125.301C112.804 123.491 110.519 121.111 108.821 118.327L108.764 118.234C108.685 118.101 108.609 117.965 108.532 117.834C108.455 117.703 108.389 117.589 108.32 117.464C108.303 117.432 108.286 117.399 108.268 117.364C106.725 114.492 105.826 111.318 105.635 108.064L117.803 108.102C118.148 110.748 119.526 113.149 121.637 114.782L115.516 125.301ZM117.737 107.408C117.737 107.434 117.737 107.459 117.742 107.484L117.737 107.408ZM137.693 126.705C134.77 128.149 131.566 128.938 128.306 129.017H128.198C128.042 129.017 127.885 129.017 127.729 129.017C127.573 129.017 127.446 129.017 127.305 129.017H127.197C123.937 128.918 120.737 128.109 117.822 126.646L123.937 116.126C126.402 117.151 129.172 117.159 131.643 116.15L137.693 126.705ZM147.309 117.479L147.256 117.579C147.179 117.717 147.099 117.853 147.019 117.988C146.939 118.123 146.88 118.232 146.807 118.351L146.75 118.444C145.035 121.218 142.735 123.584 140.01 125.377L133.959 114.82C136.081 113.2 137.475 110.806 137.837 108.162L150.005 108.2C149.793 111.454 148.873 114.623 147.309 117.485V117.479ZM137.902 107.469L137.896 107.546C137.897 107.523 137.9 107.497 137.902 107.472V107.469ZM147.325 96.1325L147.375 96.2245C148.919 99.0962 149.817 102.27 150.008 105.525L137.837 105.493C137.494 102.846 136.117 100.442 134.006 98.8085L140.124 88.2895C142.839 90.0995 145.125 92.4803 146.824 95.2655L146.879 95.3565C146.953 95.4795 147.022 95.6045 147.093 95.7285C147.164 95.8525 147.25 95.9985 147.325 96.1355V96.1325Z" stroke="#F7FFFF" stroke-opacity="0.15" stroke-width="0.84" stroke-linecap="round" stroke-linejoin="round"/>
<path d="M259.431 26.5135L259.367 26.5655M253.593 43.4145C253.602 43.4555 253.613 43.4965 253.623 43.5375M264.111 55.4875L264.033 55.4575M280.753 52.8035L280.817 52.7515M276.074 23.8255L276.151 23.8555M312.254 22.2925C312.14 22.0165 312.025 21.7415 311.905 21.4665C311.834 21.3045 311.761 21.1435 311.689 20.9815C311.617 20.8195 311.546 20.6625 311.473 20.5035C311.347 20.2315 311.217 19.9615 311.087 19.6925C311.063 19.6455 311.041 19.5975 311.018 19.5505C310.982 19.4785 310.949 19.4045 310.918 19.3315C310.462 18.4168 309.977 17.5218 309.464 16.6465L318.608 6.1825L312.679 -1.0935L300.579 5.7485C299.765 5.01516 298.922 4.3105 298.05 3.6345L297.924 3.5345C297.687 3.3525 297.449 3.17216 297.209 2.9935C297.067 2.8935 296.925 2.7875 296.782 2.6845C296.639 2.5815 296.497 2.4775 296.353 2.3765C296.107 2.20317 295.86 2.03283 295.612 1.8655C295.569 1.8375 295.527 1.8075 295.484 1.7785C294.567 1.1645 293.634 0.586166 292.684 0.043499L295.371 -13.5915L286.599 -16.9285L279.537 -4.9515C278.907 -5.0855 278.274 -5.2085 277.637 -5.3155C277.19 -5.3905 276.737 -5.4565 276.291 -5.5155L276.129 -5.5365C275.829 -5.5765 275.539 -5.6135 275.242 -5.6475C275.067 -5.6675 274.891 -5.6845 274.716 -5.7025C274.541 -5.7205 274.368 -5.7385 274.193 -5.7545C273.893 -5.7815 273.593 -5.8045 273.293 -5.8255L273.141 -5.8375C272.04 -5.9115 270.94 -5.94484 269.841 -5.9375L265.351 -19.0885L256.085 -17.5885L255.963 -3.6885C254.921 -3.34917 253.887 -2.97117 252.863 -2.5545C252.815 -2.5355 252.763 -2.5145 252.72 -2.4945C252.497 -2.4025 252.273 -2.3125 252.051 -2.2165L251.891 -2.1455C251.729 -2.0745 251.568 -2.0015 251.407 -1.9295C251.246 -1.8575 251.087 -1.7865 250.928 -1.7125C250.656 -1.5875 250.387 -1.4575 250.118 -1.3275L250.003 -1.2725L249.975 -1.2585C248.985 -0.772503 248.018 -0.252502 247.075 0.301498L236.611 -8.8425L229.335 -2.9135L236.177 9.1865C235.443 10.0005 234.739 10.8435 234.063 11.7155L234.044 11.7395L233.967 11.8395C233.785 12.0762 233.604 12.3148 233.425 12.5555C233.325 12.6965 233.219 12.8385 233.117 12.9805C233.015 13.1225 232.909 13.2665 232.808 13.4115C232.774 13.4585 232.739 13.5055 232.708 13.5535C232.57 13.7535 232.436 13.9535 232.301 14.1535L232.213 14.2825C231.599 15.1985 231.02 16.1318 230.478 17.0825L216.847 14.3825L213.511 23.1555L225.484 30.2085C225.256 31.2805 225.068 32.3632 224.918 33.4565C224.91 33.5085 224.904 33.5565 224.897 33.6135C224.858 33.9135 224.82 34.2055 224.786 34.5035C224.766 34.6795 224.749 34.8555 224.731 35.0315C224.717 35.1705 224.7 35.3095 224.687 35.4485V35.4985V35.5525C224.66 35.8525 224.637 36.1525 224.616 36.4525L224.604 36.6095C224.53 37.7108 224.496 38.8108 224.504 39.9095L211.344 44.3915L212.844 53.6565L226.744 53.7785C227.083 54.8205 227.461 55.8538 227.878 56.8785C227.898 56.9285 227.919 56.9785 227.939 57.0275C228.053 57.3025 228.168 57.5765 228.287 57.8505C228.358 58.0145 228.432 58.1765 228.505 58.3395C228.578 58.5025 228.646 58.6565 228.719 58.8135C228.846 59.0875 228.976 59.3585 229.108 59.6295C229.13 59.6755 229.151 59.7205 229.174 59.7665C229.66 60.7578 230.18 61.7262 230.734 62.6715L221.59 73.1355L227.519 80.4125L239.619 73.5695C240.433 74.3028 241.276 75.0078 242.149 75.6845L242.269 75.7755C242.508 75.9595 242.749 76.1418 242.991 76.3225C243.13 76.4225 243.27 76.5225 243.41 76.6225C243.55 76.7225 243.7 76.8325 243.847 76.9365C244.09 77.1075 244.335 77.2745 244.58 77.4365L244.716 77.5295C245.632 78.1435 246.565 78.7215 247.516 79.2635L244.818 92.9015L253.591 96.2385L260.644 84.2655C261.716 84.4922 262.799 84.6808 263.893 84.8315L264.044 84.8505C264.344 84.8905 264.644 84.9285 264.944 84.9625C265.118 84.9825 265.292 84.9995 265.465 85.0175C265.638 85.0355 265.817 85.0535 265.993 85.0695C266.293 85.0965 266.588 85.1195 266.885 85.1405C266.939 85.1405 266.992 85.1495 267.046 85.1525C268.147 85.2265 269.245 85.2598 270.34 85.2525L274.831 98.4035L284.096 96.9035L284.218 83.0035C285.26 82.6642 286.293 82.2865 287.318 81.8705L287.463 81.8095C287.686 81.7175 287.908 81.6275 288.13 81.5315L288.29 81.4605C288.452 81.3895 288.613 81.3165 288.775 81.2445C288.937 81.1725 289.094 81.1015 289.253 81.0285C289.525 80.9025 289.795 80.7725 290.064 80.6415C290.102 80.6235 290.141 80.6065 290.179 80.5875L290.206 80.5735C291.197 80.0875 292.164 79.5678 293.106 79.0145L303.57 88.1585L310.847 82.2295L304.004 70.1295C304.737 69.3155 305.442 68.4722 306.119 67.5995L306.137 67.5765C306.162 67.5445 306.186 67.5115 306.21 67.4765C306.394 67.2385 306.576 66.9978 306.757 66.7545C306.857 66.6155 306.957 66.4755 307.057 66.3355C307.157 66.1955 307.267 66.0455 307.371 65.8985L307.471 65.7575C307.608 65.5575 307.741 65.3575 307.871 65.1645C307.902 65.1195 307.933 65.0755 307.963 65.0295C308.577 64.1135 309.155 63.1802 309.697 62.2295L323.337 64.9305L326.674 56.1585L314.701 49.1045C314.927 48.0325 315.116 46.9495 315.267 45.8555C315.274 45.8055 315.28 45.7555 315.286 45.7045C315.326 45.4045 315.364 45.1045 315.398 44.8045C315.418 44.6305 315.435 44.4565 315.453 44.2825C315.471 44.1085 315.489 43.9315 315.505 43.7555C315.532 43.4555 315.555 43.1615 315.576 42.8655L315.588 42.7025C315.593 42.6215 315.601 42.5415 315.606 42.4605C315.668 41.4418 315.696 40.4245 315.689 39.4085L328.84 34.9185L327.34 25.6525L313.44 25.5305C313.101 24.4892 312.723 23.4558 312.307 22.4305L312.254 22.2925ZM263.243 3.0635L263.419 3.0305C263.658 2.9875 263.897 2.9525 264.136 2.9135C264.39 2.8725 264.644 2.8275 264.899 2.7915L265.076 2.7675C270.49 2.04312 275.997 2.5093 281.213 4.1335L273.969 23.1795C271.813 22.672 269.579 22.5932 267.394 22.9475C265.207 23.2989 263.112 24.077 261.226 25.2375L248.354 9.4415C252.794 6.25751 257.875 4.08086 263.243 3.0635ZM272.043 51.7045C268.848 52.2166 265.581 51.4408 262.958 49.5474C260.335 47.654 258.57 44.7976 258.05 41.6045C257.537 38.4101 258.313 35.1427 260.206 32.5194C262.1 29.8961 264.956 28.131 268.15 27.6115C271.343 27.1012 274.608 27.8776 277.23 29.7706C279.852 31.6636 281.616 34.5188 282.137 37.7105C282.649 40.905 281.873 44.1721 279.98 46.7955C278.086 49.4188 275.23 51.1842 272.037 51.7045H272.043ZM234.978 27.2885C234.997 27.2335 235.016 27.1785 235.036 27.1235C235.117 26.8985 235.205 26.6775 235.289 26.4545C235.382 26.2095 235.472 25.9635 235.57 25.7195L235.637 25.5575C237.716 20.5058 240.874 15.9692 244.889 12.2645L257.764 28.0645C254.7 31.3196 253.051 35.6561 253.177 40.1245L233.056 43.3745C232.518 37.9365 233.174 32.4466 234.978 27.2885ZM253.237 41.1565C253.237 41.1995 253.244 41.2415 253.248 41.2845C253.245 41.2415 253.242 41.1995 253.237 41.1565ZM254.793 73.5905C249.817 71.3391 245.392 68.0287 241.828 63.8905L241.71 63.7525C241.542 63.5525 241.38 63.3525 241.216 63.1525C241.065 62.9685 240.916 62.7855 240.765 62.5975C240.727 62.5495 240.69 62.4975 240.653 62.4525C237.317 58.1234 234.968 53.1181 233.768 47.7865L253.889 44.5415C255.177 48.8211 258.108 52.4165 262.04 54.5415L254.793 73.5905ZM291.83 69.8725C287.391 73.056 282.311 75.232 276.945 76.2485L276.767 76.2825C276.509 76.3285 276.25 76.3675 275.991 76.4085C275.758 76.4465 275.525 76.4875 275.291 76.5205L275.112 76.5455C269.696 77.2699 264.188 76.8037 258.972 75.1795L266.217 56.1335C268.372 56.6415 270.607 56.7203 272.793 56.3655C274.979 56.0139 277.075 55.2358 278.961 54.0755L291.83 69.8725ZM305.209 52.0205C305.189 52.0775 305.169 52.1355 305.148 52.1925C305.059 52.4415 304.962 52.6865 304.868 52.9325C304.785 53.1525 304.704 53.3725 304.617 53.5905C304.594 53.6475 304.571 53.7035 304.547 53.7595C302.467 58.8115 299.31 63.3485 295.295 67.0535L282.42 51.2535C285.484 47.9985 287.134 43.6621 287.008 39.1935L307.129 35.9435C307.665 41.377 307.01 46.8622 305.209 52.0165V52.0205ZM286.937 38.0285C286.942 38.0715 286.945 38.1145 286.948 38.1575C286.943 38.1145 286.937 38.0715 286.937 38.0285ZM299.424 16.7285C299.461 16.7745 299.496 16.8215 299.532 16.8675C302.867 21.1945 305.217 26.1978 306.418 31.5275L286.297 34.7775C285.009 30.4975 282.078 26.9018 278.146 24.7775L285.393 5.7265C290.37 7.97982 294.796 11.2926 298.361 15.4335L298.477 15.5685C298.631 15.7515 298.777 15.9385 298.931 16.1245C299.094 16.3225 299.261 16.5225 299.422 16.7275L299.424 16.7285ZM286.594 35.9005C286.584 35.8585 286.573 35.8165 286.563 35.7745C286.571 35.8155 286.582 35.8575 286.592 35.8995L286.594 35.9005Z" stroke="#F7FFFF" stroke-opacity="0.15" stroke-width="0.84" stroke-linecap="round" stroke-linejoin="round"/>
<mask id="mask0_69_722" style="mask-type:luminance" maskUnits="userSpaceOnUse" x="317" y="2" width="183" height="183">
<path d="M338.287 102.267C338.347 102.724 338.409 103.181 338.478 103.638C338.519 103.908 338.564 104.177 338.607 104.447C338.65 104.717 338.692 104.98 338.739 105.247C338.818 105.704 338.904 106.158 338.992 106.612C339.007 106.691 339.021 106.771 339.037 106.851C339.061 106.974 339.082 107.097 339.107 107.22C339.337 108.354 339.594 109.476 339.878 110.586C339.978 110.994 340.094 111.4 340.206 111.805L322.391 123.769L328.334 136.989L349.108 131.605C350.03 133.022 351.007 134.409 352.038 135.767C352.087 135.832 352.138 135.896 352.187 135.961C352.469 136.327 352.753 136.692 353.039 137.054C353.208 137.266 353.38 137.475 353.551 137.684C353.722 137.893 353.894 138.108 354.07 138.317C354.367 138.673 354.667 139.025 354.97 139.373C355.023 139.434 355.07 139.495 355.127 139.555C356.249 140.839 357.413 142.074 358.617 143.262L349.171 162.532L360.928 171.008L376.228 155.959C377.736 156.725 379.276 157.438 380.847 158.098C380.922 158.13 380.998 158.16 381.073 158.191C381.501 158.369 381.929 158.543 382.359 158.713C382.611 158.813 382.865 158.907 383.119 159.003C383.373 159.099 383.625 159.197 383.88 159.29C384.315 159.45 384.751 159.603 385.188 159.754L385.418 159.834C387.032 160.384 388.657 160.873 390.293 161.299L391.747 182.71L406.168 184.173L411.892 163.49C413.582 163.4 415.272 163.248 416.963 163.033L417.2 163.001C417.57 162.953 417.939 162.907 418.308 162.853C418.397 162.84 418.487 162.823 418.576 162.81C418.846 162.77 419.115 162.725 419.384 162.681C419.653 162.637 419.918 162.596 420.184 162.549C420.64 162.47 421.094 162.385 421.547 162.297C421.611 162.284 421.676 162.274 421.74 162.261L421.787 162.251C423.459 161.921 425.111 161.532 426.741 161.083L438.706 178.898L451.926 172.954L446.537 152.18C446.889 151.951 447.242 151.722 447.591 151.485C448.542 150.843 449.479 150.176 450.402 149.485C450.502 149.409 450.602 149.331 450.702 149.255L450.74 149.227C450.793 149.187 450.84 149.146 450.895 149.107C451.262 148.826 451.628 148.543 451.995 148.254C452.206 148.085 452.414 147.914 452.624 147.743C452.834 147.572 453.048 147.399 453.257 147.224C453.327 147.166 453.398 147.11 453.467 147.052C453.752 146.812 454.031 146.567 454.311 146.323L454.495 146.165C455.779 145.043 457.014 143.88 458.202 142.675L477.471 152.121L485.948 140.364L470.899 125.064C471.663 123.555 472.375 122.014 473.037 120.441C473.069 120.363 473.1 120.285 473.137 120.207C473.313 119.783 473.487 119.358 473.655 118.929C473.755 118.674 473.855 118.417 473.949 118.161C474.043 117.905 474.14 117.661 474.233 117.408C474.393 116.97 474.547 116.531 474.699 116.092C474.724 116.017 474.751 115.944 474.776 115.87C475.326 114.256 475.815 112.631 476.242 110.993L497.647 109.541L499.11 95.1214L478.427 89.3974C478.337 87.7081 478.185 86.0181 477.97 84.3274C477.96 84.2474 477.949 84.1684 477.938 84.0894C477.88 83.6308 477.816 83.1724 477.747 82.7144C477.707 82.4434 477.662 82.1754 477.618 81.9054C477.574 81.6354 477.533 81.3714 477.486 81.1054C477.407 80.6494 477.322 80.1954 477.234 79.7424C477.218 79.6624 477.204 79.5824 477.188 79.5024C476.855 77.8311 476.466 76.1798 476.02 74.5484L493.837 62.5824L487.893 49.3624L467.117 54.7414C466.197 53.3281 465.221 51.9424 464.187 50.5844C464.138 50.5194 464.087 50.4554 464.038 50.3914C463.757 50.0244 463.475 49.6594 463.186 49.2974C463.017 49.0854 462.845 48.8774 462.675 48.6674C462.505 48.4574 462.331 48.2434 462.156 48.0344C461.856 47.6784 461.556 47.3284 461.256 46.9794L461.098 46.7964C459.976 45.5138 458.813 44.2781 457.608 43.0894L467.054 23.8204L455.296 15.3414L439.996 30.3904C438.49 29.6244 436.951 28.9118 435.377 28.2524L435.16 28.1634C434.731 27.9841 434.3 27.8091 433.866 27.6384C433.615 27.5384 433.366 27.4454 433.112 27.3494C432.858 27.2534 432.603 27.1554 432.346 27.0614C431.913 26.9024 431.478 26.7494 431.046 26.5994L430.811 26.5174C429.198 25.9674 427.573 25.4791 425.937 25.0524L424.479 3.64145L410.058 2.17944L404.337 22.8614C402.649 22.9521 400.959 23.1044 399.267 23.3184L399.026 23.3504C398.658 23.3984 398.289 23.4444 397.926 23.4984C397.837 23.5124 397.748 23.5284 397.659 23.5414C397.388 23.5824 397.119 23.6274 396.849 23.6704C396.579 23.7134 396.316 23.7554 396.049 23.8024C395.593 23.8814 395.138 23.9674 394.684 24.0554L394.492 24.0904L394.445 24.1004C392.775 24.4304 391.123 24.8201 389.491 25.2694L377.519 7.45444L364.299 13.3974L369.683 34.1714C368.266 35.0948 366.878 36.0718 365.519 37.1024L365.483 37.1294L365.335 37.2444C364.966 37.5274 364.597 37.8124 364.235 38.1044C364.026 38.2704 363.821 38.4394 363.614 38.6044C363.407 38.7694 363.185 38.9524 362.972 39.1304L362.764 39.3004C362.481 39.5394 362.204 39.7824 361.925 40.0244C361.862 40.0794 361.798 40.1334 361.735 40.1894C360.452 41.3108 359.217 42.4734 358.029 43.6774L338.757 34.2354L330.28 45.9924L345.329 61.2924C344.563 62.7991 343.85 64.3384 343.19 65.9104C343.158 65.9854 343.129 66.0614 343.097 66.1354C342.92 66.5624 342.745 66.9904 342.576 67.4224C342.565 67.4484 342.554 67.4744 342.544 67.5004C342.534 67.5264 342.524 67.5474 342.515 67.5714C342.436 67.7714 342.362 67.9784 342.285 68.1824C342.185 68.4354 342.091 68.6884 341.998 68.9434C341.838 69.3784 341.685 69.8144 341.535 70.2514C341.508 70.3284 341.48 70.4044 341.454 70.4814C340.905 72.0948 340.417 73.7198 339.989 75.3564L318.578 76.8104L317.116 91.2314L337.798 96.9554C337.889 98.6434 338.042 100.333 338.255 102.025C338.265 102.105 338.277 102.185 338.287 102.267ZM383.487 41.2254C383.85 41.0534 384.218 40.8934 384.587 40.7304C384.923 40.5784 385.256 40.4234 385.595 40.2784L385.856 40.1684C394.269 36.6555 403.391 35.1764 412.483 35.8514L412.764 35.8724C413.164 35.9064 413.564 35.9514 413.97 35.9934C414.334 36.0304 414.698 36.0614 415.061 36.1054L415.34 36.1414C424.383 37.3042 433.024 40.5845 440.56 45.7154L440.793 45.8744C441.123 46.1034 441.446 46.3424 441.771 46.5744C442.071 46.7894 442.371 47.0004 442.665 47.2214L442.891 47.3924C450.14 52.9214 455.982 60.0819 459.944 68.2924C459.984 68.3764 460.025 68.4594 460.065 68.5434C460.239 68.9134 460.402 69.2874 460.565 69.6604C460.714 69.9904 460.865 70.3184 461.009 70.6514C461.046 70.7374 461.082 70.8244 461.118 70.9104C464.634 79.3269 466.113 88.4544 465.436 97.5504C465.429 97.6364 465.423 97.7234 465.416 97.8104C465.382 98.2174 465.336 98.6214 465.294 99.0264C465.257 99.3934 465.225 99.7615 465.181 100.126C465.171 100.212 465.159 100.298 465.148 100.384C463.987 109.437 460.705 118.088 455.567 125.631L455.414 125.855C455.204 126.155 454.985 126.455 454.769 126.755C454.534 127.084 454.301 127.415 454.058 127.739L453.893 127.956C448.362 135.208 441.199 141.052 432.984 145.013L432.738 145.131C432.397 145.292 432.052 145.441 431.708 145.595C431.347 145.759 430.988 145.925 430.623 146.081L430.374 146.181C421.959 149.697 412.832 151.177 403.737 150.5C403.644 150.493 403.552 150.487 403.46 150.479C403.08 150.448 402.702 150.404 402.324 150.365C401.946 150.326 401.546 150.292 401.157 150.246L400.884 150.211C391.839 149.048 383.197 145.766 375.659 140.632L375.432 140.477C375.122 140.262 374.82 140.038 374.514 139.817C374.208 139.596 373.87 139.36 373.554 139.123L373.334 138.956C366.083 133.426 360.239 126.262 356.278 118.047C356.238 117.964 356.198 117.882 356.159 117.799C356.002 117.468 355.859 117.132 355.707 116.799C355.54 116.429 355.369 116.061 355.207 115.687C355.171 115.603 355.136 115.518 355.101 115.434C351.588 107.023 350.109 97.9018 350.784 88.8114C350.791 88.7114 350.798 88.6115 350.806 88.5164C350.836 88.1505 350.878 87.7844 350.916 87.4164C350.955 87.0164 350.99 86.6244 351.038 86.2294C351.05 86.1294 351.063 86.0344 351.075 85.9374C352.24 76.8995 355.519 68.2635 360.647 60.7304L360.806 60.4984C361.038 60.1634 361.281 59.8354 361.52 59.5054C361.732 59.2114 361.939 58.9144 362.157 58.6244L362.328 58.3994C367.859 51.1491 375.023 45.3064 383.237 41.3464L383.487 41.2254Z" fill="white"/>
</mask>
<g mask="url(#mask0_69_722)">
<path d="M623.477 -0.0305176L432.025 191.421" stroke="#F7FFFF" stroke-opacity="0.15" stroke-width="0.63" stroke-miterlimit="10"/>
<path d="M595.566 -0.0305176L404.114 191.421" stroke="#F7FFFF" stroke-opacity="0.15" stroke-width="0.63" stroke-miterlimit="10"/>
<path d="M567.654 -0.0305176L376.202 191.421" stroke="#F7FFFF" stroke-opacity="0.15" stroke-width="0.63" stroke-miterlimit="10"/>
<path d="M539.742 -0.0305176L348.29 191.421" stroke="#F7FFFF" stroke-opacity="0.15" stroke-width="0.63" stroke-miterlimit="10"/>
<path d="M609.522 -0.0305176L418.07 191.421" stroke="#F7FFFF" stroke-opacity="0.15" stroke-width="0.63" stroke-miterlimit="10"/>
<path d="M581.61 -0.0305176L390.158 191.421" stroke="#F7FFFF" stroke-opacity="0.15" stroke-width="0.63" stroke-miterlimit="10"/>
<path d="M553.698 -0.0305176L362.246 191.421" stroke="#F7FFFF" stroke-opacity="0.15" stroke-width="0.63" stroke-miterlimit="10"/>
<path d="M525.786 -0.0305176L334.334 191.421" stroke="#F7FFFF" stroke-opacity="0.15" stroke-width="0.63" stroke-miterlimit="10"/>
<path d="M511.83 -0.0305176L320.378 191.421" stroke="#F7FFFF" stroke-opacity="0.15" stroke-width="0.63" stroke-miterlimit="10"/>
<path d="M497.874 -0.0305176L306.422 191.421" stroke="#F7FFFF" stroke-opacity="0.15" stroke-width="0.63" stroke-miterlimit="10"/>
<path d="M483.918 -0.0305176L292.466 191.421" stroke="#F7FFFF" stroke-opacity="0.15" stroke-width="0.63" stroke-miterlimit="10"/>
<path d="M469.962 -0.0305176L278.51 191.421" stroke="#F7FFFF" stroke-opacity="0.15" stroke-width="0.63" stroke-miterlimit="10"/>
<path d="M456.006 -0.0305176L264.554 191.421" stroke="#F7FFFF" stroke-opacity="0.15" stroke-width="0.63" stroke-miterlimit="10"/>
<path d="M442.05 -0.0305176L250.598 191.421" stroke="#F7FFFF" stroke-opacity="0.15" stroke-width="0.63" stroke-miterlimit="10"/>
<path d="M428.094 -0.0305176L236.642 191.421" stroke="#F7FFFF" stroke-opacity="0.15" stroke-width="0.63" stroke-miterlimit="10"/>
<path d="M414.138 -0.0305176L222.686 191.421" stroke="#F7FFFF" stroke-opacity="0.15" stroke-width="0.63" stroke-miterlimit="10"/>
<path d="M616.5 -0.0305176L425.048 191.421" stroke="#F7FFFF" stroke-opacity="0.15" stroke-width="0.63" stroke-miterlimit="10"/>
<path d="M588.588 -0.0305176L397.136 191.421" stroke="#F7FFFF" stroke-opacity="0.15" stroke-width="0.63" stroke-miterlimit="10"/>
<path d="M560.676 -0.0305176L369.224 191.421" stroke="#F7FFFF" stroke-opacity="0.15" stroke-width="0.63" stroke-miterlimit="10"/>
<path d="M532.764 -0.0305176L341.312 191.421" stroke="#F7FFFF" stroke-opacity="0.15" stroke-width="0.63" stroke-miterlimit="10"/>
<path d="M504.851 -0.0305176L313.399 191.421" stroke="#F7FFFF" stroke-opacity="0.15" stroke-width="0.63" stroke-miterlimit="10"/>
<path d="M476.94 -0.0305176L285.488 191.421" stroke="#F7FFFF" stroke-opacity="0.15" stroke-width="0.63" stroke-miterlimit="10"/>
<path d="M449.028 -0.0305176L257.576 191.421" stroke="#F7FFFF" stroke-opacity="0.15" stroke-width="0.63" stroke-miterlimit="10"/>
<path d="M630.456 -0.0305176L439.004 191.421" stroke="#F7FFFF" stroke-opacity="0.15" stroke-width="0.63" stroke-miterlimit="10"/>
<path d="M602.544 -0.0305176L411.092 191.421" stroke="#F7FFFF" stroke-opacity="0.15" stroke-width="0.63" stroke-miterlimit="10"/>
<path d="M574.632 -0.0305176L383.18 191.421" stroke="#F7FFFF" stroke-opacity="0.15" stroke-width="0.63" stroke-miterlimit="10"/>
<path d="M546.72 -0.0305176L355.268 191.421" stroke="#F7FFFF" stroke-opacity="0.15" stroke-width="0.63" stroke-miterlimit="10"/>
<path d="M518.807 -0.0305176L327.355 191.421" stroke="#F7FFFF" stroke-opacity="0.15" stroke-width="0.63" stroke-miterlimit="10"/>
<path d="M490.895 -0.0305176L299.443 191.421" stroke="#F7FFFF" stroke-opacity="0.15" stroke-width="0.63" stroke-miterlimit="10"/>
<path d="M462.984 -0.0305176L271.532 191.421" stroke="#F7FFFF" stroke-opacity="0.15" stroke-width="0.63" stroke-miterlimit="10"/>
<path d="M435.072 -0.0305176L243.62 191.421" stroke="#F7FFFF" stroke-opacity="0.15" stroke-width="0.63" stroke-miterlimit="10"/>
<path d="M421.116 -0.0305176L229.664 191.421" stroke="#F7FFFF" stroke-opacity="0.15" stroke-width="0.63" stroke-miterlimit="10"/>
<path d="M407.16 -0.0305176L215.708 191.421" stroke="#F7FFFF" stroke-opacity="0.15" stroke-width="0.63" stroke-miterlimit="10"/>
<path d="M400.181 -0.0305176L208.729 191.421" stroke="#F7FFFF" stroke-opacity="0.15" stroke-width="0.63" stroke-miterlimit="10"/>
<path d="M393.204 -0.0305176L201.752 191.421" stroke="#F7FFFF" stroke-opacity="0.15" stroke-width="0.63" stroke-miterlimit="10"/>
<path d="M386.225 -0.0305176L194.773 191.421" stroke="#F7FFFF" stroke-opacity="0.15" stroke-width="0.63" stroke-miterlimit="10"/>
<path d="M379.248 -0.0305176L187.796 191.421" stroke="#F7FFFF" stroke-opacity="0.15" stroke-width="0.63" stroke-miterlimit="10"/>
<path d="M372.269 -0.0305176L180.817 191.421" stroke="#F7FFFF" stroke-opacity="0.15" stroke-width="0.63" stroke-miterlimit="10"/>
<path d="M365.292 -0.0305176L173.84 191.421" stroke="#F7FFFF" stroke-opacity="0.15" stroke-width="0.63" stroke-miterlimit="10"/>
</g>
<path d="M338.287 102.267C338.347 102.724 338.409 103.181 338.478 103.638C338.519 103.908 338.564 104.177 338.607 104.447C338.65 104.717 338.692 104.98 338.739 105.247C338.818 105.704 338.904 106.158 338.992 106.612C339.007 106.691 339.021 106.771 339.037 106.851C339.061 106.974 339.082 107.097 339.107 107.22C339.337 108.354 339.594 109.476 339.878 110.586C339.978 110.994 340.094 111.4 340.206 111.805L322.391 123.769L328.334 136.989L349.108 131.605C350.03 133.022 351.007 134.409 352.038 135.767C352.087 135.832 352.138 135.896 352.187 135.961C352.469 136.327 352.753 136.692 353.039 137.054C353.208 137.266 353.38 137.475 353.551 137.684C353.722 137.893 353.894 138.108 354.07 138.317C354.367 138.673 354.667 139.025 354.97 139.373C355.023 139.434 355.07 139.495 355.127 139.555C356.249 140.839 357.413 142.074 358.617 143.262L349.171 162.532L360.928 171.008L376.228 155.959C377.736 156.725 379.276 157.438 380.847 158.098C380.922 158.13 380.998 158.16 381.073 158.191C381.501 158.369 381.929 158.543 382.359 158.713C382.611 158.813 382.865 158.907 383.119 159.003C383.373 159.099 383.625 159.197 383.88 159.29C384.315 159.45 384.751 159.603 385.188 159.754L385.418 159.834C387.032 160.384 388.657 160.873 390.293 161.299L391.747 182.71L406.168 184.173L411.892 163.49C413.582 163.4 415.272 163.248 416.963 163.033L417.2 163.001C417.57 162.953 417.939 162.907 418.308 162.853C418.397 162.84 418.487 162.823 418.576 162.81C418.846 162.77 419.115 162.725 419.384 162.681C419.653 162.637 419.918 162.596 420.184 162.549C420.64 162.47 421.094 162.385 421.547 162.297C421.611 162.284 421.676 162.274 421.74 162.261L421.787 162.251C423.459 161.921 425.111 161.532 426.741 161.083L438.706 178.898L451.926 172.954L446.537 152.18C446.889 151.951 447.242 151.722 447.591 151.485C448.542 150.843 449.479 150.176 450.402 149.485C450.502 149.409 450.602 149.331 450.702 149.255L450.74 149.227C450.793 149.187 450.84 149.146 450.895 149.107C451.262 148.826 451.628 148.543 451.995 148.254C452.206 148.085 452.414 147.914 452.624 147.743C452.834 147.572 453.048 147.399 453.257 147.224C453.327 147.166 453.398 147.11 453.467 147.052C453.752 146.812 454.031 146.567 454.311 146.323L454.495 146.165C455.779 145.043 457.014 143.88 458.202 142.675L477.471 152.121L485.948 140.364L470.899 125.064C471.663 123.555 472.375 122.014 473.037 120.441C473.069 120.363 473.1 120.285 473.137 120.207C473.313 119.783 473.487 119.358 473.655 118.929C473.755 118.674 473.855 118.417 473.949 118.161C474.043 117.905 474.14 117.661 474.233 117.408C474.393 116.97 474.547 116.531 474.699 116.092C474.724 116.017 474.751 115.944 474.776 115.87C475.326 114.256 475.815 112.631 476.242 110.993L497.647 109.541L499.11 95.1214L478.427 89.3974C478.337 87.7081 478.185 86.0181 477.97 84.3274C477.96 84.2474 477.949 84.1684 477.938 84.0894C477.88 83.6308 477.816 83.1724 477.747 82.7144C477.707 82.4434 477.662 82.1754 477.618 81.9054C477.574 81.6354 477.533 81.3714 477.486 81.1054C477.407 80.6494 477.322 80.1954 477.234 79.7424C477.218 79.6624 477.204 79.5824 477.188 79.5024C476.855 77.8311 476.466 76.1798 476.02 74.5484L493.837 62.5824L487.893 49.3624L467.117 54.7414C466.197 53.3281 465.221 51.9424 464.187 50.5844C464.138 50.5194 464.087 50.4554 464.038 50.3914C463.757 50.0244 463.475 49.6594 463.186 49.2974C463.017 49.0854 462.845 48.8774 462.675 48.6674C462.505 48.4574 462.331 48.2434 462.156 48.0344C461.856 47.6784 461.556 47.3284 461.256 46.9794L461.098 46.7964C459.976 45.5138 458.813 44.2781 457.608 43.0894L467.054 23.8204L455.296 15.3414L439.996 30.3904C438.49 29.6244 436.951 28.9118 435.377 28.2524L435.16 28.1634C434.731 27.9841 434.3 27.8091 433.866 27.6384C433.615 27.5384 433.366 27.4454 433.112 27.3494C432.858 27.2534 432.603 27.1554 432.346 27.0614C431.913 26.9024 431.478 26.7494 431.046 26.5994L430.811 26.5174C429.198 25.9674 427.573 25.4791 425.937 25.0524L424.479 3.64145L410.058 2.17944L404.337 22.8614C402.649 22.9521 400.959 23.1044 399.267 23.3184L399.026 23.3504C398.658 23.3984 398.289 23.4444 397.926 23.4984C397.837 23.5124 397.748 23.5284 397.659 23.5414C397.388 23.5824 397.119 23.6274 396.849 23.6704C396.579 23.7134 396.316 23.7554 396.049 23.8024C395.593 23.8814 395.138 23.9674 394.684 24.0554L394.492 24.0904L394.445 24.1004C392.775 24.4304 391.123 24.8201 389.491 25.2694L377.519 7.45444L364.299 13.3974L369.683 34.1714C368.266 35.0948 366.878 36.0718 365.519 37.1024L365.483 37.1294L365.335 37.2444C364.966 37.5274 364.597 37.8124 364.235 38.1044C364.026 38.2704 363.821 38.4394 363.614 38.6044C363.407 38.7694 363.185 38.9524 362.972 39.1304L362.764 39.3004C362.481 39.5394 362.204 39.7824 361.925 40.0244C361.862 40.0794 361.798 40.1334 361.735 40.1894C360.452 41.3108 359.217 42.4734 358.029 43.6774L338.757 34.2354L330.28 45.9924L345.329 61.2924C344.563 62.7991 343.85 64.3384 343.19 65.9104C343.158 65.9854 343.129 66.0614 343.097 66.1354C342.92 66.5624 342.745 66.9904 342.576 67.4224C342.565 67.4484 342.554 67.4744 342.544 67.5004C342.534 67.5264 342.524 67.5474 342.515 67.5714C342.436 67.7714 342.362 67.9784 342.285 68.1824C342.185 68.4354 342.091 68.6884 341.998 68.9434C341.838 69.3784 341.685 69.8144 341.535 70.2514C341.508 70.3284 341.48 70.4044 341.454 70.4814C340.905 72.0948 340.417 73.7198 339.989 75.3564L318.578 76.8104L317.116 91.2314L337.798 96.9554C337.889 98.6434 338.042 100.333 338.255 102.025C338.265 102.105 338.277 102.185 338.287 102.267ZM383.487 41.2254C383.85 41.0534 384.218 40.8934 384.587 40.7304C384.923 40.5784 385.256 40.4234 385.595 40.2784L385.856 40.1684C394.269 36.6555 403.391 35.1764 412.483 35.8514L412.764 35.8724C413.164 35.9064 413.564 35.9514 413.97 35.9934C414.334 36.0304 414.698 36.0614 415.061 36.1054L415.34 36.1414C424.383 37.3042 433.024 40.5845 440.56 45.7154L440.793 45.8744C441.123 46.1034 441.446 46.3424 441.771 46.5744C442.071 46.7894 442.371 47.0004 442.665 47.2214L442.891 47.3924C450.14 52.9214 455.982 60.0819 459.944 68.2924C459.984 68.3764 460.025 68.4594 460.065 68.5434C460.239 68.9134 460.402 69.2874 460.565 69.6604C460.714 69.9904 460.865 70.3184 461.009 70.6514C461.046 70.7374 461.082 70.8244 461.118 70.9104C464.634 79.3269 466.113 88.4544 465.436 97.5504C465.429 97.6364 465.423 97.7234 465.416 97.8104C465.382 98.2174 465.336 98.6214 465.294 99.0264C465.257 99.3934 465.225 99.7614 465.181 100.126C465.171 100.212 465.159 100.298 465.148 100.384C463.987 109.437 460.705 118.088 455.567 125.631L455.414 125.855C455.204 126.155 454.985 126.455 454.769 126.755C454.534 127.084 454.301 127.415 454.058 127.739L453.893 127.956C448.362 135.208 441.199 141.052 432.984 145.013L432.738 145.131C432.397 145.292 432.052 145.441 431.708 145.595C431.347 145.759 430.988 145.925 430.623 146.081L430.374 146.181C421.959 149.697 412.832 151.177 403.737 150.5C403.644 150.493 403.552 150.487 403.46 150.479C403.08 150.448 402.702 150.404 402.324 150.365C401.946 150.326 401.546 150.292 401.157 150.246L400.884 150.211C391.839 149.048 383.197 145.766 375.659 140.632L375.432 140.477C375.122 140.262 374.82 140.038 374.514 139.817C374.208 139.596 373.87 139.36 373.554 139.123L373.334 138.956C366.083 133.426 360.239 126.262 356.278 118.047C356.238 117.964 356.198 117.882 356.159 117.799C356.002 117.468 355.859 117.132 355.707 116.799C355.54 116.429 355.369 116.061 355.207 115.687C355.171 115.603 355.136 115.518 355.101 115.434C351.588 107.023 350.109 97.9018 350.784 88.8114C350.791 88.7114 350.798 88.6114 350.806 88.5164C350.836 88.1504 350.878 87.7844 350.916 87.4164C350.955 87.0164 350.99 86.6244 351.038 86.2294C351.05 86.1294 351.063 86.0344 351.075 85.9374C352.24 76.8995 355.519 68.2635 360.647 60.7304L360.806 60.4984C361.038 60.1634 361.281 59.8354 361.52 59.5054C361.732 59.2114 361.939 58.9144 362.157 58.6244L362.328 58.3994C367.859 51.1491 375.023 45.3064 383.237 41.3464L383.487 41.2254Z" stroke="#F7FFFF" stroke-opacity="0.15" stroke-width="1.679" stroke-miterlimit="10"/>
<path d="M427.599 136.517C436.171 132.664 443.408 126.355 448.394 118.388C453.381 110.421 455.893 101.155 455.613 91.7602C455.333 82.3658 452.273 73.2653 446.821 65.6097C441.369 57.9541 433.769 52.0871 424.983 48.7508C416.196 45.4144 406.618 44.7585 397.458 46.8659C388.299 48.9734 379.97 53.7496 373.526 60.5905C367.081 67.4314 362.809 76.0298 361.251 85.2984C359.693 94.5669 360.919 104.089 364.773 112.661C369.941 124.156 379.463 133.127 391.245 137.601C403.027 142.074 416.104 141.685 427.599 136.517ZM428.33 70.4655C430.571 69.4579 433.06 69.1375 435.484 69.5449C437.907 69.9522 440.155 71.069 441.943 72.7539C443.732 74.4389 444.981 76.6164 445.532 79.011C446.083 81.4057 445.911 83.91 445.039 86.2072C444.167 88.5044 442.633 90.4914 440.631 91.9168C438.63 93.3423 436.25 94.1422 433.794 94.2155C431.338 94.2887 428.915 93.632 426.833 92.3283C424.75 91.0247 423.1 89.1326 422.093 86.8915C421.424 85.4034 421.054 83.7981 421.005 82.1673C420.957 80.5365 421.23 78.9121 421.809 77.3868C422.388 75.8615 423.262 74.4652 424.381 73.2776C425.5 72.0901 426.841 71.1345 428.33 70.4655ZM391.638 56.5345C393.879 55.5269 396.368 55.2065 398.792 55.6139C401.215 56.0212 403.463 57.138 405.251 58.8229C407.04 60.5079 408.289 62.6854 408.84 65.08C409.391 67.4747 409.219 69.979 408.347 72.2762C407.475 74.5734 405.941 76.5604 403.939 77.9858C401.938 79.4113 399.558 80.2112 397.102 80.2845C394.646 80.3577 392.224 79.701 390.141 78.3973C388.058 77.0937 386.408 75.2016 385.401 72.9605C384.05 69.9552 383.948 66.5363 385.117 63.4559C386.287 60.3755 388.632 57.8858 391.638 56.5345ZM411.112 91.8275C411.378 92.421 411.463 93.0803 411.355 93.722C411.247 94.3638 410.952 94.9591 410.505 95.4327C410.059 95.9063 409.482 96.237 408.848 96.3828C408.214 96.5287 407.551 96.4832 406.943 96.2521C406.334 96.021 405.808 95.6147 405.431 95.0846C405.053 94.5545 404.842 93.9244 404.822 93.2739C404.803 92.6235 404.977 91.9819 405.322 91.4304C405.668 90.8789 406.169 90.4422 406.763 90.1755C407.157 89.9982 407.582 89.9002 408.014 89.8873C408.446 89.8743 408.876 89.9466 409.28 90.1C409.684 90.2534 410.054 90.485 410.369 90.7814C410.683 91.0778 410.936 91.4333 411.114 91.8275H411.112ZM414.396 107.155C416.637 106.148 419.126 105.827 421.55 106.234C423.973 106.641 426.221 107.758 428.01 109.443C429.799 111.128 431.048 113.305 431.599 115.7C432.15 118.095 431.978 120.599 431.106 122.896C430.234 125.194 428.7 127.181 426.699 128.606C424.697 130.032 422.318 130.832 419.862 130.905C417.405 130.978 414.983 130.321 412.9 129.018C410.817 127.714 409.167 125.822 408.16 123.58C406.809 120.575 406.707 117.156 407.877 114.076C409.047 110.996 411.392 108.506 414.398 107.155H414.396ZM377.709 93.2245C379.95 92.2168 382.439 91.8964 384.863 92.3037C387.286 92.711 389.534 93.8277 391.323 95.5127C393.111 97.1977 394.36 99.3752 394.911 101.77C395.462 104.165 395.29 106.669 394.418 108.966C393.546 111.263 392.012 113.25 390.01 114.676C388.009 116.101 385.629 116.901 383.173 116.974C380.717 117.047 378.294 116.391 376.211 115.087C374.128 113.783 372.479 111.891 371.472 109.649C370.802 108.162 370.433 106.556 370.384 104.926C370.336 103.295 370.609 101.67 371.188 100.145C371.767 98.6198 372.641 97.2236 373.76 96.0362C374.879 94.8487 376.22 93.8933 377.709 93.2245Z" stroke="#F7FFFF" stroke-opacity="0.15" stroke-width="1.679" stroke-miterlimit="10"/>
<mask id="mask1_69_722" style="mask-type:luminance" maskUnits="userSpaceOnUse" x="200" y="123" width="84" height="84">
<path d="M210.084 168.869C210.112 169.079 210.14 169.288 210.172 169.498C210.19 169.622 210.211 169.745 210.231 169.868C210.251 169.991 210.27 170.113 210.291 170.235C210.327 170.444 210.367 170.652 210.407 170.86C210.414 170.897 210.42 170.933 210.428 170.97C210.439 171.026 210.448 171.082 210.46 171.139C210.565 171.657 210.683 172.171 210.813 172.681C210.861 172.868 210.913 173.054 210.963 173.24L202.8 178.722L205.523 184.78L215.042 182.313C215.465 182.963 215.913 183.598 216.385 184.22C216.407 184.25 216.431 184.279 216.453 184.308C216.582 184.476 216.711 184.644 216.844 184.808C216.921 184.908 217 185.001 217.078 185.097C217.156 185.193 217.236 185.291 217.316 185.387C217.449 185.55 217.587 185.711 217.729 185.871L217.801 185.954C218.315 186.542 218.848 187.109 219.401 187.654L215.073 196.483L220.46 200.368L227.47 193.468C228.161 193.819 228.867 194.146 229.586 194.448L229.686 194.491C229.881 194.572 230.077 194.652 230.275 194.73L230.623 194.863C230.739 194.907 230.855 194.952 230.972 194.994C231.172 195.067 231.372 195.138 231.572 195.207L231.678 195.244C232.417 195.495 233.162 195.719 233.911 195.915L234.578 205.726L241.185 206.396L243.808 196.919C244.582 196.877 245.357 196.807 246.132 196.709L246.241 196.695C246.41 196.673 246.579 196.652 246.748 196.627L246.871 196.607C246.995 196.589 247.118 196.568 247.241 196.548C247.364 196.528 247.486 196.509 247.608 196.488C247.817 196.452 248.025 196.413 248.233 196.372L248.321 196.356L248.343 196.351C249.109 196.2 249.866 196.022 250.613 195.816L256.095 203.979L262.153 201.255L259.686 191.737C259.847 191.631 260.009 191.526 260.169 191.418C260.605 191.124 261.034 190.817 261.457 190.499C261.503 190.465 261.547 190.429 261.593 190.399L261.61 190.386L261.681 190.331C261.849 190.202 262.017 190.072 262.181 189.94C262.281 189.863 262.373 189.784 262.469 189.706L262.76 189.468C262.791 189.441 262.824 189.416 262.86 189.389C262.991 189.279 263.119 189.167 263.247 189.055L263.332 188.983C263.919 188.469 264.486 187.936 265.032 187.383L273.862 191.711L277.746 186.324L270.846 179.314C271.197 178.624 271.524 177.918 271.826 177.198C271.841 177.163 271.855 177.127 271.87 177.091C271.951 176.897 272.031 176.702 272.108 176.506C272.154 176.389 272.198 176.271 272.242 176.154C272.286 176.037 272.33 175.924 272.372 175.809C272.446 175.609 272.517 175.409 272.586 175.209C272.598 175.175 272.61 175.142 272.621 175.109C272.873 174.371 273.097 173.626 273.293 172.874L283.104 172.208L283.774 165.6L274.297 162.978C274.255 162.204 274.185 161.43 274.088 160.654L274.073 160.545C274.046 160.335 274.017 160.125 273.985 159.915C273.967 159.791 273.946 159.668 273.926 159.545C273.906 159.422 273.887 159.3 273.866 159.178C273.83 158.969 273.79 158.761 273.75 158.553L273.729 158.443C273.578 157.677 273.399 156.921 273.194 156.173L281.357 150.69L278.637 144.628L269.118 147.095C268.695 146.446 268.247 145.81 267.775 145.188C267.753 145.158 267.729 145.129 267.707 145.099C267.578 144.931 267.449 144.764 267.316 144.599C267.239 144.499 267.16 144.406 267.082 144.31C267.004 144.214 266.924 144.116 266.844 144.02C266.708 143.857 266.57 143.697 266.431 143.537L266.359 143.453C265.845 142.865 265.312 142.299 264.759 141.753L269.087 132.923L263.699 129.041L256.689 135.941C255.998 135.59 255.292 135.263 254.572 134.96L254.472 134.919C254.276 134.837 254.078 134.757 253.879 134.679C253.765 134.633 253.649 134.59 253.534 134.546C253.419 134.502 253.301 134.457 253.183 134.414C252.983 134.341 252.783 134.271 252.583 134.203L252.475 134.165C251.736 133.913 250.991 133.69 250.242 133.494L249.575 123.683L242.968 123.013L240.345 132.49C239.571 132.532 238.797 132.601 238.022 132.699L237.911 132.714C237.742 132.736 237.573 132.757 237.405 132.782L237.282 132.801C237.158 132.82 237.035 132.841 236.911 132.861C236.787 132.881 236.667 132.9 236.545 132.921C236.336 132.957 236.128 132.996 235.92 133.037L235.832 133.053H235.81C235.044 133.205 234.287 133.383 233.54 133.588L228.058 125.425L222 128.148L224.467 137.667C223.818 138.091 223.182 138.538 222.559 139.01L222.542 139.023L222.475 139.075C222.305 139.205 222.137 139.336 221.969 139.469C221.874 139.545 221.78 139.623 221.685 139.7C221.59 139.777 221.485 139.86 221.391 139.941L221.291 140.019C221.161 140.129 221.034 140.24 220.906 140.351L220.819 140.426C220.231 140.94 219.664 141.474 219.119 142.026L210.289 137.697L206.405 143.085L213.305 150.095C212.954 150.785 212.627 151.491 212.325 152.211C212.31 152.245 212.296 152.28 212.282 152.311C212.201 152.511 212.121 152.703 212.043 152.901L212.029 152.936L212.015 152.969C211.979 153.062 211.945 153.156 211.91 153.249C211.866 153.365 211.821 153.481 211.778 153.598C211.705 153.798 211.635 153.998 211.566 154.198L211.529 154.298C211.277 155.037 211.053 155.782 210.858 156.532L201.047 157.199L200.377 163.806L209.854 166.429C209.895 167.203 209.965 167.978 210.063 168.752L210.084 168.869ZM230.795 140.899C230.962 140.821 231.13 140.747 231.295 140.672C231.46 140.597 231.602 140.532 231.757 140.465L231.877 140.415C235.733 138.807 239.914 138.13 244.081 138.441L244.209 138.451C244.394 138.466 244.578 138.487 244.762 138.506C244.929 138.523 245.095 138.537 245.262 138.557L245.39 138.574C249.534 139.107 253.493 140.61 256.946 142.961L257.053 143.034C257.204 143.139 257.353 143.248 257.501 143.356C257.649 143.464 257.775 143.551 257.911 143.656L258.011 143.735C261.333 146.269 264.01 149.55 265.825 153.312L265.88 153.427C265.96 153.597 266.035 153.768 266.111 153.939C266.179 154.09 266.249 154.239 266.311 154.393C266.328 154.433 266.345 154.472 266.361 154.512C267.972 158.369 268.65 162.551 268.34 166.718L268.331 166.838C268.315 167.024 268.294 167.209 268.275 167.395C268.258 167.563 268.243 167.731 268.223 167.895L268.208 168.013C267.675 172.161 266.171 176.124 263.817 179.579C263.794 179.613 263.771 179.648 263.747 179.679C263.647 179.817 263.547 179.953 263.452 180.089C263.357 180.225 263.237 180.389 263.126 180.541C263.101 180.574 263.075 180.606 263.05 180.641C260.516 183.964 257.233 186.642 253.469 188.456L253.357 188.51C253.2 188.584 253.042 188.653 252.885 188.723C252.728 188.793 252.555 188.875 252.385 188.946L252.27 188.994C248.415 190.604 244.236 191.282 240.07 190.973L239.943 190.963C239.769 190.949 239.596 190.929 239.422 190.911C239.248 190.893 239.066 190.877 238.888 190.856L238.762 190.84C234.618 190.307 230.658 188.803 227.204 186.451L227.104 186.38C226.962 186.28 226.824 186.18 226.684 186.08C226.544 185.98 226.389 185.87 226.244 185.761L226.144 185.685C222.821 183.151 220.144 179.869 218.329 176.104C218.31 176.066 218.292 176.029 218.274 175.991C218.202 175.839 218.136 175.685 218.067 175.532C217.99 175.362 217.912 175.194 217.839 175.022C217.822 174.984 217.806 174.945 217.79 174.906C216.18 171.052 215.502 166.872 215.812 162.706C215.812 162.661 215.819 162.616 215.822 162.571C215.836 162.403 215.855 162.236 215.873 162.071C215.891 161.906 215.907 161.708 215.928 161.527C215.934 161.482 215.94 161.438 215.945 161.393C216.48 157.251 217.985 153.293 220.337 149.841L220.409 149.735C220.516 149.581 220.627 149.435 220.737 149.28C220.837 149.145 220.929 149.009 221.028 148.88C221.054 148.846 221.081 148.812 221.107 148.78C223.64 145.459 226.921 142.782 230.684 140.966L230.795 140.899Z" fill="white"/>
</mask>
<g mask="url(#mask1_69_722)">
<path d="M340.762 121.995L253.036 209.721" stroke="#F7FFFF" stroke-opacity="0.15" stroke-width="0.42" stroke-miterlimit="10"/>
<path d="M327.973 121.995L240.247 209.721" stroke="#F7FFFF" stroke-opacity="0.15" stroke-width="0.42" stroke-miterlimit="10"/>
<path d="M315.183 121.995L227.457 209.721" stroke="#F7FFFF" stroke-opacity="0.15" stroke-width="0.42" stroke-miterlimit="10"/>
<path d="M302.394 121.995L214.668 209.721" stroke="#F7FFFF" stroke-opacity="0.15" stroke-width="0.42" stroke-miterlimit="10"/>
<path d="M347.158 121.995L259.432 209.721" stroke="#F7FFFF" stroke-opacity="0.15" stroke-width="0.42" stroke-miterlimit="10"/>
<path d="M334.369 121.995L246.643 209.721" stroke="#F7FFFF" stroke-opacity="0.15" stroke-width="0.42" stroke-miterlimit="10"/>
<path d="M321.579 121.995L233.853 209.721" stroke="#F7FFFF" stroke-opacity="0.15" stroke-width="0.42" stroke-miterlimit="10"/>
<path d="M308.788 121.995L221.062 209.721" stroke="#F7FFFF" stroke-opacity="0.15" stroke-width="0.42" stroke-miterlimit="10"/>
<path d="M295.999 121.995L208.273 209.721" stroke="#F7FFFF" stroke-opacity="0.15" stroke-width="0.42" stroke-miterlimit="10"/>
<path d="M289.605 121.995L201.879 209.721" stroke="#F7FFFF" stroke-opacity="0.15" stroke-width="0.42" stroke-miterlimit="10"/>
<path d="M283.209 121.995L195.483 209.721" stroke="#F7FFFF" stroke-opacity="0.15" stroke-width="0.42" stroke-miterlimit="10"/>
<path d="M276.815 121.995L189.089 209.721" stroke="#F7FFFF" stroke-opacity="0.15" stroke-width="0.42" stroke-miterlimit="10"/>
<path d="M270.419 121.995L182.693 209.721" stroke="#F7FFFF" stroke-opacity="0.15" stroke-width="0.42" stroke-miterlimit="10"/>
<path d="M264.026 121.995L176.3 209.721" stroke="#F7FFFF" stroke-opacity="0.15" stroke-width="0.42" stroke-miterlimit="10"/>
<path d="M257.63 121.995L169.904 209.721" stroke="#F7FFFF" stroke-opacity="0.15" stroke-width="0.42" stroke-miterlimit="10"/>
<path d="M251.236 121.995L163.51 209.721" stroke="#F7FFFF" stroke-opacity="0.15" stroke-width="0.42" stroke-miterlimit="10"/>
<path d="M244.84 121.995L157.114 209.721" stroke="#F7FFFF" stroke-opacity="0.15" stroke-width="0.42" stroke-miterlimit="10"/>
<path d="M337.566 121.995L249.84 209.721" stroke="#F7FFFF" stroke-opacity="0.15" stroke-width="0.42" stroke-miterlimit="10"/>
<path d="M324.776 121.995L237.05 209.721" stroke="#F7FFFF" stroke-opacity="0.15" stroke-width="0.42" stroke-miterlimit="10"/>
<path d="M311.987 121.995L224.261 209.721" stroke="#F7FFFF" stroke-opacity="0.15" stroke-width="0.42" stroke-miterlimit="10"/>
<path d="M299.197 121.995L211.471 209.721" stroke="#F7FFFF" stroke-opacity="0.15" stroke-width="0.42" stroke-miterlimit="10"/>
<path d="M286.408 121.995L198.682 209.721" stroke="#F7FFFF" stroke-opacity="0.15" stroke-width="0.42" stroke-miterlimit="10"/>
<path d="M273.618 121.995L185.892 209.721" stroke="#F7FFFF" stroke-opacity="0.15" stroke-width="0.42" stroke-miterlimit="10"/>
<path d="M260.828 121.995L173.102 209.721" stroke="#F7FFFF" stroke-opacity="0.15" stroke-width="0.42" stroke-miterlimit="10"/>
<path d="M343.96 121.995L256.234 209.721" stroke="#F7FFFF" stroke-opacity="0.15" stroke-width="0.42" stroke-miterlimit="10"/>
<path d="M331.17 121.995L243.444 209.721" stroke="#F7FFFF" stroke-opacity="0.15" stroke-width="0.42" stroke-miterlimit="10"/>
<path d="M318.381 121.995L230.655 209.721" stroke="#F7FFFF" stroke-opacity="0.15" stroke-width="0.42" stroke-miterlimit="10"/>
<path d="M305.591 121.995L217.865 209.721" stroke="#F7FFFF" stroke-opacity="0.15" stroke-width="0.42" stroke-miterlimit="10"/>
<path d="M292.801 121.995L205.075 209.721" stroke="#F7FFFF" stroke-opacity="0.15" stroke-width="0.42" stroke-miterlimit="10"/>
<path d="M280.012 121.995L192.286 209.721" stroke="#F7FFFF" stroke-opacity="0.15" stroke-width="0.42" stroke-miterlimit="10"/>
<path d="M267.222 121.995L179.496 209.721" stroke="#F7FFFF" stroke-opacity="0.15" stroke-width="0.42" stroke-miterlimit="10"/>
<path d="M254.432 121.995L166.706 209.721" stroke="#F7FFFF" stroke-opacity="0.15" stroke-width="0.42" stroke-miterlimit="10"/>
<path d="M248.038 121.995L160.312 209.721" stroke="#F7FFFF" stroke-opacity="0.15" stroke-width="0.42" stroke-miterlimit="10"/>
<path d="M241.643 121.995L153.917 209.721" stroke="#F7FFFF" stroke-opacity="0.15" stroke-width="0.42" stroke-miterlimit="10"/>
<path d="M238.446 121.995L150.72 209.721" stroke="#F7FFFF" stroke-opacity="0.15" stroke-width="0.42" stroke-miterlimit="10"/>
<path d="M235.248 121.995L147.522 209.721" stroke="#F7FFFF" stroke-opacity="0.15" stroke-width="0.42" stroke-miterlimit="10"/>
<path d="M232.051 121.995L144.325 209.721" stroke="#F7FFFF" stroke-opacity="0.15" stroke-width="0.42" stroke-miterlimit="10"/>
<path d="M228.853 121.995L141.127 209.721" stroke="#F7FFFF" stroke-opacity="0.15" stroke-width="0.42" stroke-miterlimit="10"/>
<path d="M225.657 121.995L137.931 209.721" stroke="#F7FFFF" stroke-opacity="0.15" stroke-width="0.42" stroke-miterlimit="10"/>
<path d="M222.458 121.995L134.732 209.721" stroke="#F7FFFF" stroke-opacity="0.15" stroke-width="0.42" stroke-miterlimit="10"/>
</g>
<path d="M210.084 168.869C210.112 169.079 210.14 169.288 210.172 169.498C210.19 169.622 210.211 169.745 210.231 169.868C210.251 169.991 210.27 170.113 210.291 170.235C210.327 170.444 210.367 170.652 210.407 170.86C210.414 170.897 210.42 170.933 210.428 170.97C210.439 171.026 210.448 171.082 210.46 171.139C210.565 171.657 210.683 172.171 210.813 172.681C210.861 172.868 210.913 173.054 210.963 173.24L202.8 178.722L205.523 184.78L215.042 182.313C215.465 182.963 215.913 183.598 216.385 184.22C216.407 184.25 216.431 184.279 216.453 184.308C216.582 184.476 216.711 184.644 216.844 184.808C216.921 184.908 217 185.001 217.078 185.097C217.156 185.193 217.236 185.291 217.316 185.387C217.449 185.55 217.587 185.711 217.729 185.871L217.801 185.954C218.315 186.542 218.848 187.109 219.401 187.654L215.073 196.483L220.46 200.368L227.47 193.468C228.161 193.819 228.867 194.146 229.586 194.448L229.686 194.491C229.881 194.572 230.077 194.652 230.275 194.73L230.623 194.863C230.739 194.907 230.855 194.952 230.972 194.994C231.172 195.067 231.372 195.138 231.572 195.207L231.678 195.244C232.417 195.495 233.162 195.719 233.911 195.915L234.578 205.726L241.185 206.396L243.808 196.919C244.582 196.877 245.357 196.807 246.132 196.709L246.241 196.695C246.41 196.673 246.579 196.652 246.748 196.627L246.871 196.607C246.995 196.589 247.118 196.568 247.241 196.548C247.364 196.528 247.486 196.509 247.608 196.488C247.817 196.452 248.025 196.413 248.233 196.372L248.321 196.356L248.343 196.351C249.109 196.2 249.866 196.022 250.613 195.816L256.095 203.979L262.153 201.255L259.686 191.737C259.847 191.631 260.009 191.526 260.169 191.418C260.605 191.124 261.034 190.817 261.457 190.499C261.503 190.465 261.547 190.429 261.593 190.399L261.61 190.386L261.681 190.331C261.849 190.202 262.017 190.072 262.181 189.94C262.281 189.863 262.373 189.784 262.469 189.706L262.76 189.468C262.791 189.441 262.824 189.416 262.86 189.389C262.991 189.279 263.119 189.167 263.247 189.055L263.332 188.983C263.919 188.469 264.486 187.936 265.032 187.383L273.862 191.711L277.746 186.324L270.846 179.314C271.197 178.624 271.524 177.918 271.826 177.198C271.841 177.163 271.855 177.127 271.87 177.091C271.951 176.897 272.031 176.702 272.108 176.506C272.154 176.389 272.198 176.271 272.242 176.154C272.286 176.037 272.33 175.924 272.372 175.809C272.446 175.609 272.517 175.409 272.586 175.209C272.598 175.175 272.61 175.142 272.621 175.109C272.873 174.371 273.097 173.626 273.293 172.874L283.104 172.208L283.774 165.6L274.297 162.978C274.255 162.204 274.185 161.43 274.088 160.654L274.073 160.545C274.046 160.335 274.017 160.125 273.985 159.915C273.967 159.791 273.946 159.668 273.926 159.545C273.906 159.422 273.887 159.3 273.866 159.178C273.83 158.969 273.79 158.761 273.75 158.553L273.729 158.443C273.578 157.677 273.399 156.921 273.194 156.173L281.357 150.69L278.637 144.628L269.118 147.095C268.695 146.446 268.247 145.81 267.775 145.188C267.753 145.158 267.729 145.129 267.707 145.099C267.578 144.931 267.449 144.764 267.316 144.599C267.239 144.499 267.16 144.406 267.082 144.31C267.004 144.214 266.924 144.116 266.844 144.02C266.708 143.857 266.57 143.697 266.431 143.537L266.359 143.453C265.845 142.865 265.312 142.299 264.759 141.753L269.087 132.923L263.699 129.041L256.689 135.941C255.998 135.59 255.292 135.263 254.572 134.96L254.472 134.919C254.276 134.837 254.078 134.757 253.879 134.679C253.765 134.633 253.649 134.59 253.534 134.546C253.419 134.502 253.301 134.457 253.183 134.414C252.983 134.341 252.783 134.271 252.583 134.203L252.475 134.165C251.736 133.913 250.991 133.69 250.242 133.494L249.575 123.683L242.968 123.013L240.345 132.49C239.571 132.532 238.797 132.601 238.022 132.699L237.911 132.714C237.742 132.736 237.573 132.757 237.405 132.782L237.282 132.801C237.158 132.82 237.035 132.841 236.911 132.861C236.787 132.881 236.667 132.9 236.545 132.921C236.336 132.957 236.128 132.996 235.92 133.037L235.832 133.053H235.81C235.044 133.205 234.287 133.383 233.54 133.588L228.058 125.425L222 128.148L224.467 137.667C223.818 138.091 223.182 138.538 222.559 139.01L222.542 139.023L222.475 139.075C222.305 139.205 222.137 139.336 221.969 139.469C221.874 139.545 221.78 139.623 221.685 139.7C221.59 139.777 221.485 139.86 221.391 139.941L221.291 140.019C221.161 140.129 221.034 140.24 220.906 140.351L220.819 140.426C220.231 140.94 219.664 141.474 219.119 142.026L210.289 137.697L206.405 143.085L213.305 150.095C212.954 150.785 212.627 151.491 212.325 152.211C212.31 152.245 212.296 152.28 212.282 152.311C212.201 152.511 212.121 152.703 212.043 152.901L212.029 152.936L212.015 152.969C211.979 153.062 211.945 153.156 211.91 153.249C211.866 153.365 211.821 153.481 211.778 153.598C211.705 153.798 211.635 153.998 211.566 154.198L211.529 154.298C211.277 155.037 211.053 155.782 210.858 156.532L201.047 157.199L200.377 163.806L209.854 166.429C209.895 167.203 209.965 167.978 210.063 168.752L210.084 168.869ZM230.795 140.899C230.962 140.821 231.13 140.747 231.295 140.672C231.46 140.597 231.602 140.532 231.757 140.465L231.877 140.415C235.733 138.807 239.914 138.13 244.081 138.441L244.209 138.451C244.394 138.466 244.578 138.487 244.762 138.506C244.929 138.523 245.095 138.537 245.262 138.557L245.39 138.574C249.534 139.107 253.493 140.61 256.946 142.961L257.053 143.034C257.204 143.139 257.353 143.248 257.501 143.356C257.649 143.464 257.775 143.551 257.911 143.656L258.011 143.735C261.333 146.269 264.01 149.55 265.825 153.312L265.88 153.427C265.96 153.597 266.035 153.768 266.111 153.939C266.179 154.09 266.249 154.239 266.311 154.393C266.328 154.433 266.345 154.472 266.361 154.512C267.972 158.369 268.65 162.551 268.34 166.718L268.331 166.838C268.315 167.024 268.294 167.209 268.275 167.395C268.258 167.563 268.243 167.731 268.223 167.895L268.208 168.013C267.675 172.161 266.171 176.124 263.817 179.579C263.794 179.613 263.771 179.648 263.747 179.679C263.647 179.817 263.547 179.953 263.452 180.089C263.357 180.225 263.237 180.389 263.126 180.541C263.101 180.574 263.075 180.606 263.05 180.641C260.516 183.964 257.233 186.642 253.469 188.456L253.357 188.51C253.2 188.584 253.042 188.653 252.885 188.723C252.728 188.793 252.555 188.875 252.385 188.946L252.27 188.994C248.415 190.604 244.236 191.282 240.07 190.973L239.943 190.963C239.769 190.949 239.596 190.929 239.422 190.911C239.248 190.893 239.066 190.877 238.888 190.856L238.762 190.84C234.618 190.307 230.658 188.803 227.204 186.451L227.104 186.38C226.962 186.28 226.824 186.18 226.684 186.08C226.544 185.98 226.389 185.87 226.244 185.761L226.144 185.685C222.821 183.151 220.144 179.869 218.329 176.104C218.31 176.066 218.292 176.029 218.274 175.991C218.202 175.839 218.136 175.685 218.067 175.532C217.99 175.362 217.912 175.194 217.839 175.022C217.822 174.984 217.806 174.945 217.79 174.906C216.18 171.052 215.502 166.872 215.812 162.706C215.812 162.661 215.819 162.616 215.822 162.571C215.836 162.403 215.855 162.236 215.873 162.071C215.891 161.906 215.907 161.708 215.928 161.527C215.934 161.482 215.94 161.438 215.945 161.393C216.48 157.251 217.985 153.293 220.337 149.841L220.409 149.735C220.516 149.581 220.627 149.435 220.737 149.28C220.837 149.145 220.929 149.009 221.028 148.88C221.054 148.846 221.081 148.812 221.107 148.78C223.64 145.459 226.921 142.782 230.684 140.966L230.795 140.899Z" stroke="#F7FFFF" stroke-opacity="0.15" stroke-width="0.84" stroke-linecap="round" stroke-linejoin="round"/>
<mask id="mask2_69_722" style="mask-type:luminance" maskUnits="userSpaceOnUse" x="1" y="47" width="167" height="22">
<path d="M167.301 68.9515V47.2635L0.999786 47.2635V68.9515L167.301 68.9515Z" fill="white"/>
</mask>
<g mask="url(#mask2_69_722)">
<path d="M-10.6436 -136.456L180.808 54.9956" stroke="#F7FFFF" stroke-opacity="0.15" stroke-width="0.63" stroke-miterlimit="10"/>
<path d="M-10.6436 -108.544L180.808 82.9076" stroke="#F7FFFF" stroke-opacity="0.15" stroke-width="0.63" stroke-miterlimit="10"/>
<path d="M-10.6436 -80.6324L180.808 110.82" stroke="#F7FFFF" stroke-opacity="0.15" stroke-width="0.63" stroke-miterlimit="10"/>
<path d="M-10.6436 -122.5L180.808 68.9515" stroke="#F7FFFF" stroke-opacity="0.15" stroke-width="0.63" stroke-miterlimit="10"/>
<path d="M-10.6436 -94.5885L180.808 96.8635" stroke="#F7FFFF" stroke-opacity="0.15" stroke-width="0.63" stroke-miterlimit="10"/>
<path d="M-10.6436 -66.6765L180.808 124.775" stroke="#F7FFFF" stroke-opacity="0.15" stroke-width="0.63" stroke-miterlimit="10"/>
<path d="M-10.6436 -52.7205L180.808 138.732" stroke="#F7FFFF" stroke-opacity="0.15" stroke-width="0.63" stroke-miterlimit="10"/>
<path d="M-10.6436 -38.7644L180.808 152.688" stroke="#F7FFFF" stroke-opacity="0.15" stroke-width="0.63" stroke-miterlimit="10"/>
<path d="M-10.6436 -24.8085L180.808 166.644" stroke="#F7FFFF" stroke-opacity="0.15" stroke-width="0.63" stroke-miterlimit="10"/>
<path d="M-10.6436 -10.8524L180.808 180.6" stroke="#F7FFFF" stroke-opacity="0.15" stroke-width="0.63" stroke-miterlimit="10"/>
<path d="M-10.6436 3.10352L180.808 194.556" stroke="#F7FFFF" stroke-opacity="0.15" stroke-width="0.63" stroke-miterlimit="10"/>
<path d="M-10.6436 17.0596L180.808 208.512" stroke="#F7FFFF" stroke-opacity="0.15" stroke-width="0.63" stroke-miterlimit="10"/>
<path d="M-10.6436 31.0155L180.808 222.467" stroke="#F7FFFF" stroke-opacity="0.15" stroke-width="0.63" stroke-miterlimit="10"/>
<path d="M-10.6436 44.9716L180.808 236.424" stroke="#F7FFFF" stroke-opacity="0.15" stroke-width="0.63" stroke-miterlimit="10"/>
<path d="M-10.6436 -129.479L180.808 61.9735" stroke="#F7FFFF" stroke-opacity="0.15" stroke-width="0.63" stroke-miterlimit="10"/>
<path d="M-10.6436 -101.566L180.808 89.8856" stroke="#F7FFFF" stroke-opacity="0.15" stroke-width="0.63" stroke-miterlimit="10"/>
<path d="M-10.6436 -73.6544L180.808 117.798" stroke="#F7FFFF" stroke-opacity="0.15" stroke-width="0.63" stroke-miterlimit="10"/>
<path d="M-10.6436 -45.7424L180.808 145.71" stroke="#F7FFFF" stroke-opacity="0.15" stroke-width="0.63" stroke-miterlimit="10"/>
<path d="M-10.6436 -17.8304L180.808 173.622" stroke="#F7FFFF" stroke-opacity="0.15" stroke-width="0.63" stroke-miterlimit="10"/>
<path d="M-10.6436 10.0815L180.808 201.534" stroke="#F7FFFF" stroke-opacity="0.15" stroke-width="0.63" stroke-miterlimit="10"/>
<path d="M-10.6436 -143.434L180.808 48.0175" stroke="#F7FFFF" stroke-opacity="0.15" stroke-width="0.63" stroke-miterlimit="10"/>
<path d="M-10.6436 -115.522L180.808 75.9295" stroke="#F7FFFF" stroke-opacity="0.15" stroke-width="0.63" stroke-miterlimit="10"/>
<path d="M-10.6436 -87.6105L180.808 103.842" stroke="#F7FFFF" stroke-opacity="0.15" stroke-width="0.63" stroke-miterlimit="10"/>
<path d="M-10.6436 -59.6985L180.808 131.754" stroke="#F7FFFF" stroke-opacity="0.15" stroke-width="0.63" stroke-miterlimit="10"/>
<path d="M-10.6436 -31.7865L180.808 159.665" stroke="#F7FFFF" stroke-opacity="0.15" stroke-width="0.63" stroke-miterlimit="10"/>
<path d="M-10.6436 -3.87451L180.808 187.577" stroke="#F7FFFF" stroke-opacity="0.15" stroke-width="0.63" stroke-miterlimit="10"/>
<path d="M-10.6436 24.0376L180.808 215.49" stroke="#F7FFFF" stroke-opacity="0.15" stroke-width="0.63" stroke-miterlimit="10"/>
<path d="M-10.6436 37.9935L180.808 229.446" stroke="#F7FFFF" stroke-opacity="0.15" stroke-width="0.63" stroke-miterlimit="10"/>
<path d="M-10.6436 51.9496L180.808 243.402" stroke="#F7FFFF" stroke-opacity="0.15" stroke-width="0.63" stroke-miterlimit="10"/>
<path d="M-10.6436 58.9275L180.808 250.379" stroke="#F7FFFF" stroke-opacity="0.15" stroke-width="0.63" stroke-miterlimit="10"/>
<path d="M-10.6436 65.9055L180.808 257.358" stroke="#F7FFFF" stroke-opacity="0.15" stroke-width="0.63" stroke-miterlimit="10"/>
</g>
<path d="M167.301 47.2635V68.9525H1.00098V47.2635" stroke="#F7FFFF" stroke-opacity="0.15" stroke-width="0.63" stroke-miterlimit="10"/>
<path d="M322.673 92.2384C351.714 63.1982 351.714 16.1148 322.673 -12.9254C293.633 -41.9655 246.55 -41.9655 217.51 -12.9254C188.469 16.1148 188.469 63.1982 217.51 92.2384C246.55 121.279 293.633 121.279 322.673 92.2384Z" stroke="#F7FFFF" stroke-opacity="0.15" stroke-width="0.42" stroke-miterlimit="10"/>
<path d="M413.358 287.131C448.003 287.131 476.088 259.045 476.088 224.401C476.088 189.756 448.003 161.671 413.358 161.671C378.713 161.671 350.628 189.756 350.628 224.401C350.628 259.045 378.713 287.131 413.358 287.131Z" stroke="#F7FFFF" stroke-opacity="0.15" stroke-width="0.21" stroke-miterlimit="10"/>
<path d="M372.42 141.985C428.935 85.4704 428.935 -6.15743 372.42 -62.6718C315.906 -119.186 224.278 -119.186 167.764 -62.6718C111.249 -6.15743 111.249 85.4704 167.764 141.985C224.278 198.499 315.906 198.499 372.42 141.985Z" stroke="#F7FFFF" stroke-opacity="0.15" stroke-width="0.21" stroke-miterlimit="10"/>
<path d="M467.343 233.086C472.139 203.271 451.858 175.213 422.043 170.417C392.229 165.621 364.171 185.902 359.375 215.717C354.579 245.531 374.86 273.589 404.674 278.385C434.489 283.181 462.546 262.9 467.343 233.086Z" stroke="#F7FFFF" stroke-opacity="0.15" stroke-width="1.679" stroke-miterlimit="10"/>
<path d="M167.303 47.2675V120.396H81.1963V47.2675" stroke="#F7FFFF" stroke-opacity="0.15" stroke-width="0.63" stroke-miterlimit="10"/>
<path d="M468.129 199.067H287.276V47.2675" stroke="#F7FFFF" stroke-opacity="0.15" stroke-width="0.42" stroke-miterlimit="10"/>
<path d="M468.13 342.414H336.607V47.2705" stroke="#F7FFFF" stroke-opacity="0.15" stroke-width="0.42" stroke-miterlimit="10"/>
</svg>
