<svg width="73" height="73" viewBox="0 0 73 73" fill="none" xmlns="http://www.w3.org/2000/svg">
<path d="M39.5798 6.04524C33.4831 6.04395 27.5427 7.97355 22.6105 11.5573C17.6783 15.141 14.0079 20.1947 12.1256 25.9935C10.2433 31.7924 10.246 38.0383 12.1331 43.8356C14.0202 49.6328 17.6949 54.6835 22.6301 58.2631L23.5654 66.9774L30.911 62.4149C33.7183 63.2865 36.6403 63.7324 39.5798 63.7381C47.2394 63.7381 54.5853 60.6953 60.0015 55.2791C65.4176 49.863 68.4604 42.5171 68.4604 34.8574C68.4604 27.1978 65.4176 19.8519 60.0015 14.4357C54.5853 9.01958 47.2394 5.97681 39.5798 5.97681V6.04524Z" stroke="#FFB635" stroke-width="3" stroke-linecap="round" stroke-linejoin="round"/>
<path d="M32.4166 23.2001L36.1807 26.9642C36.4242 27.2041 36.6175 27.4899 36.7495 27.8052C36.8815 28.1205 36.9494 28.4588 36.9494 28.8006C36.9494 29.1424 36.8815 29.4807 36.7495 29.796C36.6175 30.1113 36.4242 30.3972 36.1807 30.637C35.7 31.1274 35.4307 31.7867 35.4307 32.4734C35.4307 33.1601 35.7 33.8194 36.1807 34.3098L41.7697 39.8989C42.2601 40.3796 42.9195 40.6488 43.6061 40.6488C44.2928 40.6488 44.9522 40.3796 45.4426 39.8989C45.6824 39.6554 45.9683 39.4621 46.2835 39.3301C46.5988 39.1981 46.9372 39.1301 47.279 39.1301C47.6207 39.1301 47.9591 39.1981 48.2744 39.3301C48.5896 39.4621 48.8755 39.6554 49.1154 39.8989L52.9022 43.6858C53.3829 44.1762 53.6522 44.8355 53.6522 45.5222C53.6522 46.2089 53.3829 46.8682 52.9022 47.3586L51.5791 48.6817C51.2225 49.0252 50.782 49.269 50.3016 49.3889C47.0517 50.1338 43.6659 50.0412 40.4617 49.1197C37.2574 48.1981 34.3397 46.4779 31.9821 44.1203C29.6245 41.7627 27.9042 38.845 26.9827 35.6407C26.0612 32.4364 25.9686 29.0506 26.7135 25.8008C26.8187 25.3147 27.0646 24.8704 27.4207 24.5233L28.7438 23.2001C28.9837 22.9567 29.2695 22.7633 29.5848 22.6313C29.9001 22.4994 30.2384 22.4314 30.5802 22.4314C30.922 22.4314 31.2604 22.4994 31.5756 22.6313C31.8909 22.7633 32.1768 22.9567 32.4166 23.2001Z" stroke="#FFB635" stroke-width="3" stroke-linecap="round" stroke-linejoin="round"/>
</svg>
