<svg width="64" height="64" viewBox="0 0 64 64" fill="none" xmlns="http://www.w3.org/2000/svg">
<g clip-path="url(#clip0_69_2315)">
<path d="M24.0782 63.9999C22.7313 63.5542 21.7405 62.7571 21.4677 61.2832C21.1193 59.4014 20.7888 57.5166 20.451 55.6332C20.4325 55.5309 20.4123 55.4287 20.3872 55.3279C20.252 54.7854 19.9612 54.6666 19.4983 54.9859C17.9238 56.0717 16.3568 57.1692 14.7817 58.2547C13.1032 59.4127 11.5802 59.2691 10.1335 57.8229C8.85304 56.5429 7.57393 55.2616 6.29615 53.9791C4.82749 52.5044 4.69082 50.9624 5.87949 49.2747C6.93382 47.7777 7.98971 46.282 9.04715 44.7874C9.46515 44.1936 9.34549 43.9017 8.62682 43.7707C6.74766 43.4277 4.86866 43.0839 2.98732 42.7541C1.21549 42.4427 0.13182 41.1761 0.126487 39.3691C0.120598 37.4111 0.120598 35.4531 0.126487 33.4951C0.12982 31.6014 1.18215 30.3496 3.03382 30.0184C4.91438 29.6823 6.79449 29.3434 8.67416 29.0017C9.34082 28.8816 9.46815 28.5831 9.08099 28.0214C7.98282 26.4284 6.87465 24.8424 5.78099 23.2461C4.73999 21.7259 4.87982 20.1376 6.17149 18.8317C7.54694 17.4409 8.92932 16.0569 10.3187 14.6799C11.5653 13.4449 13.1843 13.3004 14.627 14.3082C16.212 15.4154 17.7783 16.5497 19.356 17.6674C19.949 18.0874 20.2227 17.9699 20.3545 17.2527C20.712 15.3092 21.048 13.3616 21.432 11.4232C21.7638 9.74775 23.0018 8.75308 24.6957 8.74208C25.839 8.73474 26.9824 8.73508 28.1258 8.74308C28.8813 8.74874 29.324 9.14158 29.3375 9.78958C29.3518 10.4689 28.9042 10.8816 28.1168 10.8882C27.0358 10.8971 25.9547 10.8832 24.8737 10.8936C24.0602 10.9012 23.7147 11.1994 23.5648 12.0126C23.2677 13.6266 22.9795 15.2421 22.6777 16.9116C23.6808 16.7571 24.6262 16.5824 25.5787 16.4709C27.938 16.1968 30.3274 16.3515 32.6317 16.9277C33.4292 17.1242 33.8167 17.6611 33.6515 18.2974C33.4817 18.9509 32.9182 19.2202 32.1135 19.0307C26.6327 17.7434 21.586 18.7219 17.0452 22.0509C11.3252 26.2444 8.70382 33.5899 10.3603 40.5652C12.0073 47.4999 17.6837 52.9164 24.7103 53.9941C31.9167 55.0992 37.7687 52.6337 42.2175 46.8417C42.3062 46.7262 42.385 46.6027 42.479 46.4917C42.9058 45.9891 43.4833 45.8937 43.9725 46.2404C44.0961 46.3205 44.2011 46.4262 44.2804 46.5503C44.3597 46.6743 44.4116 46.814 44.4325 46.9597C44.4533 47.1055 44.4427 47.2541 44.4014 47.3955C44.3601 47.5368 44.289 47.6677 44.1928 47.7792C43.2182 48.9659 42.25 50.1716 41.1527 51.2391C40.224 52.1427 39.1178 52.8631 38.0407 53.7031C39.4777 54.6986 40.9117 55.7169 42.374 56.6917C42.8818 57.0302 43.3688 56.8177 43.775 56.4104C44.8622 55.3199 45.9553 54.2352 47.0357 53.1377C47.3883 52.7794 47.7857 52.6132 48.273 52.7577C48.4435 52.8092 48.5981 52.9032 48.7223 53.0308C48.8465 53.1584 48.9362 53.3154 48.9831 53.4872C49.0299 53.659 49.0324 53.8399 48.9901 54.0129C48.9479 54.1859 48.8624 54.3453 48.7416 54.4762C47.4723 55.7947 46.1982 57.1162 44.835 58.3342C43.7808 59.2761 42.2412 59.2401 41.0097 58.4009C39.3953 57.2996 37.798 56.1734 36.1908 55.0614C35.56 54.6249 35.2987 54.7366 35.1585 55.4966C34.8452 57.1944 34.4707 58.8841 34.2407 60.5934C34.0042 62.3516 33.1695 63.5221 31.4385 64.0001L24.0782 63.9999ZM32.7615 55.9401C31.0565 56.0949 29.3902 56.3642 27.7238 56.3644C26.0612 56.3644 24.3987 56.0944 22.7153 55.9411C22.7126 56.0311 22.7178 56.1213 22.7308 56.2104C23.0048 57.7252 23.2775 59.2404 23.5618 60.7532C23.708 61.5304 24.0475 61.8326 24.8362 61.8382C26.7695 61.852 28.7028 61.852 30.6362 61.8382C31.3883 61.8324 31.7592 61.5216 31.894 60.7966C32.1987 59.1604 32.4807 57.5207 32.7615 55.9401ZM8.16966 41.3666C8.01533 39.6526 7.74715 37.9832 7.74815 36.3152C7.74915 34.6472 8.01965 32.9832 8.17482 31.2874C6.55932 31.5787 4.86799 31.8751 3.18066 32.1926C2.92718 32.2254 2.69533 32.3523 2.53117 32.5482C2.36702 32.7441 2.28258 32.9946 2.29465 33.2499C2.27632 35.3109 2.27738 37.372 2.29782 39.4332C2.30382 39.9964 2.65216 40.3702 3.20666 40.4739C4.87799 40.7872 6.55333 41.0781 8.16966 41.3666ZM10.4062 26.2292C12.1541 23.2567 14.6281 20.7767 17.5963 19.0216C16.0843 17.9769 14.6615 16.9747 13.216 16.0064C13.017 15.864 12.7724 15.8003 12.5292 15.8276C12.286 15.855 12.0616 15.9715 11.8993 16.1546C10.4365 17.6027 8.9826 19.0598 7.53749 20.5259C7.18082 20.8877 7.08499 21.3592 7.36949 21.7867C8.34665 23.2552 9.35715 24.6999 10.4062 26.2297V26.2292ZM10.4447 46.5406C9.48915 47.9206 8.56616 49.2476 7.64982 50.5792C7.12316 51.3447 7.16649 51.7626 7.83766 52.4359C8.98066 53.5855 10.1255 54.7331 11.2723 55.8789C12.5507 57.1622 12.586 57.1667 14.0755 56.1346C15.2422 55.3262 16.4068 54.5162 17.5903 53.6946C13.4803 50.5761 13.4803 50.5761 10.4447 46.5411V46.5406Z" fill="#FFB635"/>
<path d="M64.0002 12.4999C63.5347 13.4568 62.8642 14.1136 61.7182 14.1239C61.644 14.1416 61.575 14.1762 61.5163 14.2249C61.4577 14.2737 61.411 14.3353 61.38 14.4049C60.2497 17.1963 59.1329 19.9929 58.001 22.8201C59.313 23.2738 59.7344 24.2314 59.6677 25.5169C59.6232 26.3688 59.6677 27.2249 59.6569 28.0789C59.6402 29.4946 58.7655 30.3576 57.346 30.3743C57.0594 30.3776 56.7729 30.3743 56.4115 30.3743C56.4115 31.3388 56.4115 32.2489 56.4115 33.1591C56.4104 35.0158 55.6637 35.7714 53.814 35.7924C53.6297 35.7946 53.4457 35.8091 53.1947 35.8216C53.1839 36.0626 53.1659 36.2818 53.1655 36.5009C53.1632 38.3551 53.1524 40.2093 53.1712 42.0631C53.1855 42.3119 53.1344 42.5602 53.0232 42.7832C52.9119 43.0063 52.7443 43.1963 52.5369 43.3346C51.5124 44.0826 50.5214 44.8776 49.483 45.6051C49.01 45.9366 48.7932 46.2884 48.8297 46.8854C48.8855 47.7988 48.8512 48.7188 48.8419 49.6344C48.8332 50.4779 48.437 50.9698 47.779 50.9828C47.1035 50.9961 46.676 50.4724 46.6719 49.6118C46.667 48.6118 46.6552 47.6118 46.6789 46.6118C46.6943 46.4494 46.6645 46.286 46.5927 46.1396C46.521 45.9931 46.4101 45.8694 46.2724 45.7821C45.1945 45.0013 44.154 44.1684 43.069 43.3988C42.8259 43.24 42.6296 43.0191 42.5007 42.7589C42.3717 42.4987 42.3148 42.2087 42.3357 41.9191C42.3562 40.1278 42.3427 38.3358 42.3425 36.5444V35.7868C41.9464 35.7868 41.619 35.7979 41.2925 35.7848C39.9775 35.7313 39.1387 34.8916 39.099 33.5568C39.073 32.6826 39.0944 31.8068 39.0909 30.9319C39.0909 30.7696 39.0717 30.6071 39.0575 30.3744C38.7299 30.3744 38.4242 30.3789 38.1187 30.3736C36.833 30.3514 35.9205 29.5403 35.8619 28.2724C35.8097 27.1501 35.819 26.0224 35.8619 24.8988C35.9022 23.8443 36.5179 23.1821 37.5389 22.8228C36.9094 21.2428 36.2889 19.6846 35.6675 18.1274C35.1894 16.9304 34.7225 15.7284 34.2125 14.5453C34.1557 14.4399 34.0768 14.348 33.9812 14.2759C33.8856 14.2039 33.7755 14.1533 33.6585 14.1278C32.2992 13.9384 31.5379 13.1181 31.5345 11.7383C31.5274 8.73827 31.5739 5.73827 31.5129 2.73827C31.4857 1.40377 31.936 0.488268 33.186 -0.000732422H62.3784C62.7427 0.149671 63.0736 0.370775 63.352 0.649806C63.6303 0.928836 63.8507 1.26026 64.0002 1.62493V12.4999ZM33.7169 11.8924C33.9017 11.9068 34.0442 11.9276 34.1867 11.9276C43.2089 11.9293 52.2307 11.9328 61.2519 11.9381C61.7102 11.9381 61.8587 11.8164 61.8552 11.3423C61.8347 8.46827 61.8459 5.59377 61.8429 2.7196C61.8429 2.54227 61.8109 2.36493 61.7944 2.19193H33.7169V11.8924ZM59.0604 14.1499H36.4255C36.4614 14.2746 36.4769 14.3536 36.5062 14.4273C37.5602 17.0724 38.6252 19.7133 39.6595 22.3663C39.8095 22.7506 40.04 22.7771 40.3714 22.7766C45.2979 22.7712 50.2244 22.7735 55.1509 22.7836C55.5842 22.7851 55.7559 22.6336 55.9055 22.2463C56.8722 19.7451 57.8669 17.2553 58.8504 14.7608C58.9242 14.5733 58.9819 14.3796 59.0604 14.1499ZM54.2154 33.5971V30.3749C53.194 30.3749 52.2192 30.3749 51.2442 30.3749C50.1222 30.3749 49.0002 30.3839 47.8775 30.3709C47.1655 30.3626 46.6775 29.9073 46.6759 29.2896C46.6739 28.6689 47.1455 28.2433 47.8759 28.2114C48.0625 28.2034 48.2497 28.2084 48.4367 28.2084H57.4752V24.9951H38.0797V28.2093C39.8319 28.2093 41.5325 28.2021 43.2332 28.2124C44.0194 28.2171 44.5035 28.6349 44.5139 29.2728C44.5244 29.9301 44.0107 30.3659 43.2035 30.3736C42.5682 30.3796 41.9329 30.3748 41.311 30.3748V33.5969L54.2154 33.5971ZM44.5222 35.8263C44.5222 37.1918 44.6337 38.5123 44.4929 39.8051C44.3317 41.2856 44.8012 42.2866 46.1067 42.9796C46.6865 43.2874 47.19 44.0594 47.7212 44.0528C48.2844 44.0458 48.8079 43.3056 49.4045 42.9899C50.7285 42.2886 51.2674 41.2751 51.039 39.7641C50.913 38.9308 51.0165 38.0624 51.0165 37.2098V35.8264L44.5222 35.8263Z" fill="#FFB635"/>
<path d="M27.7257 43.3818C26.7978 43.3794 25.8796 43.1936 25.0237 42.8351C24.1679 42.4765 23.3914 41.9523 22.7389 41.2926C22.0864 40.633 21.5707 39.8508 21.2215 38.9911C20.8724 38.1314 20.6966 37.2112 20.7043 36.2833C20.7275 32.4107 23.9249 29.2438 27.771 29.2833C29.6353 29.3037 31.4163 30.0582 32.7279 31.3832C34.0394 32.7083 34.7757 34.497 34.777 36.3613C34.76 40.2313 31.5699 43.4075 27.7257 43.3818ZM32.5892 36.3167C32.591 35.6757 32.4652 35.0408 32.2192 34.449C31.9731 33.8571 31.6118 33.3202 31.1562 32.8694C30.7005 32.4185 30.1598 32.0629 29.5653 31.8232C28.9709 31.5834 28.3347 31.4644 27.6938 31.473C26.7288 31.4767 25.7865 31.7668 24.9864 32.3063C24.1862 32.8459 23.5642 33.6107 23.199 34.504C22.8337 35.3973 22.7418 36.3789 22.9348 37.3245C23.1277 38.2701 23.5969 39.1371 24.2829 39.8159C24.9689 40.4947 25.8409 40.9546 26.7885 41.1376C27.7361 41.3205 28.7166 41.2181 29.606 40.8434C30.4954 40.4688 31.2536 39.8386 31.7846 39.0328C32.3157 38.227 32.5957 37.2817 32.5892 36.3167Z" fill="#FFB635"/>
<path d="M13.118 36.3059C13.2635 32.8303 14.1117 29.6454 16.3817 26.9629C17.3566 25.8204 18.5392 24.8729 19.8667 24.1704C20.6892 23.7273 21.324 23.8261 21.6432 24.4496C21.9517 25.0524 21.6994 25.6329 20.9182 26.0559C18.8621 27.1571 17.2528 28.9391 16.3662 31.0964C15.7069 32.6753 15.3492 34.3637 15.3115 36.0743C15.3093 36.3866 15.2901 36.6986 15.2539 37.0089C15.226 37.2702 15.103 37.5122 14.9084 37.6887C14.7138 37.8653 14.4611 37.9643 14.1984 37.9668C13.9247 37.9615 13.6628 37.8544 13.4639 37.6664C13.2649 37.4784 13.1432 37.223 13.1225 36.9501C13.1093 36.7356 13.1078 36.5206 13.118 36.3059Z" fill="#FFB635"/>
<path d="M23.9201 21.7139C24.0598 21.7096 24.199 21.7329 24.3297 21.7824C24.4604 21.8319 24.5801 21.9067 24.6819 22.0024C24.7837 22.0982 24.8656 22.2131 24.923 22.3406C24.9804 22.468 25.0122 22.6055 25.0164 22.7452C25.02 22.8903 24.9946 23.0345 24.9417 23.1697C24.8888 23.3048 24.8095 23.428 24.7085 23.5321C24.6074 23.6361 24.4866 23.719 24.3531 23.7759C24.2196 23.8327 24.0761 23.8623 23.9311 23.863C23.649 23.8536 23.3811 23.737 23.1819 23.5371C22.9826 23.3372 22.867 23.069 22.8584 22.7869C22.8595 22.5046 22.9713 22.234 23.1699 22.0333C23.3684 21.8326 23.6378 21.7179 23.9201 21.7139Z" fill="#FFB635"/>
<path d="M50.9636 6.50402C48.5969 6.50402 46.2298 6.50402 43.8621 6.50402C43.6547 6.51421 43.4469 6.50697 43.2408 6.48236C42.9818 6.43777 42.7485 6.29881 42.586 6.0923C42.4235 5.8858 42.3432 5.6264 42.3608 5.36419C42.3714 5.11292 42.472 4.87385 42.6442 4.69058C42.8164 4.50731 43.0488 4.39206 43.2989 4.36586C43.4645 4.35187 43.6307 4.34764 43.7968 4.35319C48.5933 4.35252 53.3899 4.35252 58.1866 4.35319C58.2903 4.35319 58.3943 4.35086 58.4979 4.35453C59.2114 4.37969 59.6354 4.76186 59.6513 5.39202C59.6679 6.04519 59.2228 6.49769 58.5013 6.50069C55.9886 6.51003 53.4761 6.50369 50.9636 6.50402Z" fill="#FFB635"/>
<path d="M38.0346 4.35874C38.4081 4.35791 38.7831 4.33874 39.1552 4.36224C39.4271 4.37408 39.6842 4.48957 39.8737 4.68499C40.0631 4.88042 40.1706 5.14096 40.174 5.41313C40.1774 5.68529 40.0764 5.94843 39.8919 6.14852C39.7074 6.34861 39.4533 6.47047 39.1817 6.48907C38.3944 6.52241 37.6029 6.52607 36.8162 6.48524C36.5501 6.45933 36.3035 6.33418 36.1255 6.13469C35.9475 5.93521 35.8512 5.67601 35.8556 5.40869C35.8601 5.14137 35.965 4.88553 36.1496 4.69208C36.3341 4.49864 36.5847 4.38177 36.8515 4.36474C37.2442 4.33857 37.6401 4.35974 38.0346 4.35874Z" fill="#FFB635"/>
</g>
<defs>
<clipPath id="clip0_69_2315">
<rect width="64" height="64" fill="white"/>
</clipPath>
</defs>
</svg>
