<svg width="74" height="73" viewBox="0 0 74 73" fill="none" xmlns="http://www.w3.org/2000/svg">
<g clip-path="url(#clip0_69_966)">
<path d="M68.0431 63.1134L59.3852 42.7477C62.4452 38.3436 64.242 32.9989 64.242 27.2418C64.242 12.2206 52.0215 0 37.0004 0C21.9795 0 9.75888 12.2206 9.75888 27.2416C9.75888 32.9989 11.5557 38.3433 14.6157 42.7474L5.95776 63.1132C5.54329 64.088 5.61515 65.0238 6.15509 65.6806C6.69503 66.3375 7.5994 66.5888 8.6358 66.3713L15.248 64.9811C16.0296 64.8167 17.1277 65.2835 17.5519 65.9605L21.1387 71.6867C21.6663 72.5285 22.4102 73 23.2001 73C23.2523 73 23.3048 72.9979 23.3574 72.9939C24.2052 72.9267 24.9287 72.3295 25.3434 71.3545L32.6633 54.1365C34.0761 54.3635 35.5244 54.4831 37.0004 54.4831C38.4763 54.4831 39.9247 54.3635 41.3375 54.1365L48.6575 71.3545C49.072 72.3293 49.7959 72.9269 50.6437 72.9939C50.6963 72.9979 50.7487 73 50.8009 73C51.5905 73 52.3348 72.5286 52.8622 71.6867L56.4489 65.9605C56.8732 65.2834 57.9712 64.8162 58.7531 64.981L65.365 66.3711C66.4016 66.5887 67.3059 66.3373 67.8458 65.6805C68.3856 65.0238 68.4576 64.088 68.0431 63.1134ZM12.5042 63.1871L8.15845 64.1007C8.12024 64.1088 8.08573 64.1148 8.05479 64.119C8.06506 64.0896 8.07732 64.0569 8.09286 64.0209L16.2395 44.8578C17.1123 45.885 18.0596 46.8469 19.0732 47.7351L12.5042 63.1871ZM15.2557 62.6451L20.954 49.241C22.0884 50.0708 23.2885 50.8159 24.5461 51.465L19.1272 64.2115C18.1888 63.1603 16.6548 62.5364 15.2557 62.6451ZM23.2083 70.4469C23.193 70.4829 23.1782 70.5146 23.1639 70.5424C23.1455 70.5172 23.1258 70.4882 23.1052 70.4551L20.6563 66.5455L26.6529 52.4397C27.844 52.9307 29.0769 53.3398 30.3451 53.6596L23.2083 70.4469ZM37.0004 52.1632C23.2586 52.1632 12.0789 40.9836 12.0789 27.2418C12.0789 13.5 23.2587 2.32003 37.0004 2.32003C50.742 2.32003 61.9221 13.4998 61.9221 27.2418C61.9221 40.9837 50.7423 52.1632 37.0004 52.1632ZM50.8957 70.455C50.8751 70.4882 50.8554 70.517 50.837 70.5422C50.8227 70.5144 50.8079 70.4826 50.7926 70.4467L43.6559 53.6593C44.9241 53.3398 46.157 52.9305 47.3481 52.4394L53.3448 66.5452L50.8957 70.455ZM54.8737 64.2115L49.4548 51.465C50.7124 50.8159 51.9123 50.0708 53.0468 49.2411L58.7454 62.645C57.346 62.5356 55.8122 63.16 54.8737 64.2115ZM65.8422 64.1007L61.4965 63.1871L54.9273 47.7352C55.9413 46.8472 56.8883 45.8851 57.7611 44.858L65.9077 64.021C65.9233 64.0569 65.9356 64.0896 65.9457 64.1191C65.915 64.1148 65.8805 64.109 65.8422 64.1007Z" fill="#FFB635"/>
<path d="M37.0001 12.5608C28.9051 12.5608 22.3193 19.1466 22.3193 27.2416C22.3193 35.3366 28.9051 41.9223 37.0001 41.9223C45.0953 41.9223 51.6811 35.3366 51.6811 27.2416C51.6811 19.1466 45.0953 12.5608 37.0001 12.5608ZM37.0001 39.6024C30.1844 39.6024 24.6394 34.0574 24.6394 27.2417C24.6394 20.426 30.1844 14.881 37.0001 14.881C43.8159 14.881 49.3612 20.426 49.3612 27.2417C49.3612 34.0573 43.8161 39.6024 37.0001 39.6024Z" fill="#FFB635"/>
<path d="M37.0006 6.53979C25.5855 6.53979 16.2988 15.8265 16.2988 27.2415C16.2988 38.6565 25.5855 47.9431 37.0006 47.9431C48.4156 47.9431 57.7026 38.6565 57.7026 27.2415C57.7026 15.8265 48.4156 6.53979 37.0006 6.53979ZM37.0006 45.6231C26.8647 45.6231 18.6187 37.3772 18.6187 27.2414C18.6187 17.1057 26.8647 8.85954 37.0006 8.85954C47.1364 8.85954 55.3826 17.1055 55.3826 27.2414C55.3826 37.3772 47.1364 45.6231 37.0006 45.6231Z" fill="#FFB635"/>
</g>
<defs>
<clipPath id="clip0_69_966">
<rect width="73" height="73" fill="white" transform="translate(0.5)"/>
</clipPath>
</defs>
</svg>
