<svg width="219" height="304" viewBox="0 0 219 304" fill="none" xmlns="http://www.w3.org/2000/svg">
<path d="M83.1039 188.775C83.1771 188.784 83.2509 188.793 83.3248 188.803C83.3682 188.808 83.4116 188.815 83.4551 188.821C83.4985 188.827 83.5413 188.834 83.5841 188.84C83.6573 188.852 83.7306 188.865 83.8038 188.877L83.8428 188.884C83.8627 188.888 83.8826 188.891 83.9049 188.894C84.0877 188.928 84.2689 188.967 84.4484 189.01C84.5142 189.025 84.5799 189.042 84.6457 189.059L86.5238 186.163L88.6649 187.085L87.8528 190.439C88.0832 190.584 88.3088 190.738 88.5297 190.9L88.5613 190.923C88.6234 190.968 88.6804 191.012 88.7394 191.058C88.7735 191.084 88.8076 191.111 88.8418 191.138C88.8759 191.166 88.9106 191.192 88.9448 191.22C89.0031 191.267 89.0602 191.315 89.1172 191.362L89.1464 191.387C89.3561 191.564 89.558 191.748 89.7519 191.939L92.8262 190.37L94.2198 192.239L91.8391 194.738C91.9665 194.978 92.0852 195.224 92.1953 195.475L92.2108 195.511C92.2405 195.579 92.2728 195.647 92.2982 195.716L92.3466 195.84L92.395 195.964C92.4217 196.034 92.4472 196.104 92.4726 196.173L92.4862 196.211C92.5789 196.469 92.6616 196.729 92.7344 196.991L96.1816 197.169L96.454 199.484L93.1427 200.458C93.1327 200.731 93.1121 201.003 93.0806 201.275L93.0763 201.313L93.0552 201.492L93.049 201.535L93.0304 201.666L93.0111 201.795C92.9996 201.868 92.9871 201.941 92.9739 202.014L92.9683 202.045V202.053C92.9191 202.323 92.8608 202.589 92.7934 202.853L95.689 204.731L94.7676 206.872L91.4129 206.06C91.3769 206.117 91.3409 206.175 91.3037 206.231C91.2023 206.386 91.0973 206.538 90.9885 206.689L90.9525 206.737L90.9482 206.743L90.9289 206.768C90.8851 206.828 90.8404 206.888 90.7949 206.947L90.7143 207.049C90.687 207.083 90.6603 207.118 90.6324 207.152L90.6051 207.186C90.5672 207.233 90.5287 207.279 90.4903 207.324L90.4655 207.354C90.288 207.564 90.1042 207.765 89.9139 207.959L91.4824 211.034L89.6136 212.427L87.1144 210.046C86.8741 210.174 86.6284 210.293 86.3774 210.403L86.3401 210.419C86.2725 210.448 86.2049 210.477 86.136 210.505C86.0957 210.522 86.0541 210.538 86.0119 210.555L85.8878 210.602C85.8183 210.629 85.7482 210.655 85.6775 210.681L85.6421 210.694C85.384 210.786 85.1239 210.869 84.8616 210.942L84.6829 214.389L82.3681 214.661L81.394 211.35C81.1222 211.34 80.85 211.319 80.5775 211.288L80.539 211.283C80.4652 211.275 80.3913 211.266 80.3175 211.256L80.1872 211.238C80.1438 211.231 80.101 211.225 80.0582 211.219C79.9843 211.207 79.9111 211.194 79.8379 211.181L79.7994 211.174C79.5297 211.125 79.2632 211.067 78.9997 210.999L77.1216 213.895L74.9804 212.974L75.7926 209.619C75.5624 209.474 75.336 209.321 75.1157 209.159L75.0841 209.135C75.022 209.091 74.9649 209.046 74.906 209.001C74.8712 208.974 74.8371 208.947 74.803 208.92L74.7 208.838C74.6423 208.792 74.5852 208.744 74.5281 208.696L74.4984 208.672C74.2895 208.494 74.0876 208.31 73.8928 208.12L70.8185 209.688L69.425 207.82L71.8056 205.321C71.6787 205.08 71.5599 204.835 71.4495 204.583L71.4346 204.549C71.4048 204.48 71.3726 204.411 71.3471 204.342C71.3304 204.302 71.3149 204.261 71.2987 204.221C71.2826 204.181 71.2659 204.14 71.2503 204.097C71.2237 204.028 71.1976 203.958 71.1728 203.889L71.1585 203.851C71.0661 203.593 70.9836 203.333 70.9103 203.071L67.4638 202.892L67.1914 200.577L70.5021 199.603C70.5124 199.331 70.5331 199.059 70.5641 198.787L70.5685 198.748C70.5753 198.686 70.5815 198.629 70.5896 198.57L70.5958 198.527C70.6014 198.483 70.6082 198.44 70.6144 198.396L70.6336 198.267C70.6448 198.194 70.6578 198.12 70.6708 198.047L70.6758 198.016V198.009C70.725 197.739 70.7836 197.472 70.8514 197.209L67.9552 195.331L68.8765 193.19L72.2313 194.002C72.3764 193.771 72.5301 193.545 72.6923 193.324L72.6966 193.318L72.7146 193.295C72.7593 193.232 72.8039 193.174 72.8498 193.115C72.8759 193.08 72.9026 193.047 72.9293 193.013C72.9559 192.98 72.9845 192.943 73.0124 192.909L73.0391 192.875L73.1532 192.738L73.1793 192.707C73.3559 192.498 73.5398 192.296 73.7309 192.102L72.1618 189.028L74.0305 187.634L76.5297 190.015C76.7704 189.887 77.0161 189.769 77.2668 189.659L77.3028 189.643C77.371 189.614 77.4399 189.581 77.5088 189.556L77.5212 189.551L77.5323 189.546C77.5646 189.533 77.5944 189.52 77.6297 189.507C77.6651 189.494 77.711 189.475 77.7538 189.46C77.8239 189.433 77.8934 189.407 77.9635 189.381L78.0001 189.368C78.2582 189.275 78.5182 189.193 78.78 189.12L78.9587 185.673L81.2742 185.401L82.2477 188.711C82.5194 188.722 82.7916 188.743 83.0642 188.773L83.1039 188.775ZM73.4039 196.202C73.3772 196.261 73.3524 196.32 73.327 196.38C73.3015 196.44 73.2798 196.488 73.2575 196.543L73.2401 196.585C72.697 197.947 72.4827 199.418 72.6147 200.878L72.619 200.923C72.6252 200.986 72.6339 201.053 72.6414 201.117C72.6488 201.182 72.6544 201.234 72.6625 201.292L72.6687 201.337C72.879 202.789 73.429 204.171 74.2738 205.37L74.2998 205.407C74.3377 205.46 74.3768 205.511 74.4158 205.563C74.4549 205.614 74.4853 205.658 74.5219 205.705L74.5499 205.741C75.4578 206.892 76.6246 207.813 77.9555 208.429L77.9964 208.448C78.0585 208.475 78.1168 208.5 78.177 208.526C78.2371 208.552 78.2837 208.572 78.3377 208.595L78.3792 208.611C79.7418 209.155 81.2135 209.369 82.6746 209.237L82.7168 209.233C82.7788 209.226 82.8464 209.218 82.9116 209.21C82.9767 209.202 83.0295 209.197 83.0884 209.189L83.13 209.183C84.5819 208.973 85.9637 208.422 87.1628 207.577L87.1988 207.552C87.2466 207.517 87.2938 207.481 87.3409 207.446C87.3881 207.41 87.4458 207.369 87.4973 207.329L87.532 207.302C88.6839 206.394 89.6052 205.227 90.221 203.895L90.239 203.855C90.2638 203.8 90.2874 203.744 90.311 203.688C90.3345 203.632 90.3625 203.572 90.3867 203.513L90.4028 203.472C90.9465 202.11 91.1607 200.639 91.0282 199.178L91.0245 199.134C91.0183 199.071 91.0102 199.009 91.0028 198.951C90.9953 198.893 90.9891 198.827 90.9804 198.765L90.9742 198.721C90.7639 197.269 90.2138 195.887 89.3685 194.688L89.3431 194.652C89.3077 194.602 89.2711 194.555 89.2345 194.506C89.1979 194.458 89.1594 194.404 89.1203 194.354L89.093 194.318C88.1848 193.167 87.0178 192.246 85.6868 191.63L85.6465 191.611C85.5925 191.587 85.5385 191.565 85.4845 191.541C85.4306 191.518 85.3648 191.488 85.304 191.464L85.263 191.447C83.9014 190.904 82.4308 190.69 80.9708 190.822L80.923 190.826C80.8647 190.833 80.8058 190.84 80.7468 190.847C80.6879 190.854 80.6196 190.861 80.5564 190.87L80.5098 190.877C79.0592 191.087 77.6787 191.637 76.4807 192.481L76.4441 192.507C76.3901 192.546 76.3386 192.585 76.2859 192.624C76.2331 192.664 76.1922 192.693 76.1456 192.729L76.1103 192.757C74.9586 193.665 74.0375 194.832 73.4219 196.163L73.4039 196.202Z" stroke="#B7DEFF" stroke-width="0.42" stroke-miterlimit="10"/>
<path d="M183.16 250.182C183.234 250.191 183.308 250.2 183.381 250.21C183.425 250.215 183.468 250.222 183.512 250.228C183.555 250.234 183.597 250.241 183.64 250.248C183.714 250.259 183.787 250.271 183.861 250.284L183.899 250.291C183.919 250.295 183.939 250.298 183.961 250.302C184.143 250.335 184.325 250.374 184.505 250.417C184.57 250.432 184.636 250.449 184.701 250.466L186.579 247.57L188.72 248.492L187.909 251.846C188.139 251.991 188.365 252.144 188.586 252.307L188.617 252.33C188.679 252.374 188.736 252.419 188.795 252.465C188.83 252.491 188.864 252.518 188.898 252.545L189.001 252.627C189.059 252.674 189.116 252.722 189.173 252.77L189.203 252.794C189.412 252.971 189.614 253.155 189.808 253.346L192.882 251.777L194.276 253.646L191.895 256.145C192.023 256.385 192.141 256.631 192.251 256.882L192.267 256.918C192.296 256.986 192.329 257.054 192.354 257.123L192.403 257.247L192.451 257.371C192.478 257.441 192.503 257.511 192.529 257.581L192.542 257.618C192.635 257.875 192.717 258.136 192.791 258.398L196.237 258.576L196.51 260.891L193.199 261.865C193.188 262.137 193.168 262.409 193.137 262.682L193.132 262.72C193.126 262.782 193.119 262.839 193.111 262.899L193.105 262.942C193.1 262.986 193.093 263.029 193.087 263.073L193.068 263.202C193.056 263.275 193.044 263.348 193.031 263.421L193.025 263.452V263.46C192.976 263.73 192.918 263.996 192.85 264.26L195.746 266.138L194.824 268.279L191.47 267.467C191.434 267.524 191.398 267.581 191.36 267.639C191.26 267.793 191.154 267.945 191.045 268.096L191.009 268.144L191.004 268.15L190.986 268.175C190.942 268.237 190.897 268.295 190.851 268.354C190.825 268.388 190.798 268.422 190.771 268.456L190.689 268.559L190.662 268.593C190.624 268.64 190.586 268.685 190.547 268.731L190.522 268.762C190.345 268.97 190.161 269.172 189.97 269.366L191.539 272.441L189.668 273.832L187.169 271.451C186.929 271.579 186.683 271.697 186.432 271.807L186.394 271.823C186.327 271.853 186.259 271.882 186.19 271.91L186.066 271.959C186.026 271.975 185.986 271.991 185.946 272.006C185.876 272.034 185.806 272.06 185.736 272.085L185.7 272.098C185.442 272.191 185.182 272.273 184.92 272.346L184.741 275.794L182.426 276.066L181.452 272.755C181.18 272.744 180.908 272.723 180.635 272.693L180.597 272.688C180.523 272.68 180.449 272.67 180.375 272.66C180.331 272.655 180.288 272.648 180.245 272.642C180.202 272.636 180.159 272.63 180.116 272.623C180.042 272.611 179.969 272.599 179.896 272.586L179.857 272.579C179.588 272.53 179.321 272.472 179.058 272.404L177.18 275.3L175.038 274.378L175.85 271.024C175.62 270.879 175.394 270.725 175.173 270.563L175.141 270.54C175.079 270.496 175.022 270.451 174.963 270.406L174.861 270.325L174.758 270.243C174.7 270.196 174.643 270.149 174.586 270.101L174.556 270.076C174.347 269.899 174.145 269.715 173.951 269.525L170.877 271.093L169.483 269.224L171.864 266.725C171.74 266.485 171.615 266.239 171.508 265.988L171.493 265.953C171.463 265.885 171.431 265.816 171.405 265.746L171.356 265.626L171.308 265.502C171.281 265.432 171.256 265.363 171.23 265.293L171.217 265.255C171.124 264.997 171.042 264.737 170.968 264.476L167.521 264.297L167.249 261.982L170.56 261.008C170.57 260.736 170.591 260.464 170.622 260.191L170.627 260.152C170.634 260.093 170.64 260.034 170.648 259.974L170.654 259.931C170.66 259.887 170.666 259.844 170.673 259.801L170.692 259.672C170.703 259.598 170.716 259.525 170.729 259.452L170.734 259.421V259.413C170.784 259.144 170.842 258.877 170.909 258.614L168.014 256.736L168.936 254.598L172.291 255.405C172.436 255.174 172.59 254.949 172.752 254.728L172.756 254.722L172.774 254.698C172.818 254.636 172.864 254.578 172.91 254.518C172.936 254.484 172.962 254.45 172.989 254.417C173.016 254.383 173.044 254.347 173.072 254.312L173.099 254.279C173.136 254.233 173.175 254.187 173.213 254.141L173.239 254.11C173.416 253.901 173.6 253.699 173.79 253.505L172.222 250.431L174.09 249.038L176.59 251.418C176.83 251.291 177.076 251.17 177.327 251.062L177.363 251.047C177.431 251.018 177.499 250.985 177.568 250.96L177.58 250.954L177.592 250.949C177.624 250.936 177.657 250.924 177.69 250.911C177.722 250.898 177.771 250.879 177.814 250.863C177.883 250.836 177.953 250.81 178.023 250.785L178.06 250.771C178.317 250.679 178.578 250.596 178.84 250.523L179.019 247.076L181.333 246.803L182.308 250.115C182.579 250.125 182.851 250.146 183.124 250.177L183.16 250.182ZM173.461 257.609C173.434 257.668 173.409 257.728 173.384 257.787C173.358 257.845 173.336 257.895 173.314 257.95L173.297 257.993C172.754 259.354 172.539 260.825 172.671 262.285L172.676 262.331C172.682 262.393 172.691 262.46 172.698 262.524C172.706 262.589 172.711 262.641 172.719 262.699L172.725 262.745C172.936 264.196 173.485 265.578 174.331 266.777L174.357 266.814C174.394 266.867 174.434 266.918 174.472 266.97C174.51 267.022 174.542 267.065 174.579 267.112L174.607 267.148C175.515 268.299 176.681 269.22 178.012 269.836L178.053 269.855C178.115 269.881 178.174 269.907 178.234 269.933C178.294 269.959 178.34 269.98 178.394 270.002L178.436 270.019C179.799 270.562 181.27 270.776 182.731 270.644L182.773 270.64C182.839 270.633 182.903 270.625 182.968 270.617C183.033 270.609 183.086 270.604 183.145 270.596L183.187 270.591C184.639 270.38 186.02 269.829 187.22 268.984L187.255 268.959C187.303 268.924 187.35 268.888 187.398 268.853C187.445 268.817 187.503 268.776 187.554 268.736L187.588 268.709C188.74 267.801 189.662 266.634 190.277 265.302L190.296 265.262C190.321 265.207 190.344 265.151 190.368 265.095C190.391 265.04 190.419 264.979 190.443 264.92L190.46 264.879C191.003 263.517 191.217 262.046 191.085 260.585L191.081 260.541C191.074 260.479 191.067 260.417 191.06 260.358C191.052 260.3 191.046 260.234 191.037 260.172L191.031 260.128C190.821 258.676 190.271 257.294 189.425 256.095L189.4 256.059C189.364 256.01 189.328 255.962 189.291 255.913C189.255 255.865 189.216 255.811 189.177 255.761L189.15 255.725C188.242 254.574 187.074 253.653 185.743 253.037L185.703 253.018C185.649 252.994 185.595 252.971 185.541 252.948C185.487 252.925 185.422 252.896 185.361 252.871L185.32 252.855C183.958 252.312 182.487 252.097 181.027 252.229L180.98 252.234C180.918 252.239 180.863 252.247 180.804 252.254C180.745 252.261 180.68 252.268 180.613 252.277L180.566 252.284C179.116 252.494 177.735 253.044 176.537 253.888L176.5 253.914C176.447 253.952 176.395 253.993 176.343 254.032C176.291 254.071 176.248 254.1 176.202 254.136L176.167 254.164C175.015 255.072 174.094 256.239 173.478 257.57L173.461 257.609Z" stroke="#B7DEFF" stroke-width="0.42" stroke-miterlimit="10"/>
<path d="M106.999 272.178C106.899 272.167 106.798 272.155 106.698 272.142C106.636 272.134 106.579 272.125 106.52 272.116C106.461 272.108 106.403 272.1 106.345 272.09C106.244 272.075 106.144 272.057 106.045 272.039C106.027 272.036 106.01 272.034 105.992 272.031C105.974 272.028 105.938 272.021 105.911 272.016C105.663 271.97 105.416 271.918 105.171 271.859C105.081 271.838 104.992 271.815 104.902 271.792L102.343 275.738L99.4269 274.482L100.534 269.911C100.22 269.714 99.9123 269.505 99.6111 269.283L99.5683 269.251C99.4871 269.189 99.4058 269.131 99.3257 269.069L99.1855 268.959C99.139 268.922 99.0918 268.885 99.0453 268.847C98.9659 268.785 98.8883 268.719 98.8108 268.653L98.7704 268.619C98.485 268.378 98.2102 268.128 97.9459 267.868L93.756 270.006L91.8569 267.462L95.1011 264.056C94.9283 263.729 94.7665 263.394 94.616 263.052L94.5949 263.003C94.5545 262.91 94.5148 262.816 94.4757 262.722L94.4094 262.557C94.3876 262.502 94.3653 262.447 94.3473 262.391C94.3107 262.297 94.2753 262.201 94.2412 262.106L94.2226 262.056C94.0985 261.705 93.9858 261.35 93.8845 260.993L89.1871 260.75L88.8148 257.595L93.3267 256.267C93.3407 255.895 93.3682 255.524 93.4092 255.155L93.4154 255.102C93.4247 255.021 93.4334 254.94 93.4439 254.859L93.452 254.8C93.4601 254.738 93.4694 254.682 93.4781 254.623L93.5035 254.447C93.5196 254.347 93.5364 254.247 93.5544 254.147L93.5612 254.105V254.094C93.6278 253.727 93.7072 253.364 93.7995 253.005L89.8534 250.445L91.1092 247.529L95.6806 248.636C95.7297 248.558 95.7787 248.48 95.8295 248.402C95.9673 248.192 96.1104 247.985 96.2589 247.782L96.3079 247.716L96.3141 247.707L96.3402 247.673C96.4006 247.591 96.4616 247.51 96.5232 247.43L96.633 247.29L96.7447 247.15L96.7813 247.103C96.8328 247.041 96.8855 246.979 96.9377 246.917L96.9718 246.876C97.2129 246.591 97.4636 246.316 97.7238 246.051L95.5857 241.862L98.1295 239.963L101.535 243.207C101.863 243.034 102.198 242.873 102.54 242.722L102.591 242.7C102.683 242.659 102.776 242.62 102.868 242.582C102.924 242.559 102.98 242.537 103.036 242.515C103.092 242.493 103.145 242.472 103.2 242.453C103.295 242.416 103.391 242.38 103.487 242.346C103.503 242.34 103.519 242.334 103.535 242.328C103.887 242.202 104.241 242.089 104.599 241.989L104.842 237.293L107.997 236.92L109.324 241.433C109.696 241.447 110.067 241.474 110.437 241.515L110.489 241.521C110.59 241.533 110.69 241.545 110.791 241.558C110.853 241.566 110.909 241.575 110.969 241.584C111.029 241.592 111.086 241.6 111.145 241.61C111.245 241.625 111.345 241.643 111.444 241.661C111.462 241.664 111.48 241.666 111.497 241.669C111.865 241.736 112.228 241.816 112.587 241.908L115.146 237.962L118.062 239.218L116.956 243.789C117.27 243.986 117.577 244.195 117.878 244.417L117.921 244.449C118.002 244.511 118.084 244.569 118.164 244.631L118.303 244.741C118.35 244.778 118.398 244.815 118.444 244.853C118.523 244.917 118.601 244.981 118.679 245.046L118.719 245.08C119.004 245.322 119.279 245.572 119.543 245.832L123.733 243.694L125.632 246.238L122.391 249.635C122.564 249.962 122.726 250.297 122.877 250.64L122.897 250.687C122.937 250.78 122.978 250.873 123.017 250.968L123.083 251.133L123.148 251.3C123.185 251.394 123.22 251.486 123.254 251.584L123.273 251.635C123.397 251.987 123.51 252.341 123.611 252.698L128.308 252.941L128.681 256.096L124.168 257.424C124.155 257.796 124.127 258.167 124.086 258.536L124.08 258.589C124.071 258.67 124.062 258.751 124.052 258.831L124.043 258.893L124.018 259.071L123.991 259.247C123.976 259.347 123.959 259.447 123.941 259.547L123.934 259.589V259.599C123.868 259.967 123.788 260.33 123.695 260.689L127.642 263.248L126.386 266.164L121.814 265.058C121.617 265.372 121.408 265.68 121.186 265.981L121.181 265.989L121.156 266.022C121.094 266.104 121.032 266.185 120.97 266.266C120.934 266.313 120.897 266.358 120.861 266.404L120.748 266.547L120.712 266.593C120.66 266.655 120.608 266.717 120.556 266.779L120.521 266.821C120.279 267.107 120.029 267.382 119.769 267.646L121.907 271.835L119.36 273.734L115.955 270.49C115.627 270.664 115.292 270.826 114.95 270.975C114.934 270.983 114.917 270.99 114.901 270.996C114.808 271.037 114.715 271.077 114.622 271.116L114.604 271.123L114.589 271.129C114.545 271.147 114.5 271.164 114.456 271.182L114.29 271.248C114.195 271.284 114.1 271.319 114.005 271.354L113.955 271.372C113.603 271.498 113.249 271.611 112.892 271.711L112.649 276.407L109.494 276.78L108.166 272.267C107.794 272.253 107.423 272.226 107.054 272.185C107.035 272.183 107.017 272.181 106.999 272.178ZM120.215 262.058C120.251 261.978 120.285 261.897 120.319 261.816C120.353 261.736 120.381 261.669 120.415 261.594L120.438 261.536C121.178 259.68 121.47 257.676 121.29 255.686L121.284 255.624C121.276 255.536 121.265 255.447 121.253 255.359C121.242 255.271 121.236 255.201 121.226 255.121L121.217 255.059C120.93 253.082 120.18 251.2 119.03 249.566L118.994 249.516C118.942 249.444 118.889 249.375 118.836 249.304C118.783 249.234 118.741 249.174 118.692 249.11L118.653 249.061C117.416 247.493 115.826 246.239 114.013 245.401L113.957 245.375C113.875 245.338 113.793 245.304 113.709 245.268C113.625 245.233 113.564 245.206 113.49 245.175L113.433 245.152C111.576 244.411 109.571 244.119 107.58 244.299L107.523 244.305C107.434 244.314 107.346 244.325 107.257 244.336C107.168 244.347 107.096 244.353 107.016 244.364L106.96 244.373C104.98 244.659 103.097 245.409 101.462 246.561L101.414 246.596C101.348 246.643 101.284 246.692 101.219 246.74C101.155 246.789 101.077 246.845 101.006 246.9L100.959 246.936C99.3896 248.174 98.1342 249.764 97.295 251.578L97.2702 251.633C97.2361 251.708 97.2044 251.784 97.1722 251.86C97.1399 251.936 97.1021 252.02 97.0692 252.1L97.0469 252.155C96.3064 254.011 96.0146 256.016 96.195 258.007L96.2006 258.069C96.2086 258.152 96.2192 258.235 96.2291 258.317C96.239 258.4 96.2483 258.488 96.2595 258.573L96.2682 258.635C96.5564 260.611 97.3067 262.492 98.4584 264.124L98.4931 264.173C98.5409 264.24 98.5911 264.306 98.6408 264.372C98.6904 264.438 98.7431 264.512 98.7965 264.58L98.8337 264.628C100.071 266.197 101.662 267.452 103.476 268.291L103.53 268.317C103.604 268.35 103.678 268.379 103.751 268.412C103.825 268.446 103.915 268.484 104 268.517C104.018 268.525 104.037 268.532 104.055 268.539C105.911 269.28 107.915 269.572 109.905 269.392L109.967 269.386C110.048 269.378 110.127 269.368 110.208 269.358C110.288 269.348 110.381 269.339 110.467 269.327L110.529 269.318C112.506 269.031 114.387 268.281 116.019 267.131L116.07 267.096C116.142 267.044 116.213 266.99 116.285 266.936C116.357 266.882 116.413 266.842 116.475 266.793C116.492 266.78 116.508 266.767 116.524 266.755C118.092 265.517 119.347 263.927 120.185 262.114L120.215 262.058Z" fill="#FFB635" fill-opacity="0.69"/>
<path d="M31.1883 76.5806L31.2032 76.554M42.0597 76.5459L42.0442 76.5192M42.0771 82.7907L42.0616 82.8173M31.2063 82.8254L31.2218 82.8515M36.2524 85.9425L36.2046 85.9388M32.8263 96.1407C32.7183 96.1159 32.611 96.0905 32.5037 96.0632C32.4416 96.047 32.3796 96.0303 32.3132 96.0135C32.2468 95.9968 32.1891 95.9807 32.1271 95.9633C32.0195 95.9335 31.9128 95.9027 31.8069 95.8708C31.7883 95.8652 31.7697 95.8603 31.7511 95.8541C31.7225 95.846 31.6934 95.838 31.6648 95.8293C31.3031 95.7176 30.947 95.5935 30.5958 95.457L27.3217 99.4278L24.3058 97.6987L26.0777 92.866C25.7613 92.6129 25.4532 92.3473 25.1533 92.0694L25.1098 92.0284C25.0292 91.9534 24.9485 91.877 24.8691 91.8001C24.8226 91.7548 24.7767 91.7083 24.7308 91.663C24.6848 91.6177 24.6377 91.5712 24.5918 91.5246C24.5136 91.4452 24.4373 91.3646 24.361 91.2839L24.3213 91.2423C24.0412 90.9445 23.7736 90.638 23.5184 90.3228L18.6969 92.1259L16.9479 89.126L20.8989 85.8265C20.812 85.6052 20.7293 85.3812 20.6507 85.1545C20.5961 84.9957 20.5452 84.835 20.4956 84.6743L20.4782 84.6166C20.446 84.5112 20.4162 84.4057 20.3839 84.299L20.3324 84.1128C20.3157 84.0508 20.2983 83.9887 20.2822 83.9267C20.2536 83.8187 20.2276 83.7102 20.2015 83.6016L20.1885 83.547C20.095 83.1487 20.0164 82.7491 19.9527 82.3483L14.8769 81.4946L14.8663 78.0201L19.9372 77.1384C19.9984 76.7376 20.0745 76.3378 20.1655 75.9391L20.1786 75.8826C20.1984 75.7958 20.2183 75.7089 20.2406 75.6221L20.2574 75.56C20.2729 75.498 20.2902 75.4359 20.307 75.3702L20.3573 75.184C20.3864 75.0773 20.4193 74.9706 20.4491 74.8645L20.4627 74.8192V74.8087C20.5806 74.417 20.7124 74.0319 20.8579 73.6534L16.8871 70.3793L18.6157 67.3627L23.4483 69.1353C23.7023 68.8189 23.968 68.5105 24.2456 68.2102L24.253 68.2022L24.2859 68.1674C24.3616 68.0868 24.4373 68.0061 24.5148 67.9267C24.5601 67.8802 24.606 67.8343 24.6513 67.7883C24.6966 67.7424 24.7438 67.6953 24.7903 67.6494C24.8058 67.6339 24.8207 67.6183 24.8362 67.6035C24.8983 67.5414 24.9653 67.4794 25.0304 67.4173C25.0441 67.4037 25.0583 67.3907 25.072 67.3776C25.3698 67.0976 25.6765 66.8287 25.9921 66.571L24.1916 61.7471L27.197 59.9993L30.4959 63.9509C30.874 63.8032 31.2582 63.669 31.6487 63.5483L31.7045 63.5315C31.8104 63.4992 31.9167 63.4678 32.0234 63.4372C32.0855 63.4192 32.1475 63.4024 32.2133 63.3851C32.2629 63.372 32.3126 63.3571 32.3628 63.3441L32.3808 63.3398L32.4007 63.3348C32.508 63.3069 32.616 63.2808 32.7239 63.2548C32.7425 63.2504 32.7618 63.2455 32.7804 63.2411C33.1787 63.1481 33.5781 63.0697 33.9785 63.006L34.8278 57.9289L38.3023 57.9177L39.1834 62.9892C39.5842 63.0504 39.9839 63.1263 40.3827 63.2169C40.4025 63.2213 40.4211 63.2262 40.441 63.2306C40.5483 63.2554 40.6557 63.2808 40.763 63.3081C40.825 63.3243 40.8908 63.3416 40.9547 63.3584C41.0186 63.3751 41.0788 63.3913 41.1408 63.408C41.2482 63.4378 41.3555 63.4701 41.4622 63.5011C41.4802 63.5067 41.4982 63.5116 41.5162 63.5172C41.9079 63.6351 42.2932 63.7668 42.6721 63.9124L45.9462 59.9416L48.9622 61.6702L47.1902 66.5028C47.5066 66.7564 47.815 67.0221 48.1152 67.3001L48.1556 67.3385C48.2375 67.4148 48.3188 67.4912 48.3988 67.5693C48.4447 67.614 48.49 67.6593 48.5353 67.7046C48.5806 67.7499 48.6296 67.7977 48.6761 67.8448C48.7537 67.9236 48.8294 68.003 48.9051 68.0831L48.9473 68.1271C49.2269 68.4249 49.4943 68.7314 49.7495 69.0466L54.571 67.2436L56.3187 70.249L52.3678 73.5479C52.5154 73.926 52.6497 74.3102 52.7704 74.7007L52.7866 74.7553C52.8188 74.8614 52.8486 74.9681 52.8815 75.0761L52.9324 75.2622L52.9839 75.4521C53.0112 75.5594 53.0372 75.6667 53.0633 75.7734L53.0776 75.8324C53.1706 76.2303 53.249 76.6294 53.3127 77.0298L58.3898 77.8792L58.4009 81.3537L53.3288 82.2354C53.268 82.6362 53.1921 83.036 53.1011 83.4347L53.0881 83.4918C53.0676 83.5786 53.0484 83.6655 53.0261 83.7517L53.0093 83.8138C52.9938 83.8758 52.9764 83.9379 52.9597 84.0036L52.9094 84.1898C52.8796 84.2965 52.8488 84.403 52.817 84.5093C52.8126 84.5242 52.8089 84.5397 52.8039 84.5546V84.5658C52.6861 84.9566 52.5543 85.3417 52.4087 85.721L56.3795 88.9945L54.651 92.0111L49.8159 90.2428C49.5623 90.5596 49.2964 90.8682 49.018 91.1685L49.0112 91.1766C49.0006 91.1871 48.9901 91.1977 48.9801 91.2088C48.9036 91.2916 48.8265 91.3726 48.7487 91.4521C48.7047 91.498 48.6588 91.5433 48.6141 91.5885C48.5694 91.6338 48.521 91.6829 48.4732 91.7294C48.4577 91.7443 48.4428 91.7598 48.428 91.7753C48.3659 91.8373 48.2995 91.8994 48.2356 91.9583L48.1916 91.9999C47.8938 92.2795 47.5873 92.5471 47.2721 92.8028L49.0776 97.6261L46.0721 99.3739L42.7732 95.4223C42.3952 95.5699 42.0107 95.7041 41.6198 95.8249L41.5659 95.8417C41.4591 95.8739 41.3522 95.9054 41.2451 95.936C41.183 95.954 41.121 95.9707 41.059 95.9875C40.9969 96.0042 40.9349 96.0222 40.8691 96.0384C40.7624 96.0663 40.6557 96.0923 40.5483 96.1178C40.5285 96.1227 40.5092 96.1277 40.4863 96.1321C40.4571 96.1389 40.428 96.1469 40.3994 96.1531C40.0272 96.2375 39.6599 96.3082 39.2888 96.3678L38.4394 101.444L34.965 101.455L34.0839 96.3839C33.6827 96.3231 33.2827 96.2472 32.884 96.1563C32.8648 96.15 32.8455 96.1451 32.8263 96.1407ZM22.8471 79.3888V79.4545C22.8471 79.5445 22.8471 79.6345 22.8471 79.7238C22.8471 79.8132 22.8471 79.9143 22.8471 80.0098C22.8471 80.0322 22.8471 80.0539 22.8471 80.0762C22.9083 82.0987 23.4103 84.0834 24.3182 85.8916L30.8427 82.097C30.2069 80.5667 30.2024 78.847 30.8303 77.3134L24.2816 73.5603C23.3851 75.3743 22.8955 77.3622 22.8471 79.3851V79.3888ZM41.1545 79.6742C41.1518 78.7801 40.884 77.9069 40.385 77.165C39.886 76.423 39.1782 75.8458 38.3511 75.5061C37.5241 75.1665 36.6148 75.0798 35.7384 75.2569C34.8621 75.434 34.0579 75.8671 33.4276 76.5012C32.7973 77.1354 32.3693 77.9422 32.1976 78.8197C32.0259 79.6972 32.1182 80.6058 32.4629 81.4308C32.8077 82.2558 33.3893 82.96 34.1343 83.4544C34.8793 83.9488 35.7541 84.2112 36.6482 84.2084C37.8471 84.2033 38.9949 83.7227 39.8398 82.8721C40.6846 82.0216 41.1575 80.8706 41.1545 79.6717V79.6742ZM29.9989 67.5966L29.9425 67.6277C29.8649 67.6711 29.7892 67.7164 29.7129 67.7604C29.6366 67.8045 29.5448 67.8572 29.4616 67.9075L29.4058 67.9416C27.6849 69.0062 26.2171 70.4335 25.1049 72.124L31.6549 75.8777C32.6601 74.5619 34.1457 73.6978 35.7864 73.4747L35.7629 65.9245C33.7427 66.0555 31.7755 66.6261 29.9989 67.5966ZM36.1674 73.4356C36.1829 73.4356 36.199 73.4356 36.2145 73.4319L36.1674 73.4356ZM48.1152 72.0508C46.9923 70.3679 45.5156 68.9503 43.7883 67.8969L43.7306 67.8616C43.6481 67.8126 43.5637 67.7654 43.4824 67.7176C43.4011 67.6699 43.3304 67.6289 43.2528 67.5861C43.233 67.5755 43.2125 67.565 43.1908 67.5538C41.4091 66.5961 39.44 66.0385 37.4207 65.9202L37.4443 73.4698C39.0859 73.6835 40.5761 74.5388 41.5888 75.8485L48.1152 72.0508ZM37.0137 73.4288C37.0298 73.4288 37.0453 73.4288 37.0608 73.4319L37.0137 73.4288ZM48.9864 85.8104C49.8826 83.9965 50.3721 82.0089 50.4208 79.9863V79.9193C50.4208 79.8225 50.4208 79.7251 50.4208 79.6283C50.4208 79.5315 50.4208 79.4527 50.4208 79.3652V79.2982C50.3598 77.2753 49.8578 75.2902 48.9497 73.4815L42.4227 77.2756C43.0586 78.8048 43.064 80.5235 42.4376 82.0567L48.9864 85.8104ZM43.2621 91.7765L43.3242 91.7437C43.4098 91.6959 43.4942 91.6463 43.5779 91.5966C43.6617 91.547 43.7293 91.5104 43.8032 91.4651L43.8609 91.4297C45.5821 90.3656 47.0501 88.9384 48.1624 87.2479L41.6124 83.4936C40.6075 84.81 39.1223 85.6751 37.4815 85.8997L37.5051 93.4493C39.5242 93.3175 41.4902 92.7466 43.2659 91.7765H43.2621ZM37.0515 85.94L37.0993 85.9363C37.085 85.9369 37.0689 85.9388 37.0534 85.94H37.0515ZM30.0182 91.7865L30.0753 91.8175C31.8569 92.7752 33.8261 93.3327 35.8454 93.4511L35.8255 85.8997C34.1833 85.6869 32.6922 84.8323 31.6785 83.5228L25.152 87.3186C26.275 89.0028 27.7522 90.4215 29.4802 91.4756L29.5367 91.5097C29.613 91.5557 29.6906 91.5985 29.7675 91.6425C29.8444 91.6866 29.935 91.7399 30.02 91.7865H30.0182Z" stroke="#B7DEFF" stroke-width="0.84" stroke-linecap="round" stroke-linejoin="round"/>
<path d="M-13.1769 161.342L-13.1446 161.302M-2.6908 157.719C-2.66536 157.725 -2.63992 157.732 -2.61448 157.738M4.79981 164.245L4.7812 164.197M3.13454 174.571L3.10228 174.61M-14.8447 171.668L-14.826 171.715M-15.7958 194.115C-15.967 194.045 -16.1377 193.973 -16.3083 193.899C-16.4088 193.855 -16.5087 193.809 -16.6092 193.765C-16.7097 193.72 -16.8071 193.676 -16.9058 193.631C-17.0745 193.553 -17.242 193.472 -17.4089 193.391C-17.4381 193.376 -17.4679 193.363 -17.497 193.348C-17.5417 193.326 -17.5876 193.306 -17.6329 193.286C-18.2004 193.003 -18.7557 192.703 -19.2988 192.384L-25.7911 198.058L-30.3055 194.379L-26.0604 186.872C-26.5154 186.367 -26.9526 185.843 -27.372 185.302L-27.4341 185.224C-27.547 185.077 -27.6589 184.93 -27.7697 184.781C-27.8318 184.693 -27.8975 184.604 -27.9614 184.516C-28.0253 184.427 -28.0899 184.339 -28.1525 184.25C-28.2601 184.097 -28.3658 183.944 -28.4696 183.79C-28.487 183.763 -28.5056 183.737 -28.5236 183.71C-28.9045 183.142 -29.2633 182.563 -29.6 181.973L-38.0598 183.64L-40.1302 178.198L-32.6991 173.816C-32.7823 173.425 -32.8586 173.033 -32.925 172.637C-32.9715 172.36 -33.0125 172.079 -33.0491 171.802L-33.0621 171.702C-33.0869 171.516 -33.1099 171.336 -33.131 171.151C-33.1434 171.043 -33.1539 170.934 -33.1651 170.825C-33.1763 170.716 -33.1874 170.609 -33.1974 170.501C-33.2141 170.314 -33.2284 170.128 -33.2414 169.942L-33.2488 169.848C-33.2948 169.165 -33.3154 168.482 -33.3109 167.8L-41.4703 165.015L-40.5397 159.266L-31.9155 159.19C-31.705 158.543 -31.4705 157.902 -31.2119 157.267C-31.2001 157.237 -31.1871 157.204 -31.1747 157.178C-31.1176 157.039 -31.0618 156.9 -31.0022 156.763L-30.9582 156.663C-30.9141 156.563 -30.8688 156.463 -30.8242 156.363C-30.7795 156.263 -30.7354 156.165 -30.6895 156.066C-30.612 155.897 -30.5313 155.73 -30.4507 155.563L-30.4165 155.492L-30.4078 155.475C-30.1063 154.86 -29.7837 154.261 -29.44 153.675L-35.1133 147.183L-31.4347 142.669L-23.9273 146.914C-23.4223 146.459 -22.8992 146.022 -22.3582 145.602L-22.3433 145.59L-22.2813 145.543C-22.1344 145.43 -21.9864 145.318 -21.837 145.206C-21.7496 145.144 -21.6615 145.079 -21.5734 145.015C-21.4853 144.952 -21.3959 144.886 -21.3059 144.824C-21.2768 144.802 -21.2476 144.781 -21.2178 144.761C-21.0938 144.676 -20.9697 144.593 -20.8456 144.509L-20.7655 144.454C-20.1972 144.073 -19.6181 143.715 -19.0283 143.378L-20.7035 134.921L-15.2603 132.851L-10.8844 140.279C-10.2193 140.138 -9.54752 140.021 -8.86917 139.928C-8.8369 139.923 -8.80712 139.92 -8.77176 139.915C-8.58562 139.891 -8.40446 139.867 -8.21956 139.846C-8.11037 139.834 -8.00117 139.823 -7.89197 139.812C-7.80573 139.804 -7.71949 139.793 -7.63325 139.785H-7.60222H-7.56872C-7.38259 139.768 -7.19645 139.754 -7.01032 139.741L-6.91291 139.733C-6.2296 139.688 -5.54711 139.667 -4.86545 139.671L-2.08462 131.506L3.66378 132.437L3.73947 141.061C4.38597 141.272 5.0271 141.506 5.66284 141.765C5.69387 141.777 5.72489 141.79 5.75529 141.803C5.92591 141.873 6.09591 141.945 6.26591 142.019C6.36767 142.063 6.46818 142.108 6.56931 142.154C6.67045 142.199 6.76599 142.241 6.8634 142.287C7.0334 142.365 7.20155 142.446 7.36969 142.528C7.39823 142.542 7.42614 142.555 7.45468 142.569C8.06975 142.87 8.67054 143.193 9.25707 143.537L15.7494 137.863L20.2643 141.542L16.0187 149.049C16.4736 149.554 16.9111 150.078 17.3309 150.619L17.3874 150.694C17.5015 150.842 17.6146 150.991 17.7267 151.142C17.7888 151.228 17.8508 151.315 17.9129 151.401C17.9749 151.488 18.0432 151.581 18.1077 151.673C18.2138 151.823 18.3174 151.975 18.4179 152.127L18.4756 152.212C18.8566 152.78 19.2152 153.359 19.5515 153.949L28.0131 152.275L30.0835 157.718L22.6549 162.094C22.7956 162.759 22.9126 163.431 23.0061 164.11L23.0179 164.204C23.0427 164.39 23.0663 164.576 23.0874 164.762C23.0998 164.87 23.1103 164.978 23.1215 165.085C23.1327 165.193 23.1438 165.304 23.1537 165.413C23.1705 165.599 23.1848 165.782 23.1978 165.966C23.1978 166 23.2034 166.033 23.2052 166.066C23.2512 166.75 23.2718 167.431 23.2673 168.11L31.4267 170.896L30.4961 176.645L21.8719 176.721C21.6614 177.367 21.4271 178.008 21.169 178.644L21.1311 178.734C21.074 178.872 21.0182 179.01 20.9586 179.148L20.9146 179.247C20.8705 179.347 20.8252 179.447 20.7806 179.548C20.7359 179.648 20.6918 179.746 20.6465 179.844C20.5684 180.013 20.4877 180.181 20.4064 180.348C20.3953 180.371 20.3847 180.395 20.3729 180.419L20.3642 180.436C20.0627 181.051 19.7403 181.651 19.397 182.235L25.0703 188.727L21.3917 193.242L13.8843 188.997C13.3793 189.452 12.8561 189.889 12.3146 190.309L12.3003 190.32C12.2805 190.336 12.26 190.35 12.2383 190.365C12.0906 190.479 11.9413 190.593 11.7903 190.705C11.7041 190.767 11.6172 190.829 11.5304 190.891C11.4435 190.953 11.3504 191.021 11.2592 191.086L11.1718 191.148C11.0477 191.233 10.9236 191.315 10.8038 191.396C10.7759 191.415 10.7486 191.434 10.7201 191.453C10.1517 191.834 9.57267 192.193 8.98284 192.529L10.6587 200.992L5.21613 203.062L0.839524 195.633C0.174409 195.774 -0.497531 195.891 -1.1763 195.985C-1.20732 195.989 -1.23834 195.993 -1.26998 195.996C-1.45612 196.021 -1.64225 196.045 -1.82838 196.066C-1.93634 196.078 -2.0443 196.089 -2.15225 196.1C-2.26021 196.111 -2.37003 196.122 -2.47923 196.132C-2.66536 196.149 -2.84777 196.163 -3.03142 196.176L-3.13255 196.184C-3.18281 196.187 -3.23244 196.192 -3.2827 196.195C-3.91472 196.234 -4.54592 196.251 -5.17629 196.246L-7.96208 204.406L-13.7111 203.475L-13.7868 194.851C-14.4329 194.641 -15.074 194.407 -15.7102 194.148L-15.7958 194.115ZM-27.7263 163.707L-27.7468 163.816C-27.7734 163.964 -27.7952 164.112 -27.8194 164.261C-27.8448 164.418 -27.8727 164.576 -27.895 164.734L-27.9099 164.844C-28.3594 168.203 -28.0701 171.62 -27.0624 174.856L-15.2455 170.362C-15.5603 169.024 -15.6092 167.638 -15.3894 166.282C-15.1714 164.926 -14.6886 163.625 -13.9686 162.455L-23.7691 154.469C-25.7446 157.224 -27.0951 160.376 -27.7263 163.707ZM2.45267 169.167C2.77038 167.185 2.28908 165.158 1.11434 163.53C-0.0604045 161.903 -1.83268 160.807 -3.8138 160.485C-5.79576 160.167 -7.82294 160.648 -9.45057 161.823C-11.0782 162.997 -12.1733 164.77 -12.4957 166.751C-12.8123 168.732 -12.3306 170.758 -11.1561 172.385C-9.98155 174.012 -8.21005 175.107 -6.2298 175.429C-4.24782 175.747 -2.22073 175.266 -0.593087 174.091C1.03455 172.916 2.12988 171.144 2.45267 169.163V169.167ZM-12.6961 146.17C-12.7302 146.182 -12.7643 146.193 -12.7984 146.206C-12.938 146.256 -13.0751 146.311 -13.2135 146.363C-13.3655 146.421 -13.5181 146.476 -13.6695 146.537L-13.77 146.579C-16.9043 147.869 -19.719 149.828 -22.0176 152.319L-12.2146 160.307C-10.195 158.406 -7.50447 157.383 -4.73206 157.461L-2.71562 144.977C-6.08957 144.644 -9.49573 145.051 -12.6961 146.17ZM-4.09176 157.499C-4.06508 157.499 -4.03902 157.503 -4.01234 157.505C-4.03902 157.504 -4.06508 157.502 -4.09176 157.499ZM16.0317 158.464C14.6348 155.377 12.5809 152.631 10.0134 150.42L9.92777 150.347C9.80368 150.243 9.67959 150.142 9.5555 150.04C9.44134 149.947 9.3278 149.854 9.21116 149.76C9.18138 149.737 9.14912 149.714 9.1212 149.691C6.43521 147.622 3.32973 146.164 0.0217798 145.419L-1.99156 157.903C0.663702 158.703 2.89442 160.521 4.21287 162.96L16.0317 158.464ZM13.7249 181.443C15.7 178.69 17.0501 175.538 17.6808 172.208L17.7019 172.098C17.7305 171.938 17.7547 171.777 17.7801 171.616C17.8037 171.472 17.8291 171.327 17.8496 171.182L17.8651 171.071C18.3145 167.711 18.0253 164.293 17.0176 161.057L5.20062 165.552C5.51581 166.889 5.56472 168.276 5.34456 169.632C5.12644 170.988 4.64367 172.289 3.92375 173.459L13.7249 181.443ZM2.64874 189.744C2.6841 189.732 2.72008 189.719 2.75545 189.706C2.90994 189.651 3.06195 189.591 3.21458 189.533C3.35107 189.481 3.48757 189.431 3.62283 189.377C3.6582 189.363 3.69294 189.348 3.72768 189.333C6.86216 188.043 9.67711 186.084 11.9759 183.593L2.17285 175.605C0.153326 177.506 -2.53719 178.53 -5.30969 178.452L-7.32613 190.935C-3.95492 191.268 -0.551696 190.862 2.64625 189.744H2.64874ZM-6.0325 178.408C-6.00582 178.411 -5.97914 178.412 -5.95247 178.414C-5.97914 178.411 -6.00582 178.408 -6.0325 178.408ZM-19.2479 186.155C-19.2194 186.178 -19.1902 186.2 -19.1617 186.222C-16.477 188.291 -13.3728 189.749 -10.066 190.494L-8.04956 178.01C-10.7051 177.211 -12.936 175.393 -14.254 172.953L-26.074 177.45C-24.676 180.538 -22.6206 183.284 -20.0514 185.495L-19.9676 185.567C-19.8541 185.663 -19.7381 185.754 -19.6227 185.849C-19.4998 185.95 -19.3757 186.054 -19.2486 186.154L-19.2479 186.155ZM-7.35281 178.195C-7.37886 178.188 -7.40492 178.182 -7.43098 178.175C-7.40554 178.18 -7.37948 178.187 -7.35343 178.193L-7.35281 178.195Z" stroke="#B7DEFF" stroke-width="0.84" stroke-linecap="round" stroke-linejoin="round"/>
<mask id="mask0_166_14585" style="mask-type:luminance" maskUnits="userSpaceOnUse" x="-29" y="197" width="114" height="114">
<path d="M33.8245 210.267C34.108 210.304 34.3916 210.343 34.6751 210.386C34.8426 210.411 35.0095 210.439 35.177 210.466C35.3446 210.492 35.5077 210.519 35.6734 210.548C35.9569 210.597 36.2386 210.65 36.5203 210.705C36.5693 210.714 36.6189 210.723 36.6686 210.733C36.7449 210.747 36.8212 210.76 36.8975 210.776C37.6007 210.919 38.2968 211.078 38.9859 211.254C39.2391 211.316 39.491 211.388 39.7423 211.458L47.1652 200.405L55.3675 204.092L52.027 216.981C52.906 217.553 53.7668 218.159 54.6093 218.799C54.6496 218.829 54.6894 218.861 54.7297 218.891C54.9568 219.066 55.1828 219.242 55.4078 219.42C55.5394 219.525 55.669 219.632 55.7987 219.738C55.9284 219.844 56.0618 219.95 56.1914 220.06C56.4123 220.244 56.6307 220.43 56.8466 220.618C56.8845 220.651 56.9223 220.68 56.9596 220.715C57.7558 221.412 58.5225 222.133 59.2595 222.881L71.2155 217.02L76.4743 224.315L67.1373 233.807C67.6126 234.743 68.0549 235.698 68.4644 236.673C68.4843 236.72 68.5029 236.767 68.5221 236.813C68.6321 237.079 68.7401 237.345 68.846 237.611C68.908 237.768 68.9664 237.925 69.0259 238.083C69.0855 238.241 69.1463 238.397 69.204 238.555C69.3033 238.825 69.3982 239.095 69.4919 239.367L69.5415 239.509C69.8828 240.51 70.1857 241.519 70.4505 242.534L83.7348 243.436L84.6425 252.384L71.8099 255.935C71.754 256.983 71.6595 258.032 71.5263 259.081L71.5065 259.228C71.4767 259.458 71.4481 259.687 71.4146 259.916C71.4066 259.971 71.396 260.027 71.388 260.082C71.3631 260.249 71.3352 260.416 71.3079 260.583C71.2806 260.75 71.2552 260.915 71.226 261.08C71.177 261.363 71.1243 261.644 71.0697 261.925C71.0616 261.965 71.0554 262.005 71.0473 262.045L71.0411 262.074C70.8364 263.112 70.5948 264.136 70.3164 265.148L81.3696 272.571L77.6817 280.774L64.7926 277.43C64.6506 277.649 64.5085 277.868 64.3614 278.084C63.9627 278.674 63.5491 279.255 63.1206 279.828C63.0734 279.89 63.025 279.952 62.9779 280.014L62.9605 280.038C62.9357 280.071 62.9102 280.1 62.886 280.134C62.7117 280.362 62.5361 280.589 62.3568 280.817C62.2519 280.947 62.1458 281.077 62.0397 281.207C61.9336 281.337 61.8263 281.47 61.7177 281.6C61.6817 281.643 61.647 281.687 61.611 281.73C61.4621 281.907 61.3101 282.08 61.1587 282.253L61.0607 282.368C60.3645 283.164 59.6428 283.931 58.8953 284.668L64.756 296.623L57.4615 301.882L47.9687 292.545C47.0323 293.019 46.0762 293.461 45.1004 293.872C45.052 293.892 45.0036 293.911 44.9552 293.934C44.6922 294.043 44.4285 294.151 44.1623 294.255C44.0041 294.317 43.8446 294.379 43.6858 294.438C43.527 294.496 43.3756 294.556 43.2186 294.614C42.9469 294.713 42.6745 294.809 42.4021 294.903C42.3556 294.919 42.3103 294.935 42.2644 294.951C41.263 295.292 40.2543 295.595 39.2385 295.86L38.3376 309.141L29.3908 310.049L25.8394 297.216C24.7912 297.16 23.7427 297.066 22.6937 296.933C22.6441 296.926 22.5951 296.92 22.5461 296.913C22.2615 296.876 21.9771 296.837 21.693 296.794C21.5248 296.769 21.3585 296.741 21.191 296.714C21.0235 296.687 20.8597 296.661 20.6947 296.632C20.4117 296.583 20.1301 296.531 19.849 296.476C19.7994 296.466 19.7497 296.457 19.7001 296.447C18.6631 296.241 17.6386 295.999 16.6264 295.723L9.2022 306.777L0.999947 303.089L4.33731 290.199C3.46041 289.628 2.60069 289.022 1.75813 288.381C1.7178 288.351 1.67809 288.319 1.63838 288.289C1.41068 288.114 1.18422 287.939 0.959616 287.76C0.828081 287.655 0.699032 287.548 0.568739 287.443C0.438446 287.337 0.305668 287.229 0.175997 287.121C-0.0448818 286.935 -0.262037 286.749 -0.478571 286.562L-0.592112 286.464C-1.38793 285.768 -2.15459 285.046 -2.89209 284.299L-14.8474 290.16L-20.1081 282.865L-10.7711 273.372C-11.2464 272.437 -11.6885 271.482 -12.0976 270.506L-12.1528 270.371C-12.2641 270.105 -12.3727 269.838 -12.4786 269.569C-12.5406 269.413 -12.5983 269.258 -12.6579 269.101C-12.7174 268.943 -12.7782 268.785 -12.8366 268.625C-12.9352 268.357 -13.0301 268.087 -13.1232 267.819L-13.1741 267.673C-13.5153 266.672 -13.8183 265.664 -14.083 264.649L-27.3673 263.744L-28.2744 254.797L-15.4424 251.247C-15.3862 250.2 -15.2916 249.152 -15.1589 248.102L-15.139 247.952C-15.1092 247.724 -15.0807 247.495 -15.0472 247.27C-15.0385 247.215 -15.0286 247.159 -15.0205 247.104C-14.9951 246.936 -14.9672 246.769 -14.9405 246.602C-14.9138 246.434 -14.8877 246.271 -14.8586 246.105C-14.8096 245.822 -14.7562 245.54 -14.7016 245.258L-14.6799 245.139L-14.6737 245.11C-14.4689 244.074 -14.2272 243.049 -13.9484 242.036L-25.0016 234.608L-21.3143 226.406L-8.4252 229.747C-7.85233 228.868 -7.24615 228.006 -6.60669 227.163L-6.58993 227.141L-6.51858 227.049C-6.343 226.82 -6.16617 226.591 -5.985 226.366C-5.88201 226.237 -5.77715 226.11 -5.67478 225.981C-5.5724 225.853 -5.45887 225.715 -5.34843 225.583L-5.24295 225.454C-5.09467 225.278 -4.9439 225.106 -4.79375 224.933C-4.75963 224.894 -4.72612 224.854 -4.69138 224.815C-3.99565 224.019 -3.27429 223.253 -2.52727 222.516L-8.3855 210.559L-1.09095 205.299L8.40183 214.636C9.33663 214.161 10.2917 213.719 11.267 213.309C11.3136 213.289 11.3607 213.271 11.4066 213.252C11.6716 213.142 11.9371 213.033 12.2051 212.928C12.2213 212.921 12.2374 212.915 12.2535 212.908C12.2697 212.902 12.2827 212.896 12.2976 212.89C12.4217 212.841 12.5501 212.796 12.6767 212.748C12.8337 212.686 12.9906 212.627 13.1488 212.57C13.4187 212.47 13.6892 212.375 13.9604 212.282C14.0081 212.266 14.0553 212.248 14.1031 212.232C15.1041 211.892 16.1123 211.589 17.1277 211.323L18.0299 198.039L26.9773 197.132L30.5287 209.964C31.576 210.02 32.6245 210.115 33.6743 210.247C33.724 210.254 33.7736 210.261 33.8245 210.267ZM-4.0486 238.311C-4.15532 238.536 -4.25459 238.765 -4.35572 238.994C-4.45002 239.202 -4.5462 239.409 -4.63616 239.619L-4.70441 239.781C-6.88401 245.001 -7.80168 250.661 -7.38286 256.302L-7.36983 256.476C-7.34874 256.724 -7.32081 256.972 -7.29476 257.224C-7.2718 257.45 -7.25257 257.676 -7.22527 257.901L-7.20293 258.074C-6.48148 263.685 -4.4463 269.046 -1.26281 273.722L-1.16416 273.866C-1.02208 274.071 -0.873793 274.271 -0.729851 274.473C-0.596455 274.659 -0.465542 274.845 -0.328424 275.028L-0.222328 275.168C3.20806 279.665 7.65073 283.29 12.7449 285.748C12.797 285.773 12.8485 285.799 12.9007 285.824C13.1302 285.931 13.3623 286.033 13.5937 286.134C13.7984 286.226 14.0019 286.32 14.2086 286.409C14.2619 286.432 14.3159 286.454 14.3693 286.477C19.5912 288.658 25.2543 289.576 30.8979 289.156C30.9512 289.152 31.0052 289.148 31.0592 289.144C31.3117 289.122 31.5623 289.094 31.8136 289.068C32.0413 289.045 32.2697 289.025 32.4961 288.998C32.5495 288.991 32.6028 288.984 32.6562 288.977C38.2729 288.257 43.6401 286.22 48.3205 283.033L48.4595 282.938C48.6456 282.808 48.8318 282.672 49.0179 282.538C49.222 282.392 49.4274 282.247 49.6284 282.097L49.763 281.994C54.262 278.563 57.8879 274.118 60.3459 269.021L60.4191 268.869C60.519 268.657 60.6115 268.443 60.707 268.23C60.8088 268.006 60.9118 267.783 61.0086 267.556L61.0706 267.402C63.2517 262.181 64.1698 256.518 63.7503 250.875C63.746 250.818 63.7422 250.76 63.7373 250.703C63.718 250.468 63.6907 250.233 63.6665 249.999C63.6423 249.764 63.6212 249.516 63.5927 249.274L63.571 249.105C62.8489 243.493 60.8126 238.131 57.6278 233.454L57.5316 233.314C57.3982 233.121 57.2592 232.934 57.1221 232.744C56.985 232.554 56.8386 232.344 56.6915 232.148L56.5879 232.012C53.1566 227.513 48.7118 223.887 43.6151 221.43C43.5636 221.405 43.5127 221.38 43.4612 221.356C43.2558 221.258 43.0474 221.17 42.8408 221.075C42.6112 220.972 42.3829 220.866 42.1508 220.765C42.0987 220.743 42.046 220.721 41.9939 220.699C36.7751 218.52 31.1158 217.602 25.4758 218.021C25.4138 218.025 25.3517 218.03 25.2928 218.035C25.0657 218.053 24.8386 218.079 24.6103 218.103C24.3621 218.127 24.1189 218.149 23.8738 218.178C23.8118 218.186 23.7528 218.194 23.6926 218.201C18.0851 218.924 12.727 220.959 8.05314 224.14L7.9092 224.239C7.70135 224.383 7.49784 224.534 7.2931 224.682C7.11069 224.814 6.92641 224.942 6.74649 225.077L6.60689 225.183C2.10848 228.615 -1.51657 233.06 -3.97353 238.156L-4.0486 238.311Z" fill="white"/>
</mask>
<g mask="url(#mask0_166_14585)">
<path d="M-29.646 387.212L89.139 268.427" stroke="#B7DEFF" stroke-width="0.63" stroke-miterlimit="10"/>
<path d="M-29.646 369.894L89.139 251.109" stroke="#B7DEFF" stroke-width="0.63" stroke-miterlimit="10"/>
<path d="M-29.646 352.576L89.139 233.791" stroke="#B7DEFF" stroke-width="0.63" stroke-miterlimit="10"/>
<path d="M-29.646 335.258L89.139 216.473" stroke="#B7DEFF" stroke-width="0.63" stroke-miterlimit="10"/>
<path d="M-29.646 395.871L89.139 277.086" stroke="#B7DEFF" stroke-width="0.63" stroke-miterlimit="10"/>
<path d="M-29.646 378.553L89.139 259.768" stroke="#B7DEFF" stroke-width="0.63" stroke-miterlimit="10"/>
<path d="M-29.646 361.235L89.139 242.45" stroke="#B7DEFF" stroke-width="0.63" stroke-miterlimit="10"/>
<path d="M-29.646 343.917L89.139 225.132" stroke="#B7DEFF" stroke-width="0.63" stroke-miterlimit="10"/>
<path d="M-29.646 326.599L89.139 207.814" stroke="#B7DEFF" stroke-width="0.63" stroke-miterlimit="10"/>
<path d="M-29.646 317.941L89.139 199.156" stroke="#B7DEFF" stroke-width="0.63" stroke-miterlimit="10"/>
<path d="M-29.646 309.282L89.139 190.497" stroke="#B7DEFF" stroke-width="0.63" stroke-miterlimit="10"/>
<path d="M-29.646 300.623L89.139 181.838" stroke="#B7DEFF" stroke-width="0.63" stroke-miterlimit="10"/>
<path d="M-29.646 291.964L89.139 173.179" stroke="#B7DEFF" stroke-width="0.63" stroke-miterlimit="10"/>
<path d="M-29.646 283.305L89.139 164.52" stroke="#B7DEFF" stroke-width="0.63" stroke-miterlimit="10"/>
<path d="M-29.646 274.646L89.139 155.861" stroke="#B7DEFF" stroke-width="0.63" stroke-miterlimit="10"/>
<path d="M-29.646 265.987L89.139 147.202" stroke="#B7DEFF" stroke-width="0.63" stroke-miterlimit="10"/>
<path d="M-29.646 257.328L89.139 138.543" stroke="#B7DEFF" stroke-width="0.63" stroke-miterlimit="10"/>
<path d="M-29.646 382.882L89.139 264.097" stroke="#B7DEFF" stroke-width="0.63" stroke-miterlimit="10"/>
<path d="M-29.646 365.565L89.139 246.78" stroke="#B7DEFF" stroke-width="0.63" stroke-miterlimit="10"/>
<path d="M-29.646 348.247L89.139 229.462" stroke="#B7DEFF" stroke-width="0.63" stroke-miterlimit="10"/>
<path d="M-29.646 330.929L89.139 212.144" stroke="#B7DEFF" stroke-width="0.63" stroke-miterlimit="10"/>
<path d="M-29.646 313.611L89.139 194.826" stroke="#B7DEFF" stroke-width="0.63" stroke-miterlimit="10"/>
<path d="M-29.646 296.293L89.139 177.508" stroke="#B7DEFF" stroke-width="0.63" stroke-miterlimit="10"/>
<path d="M-29.646 278.976L89.139 160.191" stroke="#B7DEFF" stroke-width="0.63" stroke-miterlimit="10"/>
<path d="M-29.646 391.541L89.139 272.756" stroke="#B7DEFF" stroke-width="0.63" stroke-miterlimit="10"/>
<path d="M-29.646 374.224L89.139 255.438" stroke="#B7DEFF" stroke-width="0.63" stroke-miterlimit="10"/>
<path d="M-29.646 356.906L89.139 238.121" stroke="#B7DEFF" stroke-width="0.63" stroke-miterlimit="10"/>
<path d="M-29.646 339.588L89.139 220.803" stroke="#B7DEFF" stroke-width="0.63" stroke-miterlimit="10"/>
<path d="M-29.646 322.27L89.139 203.485" stroke="#B7DEFF" stroke-width="0.63" stroke-miterlimit="10"/>
<path d="M-29.646 304.952L89.139 186.167" stroke="#B7DEFF" stroke-width="0.63" stroke-miterlimit="10"/>
<path d="M-29.646 287.634L89.139 168.849" stroke="#B7DEFF" stroke-width="0.63" stroke-miterlimit="10"/>
<path d="M-29.646 270.317L89.139 151.532" stroke="#B7DEFF" stroke-width="0.63" stroke-miterlimit="10"/>
<path d="M-29.646 261.658L89.139 142.873" stroke="#B7DEFF" stroke-width="0.63" stroke-miterlimit="10"/>
<path d="M-29.646 252.999L89.139 134.214" stroke="#B7DEFF" stroke-width="0.63" stroke-miterlimit="10"/>
<path d="M-29.646 248.67L89.139 129.885" stroke="#B7DEFF" stroke-width="0.63" stroke-miterlimit="10"/>
<path d="M-29.646 244.34L89.139 125.555" stroke="#B7DEFF" stroke-width="0.63" stroke-miterlimit="10"/>
<path d="M-29.646 240.011L89.139 121.226" stroke="#B7DEFF" stroke-width="0.63" stroke-miterlimit="10"/>
<path d="M-29.646 235.681L89.139 116.896" stroke="#B7DEFF" stroke-width="0.63" stroke-miterlimit="10"/>
<path d="M-29.646 231.352L89.139 112.567" stroke="#B7DEFF" stroke-width="0.63" stroke-miterlimit="10"/>
<path d="M-29.6458 227.022L89.1393 108.237" stroke="#B7DEFF" stroke-width="0.63" stroke-miterlimit="10"/>
</g>
<path d="M33.8245 210.267C34.108 210.304 34.3916 210.343 34.6751 210.386C34.8426 210.411 35.0095 210.439 35.177 210.466C35.3446 210.492 35.5077 210.519 35.6734 210.548C35.9569 210.597 36.2386 210.65 36.5203 210.705C36.5693 210.714 36.619 210.723 36.6686 210.733C36.7449 210.747 36.8212 210.76 36.8975 210.776C37.6007 210.919 38.2968 211.078 38.9859 211.254C39.2391 211.316 39.491 211.388 39.7423 211.458L47.1652 200.405L55.3675 204.092L52.027 216.981C52.906 217.553 53.7668 218.159 54.6093 218.799C54.6496 218.829 54.6894 218.861 54.7297 218.891C54.9568 219.066 55.1828 219.242 55.4078 219.42C55.5394 219.525 55.669 219.632 55.7987 219.738C55.9284 219.844 56.0618 219.95 56.1914 220.06C56.4123 220.244 56.6307 220.43 56.8466 220.618C56.8845 220.651 56.9223 220.68 56.9596 220.715C57.7558 221.412 58.5225 222.133 59.2595 222.881L71.2155 217.02L76.4744 224.315L67.1373 233.807C67.6126 234.743 68.0549 235.698 68.4644 236.673C68.4843 236.72 68.5029 236.767 68.5221 236.813C68.6321 237.079 68.7401 237.345 68.846 237.611C68.908 237.768 68.9664 237.925 69.0259 238.083C69.0855 238.241 69.1463 238.397 69.204 238.555C69.3033 238.825 69.3982 239.095 69.4919 239.367L69.5415 239.509C69.8828 240.51 70.1857 241.519 70.4505 242.534L83.7348 243.436L84.6425 252.384L71.8099 255.935C71.754 256.983 71.6595 258.032 71.5263 259.081L71.5065 259.228C71.4767 259.458 71.4481 259.687 71.4146 259.916C71.4066 259.971 71.396 260.027 71.388 260.082C71.3631 260.249 71.3352 260.416 71.3079 260.583C71.2806 260.75 71.2552 260.915 71.226 261.08C71.177 261.363 71.1243 261.644 71.0697 261.925C71.0616 261.965 71.0554 262.005 71.0473 262.045L71.0411 262.074C70.8364 263.112 70.5948 264.136 70.3164 265.148L81.3696 272.571L77.6817 280.774L64.7926 277.43C64.6506 277.649 64.5085 277.868 64.3614 278.084C63.9627 278.674 63.5491 279.255 63.1206 279.828C63.0734 279.89 63.025 279.952 62.9779 280.014L62.9605 280.038C62.9357 280.071 62.9102 280.1 62.886 280.134C62.7117 280.362 62.5361 280.589 62.3568 280.817C62.2519 280.947 62.1458 281.077 62.0397 281.207C61.9336 281.337 61.8263 281.47 61.7177 281.6C61.6817 281.643 61.647 281.687 61.611 281.73C61.4621 281.907 61.3101 282.08 61.1587 282.253L61.0607 282.368C60.3645 283.164 59.6428 283.931 58.8953 284.668L64.756 296.623L57.4615 301.882L47.9687 292.545C47.0323 293.019 46.0762 293.461 45.1004 293.872C45.052 293.892 45.0036 293.911 44.9552 293.934C44.6922 294.043 44.4285 294.151 44.1623 294.255C44.0041 294.317 43.8446 294.379 43.6858 294.438C43.527 294.496 43.3756 294.556 43.2186 294.614C42.9469 294.713 42.6745 294.809 42.4021 294.903C42.3556 294.919 42.3103 294.935 42.2644 294.951C41.263 295.292 40.2543 295.595 39.2385 295.86L38.3376 309.141L29.3908 310.049L25.8394 297.216C24.7912 297.16 23.7427 297.066 22.6937 296.933C22.6441 296.926 22.5951 296.92 22.5461 296.913C22.2615 296.876 21.9771 296.837 21.693 296.794C21.5248 296.769 21.3585 296.741 21.191 296.714C21.0235 296.687 20.8597 296.661 20.6947 296.632C20.4117 296.583 20.1301 296.531 19.849 296.476C19.7994 296.466 19.7497 296.457 19.7001 296.447C18.6631 296.241 17.6386 295.999 16.6264 295.723L9.2022 306.777L0.999946 303.089L4.33731 290.199C3.46041 289.628 2.60069 289.022 1.75813 288.381C1.7178 288.351 1.67809 288.319 1.63838 288.289C1.41068 288.114 1.18422 287.939 0.959616 287.76C0.828082 287.655 0.699031 287.548 0.568738 287.443C0.438445 287.337 0.305669 287.229 0.175996 287.121C-0.0448816 286.935 -0.262037 286.749 -0.478571 286.562L-0.592112 286.464C-1.38793 285.768 -2.15459 285.046 -2.89209 284.299L-14.8474 290.16L-20.1081 282.865L-10.7711 273.372C-11.2464 272.437 -11.6885 271.482 -12.0976 270.506L-12.1528 270.371C-12.2641 270.105 -12.3727 269.838 -12.4786 269.569C-12.5406 269.413 -12.5983 269.258 -12.6579 269.101C-12.7174 268.943 -12.7782 268.785 -12.8366 268.625C-12.9352 268.357 -13.0301 268.087 -13.1232 267.819L-13.1741 267.673C-13.5153 266.672 -13.8183 265.664 -14.083 264.649L-27.3673 263.744L-28.2744 254.797L-15.4424 251.247C-15.3862 250.2 -15.2916 249.152 -15.1589 248.102L-15.139 247.952C-15.1092 247.724 -15.0807 247.495 -15.0472 247.27C-15.0385 247.215 -15.0286 247.159 -15.0205 247.104C-14.9951 246.936 -14.9672 246.769 -14.9405 246.602C-14.9138 246.434 -14.8877 246.271 -14.8586 246.105C-14.8096 245.822 -14.7562 245.54 -14.7016 245.258L-14.6799 245.139L-14.6737 245.11C-14.4689 244.074 -14.2272 243.049 -13.9484 242.036L-25.0016 234.608L-21.3143 226.406L-8.4252 229.747C-7.85233 228.868 -7.24616 228.006 -6.60669 227.163L-6.58993 227.141L-6.51858 227.049C-6.343 226.82 -6.16617 226.591 -5.985 226.366C-5.88201 226.237 -5.77715 226.11 -5.67478 225.981C-5.57241 225.853 -5.45887 225.715 -5.34843 225.583L-5.24295 225.454C-5.09466 225.278 -4.9439 225.106 -4.79375 224.933C-4.75963 224.894 -4.72612 224.854 -4.69138 224.815C-3.99565 224.019 -3.27429 223.253 -2.52727 222.516L-8.3855 210.559L-1.09095 205.299L8.40183 214.636C9.33663 214.161 10.2917 213.719 11.267 213.309C11.3136 213.289 11.3607 213.271 11.4066 213.252C11.6716 213.142 11.9371 213.033 12.2051 212.928C12.2213 212.921 12.2374 212.915 12.2535 212.908C12.2697 212.902 12.2827 212.896 12.2976 212.89C12.4217 212.841 12.5501 212.796 12.6767 212.748C12.8337 212.686 12.9906 212.627 13.1488 212.57C13.4187 212.47 13.6892 212.375 13.9604 212.282C14.0082 212.266 14.0553 212.248 14.1031 212.232C15.1041 211.892 16.1123 211.589 17.1277 211.323L18.0299 198.039L26.9773 197.132L30.5287 209.964C31.576 210.02 32.6245 210.115 33.6743 210.247C33.724 210.254 33.7736 210.261 33.8245 210.267ZM-4.0486 238.311C-4.15531 238.536 -4.25459 238.765 -4.35572 238.994C-4.45002 239.202 -4.5462 239.409 -4.63616 239.619L-4.70441 239.781C-6.88401 245.001 -7.80168 250.661 -7.38286 256.302L-7.36983 256.476C-7.34873 256.724 -7.32081 256.972 -7.29476 257.224C-7.2718 257.45 -7.25257 257.676 -7.22527 257.901L-7.20293 258.074C-6.48148 263.685 -4.4463 269.046 -1.26281 273.722L-1.16416 273.866C-1.02208 274.071 -0.873793 274.271 -0.72985 274.473C-0.596455 274.659 -0.465542 274.845 -0.328424 275.028L-0.222327 275.168C3.20806 279.665 7.65073 283.29 12.7449 285.748C12.797 285.773 12.8485 285.799 12.9007 285.824C13.1302 285.931 13.3623 286.033 13.5937 286.134C13.7984 286.226 14.0019 286.32 14.2086 286.409C14.2619 286.432 14.3159 286.454 14.3693 286.477C19.5912 288.658 25.2543 289.576 30.8978 289.156C30.9512 289.152 31.0052 289.148 31.0592 289.144C31.3117 289.122 31.5623 289.094 31.8136 289.068C32.0413 289.045 32.2697 289.025 32.4961 288.998C32.5495 288.991 32.6028 288.984 32.6562 288.977C38.2729 288.257 43.6401 286.22 48.3205 283.033L48.4595 282.938C48.6456 282.808 48.8318 282.672 49.0179 282.538C49.222 282.392 49.4274 282.247 49.6284 282.097L49.763 281.994C54.262 278.563 57.8879 274.118 60.3459 269.021L60.4191 268.869C60.519 268.657 60.6115 268.443 60.707 268.23C60.8088 268.006 60.9118 267.783 61.0086 267.556L61.0706 267.402C63.2517 262.181 64.1698 256.518 63.7503 250.875C63.746 250.818 63.7422 250.76 63.7373 250.703C63.718 250.468 63.6907 250.233 63.6665 249.999C63.6423 249.764 63.6213 249.516 63.5927 249.274L63.571 249.105C62.8489 243.493 60.8126 238.131 57.6278 233.454L57.5316 233.314C57.3982 233.121 57.2592 232.934 57.1221 232.744C56.985 232.554 56.8386 232.344 56.6915 232.148L56.5879 232.012C53.1566 227.513 48.7118 223.887 43.6151 221.43C43.5636 221.405 43.5127 221.38 43.4612 221.356C43.2558 221.258 43.0474 221.17 42.8408 221.075C42.6112 220.972 42.3829 220.866 42.1508 220.765C42.0987 220.743 42.046 220.721 41.9938 220.699C36.7751 218.52 31.1158 217.602 25.4758 218.021C25.4138 218.025 25.3517 218.03 25.2928 218.035C25.0657 218.053 24.8386 218.079 24.6103 218.103C24.3621 218.127 24.1189 218.149 23.8738 218.178C23.8118 218.186 23.7528 218.194 23.6926 218.201C18.0851 218.924 12.727 220.959 8.05314 224.14L7.9092 224.239C7.70135 224.383 7.49784 224.534 7.2931 224.682C7.11069 224.814 6.92642 224.942 6.74649 225.077L6.60689 225.183C2.10848 228.615 -1.51657 233.06 -3.97353 238.156L-4.0486 238.311Z" stroke="#B7DEFF" stroke-width="1.679" stroke-miterlimit="10"/>
<path d="M55.0746 265.68C52.6836 270.998 48.7691 275.488 43.8262 278.582C38.8833 281.676 33.134 283.234 27.3053 283.061C21.4766 282.887 15.8303 280.989 11.0804 277.606C6.33054 274.223 2.69043 269.508 0.620404 264.057C-1.44962 258.605 -1.85659 252.662 -0.549039 246.979C0.758512 241.297 3.72186 236.129 7.96626 232.13C12.2107 228.132 17.5455 225.482 23.2961 224.515C29.0467 223.548 34.9548 224.308 40.2734 226.7C47.405 229.906 52.9709 235.814 55.7467 243.124C58.5224 250.434 58.2807 258.548 55.0746 265.68ZM14.0931 266.133C13.468 267.524 13.2692 269.068 13.5219 270.572C13.7747 272.075 14.4676 273.47 15.513 274.58C16.5584 275.689 17.9094 276.464 19.3952 276.806C20.8809 277.148 22.4347 277.041 23.86 276.5C25.2852 275.959 26.518 275.007 27.4025 273.766C28.2869 272.524 28.7832 271.048 28.8286 269.524C28.8741 268 28.4666 266.497 27.6578 265.204C26.8489 263.912 25.675 262.889 24.2845 262.263C23.3613 261.848 22.3653 261.619 21.3535 261.589C20.3416 261.559 19.3338 261.728 18.3874 262.088C17.441 262.447 16.5747 262.989 15.8379 263.683C15.1011 264.377 14.5082 265.21 14.0931 266.133ZM5.44975 243.368C4.8246 244.758 4.62582 246.303 4.87856 247.806C5.13129 249.31 5.82417 250.705 6.8696 251.814C7.91502 252.924 9.26603 253.699 10.7518 254.041C12.2375 254.383 13.7913 254.276 15.2166 253.735C16.6419 253.194 17.8747 252.242 18.7591 251C19.6435 249.759 20.1398 248.282 20.1852 246.758C20.2307 245.235 19.8232 243.731 19.0144 242.439C18.2055 241.147 17.0316 240.123 15.6411 239.498C13.7765 238.66 11.6553 238.597 9.74409 239.323C7.83288 240.048 6.28818 241.503 5.44975 243.368ZM27.347 255.45C27.7153 255.616 28.1244 255.669 28.5225 255.602C28.9207 255.535 29.29 255.351 29.5839 255.074C29.8777 254.797 30.0829 254.44 30.1734 254.046C30.2639 253.653 30.2356 253.241 30.0923 252.864C29.9489 252.486 29.6968 252.16 29.3679 251.926C29.039 251.692 28.6481 251.56 28.2445 251.548C27.8409 251.536 27.4429 251.644 27.1007 251.859C26.7585 252.073 26.4875 252.384 26.3221 252.752C26.212 252.997 26.1513 253.26 26.1432 253.528C26.1352 253.796 26.1801 254.063 26.2752 254.314C26.3704 254.565 26.5141 254.794 26.698 254.99C26.8819 255.185 27.1024 255.342 27.347 255.452V255.45ZM36.8572 257.488C36.2319 258.878 36.0329 260.423 36.2855 261.927C36.5382 263.43 37.231 264.825 38.2763 265.935C39.3217 267.045 40.6727 267.819 42.1585 268.161C43.6443 268.503 45.1981 268.397 46.6234 267.856C48.0488 267.315 49.2816 266.363 50.1661 265.121C51.0506 263.879 51.5469 262.403 51.5923 260.879C51.6378 259.355 51.2303 257.852 50.4214 256.56C49.6125 255.267 48.4385 254.244 47.048 253.619C45.1833 252.781 43.0622 252.718 41.151 253.443C39.2399 254.169 37.6954 255.625 36.8572 257.489V257.488ZM28.2138 234.726C27.5886 236.116 27.3898 237.661 27.6425 239.164C27.8952 240.668 28.5881 242.063 29.6335 243.172C30.679 244.282 32.03 245.057 33.5158 245.399C35.0016 245.741 36.5554 245.634 37.9807 245.093C39.406 244.552 40.6388 243.6 41.5232 242.358C42.4076 241.116 42.9038 239.64 42.9492 238.116C42.9946 236.592 42.587 235.089 41.7781 233.797C40.9691 232.504 39.7952 231.481 38.4046 230.856C37.4814 230.441 36.4854 230.212 35.4736 230.181C34.4618 230.151 33.454 230.321 32.5076 230.68C31.5613 231.039 30.695 231.582 29.9583 232.276C29.2215 232.97 28.6288 233.802 28.2138 234.726Z" stroke="#B7DEFF" stroke-width="1.679" stroke-miterlimit="10"/>
<mask id="mask1_166_14585" style="mask-type:luminance" maskUnits="userSpaceOnUse" x="46" y="124" width="53" height="53">
<path d="M75.1462 130.725C75.2765 130.742 75.4062 130.76 75.5365 130.779C75.6134 130.791 75.6897 130.804 75.766 130.816C75.8424 130.828 75.9181 130.84 75.9937 130.853C76.1234 130.876 76.2525 130.9 76.3815 130.925C76.4045 130.93 76.4268 130.933 76.4498 130.938C76.4845 130.945 76.5193 130.951 76.5546 130.958C76.876 131.023 77.1949 131.096 77.5113 131.177C77.6274 131.207 77.7428 131.239 77.8582 131.27L81.2594 126.205L85.0181 127.895L83.4875 133.801C83.8903 134.064 84.2847 134.341 84.6706 134.634C84.6893 134.648 84.7072 134.663 84.7252 134.676C84.8295 134.756 84.9337 134.836 85.0355 134.919C85.0975 134.967 85.1552 135.016 85.2148 135.064C85.2743 135.113 85.3351 135.162 85.3947 135.212C85.4956 135.295 85.5957 135.38 85.695 135.468L85.7465 135.513C86.1113 135.832 86.4629 136.163 86.8012 136.505L92.2791 133.82L94.6896 137.162L90.4085 141.512C90.6261 141.941 90.8287 142.378 91.0165 142.825L91.0432 142.887C91.0933 143.007 91.1427 143.129 91.1915 143.252L91.274 143.468C91.3013 143.54 91.3292 143.612 91.3553 143.685C91.4004 143.809 91.4444 143.933 91.4875 144.057L91.5104 144.123C91.6659 144.581 91.8047 145.043 91.9267 145.508L98.0139 145.922L98.4296 150.021L92.5496 151.649C92.5236 152.129 92.4802 152.609 92.4194 153.091L92.4107 153.158C92.397 153.263 92.384 153.368 92.3685 153.473L92.3561 153.549C92.3449 153.626 92.3319 153.702 92.3195 153.779C92.307 153.855 92.2953 153.931 92.2822 154.006C92.2595 154.136 92.2355 154.265 92.2103 154.394L92.2003 154.449L92.1972 154.462C92.1033 154.938 91.9927 155.407 91.8653 155.871L96.93 159.272L95.2399 163.031L89.3345 161.5C89.2687 161.6 89.2036 161.7 89.1366 161.8C88.9538 162.07 88.7637 162.337 88.5664 162.599C88.5453 162.627 88.523 162.655 88.5044 162.683L88.4963 162.694L88.4622 162.738C88.3821 162.842 88.3015 162.946 88.2196 163.048C88.1718 163.11 88.1228 163.167 88.0744 163.227L87.9267 163.407C87.91 163.426 87.8945 163.447 87.8777 163.469C87.8095 163.551 87.74 163.63 87.6705 163.709L87.6258 163.762C87.3069 164.127 86.976 164.478 86.6331 164.817L89.3184 170.295L85.9761 172.705L81.6268 168.424C81.1982 168.642 80.7606 168.845 80.3139 169.032C80.2922 169.041 80.2698 169.05 80.2475 169.059C80.1271 169.11 80.0062 169.159 79.8845 169.207C79.812 169.236 79.7387 169.263 79.6661 169.29C79.5936 169.318 79.5234 169.345 79.4521 169.371C79.328 169.417 79.2039 169.461 79.0798 169.504C79.0587 169.511 79.0383 169.519 79.0178 169.525C78.5595 169.682 78.0973 169.821 77.6311 169.942L77.2179 176.03L73.118 176.445L71.4912 170.565C71.011 170.539 70.5303 170.496 70.0493 170.436L69.9817 170.426C69.8514 170.41 69.7211 170.392 69.5908 170.372C69.5138 170.361 69.4375 170.348 69.3612 170.335C69.2849 170.323 69.2092 170.311 69.1335 170.298C69.0038 170.276 68.8748 170.251 68.7457 170.226L68.6775 170.213C68.2022 170.119 67.7328 170.008 67.2691 169.881L63.8672 174.946L60.1061 173.258L61.6367 167.352C61.2338 167.089 60.8394 166.812 60.4535 166.519C60.4349 166.505 60.4169 166.49 60.3983 166.477C60.2941 166.397 60.1904 166.316 60.0881 166.234C60.026 166.186 59.9683 166.137 59.9088 166.089C59.8492 166.04 59.7884 165.991 59.7288 165.941C59.6277 165.857 59.5284 165.771 59.4292 165.685L59.377 165.64C59.0122 165.321 58.6606 164.99 58.3223 164.647L52.8438 167.333L50.4352 163.99L54.7163 159.641C54.4983 159.212 54.2954 158.774 54.1076 158.327L54.0822 158.265C54.0313 158.143 53.9817 158.021 53.9333 157.897C53.9047 157.826 53.8781 157.754 53.8508 157.683C53.8235 157.612 53.7955 157.538 53.7689 157.465C53.7234 157.341 53.6797 157.217 53.6379 157.093L53.6144 157.026C53.458 156.567 53.3192 156.105 53.1981 155.641L47.1109 155.227L46.6952 151.127L52.5751 149.5C52.6008 149.02 52.644 148.539 52.7048 148.059L52.7141 147.99C52.7278 147.885 52.7408 147.78 52.7563 147.676L52.7681 147.6C52.7799 147.523 52.7929 147.446 52.8053 147.369C52.8177 147.292 52.8295 147.218 52.8425 147.142C52.8649 147.013 52.8889 146.884 52.9145 146.755L52.9244 146.7V146.686C53.0183 146.211 53.129 145.742 53.2564 145.278L48.1917 141.877L49.8812 138.118L55.7872 139.649C56.0498 139.246 56.3276 138.852 56.6204 138.465L56.6285 138.454L56.6607 138.413C56.7414 138.307 56.8227 138.203 56.9052 138.099C56.9524 138.04 57.0007 137.981 57.0485 137.923C57.0963 137.864 57.1478 137.798 57.198 137.74L57.2464 137.678C57.3147 137.597 57.3836 137.519 57.4524 137.439L57.499 137.385C57.8179 137.02 58.1488 136.669 58.4917 136.33L55.8058 130.852L59.1487 128.442L63.498 132.723C63.9261 132.505 64.3637 132.303 64.8109 132.115C64.832 132.106 64.8537 132.097 64.8729 132.089C64.997 132.038 65.1161 131.989 65.239 131.94L65.2607 131.932L65.2812 131.923C65.3389 131.901 65.3972 131.879 65.4549 131.858C65.5269 131.83 65.5988 131.802 65.6714 131.776C65.7955 131.731 65.9196 131.687 66.0437 131.644L66.1057 131.621C66.5641 131.465 67.0261 131.326 67.4918 131.205L67.9057 125.118L72.0049 124.702L73.6323 130.582C74.1126 130.608 74.593 130.651 75.0736 130.712L75.1462 130.725ZM57.7924 143.575C57.744 143.678 57.6981 143.783 57.6516 143.885C57.6051 143.987 57.5647 144.075 57.5232 144.172L57.4921 144.246C56.4939 146.639 56.0743 149.233 56.2674 151.818L56.2736 151.897C56.2829 152.012 56.2959 152.126 56.3077 152.241C56.3183 152.344 56.3269 152.447 56.3394 152.551L56.3499 152.63C56.6803 155.201 57.6129 157.658 59.0718 159.8L59.1171 159.866C59.1822 159.96 59.2499 160.052 59.3169 160.144C59.3839 160.236 59.4378 160.314 59.503 160.399L59.552 160.461C61.1238 162.522 63.1596 164.183 65.494 165.309L65.5653 165.343C65.6708 165.393 65.7769 165.439 65.883 165.486C65.9767 165.529 66.0691 165.572 66.1647 165.61C66.1895 165.621 66.2137 165.632 66.2385 165.641C68.6311 166.641 71.2258 167.062 73.8116 166.869L73.8861 166.864C74.0015 166.854 74.1163 166.841 74.2317 166.829C74.3359 166.818 74.4402 166.809 74.5419 166.797L74.6151 166.787C77.1883 166.457 79.647 165.523 81.7912 164.063C81.8123 164.049 81.834 164.035 81.8532 164.02C81.9388 163.958 82.0232 163.896 82.1076 163.837C82.192 163.778 82.2937 163.703 82.388 163.634C82.4085 163.619 82.4284 163.603 82.4501 163.587C84.5116 162.015 86.1729 159.978 87.2988 157.643L87.3323 157.573C87.3783 157.476 87.4211 157.378 87.4645 157.28C87.5079 157.183 87.5588 157.076 87.6029 156.97L87.6326 156.899C88.6315 154.507 89.0521 151.914 88.8605 149.329L88.8543 149.251C88.8456 149.143 88.8332 149.035 88.822 148.927C88.8109 148.819 88.8009 148.706 88.7879 148.596L88.778 148.518C88.4468 145.947 87.5139 143.49 86.0548 141.347L86.0108 141.285C85.9487 141.197 85.8867 141.111 85.8247 141.024C85.7626 140.937 85.6944 140.841 85.6267 140.751L85.5796 140.689C84.0073 138.628 81.9706 136.966 79.6351 135.84C79.6115 135.829 79.5886 135.817 79.565 135.806C79.4707 135.762 79.3752 135.721 79.2802 135.678C79.1748 135.63 79.0705 135.582 78.9638 135.536C78.9402 135.526 78.916 135.516 78.8918 135.506C76.5004 134.507 73.907 134.087 71.3224 134.279C71.2945 134.279 71.2666 134.283 71.2387 134.285C71.1344 134.294 71.0308 134.305 70.9284 134.317C70.8261 134.328 70.7032 134.338 70.5909 134.351C70.563 134.354 70.5357 134.358 70.5078 134.361C67.9376 134.693 65.4821 135.627 63.3404 137.086L63.2747 137.131C63.1791 137.197 63.0885 137.266 62.9924 137.334C62.9086 137.396 62.8242 137.453 62.7442 137.515C62.7231 137.531 62.702 137.548 62.6821 137.564C60.6212 139.136 58.9602 141.171 57.834 143.506L57.7924 143.575Z" fill="white"/>
</mask>
<g mask="url(#mask1_166_14585)">
<path d="M46.0643 211.803L100.493 157.374" stroke="#B7DEFF" stroke-width="0.42" stroke-miterlimit="10"/>
<path d="M46.0643 203.868L100.493 149.439" stroke="#B7DEFF" stroke-width="0.42" stroke-miterlimit="10"/>
<path d="M46.0643 195.933L100.493 141.504" stroke="#B7DEFF" stroke-width="0.42" stroke-miterlimit="10"/>
<path d="M46.0643 187.998L100.493 133.569" stroke="#B7DEFF" stroke-width="0.42" stroke-miterlimit="10"/>
<path d="M46.0643 215.771L100.493 161.342" stroke="#B7DEFF" stroke-width="0.42" stroke-miterlimit="10"/>
<path d="M46.0643 207.836L100.493 153.407" stroke="#B7DEFF" stroke-width="0.42" stroke-miterlimit="10"/>
<path d="M46.0643 199.9L100.493 145.471" stroke="#B7DEFF" stroke-width="0.42" stroke-miterlimit="10"/>
<path d="M46.0643 191.965L100.493 137.536" stroke="#B7DEFF" stroke-width="0.42" stroke-miterlimit="10"/>
<path d="M46.0643 184.03L100.493 129.601" stroke="#B7DEFF" stroke-width="0.42" stroke-miterlimit="10"/>
<path d="M46.0643 180.063L100.493 125.634" stroke="#B7DEFF" stroke-width="0.42" stroke-miterlimit="10"/>
<path d="M46.0643 176.095L100.493 121.666" stroke="#B7DEFF" stroke-width="0.42" stroke-miterlimit="10"/>
<path d="M46.0643 172.127L100.493 117.698" stroke="#B7DEFF" stroke-width="0.42" stroke-miterlimit="10"/>
<path d="M46.0643 168.159L100.493 113.73" stroke="#B7DEFF" stroke-width="0.42" stroke-miterlimit="10"/>
<path d="M46.0643 164.192L100.493 109.763" stroke="#B7DEFF" stroke-width="0.42" stroke-miterlimit="10"/>
<path d="M46.0643 160.224L100.493 105.795" stroke="#B7DEFF" stroke-width="0.42" stroke-miterlimit="10"/>
<path d="M46.0643 156.257L100.493 101.828" stroke="#B7DEFF" stroke-width="0.42" stroke-miterlimit="10"/>
<path d="M46.0643 152.289L100.493 97.8599" stroke="#B7DEFF" stroke-width="0.42" stroke-miterlimit="10"/>
<path d="M46.0643 209.819L100.493 155.39" stroke="#B7DEFF" stroke-width="0.42" stroke-miterlimit="10"/>
<path d="M46.0643 201.884L100.493 147.455" stroke="#B7DEFF" stroke-width="0.42" stroke-miterlimit="10"/>
<path d="M46.0643 193.949L100.493 139.52" stroke="#B7DEFF" stroke-width="0.42" stroke-miterlimit="10"/>
<path d="M46.0643 186.014L100.493 131.585" stroke="#B7DEFF" stroke-width="0.42" stroke-miterlimit="10"/>
<path d="M46.0643 178.079L100.493 123.65" stroke="#B7DEFF" stroke-width="0.42" stroke-miterlimit="10"/>
<path d="M46.0643 170.143L100.493 115.714" stroke="#B7DEFF" stroke-width="0.42" stroke-miterlimit="10"/>
<path d="M46.0643 162.208L100.493 107.779" stroke="#B7DEFF" stroke-width="0.42" stroke-miterlimit="10"/>
<path d="M46.0643 213.787L100.493 159.358" stroke="#B7DEFF" stroke-width="0.42" stroke-miterlimit="10"/>
<path d="M46.0643 205.852L100.493 151.423" stroke="#B7DEFF" stroke-width="0.42" stroke-miterlimit="10"/>
<path d="M46.0643 197.917L100.493 143.488" stroke="#B7DEFF" stroke-width="0.42" stroke-miterlimit="10"/>
<path d="M46.0643 189.981L100.493 135.552" stroke="#B7DEFF" stroke-width="0.42" stroke-miterlimit="10"/>
<path d="M46.0643 182.046L100.493 127.617" stroke="#B7DEFF" stroke-width="0.42" stroke-miterlimit="10"/>
<path d="M46.0643 174.111L100.493 119.682" stroke="#B7DEFF" stroke-width="0.42" stroke-miterlimit="10"/>
<path d="M46.0643 166.176L100.493 111.747" stroke="#B7DEFF" stroke-width="0.42" stroke-miterlimit="10"/>
<path d="M46.0643 158.24L100.493 103.811" stroke="#B7DEFF" stroke-width="0.42" stroke-miterlimit="10"/>
<path d="M46.0643 154.273L100.493 99.8442" stroke="#B7DEFF" stroke-width="0.42" stroke-miterlimit="10"/>
<path d="M46.0643 150.305L100.493 95.8765" stroke="#B7DEFF" stroke-width="0.42" stroke-miterlimit="10"/>
<path d="M46.0643 148.321L100.493 93.8923" stroke="#B7DEFF" stroke-width="0.42" stroke-miterlimit="10"/>
<path d="M46.0643 146.338L100.493 91.9087" stroke="#B7DEFF" stroke-width="0.42" stroke-miterlimit="10"/>
<path d="M46.0643 144.354L100.493 89.925" stroke="#B7DEFF" stroke-width="0.42" stroke-miterlimit="10"/>
<path d="M46.0643 142.37L100.493 87.9409" stroke="#B7DEFF" stroke-width="0.42" stroke-miterlimit="10"/>
<path d="M46.0643 140.386L100.493 85.9573" stroke="#B7DEFF" stroke-width="0.42" stroke-miterlimit="10"/>
<path d="M46.0641 138.402L100.493 83.9731" stroke="#B7DEFF" stroke-width="0.42" stroke-miterlimit="10"/>
</g>
<path d="M75.1465 130.725C75.2768 130.742 75.4064 130.76 75.5367 130.779C75.6137 130.791 75.69 130.804 75.7663 130.816C75.8426 130.828 75.9183 130.84 75.994 130.853C76.1237 130.876 76.2527 130.9 76.3818 130.925C76.4047 130.93 76.4271 130.933 76.45 130.938C76.4848 130.945 76.5195 130.951 76.5549 130.958C76.8763 131.023 77.1952 131.096 77.5116 131.177C77.6276 131.207 77.743 131.239 77.8584 131.27L81.2597 126.205L85.0183 127.895L83.4877 133.801C83.8906 134.064 84.285 134.341 84.6709 134.634C84.6895 134.648 84.7075 134.663 84.7255 134.676C84.8297 134.756 84.934 134.836 85.0357 134.919C85.0978 134.967 85.1555 135.016 85.215 135.064C85.2746 135.113 85.3354 135.162 85.3949 135.212C85.4959 135.295 85.596 135.38 85.6952 135.468L85.7467 135.513C86.1116 135.832 86.4631 136.163 86.8015 136.505L92.2794 133.82L94.6898 137.162L90.4087 141.512C90.6263 141.941 90.829 142.378 91.0168 142.825L91.0435 142.887C91.0935 143.007 91.1429 143.129 91.1917 143.252L91.2743 143.468C91.3016 143.54 91.3295 143.612 91.3555 143.685C91.4006 143.809 91.4447 143.933 91.4877 144.057L91.5106 144.123C91.6662 144.581 91.8049 145.043 91.927 145.508L98.0141 145.922L98.4298 150.021L92.5499 151.649C92.5238 152.129 92.4804 152.609 92.4196 153.091L92.4109 153.158C92.3973 153.263 92.3842 153.368 92.3687 153.473L92.3563 153.549C92.3451 153.626 92.3321 153.702 92.3197 153.779C92.3073 153.855 92.2955 153.931 92.2825 154.006C92.2597 154.136 92.2357 154.265 92.2105 154.394L92.2006 154.449L92.1975 154.462C92.1036 154.938 91.9929 155.407 91.8655 155.871L96.9302 159.272L95.2401 163.031L89.3348 161.5C89.269 161.6 89.2038 161.7 89.1368 161.8C88.954 162.07 88.7639 162.337 88.5666 162.599C88.5456 162.627 88.5232 162.655 88.5046 162.683L88.4965 162.694L88.4624 162.738C88.3824 162.842 88.3017 162.946 88.2198 163.048C88.172 163.11 88.123 163.167 88.0746 163.227L87.927 163.407C87.9102 163.426 87.8947 163.447 87.878 163.469C87.8097 163.551 87.7402 163.63 87.6707 163.709L87.6261 163.762C87.3072 164.127 86.9762 164.478 86.6333 164.817L89.3186 170.295L85.9763 172.705L81.627 168.424C81.1985 168.642 80.7609 168.845 80.3141 169.032C80.2924 169.041 80.2701 169.05 80.2477 169.059C80.1274 169.11 80.0064 169.159 79.8848 169.207C79.8122 169.236 79.739 169.263 79.6664 169.29C79.5938 169.318 79.5237 169.345 79.4523 169.371C79.3282 169.417 79.2042 169.461 79.0801 169.504C79.059 169.511 79.0385 169.519 79.018 169.525C78.5597 169.682 78.0975 169.821 77.6313 169.942L77.2181 176.03L73.1182 176.445L71.4914 170.565C71.0112 170.539 70.5306 170.496 70.0495 170.436L69.9819 170.426C69.8516 170.41 69.7213 170.392 69.591 170.372C69.5141 170.361 69.4378 170.348 69.3615 170.335C69.2851 170.323 69.2094 170.311 69.1338 170.298C69.0041 170.276 68.875 170.251 68.746 170.226L68.6777 170.213C68.2025 170.119 67.733 170.008 67.2693 169.881L63.8674 174.946L60.1063 173.258L61.6369 167.352C61.2341 167.089 60.8397 166.812 60.4538 166.519C60.4351 166.505 60.4171 166.49 60.3985 166.477C60.2943 166.397 60.1907 166.316 60.0883 166.234C60.0263 166.186 59.9686 166.137 59.909 166.089C59.8494 166.04 59.7886 165.991 59.7291 165.941C59.6279 165.857 59.5287 165.771 59.4294 165.685L59.3773 165.64C59.0125 165.321 58.6609 164.99 58.3225 164.647L52.844 167.333L50.4355 163.99L54.7165 159.641C54.4985 159.212 54.2957 158.774 54.1079 158.327L54.0824 158.265C54.0316 158.143 53.9819 158.021 53.9335 157.897C53.905 157.826 53.8783 157.754 53.851 157.683C53.8237 157.612 53.7958 157.538 53.7691 157.465C53.7236 157.341 53.68 157.217 53.6382 157.093L53.6146 157.026C53.4583 156.567 53.3195 156.105 53.1983 155.641L47.1111 155.227L46.6954 151.127L52.5754 149.5C52.601 149.02 52.6442 148.539 52.705 148.059L52.7144 147.99C52.728 147.885 52.741 147.78 52.7565 147.676L52.7683 147.6C52.7801 147.523 52.7931 147.446 52.8056 147.369C52.818 147.292 52.8298 147.218 52.8428 147.142C52.8651 147.013 52.8891 146.884 52.9148 146.755L52.9247 146.7V146.686C53.0186 146.211 53.1292 145.742 53.2566 145.278L48.1919 141.877L49.8814 138.118L55.7874 139.649C56.0501 139.246 56.3278 138.852 56.6207 138.465L56.6287 138.454L56.661 138.413C56.7416 138.307 56.8229 138.203 56.9054 138.099C56.9526 138.04 57.001 137.981 57.0488 137.923C57.0965 137.864 57.148 137.798 57.1983 137.74L57.2467 137.678C57.3149 137.597 57.3838 137.519 57.4527 137.439L57.4992 137.385C57.8181 137.02 58.149 136.669 58.4919 136.33L55.806 130.852L59.149 128.442L63.4983 132.723C63.9264 132.505 64.364 132.303 64.8111 132.115C64.8322 132.106 64.8539 132.097 64.8732 132.089C64.9973 132.038 65.1164 131.989 65.2392 131.94L65.261 131.932L65.2814 131.923C65.3391 131.901 65.3974 131.879 65.4551 131.858C65.5271 131.83 65.5991 131.802 65.6717 131.776C65.7958 131.731 65.9199 131.687 66.044 131.644L66.106 131.621C66.5643 131.465 67.0263 131.326 67.4921 131.205L67.9059 125.118L72.0052 124.702L73.6326 130.582C74.1128 130.608 74.5932 130.651 75.0739 130.712L75.1465 130.725ZM57.7927 143.575C57.7443 143.678 57.6984 143.783 57.6518 143.885C57.6053 143.987 57.565 144.075 57.5234 144.172L57.4924 144.246C56.4942 146.639 56.0746 149.233 56.2676 151.818L56.2738 151.897C56.2831 152.012 56.2962 152.126 56.308 152.241C56.3185 152.344 56.3272 152.447 56.3396 152.551L56.3501 152.63C56.6806 155.201 57.6131 157.658 59.072 159.8L59.1173 159.866C59.1825 159.96 59.2501 160.052 59.3171 160.144C59.3841 160.236 59.4381 160.314 59.5032 160.399L59.5523 160.461C61.124 162.522 63.1598 164.183 65.4942 165.309L65.5656 165.343C65.6711 165.393 65.7772 165.439 65.8833 165.486C65.9769 165.529 66.0694 165.572 66.1649 165.61C66.1898 165.621 66.2139 165.632 66.2388 165.641C68.6313 166.641 71.2261 167.062 73.8119 166.869L73.8863 166.864C74.0018 166.854 74.1165 166.841 74.2319 166.829C74.3362 166.818 74.4404 166.809 74.5422 166.797L74.6154 166.787C77.1885 166.457 79.6472 165.523 81.7914 164.063C81.8125 164.049 81.8342 164.035 81.8535 164.02C81.9391 163.958 82.0235 163.896 82.1078 163.837C82.1922 163.778 82.294 163.703 82.3883 163.634C82.4088 163.619 82.4286 163.603 82.4503 163.587C84.5118 162.015 86.1731 159.978 87.2991 157.643L87.3326 157.573C87.3785 157.476 87.4213 157.378 87.4647 157.28C87.5082 157.183 87.5591 157.076 87.6031 156.97L87.6329 156.899C88.6317 154.507 89.0524 151.914 88.8607 149.329L88.8545 149.251C88.8458 149.143 88.8334 149.035 88.8223 148.927C88.8111 148.819 88.8012 148.706 88.7881 148.596L88.7782 148.518C88.4471 145.947 87.5141 143.49 86.0551 141.347L86.011 141.285C85.949 141.197 85.887 141.111 85.8249 141.024C85.7629 140.937 85.6946 140.841 85.627 140.751L85.5798 140.689C84.0076 138.628 81.9708 136.966 79.6354 135.84C79.6118 135.829 79.5888 135.817 79.5653 135.806C79.471 135.762 79.3754 135.721 79.2805 135.678C79.175 135.63 79.0708 135.582 78.9641 135.536C78.9405 135.526 78.9163 135.516 78.8921 135.506C76.5006 134.507 73.9072 134.087 71.3227 134.279C71.2948 134.279 71.2668 134.283 71.2389 134.285C71.1347 134.294 71.0311 134.305 70.9287 134.317C70.8263 134.328 70.7035 134.338 70.5912 134.351C70.5633 134.354 70.536 134.358 70.508 134.361C67.9379 134.693 65.4823 135.627 63.3407 137.086L63.2749 137.131C63.1794 137.197 63.0888 137.266 62.9926 137.334C62.9088 137.396 62.8245 137.453 62.7444 137.515C62.7233 137.531 62.7022 137.548 62.6824 137.564C60.6215 139.136 58.9604 141.171 57.8342 143.506L57.7927 143.575Z" stroke="#B7DEFF" stroke-width="0.84" stroke-linecap="round" stroke-linejoin="round"/>
<mask id="mask2_166_14585" style="mask-type:luminance" maskUnits="userSpaceOnUse" x="114" y="282" width="104" height="9">
<path d="M217.999 282.581V290.827L114.819 290.827V282.581L217.999 282.581Z" fill="white"/>
</mask>
<g mask="url(#mask2_166_14585)">
<path d="M107.595 404.815L226.38 286.03" stroke="#B7DEFF" stroke-width="0.63" stroke-miterlimit="10"/>
<path d="M107.595 387.497L226.38 268.712" stroke="#B7DEFF" stroke-width="0.63" stroke-miterlimit="10"/>
<path d="M107.595 370.179L226.38 251.394" stroke="#B7DEFF" stroke-width="0.63" stroke-miterlimit="10"/>
<path d="M107.595 396.156L226.38 277.371" stroke="#B7DEFF" stroke-width="0.63" stroke-miterlimit="10"/>
<path d="M107.595 378.838L226.38 260.053" stroke="#B7DEFF" stroke-width="0.63" stroke-miterlimit="10"/>
<path d="M107.595 361.52L226.38 242.735" stroke="#B7DEFF" stroke-width="0.63" stroke-miterlimit="10"/>
<path d="M107.595 352.861L226.38 234.076" stroke="#B7DEFF" stroke-width="0.63" stroke-miterlimit="10"/>
<path d="M107.595 344.203L226.38 225.418" stroke="#B7DEFF" stroke-width="0.63" stroke-miterlimit="10"/>
<path d="M107.595 335.544L226.38 216.759" stroke="#B7DEFF" stroke-width="0.63" stroke-miterlimit="10"/>
<path d="M107.595 326.884L226.38 208.099" stroke="#B7DEFF" stroke-width="0.63" stroke-miterlimit="10"/>
<path d="M107.595 318.225L226.38 199.44" stroke="#B7DEFF" stroke-width="0.63" stroke-miterlimit="10"/>
<path d="M107.595 309.567L226.38 190.781" stroke="#B7DEFF" stroke-width="0.63" stroke-miterlimit="10"/>
<path d="M107.595 300.908L226.38 182.123" stroke="#B7DEFF" stroke-width="0.63" stroke-miterlimit="10"/>
<path d="M107.595 292.249L226.38 173.464" stroke="#B7DEFF" stroke-width="0.63" stroke-miterlimit="10"/>
<path d="M107.595 400.485L226.38 281.7" stroke="#B7DEFF" stroke-width="0.63" stroke-miterlimit="10"/>
<path d="M107.595 383.168L226.38 264.383" stroke="#B7DEFF" stroke-width="0.63" stroke-miterlimit="10"/>
<path d="M107.595 365.849L226.38 247.064" stroke="#B7DEFF" stroke-width="0.63" stroke-miterlimit="10"/>
<path d="M107.595 348.532L226.38 229.747" stroke="#B7DEFF" stroke-width="0.63" stroke-miterlimit="10"/>
<path d="M107.595 331.214L226.38 212.429" stroke="#B7DEFF" stroke-width="0.63" stroke-miterlimit="10"/>
<path d="M107.595 313.896L226.38 195.111" stroke="#B7DEFF" stroke-width="0.63" stroke-miterlimit="10"/>
<path d="M107.595 409.144L226.38 290.359" stroke="#B7DEFF" stroke-width="0.63" stroke-miterlimit="10"/>
<path d="M107.595 391.827L226.38 273.042" stroke="#B7DEFF" stroke-width="0.63" stroke-miterlimit="10"/>
<path d="M107.595 374.508L226.38 255.723" stroke="#B7DEFF" stroke-width="0.63" stroke-miterlimit="10"/>
<path d="M107.595 357.191L226.38 238.406" stroke="#B7DEFF" stroke-width="0.63" stroke-miterlimit="10"/>
<path d="M107.595 339.873L226.38 221.088" stroke="#B7DEFF" stroke-width="0.63" stroke-miterlimit="10"/>
<path d="M107.595 322.555L226.38 203.77" stroke="#B7DEFF" stroke-width="0.63" stroke-miterlimit="10"/>
<path d="M107.595 305.238L226.38 186.453" stroke="#B7DEFF" stroke-width="0.63" stroke-miterlimit="10"/>
<path d="M107.595 296.579L226.38 177.794" stroke="#B7DEFF" stroke-width="0.63" stroke-miterlimit="10"/>
<path d="M107.595 287.919L226.38 169.134" stroke="#B7DEFF" stroke-width="0.63" stroke-miterlimit="10"/>
<path d="M107.595 283.59L226.38 164.805" stroke="#B7DEFF" stroke-width="0.63" stroke-miterlimit="10"/>
</g>
<path d="M218 290.827V282.58H114.82V290.826" stroke="#B7DEFF" stroke-width="0.63" stroke-miterlimit="10"/>
<mask id="mask3_166_14585" style="mask-type:luminance" maskUnits="userSpaceOnUse" x="-1" y="1" width="15" height="104">
<path d="M13.1543 104.18H-0.30188L-0.30188 0.999901H13.1543L13.1543 104.18Z" fill="white"/>
</mask>
<g mask="url(#mask3_166_14585)">
<path d="M-114.29 -6.22461L4.49488 112.56" stroke="#B7DEFF" stroke-width="0.63" stroke-miterlimit="10"/>
<path d="M-96.9723 -6.22461L21.8127 112.56" stroke="#B7DEFF" stroke-width="0.63" stroke-miterlimit="10"/>
<path d="M-79.6544 -6.22461L39.1306 112.56" stroke="#B7DEFF" stroke-width="0.63" stroke-miterlimit="10"/>
<path d="M-105.631 -6.22461L13.1538 112.56" stroke="#B7DEFF" stroke-width="0.63" stroke-miterlimit="10"/>
<path d="M-88.3134 -6.22461L30.4717 112.56" stroke="#B7DEFF" stroke-width="0.63" stroke-miterlimit="10"/>
<path d="M-70.9955 -6.22461L47.7896 112.56" stroke="#B7DEFF" stroke-width="0.63" stroke-miterlimit="10"/>
<path d="M-62.3372 -6.22461L56.4479 112.56" stroke="#B7DEFF" stroke-width="0.63" stroke-miterlimit="10"/>
<path d="M-53.6782 -6.22461L65.1068 112.56" stroke="#B7DEFF" stroke-width="0.63" stroke-miterlimit="10"/>
<path d="M-45.0193 -6.22461L73.7657 112.56" stroke="#B7DEFF" stroke-width="0.63" stroke-miterlimit="10"/>
<path d="M-36.3604 -6.22461L82.4247 112.56" stroke="#B7DEFF" stroke-width="0.63" stroke-miterlimit="10"/>
<path d="M-27.7014 -6.22461L91.0836 112.56" stroke="#B7DEFF" stroke-width="0.63" stroke-miterlimit="10"/>
<path d="M-19.0425 -6.22461L99.7426 112.56" stroke="#B7DEFF" stroke-width="0.63" stroke-miterlimit="10"/>
<path d="M-10.3835 -6.22461L108.401 112.56" stroke="#B7DEFF" stroke-width="0.63" stroke-miterlimit="10"/>
<path d="M-1.72461 -6.22461L117.06 112.56" stroke="#B7DEFF" stroke-width="0.63" stroke-miterlimit="10"/>
<path d="M-109.961 -6.22461L8.8241 112.56" stroke="#B7DEFF" stroke-width="0.63" stroke-miterlimit="10"/>
<path d="M-92.6431 -6.22461L26.142 112.56" stroke="#B7DEFF" stroke-width="0.63" stroke-miterlimit="10"/>
<path d="M-75.3252 -6.22461L43.4598 112.56" stroke="#B7DEFF" stroke-width="0.63" stroke-miterlimit="10"/>
<path d="M-58.0073 -6.22461L60.7777 112.56" stroke="#B7DEFF" stroke-width="0.63" stroke-miterlimit="10"/>
<path d="M-40.6895 -6.22461L78.0956 112.56" stroke="#B7DEFF" stroke-width="0.63" stroke-miterlimit="10"/>
<path d="M-23.3716 -6.22461L95.4135 112.56" stroke="#B7DEFF" stroke-width="0.63" stroke-miterlimit="10"/>
<path d="M-118.62 -6.22461L0.165164 112.56" stroke="#B7DEFF" stroke-width="0.63" stroke-miterlimit="10"/>
<path d="M-101.302 -6.22461L17.483 112.56" stroke="#B7DEFF" stroke-width="0.63" stroke-miterlimit="10"/>
<path d="M-83.9841 -6.22461L34.8009 112.56" stroke="#B7DEFF" stroke-width="0.63" stroke-miterlimit="10"/>
<path d="M-66.6663 -6.22461L52.1188 112.56" stroke="#B7DEFF" stroke-width="0.63" stroke-miterlimit="10"/>
<path d="M-49.3484 -6.22461L69.4366 112.56" stroke="#B7DEFF" stroke-width="0.63" stroke-miterlimit="10"/>
<path d="M-32.0305 -6.22461L86.7545 112.56" stroke="#B7DEFF" stroke-width="0.63" stroke-miterlimit="10"/>
<path d="M-14.7126 -6.22461L104.072 112.56" stroke="#B7DEFF" stroke-width="0.63" stroke-miterlimit="10"/>
<path d="M-6.05371 -6.22461L112.731 112.56" stroke="#B7DEFF" stroke-width="0.63" stroke-miterlimit="10"/>
<path d="M2.60522 -6.22461L121.39 112.56" stroke="#B7DEFF" stroke-width="0.63" stroke-miterlimit="10"/>
<path d="M6.93433 -6.22461L125.719 112.56" stroke="#B7DEFF" stroke-width="0.63" stroke-miterlimit="10"/>
<path d="M11.2642 -6.22461L130.049 112.56" stroke="#B7DEFF" stroke-width="0.63" stroke-miterlimit="10"/>
</g>
<path d="M-0.302124 104.18H13.1547L13.1547 1.00049L-0.302124 1.00049" stroke="#B7DEFF" stroke-width="0.63" stroke-miterlimit="10"/>
<path d="M75.5019 284.532C75.6043 284.516 75.7066 284.503 75.8121 284.491C75.863 284.486 75.9145 284.481 75.966 284.477C76.0684 284.468 76.1713 284.462 76.2762 284.458H76.3302C76.3693 284.458 76.4084 284.458 76.4474 284.458C76.4865 284.458 76.5256 284.458 76.5653 284.458H76.5877C76.975 284.462 77.3611 284.502 77.7411 284.577L79.4814 282.684L81.9489 284.077L81.2273 286.545C81.3067 286.633 81.3841 286.723 81.4594 286.815C81.5243 286.898 81.5864 286.98 81.6455 287.063C81.6759 287.105 81.7076 287.147 81.7355 287.187C81.7975 287.272 81.8509 287.358 81.9055 287.445L81.9216 287.471L81.9334 287.491L81.9954 287.591L82.0538 287.693L82.0655 287.713L82.0804 287.74C82.1557 287.874 82.2258 288.012 82.2908 288.153C82.3843 288.355 82.4671 288.562 82.5389 288.773L85.0486 289.332L85.0759 292.164L82.5774 292.774C82.5095 292.984 82.4308 293.192 82.3417 293.394C82.2792 293.536 82.2118 293.675 82.1394 293.811L82.1245 293.838L82.1133 293.858L82.0569 293.961L82.0488 293.976L81.9979 294.063L81.9868 294.082C81.9551 294.136 81.9247 294.188 81.89 294.24C81.8552 294.293 81.8347 294.327 81.8062 294.37C81.6538 294.598 81.4869 294.815 81.3068 295.022L82.0761 297.475L79.6359 298.915L77.859 297.054C77.6983 297.089 77.5363 297.116 77.3744 297.14C77.3167 297.148 77.2596 297.155 77.2019 297.161C77.102 297.172 77.0027 297.181 76.9028 297.186H76.888C76.8259 297.19 76.7682 297.193 76.7086 297.194H76.6863C76.6528 297.194 76.6193 297.194 76.5858 297.194H76.5684C76.5291 297.194 76.49 297.194 76.4512 297.194H76.4288C76.0415 297.19 75.6555 297.15 75.2754 297.075L73.5351 298.968L71.0676 297.575L71.7892 295.107C71.6048 294.904 71.4338 294.69 71.2773 294.465C71.219 294.381 71.1619 294.295 71.1073 294.208L71.0912 294.182L71.0788 294.16C71.0581 294.128 71.0374 294.095 71.0167 294.062C70.9962 294.028 70.977 293.993 70.9547 293.959L70.9441 293.94L70.9286 293.913C70.8533 293.778 70.7832 293.641 70.7183 293.5C70.6246 293.298 70.5418 293.091 70.4701 292.88L67.9604 292.321L67.9331 289.488L70.4316 288.879C70.499 288.668 70.5777 288.461 70.6674 288.259C70.7294 288.116 70.7969 287.977 70.8697 287.842L70.8846 287.814L70.8945 287.795C70.9137 287.761 70.9323 287.726 70.9522 287.692L70.9602 287.677C70.9764 287.648 70.9931 287.619 71.0105 287.591L71.0223 287.57C71.2204 287.237 71.4489 286.923 71.7048 286.631L70.9354 284.177L73.3756 282.737L75.1526 284.598C75.2711 284.573 75.3871 284.551 75.5019 284.532ZM73.0102 288.946L73.0015 288.964C72.7068 289.519 72.5475 290.137 72.5368 290.766V290.87V290.945V290.965C72.5589 291.593 72.7289 292.208 73.0331 292.758L73.0425 292.775L73.0846 292.847C73.0977 292.869 73.1101 292.891 73.1237 292.909L73.1343 292.926C73.4688 293.458 73.9241 293.905 74.4633 294.229L74.4794 294.238C74.5036 294.252 74.5278 294.266 74.552 294.28L74.6184 294.317L74.6357 294.326C75.1919 294.62 75.8096 294.779 76.4388 294.79H76.458C76.4859 294.79 76.5138 294.79 76.5418 294.79C76.5697 294.79 76.592 294.79 76.6174 294.79H76.6367C77.2655 294.768 77.8804 294.598 78.431 294.294L78.4471 294.285C78.4713 294.271 78.4955 294.257 78.5203 294.242L78.5855 294.204L78.6004 294.194C79.1334 293.859 79.5799 293.404 79.9033 292.864L79.9126 292.848L79.9498 292.782L79.9914 292.709L80.0001 292.692C80.2946 292.136 80.4538 291.518 80.4648 290.889V290.87C80.4648 290.844 80.4648 290.817 80.4648 290.791V290.691C80.4418 290.062 80.2707 289.447 79.9654 288.897L79.956 288.88L79.9163 288.812L79.8748 288.743L79.8648 288.727C79.5304 288.194 79.0749 287.747 78.5352 287.424L78.5191 287.414C78.4968 287.401 78.4738 287.388 78.4515 287.376C78.4291 287.363 78.4043 287.349 78.3795 287.335L78.3627 287.326C77.8067 287.032 77.1889 286.872 76.5597 286.862H76.5405C76.5151 286.862 76.4896 286.862 76.4642 286.862C76.4388 286.862 76.4084 286.862 76.3804 286.862H76.3618C75.733 286.885 75.1184 287.056 74.5681 287.361L74.5507 287.371C74.529 287.383 74.5073 287.396 74.4887 287.409C74.4701 287.422 74.4403 287.437 74.4167 287.452L74.3994 287.462C73.8666 287.796 73.4202 288.251 73.0964 288.79L73.0865 288.807C73.0716 288.832 73.058 288.857 73.0443 288.882L73.0102 288.946Z" fill="#B7DEFF"/>
<path d="M27.6017 200.58C9.58394 218.598 -19.6286 218.598 -37.6464 200.58C-55.6642 182.562 -55.6642 153.35 -37.6464 135.332C-19.6286 117.314 9.58395 117.314 27.6017 135.332C45.6195 153.35 45.6195 182.562 27.6017 200.58Z" stroke="#B7DEFF" stroke-width="0.42" stroke-miterlimit="10"/>
<path d="M148.522 256.844C148.522 278.34 131.096 295.765 109.601 295.765C88.106 295.765 70.6808 278.34 70.6808 256.844C70.6808 235.349 88.106 217.924 109.601 217.924C131.096 217.924 148.522 235.349 148.522 256.844Z" stroke="#B7DEFF" stroke-width="0.21" stroke-miterlimit="10"/>
<path d="M58.4665 231.446C23.4026 266.509 -33.4473 266.509 -68.5112 231.446C-103.575 196.382 -103.575 139.532 -68.5112 104.468C-33.4473 69.4039 23.4026 69.4039 58.4665 104.468C93.5304 139.532 93.5304 196.382 58.4665 231.446Z" stroke="#B7DEFF" stroke-width="0.21" stroke-miterlimit="10"/>
<path d="M114.989 290.339C96.4911 293.315 79.083 280.731 76.1072 262.233C73.1313 243.735 85.7147 226.327 104.213 223.351C122.711 220.375 140.119 232.958 143.095 251.457C146.071 269.955 133.488 287.363 114.989 290.339Z" stroke="#B7DEFF" stroke-width="1.679" stroke-miterlimit="10"/>
<path d="M-0.299927 104.182H45.0724L45.0724 50.7571L-0.299927 50.7571" stroke="#B7DEFF" stroke-width="0.63" stroke-miterlimit="10"/>
<path d="M93.8833 290.827L93.8833 178.618L-0.299927 178.618" stroke="#B7DEFF" stroke-width="0.42" stroke-miterlimit="10"/>
<path d="M182.822 290.827L182.822 209.225L-0.298096 209.225" stroke="#B7DEFF" stroke-width="0.42" stroke-miterlimit="10"/>
</svg>
