<svg width="235" height="289" viewBox="0 0 235 289" fill="none" xmlns="http://www.w3.org/2000/svg">
<path d="M135.896 100.274C135.823 100.265 135.749 100.256 135.675 100.246C135.632 100.241 135.588 100.234 135.545 100.228C135.501 100.221 135.459 100.215 135.416 100.208C135.343 100.197 135.269 100.184 135.196 100.172L135.157 100.165C135.137 100.161 135.117 100.158 135.095 100.154C134.912 100.121 134.731 100.082 134.552 100.039C134.486 100.024 134.42 100.007 134.354 99.9895L132.476 102.886L130.335 101.964L131.147 98.6096C130.917 98.4644 130.691 98.311 130.47 98.1492L130.439 98.1256C130.377 98.081 130.32 98.0369 130.261 97.991C130.226 97.9649 130.192 97.9376 130.158 97.9103C130.124 97.883 130.089 97.8564 130.055 97.8291C129.997 97.7819 129.94 97.7341 129.883 97.6864L129.854 97.6615C129.644 97.4845 129.442 97.3007 129.248 97.11L126.174 98.6791L124.78 96.8103L127.161 94.3111C127.033 94.0704 126.915 93.8247 126.805 93.5741L126.789 93.5381C126.759 93.4698 126.727 93.4016 126.702 93.3327L126.653 93.2086L126.605 93.0845C126.578 93.015 126.553 92.9449 126.527 92.8755L126.514 92.8382C126.421 92.5801 126.338 92.3202 126.266 92.0583L122.818 91.8796L122.546 89.5648L125.857 88.5907C125.867 88.3181 125.888 88.0457 125.919 87.7735L125.924 87.7357L125.945 87.557L125.951 87.5136L125.97 87.3833L125.989 87.2542C126 87.181 126.013 87.1078 126.026 87.0346L126.032 87.0036V86.9955C126.081 86.7263 126.139 86.4597 126.207 86.1958L123.311 84.3183L124.232 82.1765L127.587 82.9887C127.623 82.9316 127.659 82.8739 127.696 82.8175C127.798 82.6628 127.903 82.5103 128.012 82.3602L128.047 82.3118L128.052 82.3056L128.071 82.2808C128.115 82.2204 128.16 82.1608 128.205 82.1021L128.286 81.9997C128.313 81.9656 128.34 81.9308 128.368 81.8967L128.395 81.8626C128.433 81.8161 128.471 81.7701 128.51 81.7248L128.535 81.6945C128.712 81.4852 128.896 81.2835 129.086 81.0895L127.518 78.0152L129.386 76.6217L131.886 79.0024C132.126 78.875 132.372 78.7562 132.623 78.6462L132.66 78.6301C132.727 78.6009 132.795 78.5718 132.864 78.5438C132.904 78.5265 132.946 78.511 132.988 78.4942L133.112 78.4471C133.182 78.4198 133.252 78.3937 133.323 78.3682L133.358 78.3552C133.616 78.263 133.876 78.1802 134.138 78.107L134.317 74.6599L136.632 74.3875L137.606 77.6988C137.878 77.7087 138.15 77.7294 138.423 77.7608L138.461 77.7658C138.535 77.7739 138.609 77.7826 138.683 77.7925L138.813 77.8111C138.856 77.8179 138.899 77.8235 138.942 77.8303C139.016 77.8421 139.089 77.8545 139.162 77.8675L139.201 77.8744C139.47 77.9236 139.737 77.9819 140 78.0494L141.878 75.1538L144.02 76.0751L143.207 79.4298C143.438 79.5744 143.664 79.7276 143.884 79.8902L143.916 79.9138C143.978 79.9578 144.035 80.0025 144.094 80.0478C144.129 80.0745 144.163 80.1018 144.197 80.1284L144.3 80.2103C144.358 80.2569 144.415 80.3047 144.472 80.3524L144.502 80.3772C144.711 80.5547 144.912 80.7386 145.107 80.9288L148.181 79.3603L149.575 81.2291L147.194 83.7282C147.321 83.9686 147.44 84.2143 147.55 84.4654L147.565 84.5001C147.595 84.569 147.627 84.6378 147.653 84.7073C147.67 84.747 147.685 84.7874 147.701 84.8277C147.717 84.868 147.734 84.909 147.75 84.9518C147.776 85.0213 147.802 85.0908 147.827 85.1603L147.841 85.1981C147.934 85.4556 148.016 85.7162 148.09 85.978L151.536 86.1567L151.809 88.4715L148.498 89.4456C148.488 89.7174 148.467 89.9895 148.436 90.2621L148.432 90.3012C148.425 90.3633 148.418 90.4197 148.41 90.4793L148.404 90.5221C148.399 90.5662 148.392 90.609 148.386 90.653L148.366 90.7815C148.355 90.8553 148.342 90.9285 148.329 91.0017L148.324 91.0327V91.0402C148.275 91.3099 148.216 91.5765 148.149 91.8399L151.045 93.718L150.123 95.8591L146.769 95.047C146.624 95.2778 146.47 95.5036 146.308 95.7245L146.303 95.7307L146.285 95.7543C146.241 95.8164 146.196 95.8747 146.15 95.9342C146.124 95.9684 146.097 96.0018 146.071 96.0353C146.044 96.0689 146.016 96.1055 145.988 96.1396L145.961 96.1737L145.847 96.3108L145.821 96.3419C145.644 96.5507 145.46 96.7524 145.269 96.9468L146.838 100.021L144.969 101.415L142.47 99.034C142.23 99.1613 141.984 99.2801 141.733 99.3901L141.697 99.4056C141.629 99.4348 141.56 99.4677 141.491 99.4925L141.479 99.4981L141.468 99.503C141.435 99.5161 141.406 99.5284 141.37 99.5415C141.335 99.5545 141.289 99.5737 141.246 99.5893C141.176 99.6159 141.107 99.642 141.036 99.6674L141 99.6811C140.742 99.7733 140.482 99.856 140.22 99.9292L140.041 103.376L137.726 103.648L136.752 100.338C136.481 100.327 136.208 100.306 135.936 100.275L135.896 100.274ZM145.596 92.8469C145.623 92.788 145.648 92.7284 145.673 92.6688C145.698 92.6093 145.72 92.5609 145.743 92.5057L145.76 92.4635C146.303 91.1016 146.517 89.6309 146.385 88.1706L146.381 88.1253C146.375 88.0633 146.366 87.9963 146.359 87.9318C146.351 87.8672 146.346 87.8145 146.338 87.7568L146.331 87.7115C146.121 86.2597 145.571 84.878 144.726 83.6786L144.7 83.642C144.662 83.5893 144.623 83.5378 144.584 83.4863C144.545 83.4348 144.515 83.3907 144.478 83.3442L144.45 83.3082C143.542 82.1567 142.375 81.2357 141.045 80.6199L141.004 80.6012C140.942 80.5739 140.883 80.5491 140.823 80.5231C140.763 80.497 140.716 80.4765 140.662 80.4542L140.621 80.4374C139.258 79.8938 137.786 79.6795 136.325 79.812L136.283 79.8157C136.221 79.8226 136.154 79.8306 136.088 79.8387C136.023 79.8468 135.971 79.8517 135.912 79.8598L135.87 79.8654C134.418 80.076 133.036 80.6263 131.837 81.4717L131.801 81.4972C131.753 81.5319 131.706 81.5679 131.659 81.6032C131.612 81.6386 131.554 81.6802 131.503 81.7199L131.468 81.7472C130.316 82.6552 129.395 83.8222 128.779 85.1534L128.761 85.1937C128.736 85.2489 128.713 85.3048 128.689 85.3607C128.665 85.4165 128.638 85.4773 128.613 85.5362L128.597 85.5765C128.054 86.9387 127.839 88.41 127.972 89.8706L127.976 89.9153C127.982 89.9774 127.99 90.0394 127.997 90.0977C128.005 90.1561 128.011 90.2218 128.02 90.2839L128.026 90.3279C128.236 91.7799 128.786 93.1617 129.631 94.3608L129.657 94.3968C129.692 94.4464 129.729 94.4942 129.766 94.5426C129.802 94.591 129.841 94.645 129.88 94.6952L129.907 94.7306C130.815 95.8821 131.982 96.8031 133.313 97.419L133.354 97.4376C133.407 97.4618 133.461 97.4841 133.515 97.5077C133.569 97.5313 133.635 97.5604 133.696 97.5846L133.737 97.6014C135.099 98.1445 136.569 98.3587 138.029 98.2268L138.077 98.2224C138.135 98.2162 138.194 98.2088 138.253 98.2019C138.312 98.1951 138.38 98.1877 138.444 98.179L138.49 98.1722C139.941 97.9619 141.321 97.4122 142.519 96.5677L142.556 96.5417C142.61 96.5032 142.661 96.4635 142.714 96.4244C142.767 96.3853 142.808 96.3555 142.854 96.3195L142.89 96.2916C144.041 95.3838 144.962 94.2169 145.578 92.886L145.596 92.8469Z" stroke="#B7DEFF" stroke-width="0.42" stroke-miterlimit="10"/>
<path d="M35.8399 38.8666C35.7661 38.8579 35.6923 38.8492 35.6191 38.8393C35.575 38.8337 35.5316 38.8269 35.4882 38.8207C35.4447 38.8145 35.4025 38.8083 35.3597 38.8014C35.2859 38.7903 35.2127 38.7778 35.1395 38.7648L35.101 38.758C35.0811 38.7543 35.0613 38.7511 35.039 38.7474C34.8566 38.7135 34.6754 38.6751 34.4955 38.632C34.4297 38.6165 34.3639 38.5998 34.2988 38.583L32.4207 41.4786L30.2795 40.5573L31.0911 37.2025C30.8607 37.0582 30.6351 36.9047 30.4142 36.7422L30.3832 36.7186C30.3211 36.6746 30.264 36.6299 30.2051 36.5839C30.1703 36.5579 30.1362 36.5306 30.1021 36.5039L29.9991 36.422C29.9408 36.3749 29.8837 36.3271 29.8266 36.2793L29.7975 36.2551C29.5882 36.0777 29.3863 35.8936 29.1919 35.7029L26.1176 37.272L24.7241 35.4032L27.1047 32.9041C26.9773 32.6638 26.8586 32.4181 26.7486 32.167L26.7331 32.131C26.7039 32.0628 26.671 31.9945 26.6462 31.9257L26.5972 31.8016L26.5494 31.6775C26.5221 31.608 26.4967 31.5379 26.4713 31.4684L26.4576 31.4312C26.3652 31.1737 26.2826 30.9131 26.2094 30.6513L22.7629 30.4726L22.4899 28.1577L25.8012 27.1836C25.8115 26.9119 25.8322 26.6395 25.8632 26.3665L25.8676 26.3286C25.8744 26.2666 25.8806 26.2095 25.8887 26.1499L25.8949 26.1072C25.9005 26.0631 25.9073 26.0197 25.9135 25.9762L25.9321 25.8472C25.9437 25.774 25.9561 25.7008 25.9693 25.6275L25.9749 25.5965V25.5891C26.0241 25.3194 26.0825 25.0528 26.1499 24.7893L23.2543 22.9112L24.1756 20.7695L27.5304 21.5816C27.5663 21.5246 27.6023 21.4675 27.6396 21.4104C27.7405 21.2561 27.8456 21.1037 27.9548 20.9531L27.9907 20.9047L27.9957 20.8985L28.0143 20.8737C28.0584 20.8117 28.103 20.754 28.1489 20.695C28.175 20.6609 28.2023 20.6268 28.229 20.5927L28.3109 20.4897L28.3382 20.4555C28.376 20.409 28.4145 20.3637 28.453 20.3178L28.4784 20.2874C28.6554 20.0785 28.8393 19.8769 29.03 19.6825L27.4609 16.6082L29.3321 15.2171L31.8313 17.5978C32.0712 17.4704 32.3169 17.3517 32.5684 17.2416L32.6056 17.2255C32.6732 17.1963 32.7415 17.1672 32.8097 17.1393L32.9338 17.0896C32.9735 17.0741 33.0138 17.058 33.0542 17.0425C33.1243 17.0152 33.1944 16.9891 33.2645 16.9637L33.2999 16.9507C33.558 16.8584 33.8181 16.7757 34.0804 16.7025L34.2591 13.2553L36.5739 12.9829L37.548 16.2942C37.8198 16.305 38.0922 16.3257 38.3652 16.3563L38.403 16.3612C38.4768 16.3693 38.5507 16.3786 38.6245 16.3885C38.6688 16.3943 38.7122 16.4005 38.7548 16.4072C38.7982 16.4134 38.841 16.4189 38.8845 16.4258C38.9577 16.4378 39.0309 16.4502 39.1041 16.463L39.1426 16.4698C39.4123 16.5186 39.6788 16.577 39.9423 16.6448L41.8204 13.7492L43.9622 14.6705L43.15 18.0253C43.3804 18.17 43.606 18.3235 43.8269 18.4856L43.8586 18.5092C43.9206 18.5533 43.9777 18.5979 44.0366 18.6432L44.139 18.7239L44.242 18.8058C44.2997 18.8529 44.3574 18.9001 44.4139 18.9479L44.4436 18.9727C44.6533 19.1501 44.8552 19.334 45.0492 19.5243L48.1235 17.9558L49.517 19.8246L47.1364 22.3237C47.2604 22.5638 47.3845 22.8101 47.4925 23.0608L47.5074 23.0955C47.5372 23.1644 47.5694 23.2332 47.5955 23.3027L47.6439 23.4231L47.6923 23.5472C47.7189 23.6167 47.7444 23.6862 47.7698 23.7557L47.7835 23.7935C47.8757 24.0516 47.9584 24.3116 48.0316 24.5734L51.4788 24.7521L51.7512 27.067L48.4399 28.0411C48.4296 28.3128 48.4089 28.585 48.3779 28.8576L48.3729 28.8966C48.3661 28.9556 48.3599 29.0152 48.3518 29.0747L48.3456 29.1175C48.34 29.1616 48.3338 29.205 48.327 29.2484L48.3084 29.3769C48.2966 29.4507 48.2842 29.5239 48.2712 29.5971L48.2656 29.6282V29.6356C48.2163 29.9053 48.158 30.1719 48.0906 30.4354L50.9862 32.3134L50.0642 34.4509L46.7089 33.6443C46.5641 33.8747 46.4104 34.1003 46.2479 34.3212L46.2442 34.3274L46.2256 34.351C46.1815 34.413 46.1362 34.4714 46.0903 34.5309C46.0642 34.565 46.0376 34.5985 46.0109 34.632C45.9842 34.6655 45.9563 34.7021 45.9277 34.7369L45.9011 34.7704C45.8638 34.8163 45.8254 34.8616 45.7869 34.9075L45.7608 34.9385C45.5838 35.1478 45.4002 35.3495 45.2099 35.5435L46.7784 38.6178L44.9096 40.0113L42.4104 37.6306C42.1703 37.7578 41.924 37.8788 41.6734 37.9868L41.6374 38.0023C41.5691 38.0314 41.5009 38.0643 41.432 38.0892L41.4196 38.0947L41.4078 38.0997C41.3755 38.1127 41.3427 38.1251 41.3104 38.1382C41.2781 38.1512 41.2291 38.1704 41.1863 38.1859C41.1168 38.2132 41.0467 38.2387 40.9772 38.2641L40.94 38.2778C40.6825 38.3702 40.4219 38.4527 40.1601 38.5259L39.9814 41.9725L37.6665 42.2455L36.6924 38.9342C36.4207 38.9239 36.1485 38.9032 35.8759 38.8721L35.8399 38.8666ZM45.5393 31.4398C45.566 31.3809 45.5908 31.3214 45.6163 31.2624C45.6417 31.2035 45.664 31.1538 45.6864 31.0986L45.7031 31.0564C46.2462 29.6945 46.4605 28.2238 46.3285 26.7636L46.3242 26.7183C46.318 26.6562 46.3093 26.5892 46.3019 26.5247C46.2944 26.4602 46.2888 26.4081 46.2808 26.3497L46.2746 26.3044C46.0645 24.8525 45.5145 23.4708 44.6695 22.2716L44.6434 22.2349C44.6056 22.1822 44.5665 22.1313 44.528 22.0792C44.4895 22.0271 44.4579 21.9843 44.4213 21.9371L44.3934 21.9012C43.4854 20.7497 42.3186 19.8286 40.9878 19.2128L40.9474 19.1942C40.8854 19.1675 40.8265 19.1421 40.7663 19.116C40.7061 19.0899 40.6596 19.0694 40.6062 19.0471L40.564 19.0304C39.2014 18.487 37.7297 18.2727 36.2687 18.405L36.2271 18.4087C36.1613 18.4155 36.0968 18.4236 36.0317 18.4317C35.9665 18.4397 35.9138 18.4447 35.8549 18.4528L35.8133 18.4583C34.3614 18.6692 32.9797 19.2195 31.7804 20.0646L31.745 20.0901C31.6966 20.1248 31.6501 20.1608 31.6023 20.1962C31.5546 20.2316 31.4975 20.2731 31.446 20.3128L31.4119 20.3401C30.2597 21.2481 29.3383 22.4154 28.7228 23.747L28.7042 23.7867C28.6794 23.8419 28.6558 23.8977 28.6323 23.9536C28.6087 24.0094 28.5808 24.0702 28.5566 24.1292L28.5404 24.1695C27.9973 25.532 27.7831 27.0034 27.915 28.4642L27.9194 28.5083C27.9256 28.5703 27.933 28.6324 27.9405 28.6907C27.9479 28.749 27.9541 28.8148 27.9628 28.8768L27.969 28.9208C28.1793 30.3728 28.7295 31.7546 29.5747 32.9537L29.6002 32.9897C29.6355 33.0394 29.6721 33.0871 29.7087 33.1355C29.7453 33.1839 29.7838 33.2379 29.8229 33.2881L29.8502 33.3235C30.7585 34.4752 31.9257 35.3963 33.257 36.0119L33.2968 36.0305C33.3507 36.0547 33.4053 36.0777 33.4593 36.1006C33.5133 36.1236 33.5784 36.1534 33.6392 36.1782L33.6802 36.1943C35.0421 36.7374 36.5128 36.9517 37.973 36.8197L38.0202 36.8154C38.0822 36.8098 38.1375 36.8017 38.1964 36.7949C38.2553 36.7881 38.3205 36.7806 38.3869 36.772L38.434 36.7651C39.8844 36.5548 41.2647 36.0051 42.4626 35.1606L42.4998 35.1346C42.5531 35.0967 42.6053 35.0564 42.6574 35.0173C42.7095 34.9783 42.7517 34.9485 42.7976 34.9125L42.833 34.8845C43.9848 33.9768 44.9061 32.8099 45.522 31.479L45.5393 31.4398Z" stroke="#B7DEFF" stroke-width="0.42" stroke-miterlimit="10"/>
<path d="M112 16.8705C112.101 16.8817 112.202 16.8935 112.302 16.9071C112.364 16.9152 112.421 16.9239 112.479 16.9326C112.538 16.9412 112.597 16.9493 112.655 16.9586C112.756 16.9741 112.855 16.9915 112.955 17.0095C112.973 17.0126 112.99 17.0151 113.008 17.0182C113.026 17.0213 113.062 17.0275 113.089 17.0325C113.337 17.0788 113.584 17.1311 113.829 17.1894C113.919 17.2111 114.008 17.2341 114.098 17.2571L116.657 13.311L119.573 14.5668L118.466 19.1382C118.78 19.3351 119.088 19.5442 119.389 19.7655L119.432 19.7978C119.513 19.8598 119.594 19.9181 119.674 19.9802L119.814 20.09C119.861 20.1272 119.908 20.1638 119.955 20.2017C120.034 20.2637 120.112 20.3301 120.189 20.3959L120.229 20.4294C120.515 20.6705 120.79 20.921 121.054 21.1807L125.244 19.0433L127.143 21.5871L123.899 24.9927C124.072 25.3203 124.233 25.6551 124.384 25.9972L124.405 26.0462C124.445 26.1393 124.485 26.2324 124.524 26.3267L124.591 26.4917C124.612 26.5469 124.635 26.6022 124.653 26.658C124.689 26.7523 124.725 26.8478 124.759 26.9428L124.777 26.993C124.901 27.3442 125.014 27.6985 125.115 28.0558L129.813 28.2991L130.185 31.454L125.673 32.7818C125.659 33.154 125.632 33.5249 125.591 33.8942L125.584 33.9463C125.575 34.0276 125.566 34.1089 125.556 34.1895L125.548 34.2485C125.54 34.3105 125.53 34.367 125.522 34.426L125.496 34.6022C125.48 34.702 125.463 34.8019 125.446 34.9018L125.439 34.944V34.9546C125.372 35.3219 125.293 35.685 125.2 36.044L129.146 38.6034L127.891 41.5195L123.319 40.4132C123.27 40.4908 123.221 40.569 123.17 40.6465C123.033 40.8566 122.889 41.0634 122.741 41.267L122.692 41.3327L122.686 41.3414L122.66 41.3755C122.599 41.4583 122.538 41.5393 122.477 41.6187L122.367 41.7583L122.255 41.8992L122.219 41.9457C122.167 42.0078 122.114 42.0698 122.062 42.1318L122.028 42.1728C121.787 42.4578 121.536 42.7326 121.276 42.9974L123.414 47.1866L120.87 49.0858L117.465 45.8415C117.137 46.0144 116.802 46.1761 116.46 46.3266L116.409 46.3484C116.317 46.3897 116.224 46.4292 116.131 46.4669C116.076 46.4898 116.02 46.5115 115.964 46.5339C115.908 46.5562 115.855 46.5773 115.8 46.5959C115.705 46.6332 115.609 46.6685 115.513 46.7033C115.497 46.7088 115.481 46.7151 115.464 46.7206C115.113 46.8472 114.759 46.9601 114.401 47.0594L114.158 51.7562L111.003 52.1284L109.676 47.6159C109.303 47.6023 108.932 47.575 108.563 47.534L108.511 47.5278C108.41 47.5161 108.309 47.5043 108.209 47.4906C108.147 47.4826 108.09 47.4739 108.031 47.4652C107.971 47.4565 107.914 47.4484 107.855 47.4391C107.755 47.4236 107.655 47.4062 107.556 47.3882C107.538 47.3851 107.52 47.3827 107.503 47.3796C107.135 47.3125 106.771 47.2329 106.413 47.1407L103.853 51.0867L100.937 49.8309L102.044 45.2595C101.73 45.0626 101.423 44.8535 101.122 44.6322L101.079 44.5999C100.998 44.5379 100.916 44.4796 100.836 44.4176L100.697 44.3077C100.649 44.2705 100.602 44.2339 100.556 44.196C100.477 44.1319 100.399 44.0674 100.321 44.0025L100.281 43.9684C99.9956 43.7268 99.7207 43.4764 99.4564 43.217L95.2665 45.3544L93.368 42.8106L96.6086 39.4143C96.4357 39.0867 96.2739 38.7517 96.1234 38.4092L96.1029 38.362C96.0626 38.2684 96.0222 38.1759 95.9831 38.0803L95.9174 37.9159L95.8516 37.749C95.815 37.6547 95.7803 37.5629 95.7455 37.4648L95.7269 37.414C95.6028 37.062 95.4901 36.7077 95.3888 36.3512L90.6914 36.108L90.3191 32.953L94.8316 31.6252C94.8453 31.253 94.8726 30.8822 94.9135 30.5128L94.9197 30.4601C94.929 30.3788 94.9377 30.2981 94.9482 30.2175L94.9569 30.1554L94.9824 29.9773L95.0084 29.8018C95.0239 29.7019 95.0413 29.602 95.0587 29.5021L95.0661 29.4599V29.4494C95.1323 29.0821 95.2117 28.7189 95.3044 28.3599L91.3584 25.8005L92.6141 22.8844L97.1856 23.9907C97.3829 23.6768 97.5922 23.3692 97.8134 23.0681L97.819 23.06L97.8439 23.0272C97.9059 22.9453 97.9679 22.8633 98.03 22.7827C98.066 22.7362 98.1026 22.6909 98.1386 22.645L98.2515 22.5023L98.2881 22.4557C98.3396 22.3937 98.3917 22.3316 98.4438 22.2696L98.4792 22.2274C98.7207 21.942 98.9712 21.6671 99.2305 21.4028L97.0925 17.2136L99.6394 15.3144L103.045 18.5587C103.373 18.385 103.707 18.2233 104.05 18.0735C104.066 18.0661 104.082 18.0593 104.099 18.0525C104.192 18.0121 104.285 17.9718 104.378 17.9333L104.396 17.9259L104.411 17.9197C104.455 17.9017 104.5 17.8849 104.544 17.8669L104.71 17.8012C104.804 17.7652 104.9 17.7298 104.995 17.6951L105.045 17.6771C105.397 17.5505 105.751 17.4376 106.108 17.3383L106.351 12.6416L109.506 12.2693L110.833 16.7818C111.206 16.7954 111.577 16.8227 111.946 16.8637C111.965 16.8662 111.983 16.868 112 16.8705ZM98.7851 26.9906C98.7491 27.0706 98.715 27.1519 98.6808 27.2325C98.6467 27.3132 98.6188 27.3802 98.5853 27.4552L98.5617 27.513C97.8216 29.3689 97.5297 31.3732 97.7098 33.3631L97.7154 33.4252C97.7241 33.5133 97.7353 33.6014 97.7464 33.6895C97.7576 33.7776 97.7638 33.8483 97.7744 33.9277L97.7831 33.9898C98.0701 35.9672 98.8194 37.849 99.9701 39.4825L100.006 39.5328C100.058 39.6048 100.111 39.6743 100.164 39.7444C100.216 39.8145 100.259 39.8746 100.308 39.9386L100.347 39.9876C101.584 41.5557 103.174 42.8098 104.987 43.6482L105.043 43.6736C105.125 43.7109 105.207 43.745 105.291 43.7803C105.375 43.8157 105.436 43.8424 105.51 43.874L105.567 43.897C107.424 44.6376 109.429 44.9296 111.42 44.7495L111.477 44.7439C111.566 44.7352 111.654 44.7234 111.743 44.7129C111.832 44.7023 111.904 44.6955 111.984 44.6844L112.04 44.6763C114.02 44.3896 115.903 43.6396 117.538 42.4874L117.586 42.4532C117.652 42.4061 117.716 42.357 117.781 42.3087C117.845 42.2603 117.923 42.2038 117.994 42.1492L118.041 42.1126C119.61 40.8751 120.866 39.2846 121.705 37.4705L121.73 37.4158C121.764 37.3408 121.795 37.2645 121.828 37.1888C121.86 37.1131 121.898 37.0293 121.931 36.9493L121.953 36.8941C122.693 35.0376 122.985 33.0326 122.805 31.042L122.799 30.98C122.791 30.8969 122.781 30.8143 122.771 30.7318C122.761 30.6493 122.752 30.5612 122.74 30.4762L122.732 30.4142C122.444 28.4377 121.693 26.557 120.542 24.9251L120.507 24.8761C120.459 24.8084 120.409 24.7433 120.359 24.6769C120.309 24.6105 120.257 24.5373 120.203 24.4691L120.166 24.4213C118.928 22.8519 117.338 21.5967 115.524 20.7576L115.469 20.7321C115.396 20.6992 115.322 20.6701 115.249 20.6366C115.175 20.6031 115.085 20.5652 115 20.5317C114.982 20.5237 114.963 20.5169 114.945 20.5094C113.089 19.7691 111.085 19.477 109.095 19.6569L109.033 19.6631C108.952 19.6706 108.873 19.6811 108.792 19.691C108.712 19.701 108.619 19.7103 108.533 19.7221L108.471 19.7308C106.494 20.0181 104.613 20.7674 102.98 21.9178L102.93 21.9532C102.858 22.0053 102.787 22.0593 102.715 22.1132C102.643 22.1672 102.587 22.2069 102.524 22.2559C102.508 22.2683 102.492 22.2814 102.475 22.2938C100.907 23.5315 99.6532 25.1215 98.8148 26.9347L98.7851 26.9906Z" fill="#FFB635" fill-opacity="0.69"/>
<path d="M187.812 212.468L187.797 212.495M176.94 212.503L176.956 212.53M176.923 206.258L176.938 206.231M187.794 206.223L187.778 206.197M182.747 203.106L182.795 203.11M186.174 192.908C186.282 192.933 186.389 192.958 186.496 192.986C186.558 193.002 186.62 193.019 186.687 193.035C186.753 193.052 186.811 193.068 186.873 193.086C186.98 193.115 187.087 193.146 187.193 193.178C187.212 193.184 187.23 193.189 187.249 193.195C187.277 193.203 187.307 193.211 187.335 193.22C187.697 193.331 188.053 193.455 188.404 193.592L191.678 189.621L194.694 191.35L192.922 196.183C193.239 196.436 193.547 196.701 193.847 196.979L193.89 197.02C193.971 197.095 194.051 197.172 194.131 197.249C194.177 197.294 194.223 197.341 194.269 197.386C194.315 197.431 194.362 197.478 194.408 197.524C194.486 197.604 194.563 197.684 194.639 197.765L194.679 197.806C194.959 198.104 195.226 198.411 195.481 198.726L200.303 196.923L202.052 199.923L198.101 203.222C198.188 203.444 198.271 203.668 198.349 203.894C198.404 204.053 198.455 204.214 198.504 204.375L198.522 204.432C198.554 204.538 198.584 204.643 198.616 204.75L198.667 204.936C198.684 204.998 198.702 205.06 198.718 205.122C198.746 205.23 198.772 205.339 198.798 205.447L198.811 205.502C198.905 205.9 198.983 206.3 199.047 206.701L204.123 207.554L204.134 211.029L199.063 211.91C199.001 212.311 198.925 212.711 198.834 213.11L198.821 213.166C198.801 213.253 198.782 213.34 198.759 213.427L198.743 213.489C198.727 213.551 198.71 213.613 198.693 213.679L198.643 213.865C198.613 213.972 198.581 214.078 198.551 214.184L198.537 214.23V214.24C198.419 214.632 198.288 215.017 198.142 215.395L202.113 218.67L200.384 221.686L195.552 219.914C195.298 220.23 195.032 220.538 194.754 220.839L194.747 220.847L194.714 220.881C194.638 220.962 194.563 221.043 194.485 221.122C194.44 221.169 194.394 221.215 194.349 221.26C194.303 221.306 194.256 221.354 194.21 221.399C194.194 221.415 194.179 221.43 194.164 221.445C194.102 221.507 194.035 221.569 193.969 221.631C193.956 221.645 193.942 221.658 193.928 221.671C193.63 221.951 193.323 222.22 193.008 222.478L194.808 227.302L191.803 229.05L188.504 225.098C188.126 225.246 187.742 225.38 187.351 225.501L187.295 225.517C187.189 225.55 187.083 225.581 186.976 225.612C186.914 225.63 186.852 225.646 186.787 225.664C186.737 225.677 186.687 225.692 186.637 225.705L186.619 225.709L186.599 225.714C186.492 225.742 186.384 225.768 186.276 225.794C186.257 225.798 186.238 225.803 186.219 225.808C185.821 225.901 185.422 225.979 185.021 226.043L184.172 231.12L180.698 231.131L179.817 226.06C179.416 225.998 179.016 225.922 178.617 225.832C178.597 225.828 178.579 225.823 178.559 225.818C178.452 225.793 178.344 225.768 178.237 225.741C178.175 225.725 178.109 225.707 178.045 225.69C177.981 225.674 177.921 225.658 177.859 225.641C177.752 225.611 177.644 225.579 177.538 225.548C177.52 225.542 177.502 225.537 177.484 225.532C177.092 225.414 176.707 225.282 176.328 225.136L173.054 229.107L170.038 227.379L171.81 222.546C171.493 222.292 171.185 222.027 170.885 221.749L170.844 221.71C170.762 221.634 170.681 221.558 170.601 221.479C170.555 221.435 170.51 221.39 170.465 221.344C170.419 221.299 170.37 221.251 170.324 221.204C170.246 221.125 170.17 221.046 170.095 220.966L170.053 220.922C169.773 220.624 169.506 220.317 169.25 220.002L164.429 221.805L162.681 218.8L166.632 215.501C166.484 215.123 166.35 214.739 166.229 214.348L166.213 214.294C166.181 214.187 166.151 214.081 166.118 213.973L166.068 213.787L166.016 213.597C165.989 213.489 165.963 213.382 165.937 213.275L165.922 213.216C165.829 212.819 165.751 212.419 165.687 212.019L160.61 211.17L160.599 207.695L165.671 206.813C165.732 206.413 165.808 206.013 165.899 205.614L165.912 205.557C165.932 205.47 165.951 205.383 165.974 205.297L165.991 205.235C166.006 205.173 166.023 205.111 166.04 205.045L166.09 204.859C166.12 204.752 166.151 204.646 166.183 204.54C166.187 204.525 166.191 204.509 166.196 204.494V204.483C166.314 204.092 166.446 203.707 166.591 203.328L162.62 200.054L164.349 197.038L169.184 198.806C169.438 198.489 169.704 198.181 169.982 197.88L169.989 197.872C169.999 197.862 170.01 197.851 170.02 197.84C170.096 197.757 170.173 197.676 170.251 197.597C170.295 197.551 170.341 197.506 170.386 197.46C170.43 197.415 170.479 197.366 170.527 197.319C170.542 197.305 170.557 197.289 170.572 197.274C170.634 197.211 170.7 197.149 170.764 197.091L170.808 197.049C171.106 196.769 171.413 196.502 171.728 196.246L169.922 191.423L172.928 189.675L176.227 193.627C176.605 193.479 176.989 193.345 177.38 193.224L177.434 193.207C177.541 193.175 177.648 193.143 177.755 193.113C177.817 193.095 177.879 193.078 177.941 193.061C178.003 193.045 178.065 193.027 178.131 193.01C178.237 192.983 178.344 192.956 178.452 192.931C178.471 192.926 178.491 192.921 178.514 192.917C178.543 192.91 178.572 192.902 178.6 192.896C178.973 192.811 179.34 192.741 179.711 192.681L180.56 187.605L184.035 187.593L184.916 192.665C185.317 192.726 185.717 192.802 186.116 192.893C186.135 192.899 186.154 192.904 186.174 192.908ZM196.153 209.66V209.594C196.153 209.504 196.153 209.414 196.153 209.325C196.153 209.236 196.153 209.135 196.153 209.039C196.153 209.017 196.153 208.995 196.153 208.973C196.092 206.95 195.59 204.965 194.682 203.157L188.157 206.952C188.793 208.482 188.797 210.202 188.17 211.735L194.718 215.488C195.615 213.674 196.104 211.687 196.153 209.664V209.66ZM177.845 209.375C177.848 210.269 178.116 211.142 178.615 211.884C179.114 212.626 179.822 213.203 180.649 213.543C181.476 213.882 182.385 213.969 183.261 213.792C184.138 213.615 184.942 213.182 185.572 212.548C186.203 211.913 186.631 211.107 186.802 210.229C186.974 209.352 186.882 208.443 186.537 207.618C186.192 206.793 185.611 206.089 184.866 205.594C184.121 205.1 183.246 204.838 182.352 204.84C181.153 204.846 180.005 205.326 179.16 206.177C178.315 207.027 177.842 208.178 177.845 209.377V209.375ZM189.001 221.452L189.057 221.421C189.135 221.378 189.211 221.332 189.287 221.288C189.363 221.244 189.455 221.192 189.538 221.141L189.594 221.107C191.315 220.043 192.783 218.615 193.895 216.925L187.345 213.171C186.34 214.487 184.854 215.351 183.213 215.574L183.237 223.124C185.257 222.993 187.224 222.423 189.001 221.452ZM182.832 215.613C182.817 215.613 182.801 215.613 182.785 215.617L182.832 215.613ZM170.885 216.998C172.008 218.681 173.484 220.099 175.212 221.152L175.269 221.187C175.352 221.236 175.436 221.283 175.517 221.331C175.599 221.379 175.669 221.42 175.747 221.463C175.767 221.473 175.787 221.484 175.809 221.495C177.591 222.453 179.56 223.01 181.579 223.129L181.556 215.579C179.914 215.365 178.424 214.51 177.411 213.2L170.885 216.998ZM181.986 215.62C181.97 215.62 181.955 215.62 181.939 215.617L181.986 215.62ZM170.014 203.238C169.117 205.052 168.628 207.04 168.579 209.063V209.13C168.579 209.226 168.579 209.324 168.579 209.421C168.579 209.517 168.579 209.596 168.579 209.684V209.751C168.64 211.774 169.142 213.759 170.05 215.567L176.577 211.773C175.941 210.244 175.936 208.525 176.562 206.992L170.014 203.238ZM175.738 197.272L175.676 197.305C175.59 197.353 175.506 197.403 175.422 197.452C175.338 197.502 175.271 197.538 175.197 197.584L175.139 197.619C173.418 198.683 171.95 200.11 170.837 201.801L177.387 205.555C178.392 204.239 179.878 203.374 181.518 203.149L181.495 195.6C179.476 195.731 177.51 196.302 175.734 197.272H175.738ZM181.948 203.109L181.901 203.113C181.915 203.112 181.931 203.11 181.947 203.109H181.948ZM188.982 197.262L188.925 197.231C187.143 196.274 185.174 195.716 183.155 195.598L183.174 203.149C184.817 203.362 186.308 204.217 187.321 205.526L193.848 201.73C192.725 200.046 191.248 198.627 189.52 197.573L189.463 197.539C189.387 197.493 189.309 197.45 189.232 197.406C189.155 197.362 189.065 197.309 188.98 197.262H188.982Z" stroke="#B7DEFF" stroke-width="0.84" stroke-linecap="round" stroke-linejoin="round"/>
<path d="M232.177 127.707L232.145 127.747M221.691 131.329C221.665 131.324 221.64 131.317 221.614 131.311M214.2 124.804L214.219 124.852M215.865 114.478L215.898 114.438M233.845 117.381L233.826 117.333M234.796 94.9336C234.967 95.0043 235.138 95.0756 235.308 95.1501C235.409 95.1941 235.509 95.2394 235.609 95.2841C235.71 95.3288 235.807 95.3728 235.906 95.4181C236.074 95.4963 236.242 95.577 236.409 95.6577C236.438 95.6725 236.468 95.6862 236.497 95.7004C236.542 95.7228 236.588 95.7432 236.633 95.7625C237.2 96.0454 237.756 96.3461 238.299 96.6646L244.791 90.9913L249.305 94.6699L245.06 102.177C245.515 102.682 245.952 103.205 246.372 103.746L246.434 103.825C246.547 103.971 246.659 104.119 246.77 104.268C246.832 104.356 246.897 104.444 246.961 104.533C247.025 104.622 247.09 104.71 247.152 104.799C247.26 104.952 247.366 105.105 247.469 105.259C247.487 105.286 247.505 105.312 247.523 105.338C247.904 105.907 248.263 106.486 248.6 107.076L257.06 105.409L259.13 110.851L251.699 115.233C251.782 115.623 251.858 116.016 251.925 116.411C251.971 116.689 252.012 116.97 252.049 117.247L252.062 117.347C252.087 117.533 252.11 117.713 252.131 117.897C252.143 118.006 252.154 118.115 252.165 118.224C252.176 118.332 252.187 118.44 252.197 118.548C252.214 118.734 252.228 118.921 252.241 119.107L252.249 119.201C252.295 119.884 252.315 120.566 252.311 121.248L260.47 124.034L259.54 129.783L250.915 129.859C250.705 130.505 250.47 131.147 250.212 131.782C250.2 131.812 250.187 131.844 250.175 131.871C250.118 132.009 250.062 132.148 250.002 132.286L249.958 132.385C249.914 132.486 249.869 132.586 249.824 132.686C249.779 132.786 249.735 132.884 249.689 132.983C249.612 133.152 249.531 133.319 249.451 133.485L249.416 133.557L249.408 133.574C249.106 134.188 248.784 134.788 248.44 135.373L254.113 141.866L250.435 146.38L242.927 142.135C242.422 142.59 241.899 143.027 241.358 143.447L241.343 143.458L241.281 143.506C241.134 143.619 240.986 143.731 240.837 143.842C240.749 143.905 240.661 143.97 240.573 144.034C240.485 144.097 240.396 144.163 240.306 144.225C240.277 144.246 240.248 144.268 240.218 144.287C240.094 144.373 239.97 144.456 239.845 144.54L239.765 144.594C239.197 144.975 238.618 145.334 238.028 145.671L239.703 154.128L234.26 156.198L229.884 148.769C229.219 148.91 228.547 149.028 227.869 149.121C227.837 149.126 227.807 149.129 227.772 149.134C227.586 149.158 227.404 149.181 227.219 149.202C227.11 149.215 227.001 149.225 226.892 149.237C226.806 149.245 226.719 149.256 226.633 149.264H226.602H226.569C226.382 149.281 226.196 149.295 226.01 149.308L225.913 149.315C225.229 149.361 224.547 149.382 223.865 149.377L221.085 157.542L215.336 156.612L215.26 147.988C214.614 147.777 213.973 147.543 213.337 147.284C213.306 147.272 213.275 147.259 213.245 147.246C213.074 147.175 212.904 147.104 212.734 147.03C212.632 146.986 212.532 146.94 212.431 146.895C212.329 146.85 212.234 146.808 212.136 146.762C211.966 146.683 211.798 146.603 211.63 146.521C211.602 146.507 211.574 146.494 211.545 146.48C210.93 146.178 210.329 145.856 209.743 145.512L203.25 151.185L198.736 147.507L202.981 139.999C202.526 139.494 202.089 138.971 201.669 138.43L201.613 138.355C201.498 138.207 201.385 138.057 201.273 137.907C201.211 137.821 201.149 137.734 201.087 137.647C201.025 137.561 200.957 137.467 200.892 137.376C200.786 137.225 200.682 137.073 200.582 136.921L200.524 136.837C200.143 136.269 199.785 135.69 199.448 135.1L190.987 136.774L188.916 131.331L196.345 126.955C196.204 126.29 196.087 125.618 195.994 124.939L195.982 124.845C195.957 124.659 195.934 124.473 195.913 124.287C195.9 124.179 195.89 124.071 195.878 123.963C195.867 123.856 195.856 123.745 195.846 123.636C195.829 123.45 195.815 123.267 195.802 123.082C195.802 123.049 195.796 123.016 195.795 122.983C195.749 122.299 195.728 121.618 195.733 120.939L187.573 118.152L188.504 112.404L197.128 112.328C197.339 111.682 197.573 111.041 197.831 110.405L197.869 110.315C197.926 110.177 197.982 110.039 198.041 109.901L198.085 109.802C198.129 109.701 198.175 109.601 198.219 109.501C198.264 109.4 198.308 109.303 198.353 109.204C198.432 109.036 198.512 108.868 198.593 108.701C198.605 108.678 198.615 108.653 198.627 108.63L198.636 108.613C198.937 107.998 199.26 107.398 199.603 106.814L193.93 100.322L197.608 95.8066L205.116 100.052C205.621 99.5972 206.144 99.1598 206.685 98.74L206.7 98.7288C206.719 98.7133 206.74 98.6984 206.762 98.6835C206.909 98.5694 207.059 98.4562 207.21 98.3441C207.296 98.2821 207.383 98.2201 207.47 98.158C207.556 98.096 207.649 98.0277 207.741 97.9632L207.828 97.9012C207.952 97.8162 208.076 97.7337 208.196 97.653C208.224 97.6338 208.251 97.6145 208.28 97.5959C208.848 97.2149 209.427 96.8563 210.017 96.52L208.341 88.0572L213.784 85.9868L218.16 93.4154C218.825 93.2747 219.497 93.1576 220.176 93.0642C220.207 93.0598 220.238 93.0561 220.27 93.0524C220.456 93.0276 220.642 93.004 220.828 92.9829C220.936 92.9705 221.044 92.96 221.152 92.9488C221.26 92.9376 221.37 92.9264 221.479 92.9165C221.665 92.8998 221.848 92.8855 222.031 92.8725L222.132 92.865C222.183 92.8619 222.232 92.8569 222.283 92.8538C222.915 92.815 223.546 92.7978 224.176 92.8023L226.962 84.6429L232.711 85.5736L232.787 94.1977C233.433 94.4079 234.074 94.6422 234.71 94.9007L234.796 94.9336ZM246.726 125.342L246.747 125.233C246.773 125.085 246.795 124.936 246.819 124.788C246.845 124.63 246.873 124.473 246.895 124.315L246.91 124.205C247.359 120.846 247.07 117.429 246.062 114.193L234.245 118.687C234.56 120.024 234.609 121.411 234.389 122.767C234.171 124.123 233.688 125.423 232.968 126.594L242.769 134.58C244.744 131.825 246.095 128.673 246.726 125.342ZM216.547 119.882C216.229 121.864 216.711 123.891 217.886 125.519C219.06 127.146 220.833 128.241 222.814 128.564C224.796 128.882 226.823 128.401 228.45 127.226C230.078 126.051 231.173 124.279 231.496 122.298C231.812 120.316 231.33 118.29 230.156 116.664C228.981 115.037 227.21 113.942 225.23 113.619C223.248 113.302 221.221 113.783 219.593 114.958C217.965 116.132 216.87 117.905 216.547 119.886V119.882ZM231.696 142.879C231.73 142.867 231.764 142.855 231.798 142.843C231.938 142.793 232.075 142.738 232.213 142.686C232.365 142.628 232.518 142.572 232.669 142.512L232.77 142.47C235.904 141.18 238.719 139.221 241.017 136.73L231.214 128.742C229.195 130.642 226.504 131.666 223.732 131.587L221.715 144.071C225.089 144.405 228.496 143.998 231.696 142.879ZM223.092 131.55C223.065 131.55 223.039 131.546 223.012 131.543C223.039 131.545 223.065 131.547 223.092 131.55ZM202.968 130.585C204.365 133.672 206.419 136.417 208.986 138.629L209.072 138.702C209.196 138.806 209.32 138.907 209.444 139.009C209.559 139.102 209.672 139.195 209.789 139.288C209.819 139.312 209.851 139.335 209.879 139.358C212.565 141.427 215.67 142.885 218.978 143.63L220.991 131.146C218.336 130.346 216.105 128.528 214.787 126.089L202.968 130.585ZM205.275 107.605C203.3 110.359 201.95 113.511 201.319 116.841L201.298 116.951C201.269 117.111 201.245 117.272 201.22 117.433C201.196 117.577 201.171 117.722 201.15 117.867L201.135 117.978C200.685 121.338 200.975 124.755 201.982 127.992L213.799 123.497C213.484 122.16 213.435 120.773 213.655 119.417C213.873 118.06 214.356 116.76 215.076 115.59L205.275 107.605ZM216.351 99.3046C216.316 99.317 216.28 99.3294 216.244 99.3424C216.09 99.3977 215.938 99.4579 215.785 99.5162C215.649 99.5677 215.512 99.6179 215.377 99.6719C215.342 99.6862 215.307 99.7004 215.272 99.7153C212.138 101.006 209.323 102.965 207.024 105.456L216.827 113.444C218.847 111.543 221.537 110.519 224.31 110.597L226.326 98.1133C222.955 97.7805 219.552 98.1871 216.354 99.3046H216.351ZM225.032 110.641C225.006 110.638 224.979 110.636 224.952 110.635C224.979 110.638 225.006 110.641 225.032 110.641ZM238.248 102.894C238.219 102.871 238.19 102.849 238.162 102.827C235.477 100.757 232.373 99.2994 229.066 98.5545L227.049 111.038C229.705 111.837 231.936 113.656 233.254 116.096L245.074 111.599C243.676 108.511 241.62 105.765 239.051 103.553L238.968 103.481C238.854 103.386 238.738 103.295 238.623 103.2C238.5 103.099 238.376 102.995 238.248 102.895L238.248 102.894ZM226.353 110.854C226.379 110.86 226.405 110.867 226.431 110.873C226.405 110.868 226.379 110.862 226.353 110.855L226.353 110.854Z" stroke="#B7DEFF" stroke-width="0.84" stroke-linecap="round" stroke-linejoin="round"/>
<mask id="mask0_166_14374" style="mask-type:luminance" maskUnits="userSpaceOnUse" x="134" y="-21" width="114" height="113">
<path d="M185.176 78.7815C184.892 78.7443 184.608 78.7058 184.325 78.663C184.157 78.6375 183.99 78.6096 183.823 78.583C183.655 78.5563 183.492 78.5302 183.327 78.501C183.043 78.452 182.761 78.3987 182.48 78.3441C182.431 78.3348 182.381 78.3261 182.331 78.3162C182.255 78.3013 182.179 78.2882 182.102 78.2727C181.399 78.13 180.703 77.9706 180.014 77.7944C179.761 77.7323 179.509 77.6604 179.258 77.5909L171.835 88.6441L163.633 84.9568L166.973 72.0677C166.094 71.4956 165.233 70.8896 164.391 70.2498C164.35 70.2194 164.311 70.1877 164.27 70.1573C164.043 69.9828 163.817 69.8066 163.592 69.6287C163.461 69.5239 163.331 69.4171 163.201 69.311C163.072 69.2049 162.938 69.0982 162.809 68.989C162.588 68.805 162.369 68.6189 162.153 68.4307C162.116 68.3978 162.078 68.3686 162.04 68.3332C161.244 67.6371 160.478 66.9153 159.74 66.1679L147.785 72.0286L142.526 64.7341L151.863 55.2412C151.387 54.3056 150.945 53.3504 150.536 52.3755C150.516 52.3289 150.497 52.2818 150.478 52.2352C150.368 51.9701 150.26 51.7041 150.154 51.4373C150.092 51.281 150.034 51.1234 149.974 50.9658C149.915 50.8082 149.854 50.6518 149.796 50.4936C149.697 50.2237 149.602 49.9532 149.508 49.6821L149.458 49.5394C149.117 48.5384 148.814 47.5302 148.55 46.5147L135.265 45.6126L134.358 36.6652L147.19 33.1138C147.246 32.0656 147.34 31.0169 147.474 29.9675L147.494 29.8205C147.523 29.5909 147.552 29.362 147.585 29.133C147.593 29.0778 147.604 29.022 147.612 28.9668C147.637 28.7992 147.665 28.6323 147.692 28.4654C147.719 28.2985 147.745 28.1341 147.774 27.9691C147.823 27.6861 147.876 27.4045 147.93 27.1234C147.938 27.0837 147.945 27.0434 147.953 27.0037L147.959 26.9745C148.164 25.9371 148.405 24.9126 148.684 23.9008L137.63 16.4772L141.318 8.27496L154.207 11.6186C154.349 11.4002 154.492 11.1811 154.639 10.9646C155.037 10.3748 155.451 9.79342 155.879 9.22054C155.927 9.1585 155.975 9.09643 156.022 9.03439L156.04 9.01083C156.064 8.97794 156.09 8.94877 156.114 8.91464C156.288 8.68694 156.464 8.45987 156.643 8.23217C156.748 8.10126 156.854 7.97218 156.96 7.8419C157.066 7.7116 157.174 7.57883 157.282 7.44916C157.318 7.40572 157.353 7.36169 157.389 7.31889C157.538 7.14206 157.69 6.96896 157.841 6.79523L157.939 6.68106C158.635 5.88483 159.357 5.11815 160.105 4.38106L154.244 -7.57424L161.539 -12.8337L171.031 -3.49668C171.968 -3.97028 172.924 -4.41245 173.9 -4.82319C173.948 -4.84304 173.996 -4.8623 174.045 -4.88525C174.308 -4.99445 174.572 -5.10241 174.838 -5.20665C174.996 -5.26869 175.155 -5.3307 175.314 -5.38902C175.473 -5.44734 175.624 -5.50752 175.781 -5.56522C176.053 -5.6645 176.326 -5.76005 176.598 -5.85435C176.644 -5.86987 176.69 -5.88663 176.736 -5.90215C177.737 -6.24339 178.746 -6.54658 179.762 -6.81171L180.662 -20.0923L189.609 -21L193.161 -8.16738C194.209 -8.11154 195.257 -8.01701 196.306 -7.88382C196.356 -7.87762 196.405 -7.8708 196.454 -7.86398C196.739 -7.82758 197.023 -7.78809 197.307 -7.74548C197.475 -7.72066 197.641 -7.69273 197.809 -7.66543C197.977 -7.63813 198.14 -7.61272 198.305 -7.58356C198.588 -7.53455 198.87 -7.4818 199.151 -7.4272C199.201 -7.41727 199.25 -7.40857 199.3 -7.39864C200.337 -7.19183 201.361 -6.95029 202.374 -6.67399L209.798 -17.7284L218 -14.0405L214.663 -1.15018C215.54 -0.579369 216.399 0.0265961 217.242 0.667717C217.282 0.69812 217.322 0.729752 217.362 0.760155C217.589 0.934502 217.816 1.1095 218.04 1.2888C218.172 1.39366 218.301 1.50037 218.431 1.60584C218.562 1.71132 218.694 1.81927 218.824 1.92784C219.045 2.11398 219.262 2.30013 219.479 2.48625L219.592 2.58426C220.388 3.2804 221.155 4.00221 221.892 4.74963L233.847 -1.11109L239.108 6.18407L229.771 15.6769C230.246 16.6113 230.689 17.5665 231.098 18.5427L231.153 18.6773C231.264 18.9433 231.373 19.2109 231.479 19.4802C231.541 19.6359 231.598 19.7904 231.658 19.948C231.717 20.1056 231.778 20.2638 231.837 20.4232C231.935 20.6919 232.03 20.9618 232.123 21.2298L232.174 21.3756C232.515 22.3766 232.818 23.3846 233.083 24.3997L246.367 25.3043L247.274 34.2517L234.442 37.8013C234.386 38.8486 234.292 39.8971 234.159 40.9469L234.139 41.0964C234.109 41.3247 234.081 41.5537 234.047 41.7789C234.039 41.8341 234.029 41.8893 234.021 41.9446C233.995 42.1127 233.967 42.2796 233.94 42.4471C233.914 42.6146 233.888 42.7778 233.859 42.9435C233.81 43.2264 233.756 43.5087 233.702 43.7904L233.68 43.9095L233.674 43.9387C233.469 44.9752 233.227 45.9998 232.948 47.0123L244.002 54.4403L240.314 62.6425L227.425 59.3021C226.852 60.181 226.246 61.0422 225.607 61.8856L225.59 61.9079L225.519 61.9997C225.343 62.2287 225.166 62.4576 224.985 62.6822C224.882 62.8119 224.777 62.9391 224.675 63.0675C224.572 63.196 224.459 63.3337 224.348 63.4659L224.243 63.5949C224.095 63.7705 223.944 63.9424 223.794 64.1155C223.76 64.1546 223.726 64.1943 223.691 64.2334C222.996 65.0296 222.274 65.796 221.527 66.5327L227.385 78.4899L220.091 83.7494L210.598 74.4123C209.663 74.8876 208.708 75.33 207.733 75.7395C207.686 75.7593 207.639 75.7773 207.593 75.7972C207.328 75.907 207.063 76.0156 206.795 76.1204C206.779 76.1272 206.763 76.1341 206.746 76.1403C206.73 76.1465 206.717 76.1527 206.702 76.1582C206.578 76.2073 206.45 76.2532 206.323 76.301C206.166 76.363 206.009 76.4213 205.851 76.479C205.581 76.5783 205.311 76.6732 205.04 76.7663C204.992 76.7831 204.945 76.8004 204.897 76.8166C203.896 77.157 202.888 77.4599 201.872 77.7255L200.97 91.0098L192.023 91.9169L188.471 79.0849C187.424 79.0282 186.375 78.9337 185.326 78.8013C185.276 78.7951 185.226 78.7877 185.176 78.7815ZM223.049 50.7375C223.155 50.5122 223.255 50.2839 223.356 50.055C223.45 49.8465 223.546 49.6399 223.636 49.4296L223.704 49.2676C225.884 44.0481 226.802 38.388 226.383 32.7471L226.37 32.5728C226.349 32.3246 226.321 32.0764 226.295 31.8245C226.272 31.5987 226.253 31.3728 226.225 31.1476L226.203 30.9745C225.481 25.3639 223.446 20.0028 220.263 15.3269L220.164 15.1824C220.022 14.9776 219.874 14.7772 219.73 14.5756C219.596 14.3894 219.466 14.2033 219.328 14.0209L219.222 13.8807C215.792 9.38335 211.349 5.75845 206.255 3.30029C206.203 3.27547 206.151 3.25001 206.099 3.22519C205.87 3.11723 205.638 3.0161 205.406 2.91497C205.202 2.82253 204.998 2.72885 204.791 2.63951C204.738 2.61655 204.684 2.59422 204.631 2.57188C199.409 0.390533 193.746 -0.527382 188.102 -0.107193C188.049 -0.102852 187.995 -0.0991516 187.941 -0.0948105C187.688 -0.0737152 187.438 -0.045166 187.186 -0.0191116C186.959 0.00384521 186.73 0.0237274 186.504 0.0510254C186.451 0.0572281 186.397 0.0646515 186.344 0.0714722C180.727 0.79174 175.36 2.82852 170.679 6.01593L170.541 6.11087C170.354 6.24117 170.168 6.37705 169.982 6.51107C169.778 6.65688 169.573 6.80144 169.372 6.9522L169.237 7.05457C164.738 10.4862 161.112 14.9309 158.654 20.0274L158.581 20.1801C158.481 20.3916 158.389 20.6057 158.293 20.8191C158.191 21.0431 158.088 21.2658 157.991 21.4923L157.929 21.6468C155.748 26.8681 154.83 32.5305 155.25 38.1735C155.254 38.2312 155.258 38.2883 155.263 38.3453C155.282 38.5811 155.309 38.8157 155.333 39.0502C155.358 39.2847 155.379 39.5329 155.407 39.7743L155.429 39.9436C156.151 45.5555 158.187 50.9177 161.372 55.5943L161.468 55.7351C161.602 55.9275 161.741 56.1149 161.878 56.3047C162.015 56.4946 162.161 56.7043 162.308 56.9003L162.412 57.0368C165.843 61.536 170.288 65.1617 175.385 67.6191C175.436 67.6439 175.487 67.6687 175.539 67.6929C175.744 67.7903 175.953 67.8791 176.159 67.9734C176.389 68.077 176.617 68.1831 176.849 68.2836C176.901 68.306 176.954 68.3276 177.006 68.3494C182.225 70.5289 187.884 71.4466 193.524 71.0278C193.586 71.0235 193.648 71.0191 193.707 71.0142C193.934 70.9956 194.161 70.9695 194.39 70.9459C194.638 70.9217 194.881 70.9 195.126 70.8702C195.188 70.8628 195.247 70.8547 195.307 70.8473C200.915 70.1246 206.273 68.0899 210.947 64.9084L211.091 64.8098C211.299 64.6658 211.502 64.515 211.707 64.3667C211.889 64.2352 212.074 64.1068 212.254 63.9715L212.393 63.8654C216.892 60.4339 220.517 55.9891 222.974 50.8926L223.049 50.7375Z" fill="white"/>
</mask>
<g mask="url(#mask0_166_14374)">
<path d="M248.646 -98.1633L129.861 20.6217" stroke="#B7DEFF" stroke-width="0.63" stroke-miterlimit="10"/>
<path d="M248.646 -80.8455L129.861 37.9396" stroke="#B7DEFF" stroke-width="0.63" stroke-miterlimit="10"/>
<path d="M248.646 -63.5277L129.861 55.2573" stroke="#B7DEFF" stroke-width="0.63" stroke-miterlimit="10"/>
<path d="M248.646 -46.2098L129.861 72.5752" stroke="#B7DEFF" stroke-width="0.63" stroke-miterlimit="10"/>
<path d="M248.646 -106.822L129.861 11.9628" stroke="#B7DEFF" stroke-width="0.63" stroke-miterlimit="10"/>
<path d="M248.646 -89.5044L129.861 29.2806" stroke="#B7DEFF" stroke-width="0.63" stroke-miterlimit="10"/>
<path d="M248.646 -72.1866L129.861 46.5984" stroke="#B7DEFF" stroke-width="0.63" stroke-miterlimit="10"/>
<path d="M248.646 -54.8688L129.861 63.9163" stroke="#B7DEFF" stroke-width="0.63" stroke-miterlimit="10"/>
<path d="M248.646 -37.5509L129.861 81.2341" stroke="#B7DEFF" stroke-width="0.63" stroke-miterlimit="10"/>
<path d="M248.646 -28.8921L129.861 89.8929" stroke="#B7DEFF" stroke-width="0.63" stroke-miterlimit="10"/>
<path d="M248.646 -20.2332L129.861 98.5519" stroke="#B7DEFF" stroke-width="0.63" stroke-miterlimit="10"/>
<path d="M248.646 -11.5742L129.861 107.211" stroke="#B7DEFF" stroke-width="0.63" stroke-miterlimit="10"/>
<path d="M248.646 -2.91541L129.861 115.87" stroke="#B7DEFF" stroke-width="0.63" stroke-miterlimit="10"/>
<path d="M248.646 5.74353L129.861 124.529" stroke="#B7DEFF" stroke-width="0.63" stroke-miterlimit="10"/>
<path d="M248.646 14.4025L129.861 133.187" stroke="#B7DEFF" stroke-width="0.63" stroke-miterlimit="10"/>
<path d="M248.646 23.0614L129.861 141.846" stroke="#B7DEFF" stroke-width="0.63" stroke-miterlimit="10"/>
<path d="M248.646 31.7203L129.861 150.505" stroke="#B7DEFF" stroke-width="0.63" stroke-miterlimit="10"/>
<path d="M248.646 -93.8339L129.861 24.9512" stroke="#B7DEFF" stroke-width="0.63" stroke-miterlimit="10"/>
<path d="M248.646 -76.516L129.861 42.269" stroke="#B7DEFF" stroke-width="0.63" stroke-miterlimit="10"/>
<path d="M248.646 -59.1982L129.861 59.5868" stroke="#B7DEFF" stroke-width="0.63" stroke-miterlimit="10"/>
<path d="M248.646 -41.8804L129.861 76.9047" stroke="#B7DEFF" stroke-width="0.63" stroke-miterlimit="10"/>
<path d="M248.646 -24.5626L129.861 94.2224" stroke="#B7DEFF" stroke-width="0.63" stroke-miterlimit="10"/>
<path d="M248.646 -7.24475L129.861 111.54" stroke="#B7DEFF" stroke-width="0.63" stroke-miterlimit="10"/>
<path d="M248.646 10.0729L129.861 128.858" stroke="#B7DEFF" stroke-width="0.63" stroke-miterlimit="10"/>
<path d="M248.646 -102.493L129.861 16.2922" stroke="#B7DEFF" stroke-width="0.63" stroke-miterlimit="10"/>
<path d="M248.646 -85.1749L129.861 33.6101" stroke="#B7DEFF" stroke-width="0.63" stroke-miterlimit="10"/>
<path d="M248.646 -67.8572L129.861 50.9279" stroke="#B7DEFF" stroke-width="0.63" stroke-miterlimit="10"/>
<path d="M248.646 -50.5393L129.861 68.2457" stroke="#B7DEFF" stroke-width="0.63" stroke-miterlimit="10"/>
<path d="M248.646 -33.2216L129.861 85.5635" stroke="#B7DEFF" stroke-width="0.63" stroke-miterlimit="10"/>
<path d="M248.646 -15.9037L129.861 102.881" stroke="#B7DEFF" stroke-width="0.63" stroke-miterlimit="10"/>
<path d="M248.646 1.41418L129.861 120.199" stroke="#B7DEFF" stroke-width="0.63" stroke-miterlimit="10"/>
<path d="M248.646 18.7318L129.861 137.517" stroke="#B7DEFF" stroke-width="0.63" stroke-miterlimit="10"/>
<path d="M248.646 27.3907L129.861 146.176" stroke="#B7DEFF" stroke-width="0.63" stroke-miterlimit="10"/>
<path d="M248.646 36.0497L129.861 154.835" stroke="#B7DEFF" stroke-width="0.63" stroke-miterlimit="10"/>
<path d="M248.646 40.379L129.861 159.164" stroke="#B7DEFF" stroke-width="0.63" stroke-miterlimit="10"/>
<path d="M248.646 44.7086L129.861 163.494" stroke="#B7DEFF" stroke-width="0.63" stroke-miterlimit="10"/>
<path d="M248.646 49.038L129.861 167.823" stroke="#B7DEFF" stroke-width="0.63" stroke-miterlimit="10"/>
<path d="M248.646 53.3676L129.861 172.153" stroke="#B7DEFF" stroke-width="0.63" stroke-miterlimit="10"/>
<path d="M248.646 57.6969L129.861 176.482" stroke="#B7DEFF" stroke-width="0.63" stroke-miterlimit="10"/>
<path d="M248.646 62.0265L129.861 180.812" stroke="#B7DEFF" stroke-width="0.63" stroke-miterlimit="10"/>
</g>
<path d="M185.176 78.7814C184.892 78.7441 184.608 78.7057 184.325 78.6628C184.157 78.6374 183.99 78.6095 183.823 78.5828C183.655 78.5562 183.492 78.5301 183.327 78.5009C183.043 78.4519 182.761 78.3986 182.48 78.344C182.431 78.3346 182.381 78.326 182.331 78.316C182.255 78.3012 182.179 78.2881 182.102 78.2726C181.399 78.1299 180.703 77.9705 180.014 77.7942C179.761 77.7322 179.509 77.6602 179.258 77.5907L171.835 88.6439L163.633 84.9566L166.973 72.0676C166.094 71.4955 165.233 70.8895 164.391 70.2496C164.35 70.2192 164.311 70.1876 164.27 70.1572C164.043 69.9827 163.817 69.8065 163.592 69.6286C163.461 69.5237 163.331 69.417 163.201 69.3109C163.072 69.2048 162.938 69.0981 162.809 68.9889C162.588 68.8048 162.369 68.6187 162.153 68.4305C162.116 68.3977 162.078 68.3685 162.04 68.3331C161.244 67.637 160.478 66.9152 159.74 66.1678L147.785 72.0285L142.526 64.7339L151.863 55.2411C151.387 54.3055 150.945 53.3502 150.536 52.3753C150.516 52.3288 150.497 52.2816 150.478 52.2351C150.368 51.97 150.26 51.704 150.154 51.4372C150.092 51.2809 150.034 51.1233 149.974 50.9657C149.915 50.8081 149.854 50.6517 149.796 50.4935C149.697 50.2236 149.602 49.9531 149.508 49.682L149.458 49.5393C149.117 48.5383 148.814 47.5301 148.55 46.5146L135.265 45.6125L134.358 36.6651L147.19 33.1136C147.246 32.0655 147.34 31.0168 147.474 29.9674L147.494 29.8203C147.523 29.5908 147.552 29.3619 147.585 29.1329C147.593 29.0777 147.604 29.0219 147.612 28.9666C147.637 28.7991 147.665 28.6322 147.692 28.4653C147.719 28.2984 147.745 28.134 147.774 27.9689C147.823 27.686 147.876 27.4044 147.93 27.1233C147.938 27.0836 147.945 27.0433 147.953 27.0036L147.959 26.9744C148.164 25.937 148.405 24.9124 148.684 23.9007L137.63 16.4771L141.318 8.27484L154.207 11.6184C154.349 11.4 154.492 11.181 154.639 10.9645C155.037 10.3746 155.451 9.7933 155.879 9.22042C155.927 9.15838 155.975 9.0963 156.022 9.03426L156.04 9.01071C156.064 8.97782 156.09 8.94864 156.114 8.91452C156.288 8.68682 156.464 8.45975 156.643 8.23205C156.748 8.10113 156.854 7.97206 156.96 7.84177C157.066 7.71148 157.174 7.57871 157.282 7.44903C157.318 7.4056 157.353 7.36157 157.389 7.31876C157.538 7.14194 157.69 6.96884 157.841 6.79511L157.939 6.68094C158.635 5.8847 159.357 5.11802 160.105 4.38094L154.244 -7.57437L161.539 -12.8339L171.031 -3.4968C171.968 -3.97041 172.924 -4.41258 173.9 -4.82331C173.948 -4.84316 173.996 -4.86242 174.045 -4.88538C174.308 -4.99457 174.572 -5.10253 174.838 -5.20677C174.996 -5.26881 175.155 -5.33082 175.314 -5.38914C175.473 -5.44747 175.624 -5.50765 175.781 -5.56535C176.053 -5.66462 176.326 -5.76017 176.598 -5.85448C176.644 -5.86999 176.69 -5.88676 176.736 -5.90227C177.737 -6.24351 178.746 -6.5467 179.762 -6.81184L180.662 -20.0924L189.609 -21.0001L193.161 -8.1675C194.209 -8.11167 195.257 -8.01713 196.306 -7.88394C196.356 -7.87774 196.405 -7.87092 196.454 -7.8641C196.739 -7.8277 197.023 -7.78821 197.307 -7.74561C197.475 -7.72079 197.641 -7.69285 197.809 -7.66555C197.977 -7.63825 198.14 -7.61284 198.305 -7.58368C198.588 -7.53467 198.87 -7.48192 199.151 -7.42732C199.201 -7.41739 199.25 -7.40869 199.3 -7.39877C200.337 -7.19195 201.361 -6.95041 202.374 -6.67411L209.798 -17.7285L218 -14.0406L214.663 -1.1503C215.54 -0.579489 216.399 0.026472 217.242 0.667596C217.282 0.697998 217.322 0.729632 217.362 0.760034C217.589 0.934379 217.816 1.10938 218.04 1.28868C218.172 1.39354 218.301 1.50025 218.431 1.60572C218.562 1.7112 218.694 1.81914 218.824 1.92772C219.045 2.11385 219.262 2.3 219.479 2.48613L219.592 2.58414C220.388 3.28027 221.155 4.00209 221.892 4.74952L233.847 -1.11122L239.108 6.18395L229.771 15.6768C230.246 16.6111 230.689 17.5664 231.098 18.5426L231.153 18.6772C231.264 18.9432 231.373 19.2108 231.479 19.48C231.541 19.6358 231.598 19.7903 231.658 19.9479C231.717 20.1055 231.778 20.2637 231.837 20.4231C231.935 20.6918 232.03 20.9617 232.123 21.2297L232.174 21.3755C232.515 22.3765 232.818 23.3845 233.083 24.3995L246.367 25.3041L247.274 34.2516L234.442 37.8011C234.386 38.8484 234.292 39.897 234.159 40.9467L234.139 41.0963C234.109 41.3246 234.081 41.5535 234.047 41.7788C234.039 41.834 234.029 41.8892 234.021 41.9444C233.995 42.1126 233.967 42.2795 233.94 42.447C233.914 42.6145 233.888 42.7777 233.859 42.9433C233.81 43.2263 233.756 43.5086 233.702 43.7902L233.68 43.9094L233.674 43.9385C233.469 44.9751 233.227 45.9996 232.948 47.0122L244.002 54.4402L240.314 62.6424L227.425 59.302C226.852 60.1809 226.246 61.0421 225.607 61.8855L225.59 61.9078L225.519 61.9996C225.343 62.2286 225.166 62.4575 224.985 62.6821C224.882 62.8118 224.777 62.939 224.675 63.0674C224.572 63.1958 224.459 63.3336 224.348 63.4657L224.243 63.5948C224.095 63.7704 223.944 63.9422 223.794 64.1153C223.76 64.1544 223.726 64.1941 223.691 64.2332C222.996 65.0295 222.274 65.7959 221.527 66.5326L227.385 78.4897L220.091 83.7492L210.598 74.4122C209.663 74.8875 208.708 75.3298 207.733 75.7393C207.686 75.7592 207.639 75.7772 207.593 75.797C207.328 75.9069 207.063 76.0154 206.795 76.1203C206.779 76.1271 206.763 76.1339 206.746 76.1401C206.73 76.1463 206.717 76.1525 206.702 76.1581C206.578 76.2071 206.45 76.2531 206.323 76.3009C206.166 76.3629 206.009 76.4212 205.851 76.4789C205.581 76.5782 205.311 76.6731 205.04 76.7662C204.992 76.7829 204.945 76.8003 204.897 76.8164C203.896 77.1569 202.888 77.4598 201.872 77.7254L200.97 91.0097L192.023 91.9167L188.471 79.0848C187.424 79.0281 186.375 78.9336 185.326 78.8012C185.276 78.795 185.226 78.7876 185.176 78.7814ZM223.049 50.7373C223.155 50.5121 223.255 50.2838 223.356 50.0549C223.45 49.8464 223.546 49.6398 223.636 49.4295L223.704 49.2675C225.884 44.0479 226.802 38.3879 226.383 32.747L226.37 32.5727C226.349 32.3245 226.321 32.0763 226.295 31.8244C226.272 31.5986 226.253 31.3727 226.225 31.1475L226.203 30.9744C225.481 25.3638 223.446 20.0027 220.263 15.3268L220.164 15.1822C220.022 14.9775 219.874 14.7771 219.73 14.5755C219.596 14.3893 219.466 14.2032 219.328 14.0208L219.222 13.8806C215.792 9.38324 211.349 5.75833 206.255 3.30016C206.203 3.27534 206.151 3.24989 206.099 3.22507C205.87 3.11711 205.638 3.01598 205.406 2.91485C205.202 2.8224 204.998 2.72873 204.791 2.63939C204.738 2.61643 204.684 2.59409 204.631 2.57175C199.409 0.390408 193.746 -0.527501 188.102 -0.107314C188.049 -0.10297 187.995 -0.0992735 187.941 -0.0949304C187.688 -0.0738354 187.438 -0.0452892 187.186 -0.0192306C186.959 0.00372575 186.73 0.0236029 186.504 0.0509024C186.451 0.0571069 186.397 0.0645267 186.344 0.0713516C180.727 0.791616 175.36 2.8284 170.679 6.01581L170.541 6.11075C170.354 6.24104 170.168 6.37693 169.982 6.51095C169.778 6.65675 169.573 6.80131 169.372 6.95208L169.237 7.05444C164.738 10.4861 161.112 14.9307 158.654 20.0273L158.581 20.1799C158.481 20.3915 158.389 20.6055 158.293 20.819C158.191 21.0429 158.088 21.2657 157.991 21.4922L157.929 21.6466C155.748 26.868 154.83 32.5304 155.25 38.1734C155.254 38.2311 155.258 38.2881 155.263 38.3452C155.282 38.581 155.309 38.8156 155.333 39.0501C155.358 39.2846 155.379 39.5328 155.407 39.7741L155.429 39.9435C156.151 45.5553 158.187 50.9175 161.372 55.5942L161.468 55.735C161.602 55.9273 161.741 56.1147 161.878 56.3046C162.015 56.4945 162.161 56.7041 162.308 56.9002L162.412 57.0367C165.843 61.5358 170.288 65.1615 175.385 67.619C175.436 67.6438 175.487 67.6686 175.539 67.6928C175.744 67.7902 175.953 67.879 176.159 67.9733C176.389 68.0769 176.617 68.183 176.849 68.2835C176.901 68.3058 176.954 68.3275 177.006 68.3492C182.225 70.5288 187.884 71.4465 193.524 71.0277C193.586 71.0234 193.648 71.019 193.707 71.0141C193.934 70.9954 194.161 70.9694 194.39 70.9458C194.638 70.9216 194.881 70.8999 195.126 70.8701C195.188 70.8626 195.247 70.8546 195.307 70.8471C200.915 70.1244 206.273 68.0898 210.947 64.9083L211.091 64.8096C211.299 64.6657 211.502 64.5149 211.707 64.3666C211.889 64.2351 212.074 64.1067 212.254 63.9714L212.393 63.8653C216.892 60.4337 220.517 55.989 222.974 50.8925L223.049 50.7373Z" stroke="#B7DEFF" stroke-width="1.679" stroke-miterlimit="10"/>
<path d="M163.925 23.369C166.316 18.0504 170.231 13.5604 175.174 10.4665C180.117 7.37272 185.866 5.81411 191.695 5.98784C197.523 6.16156 203.17 8.05979 207.92 11.4425C212.669 14.8252 216.31 19.5405 218.38 24.992C220.45 30.4435 220.857 36.3864 219.549 42.0693C218.241 47.7521 215.278 52.9195 211.034 56.9182C206.789 60.9168 201.455 63.567 195.704 64.5337C189.953 65.5004 184.045 64.7401 178.727 62.349C171.595 59.1425 166.029 53.2344 163.253 45.9243C160.478 38.6142 160.719 30.5009 163.925 23.369ZM204.907 22.9155C205.532 21.525 205.731 19.9803 205.478 18.4768C205.225 16.9733 204.532 15.5786 203.487 14.4689C202.442 13.3592 201.091 12.5844 199.605 12.2426C198.119 11.9007 196.565 12.0071 195.14 12.5483C193.715 13.0895 192.482 14.0411 191.598 15.283C190.713 16.5248 190.217 18.001 190.171 19.5249C190.126 21.0488 190.533 22.5519 191.342 23.8442C192.151 25.1366 193.325 26.16 194.715 26.7852C195.639 27.2003 196.635 27.4294 197.647 27.4596C198.658 27.4898 199.666 27.3204 200.613 26.961C201.559 26.6017 202.425 26.0595 203.162 25.3653C203.899 24.6712 204.492 23.8387 204.907 22.9155ZM213.55 45.6807C214.175 44.2902 214.374 42.7456 214.121 41.2421C213.869 39.7386 213.176 38.3439 212.13 37.2342C211.085 36.1245 209.734 35.3497 208.248 35.0079C206.762 34.666 205.209 34.7724 203.783 35.3136C202.358 35.8548 201.125 36.8064 200.241 38.0482C199.357 39.2901 198.86 40.7663 198.815 42.2901C198.769 43.814 199.177 45.3172 199.986 46.6095C200.794 47.9018 201.968 48.9253 203.359 49.5504C205.223 50.3886 207.345 50.4518 209.256 49.7261C211.167 49.0004 212.712 47.5452 213.55 45.6807ZM191.653 33.5982C191.285 33.4327 190.876 33.3801 190.477 33.447C190.079 33.514 189.71 33.6975 189.416 33.9743C189.122 34.2512 188.917 34.609 188.827 35.0025C188.736 35.396 188.764 35.8074 188.908 36.1849C189.051 36.5623 189.303 36.8887 189.632 37.1229C189.961 37.3571 190.352 37.4884 190.756 37.5004C191.159 37.5123 191.557 37.4043 191.899 37.19C192.242 36.9758 192.512 36.6648 192.678 36.2965C192.788 36.052 192.849 35.7882 192.857 35.5201C192.865 35.2521 192.82 34.9851 192.725 34.7344C192.63 34.4837 192.486 34.2542 192.302 34.0591C192.118 33.8639 191.898 33.7069 191.653 33.597V33.5982ZM182.143 31.5607C182.768 30.1702 182.967 28.6255 182.714 27.122C182.462 25.6184 181.769 24.2236 180.724 23.1138C179.678 22.004 178.327 21.2291 176.842 20.8871C175.356 20.5452 173.802 20.6515 172.377 21.1927C170.951 21.7338 169.718 22.6855 168.834 23.9274C167.949 25.1692 167.453 26.6454 167.408 28.1694C167.362 29.6933 167.77 31.1965 168.579 32.4889C169.387 33.7812 170.561 34.8047 171.952 35.4298C173.817 36.2679 175.938 36.3309 177.849 35.6051C179.76 34.8793 181.305 33.4241 182.143 31.5595V31.5607ZM190.786 54.3229C191.411 52.9324 191.61 51.3877 191.358 49.8842C191.105 48.3807 190.412 46.9859 189.366 45.8761C188.321 44.7664 186.97 43.9916 185.484 43.6498C183.998 43.3079 182.445 43.4143 181.019 43.9555C179.594 44.4968 178.361 45.4485 177.477 46.6904C176.592 47.9322 176.096 49.4085 176.051 50.9324C176.005 52.4564 176.413 53.9595 177.222 55.2518C178.031 56.5441 179.205 57.5675 180.595 58.1926C181.519 58.6078 182.515 58.837 183.526 58.8672C184.538 58.8974 185.546 58.728 186.492 58.3686C187.439 58.0093 188.305 57.4671 189.042 56.7729C189.778 56.0787 190.371 55.2462 190.786 54.3229Z" stroke="#B7DEFF" stroke-width="1.679" stroke-miterlimit="10"/>
<mask id="mask1_166_14374" style="mask-type:luminance" maskUnits="userSpaceOnUse" x="120" y="112" width="53" height="53">
<path d="M143.854 158.324C143.723 158.307 143.594 158.289 143.463 158.269C143.386 158.258 143.31 158.245 143.234 158.233C143.158 158.22 143.082 158.209 143.006 158.196C142.876 158.173 142.747 158.148 142.618 158.124C142.595 158.119 142.573 158.116 142.55 158.111C142.515 158.104 142.481 158.098 142.445 158.091C142.124 158.025 141.805 157.952 141.489 157.872C141.373 157.842 141.257 157.81 141.142 157.779L137.74 162.843L133.982 161.154L135.512 155.248C135.11 154.985 134.715 154.707 134.329 154.415C134.311 154.401 134.293 154.386 134.275 154.372C134.17 154.292 134.066 154.212 133.964 154.13C133.902 154.082 133.845 154.033 133.785 153.985C133.726 153.936 133.665 153.887 133.605 153.837C133.504 153.754 133.404 153.669 133.305 153.581L133.253 153.536C132.889 153.217 132.537 152.886 132.199 152.543L126.721 155.229L124.31 151.886L128.591 147.537C128.374 147.108 128.171 146.67 127.983 146.224L127.957 146.162C127.907 146.041 127.857 145.92 127.808 145.797L127.726 145.581C127.699 145.509 127.671 145.437 127.645 145.364C127.6 145.24 127.555 145.116 127.512 144.992L127.489 144.926C127.334 144.468 127.195 144.006 127.073 143.541L120.986 143.127L120.57 139.028L126.45 137.4C126.476 136.92 126.52 136.439 126.581 135.958L126.589 135.891C126.603 135.786 126.616 135.681 126.631 135.576L126.644 135.5C126.655 135.423 126.668 135.347 126.68 135.27C126.693 135.194 126.705 135.118 126.718 135.043C126.74 134.913 126.764 134.784 126.79 134.655L126.8 134.6L126.803 134.587C126.897 134.111 127.007 133.642 127.135 133.178L122.07 129.777L123.76 126.018L129.665 127.549C129.731 127.449 129.796 127.348 129.863 127.249C130.046 126.979 130.236 126.712 130.433 126.45C130.455 126.422 130.477 126.394 130.496 126.366L130.504 126.355L130.538 126.311C130.618 126.207 130.698 126.103 130.78 126.001C130.828 125.939 130.877 125.882 130.925 125.822L131.073 125.642C131.09 125.622 131.105 125.602 131.122 125.58C131.19 125.498 131.26 125.419 131.329 125.339L131.374 125.287C131.693 124.922 132.024 124.571 132.367 124.232L129.681 118.753L133.024 116.344L137.373 120.625C137.802 120.407 138.239 120.204 138.686 120.017C138.708 120.007 138.73 119.999 138.752 119.989C138.873 119.939 138.994 119.889 139.115 119.842C139.188 119.813 139.261 119.786 139.334 119.759C139.406 119.731 139.476 119.704 139.548 119.678C139.672 119.632 139.796 119.588 139.92 119.545C139.941 119.538 139.962 119.53 139.982 119.523C140.44 119.367 140.903 119.228 141.369 119.106L141.782 113.019L145.882 112.604L147.509 118.484C147.989 118.51 148.47 118.553 148.951 118.613L149.018 118.623C149.149 118.639 149.279 118.657 149.409 118.677C149.486 118.688 149.562 118.701 149.639 118.714C149.715 118.726 149.791 118.738 149.866 118.751C149.996 118.773 150.125 118.798 150.254 118.823L150.322 118.836C150.798 118.93 151.267 119.041 151.731 119.168L155.133 114.103L158.894 115.791L157.363 121.697C157.766 121.959 158.16 122.237 158.546 122.53C158.565 122.544 158.583 122.559 158.602 122.572C158.706 122.652 158.809 122.732 158.912 122.815C158.974 122.863 159.032 122.912 159.091 122.96C159.151 123.008 159.211 123.058 159.271 123.108C159.372 123.192 159.471 123.278 159.571 123.364L159.623 123.409C159.988 123.728 160.339 124.058 160.678 124.401L166.156 121.716L168.565 125.059L164.284 129.408C164.502 129.837 164.704 130.275 164.892 130.722L164.918 130.784C164.969 130.905 165.018 131.028 165.067 131.152C165.095 131.222 165.122 131.294 165.149 131.366C165.176 131.437 165.204 131.51 165.231 131.584C165.277 131.708 165.32 131.832 165.362 131.956L165.386 132.023C165.542 132.482 165.681 132.943 165.802 133.408L171.889 133.822L172.305 137.921L166.425 139.549C166.399 140.029 166.356 140.509 166.295 140.99L166.286 141.059C166.272 141.164 166.259 141.269 166.244 141.373L166.232 141.449C166.22 141.526 166.207 141.602 166.195 141.679C166.182 141.756 166.17 141.831 166.157 141.907C166.135 142.036 166.111 142.165 166.085 142.294L166.075 142.349V142.363C165.982 142.838 165.871 143.307 165.744 143.771L170.808 147.172L169.119 150.931L163.213 149.4C162.95 149.803 162.672 150.197 162.379 150.584L162.371 150.595L162.339 150.636C162.258 150.742 162.177 150.846 162.095 150.95C162.048 151.009 161.999 151.067 161.951 151.126C161.904 151.185 161.852 151.25 161.802 151.309L161.753 151.371C161.685 151.451 161.616 151.53 161.547 151.61L161.501 151.664C161.182 152.028 160.851 152.38 160.508 152.718L163.194 158.197L159.851 160.607L155.502 156.326C155.074 156.544 154.636 156.746 154.189 156.934C154.168 156.943 154.146 156.952 154.127 156.96C154.003 157.011 153.884 157.06 153.761 157.109L153.739 157.117L153.719 157.126C153.661 157.148 153.603 157.169 153.545 157.191C153.473 157.218 153.401 157.246 153.328 157.273C153.204 157.318 153.08 157.362 152.956 157.405L152.894 157.428C152.436 157.584 151.974 157.723 151.508 157.844L151.094 163.931L146.995 164.347L145.368 158.467C144.887 158.441 144.407 158.398 143.926 158.337L143.854 158.324ZM161.207 145.474C161.256 145.37 161.302 145.266 161.348 145.164C161.395 145.061 161.435 144.973 161.477 144.877L161.508 144.803C162.506 142.41 162.926 139.816 162.732 137.231L162.726 137.151C162.717 137.037 162.704 136.922 162.692 136.808C162.682 136.705 162.673 136.602 162.661 136.498L162.65 136.419C162.32 133.848 161.387 131.391 159.928 129.249L159.883 129.182C159.818 129.089 159.75 128.996 159.683 128.905C159.616 128.813 159.562 128.734 159.497 128.65L159.448 128.588C157.876 126.527 155.84 124.866 153.506 123.74L153.435 123.706C153.329 123.656 153.223 123.61 153.117 123.562C153.023 123.52 152.931 123.477 152.835 123.438C152.81 123.428 152.786 123.417 152.761 123.407C150.369 122.408 147.774 121.987 145.188 122.18L145.114 122.185C144.998 122.195 144.884 122.208 144.768 122.22C144.664 122.23 144.56 122.24 144.458 122.252L144.385 122.261C141.812 122.592 139.353 123.525 137.209 124.986C137.188 125 137.166 125.014 137.147 125.029C137.061 125.091 136.977 125.153 136.892 125.212C136.808 125.271 136.706 125.346 136.612 125.415C136.591 125.43 136.572 125.446 136.55 125.462C134.488 127.034 132.827 129.071 131.701 131.406L131.668 131.476C131.622 131.573 131.579 131.671 131.535 131.768C131.492 131.866 131.441 131.973 131.397 132.079L131.367 132.15C130.368 134.542 129.948 137.135 130.139 139.719L130.146 139.798C130.154 139.906 130.167 140.014 130.178 140.121C130.189 140.229 130.199 140.342 130.212 140.453L130.222 140.531C130.553 143.102 131.486 145.559 132.945 147.702L132.989 147.764C133.051 147.852 133.113 147.938 133.175 148.025C133.237 148.112 133.306 148.208 133.373 148.298L133.42 148.36C134.993 150.421 137.029 152.083 139.365 153.208C139.388 153.22 139.411 153.231 139.435 153.243C139.529 153.287 139.625 153.328 139.72 153.371C139.825 153.419 139.929 153.467 140.036 153.513C140.06 153.523 140.084 153.533 140.108 153.543C142.5 154.542 145.093 154.962 147.677 154.77C147.705 154.77 147.733 154.766 147.761 154.764C147.865 154.755 147.969 154.743 148.071 154.732C148.174 154.721 148.297 154.711 148.409 154.698C148.437 154.694 148.464 154.691 148.492 154.688C151.062 154.355 153.518 153.422 155.659 151.963L155.725 151.918C155.821 151.852 155.911 151.783 156.008 151.714C156.091 151.652 156.176 151.595 156.256 151.534C156.277 151.518 156.298 151.501 156.318 151.485C158.379 149.913 160.04 147.877 161.166 145.543L161.207 145.474Z" fill="white"/>
</mask>
<g mask="url(#mask1_166_14374)">
<path d="M172.936 77.2458L118.507 131.675" stroke="#B7DEFF" stroke-width="0.42" stroke-miterlimit="10"/>
<path d="M172.936 85.1806L118.507 139.61" stroke="#B7DEFF" stroke-width="0.42" stroke-miterlimit="10"/>
<path d="M172.936 93.1159L118.507 147.545" stroke="#B7DEFF" stroke-width="0.42" stroke-miterlimit="10"/>
<path d="M172.936 101.051L118.507 155.48" stroke="#B7DEFF" stroke-width="0.42" stroke-miterlimit="10"/>
<path d="M172.936 73.2781L118.507 127.707" stroke="#B7DEFF" stroke-width="0.42" stroke-miterlimit="10"/>
<path d="M172.936 81.2129L118.507 135.642" stroke="#B7DEFF" stroke-width="0.42" stroke-miterlimit="10"/>
<path d="M172.936 89.1484L118.507 143.577" stroke="#B7DEFF" stroke-width="0.42" stroke-miterlimit="10"/>
<path d="M172.936 97.0837L118.507 151.513" stroke="#B7DEFF" stroke-width="0.42" stroke-miterlimit="10"/>
<path d="M172.936 105.019L118.507 159.448" stroke="#B7DEFF" stroke-width="0.42" stroke-miterlimit="10"/>
<path d="M172.936 108.986L118.507 163.415" stroke="#B7DEFF" stroke-width="0.42" stroke-miterlimit="10"/>
<path d="M172.936 112.954L118.507 167.383" stroke="#B7DEFF" stroke-width="0.42" stroke-miterlimit="10"/>
<path d="M172.936 116.922L118.507 171.351" stroke="#B7DEFF" stroke-width="0.42" stroke-miterlimit="10"/>
<path d="M172.936 120.89L118.507 175.319" stroke="#B7DEFF" stroke-width="0.42" stroke-miterlimit="10"/>
<path d="M172.936 124.857L118.507 179.286" stroke="#B7DEFF" stroke-width="0.42" stroke-miterlimit="10"/>
<path d="M172.936 128.824L118.507 183.253" stroke="#B7DEFF" stroke-width="0.42" stroke-miterlimit="10"/>
<path d="M172.936 132.792L118.507 187.221" stroke="#B7DEFF" stroke-width="0.42" stroke-miterlimit="10"/>
<path d="M172.936 136.76L118.507 191.189" stroke="#B7DEFF" stroke-width="0.42" stroke-miterlimit="10"/>
<path d="M172.936 79.2295L118.507 133.658" stroke="#B7DEFF" stroke-width="0.42" stroke-miterlimit="10"/>
<path d="M172.936 87.1648L118.507 141.594" stroke="#B7DEFF" stroke-width="0.42" stroke-miterlimit="10"/>
<path d="M172.936 95.0996L118.507 149.529" stroke="#B7DEFF" stroke-width="0.42" stroke-miterlimit="10"/>
<path d="M172.936 103.035L118.507 157.464" stroke="#B7DEFF" stroke-width="0.42" stroke-miterlimit="10"/>
<path d="M172.936 110.97L118.507 165.399" stroke="#B7DEFF" stroke-width="0.42" stroke-miterlimit="10"/>
<path d="M172.936 118.905L118.507 173.334" stroke="#B7DEFF" stroke-width="0.42" stroke-miterlimit="10"/>
<path d="M172.936 126.841L118.507 181.27" stroke="#B7DEFF" stroke-width="0.42" stroke-miterlimit="10"/>
<path d="M172.936 75.2617L118.507 129.691" stroke="#B7DEFF" stroke-width="0.42" stroke-miterlimit="10"/>
<path d="M172.936 83.1972L118.507 137.626" stroke="#B7DEFF" stroke-width="0.42" stroke-miterlimit="10"/>
<path d="M172.936 91.1318L118.507 145.561" stroke="#B7DEFF" stroke-width="0.42" stroke-miterlimit="10"/>
<path d="M172.936 99.0674L118.507 153.496" stroke="#B7DEFF" stroke-width="0.42" stroke-miterlimit="10"/>
<path d="M172.936 107.003L118.507 161.432" stroke="#B7DEFF" stroke-width="0.42" stroke-miterlimit="10"/>
<path d="M172.936 114.938L118.507 169.367" stroke="#B7DEFF" stroke-width="0.42" stroke-miterlimit="10"/>
<path d="M172.936 122.873L118.507 177.302" stroke="#B7DEFF" stroke-width="0.42" stroke-miterlimit="10"/>
<path d="M172.936 130.809L118.507 185.238" stroke="#B7DEFF" stroke-width="0.42" stroke-miterlimit="10"/>
<path d="M172.936 134.776L118.507 189.205" stroke="#B7DEFF" stroke-width="0.42" stroke-miterlimit="10"/>
<path d="M172.936 138.743L118.507 193.172" stroke="#B7DEFF" stroke-width="0.42" stroke-miterlimit="10"/>
<path d="M172.936 140.728L118.507 195.156" stroke="#B7DEFF" stroke-width="0.42" stroke-miterlimit="10"/>
<path d="M172.936 142.711L118.507 197.14" stroke="#B7DEFF" stroke-width="0.42" stroke-miterlimit="10"/>
<path d="M172.936 144.695L118.507 199.124" stroke="#B7DEFF" stroke-width="0.42" stroke-miterlimit="10"/>
<path d="M172.936 146.679L118.507 201.108" stroke="#B7DEFF" stroke-width="0.42" stroke-miterlimit="10"/>
<path d="M172.936 148.663L118.507 203.092" stroke="#B7DEFF" stroke-width="0.42" stroke-miterlimit="10"/>
<path d="M172.936 150.647L118.507 205.076" stroke="#B7DEFF" stroke-width="0.42" stroke-miterlimit="10"/>
</g>
<path d="M143.853 158.324C143.723 158.307 143.593 158.289 143.463 158.269C143.386 158.258 143.31 158.245 143.234 158.233C143.157 158.22 143.082 158.209 143.006 158.196C142.876 158.173 142.747 158.148 142.618 158.124C142.595 158.119 142.573 158.116 142.55 158.111C142.515 158.104 142.48 158.098 142.445 158.091C142.124 158.025 141.805 157.952 141.488 157.872C141.372 157.842 141.257 157.81 141.141 157.779L137.74 162.843L133.982 161.154L135.512 155.248C135.109 154.985 134.715 154.707 134.329 154.415C134.31 154.401 134.292 154.386 134.274 154.372C134.17 154.292 134.066 154.212 133.964 154.13C133.902 154.082 133.844 154.033 133.785 153.985C133.725 153.936 133.664 153.887 133.605 153.837C133.504 153.754 133.404 153.669 133.305 153.581L133.253 153.536C132.888 153.217 132.537 152.886 132.198 152.543L126.72 155.229L124.31 151.886L128.591 147.537C128.374 147.108 128.171 146.67 127.983 146.224L127.956 146.162C127.906 146.041 127.857 145.92 127.808 145.797L127.726 145.581C127.698 145.509 127.67 145.437 127.644 145.364C127.599 145.24 127.555 145.116 127.512 144.992L127.489 144.926C127.334 144.468 127.195 144.006 127.073 143.541L120.986 143.127L120.57 139.028L126.45 137.4C126.476 136.92 126.519 136.439 126.58 135.958L126.589 135.891C126.603 135.786 126.616 135.681 126.631 135.576L126.644 135.5C126.655 135.423 126.668 135.347 126.68 135.27C126.693 135.194 126.704 135.118 126.717 135.043C126.74 134.913 126.764 134.784 126.789 134.655L126.799 134.6L126.802 134.587C126.896 134.111 127.007 133.642 127.134 133.178L122.07 129.777L123.76 126.018L129.665 127.549C129.731 127.449 129.796 127.348 129.863 127.249C130.046 126.979 130.236 126.712 130.433 126.45C130.454 126.422 130.477 126.394 130.495 126.366L130.503 126.355L130.537 126.311C130.618 126.207 130.698 126.103 130.78 126.001C130.828 125.939 130.877 125.882 130.925 125.822L131.073 125.642C131.09 125.622 131.105 125.602 131.122 125.58C131.19 125.498 131.26 125.419 131.329 125.339L131.374 125.287C131.693 124.922 132.024 124.571 132.367 124.232L129.681 118.753L133.024 116.344L137.373 120.625C137.801 120.407 138.239 120.204 138.686 120.017C138.707 120.007 138.73 119.999 138.752 119.989C138.872 119.939 138.993 119.889 139.115 119.842C139.188 119.813 139.261 119.786 139.333 119.759C139.406 119.731 139.476 119.704 139.548 119.678C139.672 119.632 139.796 119.588 139.92 119.545C139.941 119.538 139.961 119.53 139.982 119.523C140.44 119.367 140.902 119.228 141.369 119.106L141.782 113.019L145.882 112.604L147.508 118.484C147.989 118.51 148.469 118.553 148.95 118.613L149.018 118.623C149.148 118.639 149.279 118.657 149.409 118.677C149.486 118.688 149.562 118.701 149.638 118.714C149.715 118.726 149.79 118.738 149.866 118.751C149.996 118.773 150.125 118.798 150.254 118.823L150.322 118.836C150.797 118.93 151.267 119.041 151.731 119.168L155.132 114.103L158.894 115.791L157.363 121.697C157.766 121.959 158.16 122.237 158.546 122.53C158.565 122.544 158.583 122.559 158.601 122.572C158.706 122.652 158.809 122.732 158.912 122.815C158.974 122.863 159.031 122.912 159.091 122.96C159.15 123.008 159.211 123.058 159.271 123.108C159.372 123.192 159.471 123.278 159.57 123.364L159.623 123.409C159.987 123.728 160.339 124.058 160.677 124.401L166.156 121.716L168.564 125.059L164.283 129.408C164.501 129.837 164.704 130.275 164.892 130.722L164.917 130.784C164.968 130.905 165.018 131.028 165.066 131.152C165.095 131.222 165.122 131.294 165.149 131.366C165.176 131.437 165.204 131.51 165.231 131.584C165.276 131.708 165.32 131.832 165.362 131.956L165.385 132.023C165.542 132.482 165.68 132.943 165.802 133.408L171.889 133.822L172.304 137.921L166.425 139.549C166.399 140.029 166.356 140.509 166.295 140.99L166.286 141.059C166.272 141.164 166.259 141.269 166.243 141.373L166.232 141.449C166.22 141.526 166.207 141.602 166.194 141.679C166.182 141.756 166.17 141.831 166.157 141.907C166.135 142.036 166.111 142.165 166.085 142.294L166.075 142.349V142.363C165.981 142.838 165.871 143.307 165.743 143.771L170.808 147.172L169.118 150.931L163.212 149.4C162.95 149.803 162.672 150.197 162.379 150.584L162.371 150.595L162.339 150.636C162.258 150.742 162.177 150.846 162.094 150.95C162.047 151.009 161.999 151.067 161.951 151.126C161.903 151.185 161.852 151.25 161.802 151.309L161.753 151.371C161.685 151.451 161.616 151.53 161.547 151.61L161.501 151.664C161.182 152.028 160.851 152.38 160.508 152.718L163.194 158.197L159.851 160.607L155.502 156.326C155.074 156.544 154.636 156.746 154.189 156.934C154.168 156.943 154.146 156.952 154.127 156.96C154.003 157.011 153.883 157.06 153.761 157.109L153.739 157.117L153.718 157.126C153.661 157.148 153.602 157.169 153.545 157.191C153.473 157.218 153.401 157.246 153.328 157.273C153.204 157.318 153.08 157.362 152.956 157.405L152.894 157.428C152.436 157.584 151.974 157.723 151.508 157.844L151.094 163.931L146.995 164.347L145.367 158.467C144.887 158.441 144.407 158.398 143.926 158.337L143.853 158.324ZM161.207 145.474C161.256 145.37 161.302 145.266 161.348 145.164C161.395 145.061 161.435 144.973 161.476 144.877L161.507 144.803C162.506 142.41 162.925 139.816 162.732 137.231L162.726 137.151C162.717 137.037 162.704 136.922 162.692 136.808C162.681 136.705 162.673 136.602 162.66 136.498L162.65 136.419C162.319 133.848 161.387 131.391 159.928 129.249L159.883 129.182C159.817 129.089 159.75 128.996 159.683 128.905C159.616 128.813 159.562 128.734 159.497 128.65L159.448 128.588C157.876 126.527 155.84 124.866 153.506 123.74L153.434 123.706C153.329 123.656 153.223 123.61 153.117 123.562C153.023 123.52 152.93 123.477 152.835 123.438C152.81 123.428 152.786 123.417 152.761 123.407C150.369 122.408 147.774 121.987 145.188 122.18L145.114 122.185C144.998 122.195 144.883 122.208 144.768 122.22C144.664 122.23 144.559 122.24 144.458 122.252L144.385 122.261C141.811 122.592 139.353 123.525 137.208 124.986C137.187 125 137.166 125.014 137.146 125.029C137.061 125.091 136.976 125.153 136.892 125.212C136.808 125.271 136.706 125.346 136.612 125.415C136.591 125.43 136.571 125.446 136.55 125.462C134.488 127.034 132.827 129.071 131.701 131.406L131.667 131.476C131.621 131.573 131.579 131.671 131.535 131.768C131.492 131.866 131.441 131.973 131.397 132.079L131.367 132.15C130.368 134.542 129.948 137.135 130.139 139.719L130.145 139.798C130.154 139.906 130.166 140.014 130.178 140.121C130.189 140.229 130.199 140.342 130.212 140.453L130.222 140.531C130.553 143.102 131.486 145.559 132.945 147.702L132.989 147.764C133.051 147.852 133.113 147.938 133.175 148.025C133.237 148.112 133.305 148.208 133.373 148.298L133.42 148.36C134.992 150.421 137.029 152.083 139.365 153.208C139.388 153.22 139.411 153.231 139.435 153.243C139.529 153.287 139.624 153.328 139.719 153.371C139.825 153.419 139.929 153.467 140.036 153.513C140.059 153.523 140.084 153.533 140.108 153.543C142.499 154.542 145.093 154.962 147.677 154.77C147.705 154.77 147.733 154.766 147.761 154.764C147.865 154.755 147.969 154.743 148.071 154.732C148.174 154.721 148.296 154.711 148.409 154.698C148.437 154.694 148.464 154.691 148.492 154.688C151.062 154.355 153.518 153.422 155.659 151.963L155.725 151.918C155.821 151.852 155.911 151.783 156.007 151.714C156.091 151.652 156.175 151.595 156.255 151.534C156.277 151.518 156.298 151.501 156.317 151.485C158.378 149.913 160.039 147.877 161.166 145.543L161.207 145.474Z" stroke="#B7DEFF" stroke-width="0.84" stroke-linecap="round" stroke-linejoin="round"/>
<mask id="mask2_166_14374" style="mask-type:luminance" maskUnits="userSpaceOnUse" x="1" y="-2" width="104" height="9">
<path d="M1.00122 6.46786L1.00122 -1.77844L104.181 -1.77844V6.46786L1.00122 6.46786Z" fill="white"/>
</mask>
<g mask="url(#mask2_166_14374)">
<path d="M111.405 -115.766L-7.38025 3.01917" stroke="#B7DEFF" stroke-width="0.63" stroke-miterlimit="10"/>
<path d="M111.405 -98.448L-7.38025 20.337" stroke="#B7DEFF" stroke-width="0.63" stroke-miterlimit="10"/>
<path d="M111.405 -81.1303L-7.38025 37.6548" stroke="#B7DEFF" stroke-width="0.63" stroke-miterlimit="10"/>
<path d="M111.405 -107.107L-7.38025 11.6781" stroke="#B7DEFF" stroke-width="0.63" stroke-miterlimit="10"/>
<path d="M111.405 -89.7892L-7.38025 28.9958" stroke="#B7DEFF" stroke-width="0.63" stroke-miterlimit="10"/>
<path d="M111.405 -72.4713L-7.38025 46.3137" stroke="#B7DEFF" stroke-width="0.63" stroke-miterlimit="10"/>
<path d="M111.405 -63.8126L-7.38025 54.9724" stroke="#B7DEFF" stroke-width="0.63" stroke-miterlimit="10"/>
<path d="M111.405 -55.1542L-7.38025 63.6309" stroke="#B7DEFF" stroke-width="0.63" stroke-miterlimit="10"/>
<path d="M111.405 -46.4952L-7.38025 72.2898" stroke="#B7DEFF" stroke-width="0.63" stroke-miterlimit="10"/>
<path d="M111.405 -37.8358L-7.38025 80.9492" stroke="#B7DEFF" stroke-width="0.63" stroke-miterlimit="10"/>
<path d="M111.405 -29.1769L-7.38025 89.6082" stroke="#B7DEFF" stroke-width="0.63" stroke-miterlimit="10"/>
<path d="M111.405 -20.5179L-7.38025 98.2671" stroke="#B7DEFF" stroke-width="0.63" stroke-miterlimit="10"/>
<path d="M111.405 -11.8591L-7.38025 106.926" stroke="#B7DEFF" stroke-width="0.63" stroke-miterlimit="10"/>
<path d="M111.405 -3.20008L-7.38025 115.585" stroke="#B7DEFF" stroke-width="0.63" stroke-miterlimit="10"/>
<path d="M111.405 -111.436L-7.38025 7.34863" stroke="#B7DEFF" stroke-width="0.63" stroke-miterlimit="10"/>
<path d="M111.405 -94.1193L-7.38025 24.6658" stroke="#B7DEFF" stroke-width="0.63" stroke-miterlimit="10"/>
<path d="M111.405 -76.8008L-7.38025 41.9843" stroke="#B7DEFF" stroke-width="0.63" stroke-miterlimit="10"/>
<path d="M111.405 -59.483L-7.38025 59.302" stroke="#B7DEFF" stroke-width="0.63" stroke-miterlimit="10"/>
<path d="M111.405 -42.1652L-7.38025 76.6199" stroke="#B7DEFF" stroke-width="0.63" stroke-miterlimit="10"/>
<path d="M111.405 -24.8474L-7.38025 93.9376" stroke="#B7DEFF" stroke-width="0.63" stroke-miterlimit="10"/>
<path d="M111.405 -102.778L-7.38025 16.007" stroke="#B7DEFF" stroke-width="0.63" stroke-miterlimit="10"/>
<path d="M111.405 -85.4597L-7.38025 33.3253" stroke="#B7DEFF" stroke-width="0.63" stroke-miterlimit="10"/>
<path d="M111.405 -68.1418L-7.38025 50.6432" stroke="#B7DEFF" stroke-width="0.63" stroke-miterlimit="10"/>
<path d="M111.405 -50.8241L-7.38025 67.9609" stroke="#B7DEFF" stroke-width="0.63" stroke-miterlimit="10"/>
<path d="M111.405 -33.5064L-7.38025 85.2787" stroke="#B7DEFF" stroke-width="0.63" stroke-miterlimit="10"/>
<path d="M111.405 -16.1892L-7.38025 102.596" stroke="#B7DEFF" stroke-width="0.63" stroke-miterlimit="10"/>
<path d="M111.405 -7.53028L-7.38025 111.255" stroke="#B7DEFF" stroke-width="0.63" stroke-miterlimit="10"/>
<path d="M111.405 1.12927L-7.38025 119.914" stroke="#B7DEFF" stroke-width="0.63" stroke-miterlimit="10"/>
<path d="M111.405 5.45886L-7.38025 124.244" stroke="#B7DEFF" stroke-width="0.63" stroke-miterlimit="10"/>
</g>
<path d="M1.00003 -1.77857V6.46899L104.18 6.46899V-1.77732" stroke="#B7DEFF" stroke-width="0.63" stroke-miterlimit="10"/>
<mask id="mask3_166_14374" style="mask-type:luminance" maskUnits="userSpaceOnUse" x="205" y="184" width="15" height="105">
<path d="M205.846 184.869H219.302L219.302 288.049H205.846L205.846 184.869Z" fill="white"/>
</mask>
<g mask="url(#mask3_166_14374)">
<path d="M333.29 295.273L214.505 176.488" stroke="#B7DEFF" stroke-width="0.63" stroke-miterlimit="10"/>
<path d="M315.972 295.273L197.187 176.488" stroke="#B7DEFF" stroke-width="0.63" stroke-miterlimit="10"/>
<path d="M298.654 295.273L179.869 176.488" stroke="#B7DEFF" stroke-width="0.63" stroke-miterlimit="10"/>
<path d="M324.631 295.273L205.846 176.488" stroke="#B7DEFF" stroke-width="0.63" stroke-miterlimit="10"/>
<path d="M307.313 295.273L188.528 176.488" stroke="#B7DEFF" stroke-width="0.63" stroke-miterlimit="10"/>
<path d="M289.995 295.273L171.21 176.488" stroke="#B7DEFF" stroke-width="0.63" stroke-miterlimit="10"/>
<path d="M281.337 295.273L162.552 176.488" stroke="#B7DEFF" stroke-width="0.63" stroke-miterlimit="10"/>
<path d="M272.678 295.273L153.893 176.488" stroke="#B7DEFF" stroke-width="0.63" stroke-miterlimit="10"/>
<path d="M264.019 295.273L145.234 176.488" stroke="#B7DEFF" stroke-width="0.63" stroke-miterlimit="10"/>
<path d="M255.36 295.273L136.575 176.488" stroke="#B7DEFF" stroke-width="0.63" stroke-miterlimit="10"/>
<path d="M246.701 295.273L127.916 176.488" stroke="#B7DEFF" stroke-width="0.63" stroke-miterlimit="10"/>
<path d="M238.042 295.273L119.257 176.488" stroke="#B7DEFF" stroke-width="0.63" stroke-miterlimit="10"/>
<path d="M229.383 295.273L110.598 176.488" stroke="#B7DEFF" stroke-width="0.63" stroke-miterlimit="10"/>
<path d="M220.725 295.273L101.94 176.488" stroke="#B7DEFF" stroke-width="0.63" stroke-miterlimit="10"/>
<path d="M328.961 295.273L210.176 176.488" stroke="#B7DEFF" stroke-width="0.63" stroke-miterlimit="10"/>
<path d="M311.643 295.273L192.858 176.488" stroke="#B7DEFF" stroke-width="0.63" stroke-miterlimit="10"/>
<path d="M294.325 295.273L175.54 176.488" stroke="#B7DEFF" stroke-width="0.63" stroke-miterlimit="10"/>
<path d="M277.007 295.273L158.222 176.488" stroke="#B7DEFF" stroke-width="0.63" stroke-miterlimit="10"/>
<path d="M259.689 295.273L140.904 176.488" stroke="#B7DEFF" stroke-width="0.63" stroke-miterlimit="10"/>
<path d="M242.372 295.273L123.587 176.488" stroke="#B7DEFF" stroke-width="0.63" stroke-miterlimit="10"/>
<path d="M337.62 295.273L218.835 176.488" stroke="#B7DEFF" stroke-width="0.63" stroke-miterlimit="10"/>
<path d="M320.302 295.273L201.517 176.488" stroke="#B7DEFF" stroke-width="0.63" stroke-miterlimit="10"/>
<path d="M302.984 295.273L184.199 176.488" stroke="#B7DEFF" stroke-width="0.63" stroke-miterlimit="10"/>
<path d="M285.666 295.273L166.881 176.488" stroke="#B7DEFF" stroke-width="0.63" stroke-miterlimit="10"/>
<path d="M268.348 295.273L149.563 176.488" stroke="#B7DEFF" stroke-width="0.63" stroke-miterlimit="10"/>
<path d="M251.031 295.273L132.245 176.488" stroke="#B7DEFF" stroke-width="0.63" stroke-miterlimit="10"/>
<path d="M233.713 295.273L114.928 176.488" stroke="#B7DEFF" stroke-width="0.63" stroke-miterlimit="10"/>
<path d="M225.054 295.273L106.269 176.488" stroke="#B7DEFF" stroke-width="0.63" stroke-miterlimit="10"/>
<path d="M216.395 295.273L97.6097 176.488" stroke="#B7DEFF" stroke-width="0.63" stroke-miterlimit="10"/>
<path d="M212.065 295.273L93.2804 176.488" stroke="#B7DEFF" stroke-width="0.63" stroke-miterlimit="10"/>
<path d="M207.736 295.273L88.9508 176.488" stroke="#B7DEFF" stroke-width="0.63" stroke-miterlimit="10"/>
</g>
<path d="M219.302 184.869H205.845L205.845 288.048H219.302" stroke="#B7DEFF" stroke-width="0.63" stroke-miterlimit="10"/>
<path d="M143.498 4.51644C143.396 4.53258 143.293 4.54621 143.188 4.55738C143.137 4.56296 143.086 4.56796 143.034 4.5723C142.932 4.58099 142.829 4.58717 142.724 4.59089H142.67C142.631 4.59089 142.592 4.59089 142.553 4.59089C142.513 4.59089 142.474 4.59089 142.435 4.59089H142.412C142.025 4.5866 141.639 4.54675 141.259 4.4718L139.519 6.36475L137.051 4.97185L137.773 2.50372C137.693 2.41561 137.616 2.32565 137.541 2.23382C137.476 2.1511 137.414 2.0684 137.354 1.98567C137.324 1.9441 137.292 1.9019 137.265 1.86157C137.202 1.77657 137.149 1.69094 137.095 1.60346L137.078 1.57741L137.067 1.55817L137.005 1.45766L136.946 1.35591L136.934 1.33607L136.92 1.30876C136.844 1.17434 136.774 1.03682 136.709 0.896184C136.616 0.693835 136.533 0.486738 136.461 0.275741L133.951 -0.282673L133.924 -3.1156L136.423 -3.72491C136.49 -3.93563 136.569 -4.14271 136.658 -4.34535C136.721 -4.48764 136.788 -4.62662 136.861 -4.76229L136.876 -4.78956L136.887 -4.80944L136.943 -4.9124L136.951 -4.92732L137.002 -5.01416L137.013 -5.03339C137.045 -5.08675 137.075 -5.13949 137.11 -5.19161C137.145 -5.24373 137.165 -5.2785 137.194 -5.32131C137.346 -5.54888 137.513 -5.76647 137.693 -5.97277L136.924 -8.42659L139.364 -9.86667L141.141 -8.00534C141.302 -8.04008 141.464 -8.06738 141.626 -8.09096C141.683 -8.09903 141.74 -8.10645 141.798 -8.11266C141.898 -8.12321 141.997 -8.13192 142.097 -8.1375H142.112C142.174 -8.14122 142.232 -8.14371 142.291 -8.14557H142.314C142.347 -8.14557 142.381 -8.14557 142.414 -8.14557H142.432C142.471 -8.14557 142.51 -8.14557 142.549 -8.14557H142.571C142.958 -8.14103 143.345 -8.10115 143.725 -8.02643L145.465 -9.91938L147.932 -8.52649L147.211 -6.05774C147.395 -5.85521 147.566 -5.64091 147.723 -5.41621C147.781 -5.33183 147.838 -5.24622 147.893 -5.15874L147.909 -5.13269L147.921 -5.11159C147.942 -5.07892 147.963 -5.04603 147.983 -5.01294C148.004 -4.97882 148.023 -4.94407 148.045 -4.90994L148.056 -4.89131L148.071 -4.86404C148.147 -4.72961 148.217 -4.59206 148.282 -4.45143C148.375 -4.24914 148.458 -4.04204 148.53 -3.83098L151.04 -3.27261L151.067 -0.439033L148.568 0.169632C148.501 0.380536 148.422 0.587651 148.333 0.790075C148.271 0.932364 148.203 1.07134 148.13 1.20701L148.115 1.23492L148.106 1.25355C148.086 1.2883 148.068 1.32304 148.048 1.35716L148.04 1.37204C148.024 1.4012 148.007 1.42973 147.989 1.45827L147.978 1.47876C147.78 1.81201 147.551 2.12625 147.295 2.41749L148.065 4.87135L145.624 6.31199L143.847 4.45067C143.729 4.47548 143.613 4.49783 143.498 4.51644ZM145.99 0.102605L145.998 0.0852609C146.293 -0.470531 146.452 -1.08813 146.463 -1.71714V-1.82075V-1.89645V-1.91569C146.441 -2.5443 146.271 -3.15884 145.967 -3.70939L145.958 -3.72612L145.915 -3.79811C145.902 -3.81983 145.89 -3.84215 145.876 -3.86014L145.866 -3.87692C145.531 -4.40958 145.076 -4.85593 144.537 -5.17983L144.521 -5.18915C144.496 -5.20342 144.472 -5.21704 144.448 -5.23069L144.382 -5.26795L144.364 -5.27723C143.808 -5.57159 143.19 -5.73062 142.561 -5.74135H142.542C142.514 -5.74135 142.486 -5.74135 142.458 -5.74135C142.43 -5.74135 142.408 -5.74135 142.383 -5.74135H142.363C141.734 -5.71961 141.12 -5.5495 140.569 -5.24497L140.553 -5.23629C140.529 -5.22264 140.504 -5.20774 140.48 -5.19347L140.415 -5.15503L140.4 -5.14507C139.867 -4.81051 139.42 -4.35472 139.097 -3.81485L139.087 -3.79936L139.05 -3.73298L139.009 -3.65974L139 -3.643C138.705 -3.0869 138.546 -2.46917 138.535 -1.83999V-1.82075C138.535 -1.79469 138.535 -1.76865 138.535 -1.74259V-1.64205C138.558 -1.01297 138.729 -0.398223 139.035 0.152251L139.044 0.168989L139.084 0.236622L139.125 0.306112L139.135 0.322244C139.47 0.855211 139.925 1.30167 140.465 1.6252L140.481 1.63512C140.503 1.64815 140.526 1.66054 140.549 1.67295C140.571 1.68536 140.596 1.70027 140.62 1.71392L140.637 1.7226C141.193 2.01712 141.811 2.17635 142.44 2.18732H142.459C142.485 2.18732 142.51 2.18732 142.536 2.18732C142.561 2.18732 142.592 2.18732 142.62 2.18732H142.638C143.267 2.16423 143.882 1.99307 144.432 1.68783L144.449 1.67791C144.471 1.66612 144.493 1.65311 144.511 1.64008C144.53 1.62705 144.56 1.61214 144.583 1.59725L144.601 1.58672C145.133 1.25254 145.58 0.797441 145.904 0.258359L145.913 0.241583C145.928 0.216765 145.942 0.191951 145.956 0.167133L145.99 0.102605Z" fill="#B7DEFF"/>
<path d="M191.398 88.4687C209.416 70.4509 238.628 70.4509 256.646 88.4687C274.664 106.486 274.664 135.699 256.646 153.717C238.629 171.735 209.416 171.735 191.398 153.717C173.38 135.699 173.38 106.486 191.398 88.4687Z" stroke="#B7DEFF" stroke-width="0.42" stroke-miterlimit="10"/>
<path d="M70.4783 32.2043C70.4783 10.7091 87.9036 -6.71613 109.399 -6.71613C130.894 -6.71613 148.319 10.7091 148.319 32.2043C148.319 53.6994 130.894 71.1246 109.399 71.1246C87.9036 71.1246 70.4783 53.6994 70.4783 32.2043Z" stroke="#B7DEFF" stroke-width="0.21" stroke-miterlimit="10"/>
<path d="M160.533 57.6033C195.597 22.5394 252.447 22.5394 287.511 57.6033C322.575 92.6672 322.575 149.517 287.511 184.581C252.447 219.645 195.597 219.645 160.533 184.581C125.469 149.517 125.469 92.6672 160.533 57.6033Z" stroke="#B7DEFF" stroke-width="0.21" stroke-miterlimit="10"/>
<path d="M104.011 -1.28994C122.509 -4.26579 139.917 8.31756 142.893 26.8158C145.869 45.3139 133.285 62.7221 114.787 65.6979C96.289 68.6738 78.8808 56.0904 75.905 37.5922C72.9291 19.0941 85.5125 1.6859 104.011 -1.28994Z" stroke="#B7DEFF" stroke-width="1.679" stroke-miterlimit="10"/>
<path d="M219.3 184.867H173.927V238.292H219.3" stroke="#B7DEFF" stroke-width="0.63" stroke-miterlimit="10"/>
<path d="M125.117 -1.77795L125.117 110.431L219.3 110.431" stroke="#B7DEFF" stroke-width="0.42" stroke-miterlimit="10"/>
<path d="M36.1781 -1.77867L36.1781 79.8239L219.298 79.8239" stroke="#B7DEFF" stroke-width="0.42" stroke-miterlimit="10"/>
</svg>
