<svg width="48" height="48" viewBox="0 0 48 48" fill="none" xmlns="http://www.w3.org/2000/svg">
<path d="M17 28.5C17 32.34 20.16 35.5 24 35.5C27.84 35.5 31 32.34 31 28.5" stroke="#FFB635" stroke-width="3" stroke-miterlimit="10" stroke-linecap="round" stroke-linejoin="round"/>
<path d="M17.6201 4L10.3801 11.26" stroke="#FFB635" stroke-width="3" stroke-miterlimit="10" stroke-linecap="round" stroke-linejoin="round"/>
<path d="M30.3801 4L37.6201 11.26" stroke="#FFB635" stroke-width="3" stroke-miterlimit="10" stroke-linecap="round" stroke-linejoin="round"/>
<path d="M4 15.7C4 12 5.98 11.7 8.44 11.7H39.56C42.02 11.7 44 12 44 15.7C44 20 42.02 19.7 39.56 19.7H8.44C5.98 19.7 4 20 4 15.7Z" stroke="#FFB635" stroke-width="3"/>
<path d="M7 20L9.82 37.28C10.46 41.16 12 44 17.72 44H29.78C36 44 36.92 41.28 37.64 37.52L41 20" stroke="#FFB635" stroke-width="3" stroke-linecap="round"/>
</svg>
