<svg width="289" height="393" viewBox="0 0 289 393" fill="none" xmlns="http://www.w3.org/2000/svg">
<path d="M117.259 154.498C117.352 154.487 117.446 154.476 117.539 154.463C117.594 154.456 117.649 154.447 117.704 154.44C117.759 154.432 117.813 154.424 117.867 154.415C117.96 154.401 118.053 154.385 118.145 154.369L118.195 154.36C118.22 154.356 118.245 154.352 118.273 154.347C118.505 154.304 118.734 154.255 118.961 154.201C119.044 154.181 119.128 154.16 119.211 154.138L121.588 157.804L124.298 156.638L123.27 152.391C123.562 152.208 123.847 152.014 124.127 151.809L124.167 151.779C124.245 151.722 124.318 151.667 124.392 151.609C124.436 151.576 124.479 151.541 124.522 151.506C124.565 151.472 124.609 151.438 124.652 151.404C124.726 151.344 124.798 151.283 124.871 151.223L124.907 151.192C125.173 150.967 125.428 150.735 125.674 150.493L129.565 152.479L131.329 150.114L128.316 146.951C128.477 146.646 128.627 146.335 128.766 146.018L128.786 145.972C128.824 145.886 128.865 145.8 128.897 145.712L128.958 145.555L129.019 145.398C129.053 145.31 129.085 145.222 129.118 145.134L129.135 145.087C129.252 144.76 129.357 144.431 129.449 144.099L133.812 143.873L134.157 140.943L129.966 139.71C129.953 139.365 129.927 139.021 129.887 138.676L129.882 138.628L129.855 138.402L129.847 138.347L129.824 138.182L129.799 138.019C129.784 137.926 129.769 137.834 129.752 137.741L129.745 137.702V137.691C129.683 137.351 129.609 137.013 129.524 136.679L133.189 134.303L132.022 131.592L127.776 132.62C127.731 132.548 127.685 132.475 127.638 132.403C127.51 132.207 127.377 132.014 127.239 131.824L127.194 131.763L127.188 131.755L127.164 131.724C127.108 131.647 127.052 131.572 126.994 131.498L126.892 131.368C126.857 131.325 126.824 131.281 126.788 131.238L126.754 131.195C126.706 131.136 126.657 131.078 126.608 131.02L126.577 130.982C126.352 130.717 126.12 130.462 125.879 130.216L127.864 126.325L125.499 124.561L122.336 127.574C122.031 127.413 121.72 127.263 121.403 127.124L121.356 127.103C121.27 127.066 121.184 127.029 121.097 126.994C121.046 126.972 120.994 126.952 120.94 126.931L120.783 126.872C120.695 126.837 120.606 126.804 120.517 126.772L120.472 126.755C120.145 126.639 119.816 126.534 119.484 126.441L119.258 122.078L116.328 121.733L115.095 125.924C114.751 125.937 114.407 125.963 114.062 126.003L114.013 126.009C113.92 126.019 113.826 126.03 113.733 126.043L113.568 126.067C113.513 126.075 113.459 126.082 113.404 126.091C113.311 126.106 113.218 126.122 113.126 126.138L113.077 126.147C112.736 126.209 112.398 126.283 112.065 126.368L109.688 122.703L106.977 123.869L108.005 128.115C107.714 128.298 107.427 128.492 107.149 128.698L107.109 128.728C107.03 128.784 106.958 128.84 106.883 128.898C106.839 128.931 106.796 128.966 106.753 129L106.623 129.103C106.549 129.162 106.477 129.223 106.405 129.283L106.367 129.315C106.103 129.539 105.847 129.772 105.601 130.013L101.71 128.027L99.9459 130.393L102.959 133.556C102.798 133.86 102.648 134.171 102.508 134.489L102.489 134.533C102.452 134.62 102.411 134.707 102.379 134.795C102.358 134.845 102.338 134.897 102.317 134.948C102.297 134.999 102.276 135.05 102.256 135.105C102.222 135.193 102.189 135.281 102.158 135.368L102.14 135.416C102.023 135.742 101.919 136.072 101.826 136.404L97.4635 136.63L97.1188 139.56L101.309 140.793C101.322 141.137 101.348 141.481 101.388 141.826L101.393 141.876C101.402 141.954 101.41 142.025 101.42 142.101L101.428 142.155C101.435 142.211 101.443 142.265 101.451 142.321L101.476 142.483C101.49 142.577 101.506 142.669 101.523 142.762L101.529 142.801V142.811C101.591 143.152 101.665 143.49 101.751 143.823L98.0855 146.2L99.2517 148.91L103.498 147.882C103.682 148.174 103.876 148.46 104.081 148.74L104.087 148.748L104.11 148.778C104.166 148.856 104.223 148.93 104.281 149.005C104.314 149.048 104.347 149.091 104.381 149.133C104.415 149.176 104.451 149.222 104.486 149.265L104.52 149.308L104.665 149.482L104.698 149.521C104.921 149.786 105.154 150.041 105.396 150.287L103.41 154.178L105.775 155.942L108.938 152.929C109.243 153.09 109.554 153.24 109.871 153.379L109.917 153.399C110.003 153.436 110.09 153.478 110.178 153.509L110.193 153.516L110.207 153.522C110.248 153.539 110.286 153.554 110.331 153.571C110.375 153.587 110.434 153.612 110.488 153.631C110.577 153.665 110.664 153.698 110.753 153.73L110.8 153.748C111.126 153.864 111.455 153.969 111.787 154.062L112.013 158.424L114.944 158.769L116.176 154.579C116.52 154.565 116.864 154.539 117.209 154.5L117.259 154.498ZM104.982 145.098C104.948 145.023 104.917 144.948 104.885 144.872C104.852 144.797 104.825 144.736 104.797 144.666L104.775 144.612C104.087 142.889 103.816 141.027 103.983 139.179L103.989 139.121C103.996 139.043 104.007 138.958 104.017 138.876C104.026 138.795 104.033 138.728 104.044 138.655L104.051 138.598C104.318 136.76 105.014 135.011 106.083 133.493L106.116 133.447C106.164 133.38 106.213 133.315 106.263 133.25C106.312 133.185 106.351 133.129 106.397 133.07L106.432 133.024C107.582 131.567 109.059 130.401 110.743 129.622L110.795 129.598C110.873 129.564 110.947 129.532 111.023 129.499C111.1 129.466 111.158 129.44 111.227 129.412L111.279 129.391C113.004 128.703 114.867 128.431 116.716 128.599L116.769 128.604C116.848 128.613 116.934 128.623 117.016 128.633C117.098 128.643 117.165 128.649 117.24 128.66L117.292 128.667C119.13 128.933 120.879 129.63 122.397 130.7L122.442 130.732C122.503 130.776 122.563 130.822 122.622 130.866C122.682 130.911 122.755 130.964 122.82 131.014L122.864 131.049C124.322 132.198 125.488 133.675 126.268 135.36L126.29 135.411C126.322 135.481 126.352 135.551 126.382 135.622C126.411 135.693 126.447 135.77 126.477 135.844L126.498 135.895C127.186 137.619 127.457 139.482 127.289 141.33L127.285 141.387C127.277 141.466 127.267 141.544 127.257 141.618C127.248 141.692 127.24 141.775 127.229 141.854L127.221 141.909C126.955 143.747 126.258 145.496 125.189 147.014L125.156 147.059C125.112 147.122 125.065 147.183 125.019 147.244C124.973 147.305 124.924 147.373 124.875 147.437L124.84 147.482C123.69 148.939 122.213 150.105 120.529 150.884L120.478 150.908C120.409 150.939 120.341 150.967 120.273 150.997C120.204 151.027 120.121 151.064 120.044 151.094L119.992 151.115C118.269 151.803 116.408 152.074 114.56 151.907L114.499 151.901C114.425 151.894 114.351 151.884 114.276 151.876C114.201 151.867 114.115 151.857 114.035 151.846L113.976 151.838C112.14 151.572 110.393 150.876 108.876 149.807L108.83 149.774C108.762 149.725 108.696 149.675 108.63 149.626C108.563 149.576 108.511 149.538 108.452 149.493L108.408 149.458C106.95 148.309 105.784 146.832 105.005 145.147L104.982 145.098Z" stroke="#B7DEFF" stroke-width="0.42" stroke-miterlimit="10"/>
<path d="M243.902 76.7739C243.995 76.7629 244.089 76.7519 244.182 76.7393C244.237 76.7323 244.292 76.7236 244.347 76.7158C244.402 76.7079 244.456 76.7001 244.51 76.6914C244.603 76.6773 244.696 76.6616 244.789 76.6451L244.837 76.6365C244.862 76.6318 244.888 76.6278 244.916 76.6231C245.147 76.5802 245.376 76.5315 245.604 76.477C245.687 76.4574 245.77 76.4362 245.853 76.415L248.23 80.08L250.94 78.9138L249.913 74.6677C250.204 74.485 250.49 74.2907 250.77 74.085L250.809 74.0552C250.887 73.9994 250.96 73.9429 251.034 73.8847C251.078 73.8518 251.121 73.8172 251.165 73.7835L251.295 73.6798C251.369 73.6201 251.441 73.5597 251.513 73.4992L251.55 73.4686C251.815 73.244 252.071 73.011 252.317 72.7696L256.208 74.7556L257.972 72.3903L254.958 69.2271C255.12 68.923 255.27 68.6119 255.409 68.2942L255.429 68.2486C255.466 68.1622 255.507 68.0759 255.539 67.9887L255.601 67.8316L255.661 67.6746C255.696 67.5866 255.728 67.4979 255.76 67.4099L255.777 67.3628C255.894 67.0369 255.999 66.7071 256.092 66.3757L260.454 66.1495L260.799 63.2195L256.608 61.9866C256.595 61.6427 256.569 61.2979 256.53 60.9524L256.524 60.9045C256.516 60.8259 256.508 60.7537 256.498 60.6783L256.49 60.6241C256.483 60.5684 256.474 60.5134 256.466 60.4584L256.443 60.2951C256.428 60.2024 256.412 60.1097 256.395 60.0171L256.388 59.9778V59.9684C256.326 59.627 256.252 59.2896 256.167 58.9561L259.832 56.579L258.666 53.8681L254.42 54.8961C254.374 54.8239 254.328 54.7516 254.281 54.6794C254.154 54.4841 254.021 54.2912 253.882 54.1006L253.837 54.0394L253.831 54.0315L253.807 54.0001C253.751 53.9216 253.695 53.8485 253.637 53.7739C253.604 53.7307 253.569 53.6875 253.535 53.6444L253.432 53.514L253.397 53.4708C253.349 53.4119 253.301 53.3546 253.252 53.2965L253.22 53.258C252.996 52.9936 252.763 52.7384 252.522 52.4923L254.508 48.6011L252.139 46.8405L248.976 49.8537C248.672 49.6924 248.361 49.5422 248.043 49.4029L247.996 49.3825C247.91 49.3456 247.824 49.3087 247.737 49.2734L247.58 49.2105C247.53 49.1909 247.479 49.1705 247.428 49.1509C247.339 49.1163 247.251 49.0833 247.162 49.0511L247.117 49.0346C246.79 48.9179 246.461 48.8132 246.129 48.7205L245.903 44.3574L242.973 44.0126L241.74 48.2038C241.396 48.2174 241.051 48.2436 240.706 48.2823L240.658 48.2886C240.565 48.2988 240.471 48.3106 240.378 48.3231C240.322 48.3305 240.267 48.3383 240.213 48.3467C240.158 48.3546 240.104 48.3616 240.049 48.3703C239.956 48.3854 239.863 48.4011 239.771 48.4174L239.722 48.426C239.381 48.4878 239.043 48.5616 238.71 48.6475L236.333 44.9824L233.622 46.1486L234.65 50.3948C234.358 50.578 234.072 50.7722 233.793 50.9775L233.753 51.0073C233.674 51.0631 233.602 51.1196 233.527 51.1769L233.398 51.279L233.267 51.3827C233.194 51.4424 233.121 51.502 233.05 51.5625L233.012 51.5939C232.747 51.8185 232.491 52.0512 232.246 52.2921L228.355 50.3068L226.591 52.6722L229.604 55.8353C229.447 56.1392 229.29 56.451 229.153 56.7683L229.134 56.8123C229.097 56.8994 229.056 56.9866 229.023 57.0745L228.962 57.2269L228.9 57.384C228.867 57.4719 228.834 57.5599 228.802 57.6478L228.785 57.6957C228.668 58.0224 228.564 58.3515 228.471 58.6829L224.108 58.909L223.763 61.839L227.954 63.0719C227.967 63.4159 227.993 63.7603 228.033 64.1054L228.039 64.1548C228.048 64.2294 228.055 64.3049 228.066 64.3802L228.073 64.4344C228.081 64.4902 228.088 64.5451 228.097 64.6001L228.121 64.7627C228.136 64.8561 228.151 64.9488 228.168 65.0415L228.175 65.0807V65.0902C228.237 65.4315 228.311 65.7689 228.396 66.1024L224.731 68.4795L225.898 71.1849L230.145 70.164C230.328 70.4556 230.523 70.7412 230.729 71.0208L230.733 71.0286L230.757 71.0584C230.813 71.137 230.87 71.2108 230.928 71.2862C230.961 71.3294 230.995 71.3718 231.029 71.4142C231.062 71.4566 231.098 71.5029 231.134 71.5469L231.168 71.5893C231.215 71.6474 231.263 71.7048 231.312 71.7629L231.345 71.8021C231.569 72.067 231.802 72.3222 232.042 72.5678L230.057 76.459L232.422 78.2227L235.586 75.2096C235.89 75.3705 236.201 75.5237 236.519 75.6603L236.564 75.68C236.651 75.7169 236.737 75.7585 236.824 75.7899L236.84 75.797L236.855 75.8032C236.896 75.8197 236.937 75.8354 236.978 75.8519C237.019 75.8684 237.081 75.8928 237.135 75.9124C237.223 75.947 237.312 75.9791 237.4 76.0113L237.447 76.0286C237.773 76.1457 238.103 76.2501 238.434 76.3427L238.66 80.7051L241.59 81.0506L242.823 76.8595C243.167 76.8464 243.511 76.8202 243.856 76.7809L243.902 76.7739ZM231.625 67.3738C231.592 67.2992 231.56 67.2238 231.528 67.1492C231.496 67.0746 231.468 67.0118 231.439 66.9419L231.418 66.8885C230.731 65.1647 230.459 63.3032 230.627 61.455L230.632 61.3976C230.64 61.3191 230.651 61.2343 230.66 61.1526C230.67 61.0709 230.677 61.005 230.687 60.9312L230.695 60.8738C230.961 59.0361 231.657 57.2872 232.726 55.7694L232.759 55.723C232.807 55.6563 232.857 55.5919 232.905 55.5259C232.954 55.46 232.994 55.4058 233.041 55.3461L233.076 55.3006C234.225 53.8431 235.702 52.6773 237.386 51.8978L237.437 51.8743C237.516 51.8405 237.591 51.8083 237.667 51.7753C237.743 51.7423 237.802 51.7164 237.869 51.6881L237.923 51.667C239.647 50.9792 241.51 50.708 243.359 50.8754L243.412 50.8801C243.495 50.8887 243.577 50.899 243.659 50.9092C243.742 50.9194 243.809 50.9257 243.883 50.9359L243.936 50.9429C245.774 51.2098 247.522 51.9064 249.04 52.976L249.085 53.0083C249.146 53.0522 249.205 53.0978 249.266 53.1426C249.326 53.1873 249.398 53.2399 249.464 53.2902L249.507 53.3247C250.965 54.4739 252.131 55.9514 252.91 57.6368L252.934 57.6871C252.965 57.757 252.995 57.8277 253.025 57.8983C253.055 57.969 253.09 58.046 253.121 58.1206L253.141 58.1716C253.829 59.8962 254.1 61.7585 253.933 63.6075L253.927 63.6632C253.919 63.7418 253.91 63.8203 253.901 63.8941C253.891 63.9679 253.883 64.0512 253.872 64.1297L253.864 64.1855C253.598 66.0232 252.902 67.7722 251.832 69.2899L251.8 69.3355C251.755 69.3983 251.709 69.4588 251.662 69.52C251.616 69.5813 251.567 69.6496 251.518 69.7132L251.483 69.758C250.334 71.2157 248.856 72.3815 247.171 73.1607L247.121 73.1843C247.053 73.2149 246.984 73.2439 246.915 73.273C246.847 73.3021 246.764 73.3397 246.688 73.3712L246.636 73.3916C244.912 74.079 243.05 74.3502 241.202 74.1832L241.142 74.1776C241.064 74.1706 240.994 74.1604 240.919 74.1518C240.845 74.1431 240.762 74.1337 240.678 74.1227L240.619 74.114C238.783 73.8479 237.036 73.1521 235.52 72.0832L235.473 72.0503C235.405 72.0024 235.339 71.9514 235.273 71.9019C235.207 71.8524 235.154 71.8147 235.096 71.7692L235.051 71.7338C233.593 70.5848 232.427 69.1079 231.647 67.4233L231.625 67.3738Z" stroke="#B7DEFF" stroke-width="0.42" stroke-miterlimit="10"/>
<path d="M147.504 48.9333C147.377 48.9474 147.25 48.9624 147.123 48.9796C147.044 48.9899 146.973 49.0009 146.898 49.0119C146.824 49.0229 146.75 49.0331 146.676 49.0448C146.549 49.0645 146.422 49.0864 146.296 49.1092C146.274 49.1131 146.252 49.1163 146.229 49.1202C146.206 49.1242 146.161 49.132 146.127 49.1383C145.813 49.1969 145.501 49.2632 145.19 49.337C145.076 49.3645 144.963 49.3935 144.85 49.4226L141.611 44.428L137.92 46.0175L139.321 51.8036C138.923 52.0528 138.534 52.3174 138.153 52.5975L138.099 52.6384C137.996 52.7169 137.893 52.7907 137.792 52.8693L137.614 53.0083C137.555 53.0554 137.496 53.1017 137.437 53.1496C137.336 53.2281 137.238 53.3121 137.14 53.3954L137.089 53.4378C136.728 53.743 136.38 54.06 136.045 54.3888L130.742 51.6834L128.338 54.9032L132.445 59.2137C132.226 59.6283 132.021 60.0522 131.831 60.4851L131.804 60.5471C131.753 60.6649 131.703 60.7828 131.653 60.9021L131.569 61.111C131.542 61.1809 131.513 61.2508 131.491 61.3215C131.444 61.4408 131.399 61.5618 131.356 61.6819L131.333 61.7455C131.176 62.19 131.033 62.6384 130.905 63.0907L124.959 63.3986L124.488 67.3918L130.199 69.0724C130.217 69.5436 130.251 70.013 130.303 70.4805L130.311 70.5464C130.323 70.6493 130.334 70.7522 130.347 70.8542L130.357 70.9289C130.368 71.0074 130.379 71.0789 130.39 71.1535L130.423 71.3765C130.443 71.5029 130.464 71.6293 130.487 71.7558L130.496 71.8092V71.8225C130.58 72.2874 130.68 72.7471 130.797 73.2015L125.803 76.4409L127.392 80.1318L133.178 78.7316C133.24 78.8298 133.302 78.9288 133.367 79.0269C133.541 79.2929 133.722 79.5546 133.91 79.8122L133.972 79.8954L133.98 79.9065L134.013 79.9496C134.089 80.0544 134.167 80.1569 134.245 80.2575L134.384 80.4342L134.525 80.6124L134.571 80.6713C134.637 80.7499 134.703 80.8284 134.769 80.9069L134.812 80.9587C135.118 81.3195 135.435 81.6674 135.764 82.0024L133.058 87.3048L136.278 89.7086L140.588 85.6023C141.003 85.8211 141.427 86.0258 141.86 86.2163L141.924 86.2439C142.041 86.2962 142.159 86.3462 142.276 86.3938C142.347 86.4229 142.417 86.4504 142.488 86.4786C142.559 86.5069 142.626 86.5336 142.695 86.5572C142.816 86.6043 142.937 86.649 143.059 86.693C143.079 86.7001 143.1 86.708 143.12 86.715C143.565 86.8752 144.013 87.0182 144.466 87.1438L144.774 93.0886L148.767 93.5597L150.447 87.8482C150.918 87.8309 151.388 87.7964 151.856 87.7445L151.922 87.7367C152.049 87.7218 152.176 87.7069 152.303 87.6896C152.382 87.6794 152.453 87.6684 152.529 87.6574C152.604 87.6464 152.677 87.6362 152.751 87.6244C152.878 87.6048 153.005 87.5828 153.13 87.56C153.153 87.5561 153.175 87.5529 153.197 87.549C153.663 87.4642 154.123 87.3634 154.577 87.2467L157.816 92.2412L161.507 90.6517L160.106 84.8656C160.504 84.6164 160.893 84.3518 161.274 84.0717L161.328 84.0308C161.431 83.9523 161.534 83.8785 161.635 83.8L161.812 83.661C161.872 83.6139 161.931 83.5675 161.99 83.5196C162.09 83.4385 162.189 83.3568 162.287 83.2746L162.338 83.2314C162.699 82.9257 163.047 82.6087 163.382 82.2804L168.685 84.9858L171.088 81.766L166.986 77.4673C167.205 77.0527 167.41 76.6286 167.6 76.1951L167.626 76.1354C167.677 76.0169 167.728 75.8998 167.778 75.7789L167.861 75.5708L167.944 75.3595C167.991 75.2402 168.035 75.1239 168.079 74.9998L168.102 74.9355C168.259 74.4899 168.402 74.0415 168.53 73.5902L174.476 73.2824L174.947 69.2891L169.235 67.6086C169.218 67.1374 169.184 66.6681 169.132 66.2006L169.124 66.1338C169.112 66.0309 169.101 65.9288 169.088 65.8267L169.077 65.7482L169.045 65.5228L169.012 65.3006C168.992 65.1742 168.97 65.0477 168.948 64.9213L168.939 64.8679V64.8546C168.855 64.3897 168.754 63.93 168.637 63.4755L173.632 60.2362L172.042 56.5452L166.256 57.9454C166.006 57.5481 165.741 57.1588 165.461 56.7777L165.454 56.7675L165.423 56.7259C165.344 56.6222 165.266 56.5185 165.187 56.4164C165.142 56.3575 165.095 56.3002 165.05 56.2421L164.907 56.0615L164.86 56.0026C164.795 55.9241 164.729 55.8456 164.663 55.767L164.619 55.7136C164.313 55.3524 163.996 55.0045 163.668 54.6699L166.374 49.3676L163.15 46.9638L158.84 51.0701C158.425 50.8502 158.001 50.6455 157.568 50.456C157.548 50.4466 157.527 50.438 157.506 50.4293C157.388 50.3783 157.271 50.3272 157.152 50.2785L157.13 50.2691L157.11 50.2613C157.055 50.2385 156.998 50.2173 156.942 50.1945L156.733 50.1112C156.613 50.0657 156.492 50.021 156.371 49.977L156.309 49.9542C155.863 49.794 155.414 49.6511 154.962 49.5254L154.655 43.5807L150.661 43.1095L148.982 48.821C148.51 48.8383 148.041 48.8728 147.574 48.9247C147.549 48.9278 147.526 48.9302 147.504 48.9333ZM164.231 61.7424C164.277 61.8437 164.32 61.9466 164.363 62.0487C164.407 62.1508 164.442 62.2355 164.484 62.3306L164.514 62.4036C165.451 64.7527 165.82 67.2896 165.592 69.8082L165.585 69.8868C165.574 69.9983 165.56 70.1098 165.546 70.2213C165.532 70.3328 165.524 70.4223 165.511 70.5228L165.5 70.6014C165.136 73.1042 164.188 75.4861 162.732 77.5537L162.686 77.6173C162.621 77.7084 162.553 77.7963 162.486 77.8851C162.42 77.9738 162.366 78.05 162.304 78.1309L162.255 78.1929C160.689 80.1776 158.676 81.765 156.382 82.8262L156.311 82.8584C156.207 82.9055 156.103 82.9487 155.997 82.9935C155.891 83.0382 155.813 83.072 155.72 83.112L155.647 83.1411C153.297 84.0784 150.759 84.4481 148.24 84.2201L148.167 84.2131C148.054 84.2021 147.943 84.1871 147.83 84.1738C147.718 84.1604 147.627 84.1518 147.526 84.1377L147.454 84.1275C144.949 83.7646 142.565 82.8154 140.496 81.3569L140.434 81.3137C140.351 81.254 140.27 81.192 140.189 81.1307C140.107 81.0695 140.008 80.998 139.918 80.9289L139.86 80.8826C137.873 79.3163 136.284 77.3032 135.222 75.0069L135.19 74.9378C135.147 74.8428 135.107 74.7462 135.066 74.6504C135.025 74.5546 134.977 74.4486 134.936 74.3473L134.907 74.2774C133.97 71.9276 133.601 69.3898 133.829 66.8704L133.836 66.7919C133.846 66.6867 133.86 66.5822 133.872 66.4778C133.885 66.3733 133.897 66.2618 133.911 66.1542L133.922 66.0757C134.287 63.574 135.236 61.1937 136.694 59.1281L136.738 59.0661C136.798 58.9805 136.862 58.898 136.925 58.814C136.988 58.73 137.054 58.6373 137.122 58.5509L137.169 58.4905C138.736 56.5041 140.749 54.9153 143.045 53.8532L143.114 53.821C143.207 53.7794 143.3 53.7425 143.393 53.7001C143.487 53.6577 143.6 53.6098 143.708 53.5674C143.731 53.5572 143.755 53.5486 143.778 53.5391C146.127 52.6021 148.664 52.2324 151.182 52.4601L151.261 52.468C151.363 52.4774 151.463 52.4907 151.565 52.5033C151.667 52.5159 151.784 52.5276 151.894 52.5426L151.972 52.5536C154.474 52.9173 156.855 53.8657 158.921 55.3217L158.985 55.3665C159.077 55.4325 159.166 55.5008 159.257 55.5691C159.348 55.6374 159.419 55.6877 159.498 55.7497C159.519 55.7654 159.539 55.7819 159.56 55.7976C161.545 57.3642 163.133 59.3767 164.194 61.6717L164.231 61.7424Z" fill="#FFB635" fill-opacity="0.69"/>
<path d="M51.5492 296.504L51.5681 296.538M65.3093 296.548L65.2897 296.582M65.3313 288.644L65.3117 288.61M51.572 288.6L51.5916 288.567M57.9589 284.655L57.8984 284.659M53.6224 271.747C53.4858 271.778 53.3499 271.81 53.2141 271.845C53.1355 271.865 53.057 271.886 52.973 271.908C52.8889 271.929 52.8159 271.949 52.7374 271.971C52.6013 272.009 52.4662 272.048 52.3322 272.088C52.3086 272.095 52.2851 272.101 52.2615 272.109C52.2254 272.12 52.1885 272.13 52.1523 272.141C51.6945 272.282 51.2437 272.439 50.7993 272.612L46.6552 267.586L42.8379 269.775L45.0807 275.891C44.6802 276.212 44.2901 276.548 43.9106 276.9L43.8556 276.952C43.7535 277.047 43.6514 277.143 43.5509 277.241C43.492 277.298 43.4339 277.357 43.3758 277.414C43.3177 277.471 43.258 277.53 43.1999 277.589C43.1009 277.69 43.0043 277.792 42.9078 277.894L42.8575 277.947C42.5031 278.323 42.1643 278.711 41.8413 279.11L35.7387 276.828L33.5249 280.625L38.5258 284.801C38.4158 285.082 38.3111 285.365 38.2116 285.652C38.1425 285.853 38.0781 286.056 38.0153 286.26L37.9933 286.333C37.9525 286.466 37.9148 286.6 37.874 286.735L37.8088 286.97C37.7876 287.049 37.7656 287.127 37.7452 287.206C37.709 287.343 37.6761 287.48 37.6431 287.618L37.6266 287.687C37.5083 288.191 37.4088 288.697 37.3282 289.204L30.9036 290.284L30.8903 294.682L37.3085 295.798C37.386 296.305 37.4824 296.811 37.5975 297.316L37.614 297.387C37.6392 297.497 37.6643 297.607 37.6926 297.717L37.7138 297.796C37.7334 297.874 37.7554 297.953 37.7766 298.036L37.8402 298.272C37.8771 298.407 37.9187 298.542 37.9564 298.676L37.9737 298.733V298.747C38.1229 299.243 38.2896 299.73 38.4739 300.209L33.448 304.353L35.6358 308.171L41.7526 305.928C42.074 306.328 42.4104 306.718 42.7617 307.099L42.7711 307.109L42.8127 307.153C42.9085 307.255 43.0043 307.357 43.1025 307.457C43.1598 307.516 43.2179 307.574 43.2753 307.633C43.3326 307.691 43.3923 307.75 43.4512 307.808C43.4708 307.828 43.4897 307.848 43.5093 307.867C43.5878 307.945 43.6726 308.024 43.7551 308.102C43.7724 308.119 43.7904 308.136 43.8077 308.152C44.1847 308.507 44.5729 308.847 44.9723 309.173L42.6934 315.279L46.4974 317.491L50.6728 312.49C51.1513 312.677 51.6377 312.846 52.1319 312.999L52.2026 313.02C52.3366 313.061 52.4712 313.101 52.6062 313.14C52.6848 313.163 52.7633 313.184 52.8465 313.206C52.9094 313.222 52.9722 313.241 53.0358 313.258L53.0586 313.263L53.0837 313.269C53.2196 313.305 53.3562 313.338 53.4928 313.371C53.5164 313.376 53.5408 313.383 53.5643 313.388C54.0685 313.506 54.5739 313.605 55.0807 313.686L56.1558 320.112L60.5535 320.126L61.6686 313.707C62.1759 313.629 62.6819 313.533 63.1866 313.419C63.2118 313.413 63.2353 313.407 63.2604 313.401C63.3963 313.37 63.5322 313.338 63.668 313.303C63.7466 313.283 63.8298 313.261 63.9107 313.24C63.9916 313.218 64.0677 313.198 64.1463 313.177C64.2821 313.139 64.418 313.098 64.5531 313.059C64.5758 313.052 64.5986 313.046 64.6214 313.039C65.1172 312.889 65.6048 312.723 66.0844 312.538L70.2284 317.564L74.0458 315.376L71.803 309.26C72.2035 308.939 72.5938 308.602 72.9739 308.251L73.0249 308.202C73.1286 308.105 73.2314 308.009 73.3327 307.91C73.3909 307.853 73.4482 307.796 73.5055 307.739C73.5628 307.681 73.6249 307.621 73.6838 307.561C73.7819 307.461 73.8777 307.361 73.9736 307.26L74.0269 307.204C74.3809 306.827 74.7193 306.439 75.0423 306.04L81.1449 308.322L83.3571 304.518L78.3563 300.343C78.5432 299.864 78.7131 299.378 78.866 298.883L78.8864 298.814C78.9272 298.68 78.9649 298.545 79.0066 298.408L79.071 298.173L79.1361 297.932C79.1707 297.797 79.2037 297.661 79.2366 297.526L79.2547 297.451C79.3725 296.947 79.4717 296.442 79.5523 295.935L85.9785 294.86L85.9926 290.463L79.5728 289.347C79.4958 288.839 79.3997 288.333 79.2845 287.829L79.2681 287.757C79.2421 287.647 79.2178 287.537 79.1895 287.427L79.1683 287.349C79.1487 287.27 79.1267 287.192 79.1055 287.109L79.0419 286.873C79.0042 286.738 78.9652 286.603 78.9249 286.469C78.9194 286.45 78.9147 286.43 78.9084 286.411V286.397C78.7592 285.902 78.5924 285.415 78.4082 284.935L83.4341 280.792L81.2462 276.974L75.1264 279.212C74.8054 278.811 74.4688 278.42 74.1165 278.04L74.1078 278.03C74.0945 278.016 74.0811 278.003 74.0686 277.989C73.9717 277.884 73.8741 277.782 73.7756 277.681C73.7199 277.623 73.6618 277.566 73.6052 277.508C73.5487 277.451 73.4874 277.389 73.427 277.33C73.4073 277.311 73.3885 277.292 73.3696 277.272C73.2911 277.193 73.2071 277.115 73.1262 277.04L73.0705 276.988C72.6935 276.634 72.3056 276.295 71.9066 275.971L74.1919 269.867L70.3879 267.654L66.2124 272.656C65.7339 272.469 65.2473 272.299 64.7525 272.146L64.6842 272.125C64.5491 272.084 64.4138 272.044 64.2782 272.006C64.1997 271.983 64.1211 271.962 64.0426 271.941C63.9641 271.919 63.8855 271.897 63.8023 271.876C63.6672 271.841 63.5322 271.808 63.3963 271.776C63.3712 271.769 63.3468 271.763 63.3178 271.758C63.2809 271.749 63.244 271.739 63.2078 271.731C62.7366 271.624 62.2717 271.535 61.8021 271.459L60.7271 265.034L56.3294 265.02L55.2142 271.439C54.7064 271.516 54.2001 271.612 53.6955 271.727C53.6711 271.735 53.6468 271.741 53.6224 271.747ZM40.9916 292.95V292.866C40.9916 292.753 40.9916 292.639 40.9916 292.526C40.9916 292.413 40.9916 292.285 40.9916 292.164C40.9916 292.135 40.9916 292.108 40.9916 292.08C41.0691 289.52 41.7045 287.008 42.8536 284.719L51.1118 289.522C50.307 291.459 50.3014 293.636 51.0961 295.577L42.8072 300.327C41.6726 298.031 41.0529 295.515 40.9916 292.954V292.95ZM64.1635 292.588C64.1601 293.72 63.8212 294.825 63.1896 295.764C62.558 296.703 61.6621 297.434 60.6153 297.864C59.5684 298.294 58.4176 298.404 57.3084 298.179C56.1991 297.955 55.1813 297.407 54.3835 296.605C53.5858 295.802 53.044 294.781 52.8266 293.67C52.6093 292.559 52.7262 291.409 53.1625 290.365C53.5989 289.321 54.335 288.43 55.278 287.804C56.2209 287.178 57.3282 286.846 58.4599 286.849C59.9773 286.856 61.4301 287.464 62.4995 288.541C63.5688 289.617 64.1673 291.074 64.1635 292.592V292.588ZM50.0438 307.875L49.9723 307.836C49.8742 307.781 49.7784 307.724 49.6818 307.668C49.5852 307.612 49.469 307.545 49.3637 307.482L49.293 307.439C47.1149 306.091 45.2571 304.285 43.8493 302.145L52.1398 297.394C53.4121 299.059 55.2924 300.153 57.3691 300.435L57.3393 309.992C54.7823 309.826 52.2925 309.104 50.0438 307.875ZM57.8513 300.485C57.8709 300.485 57.8913 300.485 57.911 300.489L57.8513 300.485ZM72.9739 302.238C71.5525 304.368 69.6835 306.162 67.4972 307.495L67.4241 307.54C67.3197 307.602 67.2129 307.662 67.11 307.722C67.0071 307.783 66.9176 307.834 66.8194 307.889C66.7943 307.902 66.7684 307.915 66.7409 307.929C64.4859 309.142 61.9935 309.847 59.4376 309.997L59.4674 300.442C61.5453 300.171 63.4315 299.088 64.7133 297.431L72.9739 302.238ZM58.9224 300.493C58.9428 300.493 58.9625 300.493 58.9821 300.489L58.9224 300.493ZM74.0764 284.822C75.2108 287.118 75.8304 289.633 75.892 292.193V292.278C75.892 292.401 75.892 292.524 75.892 292.647C75.892 292.769 75.892 292.869 75.892 292.98V293.064C75.8148 295.625 75.1794 298.137 74.0301 300.427L65.7687 295.624C66.5737 293.689 66.5804 291.513 65.7876 289.573L74.0764 284.822ZM66.8312 277.27L66.9097 277.312C67.0181 277.372 67.1249 277.435 67.2309 277.498C67.337 277.561 67.4225 277.607 67.516 277.665L67.589 277.709C69.7676 279.056 71.6257 280.863 73.0335 283.002L64.7431 287.754C63.4711 286.088 61.5914 284.993 59.5146 284.709L59.5444 275.153C62.1 275.32 64.5884 276.043 66.8359 277.27H66.8312ZM58.9703 284.658L59.0308 284.662C59.0127 284.662 58.9923 284.659 58.9727 284.658H58.9703ZM50.0681 277.258L50.1404 277.219C52.3955 276.006 54.8879 275.301 57.4437 275.151L57.4186 284.709C55.34 284.978 53.4527 286.06 52.1696 287.717L43.909 282.913C45.3304 280.781 47.2 278.985 49.3873 277.651L49.4587 277.608C49.5553 277.55 49.6535 277.496 49.7509 277.44C49.8483 277.384 49.9629 277.317 50.0705 277.258H50.0681Z" stroke="#B7DEFF" stroke-width="0.84" stroke-linecap="round" stroke-linejoin="round"/>
<path d="M-4.6039 189.221L-4.56306 189.271M8.6685 193.805C8.7007 193.798 8.7329 193.79 8.7651 193.782M18.1495 185.545L18.1259 185.607M16.0417 172.476L16.0009 172.426M-6.71479 176.151L-6.69123 176.09M-7.91866 147.739C-8.13541 147.828 -8.35136 147.918 -8.56732 148.013C-8.69454 148.068 -8.82098 148.126 -8.94819 148.182C-9.07541 148.239 -9.19871 148.295 -9.32357 148.352C-9.53717 148.451 -9.7492 148.553 -9.96045 148.655C-9.99736 148.674 -10.0351 148.691 -10.072 148.709C-10.1285 148.737 -10.1866 148.763 -10.2439 148.788C-10.9622 149.146 -11.6651 149.526 -12.3525 149.93L-20.5699 142.749L-26.2838 147.405L-20.9107 156.907C-21.4866 157.546 -22.04 158.208 -22.5708 158.893L-22.6494 158.992C-22.7923 159.178 -22.9339 159.365 -23.0742 159.553C-23.1528 159.665 -23.236 159.776 -23.3169 159.889C-23.3978 160.001 -23.4794 160.113 -23.5588 160.226C-23.6949 160.419 -23.8286 160.613 -23.96 160.808C-23.982 160.841 -24.0056 160.874 -24.0284 160.908C-24.5105 161.628 -24.9647 162.361 -25.3909 163.107L-36.0985 160.997L-38.719 167.886L-29.3135 173.431C-29.4187 173.926 -29.5153 174.423 -29.5993 174.923C-29.6582 175.274 -29.71 175.63 -29.7564 175.98L-29.7729 176.108C-29.8043 176.343 -29.8333 176.571 -29.86 176.804C-29.8757 176.942 -29.8891 177.08 -29.9032 177.217C-29.9174 177.355 -29.9315 177.491 -29.9441 177.628C-29.9653 177.864 -29.9833 178.099 -29.9998 178.335L-30.0092 178.454C-30.0673 179.318 -30.0935 180.182 -30.0878 181.046L-40.4153 184.572L-39.2373 191.848L-28.3216 191.944C-28.0551 192.762 -27.7583 193.574 -27.4311 194.379C-27.4162 194.416 -27.3997 194.457 -27.384 194.491C-27.3117 194.666 -27.241 194.842 -27.1657 195.016L-27.1099 195.142C-27.0541 195.269 -26.9968 195.395 -26.9403 195.522C-26.8837 195.648 -26.828 195.773 -26.7699 195.898C-26.6717 196.112 -26.5696 196.323 -26.4675 196.534L-26.4243 196.624L-26.4133 196.646C-26.0317 197.424 -25.6233 198.183 -25.1883 198.924L-32.3691 207.141L-27.713 212.855L-18.2108 207.482C-17.5716 208.058 -16.9096 208.611 -16.2248 209.142L-16.206 209.157L-16.1274 209.218C-15.9416 209.361 -15.7542 209.502 -15.5652 209.643C-15.4544 209.722 -15.3429 209.805 -15.2314 209.885C-15.1199 209.965 -15.0068 210.048 -14.8929 210.128C-14.856 210.154 -14.8191 210.182 -14.7814 210.206C-14.6244 210.315 -14.4673 210.42 -14.3102 210.526L-14.2089 210.595C-13.4896 211.077 -12.7567 211.531 -12.0101 211.957L-14.1304 222.662L-7.24095 225.282L-1.70221 215.879C-0.860362 216.058 -0.0101397 216.206 0.848458 216.324C0.889294 216.33 0.92699 216.335 0.971752 216.34C1.20734 216.371 1.43665 216.401 1.67067 216.427C1.80888 216.443 1.9471 216.457 2.08531 216.471C2.19447 216.482 2.30362 216.495 2.41278 216.505H2.45205H2.49445C2.73004 216.526 2.96564 216.544 3.20123 216.561L3.32452 216.57C4.1894 216.628 5.05323 216.655 5.91602 216.649L9.43575 226.983L16.7116 225.806L16.8074 214.89C17.6257 214.623 18.4371 214.327 19.2418 213.999C19.2811 213.984 19.3204 213.967 19.3588 213.951C19.5748 213.862 19.79 213.772 20.0051 213.678C20.1339 213.622 20.2611 213.564 20.3892 213.507C20.5172 213.45 20.6381 213.396 20.7614 213.339C20.9766 213.239 21.1894 213.137 21.4022 213.033C21.4383 213.016 21.4737 213 21.5098 212.982C22.2883 212.6 23.0487 212.192 23.7911 211.756L32.0085 218.937L37.7231 214.281L32.3493 204.779C32.9252 204.14 33.4788 203.478 34.0102 202.792L34.0817 202.698C34.2262 202.51 34.3694 202.321 34.5113 202.131C34.5898 202.022 34.6683 201.912 34.7468 201.802C34.8254 201.692 34.9118 201.574 34.9934 201.459C35.1277 201.268 35.2589 201.076 35.3861 200.883L35.4591 200.776C35.9413 200.057 36.3952 199.324 36.8208 198.578L47.5308 200.696L50.1513 193.807L40.7489 188.268C40.9269 187.426 41.0751 186.576 41.1934 185.717L41.2083 185.598C41.2397 185.362 41.2696 185.127 41.2963 184.891C41.312 184.755 41.3253 184.618 41.3395 184.482C41.3536 184.346 41.3677 184.206 41.3803 184.067C41.4015 183.832 41.4196 183.6 41.4361 183.367C41.4361 183.325 41.4431 183.283 41.4455 183.241C41.5036 182.376 41.5298 181.513 41.524 180.654L51.8515 177.127L50.6736 169.851L39.7579 169.755C39.4914 168.937 39.1948 168.126 38.8681 167.321L38.8202 167.207C38.748 167.032 38.6773 166.858 38.6019 166.683L38.5461 166.558C38.4904 166.43 38.4331 166.304 38.3765 166.177C38.32 166.049 38.2642 165.926 38.2069 165.801C38.1079 165.588 38.0059 165.376 37.903 165.164C37.8888 165.135 37.8755 165.104 37.8606 165.074L37.8496 165.053C37.4679 164.274 37.0598 163.515 36.6253 162.776L43.8061 154.558L39.15 148.843L29.6479 154.217C29.0086 153.641 28.3464 153.088 27.6611 152.556L27.643 152.542C27.6179 152.523 27.592 152.504 27.5645 152.485C27.3776 152.34 27.1886 152.197 26.9975 152.055C26.8883 151.977 26.7784 151.898 26.6684 151.82C26.5585 151.741 26.4407 151.655 26.3253 151.573L26.2145 151.495C26.0575 151.387 25.9004 151.283 25.7488 151.181C25.7135 151.156 25.679 151.132 25.6428 151.108C24.9235 150.626 24.1905 150.172 23.444 149.747L25.5651 139.035L18.6764 136.414L13.1369 145.817C12.295 145.639 11.4446 145.491 10.5854 145.372C10.5462 145.367 10.5069 145.362 10.4668 145.358C10.2313 145.326 9.99567 145.296 9.76008 145.27C9.62343 145.254 9.48679 145.241 9.35015 145.226C9.21351 145.212 9.07451 145.198 8.93629 145.186C8.7007 145.164 8.46982 145.146 8.23737 145.13L8.10937 145.12C8.04576 145.116 7.98294 145.11 7.91933 145.106C7.11937 145.057 6.32045 145.035 5.52258 145.041L1.99657 134.714L-5.28005 135.891L-5.37585 146.807C-6.19361 147.073 -7.0051 147.37 -7.81029 147.697L-7.91866 147.739ZM-23.0193 186.227L-23.0452 186.089C-23.0789 185.901 -23.1064 185.713 -23.137 185.526C-23.1692 185.326 -23.2046 185.127 -23.2329 184.927L-23.2517 184.788C-23.8206 180.536 -23.4545 176.211 -22.179 172.115L-7.2221 177.804C-7.62063 179.496 -7.68254 181.251 -7.40429 182.967C-7.12833 184.684 -6.51728 186.33 -5.60595 187.811L-18.0106 197.919C-20.511 194.433 -22.2203 190.443 -23.0193 186.227ZM15.1787 179.316C15.5808 181.825 14.9716 184.391 13.4847 186.451C11.9978 188.511 9.75463 189.897 7.24711 190.305C4.73852 190.708 2.17268 190.099 0.112572 188.612C-1.94753 187.125 -3.33365 184.881 -3.74164 182.374C-4.14241 179.866 -3.53269 177.302 -2.04609 175.243C-0.559494 173.184 1.68271 171.798 4.18914 171.39C6.69776 170.987 9.26348 171.597 11.3236 173.083C13.3837 174.57 14.7701 176.814 15.1787 179.321V179.316ZM-3.99529 208.424C-4.03848 208.409 -4.08167 208.394 -4.12487 208.378C-4.30156 208.314 -4.47511 208.245 -4.65023 208.179C-4.84263 208.106 -5.03582 208.036 -5.22743 207.959L-5.35465 207.906C-9.32173 206.273 -12.8844 203.793 -15.7937 200.641L-3.38589 190.53C-0.829627 192.936 2.57578 194.231 6.08486 194.132L8.63709 209.933C4.36663 210.356 0.055405 209.84 -3.99529 208.424ZM6.89529 194.085C6.92906 194.085 6.96204 194.079 6.99581 194.076C6.96204 194.079 6.92906 194.081 6.89529 194.085ZM32.3658 192.863C30.5978 196.771 27.9981 200.245 24.7484 203.044L24.64 203.137C24.4829 203.269 24.3259 203.396 24.1688 203.525C24.0243 203.643 23.8806 203.76 23.733 203.879C23.6953 203.909 23.6544 203.938 23.6191 203.967C20.2194 206.586 16.2888 208.432 12.1019 209.374L9.55354 193.573C12.9143 192.561 15.7378 190.26 17.4066 187.172L32.3658 192.863ZM29.4461 163.778C31.946 167.263 33.6548 171.252 34.4531 175.467L34.4798 175.607C34.516 175.809 34.5466 176.013 34.5788 176.216C34.6086 176.399 34.6408 176.582 34.6667 176.766L34.6864 176.906C35.2553 181.159 34.8892 185.485 33.6137 189.581L18.6568 183.892C19.0557 182.199 19.1176 180.444 18.839 178.727C18.5629 177.011 17.9518 175.365 17.0406 173.884L29.4461 163.778ZM15.4268 153.271C15.4716 153.287 15.5171 153.302 15.5619 153.319C15.7574 153.389 15.9498 153.465 16.143 153.539C16.3158 153.604 16.4886 153.668 16.6597 153.736C16.7045 153.754 16.7485 153.772 16.7925 153.791C20.7598 155.424 24.3227 157.904 27.2323 161.057L14.8245 171.167C12.2684 168.761 8.86293 167.465 5.35374 167.564L2.80151 151.763C7.06848 151.342 11.376 151.857 15.4237 153.271H15.4268ZM4.43886 167.62C4.47263 167.616 4.5064 167.614 4.54017 167.611C4.5064 167.615 4.47263 167.62 4.43886 167.62ZM-12.2881 157.814C-12.252 157.785 -12.2151 157.757 -12.1789 157.729C-8.78091 155.11 -4.85185 153.264 -0.666392 152.322L1.88584 168.123C-1.47528 169.134 -4.29894 171.436 -5.96719 174.524L-20.928 168.833C-19.1585 164.924 -16.5569 161.448 -13.3051 158.649L-13.199 158.558C-13.0553 158.437 -12.9085 158.322 -12.7624 158.201C-12.6069 158.073 -12.4499 157.942 -12.2889 157.816L-12.2881 157.814ZM2.76774 167.889C2.73476 167.897 2.70177 167.906 2.66879 167.914C2.70099 167.908 2.73397 167.899 2.76695 167.891L2.76774 167.889Z" stroke="#B7DEFF" stroke-width="0.84" stroke-linecap="round" stroke-linejoin="round"/>
<mask id="mask0_166_13790" style="mask-type:luminance" maskUnits="userSpaceOnUse" x="-24" y="1" width="144" height="143">
<path d="M54.8859 127.295C55.2448 127.248 55.6037 127.199 55.9625 127.145C56.1746 127.113 56.3858 127.077 56.5979 127.043C56.8099 127.01 57.0164 126.977 57.2261 126.94C57.585 126.878 57.9415 126.81 58.298 126.741C58.3601 126.729 58.4229 126.718 58.4857 126.706C58.5823 126.687 58.6789 126.67 58.7755 126.651C59.6655 126.47 60.5466 126.268 61.4188 126.045C61.7392 125.967 62.0581 125.876 62.3761 125.788L71.7715 139.778L82.1532 135.111L77.9251 118.797C79.0376 118.073 80.1271 117.306 81.1935 116.496C81.2446 116.458 81.2949 116.418 81.3459 116.379C81.6333 116.158 81.9194 115.935 82.2042 115.71C82.3707 115.577 82.5349 115.442 82.699 115.308C82.8631 115.174 83.0319 115.039 83.1961 114.9C83.4756 114.667 83.7521 114.432 84.0254 114.194C84.0733 114.152 84.1212 114.115 84.1683 114.07C85.1761 113.189 86.1465 112.276 87.0794 111.33L102.212 118.748L108.868 109.515L97.0504 97.4996C97.6519 96.3153 98.2119 95.1063 98.7302 93.8723C98.7553 93.8134 98.7788 93.7537 98.8032 93.6948C98.9424 93.3592 99.0791 93.0226 99.2131 92.6849C99.2916 92.487 99.3655 92.2875 99.4408 92.0881C99.5162 91.8886 99.5932 91.6907 99.6662 91.4905C99.7919 91.1488 99.912 90.8065 100.031 90.4633L100.093 90.2826C100.525 89.0157 100.909 87.7396 101.244 86.4543L118.058 85.3125L119.207 73.9876L102.965 69.4925C102.894 68.1659 102.774 66.8385 102.606 65.5103L102.58 65.3242C102.543 65.0336 102.507 64.7438 102.464 64.4541C102.454 64.3842 102.441 64.3135 102.431 64.2436C102.399 64.0316 102.364 63.8203 102.329 63.6091C102.295 63.3978 102.262 63.1897 102.226 62.9808C102.163 62.6227 102.097 62.2662 102.028 61.9105C102.017 61.8602 102.01 61.8092 101.999 61.7589L101.992 61.722C101.732 60.409 101.427 59.1121 101.074 57.8316L115.064 48.4354L110.397 38.0537L94.0827 42.2857C93.9029 42.0093 93.7231 41.7321 93.5369 41.458C93.0322 40.7115 92.5087 39.9757 91.9663 39.2506C91.9066 39.172 91.8454 39.0935 91.7857 39.0149L91.7637 38.9851C91.7323 38.9435 91.7001 38.9066 91.6695 38.8634C91.4488 38.5752 91.2266 38.2878 90.9996 37.9996C90.8669 37.8339 90.7326 37.6705 90.5983 37.5056C90.464 37.3407 90.3282 37.1726 90.1908 37.0085C90.1452 36.9535 90.1012 36.8978 90.0557 36.8436C89.8672 36.6198 89.6748 36.4007 89.4832 36.1808L89.3591 36.0363C88.478 35.0285 87.5645 34.0581 86.6184 33.1252L94.0364 17.9932L84.8036 11.3362L72.7885 23.1542C71.6032 22.5547 70.393 21.9951 69.158 21.4752C69.0967 21.4501 69.0355 21.4257 68.9742 21.3967C68.6413 21.2584 68.3075 21.1218 67.9706 20.9899C67.7704 20.9113 67.5685 20.8328 67.3675 20.759C67.1665 20.6852 66.9749 20.609 66.7762 20.536C66.4322 20.4104 66.0875 20.2894 65.7427 20.1701C65.6838 20.1504 65.6265 20.1292 65.5684 20.1096C64.3009 19.6777 63.0243 19.2939 61.7384 18.9583L60.5982 2.14893L49.2741 1.00002L44.7791 17.2424C43.4524 17.3131 42.1253 17.4328 40.7976 17.6013C40.7347 17.6092 40.6727 17.6178 40.6107 17.6264C40.2505 17.6725 39.8905 17.7225 39.5309 17.7764C39.3181 17.8078 39.1076 17.8432 38.8956 17.8777C38.6835 17.9123 38.4762 17.9445 38.2673 17.9814C37.9092 18.0434 37.5527 18.1102 37.197 18.1793C37.1341 18.1918 37.0713 18.2029 37.0085 18.2154C35.696 18.4772 34.3992 18.7829 33.1181 19.1326L23.7212 5.14093L13.3395 9.80875L17.5636 26.1242C16.4537 26.8467 15.3655 27.6136 14.2991 28.4251C14.248 28.4636 14.1978 28.5036 14.1475 28.5421C13.8593 28.7628 13.5727 28.9843 13.2884 29.2112C13.1219 29.344 12.9586 29.479 12.7937 29.6125C12.6287 29.746 12.4607 29.8827 12.2966 30.0201C12.017 30.2557 11.7421 30.4913 11.4681 30.7269L11.3244 30.8509C10.3171 31.732 9.34671 32.6456 8.41324 33.5917L-6.71876 26.1737L-13.3773 35.4072L-1.55932 47.4224C-2.16086 48.6051 -2.72052 49.8142 -3.2383 51.0497L-3.30819 51.2201C-3.44902 51.5568 -3.58645 51.8955 -3.72047 52.2363C-3.799 52.4334 -3.87204 52.629 -3.94742 52.8284C-4.02281 53.0279 -4.09977 53.2281 -4.17359 53.43C-4.29845 53.77 -4.41861 54.1116 -4.5364 54.4508L-4.6008 54.6354C-5.03271 55.9024 -5.4162 57.1782 -5.75127 58.463L-22.5654 59.6079L-23.7135 70.9328L-7.47186 75.4255C-7.40066 76.7511 -7.28104 78.0782 -7.11298 79.407L-7.08785 79.5963C-7.05016 79.8852 -7.01403 80.175 -6.97163 80.4601C-6.96063 80.53 -6.94807 80.5999 -6.93786 80.6698C-6.90566 80.8826 -6.87032 81.0938 -6.83656 81.3059C-6.80279 81.5179 -6.7698 81.7244 -6.73289 81.9341C-6.67086 82.2922 -6.60332 82.6495 -6.53421 83.006L-6.50673 83.1568L-6.49887 83.1937C-6.23973 84.5057 -5.93372 85.8025 -5.58086 87.0841L-19.571 96.4858L-14.904 106.867L1.40991 102.639C2.13501 103.752 2.90225 104.842 3.71163 105.909L3.73284 105.938L3.82315 106.054C4.04539 106.344 4.2692 106.633 4.49851 106.918C4.62887 107.082 4.76159 107.243 4.89116 107.405C5.02074 107.568 5.16444 107.742 5.30423 107.91L5.43773 108.073C5.62542 108.295 5.81625 108.513 6.00629 108.732C6.04948 108.781 6.09189 108.832 6.13587 108.881C7.01645 109.889 7.9295 110.859 8.875 111.791L1.46017 126.926L10.693 133.583L22.7081 121.765C23.8913 122.366 25.1001 122.926 26.3346 123.444C26.3935 123.47 26.4532 123.492 26.5113 123.517C26.8467 123.656 27.1828 123.794 27.522 123.927C27.5424 123.935 27.5629 123.944 27.5833 123.952C27.6037 123.96 27.6202 123.967 27.639 123.974C27.7961 124.037 27.9586 124.095 28.1188 124.155C28.3175 124.234 28.5162 124.307 28.7165 124.381C29.0581 124.506 29.4005 124.626 29.7436 124.744C29.8041 124.765 29.8638 124.787 29.9243 124.808C31.1912 125.239 32.4673 125.622 33.7526 125.958L34.8944 142.772L46.2193 143.92L50.7144 127.679C52.04 127.607 53.3671 127.487 54.6959 127.32C54.7587 127.312 54.8215 127.303 54.8859 127.295ZM6.94944 91.7991C6.81437 91.514 6.68872 91.225 6.56071 90.9353C6.44135 90.6714 6.31962 90.4099 6.20576 90.1437L6.11937 89.9387C3.36062 83.3322 2.19912 76.1682 2.72922 69.0285L2.74571 68.8078C2.77241 68.4937 2.80775 68.1796 2.84073 67.8607C2.86979 67.5749 2.89413 67.289 2.92869 67.0039L2.95696 66.7848C3.8701 59.6835 6.44607 52.8978 10.4754 46.9795L10.6003 46.7965C10.7801 46.5373 10.9678 46.2837 11.15 46.0285C11.3189 45.7929 11.4846 45.5573 11.6581 45.3264L11.7924 45.149C16.1343 39.4566 21.7574 34.8685 28.2052 31.7572C28.2712 31.7258 28.3364 31.6936 28.4023 31.6622C28.6929 31.5255 28.9866 31.3975 29.2795 31.2695C29.5387 31.1525 29.7963 31.0339 30.0578 30.9209C30.1253 30.8918 30.1936 30.8635 30.2612 30.8352C36.8706 28.0743 44.0385 26.9125 51.1816 27.4443C51.2492 27.4498 51.3175 27.4545 51.3858 27.46C51.7054 27.4867 52.0227 27.5228 52.3407 27.5558C52.6289 27.5849 52.9179 27.61 53.2046 27.6446C53.2721 27.6524 53.3396 27.6618 53.4072 27.6705C60.5163 28.5821 67.3096 31.1601 73.2337 35.1944L73.4096 35.3146C73.6452 35.4795 73.8808 35.6515 74.1164 35.8211C74.3748 36.0057 74.6347 36.1887 74.8891 36.3795L75.0595 36.509C80.7539 40.8525 85.3432 46.4782 88.4545 52.9289L88.5471 53.1221C88.6736 53.3899 88.7906 53.6608 88.9115 53.931C89.0403 54.2145 89.1707 54.4964 89.2932 54.7831L89.3717 54.9786C92.1323 61.5873 93.2944 68.7543 92.7634 75.8967C92.7579 75.9697 92.7532 76.042 92.7469 76.1142C92.7226 76.4126 92.688 76.7095 92.6574 77.0063C92.6268 77.3032 92.6001 77.6173 92.5639 77.9228L92.5365 78.1372C91.6224 85.2402 89.0451 92.0272 85.014 97.9464L84.8923 98.1247C84.7235 98.3681 84.5476 98.6053 84.374 98.8456C84.2005 99.0859 84.0151 99.3513 83.829 99.5995L83.6979 99.7723C79.3549 105.467 73.729 110.056 67.278 113.166C67.2128 113.198 67.1484 113.229 67.0832 113.26C66.8233 113.383 66.5594 113.495 66.2979 113.615C66.0074 113.746 65.7184 113.88 65.4247 114.007C65.3587 114.036 65.2919 114.063 65.226 114.091C58.6206 116.849 51.4576 118.011 44.3189 117.481C44.2403 117.475 44.1618 117.47 44.0872 117.464C43.7998 117.44 43.5124 117.407 43.2234 117.377C42.9092 117.347 42.6014 117.319 42.2912 117.281C42.2127 117.272 42.1381 117.262 42.0619 117.252C34.9644 116.338 28.1825 113.762 22.2668 109.735L22.0846 109.611C21.8215 109.428 21.5639 109.237 21.3048 109.05C21.0739 108.883 20.8407 108.721 20.6129 108.55L20.4362 108.415C14.7425 104.072 10.1543 98.4462 7.04446 91.9954L6.94944 91.7991Z" fill="white"/>
</mask>
<g mask="url(#mask0_166_13790)">
<path d="M-25.449 -96.6666L124.899 53.6812" stroke="#B7DEFF" stroke-width="0.63" stroke-miterlimit="10"/>
<path d="M-25.449 -74.7472L124.899 75.6006" stroke="#B7DEFF" stroke-width="0.63" stroke-miterlimit="10"/>
<path d="M-25.449 -52.8278L124.899 97.52" stroke="#B7DEFF" stroke-width="0.63" stroke-miterlimit="10"/>
<path d="M-25.449 -30.9084L124.899 119.439" stroke="#B7DEFF" stroke-width="0.63" stroke-miterlimit="10"/>
<path d="M-25.449 -107.626L124.899 42.7216" stroke="#B7DEFF" stroke-width="0.63" stroke-miterlimit="10"/>
<path d="M-25.449 -85.7069L124.899 64.6409" stroke="#B7DEFF" stroke-width="0.63" stroke-miterlimit="10"/>
<path d="M-25.449 -63.7875L124.899 86.5603" stroke="#B7DEFF" stroke-width="0.63" stroke-miterlimit="10"/>
<path d="M-25.449 -41.8681L124.899 108.48" stroke="#B7DEFF" stroke-width="0.63" stroke-miterlimit="10"/>
<path d="M-25.449 -19.9487L124.899 130.399" stroke="#B7DEFF" stroke-width="0.63" stroke-miterlimit="10"/>
<path d="M-25.449 -8.98904L124.899 141.359" stroke="#B7DEFF" stroke-width="0.63" stroke-miterlimit="10"/>
<path d="M-25.449 1.97065L124.899 152.318" stroke="#B7DEFF" stroke-width="0.63" stroke-miterlimit="10"/>
<path d="M-25.449 12.9303L124.899 163.278" stroke="#B7DEFF" stroke-width="0.63" stroke-miterlimit="10"/>
<path d="M-25.449 23.89L124.899 174.238" stroke="#B7DEFF" stroke-width="0.63" stroke-miterlimit="10"/>
<path d="M-25.449 34.8497L124.899 185.197" stroke="#B7DEFF" stroke-width="0.63" stroke-miterlimit="10"/>
<path d="M-25.449 45.8094L124.899 196.157" stroke="#B7DEFF" stroke-width="0.63" stroke-miterlimit="10"/>
<path d="M-25.449 56.769L124.899 207.117" stroke="#B7DEFF" stroke-width="0.63" stroke-miterlimit="10"/>
<path d="M-25.449 67.7288L124.899 218.077" stroke="#B7DEFF" stroke-width="0.63" stroke-miterlimit="10"/>
<path d="M-25.449 -91.1867L124.899 59.1611" stroke="#B7DEFF" stroke-width="0.63" stroke-miterlimit="10"/>
<path d="M-25.449 -69.2673L124.899 81.0805" stroke="#B7DEFF" stroke-width="0.63" stroke-miterlimit="10"/>
<path d="M-25.449 -47.348L124.899 103" stroke="#B7DEFF" stroke-width="0.63" stroke-miterlimit="10"/>
<path d="M-25.449 -25.4286L124.899 124.919" stroke="#B7DEFF" stroke-width="0.63" stroke-miterlimit="10"/>
<path d="M-25.449 -3.50923L124.899 146.839" stroke="#B7DEFF" stroke-width="0.63" stroke-miterlimit="10"/>
<path d="M-25.449 18.4102L124.899 168.758" stroke="#B7DEFF" stroke-width="0.63" stroke-miterlimit="10"/>
<path d="M-25.449 40.3295L124.899 190.677" stroke="#B7DEFF" stroke-width="0.63" stroke-miterlimit="10"/>
<path d="M-25.449 -102.146L124.899 48.2014" stroke="#B7DEFF" stroke-width="0.63" stroke-miterlimit="10"/>
<path d="M-25.449 -80.227L124.899 70.1208" stroke="#B7DEFF" stroke-width="0.63" stroke-miterlimit="10"/>
<path d="M-25.449 -58.3076L124.899 92.0402" stroke="#B7DEFF" stroke-width="0.63" stroke-miterlimit="10"/>
<path d="M-25.449 -36.3883L124.899 113.96" stroke="#B7DEFF" stroke-width="0.63" stroke-miterlimit="10"/>
<path d="M-25.449 -14.4689L124.899 135.879" stroke="#B7DEFF" stroke-width="0.63" stroke-miterlimit="10"/>
<path d="M-25.449 7.45051L124.899 157.798" stroke="#B7DEFF" stroke-width="0.63" stroke-miterlimit="10"/>
<path d="M-25.449 29.3699L124.899 179.718" stroke="#B7DEFF" stroke-width="0.63" stroke-miterlimit="10"/>
<path d="M-25.449 51.2892L124.899 201.637" stroke="#B7DEFF" stroke-width="0.63" stroke-miterlimit="10"/>
<path d="M-25.449 62.2489L124.899 212.597" stroke="#B7DEFF" stroke-width="0.63" stroke-miterlimit="10"/>
<path d="M-25.449 73.2086L124.899 223.556" stroke="#B7DEFF" stroke-width="0.63" stroke-miterlimit="10"/>
<path d="M-25.449 78.6885L124.899 229.036" stroke="#B7DEFF" stroke-width="0.63" stroke-miterlimit="10"/>
<path d="M-25.449 84.1683L124.899 234.516" stroke="#B7DEFF" stroke-width="0.63" stroke-miterlimit="10"/>
<path d="M-25.449 89.6481L124.899 239.996" stroke="#B7DEFF" stroke-width="0.63" stroke-miterlimit="10"/>
<path d="M-25.449 95.128L124.899 245.476" stroke="#B7DEFF" stroke-width="0.63" stroke-miterlimit="10"/>
<path d="M-25.449 100.608L124.899 250.956" stroke="#B7DEFF" stroke-width="0.63" stroke-miterlimit="10"/>
<path d="M-25.449 106.088L124.899 256.435" stroke="#B7DEFF" stroke-width="0.63" stroke-miterlimit="10"/>
</g>
<path d="M54.8859 127.295C55.2448 127.248 55.6037 127.199 55.9625 127.145C56.1746 127.113 56.3858 127.077 56.5979 127.043C56.8099 127.01 57.0164 126.977 57.2261 126.94C57.585 126.878 57.9415 126.81 58.298 126.741C58.3601 126.729 58.4229 126.718 58.4857 126.706C58.5823 126.687 58.6789 126.67 58.7755 126.651C59.6655 126.47 60.5466 126.268 61.4188 126.045C61.7392 125.967 62.0581 125.876 62.3761 125.788L71.7715 139.778L82.1532 135.111L77.9251 118.797C79.0376 118.073 80.1271 117.306 81.1935 116.496C81.2446 116.458 81.2949 116.418 81.3459 116.379C81.6333 116.158 81.9194 115.935 82.2042 115.71C82.3707 115.577 82.5348 115.442 82.699 115.308C82.8631 115.174 83.0319 115.039 83.1961 114.9C83.4756 114.667 83.7521 114.432 84.0254 114.194C84.0733 114.152 84.1212 114.115 84.1683 114.07C85.1761 113.189 86.1465 112.276 87.0794 111.33L102.212 118.748L108.868 109.515L97.0504 97.4996C97.6519 96.3153 98.2119 95.1063 98.7302 93.8723C98.7553 93.8134 98.7788 93.7537 98.8032 93.6948C98.9424 93.3592 99.0791 93.0226 99.2131 92.6849C99.2916 92.487 99.3655 92.2875 99.4409 92.0881C99.5162 91.8886 99.5932 91.6907 99.6662 91.4905C99.7919 91.1488 99.912 90.8065 100.031 90.4633L100.093 90.2826C100.525 89.0157 100.909 87.7396 101.244 86.4543L118.058 85.3125L119.207 73.9876L102.965 69.4925C102.894 68.1659 102.774 66.8385 102.606 65.5103L102.58 65.3242C102.543 65.0336 102.507 64.7438 102.464 64.4541C102.454 64.3842 102.441 64.3135 102.431 64.2436C102.399 64.0316 102.364 63.8203 102.329 63.6091C102.295 63.3978 102.262 63.1897 102.226 62.9808C102.163 62.6227 102.097 62.2662 102.028 61.9105C102.017 61.8602 102.01 61.8092 101.999 61.7589L101.992 61.722C101.732 60.409 101.427 59.1121 101.074 57.8316L115.064 48.4354L110.397 38.0537L94.0827 42.2857C93.9029 42.0093 93.7231 41.7321 93.5369 41.458C93.0323 40.7115 92.5087 39.9757 91.9663 39.2506C91.9067 39.172 91.8454 39.0935 91.7857 39.0149L91.7637 38.9851C91.7323 38.9435 91.7001 38.9066 91.6695 38.8634C91.4488 38.5752 91.2266 38.2878 90.9996 37.9996C90.8669 37.8339 90.7326 37.6705 90.5983 37.5056C90.464 37.3407 90.3282 37.1726 90.1908 37.0085C90.1452 36.9535 90.1012 36.8978 90.0557 36.8436C89.8672 36.6198 89.6748 36.4007 89.4832 36.1808L89.3591 36.0363C88.478 35.0285 87.5645 34.0581 86.6184 33.1252L94.0364 17.9932L84.8036 11.3362L72.7885 23.1542C71.6032 22.5547 70.393 21.9951 69.158 21.4752C69.0967 21.4501 69.0355 21.4257 68.9742 21.3967C68.6413 21.2584 68.3075 21.1218 67.9706 20.9899C67.7704 20.9113 67.5685 20.8328 67.3675 20.759C67.1665 20.6852 66.9749 20.609 66.7762 20.536C66.4322 20.4104 66.0875 20.2894 65.7427 20.1701C65.6838 20.1504 65.6265 20.1292 65.5684 20.1096C64.3009 19.6776 63.0243 19.2939 61.7384 18.9583L60.5982 2.14892L49.2741 1.00002L44.7791 17.2424C43.4524 17.3131 42.1253 17.4328 40.7976 17.6013C40.7347 17.6092 40.6727 17.6178 40.6107 17.6264C40.2505 17.6725 39.8905 17.7225 39.5309 17.7764C39.3181 17.8078 39.1076 17.8432 38.8956 17.8777C38.6835 17.9123 38.4762 17.9445 38.2673 17.9814C37.9092 18.0434 37.5527 18.1102 37.197 18.1793C37.1341 18.1918 37.0713 18.2029 37.0085 18.2154C35.696 18.4772 34.3992 18.7829 33.1181 19.1326L23.7212 5.14093L13.3394 9.80874L17.5636 26.1242C16.4537 26.8467 15.3655 27.6136 14.2991 28.4251C14.248 28.4636 14.1978 28.5036 14.1475 28.5421C13.8593 28.7628 13.5727 28.9843 13.2884 29.2112C13.1219 29.344 12.9586 29.479 12.7937 29.6125C12.6288 29.746 12.4607 29.8827 12.2966 30.0201C12.017 30.2557 11.7421 30.4913 11.4681 30.7269L11.3244 30.8509C10.3171 31.732 9.34671 32.6456 8.41324 33.5917L-6.71876 26.1737L-13.3773 35.4072L-1.55932 47.4224C-2.16086 48.6051 -2.72052 49.8142 -3.2383 51.0497L-3.30819 51.2201C-3.44902 51.5568 -3.58645 51.8955 -3.72047 52.2363C-3.799 52.4334 -3.87204 52.629 -3.94742 52.8284C-4.02281 53.0279 -4.09977 53.2281 -4.17359 53.43C-4.29845 53.77 -4.41861 54.1116 -4.5364 54.4508L-4.6008 54.6354C-5.03271 55.9024 -5.4162 57.1782 -5.75127 58.463L-22.5654 59.6079L-23.7135 70.9328L-7.47186 75.4255C-7.40066 76.7511 -7.28104 78.0782 -7.11298 79.407L-7.08785 79.5963C-7.05016 79.8852 -7.01403 80.175 -6.97163 80.4601C-6.96063 80.53 -6.94807 80.5999 -6.93786 80.6698C-6.90566 80.8826 -6.87032 81.0938 -6.83655 81.3059C-6.80279 81.5179 -6.7698 81.7244 -6.73289 81.9341C-6.67086 82.2922 -6.60332 82.6495 -6.53421 83.006L-6.50673 83.1568L-6.49887 83.1937C-6.23972 84.5057 -5.93372 85.8025 -5.58086 87.0841L-19.571 96.4858L-14.904 106.867L1.40991 102.639C2.13501 103.752 2.90225 104.842 3.71163 105.909L3.73284 105.938L3.82315 106.054C4.04539 106.344 4.2692 106.633 4.49851 106.918C4.62887 107.082 4.76159 107.243 4.89116 107.405C5.02074 107.568 5.16444 107.742 5.30423 107.91L5.43773 108.073C5.62542 108.295 5.81625 108.513 6.00629 108.732C6.04948 108.781 6.09189 108.832 6.13587 108.881C7.01645 109.889 7.9295 110.859 8.875 111.791L1.46017 126.926L10.693 133.583L22.7081 121.765C23.8913 122.366 25.1001 122.926 26.3346 123.444C26.3935 123.47 26.4532 123.492 26.5113 123.517C26.8467 123.656 27.1828 123.794 27.522 123.927C27.5424 123.935 27.5629 123.944 27.5833 123.952C27.6037 123.96 27.6202 123.967 27.639 123.974C27.7961 124.037 27.9586 124.095 28.1188 124.155C28.3175 124.234 28.5162 124.307 28.7165 124.381C29.0581 124.506 29.4005 124.626 29.7436 124.744C29.8041 124.765 29.8638 124.787 29.9243 124.808C31.1912 125.239 32.4673 125.622 33.7526 125.958L34.8944 142.772L46.2193 143.92L50.7144 127.679C52.04 127.607 53.3671 127.487 54.6959 127.32C54.7587 127.312 54.8215 127.303 54.8859 127.295ZM6.94944 91.7991C6.81437 91.514 6.68872 91.225 6.56071 90.9353C6.44135 90.6714 6.31962 90.4099 6.20575 90.1437L6.11937 89.9387C3.36062 83.3322 2.19912 76.1682 2.72922 69.0285L2.74571 68.8078C2.77241 68.4937 2.80775 68.1795 2.84073 67.8607C2.86979 67.5749 2.89414 67.289 2.92869 67.0039L2.95696 66.7848C3.8701 59.6835 6.44607 52.8978 10.4754 46.9795L10.6003 46.7965C10.7801 46.5373 10.9678 46.2837 11.15 46.0285C11.3189 45.7929 11.4846 45.5573 11.6581 45.3264L11.7924 45.149C16.1343 39.4566 21.7574 34.8685 28.2052 31.7572C28.2712 31.7258 28.3364 31.6936 28.4023 31.6622C28.6929 31.5255 28.9866 31.3975 29.2795 31.2695C29.5387 31.1525 29.7963 31.0339 30.0578 30.9209C30.1253 30.8918 30.1936 30.8635 30.2612 30.8352C36.8706 28.0743 44.0385 26.9125 51.1816 27.4443C51.2492 27.4498 51.3175 27.4545 51.3858 27.46C51.7054 27.4867 52.0227 27.5228 52.3407 27.5558C52.6289 27.5849 52.9179 27.61 53.2046 27.6446C53.2721 27.6524 53.3396 27.6618 53.4072 27.6705C60.5163 28.5821 67.3096 31.1601 73.2337 35.1944L73.4096 35.3146C73.6452 35.4795 73.8808 35.6515 74.1164 35.8211C74.3748 36.0057 74.6347 36.1887 74.8891 36.3795L75.0595 36.509C80.7539 40.8525 85.3432 46.4782 88.4545 52.9289L88.5471 53.1221C88.6736 53.3899 88.7906 53.6608 88.9115 53.931C89.0403 54.2145 89.1707 54.4964 89.2932 54.7831L89.3717 54.9786C92.1323 61.5873 93.2944 68.7543 92.7634 75.8967C92.7579 75.9697 92.7532 76.042 92.7469 76.1142C92.7226 76.4126 92.688 76.7095 92.6574 77.0063C92.6268 77.3032 92.6001 77.6173 92.564 77.9228L92.5365 78.1372C91.6224 85.2402 89.0451 92.0272 85.014 97.9464L84.8923 98.1247C84.7235 98.3681 84.5476 98.6053 84.374 98.8456C84.2005 99.0859 84.0151 99.3513 83.829 99.5995L83.6979 99.7723C79.3548 105.467 73.729 110.056 67.278 113.166C67.2128 113.198 67.1484 113.229 67.0832 113.26C66.8233 113.383 66.5594 113.495 66.2979 113.615C66.0074 113.746 65.7184 113.88 65.4247 114.007C65.3587 114.036 65.2919 114.063 65.226 114.091C58.6206 116.849 51.4575 118.011 44.3189 117.481C44.2403 117.475 44.1618 117.47 44.0872 117.464C43.7998 117.44 43.5124 117.407 43.2234 117.377C42.9092 117.347 42.6014 117.319 42.2912 117.281C42.2127 117.272 42.1381 117.262 42.0619 117.252C34.9644 116.338 28.1825 113.762 22.2668 109.735L22.0846 109.611C21.8215 109.428 21.5639 109.237 21.3048 109.05C21.0739 108.883 20.8407 108.721 20.6129 108.55L20.4362 108.415C14.7425 104.072 10.1543 98.4462 7.04446 91.9954L6.94944 91.7991Z" stroke="#B7DEFF" stroke-width="1.679" stroke-miterlimit="10"/>
<path d="M81.7826 57.1586C78.7562 50.4268 73.8016 44.7437 67.5453 40.8278C61.289 36.9119 54.012 34.9391 46.6346 35.159C39.2571 35.3789 32.1105 37.7815 26.0985 42.0631C20.0865 46.3446 15.4792 52.3128 12.8591 59.2129C10.2391 66.1129 9.72398 73.6349 11.379 80.8278C13.0339 88.0206 16.7847 94.5611 22.1569 99.6222C27.5291 104.683 34.2814 108.038 41.5601 109.261C48.8387 110.485 56.3167 109.523 63.0484 106.496C72.0751 102.438 79.1199 94.9596 82.6332 85.7071C86.1465 76.4547 85.8405 66.1855 81.7826 57.1586ZM29.9118 56.5846C29.1205 54.8246 28.8689 52.8695 29.1888 50.9665C29.5087 49.0635 30.3857 47.2981 31.7089 45.8936C33.0321 44.489 34.7421 43.5084 36.6226 43.0757C38.5031 42.643 40.4698 42.7777 42.2738 43.4627C44.0778 44.1476 45.6381 45.3522 46.7576 46.924C47.877 48.4958 48.5052 50.3642 48.5627 52.293C48.6202 54.2219 48.1045 56.1244 47.0807 57.7601C46.0569 59.3958 44.5711 60.6912 42.8112 61.4825C41.6426 62.0079 40.3819 62.2979 39.1012 62.3361C37.8206 62.3743 36.5449 62.1599 35.3471 61.7051C34.1492 61.2503 33.0527 60.5639 32.1201 59.6854C31.1876 58.8068 30.4371 57.7531 29.9118 56.5846ZM18.9717 85.3988C18.1805 83.6389 17.9289 81.6838 18.2487 79.7808C18.5686 77.8778 19.4456 76.1125 20.7688 74.7079C22.092 73.3034 23.802 72.3228 25.6826 71.89C27.5631 71.4573 29.5297 71.592 31.3337 72.277C33.1377 72.962 34.6981 74.1665 35.8175 75.7383C36.9369 77.3101 37.5651 79.1785 37.6226 81.1073C37.6801 83.0362 37.1644 84.9387 36.1407 86.5744C35.1169 88.2101 33.6311 89.5055 31.8711 90.2968C29.511 91.3576 26.8262 91.4376 24.4071 90.5191C21.9881 89.6006 20.0329 87.7588 18.9717 85.3988ZM46.6874 70.1059C47.1535 69.8963 47.6713 69.8297 48.1752 69.9145C48.6792 69.9992 49.1467 70.2315 49.5186 70.5819C49.8905 70.9324 50.1502 71.3852 50.2647 71.8832C50.3793 72.3813 50.3435 72.9021 50.1621 73.3798C49.9806 73.8575 49.6616 74.2707 49.2453 74.5671C48.829 74.8635 48.3341 75.0297 47.8233 75.0449C47.3125 75.06 46.8087 74.9233 46.3756 74.6521C45.9425 74.3809 45.5995 73.9873 45.3901 73.5211C45.2508 73.2116 45.1739 72.8777 45.1637 72.5385C45.1536 72.1992 45.2103 71.8612 45.3308 71.5439C45.4513 71.2266 45.6331 70.9362 45.8659 70.6891C46.0987 70.4421 46.3778 70.2434 46.6874 70.1043V70.1059ZM58.7245 67.5269C57.9331 65.767 57.6813 63.8118 58.001 61.9088C58.3207 60.0057 59.1976 58.2403 60.5208 56.8356C61.8439 55.4309 63.5539 54.4501 65.4345 54.0173C67.315 53.5845 69.2817 53.719 71.0858 54.404C72.8899 55.0889 74.4503 56.2935 75.5698 57.8653C76.6893 59.4371 77.3175 61.3056 77.375 63.2345C77.4325 65.1634 76.9168 67.066 75.8929 68.7017C74.8691 70.3375 73.3832 71.6329 71.6231 72.4241C69.263 73.4849 66.5782 73.5647 64.1593 72.646C61.7404 71.7273 59.7854 69.8854 58.7245 67.5254V67.5269ZM47.7845 96.3373C46.9931 94.5773 46.7415 92.6222 47.0613 90.7192C47.3812 88.8162 48.2582 87.0508 49.5814 85.6462C50.9047 84.2416 52.6147 83.2609 54.4953 82.8282C56.3758 82.3955 58.3425 82.5302 60.1465 83.2153C61.9506 83.9003 63.5109 85.1049 64.6303 86.6767C65.7497 88.2486 66.3778 90.1171 66.4353 92.046C66.4927 93.9748 65.9769 95.8774 64.953 97.5131C63.9291 99.1488 62.4432 100.444 60.6831 101.235C59.5146 101.761 58.254 102.051 56.9733 102.089C55.6927 102.127 54.417 101.913 53.2192 101.458C52.0214 101.003 50.925 100.317 49.9925 99.4383C49.06 98.5597 48.3097 97.506 47.7845 96.3373Z" stroke="#B7DEFF" stroke-width="1.679" stroke-miterlimit="10"/>
<mask id="mask1_166_13790" style="mask-type:luminance" maskUnits="userSpaceOnUse" x="71" y="170" width="66" height="66">
<path d="M107.189 227.973C107.354 227.951 107.518 227.929 107.683 227.904C107.78 227.89 107.877 227.873 107.973 227.858C108.07 227.842 108.166 227.827 108.261 227.81C108.425 227.782 108.589 227.751 108.752 227.719C108.781 227.714 108.809 227.709 108.839 227.703C108.882 227.694 108.926 227.687 108.971 227.678C109.378 227.595 109.782 227.503 110.182 227.4C110.329 227.363 110.475 227.322 110.621 227.283L114.926 233.693L119.684 231.555L117.746 224.079C118.256 223.747 118.755 223.395 119.244 223.025C119.267 223.007 119.29 222.989 119.313 222.971C119.445 222.87 119.577 222.769 119.706 222.664C119.784 222.604 119.857 222.542 119.932 222.481C120.008 222.419 120.085 222.356 120.16 222.294C120.288 222.189 120.415 222.081 120.54 221.969L120.605 221.913C121.067 221.509 121.512 221.09 121.941 220.656L128.874 224.055L131.925 219.825L126.506 214.32C126.782 213.777 127.038 213.223 127.276 212.658L127.31 212.579C127.373 212.427 127.436 212.272 127.497 212.117L127.602 211.844C127.636 211.753 127.672 211.661 127.705 211.57C127.762 211.413 127.817 211.255 127.872 211.098L127.901 211.015C128.098 210.435 128.273 209.85 128.428 209.262L136.132 208.738L136.659 203.549L129.216 201.489C129.183 200.882 129.128 200.273 129.051 199.664L129.04 199.579C129.023 199.446 129.007 199.313 128.987 199.181L128.971 199.084C128.957 198.987 128.941 198.89 128.925 198.793C128.909 198.697 128.894 198.601 128.878 198.505C128.849 198.341 128.819 198.178 128.787 198.014L128.774 197.945L128.77 197.928C128.651 197.326 128.511 196.732 128.35 196.145L134.761 191.84L132.621 187.083L125.147 189.02C125.064 188.894 124.981 188.767 124.896 188.641C124.665 188.299 124.424 187.962 124.175 187.63C124.148 187.593 124.12 187.559 124.096 187.523L124.086 187.509L124.043 187.454C123.941 187.322 123.839 187.19 123.736 187.061C123.675 186.983 123.613 186.91 123.552 186.835L123.365 186.606C123.344 186.582 123.324 186.556 123.303 186.528C123.217 186.425 123.129 186.324 123.041 186.224L122.984 186.157C122.581 185.696 122.162 185.251 121.728 184.822L125.126 177.888L120.896 174.838L115.391 180.256C114.849 179.98 114.295 179.724 113.729 179.487C113.702 179.475 113.674 179.464 113.645 179.452C113.493 179.389 113.34 179.326 113.186 179.265C113.094 179.229 113.001 179.195 112.91 179.16C112.818 179.126 112.729 179.091 112.639 179.058C112.482 179 112.324 178.944 112.167 178.89C112.141 178.881 112.115 178.871 112.089 178.862C111.509 178.665 110.924 178.489 110.334 178.335L109.811 170.63L104.621 170.104L102.562 177.546C101.955 177.579 101.346 177.634 100.737 177.71L100.652 177.722C100.487 177.743 100.322 177.766 100.157 177.791C100.06 177.805 99.963 177.822 99.8664 177.838C99.7698 177.853 99.674 177.868 99.5782 177.885C99.4141 177.913 99.2507 177.944 99.0874 177.976L99.001 177.992C98.3995 178.111 97.8053 178.251 97.2184 178.413L92.9126 172.002L88.1521 174.138L90.0894 181.613C89.5795 181.946 89.0803 182.297 88.5918 182.668C88.5683 182.685 88.5455 182.704 88.5219 182.721C88.39 182.823 88.2589 182.924 88.1293 183.029C88.0508 183.089 87.9777 183.151 87.9023 183.212C87.8269 183.274 87.75 183.336 87.6746 183.399C87.5466 183.506 87.4209 183.614 87.2953 183.724L87.2293 183.78C86.7676 184.184 86.3226 184.603 85.8943 185.037L78.9601 181.638L75.9115 185.869L81.3301 191.374C81.0542 191.917 80.7974 192.471 80.5597 193.036L80.5275 193.115C80.4632 193.269 80.4003 193.424 80.3391 193.581C80.303 193.67 80.2692 193.761 80.2346 193.852C80.2001 193.942 80.1647 194.035 80.131 194.127C80.0734 194.284 80.0182 194.441 79.9653 194.598L79.9354 194.683C79.7375 195.264 79.5619 195.848 79.4085 196.437L71.7039 196.961L71.1777 202.149L78.6201 204.209C78.6525 204.817 78.7072 205.425 78.7842 206.033L78.796 206.12C78.8132 206.253 78.8297 206.386 78.8494 206.518L78.8643 206.614C78.8792 206.712 78.8957 206.808 78.9114 206.906C78.9271 207.003 78.942 207.097 78.9585 207.193C78.9868 207.357 79.0172 207.521 79.0496 207.684L79.0622 207.753V207.77C79.181 208.372 79.3211 208.966 79.4823 209.553L73.0719 213.858L75.2103 218.615L82.6856 216.678C83.018 217.187 83.3696 217.687 83.7402 218.176L83.7504 218.19L83.7913 218.242C83.8934 218.376 83.9962 218.508 84.1007 218.64C84.1604 218.714 84.2216 218.788 84.2821 218.863C84.3426 218.937 84.4077 219.02 84.4713 219.094L84.5326 219.172C84.619 219.274 84.7062 219.374 84.7933 219.474L84.8522 219.543C85.2559 220.004 85.6747 220.45 86.1087 220.878L82.7091 227.812L86.9403 230.862L92.4453 225.444C92.9872 225.719 93.5411 225.976 94.107 226.213C94.1337 226.225 94.1612 226.236 94.1855 226.247C94.3426 226.31 94.4934 226.373 94.6489 226.435L94.6764 226.446L94.7023 226.457C94.7753 226.485 94.8491 226.512 94.9222 226.539C95.0132 226.574 95.1043 226.609 95.1962 226.643C95.3533 226.7 95.5103 226.755 95.6674 226.809L95.7459 226.838C96.326 227.036 96.9108 227.212 97.5003 227.365L98.0241 235.07L103.213 235.596L105.272 228.154C105.88 228.121 106.488 228.066 107.097 227.989L107.189 227.973ZM85.2237 211.709C85.1624 211.577 85.1043 211.445 85.0454 211.316C84.9865 211.186 84.9355 211.075 84.8828 210.953L84.8436 210.859C83.5802 207.831 83.049 204.547 83.2934 201.275L83.3012 201.175C83.313 201.029 83.3295 200.885 83.3444 200.74C83.3578 200.609 83.3688 200.479 83.3845 200.348L83.3978 200.247C83.816 196.993 84.9964 193.884 86.843 191.172L86.9003 191.088C86.9827 190.97 87.0683 190.852 87.1532 190.736C87.238 190.62 87.3063 190.521 87.3887 190.414L87.4508 190.336C89.4402 187.727 92.0169 185.625 94.9716 184.199L95.0619 184.156C95.1954 184.093 95.3297 184.034 95.464 183.975C95.5826 183.921 95.6996 183.866 95.8205 183.818C95.852 183.804 95.8826 183.791 95.914 183.778C98.9423 182.513 102.226 181.981 105.499 182.224L105.594 182.231C105.74 182.244 105.885 182.26 106.031 182.275C106.163 182.289 106.295 182.301 106.424 182.316L106.516 182.328C109.773 182.746 112.885 183.928 115.599 185.776C115.626 185.794 115.653 185.812 115.678 185.831C115.786 185.91 115.893 185.988 116 186.063C116.106 186.137 116.235 186.232 116.355 186.319C116.381 186.339 116.406 186.359 116.433 186.379C119.042 188.369 121.145 190.947 122.57 193.903L122.613 193.991C122.671 194.114 122.725 194.238 122.78 194.361C122.835 194.484 122.899 194.62 122.955 194.754L122.993 194.844C124.257 197.871 124.789 201.154 124.547 204.425L124.539 204.525C124.528 204.661 124.512 204.797 124.498 204.934C124.484 205.07 124.472 205.213 124.455 205.353L124.442 205.452C124.023 208.706 122.842 211.816 120.996 214.529L120.94 214.607C120.861 214.719 120.783 214.827 120.704 214.937C120.626 215.047 120.54 215.169 120.454 215.282L120.394 215.361C118.404 217.97 115.826 220.073 112.87 221.498C112.84 221.513 112.811 221.527 112.782 221.541C112.662 221.598 112.541 221.65 112.421 221.704C112.288 221.764 112.156 221.826 112.021 221.883C111.991 221.896 111.96 221.909 111.929 221.921C108.903 223.186 105.62 223.718 102.349 223.475C102.313 223.475 102.278 223.469 102.243 223.467C102.111 223.456 101.98 223.441 101.85 223.427C101.721 223.413 101.565 223.4 101.423 223.384C101.388 223.379 101.353 223.374 101.318 223.37C98.0646 222.95 94.9565 221.768 92.2458 219.921L92.1626 219.865C92.0417 219.781 91.927 219.694 91.8053 219.607C91.6993 219.529 91.5925 219.456 91.4912 219.379C91.4645 219.358 91.4378 219.337 91.4126 219.317C88.8041 217.327 86.7017 214.75 85.2763 211.796L85.2237 211.709Z" fill="white"/>
</mask>
<g mask="url(#mask1_166_13790)">
<path d="M70.3784 125.351L139.27 194.243" stroke="#B7DEFF" stroke-width="0.42" stroke-miterlimit="10"/>
<path d="M70.3784 135.394L139.27 204.286" stroke="#B7DEFF" stroke-width="0.42" stroke-miterlimit="10"/>
<path d="M70.3784 145.438L139.27 214.33" stroke="#B7DEFF" stroke-width="0.42" stroke-miterlimit="10"/>
<path d="M70.3784 155.482L139.27 224.373" stroke="#B7DEFF" stroke-width="0.42" stroke-miterlimit="10"/>
<path d="M70.3784 120.329L139.27 189.221" stroke="#B7DEFF" stroke-width="0.42" stroke-miterlimit="10"/>
<path d="M70.3784 130.372L139.27 199.264" stroke="#B7DEFF" stroke-width="0.42" stroke-miterlimit="10"/>
<path d="M70.3784 140.416L139.27 209.308" stroke="#B7DEFF" stroke-width="0.42" stroke-miterlimit="10"/>
<path d="M70.3784 150.46L139.27 219.352" stroke="#B7DEFF" stroke-width="0.42" stroke-miterlimit="10"/>
<path d="M70.3784 160.504L139.27 229.395" stroke="#B7DEFF" stroke-width="0.42" stroke-miterlimit="10"/>
<path d="M70.3784 165.526L139.27 234.417" stroke="#B7DEFF" stroke-width="0.42" stroke-miterlimit="10"/>
<path d="M70.3784 170.548L139.27 239.439" stroke="#B7DEFF" stroke-width="0.42" stroke-miterlimit="10"/>
<path d="M70.3784 175.57L139.27 244.461" stroke="#B7DEFF" stroke-width="0.42" stroke-miterlimit="10"/>
<path d="M70.3784 180.592L139.27 249.483" stroke="#B7DEFF" stroke-width="0.42" stroke-miterlimit="10"/>
<path d="M70.3784 185.613L139.27 254.504" stroke="#B7DEFF" stroke-width="0.42" stroke-miterlimit="10"/>
<path d="M70.3784 190.635L139.27 259.526" stroke="#B7DEFF" stroke-width="0.42" stroke-miterlimit="10"/>
<path d="M70.3784 195.657L139.27 264.548" stroke="#B7DEFF" stroke-width="0.42" stroke-miterlimit="10"/>
<path d="M70.3784 200.679L139.27 269.57" stroke="#B7DEFF" stroke-width="0.42" stroke-miterlimit="10"/>
<path d="M70.3784 127.862L139.27 196.753" stroke="#B7DEFF" stroke-width="0.42" stroke-miterlimit="10"/>
<path d="M70.3784 137.906L139.27 206.797" stroke="#B7DEFF" stroke-width="0.42" stroke-miterlimit="10"/>
<path d="M70.3784 147.949L139.27 216.84" stroke="#B7DEFF" stroke-width="0.42" stroke-miterlimit="10"/>
<path d="M70.3784 157.993L139.27 226.885" stroke="#B7DEFF" stroke-width="0.42" stroke-miterlimit="10"/>
<path d="M70.3784 168.036L139.27 236.928" stroke="#B7DEFF" stroke-width="0.42" stroke-miterlimit="10"/>
<path d="M70.3784 178.08L139.27 246.972" stroke="#B7DEFF" stroke-width="0.42" stroke-miterlimit="10"/>
<path d="M70.3784 188.124L139.27 257.016" stroke="#B7DEFF" stroke-width="0.42" stroke-miterlimit="10"/>
<path d="M70.3784 122.84L139.27 191.731" stroke="#B7DEFF" stroke-width="0.42" stroke-miterlimit="10"/>
<path d="M70.3784 132.884L139.27 201.775" stroke="#B7DEFF" stroke-width="0.42" stroke-miterlimit="10"/>
<path d="M70.3784 142.927L139.27 211.818" stroke="#B7DEFF" stroke-width="0.42" stroke-miterlimit="10"/>
<path d="M70.3784 152.971L139.27 221.863" stroke="#B7DEFF" stroke-width="0.42" stroke-miterlimit="10"/>
<path d="M70.3784 163.015L139.27 231.907" stroke="#B7DEFF" stroke-width="0.42" stroke-miterlimit="10"/>
<path d="M70.3784 173.058L139.27 241.95" stroke="#B7DEFF" stroke-width="0.42" stroke-miterlimit="10"/>
<path d="M70.3784 183.102L139.27 251.994" stroke="#B7DEFF" stroke-width="0.42" stroke-miterlimit="10"/>
<path d="M70.3784 193.146L139.27 262.038" stroke="#B7DEFF" stroke-width="0.42" stroke-miterlimit="10"/>
<path d="M70.3784 198.168L139.27 267.059" stroke="#B7DEFF" stroke-width="0.42" stroke-miterlimit="10"/>
<path d="M70.3784 203.19L139.27 272.081" stroke="#B7DEFF" stroke-width="0.42" stroke-miterlimit="10"/>
<path d="M70.3784 205.701L139.27 274.592" stroke="#B7DEFF" stroke-width="0.42" stroke-miterlimit="10"/>
<path d="M70.3784 208.212L139.27 277.103" stroke="#B7DEFF" stroke-width="0.42" stroke-miterlimit="10"/>
<path d="M70.3784 210.722L139.27 279.614" stroke="#B7DEFF" stroke-width="0.42" stroke-miterlimit="10"/>
<path d="M70.3784 213.234L139.27 282.125" stroke="#B7DEFF" stroke-width="0.42" stroke-miterlimit="10"/>
<path d="M70.3784 215.744L139.27 284.636" stroke="#B7DEFF" stroke-width="0.42" stroke-miterlimit="10"/>
<path d="M70.3784 218.256L139.27 287.147" stroke="#B7DEFF" stroke-width="0.42" stroke-miterlimit="10"/>
</g>
<path d="M107.189 227.973C107.354 227.951 107.518 227.929 107.683 227.904C107.78 227.89 107.877 227.873 107.973 227.858C108.07 227.842 108.166 227.827 108.261 227.81C108.425 227.782 108.589 227.751 108.752 227.719C108.781 227.714 108.809 227.709 108.839 227.703C108.882 227.694 108.926 227.687 108.971 227.678C109.378 227.595 109.782 227.503 110.182 227.4C110.329 227.363 110.475 227.322 110.621 227.283L114.926 233.693L119.684 231.555L117.746 224.079C118.256 223.747 118.755 223.395 119.244 223.025C119.267 223.007 119.29 222.989 119.313 222.971C119.445 222.87 119.577 222.769 119.706 222.664C119.784 222.604 119.857 222.542 119.932 222.481C120.008 222.419 120.085 222.356 120.16 222.294C120.288 222.189 120.415 222.081 120.54 221.969L120.605 221.913C121.067 221.509 121.512 221.09 121.941 220.656L128.874 224.055L131.925 219.825L126.506 214.32C126.782 213.777 127.038 213.223 127.276 212.658L127.31 212.579C127.373 212.427 127.436 212.272 127.497 212.117L127.602 211.844C127.636 211.753 127.672 211.661 127.705 211.57C127.762 211.413 127.817 211.255 127.872 211.098L127.901 211.015C128.098 210.435 128.273 209.85 128.428 209.262L136.133 208.738L136.659 203.549L129.216 201.489C129.183 200.882 129.128 200.273 129.051 199.664L129.04 199.579C129.023 199.446 129.007 199.313 128.987 199.181L128.971 199.084C128.957 198.987 128.941 198.89 128.925 198.793C128.909 198.697 128.894 198.601 128.878 198.505C128.849 198.341 128.819 198.178 128.787 198.014L128.774 197.945L128.77 197.928C128.651 197.327 128.511 196.732 128.35 196.145L134.761 191.84L132.621 187.083L125.147 189.02C125.064 188.894 124.981 188.767 124.896 188.641C124.665 188.299 124.424 187.962 124.175 187.63C124.148 187.593 124.12 187.559 124.096 187.523L124.086 187.509L124.043 187.454C123.941 187.322 123.839 187.19 123.736 187.061C123.675 186.983 123.613 186.91 123.552 186.835L123.365 186.606C123.344 186.582 123.324 186.556 123.303 186.528C123.217 186.425 123.129 186.324 123.041 186.224L122.984 186.157C122.581 185.696 122.162 185.251 121.728 184.822L125.126 177.888L120.896 174.838L115.391 180.256C114.849 179.98 114.295 179.724 113.729 179.487C113.702 179.475 113.674 179.464 113.645 179.452C113.493 179.389 113.34 179.326 113.186 179.265C113.094 179.229 113.001 179.195 112.91 179.16C112.818 179.126 112.729 179.091 112.639 179.058C112.482 179 112.324 178.944 112.167 178.89C112.141 178.881 112.115 178.871 112.089 178.862C111.509 178.665 110.924 178.489 110.334 178.335L109.811 170.63L104.621 170.104L102.562 177.546C101.955 177.579 101.346 177.634 100.737 177.71L100.652 177.722C100.487 177.743 100.322 177.766 100.157 177.791C100.06 177.805 99.963 177.822 99.8664 177.838C99.7698 177.853 99.674 177.868 99.5782 177.885C99.4141 177.913 99.2507 177.944 99.0874 177.976L99.001 177.992C98.3995 178.111 97.8053 178.251 97.2184 178.413L92.9126 172.002L88.1521 174.138L90.0894 181.613C89.5795 181.946 89.0803 182.297 88.5918 182.668C88.5683 182.685 88.5455 182.704 88.5219 182.721C88.39 182.823 88.2589 182.924 88.1293 183.029C88.0508 183.089 87.9777 183.151 87.9023 183.212C87.8269 183.274 87.75 183.336 87.6746 183.399C87.5466 183.506 87.4209 183.614 87.2953 183.724L87.2293 183.78C86.7676 184.184 86.3226 184.603 85.8943 185.037L78.9601 181.638L75.9115 185.869L81.3301 191.374C81.0542 191.917 80.7974 192.471 80.5597 193.036L80.5275 193.115C80.4632 193.269 80.4003 193.424 80.3391 193.581C80.303 193.67 80.2692 193.761 80.2346 193.852C80.2001 193.942 80.1647 194.035 80.131 194.127C80.0734 194.284 80.0182 194.441 79.9653 194.598L79.9354 194.683C79.7375 195.264 79.5619 195.848 79.4085 196.437L71.7039 196.961L71.1777 202.149L78.6201 204.209C78.6525 204.817 78.7072 205.425 78.7842 206.033L78.796 206.12C78.8132 206.253 78.8297 206.386 78.8494 206.518L78.8643 206.614C78.8792 206.712 78.8957 206.808 78.9114 206.906C78.9271 207.003 78.942 207.097 78.9585 207.193C78.9868 207.357 79.0172 207.521 79.0496 207.684L79.0622 207.753V207.77C79.181 208.372 79.3211 208.966 79.4823 209.553L73.0719 213.858L75.2103 218.615L82.6856 216.678C83.018 217.187 83.3696 217.687 83.7402 218.176L83.7504 218.19L83.7913 218.242C83.8934 218.376 83.9962 218.508 84.1007 218.64C84.1604 218.714 84.2216 218.788 84.2821 218.863C84.3426 218.937 84.4077 219.02 84.4713 219.094L84.5326 219.172C84.619 219.274 84.7062 219.374 84.7933 219.474L84.8522 219.543C85.2559 220.004 85.6747 220.45 86.1087 220.878L82.7091 227.812L86.9403 230.862L92.4453 225.444C92.9872 225.719 93.5411 225.976 94.107 226.213C94.1337 226.225 94.1612 226.236 94.1855 226.247C94.3426 226.31 94.4934 226.373 94.6489 226.435L94.6764 226.446L94.7023 226.457C94.7753 226.485 94.8491 226.512 94.9222 226.539C95.0132 226.574 95.1043 226.609 95.1962 226.643C95.3533 226.7 95.5103 226.755 95.6674 226.809L95.7459 226.838C96.326 227.036 96.9108 227.212 97.5003 227.365L98.0241 235.07L103.213 235.596L105.272 228.154C105.88 228.121 106.488 228.066 107.097 227.989L107.189 227.973ZM85.2237 211.709C85.1624 211.577 85.1043 211.445 85.0454 211.316C84.9865 211.186 84.9355 211.075 84.8828 210.953L84.8436 210.859C83.5802 207.831 83.049 204.547 83.2934 201.275L83.3012 201.175C83.313 201.029 83.3295 200.885 83.3444 200.74C83.3578 200.609 83.3688 200.479 83.3845 200.348L83.3978 200.247C83.816 196.993 84.9964 193.884 86.843 191.172L86.9003 191.088C86.9827 190.97 87.0683 190.852 87.1532 190.736C87.238 190.62 87.3063 190.521 87.3887 190.414L87.4508 190.336C89.4402 187.727 92.0169 185.625 94.9716 184.199L95.0619 184.156C95.1954 184.093 95.3297 184.034 95.464 183.975C95.5826 183.921 95.6996 183.866 95.8205 183.818C95.852 183.804 95.8826 183.791 95.914 183.778C98.9423 182.513 102.226 181.981 105.499 182.224L105.594 182.231C105.74 182.244 105.885 182.26 106.031 182.275C106.163 182.289 106.295 182.301 106.424 182.316L106.516 182.328C109.773 182.746 112.885 183.928 115.599 185.776C115.626 185.794 115.653 185.812 115.678 185.831C115.786 185.91 115.893 185.988 116 186.063C116.106 186.137 116.235 186.232 116.355 186.319C116.381 186.339 116.406 186.359 116.433 186.379C119.042 188.369 121.145 190.947 122.57 193.903L122.613 193.991C122.671 194.114 122.725 194.238 122.78 194.361C122.835 194.484 122.899 194.62 122.955 194.754L122.993 194.844C124.257 197.871 124.789 201.154 124.547 204.425L124.539 204.525C124.528 204.661 124.512 204.797 124.498 204.934C124.484 205.07 124.472 205.213 124.455 205.353L124.442 205.452C124.023 208.706 122.842 211.816 120.996 214.529L120.94 214.607C120.861 214.719 120.783 214.827 120.704 214.937C120.626 215.047 120.54 215.169 120.454 215.282L120.394 215.361C118.404 217.97 115.826 220.073 112.87 221.498C112.84 221.513 112.811 221.527 112.782 221.541C112.662 221.598 112.541 221.65 112.421 221.704C112.288 221.764 112.156 221.826 112.021 221.883C111.991 221.896 111.96 221.909 111.929 221.921C108.903 223.186 105.62 223.718 102.349 223.475C102.313 223.475 102.278 223.469 102.243 223.467C102.111 223.456 101.98 223.441 101.85 223.427C101.721 223.413 101.565 223.4 101.423 223.384C101.388 223.379 101.353 223.374 101.318 223.37C98.0646 222.95 94.9565 221.768 92.2458 219.921L92.1626 219.865C92.0417 219.781 91.927 219.694 91.8053 219.607C91.6993 219.529 91.5925 219.456 91.4912 219.379C91.4645 219.358 91.4378 219.337 91.4126 219.317C88.8041 217.327 86.7017 214.75 85.2763 211.796L85.2237 211.709Z" stroke="#B7DEFF" stroke-width="0.84" stroke-linecap="round" stroke-linejoin="round"/>
<mask id="mask2_166_13790" style="mask-type:luminance" maskUnits="userSpaceOnUse" x="157" y="25" width="131" height="11">
<path d="M288 35.7661V25.3287L157.403 25.3287V35.7661L288 35.7661Z" fill="white"/>
</mask>
<g mask="url(#mask2_166_13790)">
<path d="M148.258 -118.946L298.606 31.4015" stroke="#B7DEFF" stroke-width="0.63" stroke-miterlimit="10"/>
<path d="M148.258 -97.027L298.606 53.3208" stroke="#B7DEFF" stroke-width="0.63" stroke-miterlimit="10"/>
<path d="M148.258 -75.1076L298.606 75.2402" stroke="#B7DEFF" stroke-width="0.63" stroke-miterlimit="10"/>
<path d="M148.258 -107.987L298.606 42.3611" stroke="#B7DEFF" stroke-width="0.63" stroke-miterlimit="10"/>
<path d="M148.258 -86.0673L298.606 64.2805" stroke="#B7DEFF" stroke-width="0.63" stroke-miterlimit="10"/>
<path d="M148.258 -64.1479L298.606 86.1999" stroke="#B7DEFF" stroke-width="0.63" stroke-miterlimit="10"/>
<path d="M148.258 -53.1883L298.606 97.1595" stroke="#B7DEFF" stroke-width="0.63" stroke-miterlimit="10"/>
<path d="M148.258 -42.2293L298.606 108.118" stroke="#B7DEFF" stroke-width="0.63" stroke-miterlimit="10"/>
<path d="M148.258 -31.2696L298.606 119.078" stroke="#B7DEFF" stroke-width="0.63" stroke-miterlimit="10"/>
<path d="M148.258 -20.3092L298.606 130.039" stroke="#B7DEFF" stroke-width="0.63" stroke-miterlimit="10"/>
<path d="M148.258 -9.34948L298.606 140.998" stroke="#B7DEFF" stroke-width="0.63" stroke-miterlimit="10"/>
<path d="M148.258 1.6102L298.606 151.958" stroke="#B7DEFF" stroke-width="0.63" stroke-miterlimit="10"/>
<path d="M148.258 12.5699L298.606 162.918" stroke="#B7DEFF" stroke-width="0.63" stroke-miterlimit="10"/>
<path d="M148.258 23.5296L298.606 173.877" stroke="#B7DEFF" stroke-width="0.63" stroke-miterlimit="10"/>
<path d="M148.258 -113.467L298.606 36.8813" stroke="#B7DEFF" stroke-width="0.63" stroke-miterlimit="10"/>
<path d="M148.258 -91.5479L298.606 58.7999" stroke="#B7DEFF" stroke-width="0.63" stroke-miterlimit="10"/>
<path d="M148.258 -69.6278L298.606 80.72" stroke="#B7DEFF" stroke-width="0.63" stroke-miterlimit="10"/>
<path d="M148.258 -47.7084L298.606 102.639" stroke="#B7DEFF" stroke-width="0.63" stroke-miterlimit="10"/>
<path d="M148.258 -25.789L298.606 124.559" stroke="#B7DEFF" stroke-width="0.63" stroke-miterlimit="10"/>
<path d="M148.258 -3.86965L298.606 146.478" stroke="#B7DEFF" stroke-width="0.63" stroke-miterlimit="10"/>
<path d="M148.258 -124.426L298.606 25.9216" stroke="#B7DEFF" stroke-width="0.63" stroke-miterlimit="10"/>
<path d="M148.258 -102.508L298.606 47.8402" stroke="#B7DEFF" stroke-width="0.63" stroke-miterlimit="10"/>
<path d="M148.258 -80.5875L298.606 69.7603" stroke="#B7DEFF" stroke-width="0.63" stroke-miterlimit="10"/>
<path d="M148.258 -58.6681L298.606 91.6797" stroke="#B7DEFF" stroke-width="0.63" stroke-miterlimit="10"/>
<path d="M148.258 -36.7487L298.606 113.599" stroke="#B7DEFF" stroke-width="0.63" stroke-miterlimit="10"/>
<path d="M148.258 -14.8293L298.606 135.518" stroke="#B7DEFF" stroke-width="0.63" stroke-miterlimit="10"/>
<path d="M148.258 7.08927L298.606 157.437" stroke="#B7DEFF" stroke-width="0.63" stroke-miterlimit="10"/>
<path d="M148.258 18.0489L298.606 168.397" stroke="#B7DEFF" stroke-width="0.63" stroke-miterlimit="10"/>
<path d="M148.258 29.0094L298.606 179.357" stroke="#B7DEFF" stroke-width="0.63" stroke-miterlimit="10"/>
<path d="M148.258 34.4893L298.606 184.837" stroke="#B7DEFF" stroke-width="0.63" stroke-miterlimit="10"/>
</g>
<path d="M288 25.3287V35.7677L157.404 35.7677V25.3303" stroke="#B7DEFF" stroke-width="0.63" stroke-miterlimit="10"/>
<mask id="mask3_166_13790" style="mask-type:luminance" maskUnits="userSpaceOnUse" x="11" y="261" width="18" height="132">
<path d="M28.7228 261.571H11.6912V392.167H28.7228V261.571Z" fill="white"/>
</mask>
<g mask="url(#mask3_166_13790)">
<path d="M-132.585 401.311L17.7632 250.964" stroke="#B7DEFF" stroke-width="0.63" stroke-miterlimit="10"/>
<path d="M-110.665 401.311L39.6825 250.964" stroke="#B7DEFF" stroke-width="0.63" stroke-miterlimit="10"/>
<path d="M-88.7458 401.311L61.602 250.964" stroke="#B7DEFF" stroke-width="0.63" stroke-miterlimit="10"/>
<path d="M-121.625 401.311L28.7228 250.964" stroke="#B7DEFF" stroke-width="0.63" stroke-miterlimit="10"/>
<path d="M-99.7057 401.311L50.6421 250.964" stroke="#B7DEFF" stroke-width="0.63" stroke-miterlimit="10"/>
<path d="M-77.7863 401.311L72.5615 250.964" stroke="#B7DEFF" stroke-width="0.63" stroke-miterlimit="10"/>
<path d="M-66.8265 401.311L83.5213 250.964" stroke="#B7DEFF" stroke-width="0.63" stroke-miterlimit="10"/>
<path d="M-55.8668 401.311L94.481 250.964" stroke="#B7DEFF" stroke-width="0.63" stroke-miterlimit="10"/>
<path d="M-44.9072 401.311L105.441 250.964" stroke="#B7DEFF" stroke-width="0.63" stroke-miterlimit="10"/>
<path d="M-33.9475 401.311L116.4 250.964" stroke="#B7DEFF" stroke-width="0.63" stroke-miterlimit="10"/>
<path d="M-22.9878 401.311L127.36 250.964" stroke="#B7DEFF" stroke-width="0.63" stroke-miterlimit="10"/>
<path d="M-12.0281 401.311L138.32 250.964" stroke="#B7DEFF" stroke-width="0.63" stroke-miterlimit="10"/>
<path d="M-1.06848 401.311L149.279 250.964" stroke="#B7DEFF" stroke-width="0.63" stroke-miterlimit="10"/>
<path d="M9.89124 401.311L160.239 250.964" stroke="#B7DEFF" stroke-width="0.63" stroke-miterlimit="10"/>
<path d="M-127.105 401.311L23.2429 250.964" stroke="#B7DEFF" stroke-width="0.63" stroke-miterlimit="10"/>
<path d="M-105.185 401.311L45.1624 250.964" stroke="#B7DEFF" stroke-width="0.63" stroke-miterlimit="10"/>
<path d="M-83.266 401.311L67.0818 250.964" stroke="#B7DEFF" stroke-width="0.63" stroke-miterlimit="10"/>
<path d="M-61.3467 401.311L89.0011 250.964" stroke="#B7DEFF" stroke-width="0.63" stroke-miterlimit="10"/>
<path d="M-39.4274 401.311L110.92 250.964" stroke="#B7DEFF" stroke-width="0.63" stroke-miterlimit="10"/>
<path d="M-17.5079 401.311L132.84 250.964" stroke="#B7DEFF" stroke-width="0.63" stroke-miterlimit="10"/>
<path d="M-138.064 401.311L12.2834 250.964" stroke="#B7DEFF" stroke-width="0.63" stroke-miterlimit="10"/>
<path d="M-116.145 401.311L34.2027 250.964" stroke="#B7DEFF" stroke-width="0.63" stroke-miterlimit="10"/>
<path d="M-94.2258 401.311L56.122 250.964" stroke="#B7DEFF" stroke-width="0.63" stroke-miterlimit="10"/>
<path d="M-72.3064 401.311L78.0414 250.964" stroke="#B7DEFF" stroke-width="0.63" stroke-miterlimit="10"/>
<path d="M-50.3871 401.311L99.9607 250.964" stroke="#B7DEFF" stroke-width="0.63" stroke-miterlimit="10"/>
<path d="M-28.4677 401.311L121.88 250.964" stroke="#B7DEFF" stroke-width="0.63" stroke-miterlimit="10"/>
<path d="M-6.54822 401.311L143.8 250.964" stroke="#B7DEFF" stroke-width="0.63" stroke-miterlimit="10"/>
<path d="M4.41138 401.311L154.759 250.964" stroke="#B7DEFF" stroke-width="0.63" stroke-miterlimit="10"/>
<path d="M15.3711 401.311L165.719 250.964" stroke="#B7DEFF" stroke-width="0.63" stroke-miterlimit="10"/>
<path d="M20.851 401.311L171.199 250.964" stroke="#B7DEFF" stroke-width="0.63" stroke-miterlimit="10"/>
<path d="M26.3308 401.311L176.679 250.964" stroke="#B7DEFF" stroke-width="0.63" stroke-miterlimit="10"/>
</g>
<path d="M11.6912 261.57H28.7236L28.7236 392.166H11.6912" stroke="#B7DEFF" stroke-width="0.63" stroke-miterlimit="10"/>
<path d="M107.638 33.2964C107.767 33.3168 107.897 33.334 108.031 33.3482C108.095 33.3552 108.16 33.3616 108.225 33.3671C108.355 33.378 108.485 33.3859 108.618 33.3906H108.686C108.736 33.3906 108.785 33.3906 108.835 33.3906C108.884 33.3906 108.934 33.3906 108.984 33.3906H109.012C109.502 33.3851 109.991 33.3347 110.472 33.2398L112.675 35.6358L115.798 33.8728L114.885 30.7488C114.985 30.6373 115.083 30.5234 115.178 30.4072C115.261 30.3025 115.339 30.1978 115.414 30.0931C115.452 30.0405 115.492 29.9871 115.528 29.936C115.606 29.8285 115.674 29.7201 115.743 29.6093L115.763 29.5764L115.778 29.552L115.857 29.4248L115.931 29.296L115.946 29.2709L115.964 29.2363C116.06 29.0662 116.148 28.8921 116.231 28.7141C116.349 28.458 116.454 28.1959 116.545 27.9288L119.721 27.222L119.756 23.6364L116.593 22.8652C116.508 22.5985 116.408 22.3363 116.295 22.0799C116.216 21.8998 116.131 21.7239 116.039 21.5521L116.02 21.5176L116.006 21.4925L115.935 21.3621L115.924 21.3432L115.86 21.2333L115.846 21.209C115.806 21.1415 115.767 21.0747 115.723 21.0087C115.679 20.9428 115.653 20.8988 115.617 20.8446C115.424 20.5565 115.213 20.2811 114.985 20.02L115.959 16.9142L112.87 15.0915L110.621 17.4474C110.418 17.4034 110.213 17.3688 110.008 17.339C109.935 17.3288 109.863 17.3194 109.79 17.3115C109.663 17.2982 109.538 17.2872 109.411 17.2801H109.392C109.314 17.2754 109.241 17.2722 109.165 17.2699H109.137C109.095 17.2699 109.052 17.2699 109.01 17.2699H108.988C108.938 17.2699 108.889 17.2699 108.839 17.2699H108.811C108.321 17.2756 107.832 17.3261 107.351 17.4207L105.148 15.0247L102.025 16.7877L102.939 19.9125C102.705 20.1688 102.489 20.44 102.291 20.7245C102.217 20.8313 102.145 20.9396 102.076 21.0503L102.055 21.0833L102.039 21.11C102.013 21.1514 101.987 21.193 101.961 21.2349C101.935 21.2781 101.911 21.3221 101.882 21.3652L101.869 21.3888L101.849 21.4233C101.754 21.5935 101.665 21.7676 101.583 21.9456C101.465 22.2016 101.36 22.4638 101.269 22.7309L98.0925 23.4376L98.058 27.0241L101.22 27.7945C101.306 28.0615 101.405 28.3236 101.519 28.5798C101.597 28.7599 101.683 28.9358 101.775 29.1076L101.794 29.1429L101.806 29.1665C101.831 29.2104 101.854 29.2544 101.879 29.2976L101.889 29.3164C101.91 29.3534 101.931 29.3895 101.953 29.4256L101.968 29.4515C102.219 29.8733 102.508 30.271 102.832 30.6397L101.858 33.7456L104.947 35.569L107.196 33.2131C107.346 33.2445 107.493 33.2728 107.638 33.2964ZM104.484 27.7097L104.473 27.6877C104.1 26.9843 103.899 26.2026 103.885 25.4064V25.2753V25.1795V25.1551C103.913 24.3595 104.128 23.5816 104.513 22.8848L104.525 22.8636L104.578 22.7725C104.595 22.745 104.611 22.7168 104.628 22.694L104.641 22.6728C105.065 21.9986 105.641 21.4336 106.323 21.0236L106.344 21.0119C106.374 20.9938 106.405 20.9766 106.436 20.9593L106.52 20.9121L106.542 20.9004C107.246 20.5278 108.027 20.3265 108.824 20.3129H108.848C108.883 20.3129 108.919 20.3129 108.954 20.3129C108.989 20.3129 109.018 20.3129 109.05 20.3129H109.074C109.87 20.3404 110.648 20.5557 111.345 20.9412L111.366 20.9522C111.396 20.9695 111.427 20.9883 111.458 21.0064L111.541 21.055L111.56 21.0676C112.234 21.4911 112.799 22.068 113.209 22.7513L113.221 22.7709L113.268 22.8549L113.32 22.9476L113.331 22.9688C113.704 23.6727 113.906 24.4546 113.92 25.2509V25.2753C113.92 25.3083 113.92 25.3412 113.92 25.3742V25.5015C113.89 26.2977 113.674 27.0758 113.287 27.7725L113.276 27.7937L113.225 27.8793L113.173 27.9673L113.16 27.9877C112.737 28.6623 112.16 29.2274 111.477 29.6369L111.457 29.6494C111.429 29.6659 111.399 29.6816 111.371 29.6973C111.343 29.713 111.312 29.7319 111.28 29.7492L111.259 29.7601C110.555 30.1329 109.773 30.3345 108.977 30.3484H108.952C108.92 30.3484 108.888 30.3484 108.856 30.3484C108.824 30.3484 108.785 30.3484 108.75 30.3484H108.726C107.93 30.3191 107.153 30.1025 106.456 29.7161L106.434 29.7036C106.407 29.6887 106.379 29.6722 106.355 29.6557C106.332 29.6392 106.294 29.6203 106.264 29.6015L106.242 29.5882C105.568 29.1652 105.003 28.5892 104.593 27.9068L104.581 27.8856C104.562 27.8542 104.545 27.8228 104.527 27.7914L104.484 27.7097Z" fill="#B7DEFF"/>
<path d="M47.0101 139.556C24.2048 116.751 -12.77 116.751 -35.5753 139.556C-58.3806 162.361 -58.3806 199.336 -35.5753 222.141C-12.77 244.947 24.2048 244.947 47.0101 222.141C69.8154 199.336 69.8154 162.361 47.0101 139.556Z" stroke="#B7DEFF" stroke-width="0.42" stroke-miterlimit="10"/>
<path d="M200.059 68.3413C200.059 41.1346 178.004 19.0792 150.797 19.0792C123.591 19.0792 101.535 41.1346 101.535 68.3413C101.535 95.548 123.591 117.603 150.797 117.603C178.004 117.603 200.059 95.548 200.059 68.3413Z" stroke="#B7DEFF" stroke-width="0.21" stroke-miterlimit="10"/>
<path d="M86.0761 100.489C41.6952 56.1086 -30.2604 56.1086 -74.6413 100.489C-119.022 144.87 -119.022 216.826 -74.6413 261.207C-30.2604 305.588 41.6952 305.588 86.0761 261.207C130.457 216.826 130.457 144.87 86.0761 100.489Z" stroke="#B7DEFF" stroke-width="0.21" stroke-miterlimit="10"/>
<path d="M157.618 25.9472C134.204 22.1807 112.171 38.1076 108.404 61.521C104.638 84.9344 120.564 106.968 143.978 110.735C167.391 114.501 189.425 98.5743 193.192 75.1609C196.958 51.7475 181.031 29.7138 157.618 25.9472Z" stroke="#B7DEFF" stroke-width="1.679" stroke-miterlimit="10"/>
<path d="M11.6943 261.569H69.1228V329.189H11.6943" stroke="#B7DEFF" stroke-width="0.63" stroke-miterlimit="10"/>
<path d="M130.903 25.3295V167.354H11.6943" stroke="#B7DEFF" stroke-width="0.42" stroke-miterlimit="10"/>
<path d="M243.474 25.3287V128.614H11.6967" stroke="#B7DEFF" stroke-width="0.42" stroke-miterlimit="10"/>
</svg>
