<svg width="283" height="394" viewBox="0 0 283 394" fill="none" xmlns="http://www.w3.org/2000/svg">
<path d="M171.741 238.67C171.648 238.681 171.555 238.692 171.461 238.704C171.406 238.711 171.351 238.72 171.296 238.728C171.241 238.736 171.187 238.743 171.133 238.752C171.04 238.766 170.948 238.783 170.855 238.798L170.805 238.807C170.78 238.812 170.755 238.816 170.727 238.82C170.495 238.863 170.266 238.912 170.039 238.966C169.956 238.986 169.872 239.007 169.789 239.029L167.412 235.363L164.702 236.53L165.73 240.776C165.438 240.959 165.153 241.154 164.873 241.358L164.833 241.388C164.755 241.445 164.682 241.501 164.608 241.559C164.565 241.592 164.521 241.626 164.478 241.661C164.435 241.695 164.391 241.729 164.348 241.764C164.274 241.823 164.202 241.884 164.13 241.944L164.093 241.976C163.827 242.2 163.572 242.432 163.326 242.674L159.435 240.688L157.671 243.053L160.684 246.216C160.523 246.521 160.373 246.832 160.234 247.149L160.214 247.195C160.176 247.281 160.135 247.368 160.103 247.455L160.042 247.612L159.981 247.769C159.947 247.857 159.915 247.946 159.883 248.034L159.865 248.081C159.748 248.407 159.643 248.736 159.551 249.068L155.188 249.294L154.843 252.224L159.034 253.457C159.047 253.802 159.073 254.147 159.113 254.491L159.119 254.539L159.145 254.765L159.153 254.82L159.177 254.985L159.201 255.148C159.216 255.241 159.231 255.334 159.248 255.426L159.255 255.466V255.476C159.317 255.817 159.391 256.154 159.477 256.488L155.812 258.864L156.978 261.575L161.224 260.547C161.269 260.62 161.315 260.693 161.362 260.764C161.49 260.96 161.623 261.153 161.761 261.343L161.807 261.404L161.812 261.412L161.836 261.443C161.892 261.52 161.948 261.595 162.006 261.67L162.108 261.799C162.143 261.842 162.176 261.886 162.212 261.929L162.246 261.973C162.294 262.032 162.343 262.09 162.392 262.147L162.423 262.185C162.648 262.45 162.88 262.706 163.121 262.951L161.136 266.842L163.501 268.606L166.664 265.593C166.969 265.754 167.28 265.904 167.597 266.044L167.645 266.064C167.73 266.101 167.816 266.138 167.903 266.173C167.954 266.195 168.007 266.215 168.06 266.236L168.217 266.296C168.305 266.33 168.394 266.363 168.483 266.395L168.528 266.412C168.855 266.529 169.184 266.633 169.516 266.726L169.742 271.089L172.672 271.434L173.905 267.243C174.249 267.23 174.593 267.204 174.938 267.164L174.987 267.158C175.081 267.148 175.174 267.137 175.267 267.124L175.432 267.101C175.487 267.092 175.542 267.085 175.596 267.076C175.689 267.061 175.782 267.046 175.875 267.029L175.923 267.021C176.265 266.958 176.602 266.884 176.935 266.799L179.313 270.464L182.023 269.298L180.995 265.052C181.286 264.869 181.573 264.675 181.851 264.469L181.892 264.439C181.97 264.384 182.042 264.327 182.117 264.27C182.161 264.236 182.204 264.201 182.247 264.168L182.378 264.064C182.451 264.005 182.523 263.945 182.595 263.884L182.633 263.853C182.897 263.628 183.153 263.395 183.399 263.155L187.29 265.14L189.054 262.774L186.041 259.611C186.202 259.307 186.352 258.996 186.492 258.678L186.511 258.634C186.548 258.547 186.589 258.46 186.621 258.372C186.643 258.322 186.662 258.271 186.683 258.22C186.703 258.169 186.724 258.117 186.744 258.063C186.778 257.975 186.811 257.887 186.842 257.799L186.86 257.751C186.977 257.425 187.082 257.095 187.174 256.764L191.537 256.538L191.881 253.608L187.691 252.375C187.678 252.031 187.652 251.686 187.612 251.341L187.607 251.292C187.598 251.213 187.59 251.142 187.58 251.066L187.572 251.012C187.565 250.956 187.557 250.902 187.549 250.846L187.524 250.684C187.51 250.59 187.494 250.498 187.477 250.405L187.471 250.366V250.356C187.409 250.015 187.335 249.678 187.249 249.344L190.915 246.967L189.748 244.257L185.502 245.285C185.319 244.993 185.124 244.707 184.919 244.427L184.913 244.42L184.891 244.39C184.834 244.311 184.778 244.237 184.719 244.162C184.686 244.119 184.653 244.076 184.619 244.034C184.585 243.992 184.549 243.945 184.514 243.902L184.48 243.859L184.335 243.685L184.302 243.646C184.079 243.382 183.846 243.126 183.604 242.88L185.59 238.989L183.225 237.225L180.062 240.239C179.757 240.077 179.446 239.927 179.129 239.788L179.083 239.768C178.997 239.731 178.91 239.69 178.823 239.658L178.807 239.651L178.793 239.645C178.752 239.628 178.714 239.613 178.669 239.596C178.625 239.58 178.567 239.555 178.512 239.536C178.424 239.502 178.336 239.469 178.247 239.437L178.201 239.42C177.874 239.303 177.545 239.198 177.213 239.105L176.987 234.743L174.057 234.398L172.824 238.589C172.48 238.602 172.136 238.628 171.791 238.667L171.741 238.67ZM184.018 248.07C184.052 248.144 184.083 248.22 184.115 248.295C184.148 248.37 184.175 248.432 184.203 248.502L184.225 248.555C184.913 250.279 185.184 252.14 185.017 253.988L185.012 254.046C185.004 254.124 184.993 254.209 184.983 254.291C184.974 254.372 184.967 254.439 184.957 254.512L184.949 254.57C184.682 256.407 183.986 258.156 182.917 259.674L182.884 259.72C182.836 259.787 182.787 259.852 182.737 259.917C182.688 259.983 182.649 260.038 182.603 260.097L182.568 260.143C181.418 261.6 179.942 262.766 178.257 263.546L178.205 263.569C178.127 263.604 178.053 263.635 177.977 263.668C177.901 263.701 177.842 263.727 177.773 263.755L177.721 263.776C175.996 264.465 174.133 264.736 172.284 264.568L172.231 264.563C172.152 264.555 172.067 264.545 171.984 264.534C171.902 264.524 171.835 264.518 171.76 264.508L171.708 264.501C169.87 264.234 168.121 263.537 166.603 262.467L166.558 262.435C166.497 262.391 166.438 262.346 166.378 262.301C166.318 262.256 166.245 262.204 166.18 262.153L166.136 262.119C164.678 260.969 163.512 259.492 162.732 257.807L162.71 257.756C162.678 257.686 162.648 257.616 162.619 257.545C162.589 257.474 162.553 257.397 162.523 257.323L162.502 257.272C161.814 255.548 161.543 253.685 161.711 251.837L161.716 251.78C161.723 251.702 161.734 251.623 161.743 251.549C161.752 251.475 161.76 251.392 161.771 251.314L161.779 251.258C162.045 249.42 162.742 247.671 163.811 246.154L163.844 246.108C163.888 246.045 163.935 245.985 163.981 245.923C164.027 245.862 164.076 245.794 164.126 245.73L164.16 245.685C165.31 244.228 166.787 243.062 168.471 242.283L168.523 242.259C168.591 242.229 168.659 242.2 168.727 242.17C168.796 242.141 168.879 242.104 168.956 242.073L169.008 242.052C170.731 241.364 172.593 241.093 174.441 241.26L174.501 241.266C174.575 241.274 174.649 241.283 174.724 241.292C174.799 241.3 174.885 241.31 174.965 241.321L175.024 241.329C176.86 241.595 178.607 242.291 180.124 243.36L180.17 243.393C180.238 243.442 180.304 243.492 180.37 243.542C180.437 243.591 180.489 243.629 180.548 243.674L180.593 243.71C182.05 244.859 183.216 246.336 183.995 248.02L184.018 248.07Z" stroke="#B7DEFF" stroke-width="0.42" stroke-miterlimit="10"/>
<path d="M45.098 316.393C45.0045 316.404 44.9111 316.415 44.8184 316.428C44.7626 316.435 44.7077 316.444 44.6527 316.451C44.5977 316.459 44.5443 316.467 44.4901 316.476C44.3967 316.49 44.304 316.506 44.2113 316.522L44.1626 316.531C44.1375 316.535 44.1124 316.539 44.0841 316.544C43.8533 316.587 43.6239 316.636 43.3962 316.69C43.313 316.71 43.2297 316.731 43.1473 316.752L40.7702 313.087L38.0601 314.253L39.0872 318.5C38.7956 318.682 38.51 318.876 38.2305 319.082L38.1912 319.112C38.1127 319.168 38.0404 319.224 37.9658 319.282C37.9219 319.315 37.8787 319.35 37.8355 319.384L37.7051 319.487C37.6313 319.547 37.5591 319.608 37.4868 319.668L37.4499 319.699C37.185 319.923 36.9295 320.156 36.6834 320.398L32.7923 318.412L31.0285 320.777L34.0417 323.94C33.8804 324.244 33.7302 324.555 33.5909 324.873L33.5713 324.919C33.5344 325.005 33.4927 325.091 33.4613 325.179L33.3993 325.336L33.3388 325.493C33.3043 325.581 33.2721 325.669 33.2399 325.757L33.2226 325.804C33.1056 326.13 33.0011 326.46 32.9085 326.792L28.5461 327.018L28.2006 329.948L32.3918 331.181C32.4048 331.525 32.431 331.869 32.4703 332.215L32.4758 332.263C32.4844 332.341 32.4923 332.414 32.5025 332.489L32.5103 332.543C32.5174 332.599 32.526 332.654 32.5339 332.709L32.5575 332.872C32.5721 332.965 32.5878 333.057 32.6046 333.15L32.6116 333.189V333.199C32.6739 333.54 32.7478 333.878 32.8331 334.211L29.1681 336.588L30.3343 339.299L34.5804 338.271C34.6259 338.343 34.6715 338.416 34.7186 338.488C34.8464 338.683 34.9793 338.876 35.1175 339.067L35.1631 339.128L35.1694 339.136L35.1929 339.167C35.2487 339.246 35.3052 339.319 35.3633 339.393C35.3963 339.437 35.4309 339.48 35.4646 339.523L35.5683 339.653L35.6029 339.696C35.6508 339.755 35.6994 339.813 35.7481 339.871L35.7803 339.909C36.0044 340.174 36.2371 340.429 36.4785 340.675L34.4924 344.566L36.8609 346.327L40.0241 343.314C40.3278 343.475 40.6388 343.625 40.9571 343.764L41.0042 343.785C41.0898 343.822 41.1761 343.859 41.2625 343.894L41.4196 343.957C41.4699 343.976 41.5209 343.997 41.5719 344.016C41.6607 344.051 41.7494 344.084 41.8382 344.116L41.8829 344.133C42.2096 344.249 42.5389 344.354 42.8708 344.447L43.097 348.81L46.027 349.155L47.2599 344.963C47.6038 344.95 47.9486 344.924 48.2941 344.885L48.342 344.879C48.4355 344.868 48.5289 344.857 48.6224 344.844C48.6784 344.837 48.7334 344.829 48.7873 344.821C48.8423 344.813 48.8965 344.806 48.9514 344.797C49.0441 344.782 49.1368 344.766 49.2294 344.75L49.2781 344.741C49.6195 344.679 49.9569 344.606 50.2904 344.52L52.6675 348.185L55.3784 347.019L54.3504 342.772C54.642 342.589 54.9276 342.395 55.2072 342.19L55.2472 342.16C55.3257 342.104 55.398 342.048 55.4726 341.99L55.6022 341.888L55.7325 341.785C55.8056 341.725 55.8786 341.665 55.9501 341.605L55.9878 341.573C56.2532 341.349 56.5087 341.116 56.7542 340.875L60.6454 342.86L62.4092 340.495L59.396 337.332C59.553 337.028 59.7101 336.716 59.8467 336.399L59.8656 336.355C59.9033 336.268 59.9441 336.181 59.9771 336.093L60.0383 335.94L60.0996 335.783C60.1334 335.695 60.1656 335.607 60.1978 335.519L60.215 335.472C60.3318 335.145 60.4365 334.816 60.5291 334.484L64.8923 334.258L65.2371 331.328L61.0459 330.095C61.0328 329.751 61.0066 329.407 60.9674 329.062L60.9611 329.012C60.9524 328.938 60.9446 328.862 60.9344 328.787L60.9265 328.733C60.9195 328.677 60.9116 328.622 60.903 328.567L60.8794 328.405C60.8645 328.311 60.8488 328.218 60.8323 328.126L60.8252 328.087V328.077C60.7629 327.736 60.6891 327.398 60.6038 327.065L64.2688 324.688L63.1018 321.982L58.8549 323.003C58.6717 322.712 58.4772 322.426 58.2714 322.146L58.2667 322.139L58.2431 322.109C58.1874 322.03 58.1301 321.956 58.0719 321.881C58.039 321.838 58.0052 321.795 57.9714 321.753C57.9377 321.711 57.9023 321.664 57.8662 321.62L57.8324 321.578C57.7853 321.52 57.7366 321.462 57.6879 321.404L57.6549 321.365C57.4309 321.1 57.1984 320.845 56.9576 320.599L58.9428 316.708L56.5775 314.944L53.4143 317.958C53.1104 317.797 52.7986 317.644 52.4814 317.507L52.4358 317.487C52.3494 317.45 52.2631 317.409 52.1759 317.377L52.1602 317.37L52.1453 317.364C52.1044 317.348 52.0628 317.332 52.022 317.315C51.9811 317.299 51.9191 317.274 51.8649 317.255C51.777 317.22 51.6882 317.188 51.6003 317.156L51.5531 317.139C51.2272 317.022 50.8974 316.917 50.566 316.824L50.3399 312.462L47.4099 312.117L46.177 316.308C45.833 316.321 45.4885 316.347 45.1435 316.386L45.098 316.393ZM57.3746 325.793C57.4084 325.868 57.4398 325.943 57.472 326.018C57.5042 326.093 57.5324 326.155 57.5607 326.225L57.5819 326.279C58.2693 328.002 58.5405 329.864 58.3735 331.712L58.368 331.77C58.3602 331.848 58.3492 331.933 58.3397 332.015C58.3303 332.096 58.3232 332.162 58.313 332.236L58.3052 332.293C58.0393 334.131 57.3432 335.88 56.2736 337.398L56.2406 337.444C56.1927 337.511 56.1432 337.575 56.0945 337.641C56.0459 337.707 56.0058 337.761 55.9595 337.821L55.9241 337.867C54.7749 339.324 53.2981 340.49 51.6136 341.269L51.5626 341.293C51.484 341.327 51.4094 341.359 51.3333 341.392C51.2571 341.425 51.1982 341.451 51.1307 341.479L51.0773 341.5C49.3525 342.188 47.4899 342.459 45.6406 342.292L45.588 342.287C45.5047 342.279 45.4231 342.268 45.3406 342.258C45.2581 342.248 45.1914 342.242 45.1168 342.231L45.0642 342.224C43.2265 341.957 41.4777 341.261 39.9597 340.191L39.9149 340.159C39.8537 340.115 39.7948 340.069 39.7343 340.025C39.6739 339.98 39.6016 339.927 39.5364 339.877L39.4932 339.842C38.0349 338.693 36.8687 337.216 36.0897 335.53L36.0662 335.48C36.0348 335.41 36.0049 335.34 35.9751 335.269C35.9452 335.198 35.9099 335.121 35.8793 335.047L35.8589 334.996C35.1714 333.271 34.9002 331.409 35.0673 329.56L35.0728 329.504C35.0806 329.425 35.0901 329.347 35.0995 329.273C35.1089 329.199 35.1168 329.116 35.1278 329.038L35.1356 328.982C35.4017 327.144 36.0981 325.395 37.168 323.877L37.2002 323.832C37.2449 323.769 37.2913 323.708 37.3376 323.647C37.3839 323.586 37.4326 323.518 37.4821 323.454L37.5166 323.409C38.6663 321.952 40.1437 320.786 41.8287 320.007L41.879 319.983C41.9473 319.952 42.0164 319.923 42.0847 319.894C42.1531 319.865 42.2355 319.827 42.3125 319.796L42.3643 319.776C44.0881 319.088 45.9496 318.817 47.7978 318.984L47.8575 318.99C47.936 318.997 48.0059 319.007 48.0805 319.015C48.1551 319.024 48.2376 319.034 48.3216 319.045L48.3813 319.053C50.2171 319.319 51.9642 320.015 53.4803 321.084L53.5274 321.117C53.5949 321.165 53.6609 321.216 53.7269 321.265C53.7928 321.315 53.8462 321.353 53.9044 321.398L53.9491 321.433C55.407 322.582 56.5731 324.059 57.3526 325.744L57.3746 325.793Z" stroke="#B7DEFF" stroke-width="0.42" stroke-miterlimit="10"/>
<path d="M141.496 344.234C141.623 344.22 141.75 344.205 141.877 344.188C141.956 344.177 142.027 344.166 142.102 344.155C142.176 344.144 142.25 344.134 142.324 344.122C142.451 344.103 142.578 344.081 142.704 344.058C142.726 344.054 142.748 344.051 142.771 344.047C142.794 344.043 142.839 344.035 142.873 344.029C143.187 343.97 143.499 343.904 143.81 343.83C143.924 343.803 144.037 343.774 144.15 343.745L147.389 348.739L151.08 347.15L149.679 341.364C150.077 341.114 150.466 340.85 150.847 340.57L150.901 340.529C151.004 340.45 151.107 340.377 151.208 340.298L151.386 340.159C151.445 340.112 151.504 340.066 151.563 340.018C151.664 339.939 151.762 339.855 151.86 339.772L151.911 339.729C152.272 339.424 152.62 339.107 152.955 338.778L158.258 341.484L160.662 338.264L156.555 333.954C156.774 333.539 156.979 333.115 157.169 332.682L157.196 332.62C157.247 332.502 157.297 332.384 157.347 332.265L157.431 332.056C157.458 331.986 157.487 331.916 157.509 331.846C157.556 331.726 157.601 331.605 157.644 331.485L157.667 331.422C157.824 330.977 157.967 330.529 158.095 330.076L164.041 329.769L164.512 325.775L158.801 324.095C158.783 323.624 158.749 323.154 158.697 322.687L158.689 322.621C158.677 322.518 158.666 322.415 158.653 322.313L158.643 322.238C158.632 322.16 158.621 322.088 158.61 322.014L158.577 321.791C158.557 321.664 158.536 321.538 158.513 321.411L158.504 321.358V321.345C158.42 320.88 158.32 320.42 158.203 319.966L163.197 316.726L161.608 313.035L155.822 314.436C155.76 314.337 155.698 314.238 155.633 314.14C155.459 313.874 155.278 313.613 155.09 313.355L155.028 313.272L155.02 313.261L154.987 313.218C154.911 313.113 154.833 313.01 154.755 312.91L154.616 312.733L154.475 312.555L154.429 312.496C154.363 312.417 154.297 312.339 154.231 312.26L154.188 312.208C153.882 311.848 153.565 311.5 153.236 311.165L155.942 305.862L152.722 303.459L148.412 307.565C147.997 307.346 147.573 307.141 147.14 306.951L147.076 306.923C146.959 306.871 146.841 306.821 146.724 306.773C146.653 306.744 146.583 306.717 146.512 306.689C146.441 306.66 146.374 306.634 146.305 306.61C146.184 306.563 146.063 306.518 145.941 306.474C145.921 306.467 145.9 306.459 145.88 306.452C145.435 306.292 144.987 306.149 144.534 306.023L144.226 300.079L140.233 299.608L138.553 305.319C138.082 305.336 137.612 305.371 137.144 305.423L137.078 305.431C136.951 305.445 136.824 305.46 136.697 305.478C136.618 305.488 136.547 305.499 136.471 305.51C136.396 305.521 136.323 305.531 136.249 305.543C136.122 305.562 135.995 305.584 135.87 305.607C135.847 305.611 135.825 305.614 135.803 305.618C135.337 305.703 134.877 305.804 134.423 305.921L131.184 300.926L127.493 302.515L128.894 308.302C128.496 308.551 128.107 308.815 127.726 309.096L127.672 309.136C127.569 309.215 127.466 309.289 127.365 309.367L127.188 309.506C127.128 309.553 127.069 309.6 127.01 309.648C126.91 309.729 126.811 309.81 126.713 309.893L126.662 309.936C126.301 310.242 125.953 310.559 125.618 310.887L120.315 308.181L117.912 311.401L122.014 315.7C121.795 316.115 121.59 316.539 121.4 316.972L121.374 317.032C121.323 317.15 121.272 317.267 121.222 317.388L121.139 317.596L121.056 317.808C121.009 317.927 120.965 318.043 120.921 318.167L120.898 318.232C120.741 318.677 120.598 319.126 120.47 319.577L114.524 319.885L114.053 323.878L119.765 325.559C119.782 326.03 119.816 326.499 119.868 326.967L119.876 327.033C119.888 327.136 119.899 327.238 119.912 327.34L119.923 327.419L119.955 327.644L119.988 327.867C120.008 327.993 120.03 328.12 120.052 328.246L120.061 328.299V328.313C120.145 328.778 120.246 329.237 120.363 329.692L115.368 332.931L116.958 336.622L122.744 335.222C122.994 335.619 123.259 336.008 123.539 336.39L123.546 336.4L123.577 336.441C123.656 336.545 123.734 336.649 123.813 336.751C123.858 336.81 123.905 336.867 123.95 336.925L124.093 337.106L124.14 337.165C124.205 337.243 124.271 337.322 124.337 337.4L124.381 337.454C124.687 337.815 125.004 338.163 125.332 338.497L122.626 343.8L125.85 346.203L130.16 342.097C130.575 342.317 130.999 342.522 131.432 342.711C131.452 342.721 131.473 342.729 131.494 342.738C131.612 342.789 131.729 342.84 131.848 342.889L131.87 342.898L131.89 342.906C131.945 342.929 132.002 342.95 132.058 342.973L132.267 343.056C132.387 343.102 132.508 343.146 132.629 343.19L132.691 343.213C133.137 343.373 133.586 343.516 134.038 343.642L134.345 349.587L138.339 350.058L140.018 344.346C140.49 344.329 140.959 344.294 141.426 344.243C141.451 344.239 141.474 344.237 141.496 344.234ZM124.769 331.425C124.723 331.324 124.68 331.221 124.637 331.119C124.593 331.016 124.558 330.932 124.516 330.837L124.486 330.764C123.549 328.415 123.18 325.878 123.408 323.359L123.415 323.28C123.426 323.169 123.44 323.057 123.454 322.946C123.468 322.834 123.476 322.745 123.489 322.644L123.5 322.566C123.864 320.063 124.812 317.681 126.268 315.614L126.314 315.55C126.379 315.459 126.447 315.371 126.514 315.282C126.58 315.193 126.634 315.117 126.696 315.036L126.745 314.974C128.311 312.99 130.324 311.402 132.618 310.341L132.689 310.309C132.793 310.262 132.897 310.219 133.003 310.174C133.109 310.129 133.187 310.095 133.28 310.055L133.353 310.026C135.703 309.089 138.241 308.719 140.76 308.947L140.833 308.954C140.946 308.965 141.057 308.98 141.17 308.993C141.282 309.007 141.373 309.015 141.474 309.03L141.546 309.04C144.051 309.403 146.435 310.352 148.504 311.81L148.566 311.854C148.649 311.913 148.73 311.975 148.811 312.037C148.893 312.098 148.992 312.169 149.082 312.238L149.14 312.285C151.127 313.851 152.716 315.864 153.778 318.16L153.81 318.229C153.853 318.324 153.893 318.421 153.934 318.517C153.975 318.613 154.023 318.719 154.064 318.82L154.093 318.89C155.03 321.24 155.399 323.777 155.171 326.297L155.164 326.375C155.154 326.481 155.14 326.585 155.128 326.689C155.115 326.794 155.103 326.905 155.089 327.013L155.078 327.092C154.713 329.593 153.764 331.974 152.306 334.039L152.262 334.101C152.202 334.187 152.138 334.269 152.075 334.353C152.012 334.437 151.946 334.53 151.878 334.616L151.831 334.677C150.264 336.663 148.251 338.252 145.955 339.314L145.886 339.346C145.793 339.388 145.7 339.425 145.607 339.467C145.513 339.51 145.4 339.557 145.292 339.6C145.269 339.61 145.245 339.619 145.222 339.628C142.873 340.565 140.336 340.935 137.818 340.707L137.739 340.699C137.637 340.69 137.537 340.677 137.435 340.664C137.333 340.651 137.216 340.64 137.106 340.625L137.028 340.614C134.526 340.25 132.145 339.302 130.079 337.845L130.015 337.801C129.923 337.735 129.834 337.666 129.743 337.598C129.652 337.53 129.581 337.48 129.502 337.418C129.481 337.402 129.461 337.385 129.44 337.37C127.455 335.803 125.867 333.791 124.806 331.496L124.769 331.425Z" fill="#FFB635" fill-opacity="0.69"/>
<path d="M237.451 96.6632L237.432 96.6295M223.691 96.6193L223.71 96.5855M223.669 104.523L223.688 104.557M237.428 104.567L237.408 104.6M231.041 108.513L231.101 108.508M235.377 121.421C235.514 121.389 235.65 121.357 235.786 121.323C235.864 121.302 235.943 121.281 236.027 121.26C236.111 121.239 236.184 121.218 236.262 121.196C236.399 121.158 236.534 121.119 236.668 121.079C236.691 121.072 236.715 121.066 236.738 121.058C236.775 121.048 236.811 121.037 236.848 121.026C237.305 120.885 237.756 120.728 238.201 120.555L242.345 125.581L246.162 123.393L243.919 117.276C244.32 116.955 244.71 116.619 245.089 116.268L245.144 116.216C245.246 116.121 245.348 116.024 245.449 115.927C245.508 115.869 245.566 115.811 245.624 115.753C245.682 115.696 245.742 115.637 245.8 115.578C245.899 115.478 245.996 115.375 246.092 115.273L246.142 115.221C246.497 114.844 246.836 114.456 247.159 114.057L253.261 116.339L255.475 112.542L250.474 108.366C250.584 108.086 250.689 107.802 250.788 107.515C250.857 107.314 250.922 107.111 250.985 106.908L251.007 106.835C251.047 106.701 251.085 106.567 251.126 106.432L251.191 106.197C251.212 106.118 251.234 106.04 251.255 105.961C251.291 105.825 251.324 105.687 251.357 105.55L251.373 105.481C251.492 104.976 251.591 104.471 251.672 103.963L258.096 102.883L258.11 98.4851L251.691 97.3692C251.614 96.8619 251.518 96.3559 251.402 95.8512L251.386 95.7798C251.361 95.6698 251.336 95.5599 251.307 95.45L251.286 95.3714C251.266 95.2929 251.245 95.2144 251.223 95.1311L251.16 94.8955C251.123 94.7605 251.081 94.6254 251.043 94.4911L251.026 94.4338V94.4204C250.877 93.9246 250.71 93.4372 250.526 92.9582L255.552 88.8141L253.364 84.996L247.247 87.2396C246.926 86.8391 246.589 86.4488 246.238 86.0687L246.229 86.0585L246.187 86.0145C246.091 85.9124 245.996 85.8104 245.897 85.7098C245.84 85.6509 245.782 85.5928 245.725 85.5347C245.667 85.4766 245.608 85.4169 245.549 85.3588C245.529 85.3392 245.51 85.3195 245.491 85.3007C245.412 85.2222 245.327 85.1436 245.245 85.0651C245.228 85.0478 245.209 85.0313 245.192 85.0149C244.815 84.6604 244.427 84.3201 244.028 83.9939L246.307 77.8882L242.503 75.676L238.327 80.6776C237.849 80.4907 237.362 80.3208 236.868 80.168L236.797 80.1468C236.663 80.1059 236.529 80.0661 236.394 80.0274C236.315 80.0046 236.237 79.9834 236.153 79.9614C236.091 79.9449 236.028 79.9261 235.964 79.9096L235.941 79.9041L235.916 79.8978C235.78 79.8625 235.644 79.8295 235.507 79.7965C235.483 79.791 235.459 79.7847 235.436 79.7792C234.931 79.6614 234.426 79.5622 233.919 79.4816L232.844 73.0555L228.446 73.0413L227.331 79.4604C226.824 79.5379 226.318 79.6339 225.813 79.7486C225.788 79.7541 225.765 79.7604 225.739 79.7659C225.604 79.7973 225.468 79.8295 225.332 79.864C225.253 79.8845 225.17 79.9065 225.089 79.9277C225.008 79.9489 224.932 79.9693 224.854 79.9905C224.718 80.0282 224.582 80.069 224.447 80.1083C224.424 80.1153 224.401 80.1216 224.379 80.1287C223.883 80.2779 223.395 80.4446 222.915 80.6289L218.771 75.603L214.954 77.7909L217.197 83.9076C216.796 84.2285 216.406 84.5649 216.026 84.9167L215.975 84.9654C215.871 85.062 215.768 85.1586 215.667 85.2575C215.609 85.3141 215.552 85.3714 215.494 85.4287C215.437 85.486 215.375 85.5465 215.316 85.6062C215.218 85.7059 215.122 85.8064 215.026 85.9077L214.973 85.9635C214.619 86.3404 214.281 86.7284 213.958 87.1273L207.855 84.8452L205.643 88.6492L210.644 92.8247C210.457 93.3032 210.287 93.7896 210.134 94.2838L210.113 94.3529C210.073 94.4872 210.035 94.6222 209.993 94.7589L209.929 94.9945L209.864 95.2348C209.829 95.3706 209.796 95.5065 209.763 95.6416L209.745 95.7162C209.627 96.2198 209.528 96.725 209.448 97.2318L203.021 98.3069L203.007 102.705L209.427 103.82C209.504 104.328 209.6 104.834 209.715 105.339L209.732 105.411C209.758 105.521 209.782 105.631 209.81 105.74L209.832 105.818C209.851 105.897 209.873 105.975 209.894 106.059L209.958 106.294C209.996 106.429 210.035 106.564 210.075 106.699C210.08 106.717 210.085 106.737 210.091 106.756V106.77C210.241 107.265 210.407 107.752 210.592 108.232L205.566 112.376L207.754 116.194L213.874 113.956C214.194 114.357 214.531 114.747 214.883 115.127L214.892 115.138C214.905 115.151 214.919 115.164 214.931 115.178C215.028 115.283 215.126 115.386 215.224 115.486C215.28 115.544 215.338 115.602 215.395 115.659C215.451 115.716 215.512 115.778 215.573 115.837C215.593 115.856 215.611 115.876 215.63 115.895C215.709 115.974 215.793 116.052 215.874 116.127L215.929 116.18C216.306 116.534 216.694 116.872 217.093 117.196L214.808 123.301L218.612 125.513L222.787 120.511C223.266 120.698 223.753 120.868 224.247 121.021L224.316 121.042C224.451 121.083 224.586 121.123 224.722 121.162C224.8 121.184 224.879 121.206 224.957 121.227C225.036 121.248 225.114 121.271 225.198 121.291C225.333 121.326 225.468 121.359 225.604 121.392C225.629 121.398 225.653 121.404 225.682 121.41C225.719 121.418 225.756 121.429 225.792 121.436C226.263 121.543 226.728 121.633 227.198 121.708L228.273 128.133L232.671 128.148L233.786 121.729C234.293 121.652 234.8 121.556 235.304 121.44C235.329 121.432 235.353 121.426 235.377 121.421ZM248.008 100.218V100.301C248.008 100.415 248.008 100.529 248.008 100.642C248.008 100.755 248.008 100.883 248.008 101.004C248.008 101.032 248.008 101.059 248.008 101.088C247.931 103.647 247.295 106.16 246.146 108.448L237.888 103.645C238.693 101.708 238.699 99.5318 237.904 97.5907L246.193 92.8404C247.327 95.1364 247.947 97.6525 248.008 100.213V100.218ZM224.836 100.579C224.84 99.4471 225.179 98.3419 225.81 97.4028C226.442 96.4638 227.338 95.7331 228.385 95.3032C229.431 94.8733 230.582 94.7636 231.692 94.9878C232.801 95.2119 233.819 95.76 234.616 96.5627C235.414 97.3654 235.956 98.3866 236.173 99.4973C236.391 100.608 236.274 101.758 235.837 102.802C235.401 103.846 234.665 104.738 233.722 105.363C232.779 105.989 231.672 106.321 230.54 106.318C229.023 106.311 227.57 105.703 226.5 104.626C225.431 103.55 224.833 102.093 224.836 100.576V100.579ZM238.956 85.2921L239.028 85.3313C239.126 85.3863 239.222 85.4436 239.318 85.4994C239.415 85.5551 239.531 85.6219 239.636 85.6855L239.707 85.7287C241.885 87.0761 243.743 88.8827 245.151 91.0224L236.86 95.7735C235.588 94.108 233.708 93.0144 231.631 92.732L231.661 83.1757C234.218 83.3414 236.707 84.0637 238.956 85.2921ZM231.149 92.6825C231.129 92.6825 231.109 92.6826 231.089 92.6778L231.149 92.6825ZM216.026 90.9297C217.447 88.7996 219.316 87.0054 221.503 85.6722L221.576 85.6274C221.68 85.5654 221.787 85.5057 221.89 85.4452C221.993 85.3847 222.082 85.3329 222.18 85.2787C222.206 85.2654 222.231 85.252 222.259 85.2379C224.514 84.0256 227.006 83.32 229.562 83.1702L229.532 92.7257C227.455 92.9963 225.568 94.0789 224.287 95.7366L216.026 90.9297ZM230.077 92.6739C230.057 92.6739 230.037 92.6739 230.018 92.6778L230.077 92.6739ZM214.923 108.345C213.789 106.05 213.169 103.534 213.108 100.974V100.889C213.108 100.766 213.108 100.643 213.108 100.521C213.108 100.398 213.108 100.298 213.108 100.188V100.103C213.185 97.5425 213.821 95.0299 214.97 92.7407L223.231 97.5428C222.426 99.4784 222.419 101.654 223.212 103.594L214.923 108.345ZM222.169 115.897L222.09 115.855C221.982 115.795 221.875 115.732 221.769 115.669C221.663 115.606 221.577 115.56 221.484 115.503L221.411 115.458C219.232 114.111 217.374 112.305 215.966 110.165L224.257 105.413C225.529 107.079 227.409 108.174 229.485 108.459L229.455 118.014C226.9 117.847 224.411 117.125 222.164 115.897H222.169ZM230.03 108.51L229.969 108.505C229.987 108.506 230.008 108.508 230.027 108.51H230.03ZM238.932 115.909L238.859 115.949C236.604 117.161 234.112 117.867 231.556 118.016L231.581 108.459C233.66 108.189 235.547 107.107 236.83 105.45L245.091 110.254C243.669 112.386 241.8 114.182 239.613 115.516L239.541 115.559C239.445 115.617 239.346 115.671 239.249 115.727C239.152 115.783 239.037 115.851 238.929 115.909H238.932Z" stroke="#B7DEFF" stroke-width="0.84" stroke-linecap="round" stroke-linejoin="round"/>
<path d="M293.604 203.947L293.563 203.896M280.331 199.362C280.299 199.369 280.267 199.378 280.235 199.386M270.851 207.622L270.874 207.561M272.958 220.691L272.999 220.741M295.715 217.016L295.691 217.077M296.919 245.429C297.135 245.339 297.351 245.249 297.567 245.155C297.695 245.099 297.821 245.042 297.948 244.985C298.075 244.928 298.199 244.873 298.324 244.815C298.537 244.716 298.749 244.614 298.96 244.512C298.997 244.493 299.035 244.476 299.072 244.458C299.129 244.43 299.187 244.404 299.244 244.38C299.962 244.021 300.665 243.641 301.352 243.238L309.57 250.418L315.284 245.762L309.911 236.26C310.487 235.621 311.04 234.959 311.571 234.274L311.649 234.175C311.792 233.989 311.934 233.802 312.074 233.614C312.153 233.502 312.236 233.391 312.317 233.278C312.398 233.166 312.479 233.055 312.559 232.942C312.695 232.748 312.829 232.554 312.96 232.36C312.982 232.326 313.006 232.293 313.028 232.259C313.511 231.539 313.965 230.806 314.391 230.06L325.098 232.17L327.719 225.282L318.313 219.736C318.419 219.241 318.515 218.744 318.599 218.244C318.658 217.893 318.71 217.537 318.756 217.187L318.773 217.06C318.804 216.824 318.833 216.596 318.86 216.363C318.876 216.226 318.889 216.087 318.903 215.95C318.917 215.813 318.931 215.677 318.944 215.539C318.965 215.304 318.983 215.068 319 214.833L319.009 214.713C319.067 213.849 319.094 212.985 319.088 212.122L329.415 208.596L328.237 201.319L317.322 201.223C317.055 200.405 316.758 199.593 316.431 198.789C316.416 198.751 316.4 198.71 316.384 198.676C316.312 198.501 316.241 198.325 316.166 198.151L316.11 198.025C316.054 197.898 315.997 197.772 315.94 197.645C315.884 197.519 315.828 197.394 315.77 197.269C315.672 197.056 315.57 196.844 315.468 196.633L315.424 196.543L315.413 196.521C315.032 195.743 314.623 194.984 314.188 194.243L321.369 186.026L316.713 180.312L307.211 185.685C306.572 185.109 305.91 184.556 305.225 184.025L305.206 184.01L305.127 183.95C304.942 183.807 304.754 183.665 304.565 183.524C304.454 183.445 304.343 183.362 304.231 183.282C304.12 183.202 304.007 183.119 303.893 183.039C303.856 183.013 303.819 182.985 303.781 182.961C303.624 182.853 303.467 182.747 303.31 182.641L303.209 182.572C302.49 182.09 301.757 181.636 301.01 181.21L303.13 170.505L296.241 167.885L290.702 177.288C289.86 177.109 289.01 176.961 288.152 176.843C288.111 176.837 288.073 176.832 288.028 176.827C287.793 176.796 287.563 176.767 287.329 176.74C287.191 176.724 287.053 176.711 286.915 176.697C286.806 176.686 286.696 176.672 286.587 176.662H286.548H286.506C286.27 176.641 286.034 176.623 285.799 176.606L285.675 176.597C284.811 176.539 283.947 176.513 283.084 176.518L279.564 166.184L272.288 167.362L272.193 178.277C271.374 178.544 270.563 178.841 269.758 179.168C269.719 179.184 269.68 179.2 269.641 179.216C269.425 179.305 269.21 179.396 268.995 179.489C268.866 179.545 268.739 179.603 268.611 179.66C268.483 179.718 268.362 179.771 268.239 179.828C268.023 179.928 267.811 180.03 267.598 180.134C267.562 180.151 267.526 180.168 267.49 180.186C266.712 180.567 265.951 180.976 265.209 181.411L256.992 174.23L251.277 178.886L256.651 188.388C256.075 189.027 255.521 189.69 254.99 190.375L254.918 190.469C254.774 190.657 254.631 190.846 254.489 191.036C254.41 191.145 254.332 191.255 254.253 191.365C254.175 191.475 254.088 191.593 254.007 191.708C253.872 191.899 253.741 192.092 253.614 192.284L253.541 192.391C253.059 193.11 252.605 193.843 252.179 194.59L241.469 192.471L238.849 199.36L248.251 204.899C248.073 205.741 247.925 206.592 247.807 207.451L247.792 207.569C247.76 207.805 247.73 208.04 247.704 208.276C247.688 208.413 247.675 208.549 247.661 208.685C247.646 208.821 247.632 208.962 247.62 209.1C247.598 209.335 247.58 209.567 247.564 209.8C247.564 209.843 247.557 209.884 247.555 209.927C247.496 210.792 247.47 211.654 247.476 212.514L237.148 216.04L238.326 223.316L249.242 223.412C249.509 224.23 249.805 225.042 250.132 225.846L250.18 225.96C250.252 226.135 250.323 226.31 250.398 226.484L250.454 226.61C250.51 226.737 250.567 226.863 250.623 226.991C250.68 227.118 250.736 227.241 250.793 227.366C250.892 227.58 250.994 227.792 251.097 228.003C251.111 228.033 251.125 228.063 251.139 228.093L251.15 228.114C251.532 228.893 251.94 229.652 252.375 230.392L245.194 238.609L249.85 244.324L259.352 238.95C259.991 239.526 260.654 240.079 261.339 240.611L261.357 240.625C261.382 240.645 261.408 240.663 261.436 240.682C261.622 240.827 261.811 240.97 262.003 241.112C262.112 241.19 262.222 241.269 262.332 241.347C262.442 241.426 262.559 241.512 262.675 241.594L262.785 241.673C262.943 241.78 263.1 241.885 263.251 241.987C263.286 242.011 263.321 242.035 263.357 242.059C264.077 242.541 264.809 242.995 265.556 243.421L263.435 254.132L270.324 256.753L275.863 247.35C276.705 247.528 277.555 247.676 278.415 247.795C278.454 247.8 278.493 247.805 278.533 247.81C278.769 247.841 279.004 247.871 279.24 247.898C279.377 247.913 279.513 247.927 279.65 247.941C279.786 247.955 279.925 247.969 280.064 247.982C280.299 248.003 280.53 248.021 280.763 248.037L280.891 248.047C280.954 248.051 281.017 248.057 281.081 248.061C281.881 248.11 282.68 248.132 283.477 248.126L287.003 258.454L294.28 257.276L294.376 246.36C295.194 246.094 296.005 245.798 296.81 245.47L296.919 245.429ZM312.019 206.94L312.045 207.078C312.079 207.266 312.106 207.454 312.137 207.641C312.169 207.841 312.205 208.04 312.233 208.241L312.252 208.38C312.821 212.632 312.454 216.956 311.179 221.052L296.222 215.363C296.621 213.671 296.683 211.916 296.404 210.2C296.128 208.483 295.517 206.837 294.606 205.356L307.011 195.248C309.511 198.734 311.22 202.725 312.019 206.94ZM273.821 213.851C273.419 211.342 274.028 208.777 275.515 206.717C277.002 204.657 279.245 203.27 281.753 202.862C284.261 202.46 286.827 203.069 288.887 204.556C290.948 206.043 292.334 208.286 292.742 210.794C293.142 213.301 292.533 215.866 291.046 217.925C289.559 219.984 287.317 221.369 284.811 221.778C282.302 222.18 279.737 221.571 277.676 220.084C275.616 218.597 274.23 216.354 273.821 213.846V213.851ZM292.995 184.744C293.038 184.759 293.082 184.773 293.125 184.789C293.302 184.853 293.475 184.922 293.65 184.988C293.843 185.061 294.036 185.132 294.227 185.209L294.355 185.261C298.322 186.894 301.884 189.374 304.794 192.527L292.386 202.637C289.83 200.231 286.424 198.936 282.915 199.035L280.363 183.234C284.633 182.812 288.945 183.327 292.995 184.744ZM282.105 199.082C282.071 199.082 282.038 199.088 282.004 199.091C282.038 199.089 282.071 199.086 282.105 199.082ZM256.634 200.304C258.402 196.397 261.002 192.922 264.252 190.123L264.36 190.03C264.517 189.898 264.674 189.771 264.831 189.642C264.976 189.524 265.119 189.407 265.267 189.288C265.305 189.258 265.346 189.229 265.381 189.2C268.781 186.581 272.711 184.736 276.898 183.793L279.446 199.594C276.086 200.606 273.262 202.908 271.593 205.995L256.634 200.304ZM259.554 229.39C257.054 225.904 255.345 221.915 254.547 217.7L254.52 217.561C254.484 217.358 254.453 217.155 254.421 216.951C254.391 216.768 254.359 216.585 254.333 216.402L254.314 216.261C253.745 212.008 254.111 207.683 255.386 203.586L270.343 209.276C269.944 210.968 269.882 212.723 270.161 214.44C270.437 216.157 271.048 217.803 271.959 219.284L259.554 229.39ZM273.573 239.896C273.528 239.88 273.483 239.865 273.438 239.848C273.243 239.778 273.05 239.702 272.857 239.628C272.684 239.563 272.511 239.5 272.34 239.431C272.295 239.413 272.252 239.395 272.208 239.376C268.24 237.743 264.677 235.264 261.768 232.111L274.176 222C276.732 224.406 280.137 225.702 283.646 225.603L286.198 241.404C281.932 241.825 277.624 241.311 273.576 239.896H273.573ZM284.561 225.547C284.527 225.551 284.494 225.553 284.46 225.556C284.494 225.552 284.527 225.547 284.561 225.547ZM301.288 235.353C301.252 235.382 301.215 235.41 301.179 235.438C297.781 238.057 293.852 239.903 289.666 240.846L287.114 225.045C290.475 224.033 293.299 221.732 294.967 218.644L309.928 224.335C308.158 228.244 305.557 231.719 302.305 234.518L302.199 234.61C302.055 234.73 301.908 234.845 301.762 234.966C301.607 235.094 301.45 235.225 301.289 235.352L301.288 235.353ZM286.232 225.278C286.265 225.27 286.298 225.261 286.331 225.253C286.299 225.26 286.266 225.268 286.233 225.276L286.232 225.278Z" stroke="#B7DEFF" stroke-width="0.84" stroke-linecap="round" stroke-linejoin="round"/>
<mask id="mask0_166_14001" style="mask-type:luminance" maskUnits="userSpaceOnUse" x="169" y="249" width="144" height="144">
<path d="M234.114 265.872C233.755 265.92 233.396 265.968 233.037 266.022C232.825 266.055 232.614 266.09 232.402 266.124C232.19 266.158 231.983 266.191 231.774 266.227C231.415 266.289 231.058 266.357 230.702 266.426C230.64 266.438 230.577 266.449 230.514 266.461C230.418 266.48 230.321 266.497 230.224 266.516C229.334 266.697 228.453 266.899 227.581 267.122C227.261 267.2 226.942 267.291 226.624 267.379L217.228 253.389L206.847 258.056L211.075 274.37C209.962 275.094 208.873 275.861 207.806 276.671C207.755 276.71 207.705 276.75 207.654 276.788C207.367 277.009 207.08 277.232 206.796 277.457C206.629 277.59 206.465 277.725 206.301 277.859C206.137 277.994 205.968 278.129 205.804 278.267C205.524 278.5 205.248 278.735 204.975 278.974C204.927 279.015 204.879 279.052 204.832 279.097C203.824 279.978 202.853 280.892 201.92 281.838L186.788 274.42L180.131 283.652L191.949 295.668C191.348 296.852 190.788 298.061 190.27 299.295C190.245 299.354 190.221 299.414 190.197 299.472C190.057 299.808 189.921 300.145 189.787 300.482C189.708 300.68 189.634 300.88 189.559 301.079C189.484 301.279 189.407 301.477 189.334 301.677C189.208 302.018 189.088 302.361 188.969 302.704L188.906 302.885C188.475 304.152 188.091 305.428 187.756 306.713L170.942 307.855L169.793 319.18L186.035 323.675C186.106 325.001 186.226 326.329 186.394 327.657L186.419 327.843C186.457 328.134 186.493 328.423 186.536 328.713C186.546 328.783 186.559 328.854 186.569 328.924C186.601 329.136 186.636 329.347 186.671 329.558C186.705 329.769 186.737 329.978 186.774 330.186C186.836 330.545 186.903 330.901 186.972 331.257C186.982 331.307 186.99 331.358 187.001 331.408L187.008 331.445C187.268 332.758 187.573 334.055 187.926 335.336L173.935 344.732L178.603 355.114L194.917 350.881C195.097 351.158 195.277 351.435 195.463 351.709C195.968 352.456 196.491 353.192 197.034 353.917C197.093 353.995 197.154 354.074 197.214 354.152L197.236 354.182C197.268 354.224 197.3 354.261 197.33 354.304C197.551 354.592 197.773 354.879 198 355.168C198.133 355.333 198.267 355.497 198.402 355.662C198.536 355.827 198.672 355.995 198.809 356.159C198.855 356.214 198.899 356.269 198.944 356.324C199.133 356.547 199.325 356.767 199.517 356.986L199.641 357.131C200.522 358.139 201.435 359.109 202.381 360.042L194.963 375.174L204.196 381.831L216.211 370.013C217.397 370.612 218.607 371.172 219.842 371.692C219.903 371.717 219.964 371.742 220.026 371.771C220.359 371.909 220.692 372.045 221.029 372.177C221.23 372.256 221.431 372.334 221.632 372.408C221.833 372.482 222.025 372.558 222.224 372.631C222.568 372.757 222.912 372.878 223.257 372.997C223.316 373.017 223.373 373.038 223.432 373.058C224.699 373.49 225.976 373.873 227.261 374.209L228.402 391.018L239.726 392.167L244.221 375.925C245.547 375.854 246.875 375.734 248.202 375.566C248.265 375.558 248.327 375.549 248.389 375.541C248.749 375.495 249.109 375.445 249.469 375.391C249.682 375.359 249.892 375.324 250.104 375.289C250.316 375.255 250.524 375.223 250.733 375.186C251.091 375.124 251.447 375.057 251.803 374.988C251.866 374.975 251.929 374.964 251.991 374.952C253.304 374.69 254.601 374.384 255.882 374.035L265.279 388.026L275.66 383.358L271.436 367.043C272.546 366.321 273.634 365.554 274.701 364.742C274.752 364.704 274.802 364.664 274.852 364.625C275.141 364.404 275.427 364.183 275.711 363.956C275.878 363.823 276.041 363.688 276.206 363.555C276.371 363.421 276.539 363.285 276.703 363.147C276.983 362.912 277.258 362.676 277.532 362.44L277.676 362.316C278.683 361.435 279.653 360.522 280.587 359.576L295.719 366.994L302.377 357.76L290.559 345.745C291.161 344.562 291.72 343.353 292.238 342.118L292.308 341.947C292.449 341.61 292.586 341.272 292.72 340.931C292.799 340.734 292.872 340.538 292.947 340.339C293.023 340.139 293.1 339.939 293.173 339.737C293.298 339.397 293.418 339.056 293.536 338.716L293.601 338.532C294.033 337.265 294.416 335.989 294.751 334.704L311.565 333.559L312.713 322.234L296.472 317.742C296.401 316.416 296.281 315.089 296.113 313.76L296.088 313.571C296.05 313.282 296.014 312.992 295.972 312.707C295.961 312.637 295.948 312.567 295.938 312.497C295.906 312.285 295.87 312.073 295.836 311.861C295.803 311.649 295.77 311.443 295.733 311.233C295.671 310.875 295.603 310.518 295.534 310.161L295.507 310.01L295.499 309.973C295.24 308.662 294.934 307.365 294.581 306.083L308.571 296.681L303.904 286.3L287.59 290.528C286.865 289.415 286.098 288.325 285.288 287.258L285.267 287.23L285.177 287.113C284.954 286.824 284.731 286.534 284.501 286.249C284.371 286.085 284.238 285.924 284.109 285.762C283.979 285.599 283.835 285.425 283.696 285.258L283.562 285.094C283.374 284.872 283.184 284.655 282.994 284.435C282.95 284.386 282.908 284.336 282.864 284.286C281.983 283.278 281.07 282.308 280.125 281.376L287.54 266.242L278.307 259.585L266.292 271.403C265.109 270.801 263.9 270.241 262.665 269.723C262.606 269.698 262.547 269.675 262.489 269.65C262.153 269.511 261.817 269.373 261.478 269.241C261.457 269.232 261.437 269.223 261.417 269.215C261.396 269.208 261.38 269.2 261.361 269.193C261.204 269.131 261.041 269.073 260.881 269.012C260.682 268.934 260.484 268.86 260.283 268.787C259.942 268.661 259.599 268.541 259.256 268.423C259.196 268.402 259.136 268.38 259.076 268.359C257.809 267.929 256.533 267.545 255.247 267.209L254.105 250.395L242.781 249.247L238.286 265.488C236.96 265.56 235.633 265.68 234.304 265.847C234.241 265.855 234.178 265.865 234.114 265.872ZM282.05 301.368C282.186 301.653 282.311 301.942 282.439 302.232C282.559 302.496 282.68 302.757 282.794 303.024L282.881 303.229C285.639 309.835 286.801 316.999 286.271 324.139L286.254 324.359C286.227 324.674 286.192 324.988 286.159 325.307C286.13 325.592 286.106 325.878 286.071 326.163L286.043 326.382C285.13 333.484 282.554 340.269 278.524 346.188L278.4 346.371C278.22 346.63 278.032 346.884 277.85 347.139C277.681 347.374 277.515 347.61 277.342 347.841L277.207 348.018C272.866 353.711 267.242 358.299 260.795 361.41C260.729 361.441 260.664 361.474 260.598 361.505C260.307 361.642 260.013 361.77 259.72 361.898C259.461 362.015 259.204 362.133 258.942 362.246C258.875 362.275 258.806 362.304 258.739 362.332C252.129 365.093 244.961 366.255 237.818 365.723C237.751 365.717 237.682 365.713 237.614 365.707C237.294 365.681 236.977 365.644 236.659 365.611C236.371 365.582 236.082 365.557 235.795 365.523C235.728 365.515 235.66 365.505 235.593 365.497C228.484 364.585 221.69 362.007 215.766 357.973L215.59 357.853C215.355 357.688 215.119 357.516 214.883 357.346C214.625 357.162 214.365 356.979 214.111 356.788L213.94 356.658C208.246 352.315 203.657 346.689 200.545 340.238L200.453 340.045C200.326 339.777 200.209 339.506 200.088 339.236C199.96 338.953 199.829 338.671 199.707 338.384L199.628 338.189C196.868 331.58 195.706 324.413 196.236 317.271C196.242 317.197 196.247 317.125 196.253 317.053C196.277 316.755 196.312 316.458 196.342 316.161C196.373 315.864 196.4 315.55 196.436 315.244L196.463 315.03C197.377 307.927 199.955 301.14 203.986 295.221L204.108 295.043C204.276 294.799 204.452 294.562 204.626 294.322C204.799 294.081 204.985 293.816 205.171 293.568L205.302 293.395C209.645 287.7 215.271 283.111 221.722 280.001C221.787 279.969 221.851 279.938 221.917 279.907C222.177 279.784 222.44 279.672 222.702 279.552C222.993 279.421 223.282 279.287 223.575 279.16C223.641 279.131 223.708 279.104 223.774 279.077C230.379 276.318 237.542 275.156 244.681 275.686C244.76 275.692 244.838 275.697 244.913 275.704C245.2 275.727 245.488 275.76 245.777 275.79C246.091 275.821 246.398 275.848 246.709 275.886C246.787 275.895 246.862 275.905 246.938 275.915C254.036 276.83 260.817 279.405 266.733 283.432L266.915 283.557C267.178 283.739 267.436 283.93 267.695 284.117C267.926 284.284 268.159 284.446 268.387 284.618L268.564 284.752C274.257 289.095 278.846 294.721 281.955 301.172L282.05 301.368Z" fill="white"/>
</mask>
<g mask="url(#mask0_166_14001)">
<path d="M314.449 489.834L164.101 339.486" stroke="#B7DEFF" stroke-width="0.63" stroke-miterlimit="10"/>
<path d="M314.449 467.914L164.101 317.567" stroke="#B7DEFF" stroke-width="0.63" stroke-miterlimit="10"/>
<path d="M314.449 445.995L164.101 295.647" stroke="#B7DEFF" stroke-width="0.63" stroke-miterlimit="10"/>
<path d="M314.449 424.076L164.101 273.728" stroke="#B7DEFF" stroke-width="0.63" stroke-miterlimit="10"/>
<path d="M314.449 500.793L164.101 350.446" stroke="#B7DEFF" stroke-width="0.63" stroke-miterlimit="10"/>
<path d="M314.449 478.874L164.101 328.526" stroke="#B7DEFF" stroke-width="0.63" stroke-miterlimit="10"/>
<path d="M314.449 456.955L164.101 306.607" stroke="#B7DEFF" stroke-width="0.63" stroke-miterlimit="10"/>
<path d="M314.449 435.035L164.101 284.688" stroke="#B7DEFF" stroke-width="0.63" stroke-miterlimit="10"/>
<path d="M314.449 413.116L164.101 262.768" stroke="#B7DEFF" stroke-width="0.63" stroke-miterlimit="10"/>
<path d="M314.449 402.156L164.101 251.808" stroke="#B7DEFF" stroke-width="0.63" stroke-miterlimit="10"/>
<path d="M314.449 391.197L164.101 240.849" stroke="#B7DEFF" stroke-width="0.63" stroke-miterlimit="10"/>
<path d="M314.449 380.237L164.101 229.889" stroke="#B7DEFF" stroke-width="0.63" stroke-miterlimit="10"/>
<path d="M314.449 369.277L164.101 218.929" stroke="#B7DEFF" stroke-width="0.63" stroke-miterlimit="10"/>
<path d="M314.449 358.318L164.101 207.97" stroke="#B7DEFF" stroke-width="0.63" stroke-miterlimit="10"/>
<path d="M314.449 347.358L164.101 197.01" stroke="#B7DEFF" stroke-width="0.63" stroke-miterlimit="10"/>
<path d="M314.449 336.398L164.101 186.05" stroke="#B7DEFF" stroke-width="0.63" stroke-miterlimit="10"/>
<path d="M314.449 325.438L164.101 175.091" stroke="#B7DEFF" stroke-width="0.63" stroke-miterlimit="10"/>
<path d="M314.449 484.354L164.101 334.006" stroke="#B7DEFF" stroke-width="0.63" stroke-miterlimit="10"/>
<path d="M314.449 462.435L164.101 312.087" stroke="#B7DEFF" stroke-width="0.63" stroke-miterlimit="10"/>
<path d="M314.449 440.515L164.101 290.167" stroke="#B7DEFF" stroke-width="0.63" stroke-miterlimit="10"/>
<path d="M314.449 418.596L164.101 268.248" stroke="#B7DEFF" stroke-width="0.63" stroke-miterlimit="10"/>
<path d="M314.449 396.676L164.101 246.329" stroke="#B7DEFF" stroke-width="0.63" stroke-miterlimit="10"/>
<path d="M314.449 374.757L164.101 224.409" stroke="#B7DEFF" stroke-width="0.63" stroke-miterlimit="10"/>
<path d="M314.449 352.838L164.101 202.49" stroke="#B7DEFF" stroke-width="0.63" stroke-miterlimit="10"/>
<path d="M314.449 495.314L164.101 344.966" stroke="#B7DEFF" stroke-width="0.63" stroke-miterlimit="10"/>
<path d="M314.449 473.394L164.101 323.046" stroke="#B7DEFF" stroke-width="0.63" stroke-miterlimit="10"/>
<path d="M314.449 451.475L164.101 301.127" stroke="#B7DEFF" stroke-width="0.63" stroke-miterlimit="10"/>
<path d="M314.449 429.556L164.101 279.208" stroke="#B7DEFF" stroke-width="0.63" stroke-miterlimit="10"/>
<path d="M314.449 407.636L164.101 257.288" stroke="#B7DEFF" stroke-width="0.63" stroke-miterlimit="10"/>
<path d="M314.449 385.717L164.101 235.369" stroke="#B7DEFF" stroke-width="0.63" stroke-miterlimit="10"/>
<path d="M314.449 363.797L164.101 213.45" stroke="#B7DEFF" stroke-width="0.63" stroke-miterlimit="10"/>
<path d="M314.449 341.878L164.101 191.53" stroke="#B7DEFF" stroke-width="0.63" stroke-miterlimit="10"/>
<path d="M314.449 330.918L164.101 180.57" stroke="#B7DEFF" stroke-width="0.63" stroke-miterlimit="10"/>
<path d="M314.449 319.959L164.101 169.611" stroke="#B7DEFF" stroke-width="0.63" stroke-miterlimit="10"/>
<path d="M314.449 314.479L164.101 164.131" stroke="#B7DEFF" stroke-width="0.63" stroke-miterlimit="10"/>
<path d="M314.449 308.999L164.101 158.651" stroke="#B7DEFF" stroke-width="0.63" stroke-miterlimit="10"/>
<path d="M314.449 303.519L164.101 153.171" stroke="#B7DEFF" stroke-width="0.63" stroke-miterlimit="10"/>
<path d="M314.449 298.039L164.101 147.691" stroke="#B7DEFF" stroke-width="0.63" stroke-miterlimit="10"/>
<path d="M314.449 292.559L164.101 142.212" stroke="#B7DEFF" stroke-width="0.63" stroke-miterlimit="10"/>
<path d="M314.449 287.08L164.101 136.732" stroke="#B7DEFF" stroke-width="0.63" stroke-miterlimit="10"/>
</g>
<path d="M234.114 265.872C233.755 265.92 233.396 265.968 233.037 266.022C232.825 266.055 232.614 266.09 232.402 266.124C232.19 266.158 231.983 266.191 231.774 266.227C231.415 266.289 231.058 266.357 230.702 266.426C230.64 266.438 230.577 266.449 230.514 266.461C230.418 266.48 230.321 266.497 230.224 266.516C229.334 266.697 228.453 266.899 227.581 267.122C227.261 267.2 226.942 267.291 226.624 267.379L217.228 253.389L206.847 258.056L211.075 274.37C209.962 275.094 208.873 275.861 207.806 276.671C207.755 276.71 207.705 276.75 207.654 276.788C207.367 277.009 207.08 277.232 206.796 277.457C206.629 277.59 206.465 277.725 206.301 277.859C206.137 277.994 205.968 278.129 205.804 278.267C205.524 278.5 205.248 278.735 204.975 278.974C204.927 279.015 204.879 279.052 204.832 279.097C203.824 279.978 202.853 280.892 201.92 281.838L186.788 274.42L180.131 283.652L191.949 295.668C191.348 296.852 190.788 298.061 190.27 299.295C190.245 299.354 190.221 299.414 190.197 299.472C190.057 299.808 189.921 300.145 189.787 300.482C189.708 300.68 189.634 300.88 189.559 301.079C189.484 301.279 189.407 301.477 189.334 301.677C189.208 302.018 189.088 302.361 188.969 302.704L188.906 302.885C188.475 304.152 188.091 305.428 187.756 306.713L170.942 307.855L169.793 319.18L186.035 323.675C186.106 325.001 186.226 326.329 186.394 327.657L186.419 327.843C186.457 328.134 186.493 328.423 186.536 328.713C186.546 328.783 186.559 328.854 186.569 328.924C186.601 329.136 186.636 329.347 186.671 329.558C186.705 329.769 186.737 329.978 186.774 330.186C186.836 330.545 186.903 330.901 186.972 331.257C186.982 331.307 186.99 331.358 187.001 331.408L187.008 331.445C187.268 332.758 187.573 334.055 187.926 335.336L173.935 344.732L178.603 355.114L194.917 350.881C195.097 351.158 195.277 351.435 195.463 351.709C195.968 352.456 196.491 353.192 197.034 353.917C197.093 353.995 197.154 354.074 197.214 354.152L197.236 354.182C197.268 354.224 197.3 354.261 197.33 354.304C197.551 354.592 197.773 354.879 198 355.168C198.133 355.333 198.267 355.497 198.402 355.662C198.536 355.827 198.672 355.995 198.809 356.159C198.855 356.214 198.899 356.269 198.944 356.324C199.133 356.547 199.325 356.767 199.517 356.986L199.641 357.131C200.522 358.139 201.435 359.109 202.381 360.042L194.963 375.174L204.196 381.831L216.211 370.013C217.397 370.612 218.607 371.172 219.842 371.692C219.903 371.717 219.964 371.742 220.026 371.771C220.359 371.909 220.692 372.045 221.029 372.177C221.23 372.256 221.431 372.334 221.632 372.408C221.833 372.482 222.025 372.558 222.224 372.631C222.568 372.757 222.912 372.878 223.257 372.997C223.316 373.017 223.373 373.038 223.432 373.058C224.699 373.49 225.976 373.873 227.261 374.209L228.402 391.018L239.726 392.167L244.221 375.925C245.547 375.854 246.875 375.734 248.202 375.566C248.265 375.558 248.327 375.549 248.389 375.541C248.749 375.495 249.109 375.445 249.469 375.391C249.682 375.359 249.892 375.324 250.104 375.289C250.316 375.255 250.524 375.223 250.733 375.186C251.091 375.124 251.447 375.057 251.803 374.988C251.866 374.975 251.929 374.964 251.991 374.952C253.304 374.69 254.601 374.384 255.882 374.035L265.279 388.026L275.66 383.358L271.436 367.043C272.546 366.321 273.634 365.554 274.701 364.742C274.752 364.704 274.802 364.664 274.852 364.625C275.141 364.404 275.427 364.183 275.711 363.956C275.878 363.823 276.041 363.688 276.206 363.555C276.371 363.421 276.539 363.285 276.703 363.147C276.983 362.912 277.258 362.676 277.532 362.44L277.676 362.316C278.683 361.435 279.653 360.522 280.587 359.576L295.719 366.994L302.377 357.76L290.559 345.745C291.161 344.562 291.72 343.353 292.238 342.118L292.308 341.947C292.449 341.61 292.586 341.272 292.72 340.931C292.799 340.734 292.872 340.538 292.947 340.339C293.023 340.139 293.1 339.939 293.173 339.737C293.298 339.397 293.418 339.056 293.536 338.716L293.601 338.532C294.033 337.265 294.416 335.989 294.751 334.704L311.565 333.559L312.713 322.234L296.472 317.742C296.401 316.416 296.281 315.089 296.113 313.76L296.088 313.571C296.05 313.282 296.014 312.992 295.972 312.707C295.961 312.637 295.948 312.567 295.938 312.497C295.906 312.285 295.87 312.073 295.836 311.861C295.803 311.649 295.77 311.443 295.733 311.233C295.671 310.875 295.603 310.518 295.534 310.161L295.507 310.01L295.499 309.973C295.24 308.662 294.934 307.365 294.581 306.083L308.571 296.681L303.904 286.3L287.59 290.528C286.865 289.415 286.098 288.325 285.288 287.258L285.267 287.23L285.177 287.113C284.954 286.824 284.731 286.534 284.501 286.249C284.371 286.085 284.238 285.924 284.109 285.762C283.979 285.599 283.835 285.425 283.696 285.258L283.562 285.094C283.374 284.872 283.184 284.655 282.994 284.435C282.95 284.386 282.908 284.336 282.864 284.286C281.983 283.278 281.07 282.308 280.125 281.376L287.54 266.242L278.307 259.585L266.292 271.403C265.109 270.801 263.9 270.241 262.665 269.723C262.606 269.698 262.547 269.675 262.489 269.65C262.153 269.511 261.817 269.373 261.478 269.241C261.457 269.232 261.437 269.223 261.417 269.215C261.396 269.208 261.38 269.2 261.361 269.193C261.204 269.131 261.041 269.073 260.881 269.012C260.682 268.934 260.484 268.86 260.283 268.787C259.942 268.661 259.599 268.541 259.256 268.423C259.196 268.402 259.136 268.38 259.076 268.359C257.809 267.929 256.533 267.545 255.247 267.209L254.105 250.395L242.781 249.247L238.286 265.488C236.96 265.56 235.633 265.68 234.304 265.847C234.241 265.855 234.178 265.865 234.114 265.872ZM282.05 301.368C282.186 301.653 282.311 301.942 282.439 302.232C282.559 302.496 282.68 302.757 282.794 303.024L282.881 303.229C285.639 309.835 286.801 316.999 286.271 324.139L286.254 324.359C286.227 324.674 286.192 324.988 286.159 325.307C286.13 325.592 286.106 325.878 286.071 326.163L286.043 326.382C285.13 333.484 282.554 340.269 278.524 346.188L278.4 346.371C278.22 346.63 278.032 346.884 277.85 347.139C277.681 347.374 277.515 347.61 277.342 347.841L277.207 348.018C272.866 353.711 267.242 358.299 260.795 361.41C260.729 361.441 260.664 361.474 260.598 361.505C260.307 361.642 260.013 361.77 259.72 361.898C259.461 362.015 259.204 362.133 258.942 362.246C258.875 362.275 258.806 362.304 258.739 362.332C252.129 365.093 244.961 366.255 237.818 365.723C237.751 365.717 237.682 365.713 237.614 365.707C237.294 365.681 236.977 365.644 236.659 365.611C236.371 365.582 236.082 365.557 235.795 365.523C235.728 365.515 235.66 365.505 235.593 365.497C228.484 364.585 221.69 362.007 215.766 357.973L215.59 357.853C215.355 357.688 215.119 357.516 214.883 357.346C214.625 357.162 214.365 356.979 214.111 356.788L213.94 356.658C208.246 352.315 203.657 346.689 200.545 340.238L200.453 340.045C200.326 339.777 200.209 339.506 200.088 339.236C199.96 338.953 199.829 338.671 199.707 338.384L199.628 338.189C196.868 331.58 195.706 324.413 196.236 317.271C196.242 317.197 196.247 317.125 196.253 317.053C196.277 316.755 196.312 316.458 196.342 316.161C196.373 315.864 196.4 315.55 196.436 315.244L196.463 315.03C197.377 307.927 199.955 301.14 203.986 295.221L204.108 295.043C204.276 294.799 204.452 294.562 204.626 294.322C204.799 294.081 204.985 293.816 205.171 293.568L205.302 293.395C209.645 287.7 215.271 283.111 221.722 280.001C221.787 279.969 221.851 279.938 221.917 279.907C222.177 279.784 222.44 279.672 222.702 279.552C222.993 279.421 223.282 279.287 223.575 279.16C223.641 279.131 223.708 279.104 223.774 279.077C230.379 276.318 237.542 275.156 244.681 275.686C244.76 275.692 244.838 275.697 244.913 275.704C245.2 275.727 245.488 275.76 245.777 275.79C246.091 275.821 246.398 275.848 246.709 275.886C246.787 275.895 246.862 275.905 246.938 275.915C254.036 276.83 260.817 279.405 266.733 283.432L266.915 283.557C267.178 283.739 267.436 283.93 267.695 284.117C267.926 284.284 268.159 284.446 268.387 284.618L268.564 284.752C274.257 289.095 278.846 294.721 281.955 301.172L282.05 301.368Z" stroke="#B7DEFF" stroke-width="1.679" stroke-miterlimit="10"/>
<path d="M207.217 336.009C210.244 342.74 215.198 348.424 221.455 352.339C227.711 356.255 234.988 358.228 242.365 358.008C249.743 357.788 256.89 355.386 262.901 351.104C268.913 346.823 273.521 340.854 276.141 333.954C278.761 327.054 279.276 319.532 277.621 312.339C275.966 305.147 272.215 298.606 266.843 293.545C261.471 288.484 254.719 285.129 247.44 283.906C240.161 282.682 232.683 283.645 225.952 286.671C216.925 290.73 209.88 298.208 206.367 307.46C202.854 316.713 203.159 326.982 207.217 336.009ZM259.088 336.583C259.879 338.343 260.131 340.298 259.811 342.201C259.491 344.104 258.614 345.869 257.291 347.274C255.968 348.678 254.258 349.659 252.377 350.092C250.497 350.524 248.53 350.39 246.726 349.705C244.922 349.02 243.362 347.815 242.242 346.243C241.123 344.671 240.495 342.803 240.437 340.874C240.38 338.945 240.896 337.043 241.919 335.407C242.943 333.771 244.429 332.476 246.189 331.685C247.357 331.159 248.618 330.869 249.899 330.831C251.179 330.793 252.455 331.007 253.653 331.462C254.851 331.917 255.947 332.603 256.88 333.482C257.812 334.36 258.563 335.414 259.088 336.583ZM270.028 307.768C270.82 309.528 271.071 311.483 270.751 313.386C270.431 315.289 269.554 317.055 268.231 318.459C266.908 319.864 265.198 320.844 263.317 321.277C261.437 321.71 259.47 321.575 257.666 320.89C255.862 320.205 254.302 319.001 253.183 317.429C252.063 315.857 251.435 313.989 251.377 312.06C251.32 310.131 251.836 308.229 252.859 306.593C253.883 304.957 255.369 303.662 257.129 302.87C259.489 301.81 262.174 301.73 264.593 302.648C267.012 303.567 268.967 305.408 270.028 307.768ZM242.313 323.061C241.847 323.271 241.329 323.337 240.825 323.253C240.321 323.168 239.853 322.936 239.481 322.585C239.109 322.235 238.85 321.782 238.735 321.284C238.621 320.786 238.656 320.265 238.838 319.787C239.019 319.31 239.338 318.896 239.755 318.6C240.171 318.304 240.666 318.137 241.177 318.122C241.687 318.107 242.191 318.244 242.624 318.515C243.058 318.786 243.4 319.18 243.61 319.646C243.749 319.956 243.826 320.289 243.836 320.629C243.846 320.968 243.79 321.306 243.669 321.623C243.549 321.941 243.367 322.231 243.134 322.478C242.901 322.725 242.622 322.924 242.313 323.063V323.061ZM230.275 325.64C231.067 327.4 231.319 329.355 230.999 331.258C230.679 333.161 229.802 334.927 228.479 336.332C227.156 337.736 225.446 338.717 223.566 339.15C221.685 339.583 219.718 339.448 217.914 338.763C216.11 338.078 214.55 336.874 213.43 335.302C212.311 333.73 211.683 331.862 211.625 329.933C211.567 328.004 212.083 326.101 213.107 324.465C214.131 322.83 215.617 321.534 217.377 320.743C219.737 319.682 222.422 319.603 224.841 320.521C227.26 321.44 229.215 323.282 230.275 325.642V325.64ZM241.216 296.83C242.007 298.59 242.259 300.545 241.939 302.448C241.619 304.351 240.742 306.116 239.419 307.521C238.095 308.926 236.385 309.906 234.505 310.339C232.624 310.772 230.658 310.637 228.853 309.952C227.049 309.267 225.489 308.062 224.37 306.49C223.25 304.919 222.622 303.05 222.565 301.121C222.507 299.192 223.023 297.29 224.047 295.654C225.071 294.018 226.557 292.723 228.317 291.932C229.485 291.406 230.746 291.116 232.027 291.078C233.307 291.04 234.583 291.254 235.781 291.709C236.979 292.164 238.075 292.85 239.008 293.729C239.94 294.607 240.69 295.661 241.216 296.83Z" stroke="#B7DEFF" stroke-width="1.679" stroke-miterlimit="10"/>
<mask id="mask1_166_14001" style="mask-type:luminance" maskUnits="userSpaceOnUse" x="152" y="157" width="66" height="67">
<path d="M181.811 165.194C181.646 165.216 181.482 165.238 181.317 165.263C181.22 165.278 181.123 165.294 181.027 165.31C180.93 165.325 180.834 165.34 180.739 165.357C180.575 165.385 180.411 165.417 180.248 165.448C180.219 165.453 180.191 165.458 180.161 165.464C180.118 165.473 180.074 165.48 180.029 165.49C179.622 165.572 179.218 165.665 178.818 165.767C178.671 165.804 178.525 165.845 178.379 165.885L174.074 159.474L169.316 161.613L171.254 169.088C170.744 169.42 170.245 169.772 169.756 170.142C169.733 170.16 169.71 170.179 169.687 170.196C169.555 170.297 169.423 170.398 169.294 170.503C169.216 170.563 169.143 170.625 169.068 170.687C168.992 170.748 168.915 170.811 168.84 170.874C168.712 170.978 168.585 171.086 168.46 171.198L168.395 171.254C167.933 171.658 167.488 172.077 167.059 172.511L160.126 169.112L157.075 173.343L162.494 178.848C162.218 179.39 161.962 179.944 161.724 180.509L161.69 180.588C161.627 180.741 161.564 180.895 161.503 181.05L161.398 181.324C161.364 181.415 161.328 181.506 161.295 181.598C161.238 181.755 161.183 181.912 161.128 182.069L161.099 182.152C160.902 182.733 160.727 183.317 160.572 183.906L152.868 184.429L152.341 189.618L159.784 191.678C159.817 192.286 159.872 192.894 159.949 193.503L159.96 193.588C159.977 193.721 159.993 193.854 160.013 193.987L160.029 194.083C160.043 194.181 160.059 194.277 160.075 194.374C160.091 194.47 160.106 194.566 160.122 194.662C160.151 194.826 160.181 194.989 160.213 195.153L160.226 195.222L160.23 195.239C160.349 195.841 160.489 196.435 160.65 197.022L154.239 201.327L156.379 206.084L163.853 204.147C163.936 204.273 164.019 204.401 164.104 204.526C164.335 204.869 164.576 205.206 164.825 205.538C164.852 205.574 164.88 205.608 164.904 205.644L164.914 205.658L164.957 205.714C165.059 205.845 165.161 205.977 165.264 206.106C165.325 206.185 165.387 206.257 165.448 206.332L165.635 206.561C165.656 206.585 165.676 206.611 165.697 206.639C165.783 206.742 165.871 206.843 165.959 206.943L166.016 207.01C166.419 207.471 166.838 207.916 167.272 208.345L163.874 215.279L168.104 218.329L173.609 212.911C174.151 213.187 174.705 213.443 175.271 213.68C175.298 213.692 175.326 213.703 175.355 213.715C175.507 213.779 175.66 213.841 175.814 213.902C175.906 213.938 175.999 213.973 176.09 214.007C176.182 214.042 176.271 214.076 176.361 214.109C176.518 214.167 176.676 214.223 176.833 214.277C176.859 214.287 176.885 214.296 176.911 214.305C177.491 214.503 178.076 214.679 178.666 214.833L179.189 222.537L184.379 223.063L186.438 215.621C187.045 215.588 187.654 215.533 188.263 215.457L188.348 215.445C188.513 215.424 188.678 215.401 188.843 215.376C188.94 215.362 189.037 215.345 189.134 215.33C189.23 215.314 189.326 215.299 189.422 215.282C189.586 215.254 189.749 215.223 189.913 215.191L189.999 215.175C190.601 215.056 191.195 214.916 191.782 214.755L196.087 221.165L200.848 219.029L198.911 211.554C199.421 211.221 199.92 210.87 200.408 210.499C200.432 210.482 200.455 210.463 200.478 210.446C200.61 210.344 200.741 210.243 200.871 210.139C200.949 210.078 201.022 210.016 201.098 209.955C201.173 209.894 201.25 209.831 201.325 209.768C201.453 209.661 201.579 209.553 201.705 209.444L201.771 209.387C202.232 208.984 202.677 208.565 203.106 208.131L210.04 211.529L213.088 207.298L207.67 201.793C207.946 201.25 208.203 200.696 208.44 200.131L208.472 200.052C208.537 199.898 208.6 199.743 208.661 199.587C208.697 199.497 208.731 199.406 208.765 199.316C208.8 199.225 208.835 199.133 208.869 199.04C208.927 198.883 208.982 198.726 209.035 198.569L209.065 198.484C209.262 197.903 209.438 197.319 209.592 196.73L217.296 196.207L217.822 191.018L210.38 188.958C210.347 188.35 210.293 187.742 210.216 187.134L210.204 187.047C210.187 186.914 210.17 186.781 210.151 186.65L210.136 186.553C210.121 186.456 210.104 186.359 210.089 186.262C210.073 186.164 210.058 186.07 210.041 185.974C210.013 185.81 209.983 185.647 209.95 185.483L209.938 185.414V185.397C209.819 184.795 209.679 184.201 209.518 183.614L215.928 179.309L213.79 174.552L206.314 176.489C205.982 175.98 205.63 175.48 205.26 174.991L205.25 174.978L205.209 174.925C205.107 174.791 205.004 174.66 204.899 174.528C204.84 174.453 204.778 174.379 204.718 174.305C204.657 174.23 204.592 174.148 204.529 174.074L204.467 173.995C204.381 173.893 204.294 173.793 204.207 173.693L204.148 173.625C203.744 173.163 203.325 172.718 202.891 172.289L206.291 165.355L202.06 162.305L196.555 167.724C196.013 167.448 195.459 167.191 194.893 166.954C194.866 166.942 194.839 166.931 194.814 166.92C194.657 166.857 194.507 166.794 194.351 166.733L194.324 166.722L194.298 166.711C194.225 166.682 194.151 166.656 194.078 166.628C193.987 166.594 193.896 166.558 193.804 166.525C193.647 166.467 193.49 166.412 193.333 166.358L193.254 166.329C192.674 166.131 192.089 165.955 191.5 165.802L190.976 158.097L185.787 157.571L183.728 165.014C183.12 165.046 182.512 165.101 181.903 165.178L181.811 165.194ZM203.776 181.459C203.838 181.59 203.896 181.722 203.955 181.851C204.013 181.981 204.065 182.092 204.117 182.214L204.156 182.308C205.42 185.337 205.951 188.62 205.707 191.892L205.699 191.993C205.687 192.138 205.67 192.283 205.656 192.427C205.642 192.558 205.631 192.689 205.616 192.82L205.602 192.92C205.184 196.174 204.004 199.283 202.157 201.995L202.1 202.079C202.017 202.198 201.932 202.315 201.847 202.431C201.762 202.547 201.694 202.646 201.611 202.753L201.549 202.831C199.56 205.44 196.983 207.542 194.028 208.968L193.938 209.011C193.805 209.074 193.67 209.133 193.536 209.192C193.417 209.246 193.3 209.301 193.179 209.349C193.148 209.363 193.117 209.376 193.086 209.389C190.058 210.654 186.774 211.186 183.501 210.943L183.406 210.936C183.26 210.923 183.115 210.907 182.969 210.892C182.837 210.879 182.705 210.867 182.576 210.851L182.484 210.839C179.227 210.421 176.115 209.239 173.401 207.391C173.374 207.373 173.347 207.355 173.322 207.336C173.214 207.257 173.107 207.179 173 207.104C172.894 207.03 172.765 206.935 172.645 206.848C172.619 206.829 172.594 206.808 172.567 206.789C169.958 204.799 167.855 202.221 166.43 199.265L166.387 199.177C166.329 199.053 166.275 198.929 166.22 198.806C166.165 198.683 166.101 198.547 166.045 198.413L166.007 198.323C164.743 195.296 164.211 192.014 164.453 188.742L164.461 188.643C164.472 188.506 164.488 188.37 164.502 188.233C164.516 188.097 164.528 187.954 164.545 187.814L164.558 187.715C164.977 184.461 166.158 181.351 168.004 178.639L168.06 178.56C168.139 178.449 168.217 178.34 168.296 178.23C168.374 178.12 168.46 177.999 168.546 177.885L168.606 177.806C170.596 175.197 173.174 173.094 176.13 171.669C176.16 171.654 176.189 171.64 176.218 171.626C176.338 171.569 176.459 171.518 176.579 171.463C176.712 171.403 176.844 171.342 176.979 171.284C177.009 171.271 177.04 171.258 177.071 171.246C180.097 169.982 183.38 169.449 186.651 169.692C186.687 169.692 186.722 169.698 186.757 169.7C186.889 169.711 187.02 169.726 187.15 169.74C187.279 169.755 187.435 169.767 187.577 169.784C187.612 169.788 187.647 169.793 187.682 169.797C190.935 170.217 194.043 171.399 196.754 173.246L196.837 173.303C196.958 173.387 197.073 173.474 197.195 173.56C197.301 173.639 197.408 173.711 197.509 173.789C197.536 173.809 197.562 173.83 197.587 173.851C200.196 175.84 202.298 178.417 203.724 181.372L203.776 181.459Z" fill="white"/>
</mask>
<g mask="url(#mask1_166_14001)">
<path d="M218.622 267.816L149.73 198.925" stroke="#B7DEFF" stroke-width="0.42" stroke-miterlimit="10"/>
<path d="M218.622 257.773L149.73 188.881" stroke="#B7DEFF" stroke-width="0.42" stroke-miterlimit="10"/>
<path d="M218.622 247.729L149.73 178.837" stroke="#B7DEFF" stroke-width="0.42" stroke-miterlimit="10"/>
<path d="M218.622 237.686L149.73 168.794" stroke="#B7DEFF" stroke-width="0.42" stroke-miterlimit="10"/>
<path d="M218.622 272.838L149.73 203.947" stroke="#B7DEFF" stroke-width="0.42" stroke-miterlimit="10"/>
<path d="M218.622 262.795L149.73 193.903" stroke="#B7DEFF" stroke-width="0.42" stroke-miterlimit="10"/>
<path d="M218.622 252.751L149.73 183.859" stroke="#B7DEFF" stroke-width="0.42" stroke-miterlimit="10"/>
<path d="M218.622 242.707L149.73 173.815" stroke="#B7DEFF" stroke-width="0.42" stroke-miterlimit="10"/>
<path d="M218.622 232.664L149.73 163.772" stroke="#B7DEFF" stroke-width="0.42" stroke-miterlimit="10"/>
<path d="M218.622 227.642L149.73 158.75" stroke="#B7DEFF" stroke-width="0.42" stroke-miterlimit="10"/>
<path d="M218.622 222.62L149.73 153.728" stroke="#B7DEFF" stroke-width="0.42" stroke-miterlimit="10"/>
<path d="M218.622 217.598L149.73 148.706" stroke="#B7DEFF" stroke-width="0.42" stroke-miterlimit="10"/>
<path d="M218.622 212.576L149.73 143.684" stroke="#B7DEFF" stroke-width="0.42" stroke-miterlimit="10"/>
<path d="M218.622 207.554L149.73 138.663" stroke="#B7DEFF" stroke-width="0.42" stroke-miterlimit="10"/>
<path d="M218.622 202.532L149.73 133.641" stroke="#B7DEFF" stroke-width="0.42" stroke-miterlimit="10"/>
<path d="M218.622 197.51L149.73 128.619" stroke="#B7DEFF" stroke-width="0.42" stroke-miterlimit="10"/>
<path d="M218.622 192.488L149.73 123.597" stroke="#B7DEFF" stroke-width="0.42" stroke-miterlimit="10"/>
<path d="M218.622 265.305L149.73 196.414" stroke="#B7DEFF" stroke-width="0.42" stroke-miterlimit="10"/>
<path d="M218.622 255.261L149.73 186.37" stroke="#B7DEFF" stroke-width="0.42" stroke-miterlimit="10"/>
<path d="M218.622 245.218L149.73 176.327" stroke="#B7DEFF" stroke-width="0.42" stroke-miterlimit="10"/>
<path d="M218.622 235.174L149.73 166.283" stroke="#B7DEFF" stroke-width="0.42" stroke-miterlimit="10"/>
<path d="M218.622 225.131L149.73 156.239" stroke="#B7DEFF" stroke-width="0.42" stroke-miterlimit="10"/>
<path d="M218.622 215.087L149.73 146.195" stroke="#B7DEFF" stroke-width="0.42" stroke-miterlimit="10"/>
<path d="M218.622 205.043L149.73 136.151" stroke="#B7DEFF" stroke-width="0.42" stroke-miterlimit="10"/>
<path d="M218.622 270.328L149.73 201.436" stroke="#B7DEFF" stroke-width="0.42" stroke-miterlimit="10"/>
<path d="M218.622 260.283L149.73 191.392" stroke="#B7DEFF" stroke-width="0.42" stroke-miterlimit="10"/>
<path d="M218.622 250.24L149.73 181.349" stroke="#B7DEFF" stroke-width="0.42" stroke-miterlimit="10"/>
<path d="M218.622 240.196L149.73 171.305" stroke="#B7DEFF" stroke-width="0.42" stroke-miterlimit="10"/>
<path d="M218.622 230.152L149.73 161.261" stroke="#B7DEFF" stroke-width="0.42" stroke-miterlimit="10"/>
<path d="M218.622 220.109L149.73 151.217" stroke="#B7DEFF" stroke-width="0.42" stroke-miterlimit="10"/>
<path d="M218.622 210.065L149.73 141.173" stroke="#B7DEFF" stroke-width="0.42" stroke-miterlimit="10"/>
<path d="M218.622 200.021L149.73 131.129" stroke="#B7DEFF" stroke-width="0.42" stroke-miterlimit="10"/>
<path d="M218.622 195L149.73 126.108" stroke="#B7DEFF" stroke-width="0.42" stroke-miterlimit="10"/>
<path d="M218.622 189.978L149.73 121.086" stroke="#B7DEFF" stroke-width="0.42" stroke-miterlimit="10"/>
<path d="M218.622 187.466L149.73 118.575" stroke="#B7DEFF" stroke-width="0.42" stroke-miterlimit="10"/>
<path d="M218.622 184.956L149.73 116.064" stroke="#B7DEFF" stroke-width="0.42" stroke-miterlimit="10"/>
<path d="M218.622 182.445L149.73 113.554" stroke="#B7DEFF" stroke-width="0.42" stroke-miterlimit="10"/>
<path d="M218.622 179.934L149.73 111.042" stroke="#B7DEFF" stroke-width="0.42" stroke-miterlimit="10"/>
<path d="M218.622 177.423L149.73 108.532" stroke="#B7DEFF" stroke-width="0.42" stroke-miterlimit="10"/>
<path d="M218.622 174.912L149.73 106.02" stroke="#B7DEFF" stroke-width="0.42" stroke-miterlimit="10"/>
</g>
<path d="M181.811 165.194C181.646 165.216 181.482 165.238 181.317 165.263C181.22 165.278 181.123 165.294 181.027 165.31C180.93 165.325 180.834 165.34 180.739 165.357C180.575 165.385 180.411 165.417 180.248 165.448C180.219 165.453 180.191 165.458 180.161 165.464C180.118 165.473 180.074 165.48 180.029 165.49C179.622 165.572 179.218 165.665 178.818 165.767C178.671 165.804 178.525 165.845 178.379 165.885L174.074 159.474L169.316 161.613L171.254 169.088C170.744 169.42 170.245 169.772 169.756 170.142C169.733 170.16 169.71 170.179 169.687 170.196C169.555 170.297 169.423 170.398 169.294 170.503C169.216 170.563 169.143 170.625 169.068 170.687C168.992 170.748 168.915 170.811 168.84 170.874C168.712 170.978 168.585 171.086 168.46 171.198L168.395 171.254C167.933 171.658 167.488 172.077 167.059 172.511L160.126 169.112L157.075 173.343L162.494 178.848C162.218 179.39 161.962 179.944 161.724 180.509L161.69 180.588C161.627 180.741 161.564 180.895 161.503 181.05L161.398 181.324C161.364 181.415 161.328 181.506 161.295 181.598C161.238 181.755 161.183 181.912 161.128 182.069L161.099 182.152C160.902 182.733 160.727 183.317 160.572 183.906L152.867 184.429L152.341 189.618L159.784 191.678C159.817 192.286 159.872 192.894 159.949 193.503L159.96 193.588C159.977 193.721 159.993 193.854 160.013 193.987L160.029 194.083C160.043 194.181 160.059 194.277 160.075 194.374C160.091 194.47 160.106 194.566 160.122 194.662C160.151 194.826 160.181 194.989 160.213 195.153L160.226 195.222L160.23 195.239C160.349 195.841 160.489 196.435 160.65 197.022L154.239 201.327L156.379 206.084L163.853 204.147C163.936 204.273 164.019 204.401 164.104 204.526C164.335 204.869 164.576 205.206 164.825 205.538C164.852 205.574 164.88 205.608 164.904 205.644L164.914 205.658L164.957 205.714C165.059 205.845 165.161 205.977 165.264 206.106C165.325 206.185 165.387 206.257 165.448 206.332L165.635 206.561C165.656 206.585 165.676 206.611 165.697 206.639C165.783 206.742 165.871 206.843 165.959 206.943L166.016 207.01C166.419 207.471 166.838 207.916 167.272 208.345L163.874 215.279L168.104 218.329L173.609 212.911C174.151 213.187 174.705 213.443 175.271 213.68C175.298 213.692 175.326 213.703 175.355 213.715C175.507 213.779 175.66 213.841 175.814 213.902C175.906 213.938 175.999 213.973 176.09 214.007C176.182 214.042 176.271 214.076 176.361 214.109C176.518 214.167 176.676 214.223 176.833 214.277C176.859 214.287 176.885 214.296 176.911 214.305C177.491 214.503 178.076 214.679 178.666 214.833L179.189 222.537L184.379 223.063L186.438 215.621C187.045 215.588 187.654 215.533 188.263 215.457L188.348 215.445C188.513 215.424 188.678 215.401 188.843 215.376C188.94 215.362 189.037 215.345 189.134 215.33C189.23 215.314 189.326 215.299 189.422 215.282C189.586 215.254 189.749 215.223 189.913 215.191L189.999 215.175C190.601 215.056 191.195 214.916 191.782 214.755L196.087 221.165L200.848 219.029L198.911 211.554C199.421 211.221 199.92 210.87 200.408 210.499C200.432 210.482 200.455 210.463 200.478 210.446C200.61 210.344 200.741 210.243 200.871 210.139C200.949 210.078 201.022 210.016 201.098 209.955C201.173 209.894 201.25 209.831 201.325 209.768C201.453 209.661 201.579 209.553 201.705 209.444L201.771 209.387C202.232 208.984 202.677 208.565 203.106 208.131L210.04 211.529L213.088 207.298L207.67 201.793C207.946 201.25 208.203 200.696 208.44 200.131L208.472 200.052C208.537 199.898 208.6 199.743 208.661 199.587C208.697 199.497 208.731 199.406 208.765 199.316C208.8 199.225 208.835 199.133 208.869 199.04C208.927 198.883 208.982 198.726 209.035 198.569L209.065 198.484C209.262 197.903 209.438 197.319 209.592 196.73L217.296 196.207L217.822 191.018L210.38 188.958C210.347 188.35 210.293 187.742 210.216 187.134L210.204 187.047C210.187 186.914 210.17 186.781 210.151 186.65L210.136 186.553C210.121 186.456 210.104 186.359 210.089 186.262C210.073 186.164 210.058 186.07 210.041 185.974C210.013 185.81 209.983 185.647 209.95 185.483L209.938 185.414V185.397C209.819 184.795 209.679 184.201 209.518 183.614L215.928 179.309L213.79 174.552L206.314 176.489C205.982 175.98 205.63 175.48 205.26 174.991L205.25 174.978L205.209 174.925C205.107 174.791 205.004 174.66 204.899 174.528C204.84 174.453 204.778 174.379 204.718 174.305C204.657 174.23 204.592 174.148 204.529 174.074L204.467 173.995C204.381 173.893 204.294 173.793 204.207 173.693L204.148 173.625C203.744 173.163 203.325 172.718 202.891 172.289L206.291 165.355L202.06 162.305L196.555 167.724C196.013 167.448 195.459 167.191 194.893 166.954C194.866 166.942 194.839 166.931 194.814 166.92C194.657 166.857 194.507 166.794 194.351 166.733L194.324 166.722L194.298 166.711C194.225 166.682 194.151 166.656 194.078 166.628C193.987 166.594 193.896 166.558 193.804 166.525C193.647 166.467 193.49 166.412 193.333 166.358L193.254 166.329C192.674 166.131 192.089 165.955 191.5 165.802L190.976 158.097L185.787 157.571L183.728 165.014C183.12 165.046 182.512 165.101 181.903 165.178L181.811 165.194ZM203.776 181.459C203.838 181.59 203.896 181.722 203.955 181.851C204.013 181.981 204.065 182.092 204.117 182.214L204.156 182.308C205.42 185.337 205.951 188.62 205.707 191.892L205.699 191.993C205.687 192.138 205.67 192.283 205.656 192.427C205.642 192.558 205.631 192.689 205.616 192.82L205.602 192.92C205.184 196.174 204.004 199.283 202.157 201.995L202.1 202.079C202.017 202.198 201.932 202.315 201.847 202.431C201.762 202.547 201.694 202.646 201.611 202.753L201.549 202.831C199.56 205.44 196.983 207.542 194.028 208.968L193.938 209.011C193.805 209.074 193.67 209.133 193.536 209.192C193.417 209.246 193.3 209.301 193.179 209.349C193.148 209.363 193.117 209.376 193.086 209.389C190.058 210.654 186.774 211.186 183.501 210.943L183.406 210.936C183.26 210.923 183.115 210.907 182.969 210.892C182.837 210.879 182.705 210.867 182.576 210.851L182.484 210.839C179.227 210.421 176.115 209.239 173.401 207.391C173.374 207.373 173.347 207.355 173.322 207.336C173.214 207.257 173.107 207.179 173 207.104C172.894 207.03 172.765 206.935 172.645 206.848C172.619 206.829 172.594 206.808 172.567 206.789C169.958 204.799 167.855 202.221 166.43 199.265L166.387 199.177C166.329 199.053 166.275 198.929 166.22 198.806C166.165 198.683 166.101 198.547 166.045 198.413L166.007 198.323C164.743 195.296 164.211 192.014 164.453 188.742L164.461 188.643C164.472 188.506 164.488 188.37 164.502 188.233C164.516 188.097 164.528 187.954 164.545 187.814L164.558 187.715C164.977 184.461 166.158 181.351 168.004 178.639L168.06 178.56C168.139 178.449 168.217 178.34 168.296 178.23C168.374 178.12 168.46 177.999 168.546 177.885L168.606 177.806C170.596 175.197 173.174 173.094 176.13 171.669C176.16 171.654 176.189 171.64 176.218 171.626C176.338 171.569 176.459 171.518 176.579 171.463C176.712 171.403 176.844 171.342 176.979 171.284C177.009 171.271 177.04 171.258 177.071 171.246C180.097 169.982 183.38 169.449 186.651 169.692C186.687 169.692 186.722 169.698 186.757 169.7C186.889 169.711 187.02 169.726 187.15 169.74C187.279 169.755 187.435 169.767 187.577 169.784C187.612 169.788 187.647 169.793 187.682 169.797C190.935 170.217 194.043 171.399 196.754 173.246L196.837 173.303C196.958 173.387 197.073 173.474 197.195 173.56C197.301 173.639 197.408 173.711 197.509 173.789C197.536 173.809 197.562 173.83 197.587 173.851C200.196 175.84 202.298 178.417 203.724 181.372L203.776 181.459Z" stroke="#B7DEFF" stroke-width="0.84" stroke-linecap="round" stroke-linejoin="round"/>
<mask id="mask2_166_14001" style="mask-type:luminance" maskUnits="userSpaceOnUse" x="1" y="357" width="131" height="11">
<path d="M1 357.401L1 367.839L131.597 367.839V357.401L1 357.401Z" fill="white"/>
</mask>
<g mask="url(#mask2_166_14001)">
<path d="M140.741 512.114L-9.60635 361.766" stroke="#B7DEFF" stroke-width="0.63" stroke-miterlimit="10"/>
<path d="M140.741 490.194L-9.60635 339.846" stroke="#B7DEFF" stroke-width="0.63" stroke-miterlimit="10"/>
<path d="M140.741 468.275L-9.60635 317.927" stroke="#B7DEFF" stroke-width="0.63" stroke-miterlimit="10"/>
<path d="M140.741 501.154L-9.60635 350.806" stroke="#B7DEFF" stroke-width="0.63" stroke-miterlimit="10"/>
<path d="M140.741 479.235L-9.60635 328.887" stroke="#B7DEFF" stroke-width="0.63" stroke-miterlimit="10"/>
<path d="M140.741 457.315L-9.60635 306.967" stroke="#B7DEFF" stroke-width="0.63" stroke-miterlimit="10"/>
<path d="M140.741 446.355L-9.60635 296.008" stroke="#B7DEFF" stroke-width="0.63" stroke-miterlimit="10"/>
<path d="M140.741 435.397L-9.60635 285.049" stroke="#B7DEFF" stroke-width="0.63" stroke-miterlimit="10"/>
<path d="M140.741 424.437L-9.60635 274.089" stroke="#B7DEFF" stroke-width="0.63" stroke-miterlimit="10"/>
<path d="M140.741 413.476L-9.60635 263.129" stroke="#B7DEFF" stroke-width="0.63" stroke-miterlimit="10"/>
<path d="M140.741 402.517L-9.60635 252.169" stroke="#B7DEFF" stroke-width="0.63" stroke-miterlimit="10"/>
<path d="M140.741 391.557L-9.60635 241.209" stroke="#B7DEFF" stroke-width="0.63" stroke-miterlimit="10"/>
<path d="M140.741 380.597L-9.60635 230.25" stroke="#B7DEFF" stroke-width="0.63" stroke-miterlimit="10"/>
<path d="M140.741 369.638L-9.60635 219.29" stroke="#B7DEFF" stroke-width="0.63" stroke-miterlimit="10"/>
<path d="M140.741 506.634L-9.60635 356.286" stroke="#B7DEFF" stroke-width="0.63" stroke-miterlimit="10"/>
<path d="M140.741 484.715L-9.60635 334.367" stroke="#B7DEFF" stroke-width="0.63" stroke-miterlimit="10"/>
<path d="M140.741 462.795L-9.60635 312.447" stroke="#B7DEFF" stroke-width="0.63" stroke-miterlimit="10"/>
<path d="M140.741 440.876L-9.60635 290.528" stroke="#B7DEFF" stroke-width="0.63" stroke-miterlimit="10"/>
<path d="M140.741 418.956L-9.60635 268.608" stroke="#B7DEFF" stroke-width="0.63" stroke-miterlimit="10"/>
<path d="M140.741 397.037L-9.60635 246.689" stroke="#B7DEFF" stroke-width="0.63" stroke-miterlimit="10"/>
<path d="M140.741 517.593L-9.60635 367.246" stroke="#B7DEFF" stroke-width="0.63" stroke-miterlimit="10"/>
<path d="M140.741 495.675L-9.60635 345.327" stroke="#B7DEFF" stroke-width="0.63" stroke-miterlimit="10"/>
<path d="M140.741 473.755L-9.60635 323.407" stroke="#B7DEFF" stroke-width="0.63" stroke-miterlimit="10"/>
<path d="M140.741 451.835L-9.60635 301.488" stroke="#B7DEFF" stroke-width="0.63" stroke-miterlimit="10"/>
<path d="M140.741 429.916L-9.60635 279.568" stroke="#B7DEFF" stroke-width="0.63" stroke-miterlimit="10"/>
<path d="M140.741 407.997L-9.60635 257.649" stroke="#B7DEFF" stroke-width="0.63" stroke-miterlimit="10"/>
<path d="M140.741 386.078L-9.60635 235.73" stroke="#B7DEFF" stroke-width="0.63" stroke-miterlimit="10"/>
<path d="M140.741 375.118L-9.60635 224.771" stroke="#B7DEFF" stroke-width="0.63" stroke-miterlimit="10"/>
<path d="M140.741 364.158L-9.60635 213.81" stroke="#B7DEFF" stroke-width="0.63" stroke-miterlimit="10"/>
<path d="M140.741 358.678L-9.60635 208.33" stroke="#B7DEFF" stroke-width="0.63" stroke-miterlimit="10"/>
</g>
<path d="M0.999832 367.839V357.4L131.596 357.4V367.837" stroke="#B7DEFF" stroke-width="0.63" stroke-miterlimit="10"/>
<mask id="mask3_166_14001" style="mask-type:luminance" maskUnits="userSpaceOnUse" x="260" y="1" width="18" height="131">
<path d="M260.277 131.597H277.309L277.309 1H260.277L260.277 131.597Z" fill="white"/>
</mask>
<g mask="url(#mask3_166_14001)">
<path d="M421.585 -8.14408L271.237 142.204" stroke="#B7DEFF" stroke-width="0.63" stroke-miterlimit="10"/>
<path d="M399.665 -8.14408L249.317 142.204" stroke="#B7DEFF" stroke-width="0.63" stroke-miterlimit="10"/>
<path d="M377.746 -8.14408L227.398 142.204" stroke="#B7DEFF" stroke-width="0.63" stroke-miterlimit="10"/>
<path d="M410.625 -8.14408L260.277 142.204" stroke="#B7DEFF" stroke-width="0.63" stroke-miterlimit="10"/>
<path d="M388.706 -8.14408L238.358 142.204" stroke="#B7DEFF" stroke-width="0.63" stroke-miterlimit="10"/>
<path d="M366.786 -8.14408L216.439 142.204" stroke="#B7DEFF" stroke-width="0.63" stroke-miterlimit="10"/>
<path d="M355.827 -8.14408L205.479 142.204" stroke="#B7DEFF" stroke-width="0.63" stroke-miterlimit="10"/>
<path d="M344.867 -8.14408L194.519 142.204" stroke="#B7DEFF" stroke-width="0.63" stroke-miterlimit="10"/>
<path d="M333.907 -8.14408L183.559 142.204" stroke="#B7DEFF" stroke-width="0.63" stroke-miterlimit="10"/>
<path d="M322.948 -8.14408L172.6 142.204" stroke="#B7DEFF" stroke-width="0.63" stroke-miterlimit="10"/>
<path d="M311.988 -8.14408L161.64 142.204" stroke="#B7DEFF" stroke-width="0.63" stroke-miterlimit="10"/>
<path d="M301.028 -8.14408L150.681 142.204" stroke="#B7DEFF" stroke-width="0.63" stroke-miterlimit="10"/>
<path d="M290.069 -8.14408L139.721 142.204" stroke="#B7DEFF" stroke-width="0.63" stroke-miterlimit="10"/>
<path d="M279.109 -8.14408L128.761 142.204" stroke="#B7DEFF" stroke-width="0.63" stroke-miterlimit="10"/>
<path d="M416.105 -8.14408L265.757 142.204" stroke="#B7DEFF" stroke-width="0.63" stroke-miterlimit="10"/>
<path d="M394.186 -8.14408L243.838 142.204" stroke="#B7DEFF" stroke-width="0.63" stroke-miterlimit="10"/>
<path d="M372.266 -8.14408L221.918 142.204" stroke="#B7DEFF" stroke-width="0.63" stroke-miterlimit="10"/>
<path d="M350.347 -8.14408L199.999 142.204" stroke="#B7DEFF" stroke-width="0.63" stroke-miterlimit="10"/>
<path d="M328.427 -8.14408L178.08 142.204" stroke="#B7DEFF" stroke-width="0.63" stroke-miterlimit="10"/>
<path d="M306.508 -8.14408L156.16 142.204" stroke="#B7DEFF" stroke-width="0.63" stroke-miterlimit="10"/>
<path d="M427.065 -8.14408L276.717 142.204" stroke="#B7DEFF" stroke-width="0.63" stroke-miterlimit="10"/>
<path d="M405.145 -8.14408L254.797 142.204" stroke="#B7DEFF" stroke-width="0.63" stroke-miterlimit="10"/>
<path d="M383.226 -8.14408L232.878 142.204" stroke="#B7DEFF" stroke-width="0.63" stroke-miterlimit="10"/>
<path d="M361.307 -8.14408L210.959 142.204" stroke="#B7DEFF" stroke-width="0.63" stroke-miterlimit="10"/>
<path d="M339.387 -8.14408L189.039 142.204" stroke="#B7DEFF" stroke-width="0.63" stroke-miterlimit="10"/>
<path d="M317.468 -8.14408L167.12 142.204" stroke="#B7DEFF" stroke-width="0.63" stroke-miterlimit="10"/>
<path d="M295.548 -8.14408L145.201 142.204" stroke="#B7DEFF" stroke-width="0.63" stroke-miterlimit="10"/>
<path d="M284.589 -8.14408L134.241 142.204" stroke="#B7DEFF" stroke-width="0.63" stroke-miterlimit="10"/>
<path d="M273.629 -8.14408L123.281 142.204" stroke="#B7DEFF" stroke-width="0.63" stroke-miterlimit="10"/>
<path d="M268.149 -8.14408L117.801 142.204" stroke="#B7DEFF" stroke-width="0.63" stroke-miterlimit="10"/>
<path d="M262.669 -8.14408L112.322 142.204" stroke="#B7DEFF" stroke-width="0.63" stroke-miterlimit="10"/>
</g>
<path d="M277.309 131.597H260.276L260.276 1.00101L277.309 1.00101" stroke="#B7DEFF" stroke-width="0.63" stroke-miterlimit="10"/>
<path d="M181.362 359.871C181.233 359.85 181.103 359.833 180.97 359.819C180.905 359.812 180.84 359.806 180.775 359.8C180.645 359.789 180.515 359.781 180.382 359.777H180.314C180.264 359.777 180.215 359.777 180.165 359.777C180.116 359.777 180.066 359.777 180.016 359.777H179.988C179.498 359.782 179.009 359.833 178.528 359.927L176.325 357.531L173.202 359.294L174.115 362.418C174.015 362.53 173.917 362.644 173.822 362.76C173.74 362.865 173.661 362.969 173.586 363.074C173.548 363.127 173.508 363.18 173.472 363.231C173.394 363.339 173.326 363.447 173.257 363.558L173.237 363.591L173.222 363.615L173.143 363.742L173.069 363.871L173.055 363.896L173.036 363.931C172.94 364.101 172.852 364.275 172.769 364.453C172.651 364.709 172.546 364.971 172.455 365.238L169.279 365.945L169.244 369.531L172.407 370.302C172.493 370.569 172.592 370.831 172.705 371.087C172.784 371.267 172.869 371.443 172.961 371.615L172.98 371.65L172.994 371.675L173.066 371.805L173.076 371.824L173.14 371.934L173.154 371.958C173.194 372.026 173.233 372.093 173.277 372.158C173.321 372.224 173.347 372.268 173.383 372.323C173.576 372.611 173.787 372.886 174.015 373.147L173.041 376.253L176.13 378.076L178.379 375.72C178.582 375.764 178.787 375.798 178.992 375.828C179.065 375.838 179.137 375.848 179.211 375.856C179.337 375.869 179.463 375.88 179.589 375.887H179.608C179.686 375.892 179.759 375.895 179.835 375.897H179.863C179.905 375.897 179.948 375.897 179.99 375.897H180.012C180.062 375.897 180.112 375.897 180.161 375.897H180.189C180.679 375.892 181.168 375.841 181.649 375.747L183.852 378.143L186.975 376.38L186.061 373.255C186.295 372.998 186.511 372.727 186.709 372.443C186.783 372.336 186.855 372.228 186.925 372.117L186.945 372.084L186.961 372.057C186.987 372.016 187.013 371.974 187.039 371.932C187.065 371.889 187.089 371.845 187.118 371.802L187.131 371.778L187.151 371.744C187.246 371.574 187.335 371.4 187.417 371.222C187.535 370.966 187.64 370.703 187.731 370.436L190.908 369.73L190.942 366.143L187.78 365.373C187.694 365.106 187.595 364.844 187.481 364.587C187.403 364.407 187.317 364.231 187.225 364.06L187.206 364.024L187.194 364.001C187.17 363.957 187.146 363.913 187.121 363.87L187.111 363.851C187.09 363.814 187.069 363.778 187.047 363.742L187.032 363.716C186.781 363.294 186.492 362.896 186.168 362.528L187.142 359.422L184.053 357.598L181.804 359.954C181.654 359.923 181.508 359.894 181.362 359.871ZM184.516 365.458L184.527 365.479C184.9 366.183 185.102 366.965 185.115 367.761V367.892V367.988V368.012C185.087 368.808 184.872 369.586 184.487 370.282L184.475 370.304L184.422 370.395C184.405 370.422 184.39 370.45 184.372 370.473L184.359 370.494C183.936 371.169 183.359 371.734 182.677 372.144L182.656 372.155C182.626 372.173 182.595 372.191 182.565 372.208L182.481 372.255L182.459 372.267C181.755 372.639 180.973 372.841 180.176 372.854H180.152C180.117 372.854 180.081 372.854 180.046 372.854C180.011 372.854 179.982 372.854 179.95 372.854H179.926C179.13 372.827 178.352 372.611 177.655 372.226L177.634 372.215C177.604 372.198 177.573 372.179 177.542 372.161L177.459 372.112L177.44 372.1C176.766 371.676 176.201 371.099 175.791 370.416L175.78 370.396L175.732 370.312L175.68 370.22L175.669 370.198C175.296 369.495 175.094 368.713 175.081 367.916V367.892C175.081 367.859 175.081 367.826 175.081 367.793V367.666C175.11 366.87 175.326 366.091 175.713 365.395L175.725 365.374L175.775 365.288L175.827 365.2L175.84 365.18C176.263 364.505 176.84 363.94 177.523 363.53L177.543 363.518C177.572 363.501 177.601 363.486 177.629 363.47C177.657 363.454 177.689 363.435 177.72 363.418L177.741 363.407C178.445 363.034 179.227 362.833 180.023 362.819H180.048C180.08 362.819 180.112 362.819 180.144 362.819C180.176 362.819 180.215 362.819 180.25 362.819H180.274C181.07 362.848 181.848 363.065 182.544 363.451L182.566 363.464C182.594 363.479 182.621 363.495 182.645 363.512C182.668 363.528 182.706 363.547 182.736 363.566L182.758 363.579C183.432 364.002 183.997 364.578 184.407 365.26L184.419 365.282C184.438 365.313 184.456 365.344 184.473 365.376L184.516 365.458Z" fill="#B7DEFF"/>
<path d="M241.99 253.611C264.795 276.417 301.77 276.417 324.575 253.611C347.381 230.806 347.381 193.831 324.575 171.026C301.77 148.221 264.795 148.221 241.99 171.026C219.185 193.831 219.185 230.806 241.99 253.611Z" stroke="#B7DEFF" stroke-width="0.42" stroke-miterlimit="10"/>
<path d="M88.9405 324.826C88.9405 352.033 110.996 374.088 138.203 374.088C165.409 374.088 187.465 352.033 187.465 324.826C187.465 297.619 165.409 275.564 138.203 275.564C110.996 275.564 88.9405 297.619 88.9405 324.826Z" stroke="#B7DEFF" stroke-width="0.21" stroke-miterlimit="10"/>
<path d="M202.924 292.678C247.305 337.059 319.261 337.059 363.641 292.678C408.022 248.297 408.022 176.341 363.641 131.96C319.261 87.5796 247.305 87.5796 202.924 131.96C158.543 176.341 158.543 248.297 202.924 292.678Z" stroke="#B7DEFF" stroke-width="0.21" stroke-miterlimit="10"/>
<path d="M131.382 367.22C154.796 370.987 176.829 355.06 180.596 331.646C184.362 308.233 168.436 286.199 145.022 282.433C121.609 278.666 99.575 294.593 95.8084 318.006C92.0419 341.42 107.969 363.453 131.382 367.22Z" stroke="#B7DEFF" stroke-width="1.679" stroke-miterlimit="10"/>
<path d="M277.306 131.598H219.877V63.9782L277.306 63.9782" stroke="#B7DEFF" stroke-width="0.63" stroke-miterlimit="10"/>
<path d="M158.097 367.838L158.097 225.813L277.306 225.813" stroke="#B7DEFF" stroke-width="0.42" stroke-miterlimit="10"/>
<path d="M45.5258 367.839L45.5258 264.553L277.303 264.553" stroke="#B7DEFF" stroke-width="0.42" stroke-miterlimit="10"/>
</svg>
