<svg width="56" height="56" viewBox="0 0 56 56" fill="none" xmlns="http://www.w3.org/2000/svg">
<g clip-path="url(#clip0_83_539)">
<path d="M47.5345 8.3562C42.3509 3.16906 35.4583 0.310843 28.1147 0.307678C12.9821 0.307678 0.66721 12.6186 0.661151 27.7506C0.659388 32.5875 1.92323 37.3091 4.32544 41.4711L0.430664 55.6923L14.9841 51.8762C18.9939 54.063 23.5086 55.2153 28.1029 55.2171H28.1146H28.1147C43.2449 55.2171 55.5616 42.904 55.568 27.7728C55.5705 20.4392 52.7174 13.5437 47.5345 8.3562ZM28.1147 50.5819H28.1058C24.0106 50.5798 19.9948 49.4803 16.492 47.4018L15.6584 46.9076L7.02207 49.172L9.32785 40.7547L8.78472 39.8917C6.50042 36.2596 5.2945 32.0623 5.29622 27.7523C5.30124 15.1752 15.5369 4.94306 28.1233 4.94306C34.2184 4.94559 39.947 7.32136 44.2554 11.6328C48.5635 15.9441 50.9343 21.6755 50.9325 27.7709C50.9272 40.3484 40.6912 50.5819 28.1147 50.5819Z" fill="#E0E0E0"/>
<path d="M1.69141 54.1143L5.40828 40.5428C3.1152 36.5709 1.90932 32.0646 1.91077 27.4495C1.91678 13.0091 13.6692 1.26083 28.1093 1.26083C35.1178 1.264 41.6957 3.99151 46.6414 8.94183C51.5881 13.8921 54.3107 20.4721 54.3079 27.47C54.3019 41.9108 42.5487 53.66 28.1104 53.66C28.1093 53.66 28.1111 53.66 28.1104 53.66H28.0987C23.7143 53.6586 19.4061 52.558 15.5798 50.4727L1.69141 54.1143Z" fill="url(#paint0_linear_83_539)"/>
<path fill-rule="evenodd" clip-rule="evenodd" d="M21.3313 16.0997C20.8233 14.9705 20.2886 14.9479 19.8054 14.9281C19.4101 14.9112 18.9577 14.9122 18.5059 14.9122C18.0538 14.9122 17.3191 15.0821 16.6978 15.7606C16.0762 16.4392 14.3242 18.0795 14.3242 21.4156C14.3242 24.7521 16.7543 27.9758 17.0931 28.4286C17.4321 28.8808 21.7841 35.9457 28.6763 38.6637C34.4044 40.9225 35.57 40.4732 36.8133 40.3602C38.0566 40.2472 40.8251 38.7202 41.3903 37.1367C41.9554 35.5536 41.9554 34.1966 41.7859 33.913C41.6163 33.6304 41.1642 33.4608 40.486 33.1218C39.8079 32.7827 36.4742 31.142 35.8526 30.9159C35.2309 30.6899 34.7788 30.5769 34.3267 31.2557C33.8746 31.9339 32.5758 33.4608 32.1802 33.913C31.7846 34.3661 31.389 34.4226 30.7108 34.0835C30.0327 33.7434 27.8487 33.0281 25.2579 30.7181C23.2422 28.9209 21.8812 26.7013 21.4856 26.0225C21.09 25.3443 21.4432 24.977 21.7834 24.6389C22.0878 24.3352 22.4615 23.8474 22.8006 23.4514C23.139 23.0555 23.252 22.7729 23.4781 22.3208C23.7041 21.8679 23.5911 21.472 23.4216 21.1329C23.252 20.7938 21.9342 17.4405 21.3313 16.0997Z" fill="white"/>
<path d="M47.3101 8.26899C42.1861 3.14139 35.3726 0.316046 28.1134 0.312836C13.1544 0.312836 0.980903 12.4825 0.97489 27.4407C0.973127 32.2222 2.22245 36.8895 4.59709 41.0038L0.74707 55.0616L15.1335 51.2893C19.0972 53.4509 23.5601 54.5901 28.1017 54.5918H28.1132H28.1134C43.0698 54.5918 55.2451 42.4201 55.2515 27.4626C55.2539 20.2132 52.4335 13.397 47.3101 8.26899ZM28.1134 50.01H28.1045C24.0564 50.0079 20.0866 48.921 16.624 46.8664L15.8 46.3779L7.26279 48.6162L9.54208 40.2956L9.00519 39.4426C6.74711 35.8522 5.55502 31.7029 5.55679 27.4425C5.56172 15.0097 15.6799 4.89509 28.1219 4.89509C34.147 4.89758 39.8097 7.24608 44.0687 11.508C48.3274 15.7699 50.671 21.4354 50.6692 27.4609C50.6639 39.894 40.5454 50.01 28.1134 50.01Z" fill="white"/>
</g>
<defs>
<linearGradient id="paint0_linear_83_539" x1="27.9997" y1="54.1143" x2="27.9997" y2="1.26092" gradientUnits="userSpaceOnUse">
<stop stop-color="#20B038"/>
<stop offset="1" stop-color="#60D66A"/>
</linearGradient>
<clipPath id="clip0_83_539">
<rect width="55.3846" height="55.3846" fill="white" transform="translate(0.307617 0.307678)"/>
</clipPath>
</defs>
</svg>
