<svg width="132" height="120" viewBox="0 0 132 120" fill="none" xmlns="http://www.w3.org/2000/svg">
<path d="M22.1662 13.321C32.2641 6.13203 46.9453 5.89126 60.6136 6.17789C74.2818 6.46453 86.9286 7.35728 99.8147 12.6566C112.701 17.9559 125.826 27.6617 127.51 39.3134C129.282 50.8949 119.62 64.3437 111.997 78.093C104.445 91.9295 98.9387 105.988 88.7137 111.411C78.5673 116.842 63.7892 113.568 51.4181 107.926C39.1343 102.214 29.1703 94.2052 21.124 83.9348C13.0776 73.6644 6.9404 61.2114 6.71203 47.8856C6.40494 34.5512 11.9982 20.4226 22.1662 13.321Z" fill="white"/>
<path d="M73.0443 66.995H77.4369C80.868 66.995 84.2992 66.995 87.7306 66.995C89.8001 66.9965 91.0103 68.2192 91.0121 70.309C91.0146 73.0182 91.0146 75.7274 91.0121 78.4365V79.023C90.3601 78.588 89.7536 78.2043 89.1764 77.7803C89.0641 77.6978 89.0241 77.4593 89.0224 77.292C89.0098 76.0835 89.0156 74.8753 89.0156 73.666V73.0277H83.1516C83.1516 74.0168 83.0966 75.011 83.1664 75.9978C83.2416 77.059 83.0646 77.801 81.9983 78.4122C81.1668 78.8888 80.6326 79.8788 79.9444 80.6198C79.7866 80.7897 79.5393 80.9825 79.3319 80.9838C75.7969 81.0061 72.2618 81.0064 68.7266 80.985C68.5017 80.9483 68.2989 80.828 68.1589 80.6482C67.6488 80.0495 67.1599 79.4333 66.6923 78.7995C66.5489 78.6209 66.479 78.3945 66.4968 78.1662C67.2111 75.2144 67.9425 72.2667 68.6909 69.323C68.9991 68.1047 69.8112 67.367 71.0479 67.0333C71.0479 66.2282 71.0576 65.4393 71.0392 64.6512C71.0275 64.4904 70.9604 64.3388 70.8493 64.222C69.2101 62.5652 67.5614 60.918 65.8899 59.2433C65.5887 59.4679 65.3391 59.7543 65.1578 60.0834C64.9764 60.4124 64.8676 60.7764 64.8386 61.151C64.4421 64.7948 64.0696 68.4412 63.6876 72.0865C63.5144 73.7393 63.3389 75.392 63.1628 77.0612H61.1707C61.2779 75.9762 61.3754 74.9295 61.4854 73.8842C61.9237 69.7212 62.3896 65.561 62.7964 61.395C62.9924 59.3883 63.9003 57.924 65.6726 56.9472C69.8948 54.6207 74.0983 52.2602 78.3093 49.913C78.4353 49.8428 78.5593 49.7693 78.7824 49.6413L63.1074 38.708C62.9649 38.9025 62.8299 39.0775 62.7046 39.2592C60.1135 43.0092 57.5253 46.7612 54.9399 50.5153C54.8493 50.673 54.7161 50.802 54.5556 50.8875C54.3951 50.9729 54.2138 51.0115 54.0324 50.9987C49.2288 50.982 44.4251 50.9803 39.6214 50.9937C38.1789 50.9982 37.2426 50.3378 36.5189 49.0965C35.4273 47.2247 34.9978 45.2893 35.0728 43.1062C35.2081 39.1728 35.1099 35.2302 35.1116 31.2913C35.1116 29.7637 35.8898 28.9807 37.4071 28.9802C41.878 28.9786 46.3489 28.9786 50.8199 28.9802C52.3008 28.9802 53.0776 29.7675 53.0786 31.2663C53.0811 34.6625 53.0794 38.0587 53.0794 41.6047C53.2338 41.3675 53.3266 41.2508 53.3918 41.1203C54.5651 38.7768 55.7418 36.4348 56.8974 34.0828C57.0389 33.7604 57.1346 33.4199 57.1819 33.071C57.5681 30.8688 59.4774 29.121 61.7039 29.0062C62.1134 29 62.5183 29.0926 62.8844 29.2762C72.1089 33.7215 81.3301 38.1736 90.5482 42.6323C90.9955 42.8425 91.4696 42.9901 91.9571 43.0708C93.3456 43.3002 94.6104 44.0074 95.533 45.0701C96.4555 46.1329 96.9779 47.4845 97.0099 48.8915C97.0343 49.0915 96.9963 49.2941 96.9013 49.4717C96.8064 49.6493 96.6589 49.7934 96.4791 49.8842C88.8588 54.6377 81.2429 59.3986 73.6316 64.1667C73.1894 64.4425 72.9834 64.7193 73.0327 65.2488C73.0837 65.802 73.0443 66.3643 73.0443 66.995ZM88.8409 44.05C88.0789 43.6793 87.4273 43.3608 86.7743 43.0452C78.6067 39.0953 70.438 35.148 62.2681 31.2033C62.0367 31.0772 61.773 31.023 61.5106 31.0475C60.4332 31.2548 59.6922 31.8975 59.2649 32.9153C59.1054 33.2948 59.1521 33.532 59.5243 33.7897C66.0811 38.3417 72.6551 42.8702 79.1488 47.5112C80.3654 48.3807 81.2072 48.4533 82.4537 47.6553C84.4776 46.3595 86.6373 45.2777 88.8409 44.05ZM67.7419 58.0925L72.2461 62.6637C72.259 62.6622 72.2715 62.6581 72.2827 62.6515C79.7357 57.9882 87.1854 53.3193 94.6316 48.6448C94.719 48.5636 94.7854 48.4625 94.8252 48.35C94.865 48.2375 94.877 48.1171 94.8601 47.999C94.4551 46.489 93.4768 45.5323 91.9708 45.1022C91.7642 45.0405 91.5468 45.0239 91.3333 45.0535C91.1197 45.083 90.915 45.158 90.7329 45.2733C85.3484 48.2881 79.9589 51.2937 74.5646 54.29C72.2794 55.5638 69.9946 56.8373 67.7419 58.0925ZM68.3491 78.9547H80.9788V68.9957C77.9138 68.9957 74.8999 68.9943 71.8862 68.9967C71.0574 68.9967 70.7696 69.2218 70.5682 70.0202C70.3236 70.988 70.0849 71.9572 69.8441 72.926C69.3486 74.9223 68.8537 76.919 68.3491 78.9547ZM37.1351 36.938H43.0471V31.0143H37.1351V36.938ZM51.0549 31.0242H45.1429V36.95H51.0549V31.0242ZM37.1354 44.9528H43.0579V39.0287H37.1354V44.9528ZM51.0556 39.0167H45.1318V44.942H51.0556V39.0167ZM61.4521 37.5558L58.5071 35.5042C58.4301 35.5725 58.3874 35.5938 58.3703 35.6282C56.6896 38.9898 55.0124 42.3532 53.3386 45.7183C53.2688 45.86 53.2573 46.0233 53.3066 46.1733C53.5796 46.7718 53.8862 47.355 54.2206 48.0233C56.6576 44.4955 59.0383 41.05 61.4521 37.5562V37.5558ZM37.7492 46.9872C37.9037 47.3178 38.0468 47.5672 38.1398 47.834C38.4501 48.7257 39.0372 49.0225 39.9941 49.0097C43.8966 48.9575 47.8003 48.9878 51.7036 48.9878H52.4521C52.1906 48.4563 51.9409 48.0263 51.7646 47.568C51.5898 47.1137 51.3284 46.9708 50.8334 46.9737C46.7019 46.9973 42.5703 46.9872 38.4386 46.9872H37.7492ZM89.0159 70.9838C89.0159 70.7263 89.0159 70.5228 89.0159 70.3193C89.0124 69.386 88.7811 69.121 87.8423 68.9733C87.4731 68.9153 87.1051 68.8505 86.7356 68.7943C85.5569 68.6149 84.3785 68.4371 83.2004 68.261V70.9833L89.0159 70.9838Z" fill="#FFB635"/>
<path d="M65.0879 84.0302C65.0808 84.6295 64.8959 85.2132 64.5566 85.7072C64.2172 86.2013 63.7388 86.5834 63.182 86.805C62.6251 87.0267 62.015 87.078 61.4289 86.9523C60.8429 86.8267 60.3074 86.5298 59.8904 86.0993C59.4734 85.6688 59.1936 85.1242 59.0867 84.5345C58.9797 83.9448 59.0503 83.3365 59.2896 82.787C59.5288 82.2375 59.9259 81.7714 60.4305 81.448C60.935 81.1245 61.5243 80.9582 62.1235 80.9702C62.5191 80.9763 62.9096 81.0604 63.2727 81.2175C63.6358 81.3747 63.9644 81.6018 64.2397 81.886C64.515 82.1701 64.7316 82.5058 64.8771 82.8737C65.0227 83.2416 65.0943 83.6346 65.0879 84.0302ZM63.056 84.0117C63.0576 83.8154 63.0009 83.6231 62.8932 83.459C62.7855 83.2949 62.6316 83.1664 62.4509 83.0898C62.2702 83.0131 62.0709 82.9917 61.8781 83.0283C61.6852 83.0649 61.5075 83.1578 61.3675 83.2952C61.2274 83.4327 61.1312 83.6086 61.0911 83.8008C61.0509 83.9929 61.0686 84.1926 61.1419 84.3747C61.2152 84.5567 61.3408 84.713 61.5028 84.8238C61.6649 84.9345 61.8561 84.9947 62.0524 84.9968C62.3153 84.9965 62.5676 84.8932 62.7552 84.7091C62.9429 84.5249 63.0509 84.2745 63.056 84.0117Z" fill="#FFB635"/>
<path d="M89.0457 83.9718C89.0502 84.5711 88.8767 85.1583 88.547 85.6588C88.2173 86.1593 87.7463 86.5506 87.1939 86.783C86.6415 87.0154 86.0324 87.0784 85.4441 86.9642C84.8558 86.8499 84.3146 86.5634 83.8894 86.141C83.4642 85.7187 83.174 85.1796 83.0556 84.592C82.9373 84.0045 82.9962 83.3951 83.2248 82.841C83.4534 82.287 83.8414 81.8134 84.3397 81.4803C84.8379 81.1472 85.4238 80.9696 86.0232 80.97C86.4187 80.9686 86.8107 81.0452 87.1767 81.1953C87.5427 81.3455 87.8755 81.5662 88.1561 81.8449C88.4368 82.1237 88.6598 82.455 88.8124 82.8199C88.9651 83.1849 89.0443 83.5763 89.0457 83.9718ZM87.0138 83.9803C87.0092 83.7841 86.9464 83.5936 86.8336 83.433C86.7207 83.2724 86.5628 83.1489 86.3797 83.0779C86.1967 83.007 85.9967 82.992 85.8051 83.0346C85.6135 83.0773 85.4388 83.1758 85.3032 83.3177C85.1675 83.4595 85.0769 83.6384 85.0428 83.8318C85.0088 84.0251 85.0328 84.2242 85.1118 84.4039C85.1909 84.5836 85.3213 84.7358 85.4868 84.8414C85.6523 84.9469 85.8454 85.0011 86.0417 84.997C86.3044 84.9882 86.5533 84.8769 86.735 84.6869C86.9167 84.4968 87.0168 84.2432 87.0138 83.9803Z" fill="#FFB635"/>
<path d="M67.0566 88.9515C67.4471 88.3698 67.8013 87.8103 68.1936 87.2792C68.253 87.2044 68.3269 87.1424 68.4108 87.0969C68.4947 87.0514 68.5869 87.0233 68.682 87.0143C72.2552 86.9993 75.8284 86.9993 79.4016 87.0143C79.4966 87.0228 79.5888 87.0504 79.6728 87.0954C79.7567 87.1404 79.8307 87.202 79.8903 87.2763C80.2826 87.8083 80.6366 88.3687 81.0271 88.9517L67.0566 88.9515Z" fill="#FFB635"/>
<path d="M68.998 84.9652V83.038H79.087V84.9652H68.998Z" fill="#FFB635"/>
<path d="M74.9977 76.9705H73.0771V73.0473H74.9977V76.9705Z" fill="#FFB635"/>
<path d="M77.0801 73.0262H79.0016V76.95H77.0801V73.0262Z" fill="#FFB635"/>
</svg>
