<svg width="132" height="120" viewBox="0 0 132 120" fill="none" xmlns="http://www.w3.org/2000/svg">
<path d="M22.1662 13.321C32.2641 6.13202 46.9453 5.89125 60.6136 6.17788C74.2818 6.46452 86.9286 7.35728 99.8147 12.6566C112.701 17.9558 125.826 27.6616 127.51 39.3134C129.282 50.8949 119.62 64.3437 111.997 78.093C104.445 91.9295 98.9387 105.988 88.7137 111.411C78.5673 116.842 63.7892 113.568 51.4181 107.926C39.1343 102.214 29.1703 94.2052 21.124 83.9348C13.0776 73.6644 6.9404 61.2114 6.71203 47.8856C6.40494 34.5512 11.9982 20.4226 22.1662 13.321Z" fill="white"/>
<g clip-path="url(#clip0_69_370)">
<path d="M58.0782 92C56.7313 91.5543 55.7405 90.7572 55.4677 89.2833C55.1193 87.4015 54.7888 85.5167 54.451 83.6333C54.4325 83.531 54.4123 83.4288 54.3872 83.328C54.252 82.7855 53.9612 82.6667 53.4983 82.986C51.9238 84.0718 50.3568 85.1693 48.7817 86.2548C47.1032 87.4128 45.5802 87.2692 44.1335 85.823C42.853 84.543 41.5739 83.2617 40.2962 81.9792C38.8275 80.5045 38.6908 78.9625 39.8795 77.2748C40.9338 75.7778 41.9897 74.282 43.0472 72.7875C43.4652 72.1937 43.3455 71.9018 42.6268 71.7708C40.7477 71.4278 38.8687 71.084 36.9873 70.7542C35.2155 70.4428 34.1318 69.1762 34.1265 67.3692C34.1206 65.4112 34.1206 63.4532 34.1265 61.4952C34.1298 59.6015 35.1822 58.3497 37.0338 58.0185C38.9144 57.6824 40.7945 57.3435 42.6742 57.0018C43.3408 56.8817 43.4682 56.5832 43.081 56.0215C41.9828 54.4285 40.8747 52.8425 39.781 51.2462C38.74 49.726 38.8798 48.1377 40.1715 46.8318C41.5469 45.4409 42.9293 44.057 44.3187 42.68C45.5653 41.445 47.1843 41.3005 48.627 42.3083C50.212 43.4155 51.7783 44.5498 53.356 45.6675C53.949 46.0875 54.2227 45.97 54.3545 45.2528C54.712 43.3093 55.048 41.3617 55.432 39.4233C55.7638 37.7478 57.0018 36.7532 58.6957 36.7422C59.839 36.7348 60.9824 36.7352 62.1258 36.7432C62.8813 36.7488 63.324 37.1417 63.3375 37.7897C63.3518 38.469 62.9042 38.8817 62.1168 38.8883C61.0358 38.8972 59.9547 38.8833 58.8737 38.8937C58.0602 38.9013 57.7147 39.1995 57.5648 40.0127C57.2677 41.6267 56.9795 43.2422 56.6777 44.9117C57.6808 44.7572 58.6262 44.5825 59.5787 44.471C61.938 44.1968 64.3274 44.3516 66.6317 44.9278C67.4292 45.1243 67.8167 45.6612 67.6515 46.2975C67.4817 46.951 66.9182 47.2203 66.1135 47.0308C60.6327 45.7435 55.586 46.722 51.0452 50.051C45.3252 54.2445 42.7038 61.59 44.3603 68.5653C46.0073 75.5 51.6837 80.9165 58.7103 81.9942C65.9167 83.0993 71.7687 80.6338 76.2175 74.8418C76.3062 74.7263 76.385 74.6028 76.479 74.4918C76.9058 73.9892 77.4833 73.8938 77.9725 74.2405C78.0961 74.3206 78.2011 74.4263 78.2804 74.5503C78.3597 74.6744 78.4116 74.814 78.4325 74.9598C78.4533 75.1056 78.4427 75.2542 78.4014 75.3955C78.3601 75.5369 78.289 75.6678 78.1928 75.7793C77.2182 76.966 76.25 78.1717 75.1527 79.2392C74.224 80.1428 73.1178 80.8632 72.0407 81.7032C73.4777 82.6987 74.9117 83.717 76.374 84.6918C76.8818 85.0303 77.3688 84.8178 77.775 84.4105C78.8622 83.32 79.9553 82.2353 81.0357 81.1378C81.3883 80.7795 81.7857 80.6133 82.273 80.7578C82.4435 80.8093 82.5981 80.9032 82.7223 81.0308C82.8465 81.1584 82.9362 81.3155 82.9831 81.4873C83.0299 81.6591 83.0324 81.84 82.9901 82.013C82.9479 82.186 82.8624 82.3454 82.7416 82.4763C81.4723 83.7948 80.1982 85.1163 78.835 86.3343C77.7808 87.2762 76.2412 87.2402 75.0097 86.401C73.3953 85.2997 71.798 84.1735 70.1908 83.0615C69.56 82.625 69.2987 82.7367 69.1585 83.4967C68.8452 85.1945 68.4707 86.8842 68.2407 88.5935C68.0042 90.3517 67.1695 91.5222 65.4385 92.0002L58.0782 92ZM66.7615 83.9402C65.0565 84.095 63.3902 84.3643 61.7238 84.3645C60.0612 84.3645 58.3987 84.0945 56.7153 83.9412C56.7126 84.0312 56.7178 84.1213 56.7308 84.2105C57.0048 85.7253 57.2775 87.2405 57.5618 88.7533C57.708 89.5305 58.0475 89.8327 58.8362 89.8383C60.7695 89.8521 62.7028 89.8521 64.6362 89.8383C65.3883 89.8325 65.7592 89.5217 65.894 88.7967C66.1987 87.1605 66.4807 85.5208 66.7615 83.9402ZM42.1697 69.3667C42.0153 67.6527 41.7472 65.9833 41.7482 64.3153C41.7492 62.6473 42.0197 60.9833 42.1748 59.2875C40.5593 59.5788 38.868 59.8752 37.1807 60.1927C36.9272 60.2254 36.6953 60.3524 36.5312 60.5483C36.367 60.7442 36.2826 60.9947 36.2947 61.25C36.2763 63.311 36.2774 65.3721 36.2978 67.4333C36.3038 67.9965 36.6522 68.3703 37.2067 68.474C38.878 68.7873 40.5533 69.0782 42.1697 69.3667ZM44.4062 54.2293C46.1541 51.2568 48.6281 48.7768 51.5963 47.0217C50.0843 45.977 48.6615 44.9748 47.216 44.0065C47.017 43.864 46.7724 43.8004 46.5292 43.8277C46.286 43.8551 46.0616 43.9716 45.8993 44.1547C44.4365 45.6028 42.9826 47.0599 41.5375 48.526C41.1808 48.8878 41.085 49.3593 41.3695 49.7868C42.3467 51.2553 43.3572 52.7 44.4062 54.2298V54.2293ZM44.4447 74.5407C43.4892 75.9207 42.5662 77.2477 41.6498 78.5793C41.1232 79.3448 41.1665 79.7627 41.8377 80.436C42.9807 81.5855 44.1255 82.7332 45.2723 83.879C46.5507 85.1623 46.586 85.1668 48.0755 84.1347C49.2422 83.3263 50.4068 82.5163 51.5903 81.6947C47.4803 78.5762 47.4803 78.5762 44.4447 74.5412V74.5407Z" fill="#FFB635"/>
<path d="M98.0002 40.5C97.5347 41.4568 96.8642 42.1137 95.7182 42.124C95.644 42.1417 95.575 42.1763 95.5163 42.225C95.4577 42.2737 95.411 42.3353 95.38 42.405C94.2497 45.1963 93.1329 47.993 92.001 50.8202C93.313 51.2738 93.7344 52.2315 93.6677 53.517C93.6232 54.3688 93.6677 55.225 93.6569 56.079C93.6402 57.4947 92.7655 58.3577 91.346 58.3743C91.0594 58.3777 90.7729 58.3743 90.4115 58.3743C90.4115 59.3388 90.4115 60.249 90.4115 61.1592C90.4104 63.0158 89.6637 63.7715 87.814 63.7925C87.6297 63.7947 87.4457 63.8092 87.1947 63.8217C87.1839 64.0627 87.1659 64.2818 87.1655 64.501C87.1632 66.3552 87.1524 68.2093 87.1712 70.0632C87.1855 70.312 87.1344 70.5603 87.0232 70.7833C86.9119 71.0063 86.7443 71.1964 86.5369 71.3347C85.5124 72.0827 84.5214 72.8777 83.483 73.6052C83.01 73.9367 82.7932 74.2885 82.8297 74.8855C82.8855 75.7988 82.8512 76.7188 82.8419 77.6345C82.8332 78.478 82.437 78.9698 81.779 78.9828C81.1035 78.9962 80.676 78.4725 80.6719 77.6118C80.667 76.6118 80.6552 75.6118 80.6789 74.6118C80.6943 74.4495 80.6645 74.286 80.5927 74.1396C80.521 73.9932 80.4101 73.8695 80.2724 73.7822C79.1945 73.0013 78.154 72.1685 77.069 71.3988C76.8259 71.2401 76.6296 71.0192 76.5007 70.759C76.3717 70.4988 76.3148 70.2088 76.3357 69.9192C76.3562 68.1278 76.3427 66.3358 76.3425 64.5445V63.7868C75.9464 63.7868 75.619 63.798 75.2925 63.7848C73.9775 63.7313 73.1387 62.8917 73.099 61.5568C73.073 60.6827 73.0944 59.8068 73.0909 58.932C73.0909 58.7697 73.0717 58.6072 73.0575 58.3745C72.7299 58.3745 72.4242 58.379 72.1187 58.3737C70.833 58.3515 69.9205 57.5403 69.8619 56.2725C69.8097 55.1502 69.819 54.0225 69.8619 52.8988C69.9022 51.8443 70.5179 51.1822 71.5389 50.8228C70.9094 49.2428 70.2889 47.6847 69.6675 46.1275C69.1894 44.9305 68.7225 43.7285 68.2125 42.5453C68.1557 42.4399 68.0768 42.3481 67.9812 42.276C67.8856 42.2039 67.7755 42.1534 67.6585 42.1278C66.2992 41.9385 65.5379 41.1182 65.5345 39.7383C65.5274 36.7383 65.5739 33.7383 65.5129 30.7383C65.4857 29.4038 65.936 28.4883 67.186 27.9993H96.3784C96.7427 28.1497 97.0736 28.3708 97.352 28.6499C97.6303 28.9289 97.8507 29.2603 98.0002 29.625V40.5ZM67.7169 39.8925C67.9017 39.9068 68.0442 39.9277 68.1867 39.9277C77.2089 39.9293 86.2307 39.9328 95.2519 39.9382C95.7102 39.9382 95.8587 39.8165 95.8552 39.3423C95.8347 36.4683 95.8459 33.5938 95.8429 30.7197C95.8429 30.5423 95.8109 30.365 95.7944 30.192H67.7169V39.8925ZM93.0604 42.15H70.4255C70.4614 42.2747 70.4769 42.3537 70.5062 42.4273C71.5602 45.0725 72.6252 47.7133 73.6595 50.3663C73.8095 50.7507 74.04 50.7772 74.3714 50.7767C79.2979 50.7712 84.2244 50.7735 89.1509 50.7837C89.5842 50.7852 89.7559 50.6337 89.9055 50.2463C90.8722 47.7452 91.8669 45.2553 92.8504 42.7608C92.9242 42.5733 92.9819 42.3797 93.0604 42.15ZM88.2154 61.5972V58.375C87.194 58.375 86.2192 58.375 85.2442 58.375C84.1222 58.375 83.0002 58.384 81.8775 58.371C81.1655 58.3627 80.6775 57.9073 80.6759 57.2897C80.6739 56.669 81.1455 56.2433 81.8759 56.2115C82.0625 56.2035 82.2497 56.2085 82.4367 56.2085H91.4752V52.9952H72.0797V56.2093C73.8319 56.2093 75.5325 56.2022 77.2332 56.2125C78.0194 56.2172 78.5035 56.635 78.5139 57.2728C78.5244 57.9302 78.0107 58.366 77.2035 58.3737C76.5682 58.3797 75.9329 58.3748 75.311 58.3748V61.597L88.2154 61.5972ZM78.5222 63.8263C78.5222 65.1918 78.6337 66.5123 78.4929 67.8052C78.3317 69.2857 78.8012 70.2867 80.1067 70.9797C80.6865 71.2875 81.19 72.0595 81.7212 72.0528C82.2844 72.0458 82.8079 71.3057 83.4045 70.99C84.7285 70.2887 85.2674 69.2752 85.039 67.7642C84.913 66.9308 85.0165 66.0625 85.0165 65.2098V63.8265L78.5222 63.8263Z" fill="#FFB635"/>
<path d="M61.7257 71.3818C60.7978 71.3794 59.8796 71.1936 59.0237 70.8351C58.1679 70.4765 57.3914 69.9523 56.7389 69.2926C56.0864 68.633 55.5707 67.8508 55.2215 66.9911C54.8724 66.1314 54.6966 65.2112 54.7043 64.2833C54.7275 60.4107 57.9249 57.2438 61.771 57.2833C63.6353 57.3037 65.4163 58.0582 66.7279 59.3832C68.0394 60.7083 68.7757 62.497 68.777 64.3613C68.76 68.2313 65.5699 71.4075 61.7257 71.3818ZM66.5892 64.3167C66.591 63.6757 66.4652 63.0408 66.2192 62.449C65.9731 61.8571 65.6118 61.3202 65.1562 60.8694C64.7005 60.4185 64.1598 60.0629 63.5653 59.8232C62.9709 59.5834 62.3347 59.4644 61.6938 59.473C60.7288 59.4767 59.7865 59.7668 58.9864 60.3063C58.1862 60.8459 57.5642 61.6107 57.199 62.504C56.8337 63.3973 56.7418 64.3789 56.9348 65.3245C57.1277 66.2701 57.5969 67.1371 58.2829 67.8159C58.9689 68.4947 59.8409 68.9546 60.7885 69.1376C61.7361 69.3205 62.7166 69.2181 63.606 68.8434C64.4954 68.4688 65.2536 67.8386 65.7846 67.0328C66.3157 66.227 66.5957 65.2817 66.5892 64.3167Z" fill="#FFB635"/>
<path d="M47.118 64.306C47.2635 60.8303 48.1117 57.6455 50.3817 54.963C51.3566 53.8205 52.5392 52.873 53.8667 52.1705C54.6892 51.7273 55.324 51.8262 55.6432 52.4497C55.9517 53.0525 55.6994 53.633 54.9182 54.056C52.8621 55.1572 51.2528 56.9391 50.3662 59.0965C49.7069 60.6754 49.3492 62.3637 49.3115 64.0743C49.3093 64.3867 49.2901 64.6987 49.2539 65.009C49.226 65.2703 49.103 65.5122 48.9084 65.6888C48.7138 65.8654 48.4611 65.9643 48.1984 65.9668C47.9247 65.9616 47.6628 65.8545 47.4639 65.6665C47.2649 65.4785 47.1432 65.2231 47.1225 64.9502C47.1093 64.7357 47.1078 64.5206 47.118 64.306Z" fill="#FFB635"/>
<path d="M57.9201 49.7138C58.0598 49.7095 58.199 49.7328 58.3297 49.7823C58.4604 49.8318 58.5801 49.9066 58.6819 50.0024C58.7837 50.0982 58.8656 50.213 58.923 50.3405C58.9804 50.4679 59.0122 50.6054 59.0164 50.7452C59.02 50.8902 58.9946 51.0345 58.9417 51.1696C58.8888 51.3047 58.8095 51.4279 58.7085 51.532C58.6074 51.6361 58.4866 51.719 58.3531 51.7758C58.2196 51.8326 58.0761 51.8623 57.9311 51.863C57.649 51.8535 57.3811 51.737 57.1819 51.5371C56.9826 51.3372 56.867 51.0689 56.8584 50.7868C56.8595 50.5045 56.9713 50.2339 57.1699 50.0333C57.3684 49.8326 57.6378 49.7179 57.9201 49.7138Z" fill="#FFB635"/>
<path d="M84.9636 34.5042C82.5969 34.5042 80.2298 34.5042 77.8621 34.5042C77.6547 34.5143 77.4469 34.5071 77.2408 34.4825C76.9818 34.4379 76.7485 34.2989 76.586 34.0924C76.4235 33.8859 76.3432 33.6265 76.3608 33.3643C76.3714 33.1131 76.472 32.874 76.6442 32.6907C76.8164 32.5074 77.0488 32.3922 77.2989 32.366C77.4645 32.352 77.6307 32.3478 77.7968 32.3533C82.5933 32.3527 87.3899 32.3527 92.1866 32.3533C92.2903 32.3533 92.3943 32.351 92.4979 32.3547C93.2114 32.3798 93.6354 32.762 93.6513 33.3922C93.6679 34.0453 93.2228 34.4978 92.5013 34.5008C89.9886 34.5102 87.4761 34.5038 84.9636 34.5042Z" fill="#FFB635"/>
<path d="M72.0346 32.3588C72.4081 32.358 72.7831 32.3388 73.1552 32.3623C73.4271 32.3742 73.6842 32.4896 73.8737 32.6851C74.0631 32.8805 74.1706 33.141 74.174 33.4132C74.1774 33.6854 74.0764 33.9485 73.8919 34.1486C73.7074 34.3487 73.4533 34.4705 73.1817 34.4892C72.3944 34.5225 71.6029 34.5262 70.8162 34.4853C70.5501 34.4594 70.3035 34.3343 70.1255 34.1348C69.9475 33.9353 69.8512 33.6761 69.8556 33.4088C69.8601 33.1415 69.965 32.8856 70.1496 32.6922C70.3341 32.4987 70.5847 32.3819 70.8515 32.3648C71.2442 32.3387 71.6401 32.3598 72.0346 32.3588Z" fill="#FFB635"/>
</g>
<defs>
<clipPath id="clip0_69_370">
<rect width="64" height="64" fill="white" transform="translate(34 28)"/>
</clipPath>
</defs>
</svg>
