<svg width="132" height="120" viewBox="0 0 132 120" fill="none" xmlns="http://www.w3.org/2000/svg">
<path d="M22.1662 13.321C32.2641 6.13203 46.9453 5.89126 60.6136 6.17789C74.2818 6.46453 86.9286 7.35728 99.8147 12.6566C112.701 17.9559 125.826 27.6617 127.51 39.3134C129.282 50.8949 119.62 64.3437 111.997 78.093C104.445 91.9295 98.9387 105.988 88.7137 111.411C78.5673 116.842 63.7892 113.568 51.4181 107.926C39.1343 102.214 29.1703 94.2052 21.124 83.9348C13.0776 73.6644 6.9404 61.2114 6.71203 47.8856C6.40494 34.5512 11.9982 20.4226 22.1662 13.321Z" fill="white"/>
<g clip-path="url(#clip0_69_394)">
<path d="M35.3719 88C34.8043 87.6785 34.6261 87.1907 34.6289 86.545C34.6478 82.2543 34.6374 77.9637 34.6396 73.673C34.6396 72.6042 34.9911 72.2563 36.0666 72.2553C38.7898 72.253 41.5131 72.2632 44.2363 72.251C45.6821 72.2445 46.7431 72.8328 47.4173 74.1372C48.0533 75.368 49.1956 76.0317 50.3686 76.6305C52.7804 77.8617 55.3741 78.521 58.0254 78.9527C63.9433 79.9455 69.9941 79.8312 75.8703 78.6157C78.1119 78.1475 80.2919 77.474 82.3028 76.34C83.3873 75.7285 84.3046 74.9648 84.9038 73.8195C85.4349 72.8038 86.3758 72.2817 87.5119 72.2695C90.4426 72.238 93.3739 72.2503 96.3049 72.2603C97.0608 72.263 97.4773 72.6695 97.4791 73.4227C97.4896 77.9007 97.4826 82.3788 97.4861 86.857C97.4861 87.4045 97.1694 87.7305 96.7528 88.0002L35.3719 88ZM36.7661 85.8473H95.3389V74.371C92.7028 74.371 90.1073 74.3515 87.5129 74.3977C87.2166 74.403 86.8051 74.7102 86.6549 74.9895C85.9806 76.2452 84.9764 77.1482 83.8001 77.8895C82.0254 79.0093 80.0816 79.732 78.0638 80.2508C71.4249 81.9582 64.7138 82.0885 57.9653 81.074C55.1031 80.6437 52.3056 79.9417 49.6924 78.6467C48.0361 77.826 46.4879 76.8527 45.5899 75.145C45.2899 74.5733 44.8811 74.3497 44.2448 74.3558C41.9376 74.378 39.6303 74.3638 37.3229 74.3662C37.1436 74.3662 36.9643 74.3892 36.7661 74.4027V85.8473Z" fill="#FFB635"/>
<path d="M63.9578 36.6022C62.9357 36.6022 62.003 36.6083 61.0707 36.6007C59.567 36.5883 58.7265 35.7388 58.7228 34.2212C58.7174 31.9513 58.7174 29.6813 58.7228 27.4113C58.7267 25.8967 59.5655 25.0447 61.077 25.0447C71.3861 25.04 81.6952 25.04 92.0042 25.0447C93.4855 25.0455 94.3313 25.8892 94.3393 27.3675C94.3517 29.6786 94.3513 31.9902 94.3383 34.3022C94.3288 35.7405 93.4717 36.5842 92.0368 36.6002C91.0868 36.6108 90.1352 36.6022 89.1085 36.6022C89.1085 38.0102 89.0617 39.3588 89.1252 40.7022C89.1641 41.6157 88.9226 42.5193 88.433 43.2915C86.2937 46.9058 84.1978 50.5462 82.0718 54.1685C81.8763 54.5018 81.636 54.8905 81.3155 55.0502C80.7587 55.3277 80.712 55.7193 80.7135 56.2527C80.7287 61.7505 80.7108 67.2483 80.736 72.746C80.7397 73.5392 80.5093 74.0847 79.8152 74.496C78.9402 75.014 78.1023 75.5972 77.2652 76.1777C76.7498 76.5353 76.2843 76.52 75.7755 76.166C74.9058 75.5605 74.0317 74.9588 73.1302 74.403C72.5507 74.0457 72.3237 73.5817 72.3263 72.9083C72.343 68.8058 72.3345 64.7033 72.3345 60.6008C72.3345 59.039 72.3293 57.477 72.3385 55.9152C72.3405 55.5827 72.2837 55.3677 71.9467 55.1685C71.5786 54.9389 71.272 54.6232 71.0532 54.2487C68.8045 50.433 66.5758 46.6057 64.367 42.7668C64.1188 42.2955 63.9848 41.7724 63.9758 41.2398C63.9253 39.7243 63.9578 38.2065 63.9578 36.6022ZM86.2325 42.8795H85.4342C82.2755 42.8795 79.1168 42.8795 75.958 42.8795C74.945 42.8795 74.4277 42.5195 74.4372 41.8228C74.4467 41.131 74.9705 40.7728 75.9823 40.7728C79.4113 40.7719 82.8402 40.7719 86.269 40.7728H86.9623V36.6395H66.0915V40.7738C67.4228 40.7738 68.7248 40.7655 70.028 40.777C70.815 40.784 71.3028 41.2125 71.2947 41.8493C71.2857 42.4903 70.8063 42.8762 70.0018 42.8792C68.9913 42.883 67.981 42.88 66.912 42.88C66.937 42.9792 66.9699 43.0763 67.0105 43.1702C68.9315 46.4782 70.8587 49.7827 72.792 53.0837C72.8664 53.1702 72.9584 53.2399 73.0619 53.2881C73.1653 53.3363 73.2779 53.3619 73.392 53.3632C75.47 53.3835 77.5482 53.364 79.6253 53.386C79.7864 53.4011 79.948 53.3647 80.0871 53.2822C80.2262 53.1996 80.3355 53.0751 80.3993 52.9265C80.9757 51.8912 81.58 50.8715 82.176 49.8472C83.5027 47.5667 84.8303 45.2878 86.2325 42.8795ZM60.845 34.445H92.1992V27.1833H90.1425C90.1425 27.8055 90.145 28.3852 90.1425 28.965C90.1378 29.826 89.7613 30.287 89.0777 30.276C88.4237 30.2655 88.0523 29.8082 88.0427 28.9858C88.0358 28.3895 88.0413 27.793 88.0413 27.188H85.954C85.954 27.8355 85.9637 28.4363 85.9517 29.0368C85.935 29.8498 85.5427 30.2922 84.8755 30.274C84.236 30.2573 83.8842 29.8262 83.8755 29.0317C83.8683 28.415 83.8742 27.7983 83.8742 27.1853H81.7742C81.7742 27.8313 81.7805 28.433 81.7727 29.0345C81.7622 29.8372 81.3627 30.2902 80.6937 30.275C80.0538 30.2605 79.6803 29.8177 79.6702 29.0417C79.662 28.425 79.6685 27.8083 79.6685 27.1837H77.5658C77.5658 27.8882 77.5825 28.5503 77.5613 29.2123C77.54 29.8812 77.1208 30.2855 76.5103 30.274C75.927 30.2628 75.5295 29.878 75.5032 29.229C75.4755 28.5492 75.497 27.8672 75.497 27.187H73.4013C73.4013 27.836 73.4102 28.4387 73.3992 29.0408C73.3845 29.8418 72.9775 30.2935 72.3093 30.2742C71.6658 30.255 71.308 29.8203 71.3007 29.0345C71.2948 28.4178 71.2995 27.8023 71.2995 27.1818H69.1942C69.1942 27.6963 69.1942 28.171 69.1942 28.6457C69.1942 28.8538 69.2023 29.0623 69.1873 29.2702C69.1443 29.8645 68.7592 30.2518 68.2023 30.2737C68.0665 30.2861 67.9295 30.2703 67.8001 30.2271C67.6707 30.184 67.5516 30.1145 67.4503 30.0231C67.3491 29.9316 67.2679 29.8202 67.2119 29.6958C67.1559 29.5714 67.1262 29.4368 67.1248 29.3003C67.0808 28.603 67.1147 27.9003 67.1147 27.192H65.0825C65.061 27.2473 65.0451 27.3046 65.035 27.363C65.0292 27.925 65.035 28.4875 65.0203 29.0493C64.9997 29.825 64.6203 30.266 63.985 30.275C63.3183 30.2843 62.9378 29.836 62.9308 29.0227C62.9253 28.4075 62.9297 27.7922 62.9297 27.1848H60.8463L60.845 34.445ZM74.4523 59.8C75.6523 58.9978 76.7523 58.2625 77.8523 57.528C78.7357 56.9382 78.8463 56.6152 78.5397 55.5343H74.4523V59.8ZM78.637 64.7803C77.2153 65.7322 75.9242 66.5933 74.6392 67.4637C74.5892 67.496 74.5462 67.5381 74.5129 67.5874C74.4796 67.6368 74.4566 67.6924 74.4453 67.7508C74.4298 68.5655 74.4365 69.3805 74.4365 70.3008C75.8252 69.3738 77.1032 68.5292 78.3667 67.6653C78.4375 67.6129 78.4969 67.5465 78.5413 67.4704C78.5857 67.3943 78.6142 67.31 78.625 67.2225C78.6513 66.4615 78.637 65.6985 78.637 64.7803ZM74.4325 65.0578C75.8528 64.1078 77.1742 63.229 78.487 62.3372C78.5312 62.2964 78.5667 62.247 78.5912 62.192C78.6157 62.1371 78.6287 62.0777 78.6295 62.0175C78.6415 61.2373 78.6358 60.457 78.6358 59.6717C78.5275 59.6717 78.4783 59.656 78.4512 59.6738C77.1897 60.5088 75.9272 61.3425 74.6752 62.1918C74.6118 62.2381 74.5585 62.2969 74.5186 62.3645C74.4787 62.4321 74.453 62.5071 74.4432 62.585C74.4215 63.3653 74.4325 64.1465 74.4325 65.0578ZM78.6353 70.0297L74.443 72.7877C75.1252 73.2312 75.7218 73.6377 76.3375 74.0115C76.6398 74.1948 78.6123 72.9235 78.6272 72.5202C78.6557 71.7392 78.6353 70.9563 78.6353 70.0297Z" fill="#FFB635"/>
<path d="M52.2789 71.0297C49.8064 71.0228 48.3196 68.8332 49.1351 66.7287C49.4731 65.8567 49.6997 64.9867 49.5369 64.052C49.2727 62.5353 48.4429 61.4418 47.0936 60.7035C44.2587 59.152 42.4381 56.7998 41.6876 53.6458C41.1499 51.3862 41.2994 49.1458 42.2876 47.0513C43.3959 44.7002 42.5524 42.053 40.1529 40.7358C35.1626 37.9967 33.2842 32.0968 35.6196 26.9C36.3716 25.2262 38.1374 24.4883 39.7539 25.1723C41.3646 25.854 42.0651 27.6413 41.3907 29.3492C40.3602 31.9597 41.1187 34.0898 43.5711 35.473C48.4122 38.2032 50.3711 43.8965 48.2389 49.0397C47.1079 51.7677 47.8264 53.8698 50.3827 55.3127C52.7274 56.6182 54.4973 58.7555 55.3429 61.3024C56.1886 63.8493 56.0484 66.6207 54.9502 69.0693C54.3807 70.3288 53.4082 70.9892 52.2789 71.0297ZM52.0224 68.9418C52.6037 68.9252 52.8959 68.5723 53.1091 68.0693C54.8071 64.062 53.2451 59.263 49.3472 57.195C46.2261 55.539 44.6289 51.7558 46.2901 48.2573C47.0806 46.5928 47.1947 44.8008 46.7827 43.0033C46.1976 40.4493 44.7494 38.5177 42.4537 37.2585C40.7446 36.3215 39.5669 34.9682 39.0537 33.0752C38.6635 31.6143 38.7815 30.0641 39.3886 28.6792C39.6592 28.0237 39.4201 27.4652 38.8414 27.232C38.2836 27.0073 37.7764 27.2407 37.4782 27.8612C37.4332 27.9547 37.3949 28.0515 37.3561 28.1478C36.5847 30.0807 36.5327 32.2262 37.2097 34.1941C37.8866 36.162 39.2475 37.8215 41.0447 38.8707C41.7548 39.258 42.4152 39.7302 43.0114 40.2768C44.9521 42.1878 45.4252 44.9628 44.2999 47.6047C43.4972 49.489 43.2724 51.4088 43.8027 53.396C44.4731 55.9075 45.9986 57.7258 48.2624 58.9793C50.8082 60.3885 52.0597 63.0098 51.5747 65.8627C51.4747 66.451 51.2229 67.0127 51.0581 67.5907C51.0075 67.7442 50.9938 67.9075 51.0181 68.0673C51.0424 68.2271 51.104 68.379 51.1979 68.5106C51.2918 68.6421 51.4154 68.7497 51.5587 68.8247C51.7019 68.8996 51.8608 68.9397 52.0224 68.9418Z" fill="#FFB635"/>
<path d="M43.6249 69.3947C40.0171 69.092 36.0104 67.2518 34.8207 62.9465C34.2807 60.992 35.1717 59.2377 36.9551 58.7228C38.6291 58.2395 40.4631 59.2427 40.8217 60.944C41.0161 61.8658 41.5472 62.3753 42.3447 62.6623C42.9325 62.8636 43.5364 63.0142 44.1499 63.1123C45.8372 63.4068 46.9866 64.8515 46.8404 66.5383C46.7674 67.3338 46.3944 68.0716 45.7973 68.6021C45.2001 69.1326 44.4234 69.416 43.6249 69.3947ZM43.4492 67.2533C44.3584 67.2748 44.8191 66.8007 44.7371 66.1017C44.6694 65.5247 44.3019 65.2673 43.4844 65.1193C41.2791 64.7203 39.3372 63.9777 38.7621 61.4478C38.6396 60.9092 38.1367 60.6593 37.5972 60.7462C37.3453 60.7773 37.1161 60.9071 36.9599 61.1071C36.8036 61.3071 36.7331 61.5609 36.7639 61.8128C36.845 62.4082 37.0222 62.9864 37.2887 63.525C38.6342 66.0418 40.9864 66.8963 43.4492 67.2533Z" fill="#FFB635"/>
<path d="M62.6093 48.0742C62.5773 50.9653 61.6525 53.1895 59.5676 54.8253C59.1595 55.1437 58.678 55.3547 58.1673 55.4389C57.6565 55.5232 57.1328 55.478 56.6441 55.3075C56.1553 55.137 55.7171 54.8466 55.3696 54.463C55.0221 54.0793 54.7763 53.6147 54.6548 53.1115C54.3548 51.9325 54.6323 50.8475 55.5548 50.0422C56.2048 49.4755 56.369 48.7943 56.2626 48.029C56.16 47.3727 56.0018 46.7263 55.7896 46.0968C55.2328 44.3538 56.0193 42.6152 57.6638 42.021C59.3115 41.4258 61.0521 42.2458 61.6948 43.9673C61.9846 44.7459 62.22 45.5436 62.3995 46.3547C62.5031 46.9232 62.5732 47.4974 62.6093 48.0742ZM60.498 48.3028L60.6606 48.2595C60.358 47.082 60.0915 45.8928 59.7391 44.7312C59.534 44.0548 58.9533 43.8038 58.3716 44.008C57.8146 44.2037 57.5846 44.7803 57.7915 45.4497C57.9383 45.9247 58.1116 46.3945 58.2156 46.8792C58.5973 48.6595 58.4753 50.3063 56.9568 51.5932C56.7704 51.7648 56.6561 52.0008 56.6371 52.2535C56.618 52.5062 56.6956 52.7567 56.8541 52.9543C57.0091 53.1664 57.2401 53.3102 57.4988 53.3555C57.7575 53.4008 58.0237 53.344 58.2415 53.1972C58.4329 53.073 58.6092 52.9269 58.7668 52.7618C59.9903 51.5287 60.5003 50.0148 60.498 48.3028Z" fill="#FFB635"/>
<path d="M84.0573 73.3095C83.0524 73.298 82.5573 72.4272 82.9656 71.7365C83.0689 71.5805 83.1912 71.4378 83.3294 71.3117C85.9729 68.6583 88.6179 66.0066 91.2646 63.3563C91.3901 63.2175 91.5332 63.0957 91.6904 62.9942C92.1596 62.7265 92.6168 62.7658 92.9961 63.1608C93.3584 63.5387 93.3724 63.984 93.1128 64.4235C92.996 64.5952 92.8587 64.7519 92.7039 64.8902C90.0886 67.5129 87.4702 70.1324 84.8486 72.7487C84.6043 72.9616 84.3391 73.1495 84.0573 73.3095Z" fill="#FFB635"/>
<path d="M60.7659 62.6803C61.1579 62.9162 61.4601 63.0272 61.6678 63.2335C64.396 65.9465 67.1155 68.6682 69.8263 71.3985C70.3596 71.9355 70.3846 72.5538 69.9375 73.0005C69.4955 73.4418 68.8708 73.4085 68.3409 72.8797C65.6187 70.1604 62.8998 67.4382 60.1841 64.713C59.8231 64.3522 59.6396 63.9115 59.8866 63.4765C60.0673 63.1592 60.4493 62.9567 60.7659 62.6803Z" fill="#FFB635"/>
<path d="M70.3667 64.9732C70.1194 65.2877 69.9529 65.6843 69.6667 65.8105C69.3805 65.9367 68.9595 65.8463 68.6267 65.7502C68.4384 65.6958 68.2959 65.4502 68.1539 65.2722C66.8677 63.6665 65.5843 62.0584 64.3039 60.448C63.8039 59.8198 63.8057 59.2065 64.297 58.798C64.7952 58.384 65.4137 58.502 65.9089 59.1207C67.2217 60.7589 68.5298 62.4005 69.8334 64.0455C70.0322 64.3421 70.2104 64.6521 70.3667 64.9732Z" fill="#FFB635"/>
<path d="M83.8412 66.1112C83.5079 65.85 83.1622 65.6778 82.966 65.4003C82.686 65.0033 82.8079 64.5692 83.109 64.1927C84.044 63.0237 84.9774 61.8533 85.909 60.6817C86.3369 60.1453 86.7542 59.5998 87.197 59.076C87.6325 58.5608 88.2137 58.4838 88.683 58.8465C89.1664 59.2198 89.2354 59.8465 88.8034 60.3942C87.464 62.0916 86.1126 63.7795 84.749 65.4578C84.5424 65.7117 84.203 65.857 83.8412 66.1112Z" fill="#FFB635"/>
<path d="M58.7145 60.7432C58.7146 60.8781 58.6878 61.0117 58.6355 61.136C58.5833 61.2604 58.5067 61.3731 58.4103 61.4675C58.3138 61.5618 58.1995 61.636 58.074 61.6855C57.9485 61.7351 57.8144 61.759 57.6795 61.756C57.5394 61.7563 57.4006 61.728 57.2718 61.6726C57.143 61.6173 57.0269 61.5362 56.9306 61.4342C56.8344 61.3323 56.76 61.2118 56.7121 61.08C56.6643 60.9483 56.6439 60.8081 56.6522 60.6682C56.6622 60.3947 56.7803 60.1364 56.9807 59.95C57.1812 59.7637 57.4474 59.6646 57.7209 59.6745C57.9944 59.6844 58.2527 59.8026 58.439 60.003C58.6254 60.2035 58.7245 60.4697 58.7145 60.7432Z" fill="#FFB635"/>
<path d="M96.4101 60.7C96.4139 60.8369 96.3902 60.9731 96.3406 61.1007C96.291 61.2283 96.2164 61.3447 96.1212 61.4431C96.026 61.5415 95.9121 61.6199 95.7862 61.6737C95.6604 61.7275 95.525 61.7556 95.3881 61.7564C95.2512 61.7572 95.1155 61.7307 94.989 61.6784C94.8625 61.6261 94.7477 61.549 94.6513 61.4518C94.555 61.3545 94.479 61.239 94.4279 61.112C94.3768 60.985 94.3515 60.8491 94.3536 60.7122C94.3551 60.4414 94.4632 60.1822 94.6546 59.9907C94.846 59.7993 95.1051 59.691 95.3759 59.6894C95.6466 59.6878 95.907 59.793 96.1006 59.9822C96.2943 60.1714 96.4055 60.4293 96.4101 60.7Z" fill="#FFB635"/>
<path d="M48.719 83.791C47.5772 83.791 46.4357 83.7987 45.2933 83.7883C44.516 83.7812 44.089 83.4007 44.0898 82.7508C44.0898 82.0982 44.5145 81.7237 45.2978 81.7215C47.623 81.7149 49.9482 81.7149 52.2735 81.7215C53.0523 81.7237 53.4785 82.1037 53.477 82.7548C53.4755 83.406 53.0517 83.7808 52.269 83.7882C51.0858 83.7985 49.9023 83.791 48.719 83.791Z" fill="#FFB635"/>
<path d="M40.4395 81.7265C41.4818 81.7193 41.9642 82.0395 41.9748 82.738C41.9858 83.456 41.4868 83.7922 40.4082 83.791C40.2016 83.7972 39.9947 83.7922 39.7887 83.776C39.5304 83.7533 39.2904 83.6336 39.1167 83.4411C38.9431 83.2486 38.8488 82.9975 38.8527 82.7383C38.8566 82.4791 38.9584 82.231 39.1378 82.0438C39.3171 81.8566 39.5607 81.7443 39.8195 81.7293C40.025 81.7118 40.2332 81.7265 40.4395 81.7265Z" fill="#FFB635"/>
</g>
<defs>
<clipPath id="clip0_69_394">
<rect width="64" height="64" fill="white" transform="translate(34 24)"/>
</clipPath>
</defs>
</svg>
