<svg width="132" height="120" viewBox="0 0 132 120" fill="none" xmlns="http://www.w3.org/2000/svg">
<path d="M22.1662 13.321C32.2641 6.13203 46.9453 5.89126 60.6136 6.17789C74.2818 6.46453 86.9286 7.35728 99.8147 12.6566C112.701 17.9559 125.826 27.6617 127.51 39.3134C129.282 50.8949 119.62 64.3437 111.997 78.093C104.445 91.9295 98.9387 105.988 88.7137 111.411C78.5673 116.842 63.7892 113.568 51.4181 107.926C39.1343 102.214 29.1703 94.2052 21.124 83.9348C13.0776 73.6644 6.9404 61.2114 6.71203 47.8856C6.40494 34.5512 11.9982 20.4226 22.1662 13.321Z" fill="white"/>
<g clip-path="url(#clip0_69_361)">
<path d="M104 62.5362C103.172 64.4888 103.172 64.4888 101.713 65.5872C102.058 66.8172 102.499 67.9906 102.706 69.2052C103.438 73.4987 100.767 78.1304 96.7228 79.6907C96.3547 79.8342 95.9666 79.9189 95.5726 79.9417C94.0383 80.0174 93.0618 78.995 93.2801 77.4492C93.4189 76.4683 93.8033 75.5232 93.9593 74.5429C94.043 73.826 94.0039 73.1 93.8435 72.3965C93.7715 72.6391 93.6972 72.881 93.6282 73.1242C92.7804 76.1147 90.9509 78.2567 88.1713 79.5738C87.9246 79.688 87.6679 79.7786 87.4044 79.8444C85.3779 80.3679 84.0174 79.0014 84.496 76.9447C84.7492 75.8551 85.1137 74.7661 85.1758 73.6617C85.3146 71.182 84.2885 69.1631 82.3936 67.4724C82.3119 67.715 82.2372 67.8837 82.1979 68.0607C80.7482 74.5961 75.3448 79.3912 68.8184 79.9283C65.6233 80.1812 62.4319 79.3934 59.7131 77.6803C56.9943 75.9673 54.8913 73.4195 53.7128 70.4109C53.5207 69.9228 53.3085 69.716 52.7671 69.7395C51.6625 69.7873 50.5543 69.7539 49.5742 69.7539C49.2172 71.0379 48.9382 72.2248 48.5499 73.3734C48.2326 74.3143 47.5952 74.626 46.9237 74.3185C46.2891 74.028 46.145 73.4107 46.5027 72.5254C48.5275 67.5168 45.7678 62.0011 40.6235 60.7746C36.0395 59.6824 31.3586 62.7015 30.3994 67.3689C30.1672 68.497 30.1623 69.6607 30.3849 70.7908C30.6076 71.9208 31.0532 72.9941 31.6953 73.9467C32.3374 74.8993 33.1628 75.7118 34.1224 76.3357C35.082 76.9596 36.1561 77.3822 37.2809 77.5783C39.3707 77.9358 41.2968 77.5217 43.1312 76.4747C43.5057 76.2577 43.9454 76.1848 44.3691 76.2695C44.658 76.353 45.0338 76.85 45.0124 77.1373C44.9905 77.3607 44.9236 77.5771 44.8156 77.7734C44.7077 77.9696 44.5611 78.1415 44.3849 78.2784C41.2752 80.223 37.9726 80.5368 34.5957 79.1229C27.4037 76.1115 25.721 66.638 31.4029 61.2478C31.6042 61.0741 31.7627 60.8555 31.866 60.6093C31.9693 60.3632 32.0144 60.0961 31.9978 59.8293C31.9695 56.6521 31.98 53.4744 31.9859 50.2971C31.9915 47.4344 33.4637 45.4726 36.1902 44.6755C39.6058 43.6756 43.0216 42.6762 46.4375 41.6773C49.743 40.7164 51.7822 41.6373 53.272 44.7423C56.6267 42.2042 60.4793 41.0307 64.5759 40.5226C66.3859 40.298 67.0255 40.4748 68.4484 41.6132C69.8663 40.2616 71.5296 39.6971 73.4679 40.1531C74.5652 40.4016 75.5503 41.0095 76.2696 41.8822C76.9888 42.7548 77.4019 43.8432 77.4443 44.9776C77.5149 47.6028 77.4542 50.2314 77.4993 52.8576C77.541 53.2586 77.6991 53.6382 77.9536 53.9488C78.7129 54.962 79.5532 55.9139 80.299 56.9366C80.3961 57.1014 80.5366 57.2358 80.7049 57.3247C80.8732 57.4137 81.0627 57.4537 81.2522 57.4403C84.5916 57.4203 87.9312 57.4345 91.2708 57.4247C91.8715 57.4229 92.3574 57.5848 92.5656 58.1978C92.8365 58.9957 92.2699 59.6741 91.3162 59.6773C88.422 59.6874 85.5278 59.6812 82.6334 59.6814H81.7464C82.0339 61.054 82.3084 62.3638 82.5961 63.7369C82.7893 63.7471 83.0298 63.7709 83.2704 63.7709C88.6138 63.7732 93.9571 63.7721 99.3003 63.7677C99.67 63.7819 100.04 63.7414 100.398 63.6476C100.842 63.4974 101.221 63.1951 101.468 62.7931C101.715 62.391 101.815 61.9145 101.751 61.4458C101.687 60.977 101.463 60.5457 101.117 60.2261C100.772 59.9066 100.326 59.719 99.858 59.6958C98.895 59.6543 97.9288 59.6894 96.9642 59.6788C96.1047 59.6693 95.6097 59.2327 95.6278 58.5219C95.645 57.8412 96.1235 57.4391 96.9495 57.4309C97.7906 57.4227 98.6318 57.4271 99.4729 57.4293C101.696 57.4353 103.165 58.5125 103.858 60.6372C103.896 60.7245 103.944 60.8075 104 60.8847V62.5362ZM80.308 64.8603C80.3053 62.3237 79.5581 59.8448 78.1608 57.7365C76.7635 55.6281 74.7787 53.985 72.4569 53.0145C70.1352 52.044 67.5807 51.7897 65.1158 52.2836C62.651 52.7775 60.3864 53.9976 58.608 55.7897C56.8296 57.5818 55.617 59.8657 55.1234 62.3529C54.6299 64.8401 54.8774 67.4192 55.8348 69.7645C56.7922 72.1098 58.4166 74.1162 60.5028 75.5303C62.589 76.9444 65.0434 77.7029 67.5564 77.71C69.2309 77.7164 70.8901 77.3886 72.4386 76.7454C73.9871 76.1022 75.3944 75.1563 76.5795 73.9621C77.7646 72.7679 78.7041 71.349 79.3439 69.787C79.9838 68.225 80.3114 66.5506 80.308 64.8603ZM52.8182 67.4696C52.1067 61.2018 54.0046 56.0658 59.1048 52.4777C64.2281 48.8728 69.6708 48.9098 75.1976 51.777C75.2229 51.6186 75.2403 51.459 75.2496 51.2988C75.2522 49.322 75.2694 47.3449 75.2442 45.3685C75.223 43.7294 74.1485 42.4714 72.6675 42.2777C71.0842 42.0703 69.7366 43.0201 69.2869 44.6599C68.8833 46.1314 68.1644 46.6893 66.6401 46.7932C62.2786 47.0903 58.3326 48.5102 54.9293 51.3302C54.1549 51.972 53.3557 52.2859 52.4107 51.8319C51.4868 51.3883 51.225 50.5721 51.2458 49.5932C51.2696 48.468 51.2898 47.3391 51.2307 46.2161C51.149 44.6609 50.0244 43.5336 48.5646 43.5536C47.9992 43.5962 47.4417 43.7131 46.9063 43.9014C43.4632 44.8967 40.0226 45.9011 36.5846 46.9147C35.2757 47.2995 34.5172 48.1903 34.2203 49.6172C34.8748 49.6172 35.4628 49.6156 36.0498 49.6172C38.0726 49.6242 39.5466 50.9985 39.5578 52.8887C39.5689 54.7678 38.0779 56.1937 36.0831 56.2087C35.4753 56.2133 34.8672 56.2087 34.2622 56.2087V59.2516C37.549 57.9009 40.7367 57.9377 43.8209 59.6399C46.9013 61.3397 48.6528 64.0388 49.322 67.4672L52.8182 67.4696ZM93.0596 66.0268C96.3843 69.4688 97.0493 73.3356 95.3902 77.8067C95.9006 77.5865 96.1975 77.4798 96.4757 77.3361C98.2414 76.4131 99.5794 74.8295 100.203 72.9237C100.827 71.018 100.688 68.9414 99.8152 67.1381C99.43 66.3391 98.984 65.9329 98.0155 65.997C96.4291 66.1047 94.8301 66.0268 93.0596 66.0268ZM86.5747 77.725C86.8964 77.6312 87.0846 77.5953 87.2577 77.5231C90.8795 76.0103 92.7631 71.3535 91.2026 67.7294C91.0583 67.4471 90.8463 67.2058 90.586 67.0273C89.3233 66.0845 87.8723 65.9263 86.3578 66.02C85.6932 66.0601 85.0241 66.0268 84.1961 66.0268C87.5274 69.4962 88.2025 73.342 86.5747 77.725ZM53.4992 49.5414C53.7231 49.3908 53.8064 49.3422 53.8818 49.2831C57.5459 46.4103 61.7235 44.9191 66.3191 44.5524C67.1123 44.4891 67.3811 44.0445 66.8793 43.4161C66.5973 43.0628 66.0266 42.7197 65.605 42.7415C62.1332 42.8995 58.7544 43.9244 55.7713 45.7242C54.4256 46.5362 53.7071 47.8176 53.4992 49.5414ZM34.2443 53.9533C34.9955 53.9533 35.6583 53.9827 36.3173 53.9446C36.4538 53.9433 36.5886 53.914 36.7135 53.8587C36.8385 53.8033 36.9511 53.723 37.0445 53.6226C37.138 53.5221 37.2103 53.4037 37.2571 53.2743C37.304 53.1449 37.3244 53.0072 37.3172 52.8697C37.2567 52.2803 36.9233 51.902 36.3131 51.8799C35.6333 51.8555 34.9519 51.8743 34.2443 51.8743V53.9533Z" fill="#FFB635"/>
<path d="M43.0013 69.1554C42.9964 70.0156 42.7386 70.8551 42.2606 71.5673C41.7826 72.2795 41.1059 72.8325 40.3163 73.1561C39.5267 73.4798 38.6596 73.5595 37.8251 73.3852C36.9905 73.211 36.226 72.7906 35.6283 72.1773C35.0307 71.564 34.6269 70.7854 34.468 69.9402C34.3092 69.095 34.4024 68.2212 34.736 67.4295C35.0696 66.6379 35.6285 65.964 36.3419 65.4934C37.0552 65.0227 37.8909 64.7763 38.7431 64.7855C39.8811 64.7976 40.9679 65.2641 41.766 66.0831C42.564 66.902 43.0082 68.0067 43.0013 69.1554ZM38.6698 67.0412C38.2578 67.0458 37.8564 67.1737 37.5166 67.4089C37.1768 67.6441 36.9138 67.9758 36.761 68.3621C36.6083 68.7483 36.5726 69.1717 36.6586 69.5784C36.7445 69.9852 36.9482 70.357 37.2439 70.6467C37.5395 70.9364 37.9137 71.1309 38.319 71.2056C38.7243 71.2803 39.1424 71.2318 39.5204 71.0663C39.8984 70.9007 40.2191 70.6256 40.4419 70.2757C40.6647 69.9259 40.7796 69.5171 40.7719 69.1013C40.7691 68.8264 40.7123 68.5547 40.6049 68.302C40.4976 68.0493 40.3416 67.8205 40.1462 67.629C39.9507 67.4375 39.7196 67.2869 39.4662 67.186C39.2128 67.0851 38.9421 67.0359 38.6698 67.0412Z" fill="#FFB635"/>
<path d="M73.3007 64.8532C73.2995 65.9949 72.9627 67.1105 72.3329 68.0588C71.7031 69.0071 70.8087 69.7454 69.763 70.1802C68.7172 70.615 67.5671 70.7267 66.4584 70.5012C65.3497 70.2758 64.3322 69.7232 63.5348 68.9136C62.7374 68.104 62.196 67.0737 61.9791 65.9532C61.7622 64.8327 61.8796 63.6724 62.3165 62.6194C62.7533 61.5663 63.4899 60.6678 64.433 60.0376C65.3761 59.4074 66.4833 59.074 67.6142 59.0794C69.1259 59.0869 70.573 59.6986 71.6388 60.7808C72.7046 61.8629 73.3022 63.3273 73.3007 64.8532ZM71.0738 64.864C71.0788 64.4014 70.9927 63.9425 70.8206 63.5137C70.6485 63.085 70.3938 62.695 70.0712 62.3664C69.7487 62.0378 69.3647 61.7771 68.9416 61.5995C68.5184 61.4218 68.0646 61.3308 67.6063 61.3315C66.6794 61.3293 65.7896 61.6988 65.1326 62.3588C64.4756 63.0188 64.1052 63.9152 64.103 64.8509C64.1008 65.7865 64.4668 66.6848 65.1207 67.348C65.7745 68.0112 66.6625 68.385 67.5895 68.3873C68.0479 68.3883 68.5019 68.2978 68.9256 68.1211C69.3492 67.9443 69.734 67.6847 70.0579 67.3573C70.3818 67.0299 70.6384 66.641 70.8129 66.2131C70.9874 65.7852 71.0763 65.3267 71.0746 64.864H71.0738Z" fill="#FFB635"/>
</g>
<defs>
<clipPath id="clip0_69_361">
<rect width="76" height="40" fill="white" transform="translate(28 40)"/>
</clipPath>
</defs>
</svg>
