<svg width="132" height="120" viewBox="0 0 132 120" fill="none" xmlns="http://www.w3.org/2000/svg">
<path d="M22.1662 13.321C32.2641 6.13203 46.9453 5.89126 60.6136 6.17789C74.2818 6.46453 86.9286 7.35728 99.8147 12.6566C112.701 17.9559 125.826 27.6617 127.51 39.3134C129.282 50.8949 119.62 64.3437 111.997 78.093C104.445 91.9295 98.9387 105.988 88.7137 111.411C78.5673 116.842 63.7892 113.568 51.4181 107.926C39.1343 102.214 29.1703 94.2052 21.124 83.9348C13.0776 73.6644 6.9404 61.2114 6.71203 47.8856C6.40494 34.5512 11.9982 20.4226 22.1662 13.321Z" fill="white"/>
<path d="M75.571 74.6898V72.7004H74.1978C73.0142 72.7004 71.832 72.7072 70.6484 72.6965C69.9998 72.6911 69.5217 72.3744 69.5285 71.8177C69.5504 69.7919 69.389 67.7213 69.7479 65.7484C70.5279 61.4462 74.2125 58.5524 78.5919 58.4808C78.7453 58.4901 78.8976 58.4487 79.0252 58.3631L43.17 36.3421C43.1564 36.6387 43.1388 36.858 43.1388 37.0759C43.1374 40.3557 43.1374 43.6355 43.1388 46.9154C43.1388 47.9133 42.9599 48.134 42.0053 48.3319C41.771 48.358 41.5537 48.4672 41.3927 48.6396C41.2317 48.8119 41.1377 49.0362 41.1277 49.2718C41.1032 49.4854 41.1531 49.701 41.2691 49.882C41.385 50.0631 41.5599 50.1987 41.7642 50.2658C41.9805 50.3594 42.2235 50.3707 42.4475 50.2977C42.6716 50.2246 42.8612 50.0721 42.9807 49.869C43.0186 49.8175 43.0458 49.7595 43.0823 49.708C43.4759 49.1759 44.029 49.0403 44.5096 49.3573C44.6232 49.4352 44.7204 49.5348 44.7955 49.6503C44.8706 49.7658 44.9221 49.8951 44.9472 50.0306C44.9722 50.1661 44.9702 50.3052 44.9414 50.4399C44.9125 50.5746 44.8573 50.7024 44.779 50.8157C44.4799 51.3629 44.0193 51.8046 43.4601 52.0805C42.9008 52.3565 42.27 52.4532 41.6537 52.3575C41.0375 52.2619 40.4657 51.9785 40.0164 51.546C39.5671 51.1136 39.2621 50.553 39.143 49.9409C39.0104 49.3474 39.0673 48.7274 39.3056 48.1679C39.544 47.6085 39.9517 47.1379 40.4714 46.8223C41.0375 46.511 41.1255 46.1454 41.123 45.5793C41.1012 42.2779 41.1191 38.9765 41.0972 35.6762C41.0748 35.3791 40.9608 35.0962 40.7709 34.8665C40.5917 34.6697 40.4895 34.4148 40.4829 34.1487C40.4763 33.8825 40.5659 33.6229 40.7351 33.4174C42.5062 30.6685 46.1379 29.8602 49.0593 31.6192C52.1696 33.4933 55.2546 35.4093 58.3488 37.3081C69.6669 44.2563 80.9877 51.2005 92.3113 58.1405C92.715 58.3466 93.1608 58.4568 93.6141 58.4626C94.4821 58.5223 94.8492 58.8418 94.8506 59.7123C94.8547 63.6271 94.8547 67.542 94.8506 71.457C94.8506 72.3279 94.4835 72.6922 93.6169 72.6947C92.034 72.7015 90.4497 72.6975 88.8178 72.6975V74.7012C89.0099 74.7109 89.2131 74.7284 89.4164 74.7284C91.0861 74.731 92.7549 74.731 94.4227 74.7284C95.5751 74.7284 95.865 75.0264 95.866 76.2043V82.3616C95.866 83.6007 95.5898 83.8701 94.3275 83.8701H90.7363C89.7248 86.6448 88.0414 87.968 85.6094 87.9325C83.3195 87.8985 81.5849 86.4713 80.7344 83.8998H77.555C76.7346 86.5189 75.0093 88.0123 72.1709 87.9136C70.0001 87.8377 68.375 86.3779 67.5531 83.9027H65.4421C65.4421 84.2247 65.4529 84.5159 65.4421 84.8072C65.4135 85.487 65.0468 85.8906 64.382 85.8945C61.7197 85.9081 59.0578 85.9081 56.3963 85.8945C55.695 85.8906 55.3304 85.4895 55.3075 84.7707C55.2982 84.4984 55.3075 84.225 55.3075 83.912H52.1983C51.1378 86.6974 49.479 87.9866 47.0252 87.9311C44.7693 87.881 43.0412 86.4455 42.195 83.8701H41.5409C39.7655 83.8701 37.9916 83.8755 36.2176 83.8676C35.4201 83.8637 35.0301 83.4926 35.0301 82.7137C35.0247 77.5503 34.9757 72.3855 35.0476 67.2236C35.1138 62.5397 39.144 58.5706 43.8211 58.4894C46.5458 58.4418 49.2715 58.4758 51.9961 58.4772C52.9332 58.4772 53.2756 58.835 53.2756 59.7961C53.2782 64.5154 53.2782 69.2346 53.2756 73.9538V74.6898H75.571ZM80.7233 81.8274C81.5953 79.2899 83.2204 77.8935 85.3994 77.7843C86.4393 77.7205 87.4738 77.9782 88.3623 78.5225C88.9519 78.8874 89.4629 79.3661 89.8656 79.9306C90.2682 80.495 90.5545 81.134 90.7077 81.8103H93.7951V76.8101H37.0842V81.8099H42.2064C43.0515 79.2424 44.7944 77.8097 47.0814 77.78C49.5216 77.7475 51.2061 79.0731 52.1922 81.8031H55.305C55.305 81.4714 55.2943 81.1788 55.3079 80.8864C55.2976 80.7426 55.3186 80.5983 55.3693 80.4633C55.4199 80.3283 55.4992 80.2058 55.6015 80.1042C55.7039 80.0027 55.8269 79.9244 55.9623 79.8748C56.0977 79.8251 56.2422 79.8053 56.3859 79.8166C59.0467 79.8045 61.7077 79.8045 64.3688 79.8166C64.5124 79.8062 64.6567 79.8269 64.7916 79.8774C64.9266 79.9278 65.0491 80.0067 65.1507 80.1087C65.2524 80.2108 65.3309 80.3336 65.3808 80.4687C65.4307 80.6038 65.4509 80.7482 65.44 80.8918C65.4536 81.1977 65.4429 81.5051 65.4429 81.8167H67.5456C68.4122 79.2899 70.0388 77.8924 72.2178 77.7829C73.2577 77.7191 74.2922 77.9768 75.1807 78.521C75.7725 78.8882 76.2853 79.3696 76.689 79.9372C77.0927 80.5048 77.3792 81.1471 77.5318 81.8267L80.7233 81.8274ZM43.1102 33.8722C43.3081 34.0064 43.4608 34.1159 43.6208 34.215C56.6558 42.2249 69.6937 50.232 82.7345 58.2364C82.9835 58.3828 83.2661 58.4625 83.5549 58.4679C85.1178 58.4908 86.6803 58.4801 88.2421 58.4772C88.3938 58.4772 88.5455 58.4475 88.8081 58.4203C88.5276 58.2389 88.353 58.1223 88.1755 58.0128L54.3121 37.1765C52.2444 35.9049 50.1821 34.6254 48.1061 33.3684C46.4159 32.3448 44.3643 32.5451 43.1102 33.8722ZM77.6402 70.6241H92.7729V60.541H84.7099V61.1868C84.7099 63.2588 84.7142 65.3305 84.7074 67.4011C84.7045 68.2691 84.3389 68.6254 83.4709 68.6362C82.986 68.6415 82.4998 68.6362 82.015 68.6362H77.6402V70.6241ZM36.9436 70.6688C38.9666 70.6688 40.792 70.5468 42.5918 70.7046C44.1085 70.8388 45.0888 70.3987 45.7511 69.0229C46.0199 68.5558 46.1704 68.0301 46.1898 67.4916C46.164 65.3981 46.1801 63.3053 46.1801 61.2112V60.5177C45.3529 60.5177 44.6148 60.4988 43.8795 60.5217C40.7838 60.6165 37.978 62.7887 37.3318 65.8232C37.0058 67.3689 37.0656 68.9979 36.9436 70.6688ZM82.6816 66.6035C82.6816 64.6657 82.6708 62.828 82.6898 60.9918C82.6941 60.5804 82.522 60.4988 82.1602 60.5031C80.8954 60.5206 79.6281 60.4787 78.3647 60.5249C77.4235 60.5527 76.4976 60.7707 75.6429 61.1659C74.7881 61.561 74.0223 62.1251 73.3913 62.8241C71.2639 65.0761 71.4564 67.8537 71.5687 70.6674H75.5363C75.5552 70.5958 75.5692 70.523 75.5782 70.4495C75.5808 69.6681 75.5826 68.8863 75.5836 68.1041C75.5836 66.8876 75.8612 66.605 77.0595 66.6039L82.6816 66.6035ZM51.204 74.7055V69.6534C50.1273 69.6534 49.0954 69.6373 48.065 69.6684C47.9586 69.6835 47.8562 69.7198 47.764 69.7751C47.6719 69.8304 47.5917 69.9036 47.5283 69.9904C47.0463 70.6567 46.5898 71.3433 46.1483 72.0377C46.0211 72.2566 45.8349 72.4352 45.611 72.5533C45.3871 72.6713 45.1345 72.7241 44.882 72.7054C42.9417 72.6864 40.9996 72.6986 39.0592 72.6986H37.0899V74.7055H51.204ZM50.2318 82.8482C50.2289 82.2462 50.0472 81.6586 49.7097 81.16C49.3723 80.6614 48.8943 80.2743 48.3364 80.0479C47.7786 79.8214 47.166 79.7658 46.5765 79.8882C45.987 80.0105 45.4471 80.3052 45.0254 80.7349C44.6037 81.1646 44.3192 81.7099 44.208 82.3016C44.0968 82.8933 44.1639 83.5047 44.4008 84.0582C44.6377 84.6117 45.0337 85.0824 45.5386 85.4104C46.0434 85.7384 46.6343 85.909 47.2363 85.9006C48.0357 85.8857 48.7974 85.5578 49.3575 84.9872C49.9177 84.4167 50.2316 83.6492 50.2318 82.8497V82.8482ZM72.5716 85.9006C73.1724 85.896 73.7584 85.7136 74.2557 85.3765C74.7531 85.0394 75.1395 84.5627 75.3664 84.0064C75.5933 83.45 75.6505 82.839 75.5307 82.2503C75.411 81.6615 75.1197 81.1213 74.6935 80.6978C74.2673 80.2744 73.7253 79.9865 73.1358 79.8704C72.5463 79.7544 71.9356 79.8154 71.3808 80.0458C70.8259 80.2762 70.3516 80.6657 70.0177 81.1652C69.6837 81.6646 69.5051 82.2517 69.5042 82.8525C69.5046 83.2544 69.5844 83.6522 69.7389 84.0231C69.8934 84.394 70.1196 84.7308 70.4045 85.0141C70.6895 85.2975 71.0276 85.5217 71.3994 85.6741C71.7712 85.8265 72.1694 85.9039 72.5713 85.902L72.5716 85.9006ZM85.7368 79.8138C85.1361 79.8105 84.5479 79.9851 84.0462 80.3155C83.5446 80.6459 83.1519 81.1174 82.9177 81.6706C82.6835 82.2238 82.6183 82.8339 82.7301 83.424C82.842 84.0142 83.1261 84.5581 83.5465 84.9871C83.9669 85.4162 84.5049 85.7113 85.0926 85.8351C85.6804 85.959 86.2917 85.9062 86.8496 85.6833C87.4074 85.4604 87.8868 85.0774 88.2273 84.5826C88.5679 84.0878 88.7544 83.5033 88.7634 82.9026C88.768 82.501 88.6933 82.1023 88.5436 81.7296C88.3939 81.3568 88.172 81.0173 87.8908 80.7304C87.6096 80.4436 87.2746 80.215 86.9049 80.0579C86.5352 79.9008 86.1381 79.8182 85.7364 79.8148L85.7368 79.8138ZM51.2043 67.591V60.5603H48.2414V67.591H51.2043ZM77.6412 74.6898H86.6857V72.7326H77.6412V74.6898ZM57.3828 81.8668V83.844H63.3776V81.8668H57.3828Z" fill="#FFB635"/>
<path d="M48.2012 82.8415C48.2069 82.9728 48.1863 83.1039 48.1407 83.2271C48.0951 83.3504 48.0254 83.4633 47.9356 83.5593C47.8458 83.6552 47.7377 83.7323 47.6178 83.786C47.4978 83.8397 47.3683 83.8689 47.2369 83.8719C47.1002 83.8753 46.9641 83.8513 46.8368 83.8015C46.7094 83.7516 46.5932 83.6768 46.4951 83.5815C46.397 83.4861 46.3189 83.3722 46.2654 83.2463C46.2119 83.1204 46.1841 82.985 46.1836 82.8482C46.1876 82.5839 46.2952 82.3317 46.4832 82.1459C46.6712 81.9601 46.9247 81.8555 47.1891 81.8546C47.4534 81.8537 47.7076 81.9566 47.8968 82.1411C48.0861 82.3257 48.1954 82.5772 48.2012 82.8415Z" fill="#FFB635"/>
<path d="M73.5498 82.8415C73.5553 82.9727 73.5346 83.1037 73.4889 83.2269C73.4432 83.35 73.3734 83.4628 73.2837 83.5588C73.1939 83.6547 73.086 83.7318 72.9661 83.7855C72.8463 83.8393 72.7169 83.8687 72.5856 83.8719C72.4491 83.8753 72.3134 83.8515 72.1863 83.8018C72.0592 83.7522 71.9432 83.6778 71.8451 83.5828C71.7471 83.4879 71.6689 83.3744 71.6152 83.249C71.5615 83.1235 71.5333 82.9887 71.5322 82.8522C71.5356 82.5878 71.6426 82.3352 71.8303 82.1489C72.018 81.9626 72.2713 81.8575 72.5358 81.8561C72.8002 81.8547 73.0546 81.9571 73.2443 82.1414C73.4339 82.3257 73.5437 82.5771 73.5498 82.8415Z" fill="#FFB635"/>
<path d="M85.6967 81.8436C85.8983 81.8372 86.0973 81.891 86.2681 81.9981C86.439 82.1053 86.5741 82.2609 86.6561 82.4451C86.7382 82.6293 86.7635 82.8338 86.7289 83.0325C86.6942 83.2312 86.6012 83.415 86.4616 83.5606C86.322 83.7062 86.1422 83.8069 85.9452 83.8499C85.7481 83.8928 85.5427 83.8761 85.3552 83.8019C85.1677 83.7276 85.0065 83.5992 84.8923 83.433C84.7781 83.2668 84.716 83.0703 84.7139 82.8686C84.7119 82.6034 84.8135 82.3478 84.997 82.1564C85.1806 81.9649 85.4317 81.8527 85.6967 81.8436Z" fill="#FFB635"/>
</svg>
