<svg width="132" height="120" viewBox="0 0 132 120" fill="none" xmlns="http://www.w3.org/2000/svg">
<path d="M22.1662 13.321C32.2641 6.13203 46.9453 5.89126 60.6136 6.17789C74.2818 6.46453 86.9286 7.35728 99.8147 12.6566C112.701 17.9559 125.826 27.6617 127.51 39.3134C129.282 50.8949 119.62 64.3437 111.997 78.093C104.445 91.9295 98.9387 105.988 88.7137 111.411C78.5673 116.842 63.7892 113.568 51.4181 107.926C39.1343 102.214 29.1703 94.2052 21.124 83.9348C13.0776 73.6644 6.9404 61.2114 6.71203 47.8856C6.40494 34.5512 11.9982 20.4226 22.1662 13.321Z" fill="white"/>
<g clip-path="url(#clip0_69_339)">
<path d="M96.613 83.1558C96.5938 83.8068 96.5746 84.4577 96.5555 85.1086C96.5147 85.2198 96.4577 85.3272 96.4332 85.4405C95.8101 88.2801 94.1542 90.2677 91.4812 91.3744C90.7832 91.6627 90.0138 91.7796 89.2762 91.9739C79.8899 91.6904 70.5053 91.4069 61.119 91.1234C60.9688 91.0748 60.8207 91.0134 60.6668 90.981C56.961 90.1899 54.2525 86.8033 54.2957 83.0112C54.3463 78.5303 58.026 74.9555 62.5091 75.034C63.1933 75.0465 63.877 75.0736 64.5707 75.0946C64.5918 74.3802 64.6105 73.7455 64.6307 73.0588C62.9404 73.0078 61.2987 72.9647 59.6575 72.907C57.6304 72.8359 56.3971 71.3246 56.7817 69.3345C57.5435 65.3849 58.3427 61.4414 59.0964 57.4899C59.1561 57.179 59.0723 56.7579 58.8942 56.4968C57.801 54.879 56.6578 53.2971 55.5412 51.6949C53.5645 48.8613 51.0806 46.5923 48.0508 44.9307C47.8503 44.8204 47.6395 44.7261 47.3905 44.6029C47.373 44.8092 47.3587 44.9081 47.3557 45.009C47.157 51.6989 46.9598 58.3905 46.7643 65.0805C46.7596 65.2416 46.7628 65.4078 46.7875 65.5666C47.5377 70.3648 48.3009 75.1618 49.0265 79.9625C49.1179 80.5663 49.361 80.7268 49.9193 80.6948C50.6083 80.6553 51.2522 80.8165 51.7498 81.3543C52.6501 82.3279 52.4996 84.9473 51.49 85.8028C51.4281 85.8547 51.363 85.9065 51.2965 85.9517C50.7291 86.345 50.1711 86.7533 49.5913 87.1267C46.164 89.3262 41.6434 89.0822 38.5936 86.3808C33.9871 82.3016 32.7374 75.0989 36.6949 69.5063C36.8564 69.2799 37.0179 69.0535 37.1862 68.8175C36.5025 67.9043 35.8222 67.0416 35.1918 66.1447C34.2032 64.7369 34.7344 62.9157 36.3246 62.3252C36.7185 62.1791 36.7927 61.9827 36.8001 61.6213C36.831 60.0749 36.8847 58.5292 36.9302 56.9848C37.032 53.5284 37.1356 50.0704 37.2342 46.6138C37.242 46.347 37.3331 46.0777 36.913 45.951C35.7192 45.5908 35.2708 44.9323 35.3054 43.702C35.3597 41.7491 35.4091 39.7977 35.4796 37.8453C35.6535 33.2183 38.9141 29.3165 43.4268 28.3355C43.8812 28.2368 44.3412 28.1676 44.7984 28.0854C45.326 28.1013 45.8552 28.1173 46.3829 28.1332C47.0982 28.5278 47.7469 29.0246 47.7617 29.9046C47.7714 30.4587 48.0098 30.6662 48.4454 30.8749C52.9858 33.0447 57.5177 35.2306 62.0529 37.4134C63.7645 38.2371 64.8809 39.5641 65.3729 41.3999C65.7576 42.8367 65.5308 44.2273 64.9438 45.5631C64.7516 46.002 64.8366 46.3254 65.0541 46.7408C65.6946 47.9606 66.2754 49.2143 66.8397 50.4725C66.9911 50.811 67.1378 50.9767 67.5337 50.9837C69.3207 51.0149 71.1083 51.0836 72.8948 51.1343C73.0495 51.139 73.2035 51.111 73.3636 51.098C73.3848 50.9341 73.3981 50.8123 73.4147 50.6939C73.7773 48.1787 76.3595 46.6132 78.7483 47.4623C80.3936 48.0463 81.4607 49.6112 81.4282 51.4328C81.4057 52.7498 81.3539 54.0659 81.3149 55.3889C82.5249 55.5883 83.1632 56.2722 83.2906 57.4813C83.5267 57.4884 83.7466 57.4951 83.9664 57.5017C85.6323 57.552 87.2966 57.5991 88.9624 57.6543C90.5419 57.7052 91.2813 58.498 91.2409 60.0913C91.2282 60.6317 91.209 61.1735 91.1917 61.7593C91.8708 61.7799 92.4572 61.7911 93.0432 61.8169C94.3666 61.8748 95.1773 62.6811 95.1501 63.9931C95.0956 66.617 95.0167 69.2386 94.9199 71.8612C94.8692 73.1921 94.0388 73.939 92.7049 73.9052C90.9785 73.8629 89.2526 73.8026 87.5265 73.7504C87.3099 73.7439 87.0949 73.7374 86.8523 73.7301C86.8311 74.4494 86.8123 75.0873 86.7923 75.7675C87.5251 75.7896 88.2141 75.8023 88.9027 75.8329C92.4023 75.9874 95.3987 78.4006 96.3025 81.7995C96.423 82.2461 96.5106 82.7032 96.613 83.1558ZM44.742 64.35C44.7628 64.1975 44.7891 64.0794 44.7925 63.9622C44.9895 57.3309 45.1898 50.7013 45.364 44.0693C45.3707 43.8431 45.1922 43.5397 45.0059 43.3907C42.864 41.6826 42.9445 38.4535 45.2116 36.9079C45.5342 36.688 45.6127 36.4591 45.6213 36.1108C45.6621 34.3415 45.7207 32.5712 45.7729 30.8023C45.7787 30.6037 45.7845 30.4068 45.7919 30.1562C43.8544 30.0863 42.1921 30.6338 40.7233 31.7475C38.3844 33.519 37.428 35.9414 37.4588 38.8237C37.463 39.2343 37.5565 39.4912 37.9183 39.7122C39.0774 40.4248 40.2141 41.1742 41.3612 41.9076C42.0282 42.3349 42.3757 42.9334 42.388 43.7335C42.4721 49.2869 42.5578 54.8404 42.6467 60.3955C42.6673 61.6894 42.7008 62.9853 42.7277 64.2875C43.4392 64.3106 44.0792 64.33 44.742 64.35ZM59.753 54.1773C59.8723 53.6157 59.9676 53.2016 60.0451 52.7837C60.3136 51.3618 61.0069 50.7882 62.4337 50.8215C63.2154 50.8403 63.9954 50.8671 64.8649 50.8934C64.7376 50.5686 64.6612 50.3416 64.5616 50.1268C61.1796 42.8255 55.319 39.1026 47.4661 38.2774C46.4278 38.1678 45.6108 38.9022 45.5135 39.9368C45.4122 40.9957 45.7955 41.6506 46.8192 42.0887C51.1747 43.9533 54.6766 46.8524 57.3501 50.7641C58.1032 51.8683 58.8878 52.9524 59.753 54.1773ZM76.8502 71.3887C76.954 71.4081 77.0299 71.4332 77.1063 71.4372C80.1319 71.5318 83.1574 71.6281 86.1834 71.7048C86.3805 71.7092 86.6181 71.6105 86.7767 71.4833C88.7613 69.8982 90.7349 68.3014 92.7053 66.7012C92.8539 66.5802 93.0529 66.412 93.0641 66.2527C93.123 65.4694 93.1266 64.6828 93.1496 63.9033C87.7448 63.7401 82.4166 63.5791 77.0851 63.4181C77.0061 66.0983 76.9285 68.7329 76.8502 71.3887ZM67.6975 85.693C67.5702 85.8635 67.4735 85.9941 67.3768 86.1231C65.6977 88.3462 62.6701 88.8199 60.4341 87.2083C58.2061 85.6018 57.6691 82.5316 59.2206 80.2689C60.7721 78.0061 63.7996 77.4233 66.1287 78.9172C66.383 79.0812 66.7207 79.1826 67.0236 79.1918C73.3415 79.3973 79.6583 79.5832 85.9766 79.7741C86.1737 79.78 86.3707 79.786 86.5791 79.7923C86.5999 79.086 86.6186 78.4513 86.6377 77.8037C86.5112 77.7819 86.4336 77.76 86.3555 77.7577C78.412 77.5161 70.47 77.2273 62.5261 77.0574C58.5419 76.9713 55.7014 80.4443 56.4409 84.2747C56.9897 87.114 59.3696 89.0411 62.4798 89.1383C70.1983 89.3779 77.9189 89.6063 85.6393 89.8379C85.8543 89.8444 86.0698 89.8313 86.2835 89.8264C86.307 89.0273 86.3286 88.2951 86.3531 87.4619C85.45 88.3516 84.4718 88.8041 83.2835 88.7536C82.0675 88.7022 81.1397 88.1057 80.3592 87.214C79.5044 88.1247 78.5188 88.608 77.299 88.5728C76.0662 88.5372 75.1137 87.953 74.3387 87.0387C72.2585 89.2691 68.8434 88.6774 67.6975 85.693ZM41.8991 66.6307C40.9087 67.7181 40.0179 68.688 39.1366 69.6664C36.0751 73.0627 35.4831 77.8856 37.6346 81.9231C38.7759 84.0653 40.3302 85.7459 42.7867 86.3445C43.4033 86.4951 44.0474 86.539 44.768 86.6438C43.807 79.9287 42.8646 73.3574 41.8991 66.6307ZM88.7463 77.8755C88.6277 81.9015 88.5104 85.8803 88.3933 89.8559C91.3978 90.2219 94.3363 87.5173 94.5507 84.2223C94.7683 80.8768 92.0704 77.9043 88.7463 77.8755ZM66.8575 65.0262C66.9374 62.3134 67.0153 59.669 67.0934 57.0213C65.1392 56.9623 63.2389 56.9049 61.2978 56.8463C60.7761 59.5033 60.2568 62.1377 59.7315 64.8109C62.1448 64.8838 64.4881 64.9546 66.8575 65.0262ZM86.5351 81.8383C80.3813 81.6524 74.2616 81.4676 68.1241 81.2822C68.2426 81.9617 68.3527 82.5937 68.4658 83.2372C74.4649 83.4185 80.4673 83.5998 86.4779 83.7813C86.4975 83.1141 86.5159 82.4909 86.5351 81.8383ZM84.7797 73.7098C78.7203 73.5268 72.726 73.3457 66.7187 73.1642C66.6987 73.8445 66.6799 74.4807 66.6612 75.117C72.7043 75.2996 78.7002 75.4807 84.7221 75.6626C84.7416 75.0019 84.76 74.3786 84.7797 73.7098ZM66.6876 71.1241C66.7281 69.749 66.7666 68.4422 66.8053 67.1274C64.2927 67.0514 61.824 66.9769 59.3211 66.9013C59.1182 67.9213 58.9 68.9115 58.7288 69.908C58.6343 70.4606 59.0098 70.8824 59.6187 70.904C61.9551 70.9909 64.2889 71.0516 66.6876 71.1241ZM43.9035 66.4225C44.8555 73.0527 45.7996 79.6224 46.7477 86.2215C48.0862 85.8775 49.0723 85.0457 50.111 84.3116C50.1793 84.2631 50.2219 84.1423 50.2279 84.0512C50.2517 83.6301 50.2576 83.2084 50.2718 82.7284C49.9363 82.7182 49.6578 82.7114 49.3794 82.7014C48.028 82.6524 47.3497 82.0521 47.1353 80.7003C46.5846 77.2094 46.0404 73.7188 45.4913 70.2281C45.2936 68.9712 45.0862 67.714 44.8838 66.4521C44.5434 66.4418 44.265 66.4334 43.9035 66.4225ZM75.2932 53.2085C74.9984 53.1996 74.7786 53.193 74.5571 53.1863C71.8165 53.1035 69.0758 53.0207 66.3368 52.938C65.078 52.8999 63.8195 52.8521 62.5618 52.8353C62.3874 52.8333 62.0903 52.9595 62.0557 53.0839C61.9024 53.6379 61.8219 54.2137 61.7136 54.7936C66.2601 54.9309 70.7367 55.0661 75.2344 55.202C75.254 54.5364 75.2724 53.9131 75.2932 53.2085ZM66.3729 83.187C66.4123 81.5187 65.0907 80.1269 63.4325 80.0915C61.7711 80.056 60.4022 81.3763 60.3609 83.0527C60.3199 84.7226 61.6478 86.1211 63.2996 86.1514C64.966 86.1822 66.3333 84.8635 66.3729 83.187ZM38.8275 62.1793C39.4382 62.1978 40.0147 62.2152 40.666 62.2349C40.5816 56.8573 40.4977 51.5189 40.4129 46.1545C40.0058 46.1422 39.6687 46.132 39.2991 46.1208C39.1428 51.4813 38.9855 56.8173 38.8275 62.1793ZM75.1717 57.2752C73.1476 57.214 71.1918 57.1549 69.2263 57.0956C69.1867 58.4414 69.1482 59.7465 69.1097 61.0532C71.1127 61.1137 73.0684 61.1728 75.0551 61.2328C75.0942 59.9049 75.1323 58.6128 75.1717 57.2752ZM74.9928 63.3467C72.9654 63.2855 71.0097 63.2264 69.049 63.1672C69.0095 64.5097 68.9711 65.8132 68.9327 67.1167C70.9373 67.1772 72.893 67.2363 74.8764 67.2962C74.9156 65.9667 74.9536 64.6762 74.9928 63.3467ZM55.2329 38.152C58.4074 39.5542 61.045 41.5852 63.2852 44.2149C63.9445 42.1956 63.1547 40.2351 61.343 39.3253C59.6051 38.4535 57.8447 37.6299 56.0929 36.7887C56.027 36.7574 55.9455 36.7565 55.8499 36.7374C55.6472 37.2019 55.4548 37.6457 55.2329 38.152ZM77.2792 57.329C77.239 58.6944 77.2005 59.9995 77.1621 61.3013C78.4975 61.3417 79.7855 61.3806 81.1013 61.4203C81.1407 60.0843 81.1791 58.7808 81.2184 57.448C79.8928 57.408 78.6064 57.3691 77.2792 57.329ZM47.7523 32.7694C47.716 34.0012 47.6833 35.1111 47.6516 36.1851C49.575 36.569 51.4562 36.945 53.3893 37.3308C53.5923 36.8565 53.8127 36.3452 54.0472 35.7985C51.9227 34.7749 49.8656 33.786 47.7523 32.7694ZM79.2532 55.3315C79.297 53.8425 79.4035 52.3864 79.3615 50.9355C79.3324 49.9329 78.2583 49.1577 77.2549 49.2479C76.2155 49.342 75.4516 50.1545 75.4596 51.1548C76.9621 51.6057 77.383 52.2015 77.3355 53.8142C77.3213 54.2943 77.3072 54.7727 77.2925 55.2739C77.9862 55.2933 78.6034 55.3119 79.2532 55.3315ZM68.7927 71.1486C70.8233 71.2099 72.7807 71.269 74.7316 71.328C74.7516 70.6494 74.7703 70.0147 74.789 69.3784C72.7795 69.3177 70.8221 69.2586 68.8501 69.199C68.8304 69.8662 68.812 70.4911 68.7927 71.1486ZM89.1537 61.6701C89.1737 60.9931 89.1919 60.3731 89.2105 59.7433C87.201 59.6826 85.2257 59.623 83.2342 59.5628C83.2146 60.2251 83.1964 60.8435 83.1774 61.4896C85.1803 61.5501 87.1426 61.6093 89.1537 61.6701ZM40.8554 64.2717C39.5136 64.2311 38.423 64.1819 37.3329 64.1718C36.7952 64.1669 36.5539 64.5571 36.84 64.9696C37.381 65.7482 37.9702 66.4941 38.5662 67.2874C39.196 66.5995 39.8028 65.9745 40.3587 65.3072C40.5649 65.0594 40.6501 64.7101 40.8554 64.2717ZM89.6334 71.7765C90.8091 71.812 91.8432 71.8432 92.8821 71.8746C92.9093 70.9536 92.9351 70.0764 92.9641 69.0919C91.8405 69.9977 90.7937 70.8408 89.6334 71.7765ZM37.3531 43.9609C38.3708 43.9916 39.3561 44.0214 40.3445 44.0513C40.3012 43.5841 38.5273 42.278 37.4146 41.8747C37.3942 42.5663 37.3741 43.2465 37.3531 43.9609ZM81.9005 85.7409C82.2617 86.4245 82.7804 86.7448 83.4502 86.7455C84.0826 86.7467 84.6086 86.484 84.9571 85.8333C83.9328 85.8023 82.9606 85.773 81.9005 85.7409ZM72.8429 85.4755C71.8447 85.4453 70.8611 85.4156 69.8515 85.3851C70.4774 86.7657 72.3991 86.5989 72.8429 85.4755ZM75.854 85.5615C76.208 86.214 76.6974 86.5317 77.3322 86.5623C77.993 86.592 78.534 86.3217 78.9204 85.6542C77.883 85.6228 76.9141 85.5936 75.854 85.5615Z" fill="#FFB635"/>
<path d="M92.6742 84.8929C92.1123 84.8743 91.6859 84.4104 91.7139 83.8478C91.7412 83.3063 92.1721 82.9024 92.7147 82.909C93.2835 82.9164 93.7219 83.3629 93.7103 83.9211C93.7005 84.4761 93.2377 84.9116 92.6742 84.8929Z" fill="#FFB635"/>
<path d="M64.8685 83.7726C64.8443 84.3157 64.3702 84.7459 63.8198 84.7228C63.2677 84.6996 62.8315 84.2305 62.8541 83.6874C62.8767 83.1394 63.344 82.7188 63.901 82.7405C64.4597 82.7622 64.8927 83.2263 64.8685 83.7726Z" fill="#FFB635"/>
</g>
<defs>
<clipPath id="clip0_69_339">
<rect width="64" height="64" fill="white" transform="translate(34 28)"/>
</clipPath>
</defs>
</svg>
