<svg width="224" height="204" viewBox="0 0 224 204" fill="none" xmlns="http://www.w3.org/2000/svg">
<path d="M37.8971 22.7746C55.1612 10.4838 80.2613 10.0721 103.63 10.5622C126.998 11.0522 148.62 12.5786 170.651 21.6386C192.682 30.6987 215.122 47.2925 218.001 67.2132C221.03 87.0139 204.512 110.007 191.48 133.514C178.567 157.17 169.153 181.205 151.672 190.477C134.325 199.763 109.059 194.165 87.9085 184.519C66.9071 174.754 49.8718 161.061 36.1152 143.501C22.3585 125.942 11.8658 104.652 11.4754 81.8689C10.9504 59.0714 20.513 34.9161 37.8971 22.7746Z" fill="white"/>
<path d="M113 58.0023C113.926 58.5065 114.235 59.2765 114.219 60.3329C114.169 63.8185 114.205 67.3065 114.198 70.7921C114.196 71.9104 113.626 72.6415 112.7 72.7652C111.73 72.8935 110.8 72.1648 110.791 71.1335C110.759 67.3042 110.775 63.4748 110.782 59.6454C110.784 58.825 111.366 58.3987 111.973 58C112.315 58.0023 112.656 58.0023 113 58.0023Z" fill="#FFB635"/>
<path d="M111.971 146.002C111.045 145.498 110.736 144.728 110.752 143.672C110.802 140.186 110.768 136.698 110.772 133.21C110.775 132.122 111.297 131.416 112.186 131.249C113.179 131.063 114.171 131.801 114.18 132.867C114.215 136.696 114.198 140.525 114.189 144.357C114.187 145.175 113.605 145.606 113 146.002C112.656 146.002 112.315 146.002 111.971 146.002Z" fill="#FFB635"/>
<path d="M112.246 126.069C104.589 126.007 97.3982 123.565 90.7478 119.414C83.9966 115.2 78.343 109.789 73.6291 103.38C72.7903 102.241 72.7857 101.75 73.6428 100.604C79.938 92.1916 87.5601 85.3785 97.2951 81.187C107.993 76.5831 118.64 76.8787 129.14 81.8333C138.238 86.1256 145.457 92.6912 151.413 100.723C152.114 101.67 152.148 102.277 151.5 103.15C144.65 112.356 136.286 119.648 125.407 123.718C121.252 125.274 116.937 126.037 112.246 126.069ZM112.223 122.634C117.324 122.616 122.002 121.566 126.477 119.607C135.092 115.835 141.916 109.824 147.721 102.534C148.072 102.094 147.989 101.819 147.682 101.432C142.764 95.2212 137.039 89.9343 130.048 86.1324C119.128 80.1993 108.025 79.7158 96.7841 85.1837C88.942 88.997 82.6399 94.6849 77.2499 101.466C76.8557 101.963 77.0322 102.247 77.3416 102.639C81.6384 108.066 86.5907 112.778 92.4803 116.447C98.5876 120.246 105.158 122.577 112.223 122.634Z" fill="#FFB635"/>
<path d="M79.8327 70.8975C80.4377 71.2458 80.919 71.4085 81.2444 71.727C83.6048 74.0485 85.9446 76.3929 88.2706 78.7487C89.1186 79.6081 89.1529 80.5981 88.4242 81.3314C87.6954 82.0648 86.7054 82.0258 85.8483 81.1756C83.4994 78.845 81.1665 76.496 78.829 74.147C78.2515 73.5673 77.9742 72.8362 78.4211 72.1304C78.7373 71.6331 79.3354 71.3168 79.8327 70.8975Z" fill="#FFB635"/>
<path d="M146.972 72.6942C146.61 73.3199 146.435 73.8263 146.099 74.1724C143.782 76.5397 141.44 78.8794 139.088 81.2101C138.275 82.0167 137.299 82.0511 136.574 81.359C135.825 80.644 135.839 79.6242 136.673 78.7809C139.001 76.4251 141.346 74.0876 143.688 71.7455C144.263 71.1703 144.978 70.8586 145.693 71.2963C146.195 71.6034 146.527 72.1901 146.972 72.6942Z" fill="#FFB635"/>
<path d="M89.1642 125.508C88.7907 126.127 88.6028 126.622 88.2613 126.97C85.9628 129.314 83.639 131.634 81.3107 133.948C80.4605 134.792 79.4636 134.83 78.7348 134.095C78.0061 133.362 78.0496 132.369 78.8975 131.514C81.2075 129.182 83.5336 126.865 85.8505 124.539C86.4486 123.938 87.1819 123.613 87.9267 124.078C88.4217 124.39 88.7357 124.995 89.1642 125.508Z" fill="#FFB635"/>
<path d="M145.145 134.823C144.538 134.477 144.057 134.317 143.729 133.998C141.348 131.656 138.99 129.291 136.643 126.913C135.843 126.101 135.829 125.109 136.538 124.394C137.246 123.679 138.249 123.684 139.052 124.479C141.426 126.828 143.777 129.2 146.135 131.567C146.71 132.144 146.992 132.876 146.55 133.584C146.236 134.081 145.64 134.402 145.145 134.823Z" fill="#FFB635"/>
<path d="M112.427 117.524C102.974 117.443 95.7689 108.937 97.2355 99.541C97.4212 98.3585 98.1682 97.6847 99.1697 97.7993C100.217 97.9185 100.822 98.7297 100.634 99.9993C100.153 103.269 100.799 106.267 102.706 108.962C105.9 113.474 111.65 115.202 116.79 113.227C121.809 111.299 125.047 106.068 124.444 100.859C123.791 95.2005 119.689 90.9174 114.171 90.0993C112.173 89.8037 110.248 90.0718 108.348 90.6883C107.232 91.0503 106.333 90.686 105.99 89.7785C105.614 88.7862 106.095 87.8443 107.257 87.4455C111.783 85.8941 116.158 86.2653 120.299 88.6762C125.858 91.9166 128.828 98.386 127.703 104.631C126.53 111.139 121.518 116.158 115.067 117.251C114.196 117.4 113.307 117.437 112.427 117.524Z" fill="#FFB635"/>
<path d="M112.427 108.875C108.655 108.85 105.593 105.719 105.628 101.922C105.662 98.1453 108.795 95.0883 112.588 95.1318C116.325 95.1753 119.359 98.2783 119.346 102.041C119.33 105.822 116.213 108.9 112.427 108.875ZM112.487 105.437C114.368 105.435 115.913 103.884 115.913 101.998C115.91 100.109 114.366 98.5647 112.482 98.567C110.596 98.5693 109.056 100.114 109.058 102.005C109.058 103.893 110.605 105.44 112.487 105.437Z" fill="#FFB635"/>
<path d="M102.167 91.6967C103.114 91.683 103.911 92.4805 103.9 93.4269C103.888 94.3413 103.127 95.1067 102.215 95.1205C101.269 95.1342 100.474 94.339 100.483 93.3902C100.494 92.4736 101.255 91.7082 102.167 91.6967Z" fill="#FFB635"/>
</svg>
