<svg width="191" height="198" viewBox="0 0 191 198" fill="none" xmlns="http://www.w3.org/2000/svg">
<path d="M32.3147 22.1455C47.0357 10.1942 68.4385 9.7939 88.3646 10.2704C108.291 10.7469 126.728 12.2311 145.513 21.041C164.299 29.8509 183.434 45.9865 185.889 65.3571C188.471 84.611 174.387 106.969 163.274 129.827C152.263 152.83 144.236 176.201 129.33 185.217C114.538 194.246 92.9942 188.803 74.9592 179.424C57.0514 169.928 42.5255 156.613 30.7953 139.539C19.065 122.464 10.118 101.762 9.78504 79.6081C9.33736 57.4401 17.4914 33.9518 32.3147 22.1455Z" fill="white"/>
<path d="M97.0197 69.6084C97.0197 72.5028 97.0266 75.3949 97.0174 78.2892C97.0128 79.6917 96.4972 80.2005 95.1016 80.2257C85.8524 80.3999 78.2441 87.4284 77.2999 96.6684C76.3145 106.312 82.4974 114.777 91.9345 116.709C101.621 118.689 111.737 111.844 113.517 102.084C113.712 101.018 113.792 99.9272 113.875 98.8455C113.964 97.6653 114.464 97.1107 115.653 97.1084C121.515 97.0947 127.375 97.097 133.237 97.1084C134.358 97.1107 135.013 97.7134 135.018 98.6553C135.022 99.6155 134.385 100.179 133.251 100.184C131.479 100.193 129.706 100.207 127.934 100.177C127.151 100.165 126.804 100.473 126.738 101.27C125.606 114.649 116.238 125.83 103.281 129.293C101.786 129.691 100.796 128.979 100.991 127.643C101.119 126.776 101.777 126.515 102.494 126.329C105.112 125.653 107.593 124.645 109.89 123.217C117.819 118.29 122.368 111.163 123.621 101.912C123.66 101.628 123.66 101.341 123.683 101.055C123.734 100.447 123.466 100.136 122.849 100.136C121.133 100.138 119.418 100.138 117.702 100.136C116.98 100.136 116.84 100.596 116.753 101.201C115.676 108.624 111.872 114.158 105.272 117.722C103.038 118.927 100.638 119.661 98.1128 119.931C97.281 120.02 97.0037 120.38 97.0082 121.203C97.0357 126.073 97.022 130.945 97.022 135.815C97.022 136.044 97.0289 136.273 97.0197 136.502C96.983 137.575 96.4147 138.232 95.5232 138.237C94.6318 138.244 94.0245 137.582 94.0107 136.52C93.9901 134.916 94.0062 133.312 94.0039 131.708C94.0039 130.354 93.926 130.257 92.583 130.118C85.8662 129.414 79.9697 126.813 74.9212 122.335C70.0055 117.976 66.8041 112.561 65.2182 106.183C64.9593 105.141 65.3512 104.332 66.1991 104.116C67.118 103.88 67.817 104.362 68.108 105.466C70.473 114.438 75.8332 120.898 84.2482 124.787C87.0212 126.068 89.9568 126.767 92.9864 127.102C93.6853 127.177 94.0062 126.873 94.0039 126.187C94.0039 124.439 93.9901 122.693 94.0107 120.944C94.0199 120.158 93.5364 120.034 92.913 119.933C84.0076 118.497 78.0126 113.551 75.1091 104.962C74.708 103.779 74.488 102.519 74.3162 101.279C74.1924 100.39 73.7845 100.147 72.9549 100.152C67.9224 100.175 62.8922 100.165 57.8597 100.161C56.856 100.161 56.2464 99.7736 56.0585 99.0403C55.7835 97.977 56.503 97.097 57.7062 97.0809C59.3928 97.058 61.0795 97.074 62.7662 97.074C64.2214 97.074 64.297 97.0122 64.4207 95.5524C64.886 90.0432 66.6757 84.9947 69.781 80.4365C74.0824 74.123 79.9353 69.9086 87.2343 67.7086C88.2885 67.3901 89.0355 67.6995 89.3793 68.5428C89.6772 69.2715 89.3999 70.0576 88.6872 70.4495C88.4649 70.5709 88.2151 70.6488 87.9699 70.729C76.4382 74.4599 69.6985 82.3524 67.5993 94.2759C67.5007 94.8397 67.4824 95.4149 67.4091 95.9832C67.3105 96.744 67.6016 97.113 68.3991 97.1038C69.9712 97.0832 71.5432 97.0809 73.1153 97.1061C73.867 97.1176 74.1626 96.7922 74.2635 96.052C75.1939 89.2297 78.5626 83.9497 84.3743 80.2761C86.9937 78.6215 89.872 77.6247 92.9589 77.2924C93.7495 77.2076 94.0199 76.8478 94.0153 76.064C93.9924 71.0797 94.0016 66.093 94.0085 61.1086C94.0085 60.7397 94.0222 60.357 94.1253 60.0086C94.327 59.3211 94.8495 58.9888 95.5485 59.0003C96.2107 59.0117 96.7012 59.3463 96.8937 59.9972C96.9899 60.3203 97.0105 60.6732 97.0128 61.0124C97.022 63.877 97.0197 66.7438 97.0197 69.6084Z" fill="#FFB635"/>
<path d="M113.565 87.1397C112.536 87.1397 111.508 87.1672 110.481 87.1305C109.798 87.1053 109.298 87.3528 108.822 87.8363C104.91 91.8124 100.98 95.7701 97.054 99.7324C96.8523 99.9363 96.6598 100.149 96.4329 100.321C95.7752 100.821 94.9617 100.757 94.414 100.184C93.8846 99.6315 93.8365 98.8638 94.3063 98.2244C94.4415 98.0411 94.6088 97.883 94.7692 97.7203C98.7933 93.6526 102.811 89.5803 106.849 85.5286C107.286 85.0909 107.495 84.6601 107.486 84.0299C107.449 81.9697 107.488 79.9072 107.463 77.8447C107.454 77.1365 107.683 76.5911 108.185 76.0915C111.613 72.6838 115.025 69.2601 118.438 65.834C118.978 65.2909 119.554 64.9242 120.342 65.2565C121.119 65.5842 121.295 66.2328 121.286 67.0097C121.265 68.6986 121.275 70.3876 121.281 72.0788C121.286 73.0482 121.538 73.3003 122.501 73.3049C124.187 73.314 125.872 73.3209 127.558 73.3026C128.342 73.2934 128.991 73.4974 129.286 74.2811C129.575 75.0511 129.234 75.608 128.665 76.1672C125.26 79.5176 121.877 82.8886 118.518 86.2849C117.904 86.9036 117.262 87.1969 116.396 87.1488C115.454 87.0984 114.507 87.1397 113.565 87.1397ZM113.611 84.1147C114.326 84.1147 115.041 84.1399 115.754 84.1032C116.045 84.0872 116.412 84.0184 116.604 83.8305C118.66 81.8024 120.697 79.7559 122.709 77.6865C122.911 77.4803 123.087 77.0128 122.989 76.8088C122.863 76.5522 122.45 76.3207 122.141 76.2909C121.378 76.2176 120.601 76.2817 119.829 76.2611C118.774 76.2336 118.19 75.6492 118.16 74.6019C118.142 73.9442 118.211 73.2797 118.135 72.6288C118.091 72.2461 117.933 71.7007 117.665 71.5724C117.415 71.4532 116.849 71.6892 116.593 71.9413C114.663 73.8526 112.763 75.7936 110.886 77.7576C110.639 78.0165 110.458 78.4451 110.444 78.8003C110.394 80.2303 110.442 81.6626 110.417 83.0926C110.403 83.8465 110.779 84.1192 111.466 84.1147C112.184 84.1124 112.899 84.1147 113.611 84.1147Z" fill="#FFB635"/>
<path d="M95.4683 111.493C88.7789 111.342 83.1712 106.034 82.8298 99.4183C82.4768 92.5983 87.3535 86.7981 94.0864 86.0327C94.4829 85.9869 94.8816 85.9319 95.2804 85.9319C96.2062 85.9365 96.8525 86.53 96.8868 87.3688C96.9189 88.1777 96.3712 88.8033 95.4912 88.9363C94.6479 89.0646 93.7771 89.0898 92.9589 89.3075C88.2954 90.545 85.2704 95.1467 85.9373 99.9156C86.6202 104.799 90.8071 108.383 95.6975 108.273C100.948 108.154 104.722 104.371 105.112 98.834C105.19 97.7111 105.623 97.1381 106.461 97.0396C107.495 96.9204 108.203 97.624 108.201 98.7629C108.187 104.256 104.436 109.291 99.1556 110.803C97.9571 111.147 96.6989 111.269 95.4683 111.493Z" fill="#FFB635"/>
<path d="M113.611 84.1146C112.896 84.1146 112.184 84.1101 111.469 84.1146C110.781 84.1192 110.405 83.8442 110.419 83.0926C110.444 81.6626 110.396 80.2303 110.447 78.8003C110.458 78.4428 110.641 78.0165 110.889 77.7576C112.766 75.7936 114.666 73.8526 116.595 71.9413C116.852 71.6892 117.418 71.4532 117.668 71.5723C117.936 71.7007 118.094 72.2461 118.137 72.6288C118.211 73.2796 118.144 73.9442 118.163 74.6019C118.192 75.6492 118.777 76.2336 119.831 76.2611C120.601 76.2817 121.378 76.2176 122.143 76.2909C122.453 76.3207 122.863 76.5521 122.991 76.8088C123.092 77.0128 122.913 77.4803 122.712 77.6865C120.697 79.7559 118.662 81.8046 116.607 83.8305C116.416 84.0184 116.047 84.0871 115.756 84.1032C115.041 84.1421 114.326 84.1146 113.611 84.1146Z" fill="white"/>
</svg>
