<svg width="264" height="500" viewBox="0 0 264 500" fill="none" xmlns="http://www.w3.org/2000/svg">
<path d="M45.6939 196.463C45.8119 196.449 45.9309 196.435 46.0499 196.419C46.1199 196.41 46.1899 196.399 46.2599 196.389C46.3299 196.379 46.3989 196.369 46.4679 196.358C46.5859 196.34 46.7039 196.319 46.8219 196.299L46.8849 196.288C46.9169 196.282 46.9489 196.277 46.9849 196.271C47.2795 196.216 47.5715 196.154 47.8609 196.085C47.9669 196.06 48.0729 196.033 48.1789 196.005L51.2059 200.673L54.6569 199.188L53.3479 193.781C53.7192 193.547 54.0829 193.3 54.4389 193.039L54.4899 193.001C54.5899 192.929 54.6819 192.858 54.7769 192.784C54.8319 192.742 54.8869 192.698 54.9419 192.654C54.9969 192.61 55.0529 192.567 55.1079 192.523C55.2019 192.447 55.2939 192.37 55.3859 192.293L55.4329 192.253C55.7709 191.968 56.0962 191.671 56.4089 191.364L61.3639 193.893L63.6099 190.881L59.7729 186.853C59.9782 186.465 60.1695 186.069 60.3469 185.665L60.3719 185.607C60.4199 185.497 60.4719 185.387 60.5129 185.276L60.5909 185.076L60.6689 184.876C60.7119 184.764 60.7529 184.651 60.7939 184.539L60.8159 184.479C60.9652 184.063 61.0985 183.644 61.2159 183.222L66.7719 182.934L67.2109 179.203L61.8739 177.633C61.8579 177.194 61.8245 176.755 61.7739 176.316L61.7669 176.255L61.7329 175.967L61.7229 175.897L61.6929 175.687L61.6619 175.479C61.6432 175.361 61.6232 175.243 61.6019 175.125L61.5929 175.075V175.062C61.5135 174.628 61.4195 174.198 61.3109 173.773L65.9779 170.747L64.4929 167.295L59.0859 168.604C59.0279 168.512 58.9699 168.419 58.9099 168.328C58.7465 168.079 58.5772 167.833 58.4019 167.591L58.3439 167.513L58.3369 167.503L58.3059 167.463C58.2352 167.366 58.1632 167.27 58.0899 167.175L57.9599 167.01C57.9159 166.955 57.8729 166.899 57.8279 166.844L57.7839 166.789C57.7229 166.714 57.6609 166.64 57.5989 166.567L57.5589 166.518C57.2729 166.181 56.9765 165.856 56.6699 165.543L59.1979 160.588L56.1859 158.342L52.1579 162.179C51.7705 161.974 51.3745 161.782 50.9699 161.605L50.9099 161.579C50.8009 161.532 50.6919 161.485 50.5809 161.44C50.5159 161.412 50.4489 161.387 50.3809 161.36L50.1809 161.284C50.0689 161.24 49.9559 161.198 49.8419 161.157L49.7849 161.136C49.3689 160.987 48.9495 160.854 48.5269 160.736L48.2389 155.18L44.5079 154.741L42.9379 160.078C42.4999 160.094 42.0612 160.127 41.6219 160.178L41.5599 160.186C41.4409 160.199 41.3219 160.213 41.2029 160.229L40.9929 160.259C40.9229 160.27 40.8539 160.279 40.7849 160.29C40.6659 160.309 40.5479 160.329 40.4299 160.35L40.3679 160.361C39.9332 160.44 39.5035 160.534 39.0789 160.643L36.0519 155.976L32.6009 157.461L33.9099 162.868C33.5389 163.101 33.1739 163.348 32.8189 163.61L32.7679 163.648C32.6679 163.719 32.5759 163.791 32.4809 163.864C32.4249 163.907 32.3699 163.951 32.3149 163.994L32.1489 164.126C32.0559 164.201 31.9639 164.278 31.8719 164.355L31.8239 164.395C31.4872 164.681 31.1619 164.977 30.8479 165.284L25.8929 162.756L23.6469 165.768L27.4839 169.796C27.2792 170.183 27.0879 170.579 26.9099 170.984L26.8859 171.04C26.8379 171.151 26.7859 171.262 26.7449 171.374C26.7179 171.438 26.6929 171.503 26.6669 171.568C26.6409 171.633 26.6139 171.699 26.5889 171.768C26.5459 171.88 26.5039 171.992 26.4639 172.104L26.4409 172.165C26.2919 172.58 26.1589 173 26.0409 173.422L20.4859 173.71L20.0469 177.441L25.3829 179.011C25.3995 179.449 25.4329 179.888 25.4829 180.327L25.4899 180.39C25.5009 180.49 25.5109 180.581 25.5239 180.677L25.5339 180.746C25.5429 180.817 25.5539 180.886 25.5639 180.957L25.5949 181.164C25.6129 181.283 25.6339 181.401 25.6549 181.519L25.6629 181.569V181.581C25.7422 182.016 25.8365 182.445 25.9459 182.87L21.2779 185.897L22.7629 189.348L28.1699 188.039C28.4039 188.411 28.6515 188.775 28.9129 189.131L28.9199 189.141L28.9489 189.179C29.0209 189.279 29.0929 189.373 29.1669 189.469C29.2089 189.524 29.2519 189.578 29.2949 189.632C29.3379 189.686 29.3839 189.745 29.4289 189.8L29.4719 189.855L29.6559 190.076L29.6979 190.126C29.9825 190.463 30.2789 190.788 30.5869 191.101L28.0579 196.056L31.0699 198.302L35.0979 194.465C35.4859 194.67 35.8819 194.862 36.2859 195.039L36.3439 195.064C36.4539 195.111 36.5649 195.164 36.6759 195.204L36.6959 195.213L36.7139 195.221C36.7659 195.242 36.8139 195.262 36.8709 195.283C36.9279 195.304 37.0019 195.335 37.0709 195.36C37.1839 195.403 37.2959 195.445 37.4089 195.486L37.4679 195.508C37.8839 195.657 38.3029 195.79 38.7249 195.908L39.0129 201.463L42.7449 201.902L44.3139 196.566C44.7519 196.549 45.1905 196.515 45.6299 196.466L45.6939 196.463ZM30.0599 184.493C30.0169 184.398 29.9769 184.302 29.9359 184.206C29.8949 184.11 29.8599 184.032 29.8239 183.943L29.7959 183.875C28.9205 181.68 28.5752 179.31 28.7879 176.956L28.7949 176.883C28.8049 176.783 28.8189 176.675 28.8309 176.571C28.8429 176.467 28.8519 176.382 28.8649 176.289L28.8749 176.216C29.2139 173.876 30.1003 171.649 31.4619 169.716L31.5039 169.657C31.5649 169.572 31.6279 169.489 31.6909 169.406C31.7539 169.323 31.8029 169.252 31.8619 169.177L31.9069 169.119C33.3703 167.263 35.2509 165.779 37.3959 164.786L37.4619 164.756C37.5619 164.712 37.6559 164.672 37.7529 164.63C37.8499 164.588 37.9249 164.555 38.0119 164.519L38.0789 164.492C40.275 163.616 42.647 163.27 45.0019 163.484L45.0699 163.49C45.1699 163.501 45.2789 163.514 45.3839 163.527C45.4889 163.54 45.5739 163.548 45.6689 163.561L45.7359 163.57C48.0761 163.909 50.3032 164.796 52.2359 166.159L52.2939 166.2C52.3709 166.256 52.4469 166.314 52.5229 166.371C52.5989 166.428 52.6919 166.495 52.7749 166.559L52.8309 166.603C54.6874 168.066 56.1723 169.947 57.1649 172.093L57.1939 172.158C57.2339 172.247 57.2719 172.337 57.3099 172.427C57.3479 172.517 57.3929 172.615 57.4319 172.71L57.4579 172.775C58.3341 174.97 58.6795 177.342 58.4659 179.696L58.4599 179.768C58.4499 179.868 58.4369 179.968 58.4249 180.062C58.4129 180.156 58.4029 180.262 58.3889 180.362L58.3789 180.433C58.0399 182.773 57.1532 185 55.7909 186.933L55.7499 186.991C55.6929 187.071 55.6339 187.148 55.5749 187.226C55.5159 187.304 55.4539 187.391 55.3909 187.472L55.3469 187.529C53.8831 189.385 52.0021 190.869 49.8569 191.862L49.7919 191.892C49.7049 191.931 49.6179 191.967 49.5309 192.005C49.4439 192.043 49.3379 192.09 49.2399 192.129L49.1739 192.156C46.9792 193.031 44.609 193.377 42.2559 193.164L42.1789 193.157C42.0849 193.147 41.9899 193.135 41.8949 193.124C41.7999 193.113 41.6899 193.101 41.5879 193.087L41.5129 193.076C39.1748 192.737 36.9498 191.851 35.0189 190.49L34.9599 190.448C34.8729 190.386 34.7899 190.322 34.7049 190.259C34.6199 190.196 34.5539 190.148 34.4789 190.09L34.4219 190.045C32.5657 188.582 31.0811 186.701 30.0889 184.556L30.0599 184.493Z" stroke="#B7DEFF" stroke-width="0.42" stroke-miterlimit="10"/>
<path d="M206.959 97.49C207.078 97.476 207.197 97.462 207.315 97.446C207.386 97.437 207.456 97.426 207.526 97.416C207.596 97.406 207.664 97.396 207.733 97.385C207.852 97.367 207.97 97.347 208.088 97.326L208.15 97.315C208.182 97.309 208.214 97.304 208.25 97.298C208.544 97.2433 208.836 97.1813 209.126 97.112C209.232 97.087 209.338 97.06 209.443 97.033L212.47 101.7L215.921 100.215L214.613 94.808C214.985 94.5753 215.348 94.328 215.704 94.066L215.754 94.028C215.854 93.957 215.946 93.885 216.041 93.811C216.097 93.769 216.152 93.725 216.207 93.682L216.373 93.55C216.467 93.474 216.559 93.397 216.651 93.32L216.698 93.281C217.036 92.995 217.361 92.6983 217.674 92.391L222.629 94.92L224.875 91.908L221.038 87.88C221.244 87.4927 221.435 87.0966 221.612 86.692L221.637 86.634C221.684 86.524 221.737 86.414 221.777 86.303L221.856 86.103L221.933 85.903C221.977 85.791 222.018 85.678 222.059 85.566L222.081 85.506C222.23 85.091 222.363 84.671 222.481 84.249L228.036 83.961L228.476 80.23L223.139 78.66C223.123 78.222 223.089 77.783 223.039 77.343L223.032 77.282C223.021 77.182 223.011 77.09 222.998 76.994L222.988 76.925C222.979 76.854 222.968 76.784 222.958 76.714L222.928 76.506C222.91 76.388 222.89 76.27 222.868 76.152L222.859 76.102V76.09C222.78 75.6553 222.686 75.2256 222.577 74.801L227.244 71.774L225.759 68.322L220.352 69.631C220.294 69.539 220.236 69.447 220.176 69.355C220.014 69.1063 219.844 68.8606 219.668 68.618L219.61 68.54L219.602 68.53L219.572 68.49C219.501 68.39 219.429 68.297 219.355 68.202C219.313 68.147 219.269 68.092 219.226 68.037L219.094 67.871L219.05 67.816C218.989 67.741 218.927 67.668 218.865 67.594L218.824 67.545C218.539 67.2083 218.243 66.8833 217.935 66.57L220.464 61.615L217.448 59.373L213.42 63.21C213.034 63.0046 212.638 62.8133 212.232 62.636L212.172 62.61C212.063 62.563 211.953 62.516 211.843 62.471L211.643 62.391C211.579 62.366 211.514 62.34 211.449 62.315C211.336 62.271 211.223 62.229 211.11 62.188L211.053 62.167C210.637 62.0183 210.218 61.885 209.795 61.767L209.507 56.211L205.776 55.772L204.206 61.109C203.768 61.1263 203.329 61.1597 202.889 61.209L202.828 61.217C202.709 61.23 202.59 61.245 202.471 61.261C202.4 61.2703 202.33 61.2803 202.261 61.291C202.191 61.301 202.122 61.31 202.052 61.321C201.934 61.3403 201.816 61.3603 201.698 61.381L201.636 61.392C201.202 61.4706 200.772 61.5647 200.347 61.674L197.32 57.007L193.868 58.492L195.177 63.899C194.806 64.1323 194.442 64.3797 194.086 64.641L194.035 64.679C193.935 64.75 193.843 64.822 193.748 64.895L193.583 65.025L193.417 65.157C193.324 65.233 193.231 65.309 193.14 65.386L193.092 65.426C192.754 65.712 192.429 66.0083 192.116 66.315L187.161 63.787L184.915 66.799L188.752 70.827C188.552 71.214 188.352 71.611 188.178 72.015L188.154 72.071C188.106 72.182 188.054 72.293 188.012 72.405L187.934 72.599L187.856 72.799C187.813 72.911 187.772 73.023 187.731 73.135L187.709 73.196C187.561 73.612 187.427 74.031 187.309 74.453L181.753 74.741L181.314 78.472L186.651 80.042C186.668 80.48 186.701 80.9186 186.751 81.358L186.759 81.421C186.77 81.516 186.78 81.612 186.793 81.708L186.803 81.777C186.812 81.848 186.822 81.918 186.833 81.988L186.863 82.195C186.882 82.314 186.902 82.432 186.923 82.55L186.932 82.6V82.612C187.012 83.0467 187.106 83.4763 187.214 83.901L182.547 86.928L184.033 90.373L189.441 89.073C189.675 89.4443 189.922 89.808 190.184 90.164L190.19 90.174L190.22 90.212C190.291 90.312 190.364 90.406 190.438 90.502C190.48 90.557 190.523 90.611 190.566 90.665C190.609 90.719 190.654 90.778 190.7 90.834L190.743 90.888C190.803 90.962 190.865 91.035 190.927 91.109L190.969 91.159C191.255 91.4963 191.551 91.8213 191.857 92.134L189.329 97.089L192.341 99.335L196.369 95.498C196.756 95.703 197.153 95.898 197.557 96.072L197.615 96.097C197.725 96.144 197.835 96.197 197.946 96.237L197.966 96.246L197.985 96.254C198.037 96.275 198.09 96.295 198.142 96.316C198.194 96.337 198.273 96.368 198.342 96.393C198.454 96.437 198.567 96.478 198.679 96.519L198.739 96.541C199.154 96.69 199.574 96.823 199.996 96.941L200.284 102.496L204.015 102.936L205.585 97.599C206.023 97.5823 206.462 97.549 206.901 97.499L206.959 97.49ZM191.326 85.52C191.283 85.425 191.243 85.329 191.202 85.234C191.161 85.139 191.125 85.059 191.089 84.97L191.062 84.902C190.187 82.707 189.842 80.3365 190.054 77.983L190.061 77.91C190.071 77.81 190.085 77.702 190.097 77.598C190.109 77.494 190.118 77.41 190.131 77.316L190.141 77.243C190.48 74.9029 191.366 72.6758 192.728 70.743L192.77 70.684C192.831 70.599 192.894 70.517 192.956 70.433C193.018 70.349 193.069 70.28 193.128 70.204L193.173 70.146C194.637 68.2901 196.518 66.8056 198.662 65.813L198.727 65.783C198.827 65.74 198.922 65.699 199.019 65.657C199.116 65.615 199.191 65.582 199.277 65.546L199.345 65.519C201.542 64.6431 203.914 64.2978 206.268 64.511L206.335 64.517C206.441 64.528 206.545 64.541 206.65 64.554C206.755 64.567 206.84 64.575 206.935 64.588L207.002 64.597C209.343 64.9369 211.57 65.8239 213.502 67.186L213.559 67.227C213.637 67.283 213.712 67.341 213.789 67.398C213.866 67.455 213.958 67.522 214.041 67.586L214.096 67.63C215.954 69.0934 217.439 70.9748 218.43 73.121L218.46 73.185C218.5 73.274 218.538 73.364 218.576 73.454C218.614 73.544 218.659 73.642 218.698 73.737L218.724 73.802C219.6 75.998 219.945 78.3695 219.732 80.724L219.725 80.795C219.715 80.895 219.703 80.995 219.691 81.089C219.679 81.183 219.669 81.289 219.655 81.389L219.645 81.46C219.307 83.8002 218.42 86.0273 217.057 87.96L217.016 88.018C216.959 88.098 216.9 88.175 216.841 88.253C216.782 88.331 216.72 88.418 216.657 88.499L216.613 88.556C215.15 90.4122 213.268 91.8968 211.122 92.889L211.058 92.919C210.971 92.958 210.883 92.995 210.796 93.032C210.709 93.069 210.604 93.117 210.506 93.157L210.44 93.183C208.245 94.0583 205.875 94.4037 203.521 94.191L203.445 94.184C203.345 94.175 203.256 94.162 203.161 94.151C203.066 94.14 202.961 94.128 202.854 94.114L202.778 94.103C200.441 93.764 198.216 92.878 196.285 91.517L196.225 91.475C196.139 91.414 196.055 91.349 195.971 91.286C195.887 91.223 195.819 91.175 195.745 91.117L195.688 91.072C193.832 89.6088 192.347 87.7282 191.354 85.583L191.326 85.52Z" stroke="#B7DEFF" stroke-width="0.42" stroke-miterlimit="10"/>
<path d="M84.2074 62.038C84.0454 62.056 83.8834 62.075 83.7214 62.097C83.6214 62.11 83.5304 62.124 83.4354 62.138C83.3404 62.152 83.2464 62.165 83.1524 62.18C82.9904 62.205 82.8294 62.233 82.6684 62.262C82.6404 62.267 82.6124 62.271 82.5834 62.276C82.5544 62.281 82.4964 62.291 82.4534 62.299C82.0534 62.3737 81.6558 62.458 81.2604 62.552C81.1154 62.587 80.9714 62.624 80.8274 62.661L76.7024 56.301L72.0024 58.325L73.7864 65.693C73.2804 66.0103 72.7848 66.3473 72.2994 66.704L72.2304 66.756C72.0994 66.856 71.9684 66.95 71.8394 67.05L71.6134 67.227C71.5384 67.287 71.4624 67.346 71.3874 67.407C71.2594 67.507 71.1344 67.614 71.0094 67.72L70.9444 67.774C70.4844 68.1627 70.0414 68.5663 69.6154 68.985L62.8624 65.54L59.8014 69.64L65.0304 75.129C64.7518 75.657 64.4911 76.1967 64.2484 76.748L64.2144 76.827C64.1494 76.977 64.0854 77.127 64.0224 77.279L63.9154 77.545C63.8804 77.634 63.8444 77.723 63.8154 77.813C63.7564 77.965 63.6994 78.119 63.6444 78.272L63.6144 78.353C63.4144 78.919 63.2328 79.49 63.0694 80.066L55.4984 80.458L54.8984 85.543L62.1704 87.683C62.1931 88.283 62.2374 88.8807 62.3034 89.476L62.3134 89.56C62.3284 89.691 62.3424 89.822 62.3594 89.952L62.3724 90.047C62.3854 90.147 62.4004 90.238 62.4144 90.333L62.4554 90.617C62.4814 90.778 62.5084 90.939 62.5374 91.1L62.5484 91.168V91.185C62.6558 91.777 62.7838 92.3623 62.9324 92.941L56.5724 97.066L58.5964 101.766L65.9644 99.983C66.0434 100.108 66.1224 100.234 66.2044 100.359C66.4264 100.698 66.6571 101.031 66.8964 101.359L66.9754 101.465L66.9854 101.479L67.0274 101.534C67.1248 101.667 67.2231 101.798 67.3224 101.926L67.4994 102.151L67.6794 102.378L67.7384 102.453C67.8214 102.553 67.9064 102.653 67.9904 102.753L68.0454 102.819C68.4341 103.278 68.8381 103.721 69.2574 104.148L65.8114 110.9L69.9114 113.961L75.4004 108.732C75.9284 109.011 76.4681 109.271 77.0194 109.514L77.1014 109.549C77.2508 109.616 77.4001 109.679 77.5494 109.74C77.6394 109.777 77.7294 109.812 77.8194 109.848C77.9094 109.884 77.9954 109.918 78.0834 109.948C78.2374 110.008 78.3914 110.065 78.5464 110.121C78.5724 110.13 78.5984 110.14 78.6244 110.149C79.1904 110.353 79.7618 110.535 80.3384 110.695L80.7304 118.265L85.8154 118.865L87.9544 111.592C88.5544 111.57 89.1524 111.526 89.7484 111.46L89.8324 111.45C89.9944 111.431 90.1564 111.412 90.3184 111.39C90.4184 111.377 90.5094 111.363 90.6054 111.349C90.7014 111.335 90.7944 111.322 90.8884 111.307C91.0504 111.282 91.2114 111.254 91.3714 111.225C91.4004 111.22 91.4284 111.216 91.4564 111.211C92.0498 111.103 92.6354 110.975 93.2134 110.826L97.3384 117.186L102.038 115.162L100.254 107.794C100.76 107.477 101.256 107.14 101.741 106.783L101.81 106.731C101.941 106.631 102.072 106.537 102.201 106.437L102.426 106.26C102.502 106.2 102.578 106.141 102.653 106.08C102.78 105.977 102.906 105.873 103.031 105.768L103.096 105.713C103.556 105.324 103.999 104.92 104.425 104.502L111.178 107.947L114.238 103.847L109.015 98.373C109.294 97.845 109.555 97.305 109.797 96.753L109.83 96.677C109.895 96.526 109.96 96.377 110.023 96.223L110.129 95.958L110.235 95.689C110.294 95.537 110.35 95.389 110.406 95.231L110.436 95.149C110.636 94.5817 110.818 94.0106 110.981 93.436L118.552 93.044L119.152 87.959L111.879 85.819C111.857 85.219 111.813 84.6213 111.747 84.026L111.737 83.941C111.722 83.81 111.708 83.68 111.691 83.55L111.677 83.45L111.636 83.163L111.594 82.88C111.569 82.719 111.541 82.558 111.513 82.397L111.501 82.329V82.312C111.395 81.72 111.267 81.1346 111.117 80.556L117.477 76.431L115.453 71.731L108.085 73.514C107.767 73.008 107.43 72.5123 107.073 72.027L107.064 72.014L107.024 71.961C106.924 71.829 106.824 71.697 106.724 71.567C106.666 71.492 106.607 71.419 106.549 71.345L106.367 71.115L106.308 71.04C106.225 70.94 106.141 70.84 106.057 70.74L106 70.672C105.611 70.212 105.207 69.769 104.789 69.343L108.235 62.591L104.13 59.53L98.6414 64.759C98.1134 64.479 97.5738 64.2183 97.0224 63.977C96.9964 63.965 96.9694 63.954 96.9434 63.943C96.7934 63.878 96.6434 63.813 96.4924 63.751L96.4644 63.739L96.4394 63.729C96.3684 63.7 96.2964 63.673 96.2254 63.644L95.9584 63.538C95.8058 63.48 95.6524 63.423 95.4984 63.367L95.4184 63.338C94.8511 63.134 94.2798 62.952 93.7044 62.792L93.3124 55.222L88.2274 54.622L86.0884 61.895C85.4884 61.917 84.8908 61.961 84.2954 62.027C84.2644 62.031 84.2354 62.034 84.2074 62.038ZM105.507 78.349C105.565 78.478 105.62 78.609 105.675 78.739C105.73 78.869 105.775 78.977 105.829 79.098L105.867 79.191C107.06 82.1823 107.531 85.4128 107.24 88.62L107.231 88.72C107.217 88.862 107.199 89.004 107.181 89.146C107.163 89.288 107.153 89.402 107.136 89.53L107.122 89.63C106.66 92.8171 105.452 95.8501 103.597 98.483L103.539 98.564C103.456 98.68 103.37 98.792 103.285 98.905C103.2 99.018 103.131 99.115 103.052 99.218L102.99 99.297C100.996 101.824 98.4336 103.846 95.5114 105.197L95.4214 105.238C95.2894 105.298 95.1564 105.353 95.0214 105.41C94.8864 105.467 94.7874 105.51 94.6684 105.561L94.5764 105.598C91.584 106.792 88.3521 107.262 85.1434 106.972L85.0514 106.963C84.9074 106.949 84.7654 106.93 84.6224 106.913C84.4794 106.896 84.3634 106.885 84.2344 106.867L84.1434 106.854C80.9532 106.392 77.9172 105.183 75.2824 103.326L75.2044 103.271C75.0984 103.195 74.9954 103.116 74.8914 103.038C74.7874 102.96 74.6614 102.869 74.5474 102.781L74.4724 102.722C71.9424 100.727 69.9189 98.164 68.5664 95.24L68.5264 95.152C68.4714 95.031 68.4204 94.908 68.3684 94.786C68.3164 94.664 68.2554 94.529 68.2024 94.4L68.1664 94.311C66.9731 91.3188 66.5026 88.0872 66.7934 84.879L66.8024 84.779C66.8154 84.645 66.8324 84.512 66.8484 84.379C66.8644 84.246 66.8794 84.104 66.8974 83.967L66.9114 83.867C67.3759 80.6814 68.5853 77.6503 70.4414 75.02L70.4974 74.941C70.5744 74.832 70.6554 74.727 70.7354 74.62C70.8154 74.513 70.9004 74.395 70.9864 74.285L71.0464 74.208C73.0412 71.6786 75.6047 69.6554 78.5284 68.303L78.6164 68.262C78.7344 68.209 78.8534 68.162 78.9724 68.108C79.0914 68.054 79.2354 67.993 79.3724 67.939C79.4024 67.926 79.4324 67.915 79.4624 67.903C82.4533 66.7098 85.6834 66.239 88.8904 66.529L88.9904 66.539C89.1204 66.551 89.2484 66.568 89.3784 66.584C89.5084 66.6 89.6574 66.615 89.7964 66.634L89.8964 66.648C93.0822 67.1112 96.1138 68.3188 98.7454 70.173L98.8264 70.23C98.9434 70.314 99.0574 70.401 99.1734 70.488C99.2894 70.575 99.3794 70.639 99.4804 70.718C99.5064 70.738 99.5324 70.759 99.5594 70.779C102.087 72.7738 104.108 75.3365 105.459 78.259L105.507 78.349Z" fill="#FFB635" fill-opacity="0.69"/>
<path d="M-37.9811 377.293L-37.9571 377.336M-20.4591 377.349L-20.4841 377.392M-20.4311 367.284L-20.4561 367.241M-37.9521 367.228L-37.9271 367.186M-29.8191 362.204L-29.8961 362.21M-35.3411 345.767C-35.5151 345.807 -35.6881 345.848 -35.8611 345.892C-35.9611 345.918 -36.0611 345.945 -36.1681 345.972C-36.2751 345.999 -36.3681 346.025 -36.4681 346.053C-36.6414 346.101 -36.8134 346.151 -36.9841 346.202C-37.0141 346.211 -37.0441 346.219 -37.0741 346.229C-37.1201 346.242 -37.1671 346.255 -37.2131 346.269C-37.7961 346.449 -38.3701 346.649 -38.9361 346.869L-44.2131 340.469L-49.0741 343.256L-46.2181 351.045C-46.7281 351.453 -47.2248 351.881 -47.7081 352.329L-47.7781 352.395C-47.9081 352.516 -48.0381 352.639 -48.1661 352.763C-48.2411 352.836 -48.3151 352.911 -48.3891 352.984C-48.4631 353.057 -48.5391 353.132 -48.6131 353.207C-48.7391 353.335 -48.8621 353.465 -48.9851 353.595L-49.0491 353.662C-49.5004 354.142 -49.9318 354.636 -50.3431 355.144L-58.1141 352.238L-60.9331 357.073L-54.5651 362.391C-54.7051 362.748 -54.8384 363.109 -54.9651 363.474C-55.0531 363.73 -55.1351 363.989 -55.2151 364.248L-55.2431 364.341C-55.2951 364.511 -55.3431 364.681 -55.3951 364.853L-55.4781 365.153C-55.5051 365.253 -55.5331 365.353 -55.5591 365.453C-55.6051 365.627 -55.6471 365.802 -55.6891 365.977L-55.7101 366.065C-55.8608 366.707 -55.9874 367.351 -56.0901 367.997L-64.2711 369.373L-64.2881 374.973L-56.1151 376.394C-56.0164 377.04 -55.8938 377.684 -55.7471 378.327L-55.7261 378.418C-55.6941 378.558 -55.6621 378.698 -55.6261 378.838L-55.5991 378.938C-55.5741 379.038 -55.5461 379.138 -55.5191 379.244L-55.4381 379.544C-55.3911 379.716 -55.3381 379.888 -55.2901 380.059L-55.2681 380.132V380.149C-55.0781 380.78 -54.8658 381.401 -54.6311 382.011L-61.0311 387.288L-58.2451 392.15L-50.4561 389.293C-50.0468 389.803 -49.6184 390.3 -49.1711 390.784L-49.1591 390.797L-49.1061 390.853C-48.9841 390.983 -48.8621 391.113 -48.7371 391.241C-48.6641 391.316 -48.5901 391.39 -48.5171 391.464C-48.4441 391.538 -48.3681 391.614 -48.2931 391.688C-48.2681 391.713 -48.2441 391.738 -48.2191 391.762C-48.1191 391.862 -48.0111 391.962 -47.9061 392.062C-47.8841 392.084 -47.8611 392.105 -47.8391 392.126C-47.3591 392.577 -46.8648 393.011 -46.3561 393.426L-49.2581 401.201L-44.4141 404.018L-39.0971 397.649C-38.4878 397.887 -37.8684 398.103 -37.2391 398.298L-37.1491 398.325C-36.9784 398.377 -36.8071 398.428 -36.6351 398.477C-36.5351 398.506 -36.4351 398.533 -36.3291 398.561C-36.2491 398.582 -36.1691 398.606 -36.0881 398.627L-36.0591 398.634L-36.0271 398.642C-35.8541 398.687 -35.6801 398.729 -35.5061 398.771C-35.4761 398.778 -35.4451 398.786 -35.4151 398.793C-34.7731 398.943 -34.1294 399.069 -33.4841 399.172L-32.1151 407.355L-26.5151 407.373L-25.0951 399.199C-24.4491 399.1 -23.8047 398.978 -23.1621 398.832C-23.1301 398.825 -23.1001 398.817 -23.0681 398.81C-22.8951 398.77 -22.7221 398.729 -22.5491 398.685C-22.4491 398.659 -22.3431 398.631 -22.2401 398.604C-22.1371 398.577 -22.0401 398.551 -21.9401 398.524C-21.7671 398.476 -21.5941 398.424 -21.4221 398.374C-21.3931 398.365 -21.3641 398.357 -21.3351 398.348C-20.7038 398.158 -20.0828 397.946 -19.4721 397.711L-14.1951 404.111L-9.33409 401.325L-12.1901 393.536C-11.6801 393.127 -11.1831 392.699 -10.6991 392.251L-10.6341 392.189C-10.5021 392.066 -10.3711 391.943 -10.2421 391.817C-10.1681 391.745 -10.0951 391.672 -10.0221 391.599C-9.94908 391.526 -9.87009 391.449 -9.79509 391.373C-9.67009 391.246 -9.54808 391.118 -9.42608 390.989L-9.35809 390.918C-8.90742 390.438 -8.47642 389.944 -8.06509 389.436L-0.294086 392.342L2.52292 387.498L-3.84509 382.181C-3.60709 381.572 -3.39075 380.952 -3.19609 380.323L-3.17009 380.235C-3.11809 380.064 -3.07009 379.892 -3.01709 379.718L-2.93509 379.418L-2.85209 379.112C-2.80809 378.939 -2.76609 378.766 -2.72409 378.594L-2.70108 378.499C-2.55108 377.858 -2.42475 377.214 -2.32209 376.569L5.86092 375.2L5.87891 369.6L-2.29609 368.179C-2.39409 367.533 -2.51642 366.889 -2.66309 366.246L-2.68409 366.154C-2.71709 366.014 -2.74808 365.874 -2.78408 365.735L-2.81108 365.635C-2.83608 365.535 -2.86409 365.435 -2.89109 365.329L-2.97209 365.029C-3.02009 364.857 -3.06976 364.685 -3.12109 364.514C-3.12809 364.49 -3.13409 364.465 -3.14209 364.441V364.423C-3.33209 363.793 -3.54442 363.172 -3.77909 362.561L2.62091 357.285L-0.165085 352.423L-7.95809 355.273C-8.36675 354.762 -8.79542 354.265 -9.24408 353.781L-9.25508 353.768C-9.27208 353.751 -9.28909 353.734 -9.30509 353.716C-9.42842 353.583 -9.55276 353.452 -9.67809 353.324C-9.74909 353.25 -9.82308 353.177 -9.89508 353.104C-9.96708 353.031 -10.0451 352.952 -10.1221 352.877C-10.1471 352.853 -10.1711 352.828 -10.1951 352.803C-10.2951 352.703 -10.4021 352.603 -10.5051 352.508L-10.5761 352.441C-11.0561 351.99 -11.5501 351.559 -12.0581 351.147L-9.14808 343.373L-13.9921 340.556L-19.3091 346.925C-19.9184 346.687 -20.5381 346.471 -21.1681 346.276L-21.2551 346.249C-21.4271 346.197 -21.5994 346.146 -21.7721 346.097C-21.8721 346.068 -21.9721 346.041 -22.0721 346.014C-22.1721 345.987 -22.2721 345.958 -22.3781 345.932C-22.5501 345.887 -22.7221 345.845 -22.8951 345.804C-22.9271 345.796 -22.9581 345.788 -22.9951 345.781C-23.0421 345.77 -23.0891 345.757 -23.1351 345.747C-23.7351 345.611 -24.3271 345.497 -24.9251 345.401L-26.2941 337.219L-31.8941 337.201L-33.3141 345.375C-33.9608 345.473 -34.6054 345.595 -35.2481 345.742C-35.2791 345.752 -35.3101 345.76 -35.3411 345.767ZM-51.4251 372.767V372.661C-51.4251 372.516 -51.4251 372.371 -51.4251 372.227C-51.4251 372.083 -51.4251 371.92 -51.4251 371.766C-51.4251 371.73 -51.4251 371.695 -51.4251 371.659C-51.3265 368.399 -50.5173 365.2 -49.0541 362.286L-38.5381 368.402C-39.5629 370.868 -39.5701 373.64 -38.5581 376.112L-49.1131 382.161C-50.558 379.237 -51.347 376.033 -51.4251 372.773V372.767ZM-21.9181 372.307C-21.9224 373.748 -22.354 375.155 -23.1583 376.351C-23.9626 377.547 -25.1034 378.477 -26.4364 379.025C-27.7695 379.572 -29.2349 379.712 -30.6474 379.427C-32.0599 379.141 -33.3561 378.443 -34.3719 377.421C-35.3878 376.399 -36.0777 375.098 -36.3544 373.684C-36.6312 372.27 -36.4823 370.805 -35.9267 369.476C-35.3711 368.146 -34.4336 367.011 -33.2329 366.214C-32.0322 365.417 -30.6222 364.994 -29.1811 364.999C-27.2489 365.007 -25.3988 365.782 -24.0371 367.153C-22.6754 368.524 -21.9133 370.379 -21.9181 372.311V372.307ZM-39.8981 391.773L-39.9891 391.723C-40.1141 391.653 -40.2361 391.58 -40.3591 391.509C-40.4821 391.438 -40.6301 391.353 -40.7641 391.272L-40.8541 391.217C-43.6278 389.501 -45.9935 387.201 -47.7861 384.476L-37.2291 378.426C-35.6089 380.547 -33.2146 381.939 -30.5701 382.299L-30.6081 394.468C-33.8641 394.257 -37.0347 393.337 -39.8981 391.773ZM-29.9561 382.362C-29.9311 382.362 -29.9051 382.362 -29.8801 382.368L-29.9561 382.362ZM-10.6991 384.594C-12.509 387.306 -14.889 389.591 -17.6731 391.289L-17.7661 391.346C-17.8991 391.425 -18.0351 391.501 -18.1661 391.578C-18.2971 391.655 -18.4111 391.721 -18.5361 391.79C-18.5681 391.807 -18.6011 391.824 -18.6361 391.842C-21.5077 393.386 -24.6815 394.284 -27.9361 394.475L-27.8981 382.307C-25.2521 381.962 -22.8503 380.584 -21.2181 378.473L-10.6991 384.594ZM-28.5921 382.373C-28.5661 382.373 -28.5411 382.373 -28.5161 382.368L-28.5921 382.373ZM-9.29509 362.417C-7.85055 365.34 -7.06153 368.544 -6.98309 371.804V371.912C-6.98309 372.068 -6.98309 372.225 -6.98309 372.381C-6.98309 372.537 -6.98309 372.664 -6.98309 372.805V372.913C-7.08141 376.173 -7.89059 379.373 -9.35408 382.288L-19.8741 376.173C-18.8491 373.708 -18.8404 370.938 -19.8501 368.467L-9.29509 362.417ZM-18.5211 352.801L-18.4211 352.854C-18.2831 352.931 -18.1471 353.011 -18.0121 353.091C-17.8771 353.171 -17.7681 353.23 -17.6491 353.303L-17.5561 353.36C-14.782 355.075 -12.4158 357.375 -10.6231 360.1L-21.1801 366.151C-22.7998 364.029 -25.1935 362.635 -27.8381 362.273L-27.8001 350.105C-24.5458 350.317 -21.3771 351.237 -18.5151 352.801H-18.5211ZM-28.5311 362.208L-28.4541 362.214C-28.4771 362.213 -28.5031 362.21 -28.5281 362.208H-28.5311ZM-39.8671 352.785L-39.7751 352.735C-36.9035 351.191 -33.7297 350.293 -30.4751 350.102L-30.5071 362.273C-33.154 362.616 -35.5573 363.993 -37.1911 366.104L-47.7101 359.986C-45.9001 357.272 -43.5193 354.985 -40.7341 353.286L-40.6431 353.231C-40.5201 353.157 -40.3951 353.088 -40.2711 353.017C-40.1471 352.946 -40.0011 352.86 -39.8641 352.785H-39.8671Z" stroke="#B7DEFF" stroke-width="0.84" stroke-linecap="round" stroke-linejoin="round"/>
<mask id="mask0_69_1889" style="mask-type:luminance" maskUnits="userSpaceOnUse" x="-134" y="1" width="183" height="182">
<path d="M-33.7323 161.823C-33.2753 161.763 -32.8183 161.701 -32.3613 161.632C-32.0913 161.591 -31.8223 161.546 -31.5523 161.503C-31.2823 161.46 -31.0193 161.418 -30.7523 161.371C-30.2953 161.292 -29.8413 161.206 -29.3873 161.118C-29.3083 161.103 -29.2283 161.089 -29.1483 161.073C-29.0253 161.049 -28.9023 161.028 -28.7793 161.003C-27.646 160.773 -26.524 160.516 -25.4133 160.232C-25.0053 160.132 -24.5993 160.016 -24.1943 159.904L-12.2303 177.719L0.989685 171.776L-4.39432 151.002C-2.97765 150.08 -1.59032 149.103 -0.232315 148.072C-0.167313 148.023 -0.103317 147.972 -0.0383148 147.923C0.327682 147.642 0.692017 147.358 1.05469 147.071C1.26669 146.902 1.47569 146.73 1.68469 146.559C1.89369 146.388 2.10869 146.216 2.31769 146.04C2.67369 145.743 3.02568 145.443 3.37369 145.14C3.43469 145.087 3.4957 145.04 3.55569 144.983C4.83904 143.861 6.07469 142.698 7.2627 141.493L26.5327 150.939L35.0087 139.182L19.9597 123.882C20.7257 122.374 21.4387 120.834 22.0987 119.263C22.1307 119.188 22.1607 119.112 22.1917 119.037C22.369 118.61 22.543 118.181 22.7137 117.751C22.8137 117.499 22.9077 117.245 23.0037 116.991C23.0997 116.737 23.1977 116.485 23.2907 116.23C23.4507 115.795 23.6037 115.359 23.7547 114.922L23.8347 114.692C24.3847 113.079 24.873 111.454 25.2997 109.817L46.7107 108.363L48.1737 93.942L27.4907 88.218C27.4007 86.5286 27.2484 84.8383 27.0337 83.147L27.0017 82.91C26.9537 82.54 26.9077 82.171 26.8537 81.802C26.8407 81.713 26.8237 81.623 26.8107 81.534C26.7707 81.264 26.7257 80.995 26.6817 80.726C26.6377 80.457 26.5967 80.192 26.5497 79.926C26.4707 79.47 26.3857 79.016 26.2977 78.563C26.2847 78.499 26.2747 78.434 26.2617 78.37L26.2517 78.323C25.9217 76.651 25.5323 74.9996 25.0837 73.369L42.8987 61.404L36.9547 48.184L16.1807 53.573C15.9517 53.221 15.7227 52.868 15.4857 52.519C14.843 51.5683 14.1764 50.6313 13.4857 49.708C13.4097 49.608 13.3317 49.508 13.2557 49.408L13.2277 49.37C13.1877 49.317 13.1467 49.27 13.1077 49.215C12.8267 48.848 12.5437 48.482 12.2547 48.115C12.0857 47.904 11.9147 47.696 11.7437 47.486C11.5727 47.276 11.3997 47.062 11.2247 46.853C11.1667 46.783 11.1107 46.712 11.0527 46.643C10.8127 46.358 10.5677 46.079 10.3237 45.799L10.1657 45.615C9.04369 44.3316 7.88036 43.096 6.67569 41.908L16.1217 22.639L4.36469 14.162L-10.9353 29.211C-12.4446 28.4477 -13.9856 27.735 -15.5583 27.073C-15.6363 27.041 -15.7143 27.01 -15.7923 26.973C-16.2163 26.797 -16.6413 26.623 -17.0703 26.455C-17.3253 26.3549 -17.5823 26.255 -17.8383 26.161C-18.0943 26.067 -18.3383 25.97 -18.5913 25.877C-19.0293 25.717 -19.4683 25.563 -19.9073 25.411C-19.9823 25.386 -20.0553 25.359 -20.1293 25.334C-21.7433 24.784 -23.369 24.2953 -25.0063 23.868L-26.4583 2.46301L-40.8783 1L-46.6023 21.683C-48.2916 21.773 -49.9816 21.9254 -51.6723 22.14C-51.7523 22.15 -51.8313 22.161 -51.9103 22.172C-52.369 22.2307 -52.8273 22.2943 -53.2853 22.363C-53.5563 22.403 -53.8243 22.448 -54.0943 22.492C-54.3643 22.536 -54.6283 22.577 -54.8943 22.624C-55.3503 22.703 -55.8043 22.788 -56.2573 22.876C-56.3373 22.892 -56.4173 22.906 -56.4973 22.922C-58.1686 23.2553 -59.82 23.6446 -61.4513 24.09L-73.4173 6.27301L-86.6373 12.217L-81.2583 32.993C-82.6716 33.913 -84.0573 34.8896 -85.4153 35.923C-85.4803 35.972 -85.5443 36.023 -85.6083 36.072C-85.9753 36.353 -86.3403 36.635 -86.7023 36.924C-86.9143 37.093 -87.1223 37.265 -87.3323 37.435C-87.5423 37.605 -87.7563 37.779 -87.9653 37.954C-88.3213 38.254 -88.6713 38.554 -89.0203 38.854L-89.2033 39.012C-90.486 40.134 -91.7216 41.2973 -92.9103 42.502L-112.179 33.056L-120.658 44.814L-105.609 60.114C-106.375 61.62 -107.088 63.1596 -107.747 64.733L-107.836 64.95C-108.016 65.3787 -108.191 65.81 -108.361 66.244C-108.461 66.495 -108.554 66.744 -108.65 66.998C-108.746 67.252 -108.844 67.507 -108.938 67.764C-109.097 68.197 -109.25 68.632 -109.4 69.064L-109.482 69.299C-110.032 70.9123 -110.521 72.537 -110.947 74.173L-132.358 75.631L-133.82 90.052L-113.138 95.773C-113.048 97.461 -112.895 99.151 -112.681 100.843L-112.649 101.084C-112.601 101.452 -112.555 101.821 -112.501 102.184C-112.487 102.273 -112.471 102.362 -112.458 102.451C-112.417 102.722 -112.372 102.991 -112.329 103.261C-112.286 103.531 -112.244 103.794 -112.197 104.061C-112.118 104.517 -112.032 104.972 -111.944 105.426L-111.909 105.618L-111.899 105.665C-111.569 107.336 -111.18 108.987 -110.73 110.619L-128.545 122.591L-122.602 135.811L-101.828 130.427C-100.905 131.844 -99.928 133.232 -98.8973 134.591L-98.8703 134.627L-98.7553 134.775C-98.4723 135.144 -98.1873 135.513 -97.8953 135.875C-97.7293 136.084 -97.5603 136.289 -97.3953 136.496C-97.2303 136.703 -97.0473 136.925 -96.8693 137.138L-96.6993 137.346C-96.4603 137.629 -96.2173 137.906 -95.9753 138.185C-95.9203 138.248 -95.8663 138.312 -95.8103 138.375C-94.689 139.658 -93.5263 140.894 -92.3223 142.081L-101.764 161.353L-90.0073 169.83L-74.7073 154.781C-73.2006 155.547 -71.6613 156.26 -70.0893 156.92C-70.0143 156.952 -69.9383 156.981 -69.8643 157.013C-69.4373 157.19 -69.0093 157.365 -68.5773 157.534C-68.5513 157.545 -68.5253 157.556 -68.4993 157.566C-68.4733 157.576 -68.4523 157.586 -68.4283 157.595C-68.2283 157.674 -68.0213 157.748 -67.8173 157.825C-67.5643 157.925 -67.3113 158.019 -67.0563 158.112C-66.6213 158.272 -66.1853 158.425 -65.7483 158.575C-65.6713 158.602 -65.5953 158.63 -65.5183 158.656C-63.905 159.205 -62.28 159.693 -60.6433 160.121L-59.1893 181.532L-44.7683 182.994L-39.0443 162.312C-37.3563 162.221 -35.6663 162.068 -33.9743 161.855C-33.8943 161.845 -33.8143 161.833 -33.7323 161.823ZM-94.7743 116.623C-94.9463 116.26 -95.1063 115.892 -95.2693 115.523C-95.4213 115.187 -95.5763 114.854 -95.7213 114.515L-95.8313 114.254C-99.3443 105.841 -100.823 96.7187 -100.148 87.627L-100.127 87.346C-100.093 86.946 -100.048 86.546 -100.006 86.14C-99.9693 85.776 -99.9383 85.412 -99.8943 85.049L-99.8583 84.77C-98.6955 75.7272 -95.4153 67.0864 -90.2843 59.55L-90.1253 59.317C-89.8963 58.987 -89.6573 58.664 -89.4253 58.339C-89.2103 58.039 -88.9993 57.739 -88.7783 57.445L-88.6073 57.219C-83.0784 49.9704 -75.9179 44.128 -67.7073 40.166C-67.6233 40.126 -67.5403 40.085 -67.4563 40.045C-67.0863 39.871 -66.7123 39.708 -66.3393 39.545C-66.0093 39.396 -65.6813 39.245 -65.3483 39.101C-65.2623 39.064 -65.1753 39.028 -65.0893 38.992C-56.6729 35.4762 -47.5454 33.9968 -38.4493 34.674C-38.3633 34.681 -38.2763 34.687 -38.1893 34.694C-37.7823 34.728 -37.3783 34.774 -36.9733 34.816C-36.6063 34.853 -36.2383 34.885 -35.8733 34.929C-35.7873 34.939 -35.7013 34.951 -35.6153 34.962C-26.5626 36.1229 -17.912 39.4057 -10.3683 44.543L-10.1443 44.696C-9.84431 44.906 -9.54431 45.125 -9.24431 45.341C-8.91531 45.576 -8.58431 45.809 -8.26031 46.052L-8.04331 46.217C-0.792099 51.7479 5.05188 58.9116 9.01369 67.126L9.13168 67.372C9.29268 67.713 9.44168 68.058 9.59569 68.402C9.75969 68.763 9.92569 69.122 10.0817 69.487L10.1817 69.736C13.697 78.1515 15.1768 87.2778 14.5007 96.373C14.4937 96.466 14.4877 96.558 14.4797 96.65C14.4487 97.03 14.4047 97.408 14.3657 97.786C14.3267 98.164 14.2927 98.564 14.2467 98.953L14.2117 99.226C13.0478 108.271 9.76585 116.913 4.63269 124.451L4.47769 124.678C4.2627 124.988 4.03868 125.29 3.81769 125.596C3.59669 125.902 3.36069 126.24 3.12369 126.556L2.9567 126.776C-2.5737 134.027 -9.73759 139.871 -17.9523 143.832C-18.0353 143.872 -18.1173 143.912 -18.2003 143.951C-18.5313 144.108 -18.8673 144.251 -19.2003 144.403C-19.5703 144.57 -19.9383 144.741 -20.3123 144.903C-20.3963 144.939 -20.4813 144.974 -20.5653 145.009C-28.9766 148.522 -38.098 150.001 -47.1883 149.326C-47.2883 149.319 -47.3883 149.312 -47.4833 149.304C-47.8493 149.274 -48.2153 149.232 -48.5833 149.194C-48.9833 149.155 -49.3753 149.12 -49.7703 149.072C-49.8703 149.06 -49.9653 149.047 -50.0623 149.035C-59.1003 147.87 -67.7363 144.591 -75.2693 139.463L-75.5013 139.304C-75.8363 139.072 -76.1643 138.829 -76.4943 138.59C-76.7883 138.378 -77.0853 138.171 -77.3753 137.953L-77.6003 137.782C-84.8506 132.251 -90.6933 125.087 -94.6533 116.873L-94.7743 116.623Z" fill="white"/>
</mask>
<g mask="url(#mask0_69_1889)">
<path d="M-136.03 -123.368L55.4217 68.084" stroke="#B7DEFF" stroke-width="0.63" stroke-miterlimit="10"/>
<path d="M-136.03 -95.456L55.4217 95.996" stroke="#B7DEFF" stroke-width="0.63" stroke-miterlimit="10"/>
<path d="M-136.03 -67.544L55.4217 123.908" stroke="#B7DEFF" stroke-width="0.63" stroke-miterlimit="10"/>
<path d="M-136.03 -39.632L55.4217 151.82" stroke="#B7DEFF" stroke-width="0.63" stroke-miterlimit="10"/>
<path d="M-136.03 -137.324L55.4217 54.128" stroke="#B7DEFF" stroke-width="0.63" stroke-miterlimit="10"/>
<path d="M-136.03 -109.412L55.4217 82.04" stroke="#B7DEFF" stroke-width="0.63" stroke-miterlimit="10"/>
<path d="M-136.03 -81.5L55.4217 109.952" stroke="#B7DEFF" stroke-width="0.63" stroke-miterlimit="10"/>
<path d="M-136.03 -53.588L55.4217 137.864" stroke="#B7DEFF" stroke-width="0.63" stroke-miterlimit="10"/>
<path d="M-136.03 -25.676L55.4217 165.776" stroke="#B7DEFF" stroke-width="0.63" stroke-miterlimit="10"/>
<path d="M-136.03 -11.72L55.4217 179.732" stroke="#B7DEFF" stroke-width="0.63" stroke-miterlimit="10"/>
<path d="M-136.03 2.23599L55.4217 193.688" stroke="#B7DEFF" stroke-width="0.63" stroke-miterlimit="10"/>
<path d="M-136.03 16.192L55.4217 207.644" stroke="#B7DEFF" stroke-width="0.63" stroke-miterlimit="10"/>
<path d="M-136.03 30.148L55.4217 221.6" stroke="#B7DEFF" stroke-width="0.63" stroke-miterlimit="10"/>
<path d="M-136.03 44.104L55.4217 235.556" stroke="#B7DEFF" stroke-width="0.63" stroke-miterlimit="10"/>
<path d="M-136.03 58.06L55.4217 249.512" stroke="#B7DEFF" stroke-width="0.63" stroke-miterlimit="10"/>
<path d="M-136.03 72.016L55.4217 263.468" stroke="#B7DEFF" stroke-width="0.63" stroke-miterlimit="10"/>
<path d="M-136.03 85.972L55.4217 277.424" stroke="#B7DEFF" stroke-width="0.63" stroke-miterlimit="10"/>
<path d="M-136.03 -116.39L55.4217 75.062" stroke="#B7DEFF" stroke-width="0.63" stroke-miterlimit="10"/>
<path d="M-136.03 -88.478L55.4217 102.974" stroke="#B7DEFF" stroke-width="0.63" stroke-miterlimit="10"/>
<path d="M-136.03 -60.566L55.4217 130.886" stroke="#B7DEFF" stroke-width="0.63" stroke-miterlimit="10"/>
<path d="M-136.03 -32.654L55.4217 158.798" stroke="#B7DEFF" stroke-width="0.63" stroke-miterlimit="10"/>
<path d="M-136.03 -4.74203L55.4217 186.71" stroke="#B7DEFF" stroke-width="0.63" stroke-miterlimit="10"/>
<path d="M-136.03 23.17L55.4217 214.622" stroke="#B7DEFF" stroke-width="0.63" stroke-miterlimit="10"/>
<path d="M-136.03 51.082L55.4217 242.534" stroke="#B7DEFF" stroke-width="0.63" stroke-miterlimit="10"/>
<path d="M-136.03 -130.346L55.4217 61.106" stroke="#B7DEFF" stroke-width="0.63" stroke-miterlimit="10"/>
<path d="M-136.03 -102.434L55.4217 89.018" stroke="#B7DEFF" stroke-width="0.63" stroke-miterlimit="10"/>
<path d="M-136.03 -74.522L55.4217 116.93" stroke="#B7DEFF" stroke-width="0.63" stroke-miterlimit="10"/>
<path d="M-136.03 -46.61L55.4217 144.842" stroke="#B7DEFF" stroke-width="0.63" stroke-miterlimit="10"/>
<path d="M-136.03 -18.698L55.4217 172.754" stroke="#B7DEFF" stroke-width="0.63" stroke-miterlimit="10"/>
<path d="M-136.03 9.21402L55.4217 200.666" stroke="#B7DEFF" stroke-width="0.63" stroke-miterlimit="10"/>
<path d="M-136.03 37.126L55.4217 228.578" stroke="#B7DEFF" stroke-width="0.63" stroke-miterlimit="10"/>
<path d="M-136.03 65.038L55.4217 256.49" stroke="#B7DEFF" stroke-width="0.63" stroke-miterlimit="10"/>
<path d="M-136.03 78.994L55.4217 270.446" stroke="#B7DEFF" stroke-width="0.63" stroke-miterlimit="10"/>
<path d="M-136.03 92.95L55.4217 284.402" stroke="#B7DEFF" stroke-width="0.63" stroke-miterlimit="10"/>
<path d="M-136.03 99.928L55.4217 291.38" stroke="#B7DEFF" stroke-width="0.63" stroke-miterlimit="10"/>
<path d="M-136.03 106.906L55.4217 298.358" stroke="#B7DEFF" stroke-width="0.63" stroke-miterlimit="10"/>
<path d="M-136.03 113.884L55.4217 305.336" stroke="#B7DEFF" stroke-width="0.63" stroke-miterlimit="10"/>
<path d="M-136.03 120.862L55.4217 312.314" stroke="#B7DEFF" stroke-width="0.63" stroke-miterlimit="10"/>
<path d="M-136.03 127.84L55.4217 319.292" stroke="#B7DEFF" stroke-width="0.63" stroke-miterlimit="10"/>
<path d="M-136.03 134.818L55.4217 326.27" stroke="#B7DEFF" stroke-width="0.63" stroke-miterlimit="10"/>
</g>
<path d="M-33.7323 161.823C-33.2753 161.763 -32.8183 161.701 -32.3613 161.632C-32.0913 161.591 -31.8223 161.546 -31.5523 161.503C-31.2823 161.46 -31.0193 161.418 -30.7523 161.371C-30.2953 161.292 -29.8413 161.206 -29.3873 161.118C-29.3083 161.103 -29.2283 161.089 -29.1483 161.073C-29.0253 161.049 -28.9023 161.028 -28.7793 161.003C-27.646 160.773 -26.524 160.516 -25.4133 160.232C-25.0053 160.132 -24.5993 160.016 -24.1943 159.904L-12.2303 177.719L0.989685 171.776L-4.39432 151.002C-2.97765 150.08 -1.59032 149.103 -0.232315 148.072C-0.167315 148.023 -0.103315 147.972 -0.0383148 147.923C0.327685 147.642 0.692021 147.358 1.05469 147.071C1.26669 146.902 1.47569 146.73 1.68469 146.559C1.89369 146.388 2.10869 146.216 2.31769 146.04C2.67369 145.743 3.02569 145.443 3.37369 145.14C3.43469 145.087 3.49569 145.04 3.55569 144.983C4.83903 143.861 6.0747 142.698 7.2627 141.493L26.5327 150.939L35.0087 139.182L19.9597 123.882C20.7257 122.374 21.4387 120.834 22.0987 119.263C22.1307 119.188 22.1607 119.112 22.1917 119.037C22.369 118.61 22.543 118.181 22.7137 117.751C22.8137 117.499 22.9077 117.245 23.0037 116.991C23.0997 116.737 23.1977 116.485 23.2907 116.23C23.4507 115.795 23.6037 115.359 23.7547 114.922L23.8347 114.692C24.3847 113.079 24.873 111.454 25.2997 109.817L46.7107 108.363L48.1737 93.942L27.4907 88.218C27.4007 86.5286 27.2484 84.8383 27.0337 83.147L27.0017 82.91C26.9537 82.54 26.9077 82.171 26.8537 81.802C26.8407 81.713 26.8237 81.623 26.8107 81.534C26.7707 81.264 26.7257 80.995 26.6817 80.726C26.6377 80.457 26.5967 80.192 26.5497 79.926C26.4707 79.47 26.3857 79.016 26.2977 78.563C26.2847 78.499 26.2747 78.434 26.2617 78.37L26.2517 78.323C25.9217 76.651 25.5323 74.9996 25.0837 73.369L42.8987 61.404L36.9547 48.184L16.1807 53.573C15.9517 53.221 15.7227 52.868 15.4857 52.519C14.843 51.5683 14.1764 50.6313 13.4857 49.708C13.4097 49.608 13.3317 49.508 13.2557 49.408L13.2277 49.37C13.1877 49.317 13.1467 49.27 13.1077 49.215C12.8267 48.848 12.5437 48.482 12.2547 48.115C12.0857 47.904 11.9147 47.696 11.7437 47.486C11.5727 47.276 11.3997 47.062 11.2247 46.853C11.1667 46.783 11.1107 46.712 11.0527 46.643C10.8127 46.358 10.5677 46.079 10.3237 45.799L10.1657 45.615C9.04368 44.3317 7.88036 43.096 6.67569 41.908L16.1217 22.639L4.36469 14.162L-10.9353 29.211C-12.4446 28.4477 -13.9856 27.735 -15.5583 27.073C-15.6363 27.041 -15.7143 27.01 -15.7923 26.973C-16.2163 26.797 -16.6413 26.623 -17.0703 26.455C-17.3253 26.355 -17.5823 26.255 -17.8383 26.161C-18.0943 26.067 -18.3383 25.97 -18.5913 25.877C-19.0293 25.717 -19.4683 25.563 -19.9073 25.411C-19.9823 25.386 -20.0553 25.359 -20.1293 25.334C-21.7433 24.784 -23.369 24.2953 -25.0063 23.868L-26.4583 2.46301L-40.8783 1L-46.6023 21.683C-48.2916 21.773 -49.9816 21.9253 -51.6723 22.14C-51.7523 22.15 -51.8313 22.161 -51.9103 22.172C-52.369 22.2307 -52.8273 22.2943 -53.2853 22.363C-53.5563 22.403 -53.8243 22.448 -54.0943 22.492C-54.3643 22.536 -54.6283 22.577 -54.8943 22.624C-55.3503 22.703 -55.8043 22.788 -56.2573 22.876C-56.3373 22.892 -56.4173 22.906 -56.4973 22.922C-58.1686 23.2553 -59.82 23.6446 -61.4513 24.09L-73.4173 6.27301L-86.6373 12.217L-81.2583 32.993C-82.6716 33.913 -84.0573 34.8896 -85.4153 35.923C-85.4803 35.972 -85.5443 36.023 -85.6083 36.072C-85.9753 36.353 -86.3403 36.635 -86.7023 36.924C-86.9143 37.093 -87.1223 37.265 -87.3323 37.435C-87.5423 37.605 -87.7563 37.779 -87.9653 37.954C-88.3213 38.254 -88.6713 38.554 -89.0203 38.854L-89.2033 39.012C-90.486 40.134 -91.7216 41.2973 -92.9103 42.502L-112.179 33.056L-120.658 44.814L-105.609 60.114C-106.375 61.62 -107.088 63.1596 -107.747 64.733L-107.836 64.95C-108.016 65.3787 -108.191 65.81 -108.361 66.244C-108.461 66.495 -108.554 66.744 -108.65 66.998C-108.746 67.252 -108.844 67.507 -108.938 67.764C-109.097 68.197 -109.25 68.632 -109.4 69.064L-109.482 69.299C-110.032 70.9123 -110.521 72.537 -110.947 74.173L-132.358 75.631L-133.82 90.052L-113.138 95.773C-113.048 97.461 -112.895 99.151 -112.681 100.843L-112.649 101.084C-112.601 101.452 -112.555 101.821 -112.501 102.184C-112.487 102.273 -112.471 102.362 -112.458 102.451C-112.417 102.722 -112.372 102.991 -112.329 103.261C-112.286 103.531 -112.244 103.794 -112.197 104.061C-112.118 104.517 -112.032 104.972 -111.944 105.426L-111.909 105.618L-111.899 105.665C-111.569 107.336 -111.18 108.987 -110.73 110.619L-128.545 122.591L-122.602 135.811L-101.828 130.427C-100.905 131.844 -99.928 133.232 -98.8973 134.591L-98.8703 134.627L-98.7553 134.775C-98.4723 135.144 -98.1873 135.513 -97.8953 135.875C-97.7293 136.084 -97.5603 136.289 -97.3953 136.496C-97.2303 136.703 -97.0473 136.925 -96.8693 137.138L-96.6993 137.346C-96.4603 137.629 -96.2173 137.906 -95.9753 138.185C-95.9203 138.248 -95.8663 138.312 -95.8103 138.375C-94.689 139.658 -93.5263 140.894 -92.3223 142.081L-101.764 161.353L-90.0073 169.83L-74.7073 154.781C-73.2006 155.547 -71.6613 156.26 -70.0893 156.92C-70.0143 156.952 -69.9383 156.981 -69.8643 157.013C-69.4373 157.19 -69.0093 157.365 -68.5773 157.534C-68.5513 157.545 -68.5253 157.556 -68.4993 157.566C-68.4733 157.576 -68.4523 157.586 -68.4283 157.595C-68.2283 157.674 -68.0213 157.748 -67.8173 157.825C-67.5643 157.925 -67.3113 158.019 -67.0563 158.112C-66.6213 158.272 -66.1853 158.425 -65.7483 158.575C-65.6713 158.602 -65.5953 158.63 -65.5183 158.656C-63.905 159.205 -62.28 159.693 -60.6433 160.121L-59.1893 181.532L-44.7683 182.994L-39.0443 162.312C-37.3563 162.221 -35.6663 162.068 -33.9743 161.855C-33.8943 161.845 -33.8143 161.833 -33.7323 161.823ZM-94.7743 116.623C-94.9463 116.26 -95.1063 115.892 -95.2693 115.523C-95.4213 115.187 -95.5763 114.854 -95.7213 114.515L-95.8313 114.254C-99.3443 105.841 -100.823 96.7187 -100.148 87.627L-100.127 87.346C-100.093 86.946 -100.048 86.546 -100.006 86.14C-99.9693 85.776 -99.9383 85.412 -99.8943 85.049L-99.8583 84.77C-98.6955 75.7272 -95.4153 67.0864 -90.2843 59.55L-90.1253 59.317C-89.8963 58.987 -89.6573 58.664 -89.4253 58.339C-89.2103 58.039 -88.9993 57.739 -88.7783 57.445L-88.6073 57.219C-83.0784 49.9704 -75.9179 44.128 -67.7073 40.166C-67.6233 40.126 -67.5403 40.085 -67.4563 40.045C-67.0863 39.871 -66.7123 39.708 -66.3393 39.545C-66.0093 39.396 -65.6813 39.245 -65.3483 39.101C-65.2623 39.064 -65.1753 39.028 -65.0893 38.992C-56.6729 35.4762 -47.5454 33.9968 -38.4493 34.674C-38.3633 34.681 -38.2763 34.687 -38.1893 34.694C-37.7823 34.728 -37.3783 34.774 -36.9733 34.816C-36.6063 34.853 -36.2383 34.885 -35.8733 34.929C-35.7873 34.939 -35.7013 34.951 -35.6153 34.962C-26.5626 36.1229 -17.912 39.4057 -10.3683 44.543L-10.1443 44.696C-9.84431 44.906 -9.54431 45.125 -9.24431 45.341C-8.91531 45.576 -8.58431 45.809 -8.26031 46.052L-8.04331 46.217C-0.792099 51.7479 5.05187 58.9116 9.01369 67.126L9.13168 67.372C9.29268 67.713 9.44169 68.058 9.59569 68.402C9.75969 68.763 9.9257 69.122 10.0817 69.487L10.1817 69.736C13.697 78.1515 15.1768 87.2778 14.5007 96.373C14.4937 96.466 14.4877 96.558 14.4797 96.65C14.4487 97.03 14.4047 97.408 14.3657 97.786C14.3267 98.164 14.2927 98.564 14.2467 98.953L14.2117 99.226C13.0478 108.271 9.76585 116.913 4.63269 124.451L4.47769 124.678C4.26269 124.988 4.03869 125.29 3.81769 125.596C3.59669 125.902 3.36069 126.24 3.12369 126.556L2.9567 126.776C-2.5737 134.027 -9.73759 139.871 -17.9523 143.832C-18.0353 143.872 -18.1173 143.912 -18.2003 143.951C-18.5313 144.108 -18.8673 144.251 -19.2003 144.403C-19.5703 144.57 -19.9383 144.741 -20.3123 144.903C-20.3963 144.939 -20.4813 144.974 -20.5653 145.009C-28.9766 148.522 -38.098 150.001 -47.1883 149.326C-47.2883 149.319 -47.3883 149.312 -47.4833 149.304C-47.8493 149.274 -48.2153 149.232 -48.5833 149.194C-48.9833 149.155 -49.3753 149.12 -49.7703 149.072C-49.8703 149.06 -49.9653 149.047 -50.0623 149.035C-59.1003 147.87 -67.7362 144.591 -75.2693 139.463L-75.5013 139.304C-75.8363 139.072 -76.1643 138.829 -76.4943 138.59C-76.7883 138.378 -77.0853 138.171 -77.3753 137.953L-77.6003 137.782C-84.8506 132.251 -90.6933 125.087 -94.6533 116.873L-94.7743 116.623Z" stroke="#B7DEFF" stroke-width="1.679" stroke-miterlimit="10"/>
<path d="M0.517853 72.512C-3.33589 63.9398 -9.64504 56.7029 -17.6118 51.7164C-25.5785 46.73 -34.845 44.2179 -44.2394 44.4979C-53.6339 44.7779 -62.7343 47.8373 -70.3899 53.2894C-78.0455 58.7415 -83.9125 66.3414 -87.2489 75.1279C-90.5852 83.9144 -91.2412 93.4929 -89.1337 102.652C-87.0263 111.811 -82.2501 120.14 -75.4092 126.585C-68.5682 133.03 -59.9698 137.301 -50.7013 138.859C-41.4327 140.417 -31.9103 139.192 -23.3381 135.338C-11.8437 130.17 -2.87284 120.648 1.60098 108.866C6.07481 97.0835 5.6852 84.0068 0.517853 72.512ZM-65.5341 71.781C-66.5417 69.5399 -66.8621 67.0503 -66.4548 64.627C-66.0474 62.2038 -64.9307 59.9557 -63.2457 58.1672C-61.5607 56.3786 -59.3832 55.1299 -56.9886 54.5789C-54.5939 54.0279 -52.0897 54.1994 -49.7924 55.0717C-47.4952 55.9439 -45.5083 57.4778 -44.0828 59.4793C-42.6574 61.4808 -41.8574 63.8601 -41.7842 66.3162C-41.7109 68.7724 -42.3677 71.1951 -43.6713 73.278C-44.975 75.3609 -46.867 77.0104 -49.1081 78.018C-50.5962 78.687 -52.2015 79.0564 -53.8323 79.105C-55.4631 79.1537 -57.0876 78.8806 -58.6129 78.3015C-60.1382 77.7223 -61.5345 76.8483 -62.722 75.7296C-63.9096 74.6108 -64.8651 73.2691 -65.5341 71.781ZM-79.4651 108.473C-80.4727 106.232 -80.7931 103.742 -80.3858 101.319C-79.9784 98.8957 -78.8617 96.6477 -77.1767 94.8592C-75.4917 93.0707 -73.3142 91.8219 -70.9196 91.2709C-68.5249 90.7199 -66.0207 90.8914 -63.7235 91.7637C-61.4262 92.6359 -59.4393 94.1698 -58.0138 96.1713C-56.5884 98.1728 -55.7884 100.552 -55.7152 103.008C-55.6419 105.464 -56.2987 107.887 -57.6023 109.97C-58.906 112.053 -60.798 113.702 -63.0391 114.71C-66.0445 116.061 -69.4633 116.163 -72.5437 114.993C-75.6241 113.823 -78.1138 111.478 -79.4651 108.473ZM-44.1721 88.999C-43.5786 88.7321 -42.9193 88.6474 -42.2776 88.7553C-41.6359 88.8632 -41.0405 89.1589 -40.5669 89.6052C-40.0933 90.0514 -39.7627 90.6281 -39.6168 91.2623C-39.471 91.8965 -39.5164 92.5596 -39.7475 93.168C-39.9786 93.7763 -40.3849 94.3025 -40.915 94.6799C-41.4451 95.0573 -42.0752 95.269 -42.7257 95.2883C-43.3761 95.3075 -44.0177 95.1335 -44.5692 94.7881C-45.1207 94.4427 -45.5575 93.9415 -45.8241 93.348C-46.0015 92.9538 -46.0994 92.5286 -46.1124 92.0966C-46.1253 91.6646 -46.053 91.2343 -45.8996 90.8302C-45.7462 90.4261 -45.5147 90.0563 -45.2183 89.7417C-44.9219 89.4272 -44.5664 89.1741 -44.1721 88.997V88.999ZM-28.8441 85.715C-29.852 83.4739 -30.1726 80.9842 -29.7655 78.5609C-29.3583 76.1375 -28.2417 73.8894 -26.5568 72.1007C-24.8719 70.3119 -22.6945 69.063 -20.2998 68.5118C-17.905 67.9607 -15.4007 68.1321 -13.1034 69.0043C-10.8061 69.8765 -8.819 71.4104 -7.39347 73.4119C-5.96794 75.4135 -5.16797 77.7928 -5.09473 80.249C-5.02149 82.7052 -5.67826 85.128 -6.982 87.2109C-8.28574 89.2939 -10.1779 90.9435 -12.4191 91.951C-15.4245 93.3018 -18.8433 93.4034 -21.9235 92.2336C-25.0038 91.0637 -27.4932 88.7182 -28.8441 85.713V85.715ZM-42.7751 122.402C-43.7828 120.161 -44.1033 117.671 -43.696 115.248C-43.2887 112.825 -42.1719 110.576 -40.4869 108.788C-38.8019 106.999 -36.6244 105.751 -34.2297 105.2C-31.835 104.649 -29.3306 104.82 -27.0334 105.692C-24.7361 106.565 -22.7492 108.099 -21.3238 110.1C-19.8983 112.102 -19.0985 114.481 -19.0253 116.937C-18.9522 119.394 -19.6091 121.816 -20.9129 123.899C-22.2167 125.982 -24.1089 127.632 -26.3501 128.639C-27.8381 129.308 -29.4433 129.678 -31.0741 129.726C-32.7049 129.775 -34.3293 129.502 -35.8546 128.923C-37.3798 128.344 -38.776 127.47 -39.9635 126.351C-41.1509 125.232 -42.1063 123.89 -42.7751 122.402Z" stroke="#B7DEFF" stroke-width="1.679" stroke-miterlimit="10"/>
<mask id="mask1_69_1889" style="mask-type:luminance" maskUnits="userSpaceOnUse" x="-13" y="216" width="84" height="84">
<path d="M32.8697 290.026C33.0797 289.998 33.2887 289.97 33.4987 289.938C33.6227 289.92 33.7457 289.899 33.8687 289.879C33.9917 289.859 34.1137 289.84 34.2357 289.819C34.4447 289.783 34.6527 289.743 34.8607 289.703C34.8977 289.696 34.9337 289.69 34.9707 289.682C35.0267 289.671 35.0827 289.662 35.1397 289.65C35.6577 289.545 36.1717 289.427 36.6817 289.297C36.8687 289.249 37.0547 289.197 37.2407 289.147L42.7227 297.31L48.7807 294.587L46.3137 285.068C46.963 284.645 47.5987 284.197 48.2207 283.725C48.2507 283.703 48.2797 283.679 48.3087 283.657C48.4767 283.528 48.6447 283.399 48.8087 283.266C48.9087 283.189 49.0017 283.11 49.0977 283.032C49.1937 282.954 49.2917 282.874 49.3877 282.794C49.5503 282.661 49.7117 282.523 49.8717 282.381L49.9547 282.309C50.5427 281.795 51.1093 281.262 51.6547 280.709L60.4837 285.037L64.3687 279.65L57.4687 272.64C57.8193 271.949 58.146 271.243 58.4487 270.524L58.4917 270.424C58.5723 270.229 58.652 270.033 58.7307 269.835L58.8637 269.487C58.9077 269.371 58.9527 269.255 58.9947 269.138C59.0673 268.938 59.1383 268.738 59.2077 268.538L59.2447 268.432C59.4953 267.693 59.719 266.948 59.9157 266.199L69.7267 265.532L70.3967 258.925L60.9197 256.302C60.8777 255.528 60.8077 254.753 60.7097 253.978L60.6957 253.869C60.6737 253.7 60.6527 253.531 60.6277 253.362L60.6077 253.239C60.5897 253.115 60.5687 252.992 60.5487 252.869C60.5287 252.746 60.5097 252.624 60.4887 252.502C60.452 252.293 60.4133 252.085 60.3727 251.877L60.3567 251.789L60.3517 251.767C60.2003 251.001 60.022 250.244 59.8167 249.497L67.9797 244.015L65.2557 237.957L55.7377 240.424C55.6317 240.263 55.5267 240.101 55.4187 239.941C55.124 239.505 54.8177 239.076 54.4997 238.653C54.4657 238.607 54.4297 238.563 54.3997 238.517L54.3867 238.5L54.3317 238.429C54.2027 238.261 54.0727 238.093 53.9407 237.929C53.8637 237.829 53.7847 237.737 53.7067 237.641L53.4687 237.35C53.4417 237.319 53.4167 237.286 53.3897 237.25C53.2797 237.119 53.1677 236.991 53.0557 236.863L52.9837 236.778C52.4697 236.191 51.9363 235.624 51.3837 235.078L55.7117 226.248L50.3247 222.364L43.3147 229.264C42.624 228.913 41.9187 228.586 41.1987 228.284C41.1637 228.269 41.1277 228.255 41.0917 228.24C40.8977 228.159 40.7027 228.079 40.5067 228.002C40.3897 227.956 40.2717 227.912 40.1547 227.868C40.0377 227.824 39.9247 227.78 39.8097 227.738C39.6097 227.664 39.4097 227.593 39.2097 227.524C39.1757 227.512 39.1427 227.5 39.1097 227.489C38.371 227.237 37.626 227.013 36.8747 226.817L36.2087 217.006L29.6007 216.336L26.9787 225.813C26.2047 225.855 25.43 225.925 24.6547 226.022L24.5457 226.037C24.3357 226.064 24.1257 226.093 23.9157 226.125C23.7917 226.143 23.6687 226.164 23.5457 226.184C23.4227 226.204 23.3007 226.223 23.1787 226.244C22.9697 226.28 22.7617 226.32 22.5537 226.36L22.4437 226.381C21.6777 226.532 20.921 226.711 20.1737 226.916L14.6907 218.753L8.62867 221.473L11.0957 230.992C10.4463 231.415 9.81067 231.863 9.18867 232.335C9.15867 232.357 9.12967 232.381 9.09967 232.403C8.93167 232.532 8.76467 232.661 8.59967 232.794C8.49967 232.871 8.40668 232.95 8.31068 233.028C8.21468 233.106 8.11668 233.186 8.02068 233.266C7.85768 233.402 7.69767 233.54 7.53767 233.679L7.45367 233.751C6.86567 234.265 6.299 234.798 5.75367 235.351L-3.07632 231.023L-6.95833 236.411L-0.0583267 243.421C-0.40966 244.112 -0.736663 244.818 -1.03933 245.538L-1.08033 245.638C-1.16233 245.834 -1.24233 246.032 -1.32033 246.231C-1.36633 246.345 -1.40932 246.461 -1.45332 246.576C-1.49732 246.691 -1.54233 246.809 -1.58533 246.927C-1.65866 247.127 -1.72899 247.327 -1.79633 247.527L-1.83433 247.635C-2.08633 248.374 -2.30999 249.119 -2.50533 249.868L-12.3163 250.535L-12.9863 257.142L-3.50932 259.765C-3.46799 260.539 -3.39832 261.313 -3.30032 262.088L-3.28532 262.199C-3.26332 262.368 -3.24232 262.537 -3.21732 262.705L-3.19833 262.828C-3.17933 262.952 -3.15833 263.075 -3.13833 263.199C-3.11833 263.323 -3.09932 263.443 -3.07832 263.565C-3.04232 263.774 -3.00366 263.982 -2.96233 264.19L-2.94633 264.278V264.3C-2.79499 265.066 -2.61666 265.823 -2.41132 266.57L-10.5743 272.052L-7.85133 278.11L1.66767 275.643C2.091 276.292 2.53867 276.928 3.01067 277.551L3.02367 277.568L3.07568 277.635C3.20568 277.805 3.33667 277.973 3.46967 278.141C3.54567 278.236 3.62368 278.33 3.70068 278.425C3.77768 278.52 3.86067 278.625 3.94167 278.719L4.01968 278.819C4.12968 278.949 4.24068 279.076 4.35168 279.204L4.42667 279.291C4.94067 279.879 5.47401 280.446 6.02667 280.991L1.69767 289.821L7.08567 293.705L14.0957 286.805C14.7857 287.156 15.491 287.483 16.2117 287.785C16.2457 287.8 16.2807 287.814 16.3117 287.828C16.5117 287.909 16.7037 287.989 16.9017 288.067L16.9367 288.081L16.9697 288.095C17.0627 288.131 17.1567 288.165 17.2497 288.2C17.3657 288.244 17.4817 288.289 17.5987 288.332C17.7987 288.405 17.9987 288.475 18.1987 288.544L18.2987 288.581C19.0373 288.833 19.782 289.057 20.5327 289.252L21.1997 299.063L27.8067 299.733L30.4297 290.256C31.2037 290.215 31.978 290.145 32.7527 290.047L32.8697 290.026ZM4.89967 269.315C4.82167 269.148 4.74768 268.98 4.67268 268.815C4.59768 268.65 4.53267 268.508 4.46568 268.353L4.41567 268.233C2.80683 264.377 2.13051 260.196 2.44167 256.029L2.45168 255.901C2.46668 255.716 2.48768 255.532 2.50668 255.348C2.52368 255.181 2.53767 255.015 2.55767 254.848L2.57468 254.72C3.10722 250.576 4.6103 246.617 6.96167 243.164L7.03468 243.057C7.13968 242.906 7.24867 242.757 7.35667 242.609C7.46467 242.461 7.55167 242.335 7.65667 242.199L7.73567 242.099C10.2689 238.777 13.5502 236.1 17.3127 234.285L17.4277 234.23C17.5977 234.15 17.7687 234.075 17.9397 233.999C18.0907 233.931 18.2397 233.861 18.3937 233.799C18.4337 233.782 18.4727 233.765 18.5127 233.749C22.3689 232.138 26.551 231.46 30.7187 231.77L30.8387 231.779C31.0247 231.795 31.2097 231.816 31.3957 231.835C31.5637 231.852 31.7317 231.867 31.8957 231.887L32.0137 231.902C36.1609 232.435 40.1238 233.939 43.5797 236.293C43.6137 236.316 43.6487 236.339 43.6797 236.363C43.8177 236.463 43.9537 236.563 44.0897 236.658C44.2257 236.753 44.3897 236.873 44.5417 236.984C44.5747 237.009 44.6067 237.035 44.6417 237.06C47.9643 239.594 50.6419 242.877 52.4567 246.641L52.5107 246.753C52.5847 246.91 52.6537 247.068 52.7237 247.225C52.7937 247.382 52.8757 247.555 52.9467 247.725L52.9947 247.84C54.6045 251.694 55.2825 255.874 54.9737 260.04L54.9637 260.167C54.9497 260.341 54.9297 260.514 54.9117 260.688C54.8937 260.862 54.8777 261.044 54.8567 261.222L54.8407 261.348C54.307 265.492 52.8033 269.452 50.4517 272.906L50.3807 273.006C50.2807 273.148 50.1807 273.286 50.0807 273.426C49.9807 273.566 49.8707 273.721 49.7617 273.866L49.6857 273.966C47.1516 277.289 43.8689 279.966 40.1047 281.781C40.0667 281.8 40.0297 281.818 39.9917 281.836C39.8397 281.908 39.6857 281.974 39.5327 282.043C39.3627 282.12 39.1947 282.198 39.0227 282.271C38.9847 282.288 38.9457 282.304 38.9067 282.32C35.0522 283.93 30.8723 284.608 26.7067 284.298C26.6617 284.298 26.6167 284.291 26.5717 284.288C26.4037 284.274 26.2367 284.255 26.0717 284.237C25.9067 284.219 25.7087 284.203 25.5277 284.182C25.4827 284.176 25.4387 284.17 25.3937 284.165C21.2512 283.63 17.2934 282.125 13.8417 279.773L13.7357 279.701C13.5817 279.594 13.4357 279.483 13.2807 279.373C13.1457 279.273 13.0097 279.181 12.8807 279.082C12.8467 279.056 12.8127 279.029 12.7807 279.003C9.45897 276.47 6.78179 273.188 4.96667 269.426L4.89967 269.315Z" fill="white"/>
</mask>
<g mask="url(#mask1_69_1889)">
<path d="M-14.0039 159.348L73.7221 247.074" stroke="#B7DEFF" stroke-width="0.42" stroke-miterlimit="10"/>
<path d="M-14.0039 172.137L73.7221 259.863" stroke="#B7DEFF" stroke-width="0.42" stroke-miterlimit="10"/>
<path d="M-14.0039 184.927L73.7221 272.653" stroke="#B7DEFF" stroke-width="0.42" stroke-miterlimit="10"/>
<path d="M-14.0039 197.716L73.7221 285.442" stroke="#B7DEFF" stroke-width="0.42" stroke-miterlimit="10"/>
<path d="M-14.0039 152.953L73.7221 240.679" stroke="#B7DEFF" stroke-width="0.42" stroke-miterlimit="10"/>
<path d="M-14.0039 165.742L73.7221 253.468" stroke="#B7DEFF" stroke-width="0.42" stroke-miterlimit="10"/>
<path d="M-14.0039 178.532L73.7221 266.258" stroke="#B7DEFF" stroke-width="0.42" stroke-miterlimit="10"/>
<path d="M-14.0039 191.322L73.7221 279.048" stroke="#B7DEFF" stroke-width="0.42" stroke-miterlimit="10"/>
<path d="M-14.0039 204.111L73.7221 291.837" stroke="#B7DEFF" stroke-width="0.42" stroke-miterlimit="10"/>
<path d="M-14.0039 210.506L73.7221 298.232" stroke="#B7DEFF" stroke-width="0.42" stroke-miterlimit="10"/>
<path d="M-14.0039 216.901L73.7221 304.627" stroke="#B7DEFF" stroke-width="0.42" stroke-miterlimit="10"/>
<path d="M-14.0039 223.296L73.7221 311.022" stroke="#B7DEFF" stroke-width="0.42" stroke-miterlimit="10"/>
<path d="M-14.0039 229.691L73.7221 317.417" stroke="#B7DEFF" stroke-width="0.42" stroke-miterlimit="10"/>
<path d="M-14.0039 236.085L73.7221 323.811" stroke="#B7DEFF" stroke-width="0.42" stroke-miterlimit="10"/>
<path d="M-14.0039 242.48L73.7221 330.206" stroke="#B7DEFF" stroke-width="0.42" stroke-miterlimit="10"/>
<path d="M-14.0039 248.875L73.7221 336.601" stroke="#B7DEFF" stroke-width="0.42" stroke-miterlimit="10"/>
<path d="M-14.0039 255.27L73.7221 342.996" stroke="#B7DEFF" stroke-width="0.42" stroke-miterlimit="10"/>
<path d="M-14.0039 162.545L73.7221 250.271" stroke="#B7DEFF" stroke-width="0.42" stroke-miterlimit="10"/>
<path d="M-14.0039 175.335L73.7221 263.061" stroke="#B7DEFF" stroke-width="0.42" stroke-miterlimit="10"/>
<path d="M-14.0039 188.124L73.7221 275.85" stroke="#B7DEFF" stroke-width="0.42" stroke-miterlimit="10"/>
<path d="M-14.0039 200.914L73.7221 288.64" stroke="#B7DEFF" stroke-width="0.42" stroke-miterlimit="10"/>
<path d="M-14.0039 213.703L73.7221 301.429" stroke="#B7DEFF" stroke-width="0.42" stroke-miterlimit="10"/>
<path d="M-14.0039 226.493L73.7221 314.219" stroke="#B7DEFF" stroke-width="0.42" stroke-miterlimit="10"/>
<path d="M-14.0039 239.283L73.7221 327.009" stroke="#B7DEFF" stroke-width="0.42" stroke-miterlimit="10"/>
<path d="M-14.0039 156.15L73.7221 243.876" stroke="#B7DEFF" stroke-width="0.42" stroke-miterlimit="10"/>
<path d="M-14.0039 168.94L73.7221 256.666" stroke="#B7DEFF" stroke-width="0.42" stroke-miterlimit="10"/>
<path d="M-14.0039 181.729L73.7221 269.455" stroke="#B7DEFF" stroke-width="0.42" stroke-miterlimit="10"/>
<path d="M-14.0039 194.519L73.7221 282.245" stroke="#B7DEFF" stroke-width="0.42" stroke-miterlimit="10"/>
<path d="M-14.0039 207.309L73.7221 295.035" stroke="#B7DEFF" stroke-width="0.42" stroke-miterlimit="10"/>
<path d="M-14.0039 220.098L73.7221 307.824" stroke="#B7DEFF" stroke-width="0.42" stroke-miterlimit="10"/>
<path d="M-14.0039 232.888L73.7221 320.614" stroke="#B7DEFF" stroke-width="0.42" stroke-miterlimit="10"/>
<path d="M-14.0039 245.678L73.7221 333.404" stroke="#B7DEFF" stroke-width="0.42" stroke-miterlimit="10"/>
<path d="M-14.0039 252.072L73.7221 339.798" stroke="#B7DEFF" stroke-width="0.42" stroke-miterlimit="10"/>
<path d="M-14.0039 258.467L73.7221 346.193" stroke="#B7DEFF" stroke-width="0.42" stroke-miterlimit="10"/>
<path d="M-14.0039 261.665L73.7221 349.391" stroke="#B7DEFF" stroke-width="0.42" stroke-miterlimit="10"/>
<path d="M-14.0039 264.862L73.7221 352.588" stroke="#B7DEFF" stroke-width="0.42" stroke-miterlimit="10"/>
<path d="M-14.0039 268.059L73.7221 355.785" stroke="#B7DEFF" stroke-width="0.42" stroke-miterlimit="10"/>
<path d="M-14.0039 271.257L73.7221 358.983" stroke="#B7DEFF" stroke-width="0.42" stroke-miterlimit="10"/>
<path d="M-14.0039 274.454L73.7221 362.18" stroke="#B7DEFF" stroke-width="0.42" stroke-miterlimit="10"/>
<path d="M-14.0039 277.652L73.7221 365.378" stroke="#B7DEFF" stroke-width="0.42" stroke-miterlimit="10"/>
</g>
<path d="M32.8697 290.026C33.0797 289.998 33.2887 289.97 33.4987 289.938C33.6227 289.92 33.7457 289.899 33.8687 289.879C33.9917 289.859 34.1137 289.84 34.2357 289.819C34.4447 289.783 34.6527 289.743 34.8607 289.703C34.8977 289.696 34.9337 289.69 34.9707 289.682C35.0267 289.671 35.0827 289.662 35.1397 289.65C35.6577 289.545 36.1717 289.427 36.6817 289.297C36.8687 289.249 37.0547 289.197 37.2407 289.147L42.7227 297.31L48.7807 294.587L46.3137 285.068C46.963 284.645 47.5987 284.197 48.2207 283.725C48.2507 283.703 48.2797 283.679 48.3087 283.657C48.4767 283.528 48.6447 283.399 48.8087 283.266C48.9087 283.189 49.0017 283.11 49.0977 283.032C49.1937 282.954 49.2917 282.874 49.3877 282.794C49.5503 282.661 49.7117 282.523 49.8717 282.381L49.9547 282.309C50.5427 281.795 51.1093 281.262 51.6547 280.709L60.4837 285.037L64.3687 279.65L57.4687 272.64C57.8193 271.949 58.146 271.243 58.4487 270.524L58.4917 270.424C58.5723 270.229 58.652 270.033 58.7307 269.835L58.8637 269.487C58.9077 269.371 58.9527 269.255 58.9947 269.138C59.0673 268.938 59.1383 268.738 59.2077 268.538L59.2447 268.432C59.4953 267.693 59.719 266.948 59.9157 266.199L69.7267 265.532L70.3967 258.925L60.9197 256.302C60.8777 255.528 60.8077 254.753 60.7097 253.978L60.6957 253.869C60.6737 253.7 60.6527 253.531 60.6277 253.362L60.6077 253.239C60.5897 253.115 60.5687 252.992 60.5487 252.869C60.5287 252.746 60.5097 252.624 60.4887 252.502C60.452 252.293 60.4133 252.085 60.3727 251.877L60.3567 251.789L60.3517 251.767C60.2003 251.001 60.022 250.244 59.8167 249.497L67.9797 244.015L65.2557 237.957L55.7377 240.424C55.6317 240.263 55.5267 240.101 55.4187 239.941C55.124 239.505 54.8177 239.076 54.4997 238.653C54.4657 238.607 54.4297 238.563 54.3997 238.517L54.3867 238.5L54.3317 238.429C54.2027 238.261 54.0727 238.093 53.9407 237.929C53.8637 237.829 53.7847 237.737 53.7067 237.641L53.4687 237.35C53.4417 237.319 53.4167 237.286 53.3897 237.25C53.2797 237.119 53.1677 236.991 53.0557 236.863L52.9837 236.778C52.4697 236.191 51.9363 235.624 51.3837 235.078L55.7117 226.248L50.3247 222.364L43.3147 229.264C42.624 228.913 41.9187 228.586 41.1987 228.284C41.1637 228.269 41.1277 228.255 41.0917 228.24C40.8977 228.159 40.7027 228.079 40.5067 228.002C40.3897 227.956 40.2717 227.912 40.1547 227.868C40.0377 227.824 39.9247 227.78 39.8097 227.738C39.6097 227.664 39.4097 227.593 39.2097 227.524C39.1757 227.512 39.1427 227.5 39.1097 227.489C38.371 227.237 37.626 227.013 36.8747 226.817L36.2087 217.006L29.6007 216.336L26.9787 225.813C26.2047 225.855 25.43 225.925 24.6547 226.022L24.5457 226.037C24.3357 226.064 24.1257 226.093 23.9157 226.125C23.7917 226.143 23.6687 226.164 23.5457 226.184C23.4227 226.204 23.3007 226.223 23.1787 226.244C22.9697 226.28 22.7617 226.32 22.5537 226.36L22.4437 226.381C21.6777 226.532 20.921 226.711 20.1737 226.916L14.6907 218.753L8.62867 221.473L11.0957 230.992C10.4463 231.415 9.81067 231.863 9.18867 232.335C9.15867 232.357 9.12967 232.381 9.09967 232.403C8.93167 232.532 8.76467 232.661 8.59967 232.794C8.49967 232.871 8.40668 232.95 8.31068 233.028C8.21468 233.106 8.11668 233.186 8.02068 233.266C7.85768 233.402 7.69767 233.54 7.53767 233.679L7.45367 233.751C6.86567 234.265 6.299 234.798 5.75367 235.351L-3.07632 231.023L-6.95833 236.411L-0.0583267 243.421C-0.40966 244.112 -0.736663 244.818 -1.03933 245.538L-1.08033 245.638C-1.16233 245.834 -1.24233 246.032 -1.32033 246.231C-1.36633 246.345 -1.40932 246.461 -1.45332 246.576C-1.49732 246.691 -1.54233 246.809 -1.58533 246.927C-1.65866 247.127 -1.72899 247.327 -1.79633 247.527L-1.83433 247.635C-2.08633 248.374 -2.30999 249.119 -2.50533 249.868L-12.3163 250.535L-12.9863 257.142L-3.50932 259.765C-3.46799 260.539 -3.39832 261.313 -3.30032 262.088L-3.28532 262.199C-3.26332 262.368 -3.24232 262.537 -3.21732 262.705L-3.19833 262.828C-3.17933 262.952 -3.15833 263.075 -3.13833 263.199C-3.11833 263.323 -3.09932 263.443 -3.07832 263.565C-3.04232 263.774 -3.00366 263.982 -2.96233 264.19L-2.94633 264.278V264.3C-2.79499 265.066 -2.61666 265.823 -2.41132 266.57L-10.5743 272.052L-7.85133 278.11L1.66767 275.643C2.091 276.292 2.53867 276.928 3.01067 277.551L3.02367 277.568L3.07568 277.635C3.20568 277.805 3.33667 277.973 3.46967 278.141C3.54567 278.236 3.62368 278.33 3.70068 278.425C3.77768 278.52 3.86067 278.625 3.94167 278.719L4.01968 278.819C4.12968 278.949 4.24068 279.076 4.35168 279.204L4.42667 279.291C4.94067 279.879 5.47401 280.446 6.02667 280.991L1.69767 289.821L7.08567 293.705L14.0957 286.805C14.7857 287.156 15.491 287.483 16.2117 287.785C16.2457 287.8 16.2807 287.814 16.3117 287.828C16.5117 287.909 16.7037 287.989 16.9017 288.067L16.9367 288.081L16.9697 288.095C17.0627 288.131 17.1567 288.165 17.2497 288.2C17.3657 288.244 17.4817 288.289 17.5987 288.332C17.7987 288.405 17.9987 288.475 18.1987 288.544L18.2987 288.581C19.0373 288.833 19.782 289.057 20.5327 289.252L21.1997 299.063L27.8067 299.733L30.4297 290.256C31.2037 290.215 31.978 290.145 32.7527 290.047L32.8697 290.026ZM4.89967 269.315C4.82167 269.148 4.74768 268.98 4.67268 268.815C4.59768 268.65 4.53268 268.508 4.46568 268.353L4.41567 268.233C2.80683 264.377 2.13051 260.196 2.44167 256.029L2.45168 255.901C2.46668 255.716 2.48768 255.532 2.50668 255.348C2.52368 255.181 2.53767 255.015 2.55767 254.848L2.57468 254.72C3.10722 250.576 4.6103 246.617 6.96167 243.164L7.03468 243.057C7.13968 242.906 7.24867 242.757 7.35667 242.609C7.46467 242.461 7.55167 242.335 7.65667 242.199L7.73567 242.099C10.2689 238.777 13.5502 236.1 17.3127 234.285L17.4277 234.23C17.5977 234.15 17.7687 234.075 17.9397 233.999C18.0907 233.931 18.2397 233.861 18.3937 233.799C18.4337 233.782 18.4727 233.765 18.5127 233.749C22.3689 232.138 26.551 231.46 30.7187 231.77L30.8387 231.779C31.0247 231.795 31.2097 231.816 31.3957 231.835C31.5637 231.852 31.7317 231.867 31.8957 231.887L32.0137 231.902C36.1609 232.435 40.1238 233.939 43.5797 236.293C43.6137 236.316 43.6487 236.339 43.6797 236.363C43.8177 236.463 43.9537 236.563 44.0897 236.658C44.2257 236.753 44.3897 236.873 44.5417 236.984C44.5747 237.009 44.6067 237.035 44.6417 237.06C47.9643 239.594 50.6419 242.877 52.4567 246.641L52.5107 246.753C52.5847 246.91 52.6537 247.068 52.7237 247.225C52.7937 247.382 52.8757 247.555 52.9467 247.725L52.9947 247.84C54.6045 251.694 55.2825 255.874 54.9737 260.04L54.9637 260.167C54.9497 260.341 54.9297 260.514 54.9117 260.688C54.8937 260.862 54.8777 261.044 54.8567 261.222L54.8407 261.348C54.307 265.492 52.8033 269.452 50.4517 272.906L50.3807 273.006C50.2807 273.148 50.1807 273.286 50.0807 273.426C49.9807 273.566 49.8707 273.721 49.7617 273.866L49.6857 273.966C47.1516 277.289 43.8689 279.966 40.1047 281.781C40.0667 281.8 40.0297 281.818 39.9917 281.836C39.8397 281.908 39.6857 281.974 39.5327 282.043C39.3627 282.12 39.1947 282.198 39.0227 282.271C38.9847 282.288 38.9457 282.304 38.9067 282.32C35.0522 283.93 30.8723 284.608 26.7067 284.298C26.6617 284.298 26.6167 284.291 26.5717 284.288C26.4037 284.274 26.2367 284.255 26.0717 284.237C25.9067 284.219 25.7087 284.203 25.5277 284.182C25.4827 284.176 25.4387 284.17 25.3937 284.165C21.2512 283.63 17.2934 282.125 13.8417 279.773L13.7357 279.701C13.5817 279.594 13.4357 279.483 13.2807 279.373C13.1457 279.273 13.0097 279.181 12.8807 279.082C12.8467 279.056 12.8127 279.029 12.7807 279.003C9.45897 276.47 6.78179 273.188 4.96667 269.426L4.89967 269.315Z" stroke="#B7DEFF" stroke-width="0.84" stroke-linecap="round" stroke-linejoin="round"/>
<mask id="mask2_69_1889" style="mask-type:luminance" maskUnits="userSpaceOnUse" x="96" y="31" width="168" height="15">
<path d="M263.113 45.271V31.98L96.8123 31.98V45.271L263.113 45.271Z" fill="white"/>
</mask>
<g mask="url(#mask2_69_1889)">
<path d="M85.168 -151.739L276.62 39.713" stroke="#B7DEFF" stroke-width="0.63" stroke-miterlimit="10"/>
<path d="M85.168 -123.827L276.62 67.625" stroke="#B7DEFF" stroke-width="0.63" stroke-miterlimit="10"/>
<path d="M85.168 -95.915L276.62 95.537" stroke="#B7DEFF" stroke-width="0.63" stroke-miterlimit="10"/>
<path d="M85.168 -137.783L276.62 53.669" stroke="#B7DEFF" stroke-width="0.63" stroke-miterlimit="10"/>
<path d="M85.168 -109.871L276.62 81.581" stroke="#B7DEFF" stroke-width="0.63" stroke-miterlimit="10"/>
<path d="M85.168 -81.959L276.62 109.493" stroke="#B7DEFF" stroke-width="0.63" stroke-miterlimit="10"/>
<path d="M85.168 -68.003L276.62 123.449" stroke="#B7DEFF" stroke-width="0.63" stroke-miterlimit="10"/>
<path d="M85.168 -54.048L276.62 137.404" stroke="#B7DEFF" stroke-width="0.63" stroke-miterlimit="10"/>
<path d="M85.168 -40.092L276.62 151.36" stroke="#B7DEFF" stroke-width="0.63" stroke-miterlimit="10"/>
<path d="M85.168 -26.135L276.62 165.317" stroke="#B7DEFF" stroke-width="0.63" stroke-miterlimit="10"/>
<path d="M85.168 -12.179L276.62 179.273" stroke="#B7DEFF" stroke-width="0.63" stroke-miterlimit="10"/>
<path d="M85.168 1.77701L276.62 193.229" stroke="#B7DEFF" stroke-width="0.63" stroke-miterlimit="10"/>
<path d="M85.168 15.733L276.62 207.185" stroke="#B7DEFF" stroke-width="0.63" stroke-miterlimit="10"/>
<path d="M85.168 29.689L276.62 221.141" stroke="#B7DEFF" stroke-width="0.63" stroke-miterlimit="10"/>
<path d="M85.168 -144.761L276.62 46.691" stroke="#B7DEFF" stroke-width="0.63" stroke-miterlimit="10"/>
<path d="M85.168 -116.85L276.62 74.602" stroke="#B7DEFF" stroke-width="0.63" stroke-miterlimit="10"/>
<path d="M85.168 -88.937L276.62 102.515" stroke="#B7DEFF" stroke-width="0.63" stroke-miterlimit="10"/>
<path d="M85.168 -61.025L276.62 130.427" stroke="#B7DEFF" stroke-width="0.63" stroke-miterlimit="10"/>
<path d="M85.168 -33.113L276.62 158.339" stroke="#B7DEFF" stroke-width="0.63" stroke-miterlimit="10"/>
<path d="M85.168 -5.20102L276.62 186.251" stroke="#B7DEFF" stroke-width="0.63" stroke-miterlimit="10"/>
<path d="M85.168 -158.717L276.62 32.735" stroke="#B7DEFF" stroke-width="0.63" stroke-miterlimit="10"/>
<path d="M85.168 -130.806L276.62 60.646" stroke="#B7DEFF" stroke-width="0.63" stroke-miterlimit="10"/>
<path d="M85.168 -102.893L276.62 88.559" stroke="#B7DEFF" stroke-width="0.63" stroke-miterlimit="10"/>
<path d="M85.168 -74.981L276.62 116.471" stroke="#B7DEFF" stroke-width="0.63" stroke-miterlimit="10"/>
<path d="M85.168 -47.069L276.62 144.383" stroke="#B7DEFF" stroke-width="0.63" stroke-miterlimit="10"/>
<path d="M85.168 -19.157L276.62 172.295" stroke="#B7DEFF" stroke-width="0.63" stroke-miterlimit="10"/>
<path d="M85.168 8.754L276.62 200.206" stroke="#B7DEFF" stroke-width="0.63" stroke-miterlimit="10"/>
<path d="M85.168 22.71L276.62 214.162" stroke="#B7DEFF" stroke-width="0.63" stroke-miterlimit="10"/>
<path d="M85.168 36.667L276.62 228.119" stroke="#B7DEFF" stroke-width="0.63" stroke-miterlimit="10"/>
<path d="M85.168 43.645L276.62 235.097" stroke="#B7DEFF" stroke-width="0.63" stroke-miterlimit="10"/>
</g>
<path d="M263.113 31.98V45.273L96.8135 45.273V31.982" stroke="#B7DEFF" stroke-width="0.63" stroke-miterlimit="10"/>
<path d="M33.4412 42.126C33.6062 42.152 33.7712 42.174 33.9412 42.192C34.0232 42.201 34.1062 42.209 34.1892 42.216C34.3542 42.23 34.5202 42.24 34.6892 42.246H34.7762C34.8392 42.246 34.9022 42.246 34.9652 42.246C35.0282 42.246 35.0912 42.246 35.1552 42.246H35.1912C35.8154 42.239 36.4377 42.1748 37.0502 42.054L39.8552 45.105L43.8322 42.86L42.6692 38.882C42.7972 38.74 42.9219 38.595 43.0432 38.447C43.1479 38.3136 43.2478 38.1803 43.3432 38.047C43.3922 37.98 43.4432 37.912 43.4882 37.847C43.5882 37.71 43.6742 37.572 43.7622 37.431L43.7882 37.389L43.8072 37.358L43.9072 37.196L44.0012 37.032L44.0202 37L44.0442 36.956C44.1655 36.7393 44.2785 36.5177 44.3832 36.291C44.5339 35.9649 44.6674 35.6311 44.7832 35.291L48.8282 34.391L48.8722 29.825L44.8452 28.843C44.7357 28.5033 44.6089 28.1696 44.4652 27.843C44.3645 27.6136 44.2558 27.3896 44.1392 27.171L44.1152 27.127L44.0972 27.095L44.0062 26.929L43.9932 26.905L43.9112 26.765L43.8932 26.734C43.8422 26.648 43.7932 26.563 43.7372 26.479C43.6812 26.395 43.6482 26.339 43.6022 26.27C43.3565 25.9032 43.0876 25.5525 42.7972 25.22L44.0372 21.265L40.1042 18.944L37.2402 21.944C36.9812 21.888 36.7202 21.844 36.4592 21.806C36.3662 21.793 36.2742 21.781 36.1812 21.771C36.0202 21.754 35.8602 21.74 35.6992 21.731H35.6752C35.5752 21.725 35.4822 21.721 35.3862 21.718H35.3502C35.2962 21.718 35.2422 21.718 35.1882 21.718H35.1602C35.0969 21.718 35.0339 21.718 34.9712 21.718H34.9352C34.311 21.7253 33.6887 21.7895 33.0762 21.91L30.2712 18.859L26.2942 21.104L27.4572 25.083C27.1601 25.4094 26.8845 25.7548 26.6322 26.117C26.5382 26.253 26.4462 26.391 26.3582 26.532L26.3322 26.574L26.3122 26.608C26.2789 26.6606 26.2455 26.7136 26.2122 26.767C26.1792 26.822 26.1482 26.878 26.1122 26.933L26.0952 26.963L26.0702 27.007C25.9488 27.2236 25.8359 27.4453 25.7312 27.672C25.5803 27.998 25.4467 28.3318 25.3312 28.672L21.2862 29.572L21.2422 34.139L25.2692 35.12C25.3778 35.4599 25.5046 35.7937 25.6492 36.12C25.7492 36.3493 25.8578 36.5733 25.9752 36.792L25.9992 36.837L26.0152 36.867C26.0462 36.923 26.0762 36.979 26.1082 37.034L26.1212 37.058C26.1472 37.105 26.1742 37.151 26.2022 37.197L26.2212 37.23C26.5405 37.7671 26.9087 38.2736 27.3212 38.743L26.0812 42.698L30.0142 45.02L32.8782 42.02C33.0692 42.06 33.2562 42.096 33.4412 42.126ZM29.4252 35.012L29.4112 34.984C28.9361 34.0882 28.6795 33.0928 28.6622 32.079V31.912V31.79V31.759C28.6978 30.7458 28.9719 29.7553 29.4622 28.868L29.4772 28.841L29.5452 28.725C29.5662 28.69 29.5862 28.654 29.6082 28.625L29.6252 28.598C30.1643 27.7394 30.8982 27.02 31.7672 26.498L31.7932 26.483C31.8322 26.46 31.8712 26.438 31.9102 26.416L32.0172 26.356L32.0452 26.341C32.9415 25.8666 33.9372 25.6103 34.9512 25.593H34.9822C35.0272 25.593 35.0722 25.593 35.1172 25.593C35.1622 25.593 35.1982 25.593 35.2392 25.593H35.2702C36.2838 25.628 37.2747 25.9022 38.1622 26.393L38.1882 26.407C38.2272 26.429 38.2662 26.453 38.3062 26.476L38.4112 26.538L38.4352 26.554C39.2943 27.0932 40.0139 27.8279 40.5352 28.698L40.5502 28.723L40.6102 28.83L40.6772 28.948L40.6912 28.975C41.1659 29.8713 41.4225 30.8669 41.4402 31.881V31.912C41.4402 31.954 41.4402 31.996 41.4402 32.038V32.2C41.4031 33.2139 41.1273 34.2048 40.6352 35.092L40.6202 35.119L40.5562 35.228L40.4892 35.34L40.4732 35.366C39.9342 36.225 39.1999 36.9446 38.3302 37.466L38.3042 37.482C38.2682 37.503 38.2312 37.523 38.1952 37.543C38.1592 37.563 38.1192 37.587 38.0792 37.609L38.0522 37.623C37.1559 38.0977 36.1603 38.3543 35.1462 38.372H35.1152C35.0742 38.372 35.0332 38.372 34.9922 38.372C34.9512 38.372 34.9022 38.372 34.8572 38.372H34.8272C33.8136 38.3348 32.8231 38.0589 31.9362 37.567L31.9082 37.551C31.8732 37.532 31.8382 37.511 31.8082 37.49C31.7782 37.469 31.7302 37.445 31.6922 37.421L31.6642 37.404C30.8056 36.8654 30.0861 36.1319 29.5642 35.263L29.5482 35.236C29.5242 35.196 29.5022 35.156 29.4802 35.116L29.4252 35.012Z" fill="#B7DEFF"/>
<path d="M-43.7619 177.436C-72.802 148.396 -119.885 148.396 -148.926 177.436C-177.966 206.477 -177.966 253.56 -148.926 282.6C-119.885 311.64 -72.802 311.64 -43.7619 282.6C-14.7217 253.56 -14.7217 206.477 -43.7619 177.436Z" stroke="#B7DEFF" stroke-width="0.42" stroke-miterlimit="10"/>
<path d="M151.131 86.752C151.131 52.1072 123.046 24.022 88.4009 24.022C53.7561 24.022 25.6709 52.1072 25.6709 86.752C25.6709 121.397 53.7561 149.482 88.4009 149.482C123.046 149.482 151.131 121.397 151.131 86.752Z" stroke="#B7DEFF" stroke-width="0.21" stroke-miterlimit="10"/>
<path d="M5.9845 127.689C-50.5298 71.1749 -142.158 71.1749 -198.672 127.689C-255.186 184.204 -255.186 275.831 -198.672 332.346C-142.158 388.86 -50.5298 388.86 5.9845 332.346C62.4988 275.831 62.4988 184.204 5.9845 127.689Z" stroke="#B7DEFF" stroke-width="0.21" stroke-miterlimit="10"/>
<path d="M97.0853 32.7676C67.2708 27.9713 39.2132 48.2525 34.4169 78.067C29.6206 107.882 49.9018 135.939 79.7163 140.735C109.531 145.532 137.588 125.251 142.385 95.4361C147.181 65.6216 126.9 37.564 97.0853 32.7676Z" stroke="#B7DEFF" stroke-width="1.679" stroke-miterlimit="10"/>
<path d="M63.0676 31.981V212.834H-88.7324" stroke="#B7DEFF" stroke-width="0.42" stroke-miterlimit="10"/>
<path d="M206.414 31.98V163.503L-88.7295 163.503" stroke="#B7DEFF" stroke-width="0.42" stroke-miterlimit="10"/>
</svg>
