<svg width="224" height="204" viewBox="0 0 224 204" fill="none" xmlns="http://www.w3.org/2000/svg">
<path d="M37.8971 22.7746C55.1612 10.4838 80.2613 10.0721 103.63 10.5622C126.998 11.0522 148.62 12.5786 170.651 21.6386C192.682 30.6987 215.122 47.2925 218.001 67.2132C221.03 87.0139 204.512 110.007 191.48 133.514C178.567 157.17 169.153 181.205 151.672 190.477C134.325 199.763 109.059 194.165 87.9085 184.519C66.9071 174.754 49.8718 161.061 36.1152 143.501C22.3585 125.942 11.8658 104.652 11.4754 81.8689C10.9504 59.0714 20.513 34.9161 37.8971 22.7746Z" fill="white"/>
<path d="M111.767 133.454C99.4696 133.454 87.1725 133.454 74.8754 133.454C74.589 133.454 74.3025 133.459 74.0184 133.452C72.9161 133.424 72.2973 132.89 72.2927 131.974C72.2904 131.066 72.9413 130.491 74.0069 130.477C74.7494 130.468 75.5011 130.534 76.2344 130.454C76.6813 130.406 77.2084 130.253 77.5223 129.959C81.6061 126.155 85.6646 122.326 89.7025 118.473C90.0211 118.169 90.2571 117.674 90.335 117.234C91.2081 112.332 92.0309 107.421 92.9131 102.521C93.0002 102.033 93.3027 101.49 93.6694 101.158C96.2429 98.8407 98.8577 96.5696 101.463 94.2894C102.536 93.3521 103.498 93.4965 104.209 94.7363C107.864 101.114 111.512 107.499 115.156 113.883C115.715 114.862 115.53 115.717 114.702 116.166C113.866 116.622 113.105 116.342 112.518 115.329C109.395 109.932 106.276 104.531 103.157 99.1317C102.334 97.7063 102.155 97.6788 100.952 98.7444C99.4077 100.108 97.8402 101.446 96.33 102.849C95.9863 103.17 95.6998 103.676 95.6196 104.139C94.8038 108.906 94.059 113.684 93.2317 118.448C93.124 119.072 92.7734 119.761 92.3219 120.199C89.3473 123.091 86.3131 125.924 83.2996 128.777C83.1323 128.935 82.9467 129.077 82.8115 129.258C82.4127 129.78 82.6327 130.365 83.2721 130.482C83.4944 130.523 83.7281 130.507 83.9573 130.507C95.4546 130.507 106.95 130.507 118.447 130.507C118.589 130.507 118.733 130.512 118.875 130.505C119.719 130.457 119.991 130.028 119.632 129.251C118.61 127.047 117.569 124.849 116.54 122.646C115.983 121.455 116.045 121.081 116.969 120.128C120.154 116.839 123.326 113.533 126.55 110.283C127.192 109.637 127.29 109.075 127.048 108.237C124.55 99.6428 122.086 91.0375 119.611 82.4369C119.556 82.2444 119.545 82.0153 119.428 81.8709C119.247 81.644 119.006 81.3484 118.765 81.3186C118.523 81.2911 118.147 81.4882 118 81.7036C117.535 82.3888 117.15 83.1267 116.735 83.844C114.508 87.71 112.28 91.5784 110.05 95.4444C109.894 95.7171 109.739 95.9967 109.535 96.2328C109.019 96.8309 108.242 96.9523 107.6 96.533C106.947 96.1067 106.723 95.4903 106.963 94.7455C107.06 94.4521 107.234 94.1794 107.392 93.909C110.894 87.9048 114.404 81.903 117.888 75.8873C118.131 75.468 118.273 74.9294 118.277 74.4459C118.307 70.5203 118.289 66.5969 118.298 62.6713C118.303 61.3444 119.345 60.5584 120.441 61.0396C121.085 61.3215 121.38 61.844 121.38 62.543C121.38 63.3748 121.371 64.2044 121.385 65.0363C121.401 66.0148 121.861 66.3173 122.769 65.9232C124.891 65.0019 127.013 64.083 129.112 63.1113C129.445 62.9578 129.825 62.5636 129.869 62.2405C129.898 62.0136 129.44 61.6057 129.117 61.4636C125.906 60.0405 122.675 58.6609 119.455 57.2584C118.435 56.8138 118.103 56.0965 118.486 55.2257C118.885 54.3205 119.726 54.05 120.8 54.5198C123.731 55.7986 126.658 57.0888 129.587 58.3744C131.39 59.165 133.194 59.9625 135.002 60.744C135.719 61.0534 136.333 61.4269 136.336 62.3321C136.338 63.2373 135.731 63.6155 135.011 63.9271C130.79 65.7467 126.578 67.5938 122.343 69.3859C121.614 69.6953 121.346 70.0963 121.387 70.8686C121.444 71.925 121.465 72.993 121.383 74.0471C121.298 75.1265 121.646 75.9263 122.382 76.7215C125.061 79.6228 127.678 82.5836 130.297 85.5398C130.671 85.9592 130.996 86.4519 131.228 86.963C137.844 101.577 144.446 116.195 151.048 130.816C151.827 132.542 151.236 133.456 149.343 133.456C136.819 133.454 124.293 133.454 111.767 133.454ZM135.16 130.473C138.618 130.473 142.076 130.473 145.537 130.473C147.013 130.473 147.276 130.065 146.666 128.708C140.953 115.985 135.19 103.287 129.571 90.5219C128.436 87.9438 126.587 86.028 124.813 83.993C124.63 83.7821 124.084 83.6653 123.853 83.7867C123.624 83.9059 123.523 84.3734 123.477 84.7057C123.443 84.9394 123.592 85.2007 123.663 85.4459C125.888 93.2215 128.093 101.004 130.364 108.766C130.694 109.891 130.464 110.636 129.667 111.438C126.484 114.646 123.36 117.914 120.191 121.136C119.673 121.663 119.558 122.117 119.893 122.8C121.004 125.055 122.075 127.333 123.133 129.613C123.424 130.239 123.832 130.491 124.531 130.486C128.072 130.459 131.615 130.473 135.16 130.473Z" fill="#FFB635"/>
</svg>
