<svg width="296" height="296" viewBox="0 0 296 296" fill="none" xmlns="http://www.w3.org/2000/svg">
<g filter="url(#filter0_d_83_544)">
<circle cx="148" cy="130" r="60" transform="rotate(90 148 130)" fill="white"/>
</g>
<g clip-path="url(#clip0_83_544)">
<path d="M167.534 110.356C162.351 105.169 155.458 102.311 148.115 102.308C132.982 102.308 120.667 114.619 120.661 129.751C120.659 134.588 121.923 139.309 124.325 143.471L120.431 157.692L134.984 153.876C138.994 156.063 143.509 157.215 148.103 157.217H148.115H148.115C163.245 157.217 175.562 144.904 175.568 129.773C175.571 122.439 172.717 115.544 167.534 110.356ZM148.115 152.582H148.106C144.011 152.58 139.995 151.48 136.492 149.402L135.658 148.908L127.022 151.172L129.328 142.755L128.785 141.892C126.5 138.26 125.294 134.062 125.296 129.752C125.301 117.175 135.537 106.943 148.123 106.943C154.218 106.946 159.947 109.321 164.255 113.633C168.564 117.944 170.934 123.675 170.933 129.771C170.927 142.348 160.691 152.582 148.115 152.582Z" fill="#E0E0E0"/>
<path d="M121.691 156.114L125.408 142.543C123.115 138.571 121.909 134.065 121.911 129.45C121.917 115.009 133.669 103.261 148.109 103.261C155.118 103.264 161.696 105.992 166.641 110.942C171.588 115.892 174.311 122.472 174.308 129.47C174.302 143.911 162.549 155.66 148.11 155.66C148.109 155.66 148.111 155.66 148.11 155.66H148.099C143.714 155.659 139.406 154.558 135.58 152.473L121.691 156.114Z" fill="url(#paint0_linear_83_544)"/>
<path fill-rule="evenodd" clip-rule="evenodd" d="M141.331 118.1C140.823 116.97 140.289 116.948 139.805 116.928C139.41 116.911 138.958 116.912 138.506 116.912C138.054 116.912 137.319 117.082 136.698 117.761C136.076 118.439 134.324 120.079 134.324 123.416C134.324 126.752 136.754 129.976 137.093 130.429C137.432 130.881 141.784 137.946 148.676 140.664C154.404 142.923 155.57 142.473 156.813 142.36C158.057 142.247 160.825 140.72 161.39 139.137C161.955 137.554 161.955 136.197 161.786 135.913C161.616 135.63 161.164 135.461 160.486 135.122C159.808 134.783 156.474 133.142 155.853 132.916C155.231 132.69 154.779 132.577 154.327 133.256C153.875 133.934 152.576 135.461 152.18 135.913C151.785 136.366 151.389 136.423 150.711 136.084C150.033 135.743 147.849 135.028 145.258 132.718C143.242 130.921 141.881 128.701 141.486 128.022C141.09 127.344 141.443 126.977 141.783 126.639C142.088 126.335 142.462 125.847 142.801 125.451C143.139 125.055 143.252 124.773 143.478 124.321C143.704 123.868 143.591 123.472 143.422 123.133C143.252 122.794 141.934 119.441 141.331 118.1Z" fill="white"/>
<path d="M167.31 110.269C162.186 105.141 155.373 102.316 148.113 102.313C133.154 102.313 120.981 114.482 120.975 129.441C120.973 134.222 122.222 138.89 124.597 143.004L120.747 157.062L135.133 153.289C139.097 155.451 143.56 156.59 148.102 156.592H148.113H148.113C163.07 156.592 175.245 144.42 175.251 129.463C175.254 122.213 172.434 115.397 167.31 110.269ZM148.113 152.01H148.105C144.056 152.008 140.087 150.921 136.624 148.866L135.8 148.378L127.263 150.616L129.542 142.296L129.005 141.443C126.747 137.852 125.555 133.703 125.557 129.442C125.562 117.01 135.68 106.895 148.122 106.895C154.147 106.898 159.81 109.246 164.069 113.508C168.327 117.77 170.671 123.435 170.669 129.461C170.664 141.894 160.545 152.01 148.113 152.01Z" fill="white"/>
</g>
<defs>
<filter id="filter0_d_83_544" x="0" y="0" width="296" height="296" filterUnits="userSpaceOnUse" color-interpolation-filters="sRGB">
<feFlood flood-opacity="0" result="BackgroundImageFix"/>
<feColorMatrix in="SourceAlpha" type="matrix" values="0 0 0 0 0 0 0 0 0 0 0 0 0 0 0 0 0 0 127 0" result="hardAlpha"/>
<feOffset dy="18"/>
<feGaussianBlur stdDeviation="44"/>
<feComposite in2="hardAlpha" operator="out"/>
<feColorMatrix type="matrix" values="0 0 0 0 0.35757 0 0 0 0 0.348003 0 0 0 0 0.395833 0 0 0 0.19 0"/>
<feBlend mode="normal" in2="BackgroundImageFix" result="effect1_dropShadow_83_544"/>
<feBlend mode="normal" in="SourceGraphic" in2="effect1_dropShadow_83_544" result="shape"/>
</filter>
<linearGradient id="paint0_linear_83_544" x1="148" y1="156.114" x2="148" y2="103.261" gradientUnits="userSpaceOnUse">
<stop stop-color="#20B038"/>
<stop offset="1" stop-color="#60D66A"/>
</linearGradient>
<clipPath id="clip0_83_544">
<rect width="55.3846" height="55.3846" fill="white" transform="translate(120.308 102.308)"/>
</clipPath>
</defs>
</svg>
